<svg version="1.1" xmlns="http://www.w3.org/2000/svg" xmlns:xlink="http://www.w3.org/1999/xlink" width="474.53708" height="356.46689" viewBox="0,0,474.53708,356.46689"><defs><linearGradient x1="378.91155" y1="5.31373" x2="378.91155" y2="28.32927" gradientUnits="userSpaceOnUse" id="color-1"><stop offset="0" stop-color="#ffffff"/><stop offset="1" stop-color="#d9d9d9"/></linearGradient><linearGradient x1="377.87001" y1="7.8659" x2="377.87001" y2="25.32683" gradientUnits="userSpaceOnUse" id="color-2"><stop offset="0" stop-color="#ff0000"/><stop offset="1" stop-color="#ffc300"/></linearGradient><linearGradient x1="361.07978" y1="5.19152" x2="361.07978" y2="27.81131" gradientUnits="userSpaceOnUse" id="color-3"><stop offset="0" stop-color="#ffffff"/><stop offset="1" stop-color="#d9d9d9"/></linearGradient><linearGradient x1="360.80529" y1="7.8659" x2="360.80529" y2="25.23282" gradientUnits="userSpaceOnUse" id="color-4"><stop offset="0" stop-color="#ff0000"/><stop offset="1" stop-color="#ffc300"/></linearGradient><linearGradient x1="345.59996" y1="5.31843" x2="345.59996" y2="27.89309" gradientUnits="userSpaceOnUse" id="color-5"><stop offset="0" stop-color="#ffffff"/><stop offset="1" stop-color="#d9d9d9"/></linearGradient><linearGradient x1="345.51863" y1="7.8659" x2="345.51863" y2="25.32683" gradientUnits="userSpaceOnUse" id="color-6"><stop offset="0" stop-color="#ff0000"/><stop offset="1" stop-color="#ffc300"/></linearGradient><linearGradient x1="328.05488" y1="5.231" x2="328.05488" y2="27.98991" gradientUnits="userSpaceOnUse" id="color-7"><stop offset="0" stop-color="#ffffff"/><stop offset="1" stop-color="#d9d9d9"/></linearGradient><linearGradient x1="328.00694" y1="7.91948" x2="328.00694" y2="25.32683" gradientUnits="userSpaceOnUse" id="color-8"><stop offset="0" stop-color="#ff0000"/><stop offset="1" stop-color="#ffc300"/></linearGradient><linearGradient x1="312.38187" y1="5.31843" x2="312.38187" y2="27.89309" gradientUnits="userSpaceOnUse" id="color-9"><stop offset="0" stop-color="#ffffff"/><stop offset="1" stop-color="#d9d9d9"/></linearGradient><linearGradient x1="312.3001" y1="7.8659" x2="312.3001" y2="25.32683" gradientUnits="userSpaceOnUse" id="color-10"><stop offset="0" stop-color="#ff0000"/><stop offset="1" stop-color="#ffc300"/></linearGradient><linearGradient x1="466.14898" y1="5.34287" x2="466.14898" y2="27.68629" gradientUnits="userSpaceOnUse" id="color-11"><stop offset="0" stop-color="#ffffff"/><stop offset="1" stop-color="#d9d9d9"/></linearGradient><linearGradient x1="466.05357" y1="8.04074" x2="466.05357" y2="25.09841" gradientUnits="userSpaceOnUse" id="color-12"><stop offset="0" stop-color="#ff0000"/><stop offset="1" stop-color="#ffc300"/></linearGradient><linearGradient x1="454.63088" y1="5.40774" x2="454.63088" y2="27.83199" gradientUnits="userSpaceOnUse" id="color-13"><stop offset="0" stop-color="#ffffff"/><stop offset="1" stop-color="#d9d9d9"/></linearGradient><linearGradient x1="454.53735" y1="8.32181" x2="454.53735" y2="25.23282" gradientUnits="userSpaceOnUse" id="color-14"><stop offset="0" stop-color="#ff0000"/><stop offset="1" stop-color="#ffc300"/></linearGradient><linearGradient x1="441.53119" y1="5.2216" x2="441.53119" y2="28.23714" gradientUnits="userSpaceOnUse" id="color-15"><stop offset="0" stop-color="#ffffff"/><stop offset="1" stop-color="#d9d9d9"/></linearGradient><linearGradient x1="440.48965" y1="7.77377" x2="440.48965" y2="25.23471" gradientUnits="userSpaceOnUse" id="color-16"><stop offset="0" stop-color="#ff0000"/><stop offset="1" stop-color="#ffc300"/></linearGradient><linearGradient x1="422.98595" y1="5.231" x2="422.98595" y2="27.98991" gradientUnits="userSpaceOnUse" id="color-17"><stop offset="0" stop-color="#ffffff"/><stop offset="1" stop-color="#d9d9d9"/></linearGradient><linearGradient x1="422.93801" y1="7.91948" x2="422.93801" y2="25.32683" gradientUnits="userSpaceOnUse" id="color-18"><stop offset="0" stop-color="#ff0000"/><stop offset="1" stop-color="#ffc300"/></linearGradient><linearGradient x1="404.02802" y1="5.23665" x2="404.02802" y2="28.00402" gradientUnits="userSpaceOnUse" id="color-19"><stop offset="0" stop-color="#ffffff"/><stop offset="1" stop-color="#d9d9d9"/></linearGradient><linearGradient x1="404.22215" y1="7.85273" x2="404.22215" y2="25.32683" gradientUnits="userSpaceOnUse" id="color-20"><stop offset="0" stop-color="#ff0000"/><stop offset="1" stop-color="#ffc300"/></linearGradient><linearGradient x1="351.00448" y1="31.71924" x2="351.00448" y2="49.21515" gradientUnits="userSpaceOnUse" id="color-21"><stop offset="0" stop-color="#131837"/><stop offset="1" stop-color="#242f70"/></linearGradient><linearGradient x1="350.90884" y1="33.30309" x2="350.90884" y2="47.42161" gradientUnits="userSpaceOnUse" id="color-22"><stop offset="0" stop-color="#721987"/><stop offset="1" stop-color="#f435a0"/></linearGradient><linearGradient x1="337.85794" y1="30.29387" x2="337.85794" y2="47.22393" gradientUnits="userSpaceOnUse" id="color-23"><stop offset="0" stop-color="#131837"/><stop offset="1" stop-color="#242f70"/></linearGradient><linearGradient x1="337.66827" y1="31.8721" x2="337.66827" y2="45.55684" gradientUnits="userSpaceOnUse" id="color-24"><stop offset="0" stop-color="#721987"/><stop offset="1" stop-color="#f435a0"/></linearGradient><linearGradient x1="325.15839" y1="31.79287" x2="325.15839" y2="50.12271" gradientUnits="userSpaceOnUse" id="color-25"><stop offset="0" stop-color="#131837"/><stop offset="1" stop-color="#242f70"/></linearGradient><linearGradient x1="324.9335" y1="33.6064" x2="324.9335" y2="48.31957" gradientUnits="userSpaceOnUse" id="color-26"><stop offset="0" stop-color="#721987"/><stop offset="1" stop-color="#f435a0"/></linearGradient><linearGradient x1="311.49084" y1="29.60398" x2="311.49084" y2="48.8662" gradientUnits="userSpaceOnUse" id="color-27"><stop offset="0" stop-color="#131837"/><stop offset="1" stop-color="#242f70"/></linearGradient><linearGradient x1="311.75976" y1="31.42072" x2="311.75976" y2="46.87979" gradientUnits="userSpaceOnUse" id="color-28"><stop offset="0" stop-color="#721987"/><stop offset="1" stop-color="#f435a0"/></linearGradient><linearGradient x1="465.88949" y1="30.71403" x2="465.88949" y2="50.37401" gradientUnits="userSpaceOnUse" id="color-29"><stop offset="0" stop-color="#131837"/><stop offset="1" stop-color="#242f70"/></linearGradient><linearGradient x1="465.79026" y1="32.62521" x2="465.79026" y2="48.45724" gradientUnits="userSpaceOnUse" id="color-30"><stop offset="0" stop-color="#721987"/><stop offset="1" stop-color="#f435a0"/></linearGradient><linearGradient x1="452.00787" y1="29.35188" x2="452.00787" y2="47.1335" gradientUnits="userSpaceOnUse" id="color-31"><stop offset="0" stop-color="#131837"/><stop offset="1" stop-color="#242f70"/></linearGradient><linearGradient x1="451.90663" y1="31.10779" x2="451.90663" y2="45.56246" gradientUnits="userSpaceOnUse" id="color-32"><stop offset="0" stop-color="#721987"/><stop offset="1" stop-color="#f435a0"/></linearGradient><linearGradient x1="441.7377" y1="32.38671" x2="441.7377" y2="48.84938" gradientUnits="userSpaceOnUse" id="color-33"><stop offset="0" stop-color="#131837"/><stop offset="1" stop-color="#242f70"/></linearGradient><linearGradient x1="441.82133" y1="33.95054" x2="441.82133" y2="47.1503" gradientUnits="userSpaceOnUse" id="color-34"><stop offset="0" stop-color="#721987"/><stop offset="1" stop-color="#f435a0"/></linearGradient><linearGradient x1="432.78406" y1="31.01256" x2="432.78406" y2="50.6117" gradientUnits="userSpaceOnUse" id="color-35"><stop offset="0" stop-color="#131837"/><stop offset="1" stop-color="#242f70"/></linearGradient><linearGradient x1="432.56197" y1="32.8517" x2="432.56197" y2="48.81098" gradientUnits="userSpaceOnUse" id="color-36"><stop offset="0" stop-color="#721987"/><stop offset="1" stop-color="#f435a0"/></linearGradient><linearGradient x1="420.78799" y1="30.55237" x2="420.78799" y2="47.54167" gradientUnits="userSpaceOnUse" id="color-37"><stop offset="0" stop-color="#131837"/><stop offset="1" stop-color="#242f70"/></linearGradient><linearGradient x1="420.61312" y1="32.14661" x2="420.61312" y2="45.85859" gradientUnits="userSpaceOnUse" id="color-38"><stop offset="0" stop-color="#721987"/><stop offset="1" stop-color="#f435a0"/></linearGradient><linearGradient x1="407.46899" y1="32.97575" x2="407.46899" y2="49.64812" gradientUnits="userSpaceOnUse" id="color-39"><stop offset="0" stop-color="#131837"/><stop offset="1" stop-color="#242f70"/></linearGradient><linearGradient x1="407.2353" y1="34.55159" x2="407.2353" y2="48.01466" gradientUnits="userSpaceOnUse" id="color-40"><stop offset="0" stop-color="#721987"/><stop offset="1" stop-color="#f435a0"/></linearGradient><linearGradient x1="395.97674" y1="30.14741" x2="395.97674" y2="47.66571" gradientUnits="userSpaceOnUse" id="color-41"><stop offset="0" stop-color="#131837"/><stop offset="1" stop-color="#242f70"/></linearGradient><linearGradient x1="395.88229" y1="31.73685" x2="395.88229" y2="45.87617" gradientUnits="userSpaceOnUse" id="color-42"><stop offset="0" stop-color="#721987"/><stop offset="1" stop-color="#f435a0"/></linearGradient><linearGradient x1="375.29194" y1="31.95373" x2="375.29194" y2="50.03147" gradientUnits="userSpaceOnUse" id="color-43"><stop offset="0" stop-color="#131837"/><stop offset="1" stop-color="#242f70"/></linearGradient><linearGradient x1="375.40878" y1="33.62241" x2="375.40878" y2="48.42762" gradientUnits="userSpaceOnUse" id="color-44"><stop offset="0" stop-color="#721987"/><stop offset="1" stop-color="#f435a0"/></linearGradient><linearGradient x1="365.42394" y1="30.81888" x2="365.42394" y2="48.38201" gradientUnits="userSpaceOnUse" id="color-45"><stop offset="0" stop-color="#131837"/><stop offset="1" stop-color="#242f70"/></linearGradient><linearGradient x1="365.37232" y1="32.81089" x2="365.37232" y2="46.60448" gradientUnits="userSpaceOnUse" id="color-46"><stop offset="0" stop-color="#721987"/><stop offset="1" stop-color="#f435a0"/></linearGradient></defs><g transform="translate(-2.83159,-2.25001)"><g data-paper-data="{&quot;isPaintingLayer&quot;:true}" fill-rule="nonzero" stroke-width="1" stroke-linecap="butt" stroke-linejoin="miter" stroke-dasharray="" stroke-dashoffset="0" style="mix-blend-mode: normal"><text transform="translate(7.60003,26.00001) scale(0.5,0.5)" font-size="40" xml:space="preserve" fill="#000000" fill-rule="nonzero" stroke="none" stroke-width="1" stroke-linecap="butt" stroke-linejoin="miter" stroke-miterlimit="10" stroke-dasharray="" stroke-dashoffset="0" font-family="Sans Serif" font-weight="normal" text-anchor="start" style="mix-blend-mode: normal"><tspan x="0" dy="0">Other</tspan></text><text transform="translate(6.00002,24.00001) scale(0.5,0.5)" font-size="40" xml:space="preserve" data-paper-data="{&quot;origPos&quot;:null}" fill="#ffffff" fill-rule="nonzero" stroke="none" stroke-width="1" stroke-linecap="butt" stroke-linejoin="miter" stroke-miterlimit="10" stroke-dasharray="" stroke-dashoffset="0" font-family="Sans Serif" font-weight="normal" text-anchor="start" style="mix-blend-mode: normal"><tspan x="0" dy="0">Other</tspan></text><text transform="translate(3,43.79889) scale(0.33681,0.3064)" font-size="40" xml:space="preserve" data-paper-data="{&quot;origPos&quot;:null}" fill="#ffffff" fill-rule="nonzero" stroke="none" stroke-width="1" stroke-linecap="butt" stroke-linejoin="miter" stroke-miterlimit="10" stroke-dasharray="" stroke-dashoffset="0" font-family="Sans Serif" font-weight="normal" text-anchor="start" style="mix-blend-mode: normal"><tspan x="0" dy="0">-</tspan><tspan x="0" dy="46.150000000000006px">-</tspan><tspan x="0" dy="46.150000000000006px">-</tspan><tspan x="0" dy="46.150000000000006px">-</tspan><tspan x="0" dy="46.150000000000006px">-</tspan><tspan x="0" dy="46.150000000000006px">-</tspan><tspan x="0" dy="46.150000000000006px">-</tspan><tspan x="0" dy="46.150000000000006px">-</tspan><tspan x="0" dy="46.150000000000006px">-</tspan><tspan x="0" dy="46.150000000000006px">-</tspan><tspan x="0" dy="46.150000000000006px">-</tspan><tspan x="0" dy="46.150000000000006px">-</tspan><tspan x="0" dy="46.150000000000006px">-</tspan><tspan x="0" dy="46.150000000000006px">-</tspan><tspan x="0" dy="46.150000000000006px">-</tspan><tspan x="0" dy="46.150000000000006px">-</tspan><tspan x="0" dy="46.150000000000006px">-</tspan><tspan x="0" dy="46.150000000000006px">-</tspan><tspan x="0" dy="46.150000000000006px">-</tspan><tspan x="0" dy="46.150000000000006px">-</tspan><tspan x="0" dy="46.150000000000006px">-</tspan><tspan x="0" dy="46.150000000000006px">-</tspan><tspan x="0" dy="46.150000000000006px">-</tspan></text><g stroke-miterlimit="4"><g><path d="M387.84976,11.11743l-2.16299,7.88022l-0.52453,0.30269l5.41171,4.0374l-11.00109,4.99153l-1.7334,-2.38766l-0.10716,1.10641h-8.36996l-2.11316,-19.43404l12.67057,-2.30023z" fill="url(#color-1)" stroke="#686868"/><path d="M385.0908,12.08002l-1.46362,5.32805l-2.83135,1.63753l5.07331,3.78454l-5.5029,2.4967l-4.30813,-5.93436l-0.50948,5.24909h-4.04021l-1.63753,-15.05823l9.46227,-1.71742zM375.97726,17.30091l2.93381,-1.05282l0.58094,-3.20924l-3.51475,-0.78209z" fill="url(#color-2)" stroke="#511100"/></g><g><path d="M371.75186,7.59987l-2.65086,9.69258l-1.42602,-0.39105l-0.33371,1.70238l1.37149,-0.11187l1.44294,9.3194l-17.04261,-1.00959l-2.70538,-7.70537l3.13122,-13.90482z" fill="url(#color-3)" stroke="#686868"/><path d="M368.70337,9.62374l-1.28784,4.71139l-6.75125,-1.85279l-1.38183,3.04661h0.094l6.09229,-0.54991l0.094,0.18801l-0.83193,4.24044l-5.1673,-0.73792l0.08083,2.77776l0.09401,0.18801l6.93831,-0.56308l0.64486,4.16054l-12.46847,-0.73886l-1.94585,-5.54237l2.4967,-11.08569z" fill="url(#color-4)" stroke="#511100"/></g><g><path d="M356.07698,11.23494l-2.17145,7.82946l-4.52245,3.80709l-2.98458,-0.17015l-0.16356,4.53749l-9.26111,0.65427l-1.85091,-20.328l12.94317,-2.24666z" fill="url(#color-5)" stroke="#686868"/><path d="M353.31612,12.18719l-1.53035,5.51605l-3.22052,2.71103l-4.48297,-0.25474l-0.17485,4.83172l-4.75088,0.33559l-1.43541,-15.76982l9.74334,-1.6911zM343.82753,17.27363l2.93287,-1.05282l0.58094,-3.20924l-3.5138,-0.78209z" fill="url(#color-6)" stroke="#511100"/></g><g><path d="M333.97891,7.02551l6.52,19.54402l-11.28874,1.42038l-0.85541,-3.99039l-1.05752,0.17014l-1.07069,3.80239l-10.61568,-2.31058l6.68357,-20.43046z" fill="url(#color-7)" stroke="#686868"/><path d="M332.16091,9.18098l5.12688,15.36655l-6.18723,0.77929l-0.87233,-4.06654l-4.83172,0.77833l-0.87234,3.1002l-5.79806,-1.26151l5.22089,-15.95783zM327.14117,13.43553l-0.59033,3.77139h2.91219l-1.07351,-4.25455z" fill="url(#color-8)" stroke="#511100"/></g><g><path d="M322.85938,11.23494l-2.17239,7.82946l-4.52245,3.80709l-2.98363,-0.17015l-0.1645,4.53749l-9.26016,0.65427l-1.85184,-20.328l12.94412,-2.24666z" fill="url(#color-9)" stroke="#686868"/><path d="M320.09759,12.18719l-1.53036,5.51605l-3.22052,2.71103l-4.48297,-0.25474l-0.1739,4.83172l-4.75087,0.33559l-1.43635,-15.76982l9.74334,-1.6911zM310.609,17.27363l2.93288,-1.05282l0.58094,-3.20924l-3.5138,-0.78209z" fill="url(#color-10)" stroke="#511100"/></g><g><path d="M472.09369,8.14883l4.72643,7.51455l-3.18949,9.67285l-9.67942,2.35006l-8.08796,-5.40325l-0.38542,-10.36752l8.16222,-6.57264z" fill="url(#color-11)" stroke="#686868"/><path d="M470.51634,10.16049l3.66326,5.82532l-2.41586,7.32748l-7.3538,1.78511l-6.18723,-4.13423l-0.29516,-7.93098l6.20038,-4.99246zM463.55076,18.85758l3.44894,0.77834l1.23519,-4.1737l-4.40213,-1.24836z" fill="url(#color-12)" stroke="#511100"/></g><g><path d="M460.63104,7.60457l-3.08985,20.22742l-8.91047,-0.80091l1.26432,-21.62335z" fill="url(#color-13)" stroke="#686868"/><path d="M457.90591,9.50341l-2.40175,15.7294l-4.33538,-0.38917l0.96634,-16.52184z" fill="url(#color-14)" stroke="#511100"/></g><g><path d="M450.4694,11.02532l-2.163,7.88022l-0.52454,0.30268l5.41172,4.0374l-11.00109,4.99152l-1.73341,-2.38766l-0.10716,1.10641h-8.36996l-2.11317,-19.43404l12.67057,-2.30023z" fill="url(#color-15)" stroke="#686868"/><path d="M447.71043,11.9879l-1.46362,5.32805l-2.83135,1.63753l5.07331,3.78454l-5.50289,2.4967l-4.30813,-5.93436l-0.50948,5.24909h-4.04022l-1.63752,-15.05824l9.46227,-1.71741zM438.5969,17.20878l2.93381,-1.05283l0.58094,-3.20923l-3.51475,-0.78209z" fill="url(#color-16)" stroke="#511100"/></g><g><path d="M428.90997,7.02551l6.52,19.54402l-11.2878,1.42038l-0.85637,-3.99039l-1.05752,0.17014l-1.06975,3.80239l-10.61662,-2.31058l6.6845,-20.43046z" fill="url(#color-17)" stroke="#686868"/><path d="M427.09196,9.18098l5.12688,15.36655l-6.18723,0.77929l-0.87234,-4.06654l-4.83172,0.77833l-0.87234,3.1002l-5.79806,-1.26151l5.22089,-15.95783zM422.07224,13.43553l-0.59033,3.77139h2.91219l-1.07351,-4.25455z" fill="url(#color-18)" stroke="#511100"/></g><g><path d="M405.66508,6.13532l0.67212,1.89038l0.89865,-1.39124l7.02949,0.93815l2.81067,19.22348l-10.76796,1.20793l-0.29047,-6.13365l-1.71178,1.50309l-1.29159,-1.95524l-2.32938,6.07444l-9.70479,-4.62961l7.62453,-17.62637z" fill="url(#color-19)" stroke="#686868"/><path d="M403.89313,8.33591l1.7851,5.01878h0.08084l2.6706,-4.13328l3.71779,0.49633l2.18744,14.96422l-5.74449,0.64486l-0.40233,-8.49593h-0.08085l-3.31452,2.91219l-2.34911,-3.5561l-3.07294,8.01181l-5.26131,-2.50986l5.98607,-13.8362z" fill="url(#color-20)" stroke="#511100"/></g><g><path d="M354.13255,31.95294l5.01804,5.54466l-2.79394,5.48142l-0.86996,0.28891l3.56545,4.01283l-8.54667,1.93439l-1.25651,-2.83475l-0.42097,1.52942l-5.96962,-1.23089l1.42698,-14.95968z" fill="url(#color-21)" stroke="#060914"/><path d="M353.42986,33.48716l3.85436,4.25852l-2.01922,3.96321l-2.49941,0.83075l3.38458,3.80875l-4.74433,1.07325l-2.41698,-5.45181l-0.12645,-0.0256l-1.14367,4.15449l-3.18529,-0.65707l1.15727,-12.13853zM349.00407,40.56124l2.81315,-0.26972l1.16208,-2.58425l-3.08525,-1.83834z" fill="url(#color-22)" stroke="#260837"/></g><g><path d="M340.39577,30.49314l6.93561,14.2826l-8.06167,2.10326l-1.10444,-3.10767l-1.41657,0.42178l-0.43938,3.03083l-7.92482,-0.66907l3.06284,-16.261z" fill="url(#color-23)" stroke="#060914"/><path d="M339.41458,32.02176l5.69671,11.73116l-4.85717,1.26772l-1.12126,-3.15568l-3.77514,1.12606l-0.37295,2.56585l-4.75953,-0.40175l2.50181,-13.28299zM335.85233,35.94175l-0.07763,3.07245l2.32495,-0.30412l-1.30133,-3.28453z" fill="url(#color-24)" stroke="#260837"/></g><g><path d="M333.63783,34.74607l-2.4762,6.82197l-1.14686,-0.41698l-0.63065,2.2377h1.25892l0.48819,6.73394l-12.87883,-1.81994l-1.57344,-6.00164l3.28214,-10.50827z" fill="url(#color-25)" stroke="#060914"/><path d="M331.5754,35.88571l-1.34135,3.6959l-5.29574,-1.92717l-1.30854,2.35375l0.07523,0.00639l4.9252,-0.04321l0.06322,0.15687l-0.94439,3.34856l-4.09846,-0.92998l-0.11685,2.23451l0.06323,0.15686l5.60467,0.00081l0.2449,3.38057l-9.95604,-1.40697l-1.19889,-4.57466l2.72671,-8.73154z" fill="url(#color-26)" stroke="#260837"/></g><g><path d="M321.11115,37.29831l-5.03404,0.17207l1.11244,9.40222l-7.45423,1.99361l-0.66507,-10.52667l-4.54905,1.18208l-2.65068,-6.77875l18.9765,-3.13887z" fill="url(#color-27)" stroke="#060914"/><path d="M319.5089,35.80249l-5.16849,0.17687l1.15167,9.74235l-4.32895,1.15807l-0.66427,-10.51307l-5.03564,1.30853l-1.45258,-3.71511l15.34784,-2.53943z" fill="url(#color-28)" stroke="#260837"/></g><g><path d="M466.35088,35.42395l3.39418,-2.7331l5.83517,6.13528l-7.77114,5.25973l-0.71229,6.28815l-9.3526,-2.25051l2.40418,-6.54666l-3.9496,-8.41942l8.97725,-2.4434z" fill="url(#color-29)" stroke="#060914"/><path d="M465.43451,38.15305l4.1713,-3.35976l3.59026,3.77513l-6.84597,4.63387l-0.59544,5.25494l-5.95601,-1.43338l2.02802,-5.51984l-3.44219,-7.33577l5.6711,-1.54302z" fill="url(#color-30)" stroke="#260837"/></g><g><path d="M461.56335,31.52396l-1.85036,7.47343l-4.88919,-1.21169l-1.50301,9.34779l-7.71432,-0.12165l2.2401,-10.30658l-4.69951,-0.10804l-0.69468,-7.24533z" fill="url(#color-31)" stroke="#060914"/><path d="M459.63536,32.8645l-1.05402,4.25532l-5.02044,-1.2437l-1.55743,9.68634l-4.48021,-0.07043l2.23691,-10.29377l-5.20131,-0.11924l-0.38096,-3.97121z" fill="url(#color-32)" stroke="#260837"/></g><g><path d="M445.4024,32.44673l0.67547,15.72478l-6.42741,0.67787l-2.25292,-16.46267z" fill="url(#color-33)" stroke="#060914"/><path d="M443.91779,33.98575l0.54902,12.79719l-3.48461,0.36736l-1.80634,-13.19977z" fill="url(#color-34)" stroke="#260837"/></g><g><path d="M436.13622,32.76767l-2.61226,9.32378l7.18452,-0.23289l-2.98041,8.75316l-12.86843,-2.71951l2.48501,-16.87964z" fill="url(#color-35)" stroke="#060914"/><path d="M434.19224,33.95935l-2.7315,9.74956l7.05805,-0.22889l-1.81513,5.33096l-10.09849,-2.13367l2.03522,-13.82561z" fill="url(#color-36)" stroke="#260837"/></g><g><path d="M423.51351,30.8637l6.75793,14.36664l-8.08648,2.00321l-1.06683,-3.12127l-1.42138,0.40496l-0.47699,3.02443l-7.91521,-0.76671l3.26292,-16.22258z" fill="url(#color-37)" stroke="#060914"/><path d="M422.5139,32.37951l5.55025,11.80078l-4.87237,1.20689l-1.08204,-3.16848l-3.78873,1.07884l-0.40497,2.56105l-4.75393,-0.46098l2.66588,-13.25097zM418.90283,36.25468l-0.11604,3.07084l2.32894,-0.2753l-1.26051,-3.29975z" fill="url(#color-38)" stroke="#260837"/></g><g><path d="M413.49423,40.18108l-1.21089,-0.14805l-0.11124,2.32255l1.2269,-0.28331l1.99041,6.45062l-12.95645,1.12526l-2.88437,-5.49343l0.83234,-10.97805l13.99048,-0.20088z" fill="url(#color-39)" stroke="#060914"/><path d="M412.14329,38.45394l-5.59346,-0.68588l-0.7443,2.58825l0.07443,-0.01118l4.78914,-1.15086l0.09684,0.13925l-0.16726,3.47501l-4.20171,0.01602l0.38896,2.20329l0.09684,0.13926l5.46062,-1.26051l0.99961,3.2381l-10.01686,0.86996l-2.19849,-4.1873l0.69229,-9.12129l10.79878,-0.15447z" fill="url(#color-40)" stroke="#260837"/></g><g><path d="M399.14122,30.41872l4.99802,5.56226l-2.81394,5.47102l-0.87075,0.28571l3.55024,4.02564l-8.55387,1.90237l-1.2461,-2.83955l-0.42737,1.52862l-5.96323,-1.25331l1.48061,-14.95407z" fill="url(#color-41)" stroke="#060914"/><path d="M398.43374,31.94891l3.83837,4.27294l-2.03444,3.95601l-2.5018,0.82114l3.37016,3.82155l-4.74753,1.05563l-2.39697,-5.46062l-0.12725,-0.02639l-1.15888,4.15049l-3.18289,-0.66828l1.20288,-12.13452zM393.98152,39.007l2.81394,-0.2593l1.17167,-2.58025l-3.07805,-1.84954z" fill="url(#color-42)" stroke="#260837"/></g><g><path d="M384.40643,47.12389l-5.33496,2.40818l-2.23291,-2.33454l0.67068,2.48981l-7.94403,0.34415l-3.38777,-14.5539l6.96282,-2.05525l2.33134,2.67628l-0.7131,-3.4582l8.80357,-0.68668z" fill="url(#color-43)" stroke="#060914"/><path d="M382.79938,46.1491l-3.36616,1.51902l-5.66791,-5.9248l1.74471,6.47942l-4.72751,0.20488l-2.76432,-11.87761l4.60666,-1.35975l5.55987,6.38099l-1.55343,-7.52224l5.47181,-0.42657z" fill="url(#color-44)" stroke="#260837"/></g><g><path d="M370.44397,33.07658l-3.67429,15.30541l-6.36578,-1.11565l2.35936,-16.44748z" fill="url(#color-45)" stroke="#060914"/><path d="M368.59282,34.14822l-2.99002,12.45624l-3.45099,-0.60505l1.89116,-13.18855z" fill="url(#color-46)" stroke="#260837"/></g></g></g></g></svg>