<svg version="1.1" xmlns="http://www.w3.org/2000/svg" xmlns:xlink="http://www.w3.org/1999/xlink" width="161.95169" height="46.06729" viewBox="0,0,161.95169,46.06729"><defs><linearGradient x1="240" y1="156.96636" x2="240" y2="203.03365" gradientUnits="userSpaceOnUse" id="color-1"><stop offset="0" stop-color="#ff4f00"/><stop offset="1" stop-color="#ffab1c"/></linearGradient></defs><g transform="translate(-159.02415,-156.96635)"><g data-paper-data="{&quot;isPaintingLayer&quot;:true}" fill-rule="nonzero" stroke="#000000" stroke-width="0" stroke-linecap="butt" stroke-linejoin="miter" stroke-miterlimit="10" stroke-dasharray="" stroke-dashoffset="0" style="mix-blend-mode: normal"><path d="M162.89332,160.60059c5.6212,-4.77824 147.65904,-4.91259 154.113,0c5.53936,4.21642 5.04016,35.59912 0,39.3503c-5.45404,4.05921 -149.18668,4.16116 -154.113,0c-4.65639,-3.93316 -5.63809,-34.55771 0,-39.3503z" fill="url(#color-1)"/><g fill="#000000"><path d="M183.66858,164.8765c6.06624,3.06732 9.18346,4.60092 9.35261,4.60092c0,0.26896 -1.26464,2.70448 -3.79183,7.30436h-0.17729c-0.20172,0 -3.10909,-1.3726 -8.71988,-4.11989l-2.85629,3.81731c4.83626,2.32536 10.70892,5.29076 17.61798,8.89717c-3.13456,5.5781 -5.35905,9.28537 -6.6736,11.12167l-14.28065,1.26359c-6.52179,-4.39816 -9.96823,-6.67267 -10.3391,-6.82448v-0.17729c0,-0.47184 1.32373,-2.63724 3.96912,-6.49527h0.32806c1.04559,0.6226 4.32277,2.41819 9.83271,5.38349l3.33732,-3.79183c-10.12819,-5.15629 -15.73991,-8.07168 -16.83436,-8.74524v-0.15181c3.21809,-6.26912 4.97074,-9.44544 5.25715,-9.52896c8.37542,-1.70182 13.03439,-2.55371 13.97807,-2.55371z"/><path d="M205.33106,164.8765l11.12166,1.97182l-1.06176,8.44266c2.20716,-0.11819 3.82545,-0.17729 4.85254,-0.17729h1.6183l0.35353,-0.17636l0.17741,0.35365c-0.35469,5.12267 -0.65727,8.00444 -0.91006,8.64438l-0.35353,-0.20172c-0.25384,0 -2.52824,-0.11819 -6.82553,-0.35458c-0.23534,3.96098 -0.41275,8.69534 -0.53094,14.2062l-0.35353,0.17635c-5.42641,-0.35365 -8.66183,-0.65727 -9.70625,-0.91006l0.17729,-0.70718c0,-1.46636 0.23534,-6.01633 0.70718,-13.64991c-4.54996,-0.25268 -6.82448,-0.55536 -6.82448,-0.90994c0.2365,-5.62813 0.53908,-8.44161 0.91006,-8.44161l6.64813,1.26359v-2.17365c0,-1.76998 -0.06829,-4.1627 -0.20277,-7.17906c0.13448,0 0.20277,-0.0591 0.20277,-0.17729z"/><path d="M228.91348,172.51007c10.00988,1.38179 15.01436,2.23368 15.01436,2.55371c3.94365,3.38723 5.91547,5.19806 5.91547,5.43444c-1.60084,5.00448 -2.5109,8.04619 -2.72996,9.12436c1.60084,3.55544 2.5109,5.67908 2.72996,6.36998c0,0.20172 -2.61281,0.74185 -7.83634,1.61724c-0.06724,-0.28641 -0.54722,-0.92635 -1.44089,-1.92087c-7.21164,1.38179 -11.09619,2.07268 -11.6526,2.07268l-3.84174,-10.38796l8.46813,-4.47458c1.36445,0.21905 3.49623,0.3291 6.39441,0.3291c0,-0.37087 0.05095,-1.49184 0.15181,-3.36175c-0.48917,0 -4.85266,0.32003 -13.09348,0.95997l-0.15181,-0.32817c1.14633,-5.32543 1.83723,-7.98816 2.07268,-7.98816zM234.17168,187.37366c0,0.18438 0.53908,2.15621 1.61713,5.91442h0.15193c2.12364,-1.38179 3.18446,-2.29185 3.18446,-2.72996l0.3291,-2.7046c-0.4046,0 -2.1654,-0.15996 -5.28262,-0.47987z"/><path d="M270.41855,172.51007c3.33628,1.87097 5.38349,3.08453 6.14174,3.6399c-2.73008,5.67908 -4.19539,8.56911 -4.39816,8.66997h-0.17635l-3.61548,-3.15899l-4.27182,5.20619l0.48103,9.47906c-0.21906,0.20276 -3.00822,0.6746 -8.36728,1.4154c-0.20172,-1.44903 -1.51627,-8.55166 -3.9426,-21.3079c0,-0.20183 3.52171,-0.72451 10.56525,-1.56734c0.1182,0.13459 0.43822,1.71101 0.96101,4.72737c4.21261,-4.73551 6.41989,-7.10368 6.62265,-7.10368z"/><path d="M286.11461,164.8765l11.12178,1.97182l-1.06083,8.44266c2.20716,-0.11819 3.8244,-0.17729 4.85266,-0.17729h1.61817l0.35365,-0.17636l0.17729,0.35365c-0.35469,5.12267 -0.65728,8.00444 -0.91007,8.64438l-0.35458,-0.20172c-0.25268,0 -2.52719,-0.11819 -6.82448,-0.35458c-0.23534,3.96098 -0.41263,8.69534 -0.53094,14.2062l-0.35353,0.17635c-5.42629,-0.35365 -8.66171,-0.65727 -9.70625,-0.91006l0.17729,-0.70718c0,-1.46636 0.23546,-6.01633 0.70718,-13.64991c-4.54996,-0.25268 -6.82437,-0.55536 -6.82437,-0.90994c0.23534,-5.62813 0.53897,-8.44161 0.90995,-8.44161l6.64707,1.26359v-2.17365c0,-1.76998 -0.06723,-4.1627 -0.20172,-7.17906c0.13448,0 0.20172,-0.0591 0.20172,-0.17729z"/><path d="M316.97801,165.81193l0.10086,0.20276c-1.68541,14.87894 -2.6291,22.69795 -2.83082,23.45609c-3.57266,-0.33632 -5.8309,-0.5727 -6.77446,-0.70718v-0.10086l-1.61725,-21.13166c0.4046,-0.13448 4.11175,-0.70823 11.12167,-1.71915zM306.96813,189.97624c0.1182,0.06829 2.74729,0.27001 7.88625,0.60737l0.10086,0.20172c-0.79176,4.65082 -1.29722,6.97629 -1.51627,6.97629h-5.86347c-0.20288,0 -0.47288,-2.32547 -0.8092,-6.97629c-0.06724,0 -0.10086,-0.20173 -0.10086,-0.60632c0.20183,-0.06724 0.30269,-0.13448 0.30269,-0.20276z"/></g><g fill="#ffffff"><path d="M182.56936,163.55744c6.06624,3.06732 9.18346,4.60092 9.35261,4.60092c0,0.26896 -1.26464,2.70448 -3.79183,7.30436h-0.17729c-0.20172,0 -3.10909,-1.3726 -8.71988,-4.11989l-2.85629,3.81731c4.83626,2.32536 10.70892,5.29076 17.61798,8.89717c-3.13456,5.5781 -5.35905,9.28537 -6.6736,11.12167l-14.28065,1.26359c-6.52179,-4.39816 -9.96823,-6.67267 -10.3391,-6.82448v-0.17729c0,-0.47184 1.32373,-2.63724 3.96912,-6.49527h0.32806c1.04559,0.6226 4.32277,2.41819 9.83271,5.38349l3.33732,-3.79183c-10.12819,-5.15629 -15.73991,-8.07168 -16.83436,-8.74524v-0.15181c3.21809,-6.26912 4.97074,-9.44544 5.25715,-9.52896c8.37542,-1.70182 13.03439,-2.55372 13.97807,-2.55372z"/><path d="M204.23184,163.55744l11.12166,1.97182l-1.06176,8.44266c2.20716,-0.11819 3.82545,-0.17729 4.85254,-0.17729h1.6183l0.35353,-0.17636l0.17741,0.35365c-0.35469,5.12267 -0.65727,8.00444 -0.91006,8.64438l-0.35353,-0.20172c-0.25384,0 -2.52824,-0.11819 -6.82553,-0.35458c-0.23534,3.96098 -0.41275,8.69534 -0.53094,14.2062l-0.35353,0.17636c-5.42641,-0.35365 -8.66183,-0.65727 -9.70625,-0.91006l0.17729,-0.70718c0,-1.46636 0.23534,-6.01633 0.70718,-13.64991c-4.54997,-0.25268 -6.82448,-0.55536 -6.82448,-0.90994c0.2365,-5.62813 0.53908,-8.44162 0.91006,-8.44162l6.64813,1.2636v-2.17365c0,-1.76998 -0.06829,-4.1627 -0.20277,-7.17907c0.13448,0 0.20277,-0.0591 0.20277,-0.17729z"/><path d="M227.81426,171.19101c10.00988,1.38179 15.01436,2.23368 15.01436,2.55371c3.94365,3.38723 5.91547,5.19805 5.91547,5.43444c-1.60084,5.00448 -2.5109,8.04619 -2.72996,9.12436c1.60084,3.55544 2.5109,5.67909 2.72996,6.36998c0,0.20172 -2.61281,0.74185 -7.83634,1.61724c-0.06724,-0.28641 -0.54722,-0.92635 -1.44089,-1.92087c-7.21164,1.38179 -11.09619,2.07268 -11.6526,2.07268l-3.84174,-10.38796l8.46813,-4.47458c1.36445,0.21905 3.49624,0.3291 6.39441,0.3291c0,-0.37087 0.05095,-1.49184 0.15181,-3.36176c-0.48917,0 -4.85266,0.32003 -13.09348,0.95997l-0.15181,-0.32817c1.14633,-5.32543 1.83723,-7.98815 2.07268,-7.98815zM233.07246,186.0546c0,0.18438 0.53908,2.15621 1.61713,5.91442h0.15193c2.12364,-1.38179 3.18446,-2.29185 3.18446,-2.72996l0.3291,-2.70459c-0.4046,0 -2.1654,-0.15996 -5.28262,-0.47987z"/><path d="M269.31933,171.19101c3.33628,1.87097 5.38349,3.08453 6.14174,3.6399c-2.73008,5.67908 -4.19539,8.56911 -4.39815,8.66997h-0.17636l-3.61547,-3.15899l-4.27182,5.2062l0.48103,9.47906c-0.21906,0.20276 -3.00822,0.6746 -8.36728,1.4154c-0.20172,-1.44903 -1.51627,-8.55166 -3.9426,-21.3079c0,-0.20183 3.52171,-0.72451 10.56525,-1.56734c0.1182,0.13459 0.43822,1.71101 0.96101,4.72737c4.21261,-4.73551 6.41989,-7.10368 6.62265,-7.10368z"/><path d="M285.01539,163.55744l11.12178,1.97182l-1.06083,8.44266c2.20716,-0.11819 3.8244,-0.17729 4.85266,-0.17729h1.61817l0.35365,-0.17636l0.17729,0.35365c-0.35469,5.12267 -0.65727,8.00444 -0.91006,8.64438l-0.35458,-0.20172c-0.25267,0 -2.52719,-0.11819 -6.82448,-0.35458c-0.23534,3.96098 -0.41263,8.69534 -0.53094,14.2062l-0.35353,0.17636c-5.42629,-0.35365 -8.66171,-0.65727 -9.70626,-0.91006l0.17729,-0.70718c0,-1.46636 0.23546,-6.01633 0.70718,-13.64991c-4.54996,-0.25268 -6.82437,-0.55536 -6.82437,-0.90994c0.23534,-5.62813 0.53897,-8.44162 0.90995,-8.44162l6.64707,1.2636v-2.17365c0,-1.76998 -0.06723,-4.1627 -0.20171,-7.17907c0.13448,0 0.20171,-0.0591 0.20171,-0.17729z"/><path d="M315.87879,164.49287l0.10086,0.20276c-1.68541,14.87894 -2.62909,22.69795 -2.83081,23.45609c-3.57267,-0.33632 -5.8309,-0.5727 -6.77447,-0.70718v-0.10086l-1.61724,-21.13166c0.4046,-0.13448 4.11174,-0.70822 11.12167,-1.71915zM305.86891,188.65718c0.1182,0.06829 2.74729,0.27001 7.88625,0.60737l0.10086,0.20172c-0.79176,4.65082 -1.29722,6.97629 -1.51627,6.97629h-5.86347c-0.20289,0 -0.47289,-2.32547 -0.8092,-6.97629c-0.06724,0 -0.10086,-0.20173 -0.10086,-0.60632c0.20183,-0.06724 0.30269,-0.13448 0.30269,-0.20276z"/></g></g></g></svg>