<svg version="1.1" xmlns="http://www.w3.org/2000/svg" xmlns:xlink="http://www.w3.org/1999/xlink" width="458.71381" height="349.98797" viewBox="0,0,458.71381,349.98797"><defs><linearGradient x1="143.72903" y1="83.95608" x2="143.72903" y2="140.41924" gradientUnits="userSpaceOnUse" id="color-1"><stop offset="0" stop-color="#003c5c"/><stop offset="1" stop-color="#003097"/></linearGradient><linearGradient x1="194.25969" y1="90.90695" x2="194.25969" y2="143.22383" gradientUnits="userSpaceOnUse" id="color-2"><stop offset="0" stop-color="#003c5c"/><stop offset="1" stop-color="#003097"/></linearGradient><linearGradient x1="250.27301" y1="90.53532" x2="250.27301" y2="141.16244" gradientUnits="userSpaceOnUse" id="color-3"><stop offset="0" stop-color="#003c5c"/><stop offset="1" stop-color="#003097"/></linearGradient><linearGradient x1="302.60418" y1="83.63929" x2="302.60418" y2="140.32148" gradientUnits="userSpaceOnUse" id="color-4"><stop offset="0" stop-color="#003c5c"/><stop offset="1" stop-color="#003097"/></linearGradient><linearGradient x1="339.02449" y1="83.08773" x2="339.02449" y2="139.22225" gradientUnits="userSpaceOnUse" id="color-5"><stop offset="0" stop-color="#003c5c"/><stop offset="1" stop-color="#003097"/></linearGradient><linearGradient x1="143.72903" y1="83.95608" x2="143.72903" y2="140.41924" gradientUnits="userSpaceOnUse" id="color-6"><stop offset="0" stop-color="#5276bd"/><stop offset="1" stop-color="#69d9ff"/></linearGradient><linearGradient x1="194.25969" y1="90.90695" x2="194.25969" y2="143.22383" gradientUnits="userSpaceOnUse" id="color-7"><stop offset="0" stop-color="#5276bd"/><stop offset="1" stop-color="#69d9ff"/></linearGradient><linearGradient x1="250.27301" y1="90.53532" x2="250.27301" y2="141.16244" gradientUnits="userSpaceOnUse" id="color-8"><stop offset="0" stop-color="#5276bd"/><stop offset="1" stop-color="#69d9ff"/></linearGradient><linearGradient x1="302.60418" y1="83.63929" x2="302.60418" y2="140.32148" gradientUnits="userSpaceOnUse" id="color-9"><stop offset="0" stop-color="#5276bd"/><stop offset="1" stop-color="#69d9ff"/></linearGradient><linearGradient x1="339.02449" y1="83.08773" x2="339.02449" y2="139.22225" gradientUnits="userSpaceOnUse" id="color-10"><stop offset="0" stop-color="#5276bd"/><stop offset="1" stop-color="#69d9ff"/></linearGradient><linearGradient x1="155.59732" y1="20.34782" x2="155.59732" y2="70.09875" gradientUnits="userSpaceOnUse" id="color-11"><stop offset="0" stop-color="#00395c"/><stop offset="1" stop-color="#003196"/></linearGradient><linearGradient x1="199.2906" y1="12.24968" x2="199.2906" y2="71.2905" gradientUnits="userSpaceOnUse" id="color-12"><stop offset="0" stop-color="#00395c"/><stop offset="1" stop-color="#003196"/></linearGradient><linearGradient x1="256.75701" y1="15.22377" x2="256.75701" y2="67.06342" gradientUnits="userSpaceOnUse" id="color-13"><stop offset="0" stop-color="#00395c"/><stop offset="1" stop-color="#003196"/></linearGradient><linearGradient x1="308.77214" y1="17.87446" x2="308.77214" y2="70.1914" gradientUnits="userSpaceOnUse" id="color-14"><stop offset="0" stop-color="#00395c"/><stop offset="1" stop-color="#003196"/></linearGradient><linearGradient x1="155.59732" y1="20.34782" x2="155.59732" y2="70.09875" gradientUnits="userSpaceOnUse" id="color-15"><stop offset="0" stop-color="#5276bd"/><stop offset="1" stop-color="#69d9ff"/></linearGradient><linearGradient x1="199.2906" y1="12.24968" x2="199.2906" y2="71.2905" gradientUnits="userSpaceOnUse" id="color-16"><stop offset="0" stop-color="#5276bd"/><stop offset="1" stop-color="#69d9ff"/></linearGradient><linearGradient x1="256.75701" y1="15.22377" x2="256.75701" y2="67.06342" gradientUnits="userSpaceOnUse" id="color-17"><stop offset="0" stop-color="#5276bd"/><stop offset="1" stop-color="#69d9ff"/></linearGradient><linearGradient x1="308.77202" y1="17.87446" x2="308.77202" y2="70.1914" gradientUnits="userSpaceOnUse" id="color-18"><stop offset="0" stop-color="#5276bd"/><stop offset="1" stop-color="#69d9ff"/></linearGradient></defs><g transform="translate(-12.30219,-7.20777)"><g data-paper-data="{&quot;isPaintingLayer&quot;:true}" fill-rule="nonzero" stroke-linecap="butt" stroke-linejoin="miter" stroke-miterlimit="10" stroke-dasharray="" stroke-dashoffset="0" style="mix-blend-mode: normal"><text transform="translate(23.47157,174.56469) scale(0.73835,0.73835)" font-size="40" xml:space="preserve" fill="#ffffff" fill-rule="nonzero" stroke="none" stroke-width="1" stroke-linecap="butt" stroke-linejoin="miter" stroke-miterlimit="10" stroke-dasharray="" stroke-dashoffset="0" font-family="Sans Serif" font-weight="normal" text-anchor="start" style="mix-blend-mode: normal"><tspan x="0" dy="0">Ideas by everyone, for anyone.</tspan></text><text transform="translate(12.49397,196.62023) scale(0.38355,0.38355)" font-size="40" xml:space="preserve" fill="#ffffff" fill-rule="nonzero" stroke="none" stroke-width="1" stroke-linecap="butt" stroke-linejoin="miter" stroke-miterlimit="10" stroke-dasharray="" stroke-dashoffset="0" font-family="Sans Serif" font-weight="normal" text-anchor="start" style="mix-blend-mode: normal"><tspan x="0" dy="0">The Idea Vault is a place where anyone is able to contribute an</tspan><tspan x="0" dy="46.150000000000006px"> idea for any of our games and possibly have it implemented!</tspan><tspan x="0" dy="46.150000000000006px"> </tspan><tspan x="0" dy="46.150000000000006px">If you'd like to submit an idea, simply comment it down below!</tspan><tspan x="0" dy="46.150000000000006px"> </tspan><tspan x="0" dy="46.150000000000006px">     Any ideas used from here will be credited in that update.</tspan></text><text transform="translate(75.94928,353.33736) scale(0.30867,0.30867)" font-size="40" xml:space="preserve" fill="#ffffff" fill-rule="nonzero" stroke="none" stroke-width="1" stroke-linecap="butt" stroke-linejoin="miter" stroke-miterlimit="10" stroke-dasharray="" stroke-dashoffset="0" font-family="Sans Serif" font-weight="normal" text-anchor="start" style="mix-blend-mode: normal"><tspan x="0" dy="0">To move between pages, use A/D or the L/R arrow keys.</tspan></text><g fill="none" stroke-width="9.5"><path d="M135.30948,83.95608l12.10626,35.00052l5.175,-30.48656l22.34277,4.06801l-15.41151,46.45351l-22.67128,1.42774l-24.32589,-44.46645z" stroke="url(#color-1)"/><path d="M207.82687,94.20826l14.0581,46.81336l-19.679,2.20221l-2.08094,-11.85589l-13.32274,0.85274l-2.19826,10.88195l-17.96962,-4.03674l14.30063,-48.15894zM189.49344,118.04131l8.43332,1.10305l-3.05489,-12.34873h-2.56989z" stroke="url(#color-2)"/><path d="M247.90457,93.39857l-3.85286,32.57533l11.66814,-1.7602l1.43162,-25.64408l21.35309,3.19182l-4.84248,28.17875l-10.23651,11.22224l-29.27791,-0.10955l-12.10626,-10.12308l2.08878,-40.39449z" stroke="url(#color-3)"/><path d="M301.28409,83.63929l0.55155,37.42176l24.98304,-7.37326l-0.77058,22.99986l-39.73345,3.63383l-7.92482,-53.7094z" stroke="url(#color-4)"/><path d="M366.48558,83.08773l0.98962,16.95262l-18.48984,2.64027l5.83209,35.54813l-22.23322,0.99356l-0.76664,-33.68233l-19.15483,2.42519l-2.08878,-22.4562z" stroke="url(#color-5)"/></g><g stroke="none" stroke-width="1"><path d="M135.30948,83.95608l12.10626,35.00052l5.175,-30.48656l22.34277,4.06801l-15.41151,46.45351l-22.67128,1.42774l-24.32589,-44.46645z" fill="url(#color-6)"/><path d="M207.82687,94.20826l14.0581,46.81336l-19.679,2.20221l-2.08094,-11.85589l-13.32274,0.85274l-2.19826,10.88195l-17.96962,-4.03674l14.30063,-48.15894zM189.49344,118.04131l8.43332,1.10305l-3.05489,-12.34873h-2.56989z" fill="url(#color-7)"/><path d="M247.90457,93.39857l-3.85286,32.57533l11.66814,-1.7602l1.43162,-25.64408l21.35309,3.19182l-4.84248,28.17875l-10.23651,11.22224l-29.27791,-0.10955l-12.10626,-10.12308l2.08878,-40.39449z" fill="url(#color-8)"/><path d="M301.28409,83.63929l0.55155,37.42176l24.98304,-7.37326l-0.77058,22.99986l-39.73345,3.63383l-7.92482,-53.7094z" fill="url(#color-9)"/><path d="M366.48558,83.08773l0.98962,16.95262l-18.48984,2.64027l5.83209,35.54813l-22.23322,0.99356l-0.76664,-33.68233l-19.15483,2.42519l-2.08878,-22.4562z" fill="url(#color-10)"/></g><g fill="none" stroke-width="9.5"><path d="M146.57143,20.34782l21.02063,4.40047l-8.0343,44.3569l-15.95517,0.99356z" stroke="url(#color-11)"/><path d="M227.77252,27.89583l-1.95579,26.28168l-13.93684,15.15726l-33.12689,1.95579l-7.94437,-52.31688l29.2153,-6.72394zM195.74478,56.25456l10.14652,-3.66511l2.68721,-15.27847l-15.03205,-5.37837z" stroke="url(#color-12)"/><path d="M280.75043,20.39871l-3.08228,15.84957l-20.8016,-5.50746l-1.31819,5.17889l16.06861,1.7602l-2.53079,11.99671l-14.53138,-1.98318l0.66499,5.50352l20.46914,-1.20865l1.87363,15.0751l-39.0763,-1.75625l-5.72261,-19.92147l7.15423,-30.16193z" stroke="url(#color-13)"/><path d="M322.33932,21.17583l14.0581,46.81336l-19.679,2.20221l-2.08094,-11.85589l-13.32274,0.85274l-2.19826,10.88195l-17.96962,-4.03674l14.30063,-48.15894zM304.0059,45.00888l8.43332,1.10305l-3.05489,-12.34873h-2.56989z" stroke="url(#color-14)"/></g><g stroke="none" stroke-width="1"><path d="M146.57143,20.34782l21.02063,4.40047l-8.0343,44.3569l-15.95517,0.99356z" fill="url(#color-15)"/><path d="M227.77252,27.89583l-1.95579,26.28168l-13.93684,15.15726l-33.12689,1.95579l-7.94437,-52.31688l29.2153,-6.72394zM195.74478,56.25456l10.14652,-3.66511l2.68721,-15.27847l-15.03205,-5.37837z" fill="url(#color-16)"/><path d="M280.75043,20.39871l-3.08228,15.84957l-20.8016,-5.50746l-1.31819,5.17889l16.06861,1.7602l-2.53079,11.99671l-14.53138,-1.98318l0.66499,5.50352l20.46914,-1.20865l1.87363,15.0751l-39.0763,-1.75625l-5.72261,-19.92147l7.15423,-30.16193z" fill="url(#color-17)"/><path d="M322.33932,21.17583l14.0581,46.81336l-19.679,2.20221l-2.08094,-11.85589l-13.32274,0.85274l-2.19826,10.88195l-17.96962,-4.03674l14.30063,-48.15894zM304.0059,45.00888l8.43332,1.10305l-3.05489,-12.34873h-2.56989z" fill="url(#color-18)"/></g></g></g></svg>