<svg version="1.1" xmlns="http://www.w3.org/2000/svg" xmlns:xlink="http://www.w3.org/1999/xlink" width="444.88136" height="238.16671" viewBox="0,0,444.88136,238.16671"><defs><radialGradient cx="34.11066" cy="110.02272" r="548.80445" gradientUnits="userSpaceOnUse" id="color-1"><stop offset="0" stop-color="#ffffff"/><stop offset="1" stop-color="#ffffff"/></radialGradient><linearGradient x1="134.88323" y1="98.43348" x2="134.88323" y2="142.97133" gradientUnits="userSpaceOnUse" id="color-2"><stop offset="0" stop-color="#000000"/><stop offset="1" stop-color="#000000"/></linearGradient><linearGradient x1="324.49662" y1="154.36138" x2="324.49662" y2="211.65138" gradientUnits="userSpaceOnUse" id="color-3"><stop offset="0" stop-color="#000000"/><stop offset="1" stop-color="#000000"/></linearGradient><linearGradient x1="296.49557" y1="155.30773" x2="296.49557" y2="212.10116" gradientUnits="userSpaceOnUse" id="color-4"><stop offset="0" stop-color="#000000"/><stop offset="1" stop-color="#000000"/></linearGradient><linearGradient x1="238.15815" y1="153.77573" x2="238.15815" y2="212.41731" gradientUnits="userSpaceOnUse" id="color-5"><stop offset="0" stop-color="#000000"/><stop offset="1" stop-color="#000000"/></linearGradient><linearGradient x1="171.66373" y1="153.95604" x2="171.66373" y2="212.41731" gradientUnits="userSpaceOnUse" id="color-6"><stop offset="0" stop-color="#000000"/><stop offset="1" stop-color="#000000"/></linearGradient><linearGradient x1="100.03858" y1="153.72894" x2="100.03858" y2="212.41731" gradientUnits="userSpaceOnUse" id="color-7"><stop offset="0" stop-color="#000000"/><stop offset="1" stop-color="#000000"/></linearGradient><linearGradient x1="56.22207" y1="223.66089" x2="56.22207" y2="254.15371" gradientUnits="userSpaceOnUse" id="color-8"><stop offset="0" stop-color="#ffed4d"/><stop offset="1" stop-color="#e6bd22"/></linearGradient><linearGradient x1="110.84905" y1="223.81322" x2="110.84905" y2="253.8983" gradientUnits="userSpaceOnUse" id="color-9"><stop offset="0" stop-color="#ffed4d"/><stop offset="1" stop-color="#e6bd22"/></linearGradient><linearGradient x1="140.41629" y1="223.81668" x2="140.41629" y2="253.8766" gradientUnits="userSpaceOnUse" id="color-10"><stop offset="0" stop-color="#ffed4d"/><stop offset="1" stop-color="#e6bd22"/></linearGradient><linearGradient x1="230.68091" y1="223.58174" x2="230.68091" y2="253.99487" gradientUnits="userSpaceOnUse" id="color-11"><stop offset="0" stop-color="#ffed4d"/><stop offset="1" stop-color="#e6bd22"/></linearGradient><linearGradient x1="262.48368" y1="223.62146" x2="262.48368" y2="258.71968" gradientUnits="userSpaceOnUse" id="color-12"><stop offset="0" stop-color="#ffed4d"/><stop offset="1" stop-color="#e6bd22"/></linearGradient><linearGradient x1="320.3322" y1="223.50232" x2="320.3322" y2="254.27286" gradientUnits="userSpaceOnUse" id="color-13"><stop offset="0" stop-color="#ffed4d"/><stop offset="1" stop-color="#e6bd22"/></linearGradient><linearGradient x1="366.14495" y1="223.81322" x2="366.14495" y2="253.8983" gradientUnits="userSpaceOnUse" id="color-14"><stop offset="0" stop-color="#ffed4d"/><stop offset="1" stop-color="#e6bd22"/></linearGradient><linearGradient x1="393.32107" y1="223.65981" x2="393.32107" y2="254.04716" gradientUnits="userSpaceOnUse" id="color-15"><stop offset="0" stop-color="#ffed4d"/><stop offset="1" stop-color="#e6bd22"/></linearGradient><linearGradient x1="420.57926" y1="223.66051" x2="420.57926" y2="254.0521" gradientUnits="userSpaceOnUse" id="color-16"><stop offset="0" stop-color="#ffed4d"/><stop offset="1" stop-color="#e6bd22"/></linearGradient><linearGradient x1="83.63759" y1="224.05788" x2="83.63759" y2="254.23315" gradientUnits="userSpaceOnUse" id="color-17"><stop offset="0" stop-color="#ffed4d"/><stop offset="1" stop-color="#e6bd22"/></linearGradient><linearGradient x1="172.57427" y1="224.0185" x2="172.57427" y2="254.27285" gradientUnits="userSpaceOnUse" id="color-18"><stop offset="0" stop-color="#ffed4d"/><stop offset="1" stop-color="#e6bd22"/></linearGradient><linearGradient x1="202.74925" y1="224.05788" x2="202.74925" y2="254.23315" gradientUnits="userSpaceOnUse" id="color-19"><stop offset="0" stop-color="#ffed4d"/><stop offset="1" stop-color="#e6bd22"/></linearGradient><linearGradient x1="132.20586" y1="94.86367" x2="132.20586" y2="139.40152" gradientUnits="userSpaceOnUse" id="color-20"><stop offset="0" stop-color="#000000"/><stop offset="1" stop-color="#000000"/></linearGradient><linearGradient x1="321.81926" y1="150.79157" x2="321.81926" y2="208.08158" gradientUnits="userSpaceOnUse" id="color-21"><stop offset="0" stop-color="#000000"/><stop offset="1" stop-color="#000000"/></linearGradient><linearGradient x1="293.81819" y1="151.73795" x2="293.81819" y2="208.53135" gradientUnits="userSpaceOnUse" id="color-22"><stop offset="0" stop-color="#000000"/><stop offset="1" stop-color="#000000"/></linearGradient><linearGradient x1="235.48081" y1="150.20595" x2="235.48081" y2="208.8475" gradientUnits="userSpaceOnUse" id="color-23"><stop offset="0" stop-color="#000000"/><stop offset="1" stop-color="#000000"/></linearGradient><linearGradient x1="168.98636" y1="150.38625" x2="168.98636" y2="208.8475" gradientUnits="userSpaceOnUse" id="color-24"><stop offset="0" stop-color="#000000"/><stop offset="1" stop-color="#000000"/></linearGradient><linearGradient x1="97.36122" y1="150.15913" x2="97.36122" y2="208.8475" gradientUnits="userSpaceOnUse" id="color-25"><stop offset="0" stop-color="#000000"/><stop offset="1" stop-color="#000000"/></linearGradient><linearGradient x1="132.27996" y1="94.34516" x2="132.27996" y2="138.883" gradientUnits="userSpaceOnUse" id="color-26"><stop offset="0" stop-color="#ffffff"/><stop offset="1" stop-color="#dae0e7"/></linearGradient><linearGradient x1="97.50939" y1="149.56652" x2="97.50939" y2="208.2549" gradientUnits="userSpaceOnUse" id="color-27"><stop offset="0" stop-color="#ff1818"/><stop offset="1" stop-color="#e11515"/></linearGradient><linearGradient x1="169.1345" y1="149.79365" x2="169.1345" y2="208.2549" gradientUnits="userSpaceOnUse" id="color-28"><stop offset="0" stop-color="#1ce11c"/><stop offset="1" stop-color="#1acf1a"/></linearGradient><linearGradient x1="235.62894" y1="149.61335" x2="235.62894" y2="208.2549" gradientUnits="userSpaceOnUse" id="color-29"><stop offset="0" stop-color="#239eff"/><stop offset="1" stop-color="#1e8be1"/></linearGradient><linearGradient x1="293.96637" y1="151.14535" x2="293.96637" y2="207.93875" gradientUnits="userSpaceOnUse" id="color-30"><stop offset="0" stop-color="#ffe530"/><stop offset="1" stop-color="#ffd628"/></linearGradient><linearGradient x1="321.96742" y1="150.19897" x2="321.96742" y2="207.48898" gradientUnits="userSpaceOnUse" id="color-31"><stop offset="0" stop-color="#a818ff"/><stop offset="1" stop-color="#9404e4"/></linearGradient></defs><g transform="translate(-17.55933,-60.91665)"><g data-paper-data="{&quot;isPaintingLayer&quot;:true}" fill-rule="nonzero" stroke-linecap="butt" stroke-linejoin="miter" stroke-miterlimit="10" stroke-dasharray="" stroke-dashoffset="0" style="mix-blend-mode: normal"><path d="M25.27531,73.26222c0,0 128.63774,-12.34557 210.97247,-12.34557c85.86568,0 220.02013,12.34557 220.02013,12.34557c0,0 6.17278,66.49036 6.17278,104.10895c0,45.69299 -6.17278,109.36662 -6.17278,109.36662c0,0 -132.8748,12.34557 -216.93374,12.34557c-84.14147,0 -214.05886,-12.34557 -214.05886,-12.34557c0,0 -7.71598,-67.36227 -7.71598,-112.45301c0,-38.22086 7.71598,-101.02255 7.71598,-101.02255z" fill="#ffffff" stroke="url(#color-1)" stroke-width="0"/><g><path d="M68.54746,225.64276c2.66022,1.34992 5.00272,2.69984 5.20121,3.05718c0.27791,0.51619 0.43677,0.47648 0.99258,-0.27791c0.39706,-0.5161 2.66021,-1.58811 5.95559,-2.81898c6.70998,-2.50127 8.33781,-2.5807 13.2611,-0.59553l3.41452,1.38964l8.65543,-1.58811c9.6084,-1.74697 10.75974,-1.86611 12.42738,-0.99267c2.02488,1.03238 10.52146,7.38493 10.95823,8.17905c0.35734,0.67496 0.51619,0.47648 1.11172,-1.50878c1.82641,-5.83645 2.97775,-7.2658 5.79673,-7.2658c1.94554,0 14.76988,1.98517 16.04037,2.46165c0.71468,0.27791 1.38964,1.0323 1.86611,2.06459l0.75439,1.62784v-1.27049c0,-1.82641 0.71468,-3.17632 1.94546,-3.65271c0.59553,-0.19857 8.49667,-0.47648 18.30345,-0.63534c18.9785,-0.27791 19.01822,-0.27791 19.93137,2.02497l0.5161,1.27049l4.72481,-1.74697c5.91587,-2.18374 7.98047,-2.26308 12.06996,-0.59553c2.5808,1.07202 2.85869,1.11173 3.05718,0.47639c0.11914,-0.39697 0.67496,-0.91316 1.23087,-1.15136c1.3102,-0.63525 13.65816,-0.63525 14.96836,-0.03971c1.50869,0.67496 1.86602,1.98517 1.86602,6.51141c0,2.50136 0.15886,4.16891 0.39704,4.16891c0.23828,0 0.39707,-1.70726 0.39707,-4.36738c0,-2.38231 0.19857,-4.76453 0.43677,-5.28063c0.55582,-1.23087 1.90574,-1.86612 3.97034,-1.86612c2.46165,0 9.96573,1.23087 11.1568,1.82641c0.95296,0.47648 1.07202,0.47648 1.31029,-0.19848c0.59553,-1.86612 3.77185,-2.06469 10.00536,-0.63534c5.08206,1.19116 6.70998,1.86612 7.06723,2.93813c0.35734,1.15144 0.7941,1.0323 1.35002,-0.31763c0.59553,-1.38964 1.90574,-2.02488 4.1292,-2.02488c2.26308,0 10.72003,4.04976 11.35527,5.4394c0.99258,2.22345 0.55582,4.20862 -2.77927,11.91119c-4.40709,10.24355 -5.24092,11.71262 -7.38493,13.7375c-1.07202,0.95287 -3.61299,3.29546 -5.6776,5.24092c-4.76453,4.40709 -5.67769,4.96301 -8.05991,4.96301c-1.50878,0 -2.85869,-0.47648 -6.94818,-2.54107l-5.04243,-2.50136l-5.51883,0.35734c-6.59083,0.39706 -7.54371,0.15885 -8.576,-2.18365c-0.63525,-1.35002 -0.75439,-1.46906 -0.95287,-0.75439c-0.31762,1.0323 -2.50136,1.82641 -6.94818,2.66013c-5.7174,1.0323 -7.14675,0.71468 -8.21876,-1.98517l-0.71468,-1.62783l-3.77185,2.10422c-4.84386,2.66022 -5.67769,2.69993 -12.54643,0.35734c-7.2658,-2.42193 -9.29068,-3.33509 -9.88621,-4.56587c-0.31762,-0.5559 -1.46905,-4.16891 -2.6205,-7.98047c-1.15136,-3.81165 -2.10431,-6.98789 -2.14403,-6.98789c0,-0.03971 -0.79401,-0.19857 -1.70726,-0.35734l-1.70726,-0.278v8.97315c0,5.71731 -0.15877,9.29068 -0.43677,9.92593c-0.55582,1.23087 -2.69984,2.10431 -5.71731,2.38221c-1.3102,0.11914 -3.57337,0.31763 -5.04243,0.47648c-3.17624,0.31762 -4.80415,-0.19857 -5.47911,-1.82641c-0.31762,-0.75439 -0.39706,-3.93071 -0.31763,-10.20393l0.11914,-9.09211l-4.24833,0.03971c-2.38221,0 -4.28805,0 -4.28805,0c0,0 1.07202,3.21594 2.38222,7.14665c2.46165,7.30551 2.73964,8.93334 1.90582,10.72003c-0.75439,1.62783 -2.14403,2.10431 -8.77457,2.81898c-5.16148,0.55582 -6.35265,0.59553 -7.38495,0.15886c-1.42926,-0.59563 -2.26308,-1.94554 -2.66013,-4.32776c-0.43677,-2.81898 -1.70726,-2.54107 -2.50136,0.55582c-0.5161,2.06459 -1.50869,3.21604 -3.0969,3.61308c-1.27049,0.31762 -6.31293,-0.31763 -10.32298,-1.34992l-2.81898,-0.71468l-2.85869,1.3102c-4.04976,1.82641 -6.63056,1.70726 -8.33781,-0.39704c-0.59553,-0.71468 -0.71468,-0.75439 -1.90574,-0.11906c-0.95296,0.47639 -2.38222,0.63525 -6.03502,0.63525c-4.96301,0 -6.03502,-0.27791 -7.18637,-1.66754c-0.63525,-0.7941 -0.67496,-0.79411 -4.01014,1.0323c-4.40709,2.38221 -5.32025,2.38222 -12.78462,-0.15886c-6.67027,-2.26308 -8.77457,-3.25575 -9.13192,-4.24833c-0.2382,-0.5161 -0.59553,-0.15876 -1.78668,1.70726c-0.95287,1.46906 -1.94545,2.5808 -2.66012,2.85869c-1.15144,0.47648 -12.34787,1.66754 -15.48447,1.66754c-1.34992,0 -2.34259,-0.47638 -6.2335,-3.09689c-2.50136,-1.66754 -4.76453,-3.45423 -5.00272,-3.97034c-0.2382,-0.51619 -0.43677,-2.54107 -0.43677,-4.52624c0,-3.21604 0.11914,-3.81157 1.07201,-5.43949c0.67496,-1.19107 0.87352,-1.82631 0.5559,-1.94546c-0.95296,-0.31762 -1.62792,-2.46165 -1.62792,-5.28063c0,-2.73956 0.11914,-3.05718 2.22345,-6.90847c1.50869,-2.81898 2.54099,-4.20861 3.25566,-4.56595c0.59563,-0.27791 3.57337,-0.99258 6.63055,-1.58811c8.49667,-1.70726 9.17163,-1.66755 15.00808,1.23077z" fill="#000000" stroke="#ffffff" stroke-width="0"/><path d="M307.40591,225.08695c0.2382,0.5161 0.43677,3.05718 0.43677,5.71731c0,4.56596 0.03971,4.72481 0.75439,4.32776c1.11163,-0.59553 3.45423,-0.47648 4.80415,0.19848l1.15144,0.59563l0.43668,-2.26316c1.23087,-5.75702 2.8587,-6.55112 10.1245,-4.96301l3.17632,0.71468l3.77185,-2.42194c5.20121,-3.41452 6.03502,-3.77185 8.25838,-3.77185c1.98526,0 9.60839,1.94554 11.55384,2.93813c0.59553,0.31762 1.3102,0.43667 1.62792,0.2382c0.79401,-0.39706 16.27858,-3.17632 17.86669,-3.17632c1.38964,0 3.09689,0.7941 5.16148,2.38221c2.22345,1.70726 2.3426,1.70726 2.81898,0.63534c0.63525,-1.38964 1.8264,-1.74697 8.09961,-2.42202c6.70998,-0.71459 8.21867,-0.71459 9.44954,-0.15877c1.66754,0.75439 1.86602,1.86612 1.86602,10.68032c0,4.60568 0.07944,8.33781 0.19857,8.33781c0.15876,0 1.78668,-0.55582 3.73214,-1.23078l3.49396,-1.19116l-0.55582,-3.45423c-0.99267,-6.70998 -0.63534,-8.69515 1.82631,-9.76716c2.10431,-0.95287 14.25369,-3.81157 16.15952,-3.81157c1.62783,0 1.86602,0.11914 13.4993,6.86875c1.94546,1.15144 3.37481,2.26316 3.65271,2.85869c0.31771,0.67496 0.47648,3.77185 0.47648,8.97306c0,7.0276 -0.07942,8.09962 -0.75439,9.40983c-0.87344,1.70726 -6.90847,7.66285 -8.73486,8.57609c-1.38964,0.7543 -18.1843,2.14394 -20.01071,1.66755c-0.59553,-0.11914 -1.34992,-0.5559 -1.70726,-0.95287c-0.5559,-0.63534 -0.95287,-0.67496 -5.43939,-0.23828c-18.4226,1.78668 -20.05052,1.70726 -21.00338,-0.87344c-0.27791,-0.75439 -0.59554,-1.34992 -0.75439,-1.34992c-0.11914,0 -1.98517,0.79401 -4.08947,1.78668c-5.08215,2.3425 -7.54371,2.38221 -9.37011,0.07934c-0.59553,-0.71468 -0.71468,-0.75439 -1.90583,-0.11905c-0.95287,0.47639 -2.38221,0.63525 -6.03493,0.63525c-4.96301,0 -6.78941,-0.43677 -7.30552,-1.78668c-0.19857,-0.55582 -0.35734,-0.55582 -1.34992,-0.03971c-1.78668,0.91315 -9.84658,2.6205 -12.46709,2.6205c-2.42193,0 -4.08947,-0.67505 -10.08479,-4.08957l-2.42193,-1.34992l-0.87345,2.06459c-0.55582,1.3102 -1.23087,2.22345 -1.8264,2.50136c-0.5161,0.2382 -3.61299,0.67496 -6.86875,0.91315c-6.39236,0.5559 -8.13932,0.278 -8.61572,-1.27049c-0.19857,-0.63525 -0.39706,-0.67496 -1.07202,-0.31762c-0.5559,0.31762 -2.85869,0.39704 -6.82913,0.27791c-7.10694,-0.19848 -8.17896,-0.55582 -9.13182,-3.17632c-1.0323,-2.73956 -5.79682,-25.05314 -5.79682,-27.03831c0,-3.93071 1.11172,-4.60567 9.33048,-5.79673c8.33781,-1.23087 10.32298,-1.0323 11.27585,1.0323z" fill="#000000" stroke="#ffffff" stroke-width="0"/><path d="M61.36108,227.23097c1.0323,-0.03971 9.05248,4.01005 9.05248,4.60558c0,0.23828 -0.71468,1.78668 -1.62784,3.45423c-1.82641,3.41461 -1.27058,3.3749 -6.63055,0.67505l-3.13661,-1.5882l-1.31029,1.78668c-0.71468,0.99258 -1.23077,1.82641 -1.15135,1.86612c0.07934,0.03962 3.69243,1.86602 7.98047,4.04976c4.32767,2.18374 7.86133,4.1292 7.86133,4.32767c0,0.59563 -5.59825,9.80687 -6.07464,9.96573c-0.278,0.11905 -3.29546,0.43677 -6.70998,0.75439l-6.19379,0.59553l-4.01014,-2.66013l-3.97034,-2.66022l-0.03971,-2.10431c0,-1.58811 0.2382,-2.46165 1.0323,-3.65271l1.07202,-1.5882l2.62042,1.42935c1.42935,0.7941 3.53366,1.98526 4.6851,2.5808l2.02488,1.15143l1.42935,-1.66764c0.75439,-0.95287 1.23078,-1.86602 1.07202,-2.02488c-0.19857,-0.19848 -3.33518,-1.90573 -7.0276,-3.77185c-6.70998,-3.49395 -6.70998,-3.49395 -6.82903,-4.9233c-0.11914,-1.3102 1.3102,-4.52624 3.41452,-7.7819c0.19848,-0.278 2.89832,-1.0323 6.07464,-1.66764c3.1366,-0.59553 6.03502,-1.15136 6.39236,-1.15136z" fill="#000000" stroke="none" stroke-width="0.04449"/><path d="M115.8745,227.38975c0.63525,0.15886 9.88631,6.98789 10.04508,7.34522c0.19857,0.47648 -1.94546,8.45695 -2.38222,9.01277c-0.19848,0.27791 -1.34992,1.0323 -2.54107,1.70726c-1.19107,0.63525 -2.14403,1.27058 -2.14403,1.34992c0,0.07942 1.86612,1.50879 4.16891,3.17632c2.30288,1.70726 4.169,3.17632 4.169,3.33518c0,0.47639 -9.25105,4.48653 -9.48925,4.1292c-0.11914,-0.19857 -1.8264,-2.54107 -3.81157,-5.24092l-3.57338,-4.9233l-0.19847,4.52624l-0.19857,4.56595l-3.53366,0.11905c-1.94546,0.07942 -3.69243,-0.03962 -3.85128,-0.19848c-0.35734,-0.35734 -2.85861,-24.4179 -2.66013,-25.4502c0.11914,-0.55582 1.66754,-0.95287 7.86133,-2.10431c4.24833,-0.79401 7.94085,-1.42935 8.13932,-1.34992zM110.23652,234.02029c-0.39706,-0.11914 -0.5161,1.0323 -0.5161,5.08215c0,4.76444 0.03971,5.20121 0.71468,5.00263c0.35734,-0.07942 1.70726,-0.47649 2.93804,-0.79411l2.22345,-0.63524l0.63525,-2.77927c0.35734,-1.50869 0.63525,-2.89833 0.63525,-3.0969c0,-0.19848 -1.38964,-0.87344 -3.05718,-1.46906c-1.70726,-0.63525 -3.33509,-1.19107 -3.57337,-1.3102z" fill="#000000" stroke="none" stroke-width="0.04449"/><path d="M137.63214,227.42945c0.67505,0.11914 3.85129,0.59553 6.98789,1.07201l5.7174,0.87345l4.48653,13.41996c3.01747,9.0922 4.32776,13.4993 4.01005,13.57872c-0.99258,0.39706 -10.00536,1.27049 -10.28326,1.0323c-0.11914,-0.11914 -0.5161,-1.66755 -0.87344,-3.37481c-0.35734,-1.74697 -0.71468,-3.25575 -0.83382,-3.33518c-0.39706,-0.39706 -7.54371,0.75439 -7.98047,1.3102c-0.2382,0.31762 -0.67496,1.54849 -0.95287,2.77927c-0.278,1.23087 -0.63534,2.30288 -0.79411,2.38231c-0.31762,0.19848 -9.48925,-1.62792 -9.80687,-1.90582c-0.15876,-0.19848 8.02019,-26.12516 8.65544,-27.35594c0.27791,-0.47648 0.71468,-0.59562 1.66754,-0.47648zM142.87303,236.32317c-0.55582,0 -1.0323,0.27791 -1.15136,0.67496c-0.19857,0.71468 -1.0323,5.59816 -1.0323,6.15407c0,0.19848 1.15136,0.31763 2.54099,0.31763h2.54107l-0.55582,-1.90583c-0.278,-1.0323 -0.71468,-2.62042 -0.95296,-3.57328c-0.35734,-1.38964 -0.59553,-1.66754 -1.38964,-1.66754z" fill="#000000" stroke="none" stroke-width="0.04449"/><path d="M238.36097,227.15155l1.90574,0.27791c1.0323,0.11914 3.13661,0.47648 4.64539,0.71468l2.77927,0.47648l0.11914,14.13455l0.07935,14.13454l-1.07202,0.23828c-0.63525,0.11905 -2.62042,0.2382 -4.48653,0.31763l-3.37481,0.11905l-0.11914,-6.07464l-0.11905,-6.03502h-2.46165c-1.34992,0 -3.13661,0.11914 -3.93071,0.23828l-1.50877,0.27791v5.08207v5.08215l-2.06459,0.39696c-5.51883,1.15144 -5.83646,1.15144 -6.03493,0.47648c-0.11914,-0.35734 -0.91325,-6.43207 -1.82641,-13.53901c-0.87352,-7.10704 -1.70726,-13.57874 -1.8264,-14.41255l-0.2382,-1.46898h5.39969h5.39978v5.55854v5.55854h4.36738h4.36748v-5.79682z" fill="#000000" stroke="none" stroke-width="0.04449"/><path d="M255.15562,227.19126c0.23828,0.03971 2.54107,0.5161 5.04244,1.11173l4.56595,1.11163v5.00272v5.04235l2.30279,0.5559c1.23087,0.31762 2.34251,0.47648 2.42194,0.31762c0.07942,-0.11914 0.99258,-2.77927 1.98517,-5.91587c1.0323,-3.09689 2.02497,-5.63797 2.14403,-5.63797c0.5559,0 8.02019,3.73214 8.02019,4.01014c0,0.35734 -4.60567,11.11709 -6.55112,15.24627c-1.5484,3.33509 -0.99258,2.77927 -11.35527,12.06995l-2.42194,2.18374l-6.31293,-3.13661c-3.45423,-1.74697 -6.31292,-3.29546 -6.31292,-3.49395c0,-0.19857 0.91315,-1.86611 2.02488,-3.69243l1.98517,-3.33518l2.93813,1.98517c1.62783,1.11173 3.09689,1.98526 3.25575,1.98526c0.19848,0 1.34992,-1.0323 2.62042,-2.30289l2.26316,-2.26308l-4.56595,-4.56595l-4.56596,-4.56596v-5.83645c0,-4.44682 0.11914,-5.87617 0.5161,-5.87617z" fill="#000000" stroke="none" stroke-width="0.04449"/><path d="M303.39584,227.23097c0.35734,-0.03971 0.47638,2.0646 0.47638,9.17154v9.25105l3.53366,-3.53366l3.53367,-3.49395l2.66012,3.61299c1.42935,1.98526 2.77928,3.61308 2.93813,3.61308c0.11905,0 0.87344,-2.93804 1.58811,-6.51141c0.75439,-3.57337 1.46906,-6.74969 1.62792,-6.98789c0.19848,-0.31762 1.66755,-0.11914 5.24092,0.67496c4.44682,1.0323 5.04235,1.07202 5.39968,0.55582c0.19848,-0.35734 2.46165,-1.94546 5.00273,-3.57329l4.64529,-2.93813l4.04985,1.07202c6.39226,1.70726 6.11437,1.50878 8.77449,6.74969l2.38221,4.60558l-0.55582,2.06459c-0.27791,1.15144 -1.34992,4.6851 -2.3425,7.86143l-1.86612,5.75702l-1.94545,0.47648c-1.11173,0.27791 -3.49395,0.83373 -5.32034,1.19107l-3.29537,0.71468l-4.08957,-2.18365c-2.26308,-1.19116 -4.40709,-2.38222 -4.84386,-2.66022c-0.63525,-0.5161 -0.71468,-1.34992 -0.83373,-9.3701l-0.15886,-8.8142l-1.19107,3.77185c-0.63534,2.06459 -2.22345,7.10694 -3.53366,11.1568l-2.34259,7.38486l-2.85862,0.278c-1.5882,0.15876 -3.77185,0.35734 -4.88359,0.47639l-1.98526,0.23828l-1.58811,-4.20862c-0.87344,-2.30288 -1.70726,-4.20862 -1.8264,-4.20862c-0.15876,0 -0.95287,1.5484 -1.78668,3.41452l-1.5484,3.41452l-4.68511,-0.15876c-2.5807,-0.11914 -4.84386,-0.35734 -5.08206,-0.59563c-0.31762,-0.31762 -5.91587,-24.61639 -5.91587,-25.80745c0,-0.5559 1.11172,-0.83381 7.34522,-1.70735c2.62042,-0.39697 5.00263,-0.71459 5.28063,-0.7543zM343.09974,235.76727l-1.46898,-0.63525l-1.98526,2.26308c-2.22337,2.50136 -2.26308,2.5808 -1.78659,8.09962c0.2382,2.85869 0.31762,3.01747 1.66754,3.89099c1.34992,0.91315 3.05718,0.95287 4.36738,0.11914c0.27791,-0.19857 1.07202,-2.42193 1.82641,-4.96301c1.3102,-4.56596 1.3102,-4.60568 0.63525,-6.15408c-0.39706,-0.83381 -0.95287,-1.62792 -1.23078,-1.78668c-0.31762,-0.11914 -1.23087,-0.47648 -2.02497,-0.83381z" fill="#000000" stroke="none" stroke-width="0.04449"/><path d="M371.17045,227.38975c0.63525,0.15886 9.88621,6.98789 10.04507,7.34522c0.19848,0.47648 -1.94554,8.45695 -2.38221,9.01277c-0.19857,0.27791 -1.34992,1.0323 -2.54107,1.70726c-1.19116,0.63525 -2.14403,1.27058 -2.14403,1.34992c0,0.07942 1.86612,1.50879 4.16891,3.17632c2.30288,1.70726 4.16891,3.17632 4.16891,3.33518c0,0.47639 -9.25097,4.48653 -9.48925,4.1292c-0.11905,-0.19857 -1.82631,-2.54107 -3.81158,-5.24092l-3.57328,-4.9233l-0.19857,4.52624l-0.19848,4.56595l-3.53367,0.11905c-1.94546,0.07942 -3.69243,-0.03962 -3.85128,-0.19848c-0.35734,-0.35734 -2.85869,-24.4179 -2.66013,-25.4502c0.11905,-0.55582 1.66754,-0.95287 7.86133,-2.10431c4.24833,-0.79401 7.94076,-1.42935 8.13933,-1.34992zM365.5325,234.02029c-0.39706,-0.11914 -0.51619,1.0323 -0.51619,5.08215c0,4.76444 0.03971,5.20121 0.71468,5.00263c0.35734,-0.07942 1.70726,-0.47649 2.93813,-0.79411l2.22337,-0.63524l0.63534,-2.77927c0.35734,-1.50869 0.63524,-2.89833 0.63524,-3.0969c0,-0.19848 -1.38963,-0.87344 -3.05717,-1.46906c-1.70726,-0.63525 -3.33518,-1.19107 -3.57338,-1.3102z" fill="#000000" stroke="none" stroke-width="0.04449"/><path d="M394.1193,227.23097c0.63525,-0.03971 0.67496,0.71468 0.67496,10.68032c0,5.87616 0.07942,10.72003 0.15876,10.72003c0.07942,0 3.21604,-1.07201 6.98789,-2.38221c3.77185,-1.3102 6.90847,-2.38222 6.98789,-2.38222c0.07942,0 0.15886,2.66013 0.15886,5.91588v5.91587l-1.46906,0.2382c-2.69984,0.43677 -20.09015,1.8264 -20.28871,1.66754c-0.19848,-0.2382 -3.85128,-23.02818 -4.28796,-26.7604c-0.23828,-2.22337 -0.19857,-2.46165 0.47639,-2.50136c0.43677,0 2.81898,-0.2382 5.32034,-0.55582c2.50136,-0.27791 4.88359,-0.5161 5.28064,-0.55582z" fill="#000000" stroke="none" stroke-width="0.04449"/><path d="M423.34134,227.23097c0.07934,-0.03971 3.25566,1.74697 7.02752,3.97034l6.90855,4.01014v6.74961v6.74969l-2.66022,2.77927c-5.08206,5.24092 -4.40709,4.96301 -13.41988,5.67769c-4.32776,0.31762 -7.94076,0.5161 -8.02019,0.43668c-0.31762,-0.31762 -4.1689,-26.4825 -3.93071,-26.72069c0.11914,-0.11914 3.29546,-0.99258 7.06731,-1.94546c3.77185,-0.91325 6.94818,-1.70726 7.0276,-1.70726zM421.1179,236.44222c-0.39706,-0.15876 -0.51619,1.34992 -0.51619,6.78941c0,5.32025 0.11914,6.98789 0.51619,6.98789c0.55582,0 6.2335,-1.46906 6.43207,-1.66764c0.19848,-0.19848 1.38964,-7.14665 1.38964,-8.09952c0,-0.71468 -0.63534,-1.11173 -3.6528,-2.3426c-2.02488,-0.83373 -3.93071,-1.5484 -4.16891,-1.66754z" fill="#000000" stroke="none" stroke-width="0.04449"/><path d="M88.08179,227.62803c0.83381,-0.03971 9.64801,3.33509 10.24364,3.93063c0.27791,0.23828 -2.46165,6.35264 -3.1366,7.10704c-0.07942,0.07942 -1.5882,-0.47648 -3.3749,-1.27058l-3.21595,-1.46898l-2.73964,1.90574l-2.69983,1.86611l-0.03971,2.18374c0,1.19107 0.11914,2.8189 0.23828,3.61301c0.2382,1.38964 0.35733,1.50878 3.81157,2.85869l3.61301,1.42935l2.38221,-2.14403c1.31029,-1.19116 2.54107,-2.18374 2.73964,-2.18374c0.31762,0 1.23077,1.38963 3.25566,4.80415l1.0323,1.82641l-5.20121,2.85869l-5.20121,2.85869l-6.11437,-2.06459c-3.3749,-1.11173 -6.35264,-2.26316 -6.67027,-2.50136c-0.31762,-0.2382 -1.46906,-3.45423 -2.5808,-7.14675l-1.98517,-6.74961l2.89842,-4.1292l2.93804,-4.16891l4.48653,-1.70726c2.50136,-0.91325 4.88359,-1.70726 5.32035,-1.70726z" fill="#000000" stroke="none" stroke-width="0.04449"/><path d="M185.47543,227.66764l6.07464,-0.07934l-0.11905,4.24825l-0.11914,4.28805h-2.18374c-1.19107,0 -3.73214,-0.11914 -5.63788,-0.31762l-3.49395,-0.27791v10.52155v10.52146l-0.87354,0.15886c-0.5161,0.11905 -2.14403,0.31762 -3.69243,0.43677c-1.50878,0.11905 -3.17632,0.31763 -3.6528,0.47639l-0.91315,0.19857l0.03971,-6.67027c0,-3.69252 0.15876,-8.69515 0.31762,-11.07736c0.19848,-2.42193 0.27791,-4.4469 0.19848,-4.52624c-0.07934,-0.07942 -2.14402,0.15876 -4.60558,0.5161c-2.46165,0.35734 -4.76453,0.63525 -5.12187,0.63525c-0.5161,0 -0.91317,-1.0323 -1.70727,-4.16891c-0.55582,-2.26308 -1.0323,-4.24825 -1.0323,-4.36738c0,-0.07942 4.60568,-0.2382 10.24365,-0.31762c5.59825,-0.03971 12.9434,-0.11915 16.27858,-0.19857z" fill="#000000" stroke="none" stroke-width="0.04449"/><path d="M207.19338,227.62803c0.83381,-0.03971 9.64811,3.33509 10.24364,3.93063c0.27791,0.23828 -2.46165,6.35264 -3.13661,7.10704c-0.07942,0.07942 -1.5882,-0.47648 -3.37481,-1.27058l-3.21604,-1.46898l-2.73956,1.90574l-2.69984,1.86611l-0.03971,2.18374c0,1.19107 0.11905,2.8189 0.2382,3.61301c0.2382,1.38964 0.35734,1.50878 3.81158,2.85869l3.61308,1.42935l2.38221,-2.14403c1.3102,-1.19116 2.54099,-2.18374 2.73956,-2.18374c0.31762,0 1.23078,1.38963 3.25575,4.80415l1.0323,1.82641l-5.20121,2.85869l-5.20129,2.85869l-6.11437,-2.06459c-3.37481,-1.11173 -6.35265,-2.26316 -6.67027,-2.50136c-0.31762,-0.2382 -1.46905,-3.45423 -2.5807,-7.14675l-1.98526,-6.74961l2.89842,-4.1292l2.93813,-4.16891l4.48653,-1.70726c2.50127,-0.91325 4.88359,-1.70726 5.32025,-1.70726z" fill="#000000" stroke="none" stroke-width="0.04449"/><path d="M175.34638,104.66504c0,0.376 -1.75052,3.66075 -5.25037,9.89112h-0.24444c-0.28031,0 -4.30503,-1.84712 -12.07512,-5.57957l-3.9563,5.16994c6.68578,3.14993 14.84165,7.15512 24.39692,12.05024c-4.33971,7.56579 -7.42016,12.564 -9.24016,15.06312l-19.77691,1.71142c-9.03053,-5.9566 -13.79186,-9.03706 -14.31676,-9.24239v-0.24014c0,-0.65096 1.82119,-3.56075 5.49705,-8.79913h0.45422c1.43527,0.85616 5.98594,3.28683 13.61588,7.29201l4.62016,-5.13305c-14.03645,-6.98445 -21.80551,-10.92224 -23.3104,-11.84698v-0.20533c4.44519,-8.49052 6.89438,-12.80312 7.27897,-12.90535c11.58625,-2.29379 18.06224,-3.45749 19.3575,-3.45749c8.4003,4.14312 12.70417,6.23156 12.94979,6.23156zM266.30501,109.45689c-2.10031,9.37927 -3.43023,14.0701 -3.98993,14.0701c-0.10533,0 -2.9043,2.29274 -8.40031,6.91394c-3.39556,-0.17067 -7.31586,-0.37496 -11.69157,-0.64874l-0.45422,12.32298c-0.94415,0.27378 -5.07541,0.54757 -12.39127,0.85616c-0.87481,0 -1.33008,-2.46549 -1.33008,-7.36046c-1.61022,-20.30061 -2.41541,-31.25545 -2.41541,-32.86478c2.72948,-0.58238 11.20047,-2.01881 25.41188,-4.3126zM308.77405,102.91778l-3.3609,12.01645c-10.9212,-2.84134 -16.8018,-4.41586 -17.60579,-4.72445c0,0.20548 -1.19097,2.80786 -3.60637,7.77232h0.24666c4.8646,-0.30844 10.18565,-0.75511 15.89128,-1.40488l0.24341,0.47926c-0.9443,5.30563 -1.67881,8.90016 -2.16889,10.81691l-13.47572,-1.88208c0.14015,2.60133 0.20963,4.55393 0.20963,5.88934v1.1963l0.2446,0.47926c2.97496,-0.30755 9.03053,-0.78563 18.09588,-1.4366c0.31511,1.40385 0.87571,4.96253 1.68089,10.61157c-0.17496,0 -0.24445,0.06845 -0.24445,0.24015c-21.17632,-1.09629 -31.9227,-1.81452 -32.27249,-2.12311l-5.0766,-14.1375c3.85082,-17.5624 6.02193,-26.97663 6.51186,-28.27722c23.13664,2.67082 34.687,4.17689 34.687,4.48431zM348.79389,109.18298v0.20549c-1.92533,7.80594 -3.22163,12.25542 -3.816,13.3855l-7.38549,4.17571c8.75025,6.19675 13.15957,9.41527 13.2301,9.65439c-3.11512,1.4723 -7.87541,3.59439 -14.35039,6.36727c-7.49082,-10.03127 -11.23526,-15.13173 -11.23526,-15.37188h-0.42045c-0.17496,5.85453 -0.24563,9.89557 -0.24563,12.08608c-0.10533,1.02682 -0.3151,1.54075 -0.66489,1.54075h-10.53453c-0.48992,0 -1.22563,-6.36949 -2.24149,-19.10417c-0.45422,-2.77304 -1.1551,-9.2089 -2.03082,-19.30742c2.6957,-0.58252 10.9212,-2.01898 24.67721,-4.3812c0.52489,0.54771 5.53186,4.14207 15.01765,10.7495zM199.68359,99.6646l-2.16875,25.50537l9.76387,1.30058l2.87185,-22.55957l14.63084,3.1837l-3.14994,23.34625l-10.8169,12.42832l-21.38505,-3.69763l-8.36667,-9.03823l1.54074,-30.9827zM324.11648,108.29201c0,1.40281 0.06844,6.36846 0.2434,14.92743h0.21082c5.7046,-1.3006 8.54164,-2.19052 8.54164,-2.636l1.99496,-8.7643l-10.99083,-3.73141zM241.55938,122.43173c5.7403,-0.99201 8.60993,-1.57556 8.60993,-1.74623l1.99496,-8.42089c-2.83482,-1.13008 -6.36949,-2.50029 -10.6049,-4.10844z" fill="#000000" stroke="url(#color-2)" stroke-width="11.00161"/><path d="M345.98808,154.36138c13.47261,3.9215 20.66685,6.26638 21.49159,7.12253c7.42342,11.3135 11.5938,17.84714 12.51083,19.56062c-4.81141,16.40742 -7.5615,24.61099 -8.24934,24.61099c-15.99232,4.01171 -24.3796,5.99586 -25.11188,5.99586c-13.24328,-8.29393 -20.25395,-12.93794 -21.12536,-13.88432c-0.45852,-15.46106 -0.6877,-23.97973 -0.6877,-25.6021c-0.22829,-0.45096 -0.31955,-0.81052 -0.31955,-1.03541c13.65512,-11.17883 20.71247,-16.76818 21.17099,-16.76818zM344.65923,175.41162c-0.22919,1.39748 -0.50519,6.49023 -0.9637,15.2806l11.77854,2.61438c2.84133,-8.7449 4.21482,-13.43334 4.21482,-14.02017c-9.34787,-2.79363 -14.3418,-4.19097 -15.02965,-4.19097z" fill="#000000" stroke="url(#color-3)" stroke-width="11.00161"/><path d="M319.4984,159.27487l-8.20252,52.82629l-14.80032,-1.30503l3.29764,-55.48836z" fill="#000000" stroke="url(#color-4)" stroke-width="11.00161"/><path d="M290.1226,167.92836v0.26948c-2.52088,10.27794 -4.21703,16.13795 -4.996,17.6255l-9.66845,5.49912c11.45587,8.15808 17.22995,12.39676 17.32122,12.71188c-4.07793,1.93852 -10.31053,4.73216 -18.78803,8.38297c-9.80638,-13.20728 -14.70905,-19.9224 -14.70905,-20.2375h-0.54979c-0.22933,7.70712 -0.32058,13.02491 -0.32058,15.90966c-0.1369,1.35289 -0.41185,2.02874 -0.87038,2.02874h-13.79409c-0.64104,0 -1.60386,-8.38415 -2.93275,-25.15219c-0.59541,-3.65097 -1.51141,-12.1252 -2.6566,-25.42167c3.52816,-0.76711 14.29719,-2.65883 32.30611,-5.7686c0.68785,0.72149 7.23986,5.45349 19.65839,14.15262zM257.81531,166.7571c0,1.8483 0.09243,8.38297 0.32059,19.65187h0.276c7.46919,-1.71245 11.18193,-2.88593 11.18193,-3.47157l2.61112,-11.53838l-14.38965,-4.91363z" fill="#000000" stroke="url(#color-5)" stroke-width="11.00161"/><path d="M217.53371,158.19158c0,0.22593 5.81867,17.44387 17.50372,51.61029c-1.23645,0.45096 -8.24712,1.3083 -21.12416,2.61541c-0.87036,-2.93052 -1.87762,-7.48105 -2.97719,-13.6572c-10.99839,0.99201 -16.49647,1.84607 -16.49647,2.61319l-2.97941,10.41379h-0.32059c-12.96831,-2.34371 -19.47588,-3.74208 -19.47588,-4.23867c10.3563,-31.8673 16.31514,-49.71546 17.82758,-53.59237c16.95395,2.38948 26.3018,3.83023 28.0424,4.23555zM200.39722,172.48125c-0.45852,2.2089 -1.14622,6.39986 -2.01659,12.66505h9.94328l-3.66505,-14.28847c-2.84133,0 -4.26163,0.54118 -4.26163,1.62341z" fill="#000000" stroke="url(#color-6)" stroke-width="11.00161"/><path d="M133.4444,155.35232c3.34563,8.78935 5.36016,14.4255 6.09349,16.85943h0.276c0.77911,-1.668 3.84875,-6.31098 9.11868,-13.88431h0.27378c8.29497,0.49645 12.41958,1.08222 12.41958,1.66889l7.47022,50.25768c0,0.31615 -6.55424,1.03659 -19.61381,2.16327l-0.276,-0.54104c-0.7323,-15.2806 -1.09852,-24.60996 -1.09852,-27.9904h-0.27379l-11.32001,9.77927h-0.27392c-0.36726,-0.18029 -2.9326,-4.14637 -7.74401,-11.94371h-0.276c-5.91097,16.90284 -9.11956,25.87263 -9.66949,26.90922h-0.5486c-10.53986,-4.68756 -16.5421,-7.48223 -17.96343,-8.42861v-0.27052c13.06075,-30.24507 19.88773,-45.6168 20.43751,-46.20257c8.66105,0.58578 12.96831,1.12801 12.96831,1.6234z" fill="#000000" stroke="url(#color-7)" stroke-width="11.00161"/><path d="M175.42046,104.14653c0,0.376 -1.75052,3.66075 -5.25037,9.89112h-0.24444c-0.28031,0 -4.30503,-1.84712 -12.07512,-5.57957l-3.9563,5.16994c6.68578,3.14993 14.84165,7.15512 24.39692,12.05024c-4.33971,7.56579 -7.42016,12.56401 -9.24016,15.06313l-19.77691,1.71141c-9.03053,-5.9566 -13.79186,-9.03704 -14.31676,-9.24238v-0.24015c0,-0.65096 1.82119,-3.56075 5.49705,-8.79912h0.45422c1.43527,0.85616 5.98594,3.28682 13.61588,7.29201l4.62015,-5.13305c-14.03645,-6.98445 -21.8055,-10.92223 -23.3104,-11.84697v-0.20533c4.44519,-8.49052 6.89438,-12.80313 7.27897,-12.90536c11.58625,-2.29379 18.06224,-3.45748 19.3575,-3.45748c8.4003,4.14311 12.70417,6.23156 12.94979,6.23156zM266.37904,108.93839c-2.10031,9.37927 -3.43023,14.07009 -3.98993,14.07009c-0.10533,0 -2.9043,2.29274 -8.40031,6.91394c-3.39556,-0.17067 -7.31586,-0.37496 -11.69157,-0.64874l-0.45422,12.32297c-0.94415,0.27378 -5.07541,0.54756 -12.39127,0.85615c-0.87481,0 -1.33008,-2.46548 -1.33008,-7.36045c-1.61022,-20.30061 -2.41542,-31.25544 -2.41542,-32.86478c2.72948,-0.58237 11.20047,-2.01881 25.41188,-4.3126zM308.8481,102.39927l-3.3609,12.01645c-10.9212,-2.84134 -16.8018,-4.41586 -17.60579,-4.72445c0,0.20548 -1.19097,2.80786 -3.60637,7.77232h0.24666c4.8646,-0.30844 10.18565,-0.75511 15.89128,-1.40489l0.2434,0.47926c-0.9443,5.30563 -1.67881,8.90016 -2.1689,10.81691l-13.47572,-1.88208c0.14015,2.60133 0.20963,4.55393 0.20963,5.88933v1.19631l0.24459,0.47926c2.97496,-0.30755 9.03053,-0.78563 18.09588,-1.4366c0.31511,1.40385 0.8757,4.96253 1.68088,10.61157c-0.17496,0 -0.24444,0.06844 -0.24444,0.24015c-21.17632,-1.09629 -31.9227,-1.81452 -32.27248,-2.12311l-5.0766,-14.1375c3.85082,-17.56239 6.02193,-26.97661 6.51186,-28.27721c23.13664,2.67082 34.68701,4.17689 34.68701,4.4843zM348.86797,108.66446v0.20549c-1.92533,7.80594 -3.22163,12.25542 -3.816,13.3855l-7.3855,4.17571c8.75025,6.19675 13.15957,9.41526 13.2301,9.65437c-3.11512,1.4723 -7.87541,3.59437 -14.35039,6.36727c-7.49082,-10.03127 -11.23528,-15.13172 -11.23528,-15.37187h-0.42045c-0.17496,5.85453 -0.24563,9.89557 -0.24563,12.08608c-0.10533,1.02682 -0.31511,1.54075 -0.6649,1.54075h-10.53452c-0.48992,0 -1.22563,-6.36949 -2.24148,-19.10417c-0.45422,-2.77304 -1.15512,-9.20891 -2.03082,-19.30743c2.6957,-0.58252 10.9212,-2.01896 24.67722,-4.38119c0.52489,0.54771 5.53186,4.14207 15.01765,10.74949zM199.75768,99.14608l-2.16875,25.50536l9.76387,1.3006l2.87185,-22.55957l14.63084,3.1837l-3.14993,23.34625l-10.8169,12.42832l-21.38505,-3.69764l-8.36667,-9.03823l1.54074,-30.9827zM324.19057,107.77348c0,1.40281 0.06844,6.36846 0.2434,14.92742h0.21082c5.7046,-1.3006 8.54164,-2.19052 8.54164,-2.636l1.99496,-8.7643l-10.99083,-3.73142zM241.63344,121.91322c5.7403,-0.99201 8.60994,-1.57556 8.60994,-1.74623l1.99496,-8.42089c-2.83482,-1.13008 -6.36949,-2.50029 -10.6049,-4.10844z" fill="#000000" stroke="none" stroke-width="1.19633"/><path d="M133.59256,154.75975c3.34563,8.78935 5.36016,14.4255 6.09349,16.85942h0.276c0.77912,-1.668 3.84875,-6.31098 9.11868,-13.88431h0.27378c8.29497,0.49645 12.41958,1.08222 12.41958,1.66888l7.47023,50.2577c0,0.31615 -6.55424,1.03659 -19.61381,2.16326l-0.276,-0.54103c-0.7323,-15.2806 -1.09852,-24.60996 -1.09852,-27.9904h-0.27378l-11.32002,9.77927h-0.27393c-0.36726,-0.18029 -2.9326,-4.14637 -7.74401,-11.94371h-0.276c-5.91097,16.90284 -9.11956,25.87263 -9.6695,26.90922h-0.5486c-10.53986,-4.68756 -16.5421,-7.48223 -17.96343,-8.42859v-0.27052c13.06075,-30.24507 19.88773,-45.61681 20.43751,-46.20257c8.66105,0.58578 12.96831,1.128 12.96831,1.62341z" fill="#000000" stroke="none" stroke-width="1.57068"/><path d="M217.68185,157.59901c0,0.22592 5.81868,17.44387 17.50373,51.61028c-1.23645,0.45096 -8.24712,1.3083 -21.12417,2.61541c-0.87036,-2.93052 -1.87762,-7.48105 -2.97719,-13.6572c-10.99839,0.99201 -16.49647,1.84607 -16.49647,2.61319l-2.97941,10.4138h-0.32058c-12.96831,-2.34371 -19.47589,-3.74208 -19.47589,-4.23867c10.3563,-31.8673 16.31514,-49.71548 17.82758,-53.59237c16.95395,2.38948 26.3018,3.83023 28.0424,4.23556zM200.54539,171.88864c-0.45852,2.2089 -1.14622,6.39986 -2.01659,12.66505h9.94328l-3.66505,-14.28847c-2.84133,0 -4.26163,0.5412 -4.26163,1.62341z" fill="#000000" stroke="none" stroke-width="1.57068"/><path d="M290.27079,167.33577v0.26949c-2.52088,10.27794 -4.21704,16.13795 -4.99601,17.6255l-9.66845,5.49912c11.45587,8.15808 17.22996,12.39676 17.32121,12.71188c-4.07793,1.93852 -10.31053,4.73216 -18.78803,8.38297c-9.80638,-13.20728 -14.70905,-19.92241 -14.70905,-20.23751h-0.54978c-0.22933,7.70712 -0.32058,13.02491 -0.32058,15.90966c-0.1369,1.35289 -0.41185,2.02875 -0.87036,2.02875h-13.79409c-0.64104,0 -1.60385,-8.38415 -2.93275,-25.15219c-0.59541,-3.65097 -1.51141,-12.12521 -2.65659,-25.42166c3.52816,-0.76711 14.29719,-2.65881 32.30611,-5.76859c0.68785,0.72149 7.23987,5.45348 19.6584,14.15261zM257.96347,166.16451c0,1.8483 0.09243,8.38297 0.32059,19.65187h0.276c7.46919,-1.71245 11.18193,-2.88593 11.18193,-3.47157l2.61112,-11.53838l-14.38965,-4.91363z" fill="#000000" stroke="none" stroke-width="1.57068"/><path d="M319.64656,158.68228l-8.20252,52.82629l-14.80031,-1.30504l3.29763,-55.48836z" fill="#000000" stroke="none" stroke-width="1.57068"/><path d="M346.13625,153.76878c13.47261,3.92148 20.66685,6.26638 21.49159,7.12253c7.42342,11.31349 11.59378,17.84714 12.51082,19.56062c-4.81141,16.40742 -7.5615,24.61099 -8.24934,24.61099c-15.99232,4.01171 -24.37959,5.99586 -25.11188,5.99586c-13.24328,-8.29393 -20.25395,-12.93794 -21.12536,-13.88431c-0.45852,-15.46106 -0.6877,-23.97973 -0.6877,-25.60211c-0.22829,-0.45096 -0.31955,-0.81052 -0.31955,-1.0354c13.65512,-11.17883 20.71247,-16.76817 21.17099,-16.76817zM344.80737,174.81904c-0.22919,1.39748 -0.50519,6.49023 -0.9637,15.2806l11.77853,2.61437c2.84133,-8.7449 4.21482,-13.43334 4.21482,-14.02017c-9.34787,-2.79363 -14.34181,-4.19097 -15.02965,-4.19097z" fill="#000000" stroke="none" stroke-width="1.57068"/><path d="M65.8701,222.07296c2.66022,1.34992 5.00273,2.69983 5.20121,3.05718c0.27791,0.51619 0.43677,0.47648 0.99258,-0.27791c0.39706,-0.5161 2.66022,-1.58811 5.95559,-2.81898c6.70998,-2.50127 8.33781,-2.5807 13.2611,-0.59553l3.41452,1.38964l8.65543,-1.58812c9.6084,-1.74697 10.75974,-1.86611 12.42738,-0.99267c2.02488,1.03238 10.52146,7.38495 10.95823,8.17905c0.35734,0.67496 0.51619,0.47648 1.11172,-1.50878c1.82641,-5.83645 2.97775,-7.2658 5.79673,-7.2658c1.94554,0 14.76988,1.98517 16.04037,2.46165c0.71468,0.27791 1.38964,1.0323 1.86612,2.06459l0.75439,1.62783v-1.27049c0,-1.82641 0.71468,-3.17632 1.94546,-3.65271c0.59553,-0.19857 8.49667,-0.47648 18.30345,-0.63534c18.9785,-0.27791 19.01822,-0.27791 19.93137,2.02497l0.5161,1.27049l4.72481,-1.74697c5.91587,-2.18374 7.98047,-2.26308 12.06995,-0.59553c2.5808,1.07202 2.8587,1.11173 3.05718,0.47639c0.11914,-0.39697 0.67495,-0.91316 1.23087,-1.15136c1.3102,-0.63525 13.65816,-0.63525 14.96836,-0.03971c1.50869,0.67496 1.86602,1.98517 1.86602,6.51141c0,2.50136 0.15886,4.16891 0.39704,4.16891c0.23828,0 0.39707,-1.70726 0.39707,-4.36739c0,-2.38231 0.19857,-4.76453 0.43677,-5.28063c0.55582,-1.23087 1.90574,-1.86612 3.97034,-1.86612c2.46165,0 9.96573,1.23087 11.1568,1.82641c0.95296,0.47648 1.07202,0.47648 1.31029,-0.19848c0.59553,-1.86612 3.77185,-2.06469 10.00536,-0.63534c5.08206,1.19116 6.70998,1.86611 7.06723,2.93813c0.35734,1.15144 0.7941,1.0323 1.35002,-0.31763c0.59553,-1.38964 1.90574,-2.02488 4.1292,-2.02488c2.26308,0 10.72003,4.04976 11.35527,5.4394c0.99258,2.22345 0.55582,4.20862 -2.77927,11.91119c-4.40709,10.24355 -5.24092,11.71262 -7.38493,13.7375c-1.07202,0.95287 -3.61301,3.29546 -5.6776,5.24092c-4.76453,4.40709 -5.67769,4.96301 -8.0599,4.96301c-1.50878,0 -2.85869,-0.47648 -6.94818,-2.54107l-5.04243,-2.50136l-5.51883,0.35734c-6.59083,0.39706 -7.54371,0.15886 -8.576,-2.18365c-0.63525,-1.35002 -0.75439,-1.46906 -0.95287,-0.75439c-0.31762,1.0323 -2.50136,1.8264 -6.94818,2.66012c-5.7174,1.0323 -7.14674,0.71468 -8.21876,-1.98517l-0.71468,-1.62784l-3.77185,2.10422c-4.84386,2.66022 -5.67769,2.69993 -12.54643,0.35734c-7.2658,-2.42193 -9.29068,-3.33509 -9.88621,-4.56587c-0.31762,-0.5559 -1.46906,-4.16891 -2.62051,-7.98047c-1.15136,-3.81165 -2.10431,-6.98789 -2.14403,-6.98789c0,-0.03971 -0.79401,-0.19857 -1.70726,-0.35734l-1.70726,-0.278v8.97315c0,5.71731 -0.15876,9.29068 -0.43677,9.92593c-0.55582,1.23087 -2.69984,2.10431 -5.71731,2.38221c-1.3102,0.11914 -3.57338,0.31763 -5.04244,0.47648c-3.17624,0.31762 -4.80415,-0.19857 -5.47911,-1.82641c-0.31762,-0.75439 -0.39706,-3.93071 -0.31763,-10.20393l0.11914,-9.09211l-4.24833,0.03971c-2.38221,0 -4.28805,0 -4.28805,0c0,0 1.07201,3.21594 2.38221,7.14665c2.46165,7.30551 2.73964,8.93335 1.90583,10.72003c-0.75439,1.62783 -2.14403,2.10431 -8.77457,2.81898c-5.16148,0.55582 -6.35265,0.59553 -7.38495,0.15886c-1.42926,-0.59563 -2.26308,-1.94554 -2.66013,-4.32776c-0.43677,-2.81898 -1.70726,-2.54107 -2.50136,0.55582c-0.5161,2.06459 -1.50869,3.21604 -3.0969,3.61309c-1.27049,0.31762 -6.31293,-0.31763 -10.32298,-1.34992l-2.81898,-0.71468l-2.85869,1.3102c-4.04976,1.82641 -6.63056,1.70726 -8.33781,-0.39704c-0.59553,-0.71468 -0.71467,-0.75439 -1.90573,-0.11905c-0.95296,0.47639 -2.38222,0.63525 -6.03502,0.63525c-4.96301,0 -6.03502,-0.27791 -7.18637,-1.66755c-0.63525,-0.7941 -0.67496,-0.7941 -4.01014,1.0323c-4.40709,2.38221 -5.32025,2.38221 -12.78462,-0.15886c-6.67027,-2.26308 -8.77457,-3.25575 -9.13192,-4.24833c-0.2382,-0.5161 -0.59553,-0.15876 -1.78668,1.70726c-0.95287,1.46906 -1.94546,2.5808 -2.66013,2.85869c-1.15144,0.47648 -12.34787,1.66754 -15.48447,1.66754c-1.34992,0 -2.34259,-0.47638 -6.2335,-3.09689c-2.50136,-1.66754 -4.76453,-3.45423 -5.00272,-3.97034c-0.2382,-0.51619 -0.43677,-2.54107 -0.43677,-4.52624c0,-3.21604 0.11915,-3.81158 1.07202,-5.43949c0.67496,-1.19107 0.87352,-1.82631 0.5559,-1.94546c-0.95296,-0.31762 -1.62792,-2.46165 -1.62792,-5.28063c0,-2.73956 0.11915,-3.05718 2.22345,-6.90847c1.50869,-2.81898 2.54099,-4.20862 3.25566,-4.56596c0.59563,-0.27791 3.57338,-0.99258 6.63056,-1.58811c8.49667,-1.70726 9.17163,-1.66754 15.00808,1.23078z" fill="#000000" stroke="none" stroke-width="0.04449"/><path d="M304.72855,221.51715c0.2382,0.5161 0.43677,3.05718 0.43677,5.71731c0,4.56596 0.03971,4.72481 0.75439,4.32776c1.11163,-0.59553 3.45423,-0.47648 4.80415,0.19848l1.15144,0.59563l0.43668,-2.26316c1.23087,-5.75702 2.8587,-6.55112 10.1245,-4.96301l3.17632,0.71468l3.77185,-2.42194c5.20121,-3.41452 6.03502,-3.77185 8.25838,-3.77185c1.98526,0 9.6084,1.94554 11.55385,2.93813c0.59553,0.31762 1.3102,0.43668 1.62792,0.2382c0.79401,-0.39706 16.27858,-3.17632 17.86669,-3.17632c1.38964,0 3.09689,0.7941 5.16148,2.38221c2.22345,1.70726 2.3426,1.70726 2.81898,0.63534c0.63525,-1.38964 1.8264,-1.74697 8.09961,-2.42202c6.70998,-0.71459 8.21867,-0.71459 9.44954,-0.15876c1.66754,0.75439 1.86602,1.86611 1.86602,10.68032c0,4.60568 0.07942,8.33781 0.19857,8.33781c0.15876,0 1.78668,-0.55582 3.73214,-1.23078l3.49396,-1.19116l-0.55582,-3.45423c-0.99267,-6.70998 -0.63534,-8.69515 1.82631,-9.76716c2.10431,-0.95287 14.25369,-3.81157 16.15952,-3.81157c1.62783,0 1.86602,0.11914 13.4993,6.86875c1.94546,1.15144 3.37481,2.26316 3.65271,2.85869c0.31771,0.67496 0.47648,3.77185 0.47648,8.97306c0,7.0276 -0.07942,8.09961 -0.75439,9.40983c-0.87344,1.70726 -6.90847,7.66285 -8.73486,8.57609c-1.38964,0.7543 -18.1843,2.14394 -20.01071,1.66755c-0.59553,-0.11914 -1.34992,-0.5559 -1.70726,-0.95287c-0.5559,-0.63534 -0.95287,-0.67496 -5.4394,-0.23828c-18.4226,1.78668 -20.05052,1.70726 -21.00338,-0.87344c-0.27791,-0.75439 -0.59553,-1.34992 -0.75439,-1.34992c-0.11914,0 -1.98517,0.79401 -4.08947,1.78668c-5.08215,2.3425 -7.54371,2.38221 -9.3701,0.07934c-0.59553,-0.71468 -0.71468,-0.75439 -1.90583,-0.11906c-0.95287,0.47639 -2.38221,0.63525 -6.03493,0.63525c-4.96301,0 -6.78941,-0.43677 -7.30552,-1.78668c-0.19857,-0.55582 -0.35734,-0.55582 -1.34992,-0.03971c-1.78668,0.91315 -9.84658,2.62051 -12.46709,2.62051c-2.42193,0 -4.08947,-0.67505 -10.08478,-4.08957l-2.42194,-1.34992l-0.87344,2.06459c-0.55582,1.3102 -1.23087,2.22345 -1.8264,2.50136c-0.5161,0.2382 -3.61299,0.67496 -6.86875,0.91316c-6.39236,0.5559 -8.13933,0.278 -8.61573,-1.27049c-0.19857,-0.63525 -0.39704,-0.67496 -1.07201,-0.31763c-0.5559,0.31762 -2.85869,0.39706 -6.82913,0.27791c-7.10694,-0.19848 -8.17896,-0.55582 -9.13182,-3.17632c-1.0323,-2.73956 -5.79682,-25.05314 -5.79682,-27.03831c0,-3.93071 1.11172,-4.60568 9.33048,-5.79673c8.33781,-1.23087 10.32298,-1.0323 11.27585,1.0323z" fill="#000000" stroke="none" stroke-width="0.04449"/><path d="M58.6837,223.66118c1.0323,-0.03971 9.05248,4.01005 9.05248,4.60558c0,0.23828 -0.71468,1.78668 -1.62783,3.45423c-1.82641,3.41461 -1.27058,3.3749 -6.63056,0.67505l-3.1366,-1.5882l-1.31029,1.78668c-0.71468,0.99258 -1.23078,1.8264 -1.15136,1.86611c0.07934,0.03962 3.69243,1.86602 7.98047,4.04976c4.32767,2.18374 7.86134,4.1292 7.86134,4.32767c0,0.59563 -5.59825,9.80687 -6.07464,9.96573c-0.278,0.11905 -3.29546,0.43677 -6.70998,0.75439l-6.19378,0.59553l-4.01014,-2.66012l-3.97034,-2.66022l-0.03971,-2.10431c0,-1.58811 0.2382,-2.46165 1.0323,-3.65271l1.07201,-1.58821l2.62042,1.42935c1.42935,0.7941 3.53366,1.98526 4.6851,2.5808l2.02488,1.15144l1.42935,-1.66764c0.75439,-0.95287 1.23077,-1.86602 1.07201,-2.02488c-0.19857,-0.19848 -3.33518,-1.90573 -7.0276,-3.77185c-6.70998,-3.49395 -6.70998,-3.49395 -6.82903,-4.9233c-0.11914,-1.3102 1.3102,-4.52624 3.41452,-7.7819c0.19848,-0.278 2.89832,-1.0323 6.07464,-1.66764c3.1366,-0.59553 6.03502,-1.15135 6.39236,-1.15135z" fill="url(#color-8)" stroke="none" stroke-width="0.04449"/><path d="M113.19715,223.81994c0.63525,0.15886 9.88631,6.98789 10.04507,7.34522c0.19857,0.47648 -1.94545,8.45695 -2.38221,9.01277c-0.19848,0.27791 -1.34992,1.0323 -2.54107,1.70726c-1.19107,0.63525 -2.14403,1.27058 -2.14403,1.34992c0,0.07942 1.86612,1.50878 4.16891,3.17632c2.30288,1.70726 4.169,3.17632 4.169,3.33518c0,0.47639 -9.25105,4.48653 -9.48925,4.1292c-0.11914,-0.19857 -1.8264,-2.54107 -3.81157,-5.24092l-3.57338,-4.9233l-0.19847,4.52624l-0.19857,4.56595l-3.53366,0.11906c-1.94546,0.07942 -3.69243,-0.03962 -3.85128,-0.19848c-0.35734,-0.35734 -2.85861,-24.4179 -2.66013,-25.4502c0.11914,-0.55582 1.66754,-0.95287 7.86133,-2.10431c4.24833,-0.79401 7.94085,-1.42935 8.13932,-1.34992zM107.55916,230.45049c-0.39706,-0.11914 -0.5161,1.0323 -0.5161,5.08216c0,4.76444 0.03971,5.20121 0.71468,5.00263c0.35734,-0.07942 1.70726,-0.47648 2.93804,-0.7941l2.22345,-0.63525l0.63525,-2.77927c0.35734,-1.50869 0.63525,-2.89833 0.63525,-3.0969c0,-0.19848 -1.38964,-0.87344 -3.05718,-1.46906c-1.70726,-0.63525 -3.33509,-1.19107 -3.57337,-1.3102z" fill="url(#color-9)" stroke="none" stroke-width="0.04449"/><path d="M134.95478,223.85965c0.67505,0.11914 3.85129,0.59553 6.98789,1.07202l5.7174,0.87344l4.48653,13.41996c3.01747,9.0922 4.32776,13.4993 4.01005,13.57872c-0.99258,0.39706 -10.00536,1.27049 -10.28326,1.0323c-0.11914,-0.11914 -0.5161,-1.66755 -0.87345,-3.37481c-0.35734,-1.74697 -0.71468,-3.25575 -0.83381,-3.33518c-0.39706,-0.39706 -7.54371,0.75439 -7.98047,1.3102c-0.2382,0.31762 -0.67496,1.54849 -0.95287,2.77927c-0.278,1.23087 -0.63534,2.30289 -0.7941,2.38231c-0.31762,0.19848 -9.48925,-1.62792 -9.80687,-1.90583c-0.15876,-0.19848 8.02019,-26.12516 8.65544,-27.35593c0.27791,-0.47648 0.71468,-0.59563 1.66754,-0.47648zM140.19569,232.75336c-0.55582,0 -1.0323,0.27791 -1.15136,0.67496c-0.19857,0.71468 -1.0323,5.59816 -1.0323,6.15408c0,0.19848 1.15135,0.31762 2.54099,0.31762h2.54107l-0.55582,-1.90583c-0.278,-1.0323 -0.71468,-2.62042 -0.95296,-3.57328c-0.35734,-1.38964 -0.59553,-1.66754 -1.38964,-1.66754z" fill="url(#color-10)" stroke="none" stroke-width="0.04449"/><path d="M235.68363,223.58174l1.90574,0.27791c1.0323,0.11914 3.13661,0.47648 4.64539,0.71468l2.77927,0.47648l0.11914,14.13454l0.07935,14.13454l-1.07202,0.23828c-0.63525,0.11905 -2.62041,0.2382 -4.48653,0.31762l-3.37481,0.11905l-0.11914,-6.07464l-0.11905,-6.03502h-2.46165c-1.34992,0 -3.13661,0.11914 -3.93071,0.23828l-1.50878,0.27791v5.08206v5.08215l-2.06459,0.39697c-5.51883,1.15144 -5.83645,1.15143 -6.03493,0.47648c-0.11914,-0.35734 -0.91325,-6.43207 -1.82641,-13.53901c-0.87352,-7.10704 -1.70726,-13.57874 -1.8264,-14.41255l-0.2382,-1.46898h5.39969h5.39978v5.55854v5.55854h4.36738h4.36748v-5.79682z" fill="url(#color-11)" stroke="none" stroke-width="0.04449"/><path d="M252.47825,223.62146c0.23828,0.03971 2.54107,0.5161 5.04243,1.11172l4.56596,1.11163v5.00272v5.04235l2.30279,0.5559c1.23087,0.31762 2.34251,0.47648 2.42194,0.31762c0.07942,-0.11914 0.99258,-2.77927 1.98517,-5.91587c1.0323,-3.09689 2.02497,-5.63797 2.14403,-5.63797c0.5559,0 8.02019,3.73214 8.02019,4.01014c0,0.35734 -4.60567,11.11709 -6.55112,15.24627c-1.5484,3.33509 -0.99258,2.77927 -11.35528,12.06995l-2.42193,2.18374l-6.31293,-3.13661c-3.45423,-1.74697 -6.31292,-3.29546 -6.31292,-3.49395c0,-0.19857 0.91315,-1.86611 2.02488,-3.69243l1.98517,-3.33518l2.93813,1.98517c1.62783,1.11173 3.09689,1.98526 3.25575,1.98526c0.19848,0 1.34992,-1.0323 2.62042,-2.30288l2.26316,-2.26308l-4.56595,-4.56596l-4.56596,-4.56596v-5.83645c0,-4.44682 0.11914,-5.87616 0.5161,-5.87616z" fill="url(#color-12)" stroke="none" stroke-width="0.04449"/><path d="M300.7185,223.66118c0.35734,-0.03971 0.47639,2.06459 0.47639,9.17154v9.25105l3.53366,-3.53366l3.53366,-3.49395l2.66013,3.61299c1.42935,1.98526 2.77927,3.61308 2.93813,3.61308c0.11905,0 0.87345,-2.93804 1.58812,-6.51141c0.75439,-3.57337 1.46906,-6.74969 1.62792,-6.98789c0.19848,-0.31762 1.66754,-0.11914 5.24092,0.67496c4.44682,1.0323 5.04235,1.07202 5.39969,0.55582c0.19848,-0.35734 2.46165,-1.94546 5.00272,-3.57328l4.6453,-2.93813l4.04985,1.07201c6.39226,1.70726 6.11435,1.50879 8.77449,6.74969l2.38222,4.60558l-0.55582,2.06459c-0.27791,1.15144 -1.34992,4.6851 -2.3425,7.86143l-1.86612,5.75702l-1.94545,0.47648c-1.11173,0.27791 -3.49395,0.83373 -5.32035,1.19107l-3.29537,0.71468l-4.08957,-2.18365c-2.26308,-1.19116 -4.40709,-2.38222 -4.84386,-2.66022c-0.63525,-0.5161 -0.71468,-1.34992 -0.83373,-9.3701l-0.15886,-8.8142l-1.19106,3.77185c-0.63534,2.06459 -2.22345,7.10694 -3.53366,11.1568l-2.3426,7.38485l-2.85862,0.27801c-1.5882,0.15876 -3.77185,0.35733 -4.88359,0.47638l-1.98526,0.23828l-1.58811,-4.20862c-0.87344,-2.30288 -1.70726,-4.20862 -1.82641,-4.20862c-0.15876,0 -0.95287,1.5484 -1.78668,3.41452l-1.5484,3.41452l-4.68511,-0.15876c-2.5807,-0.11914 -4.84386,-0.35734 -5.08206,-0.59563c-0.31762,-0.31762 -5.91588,-24.61639 -5.91588,-25.80745c0,-0.5559 1.11173,-0.83381 7.34523,-1.70735c2.62042,-0.39697 5.00263,-0.71459 5.28063,-0.7543zM340.42236,232.19746l-1.46898,-0.63525l-1.98526,2.26308c-2.22337,2.50136 -2.26308,2.5808 -1.78659,8.09962c0.2382,2.85869 0.31762,3.01747 1.66754,3.89099c1.34992,0.91315 3.05718,0.95287 4.36738,0.11915c0.27791,-0.19857 1.07202,-2.42193 1.82641,-4.96301c1.3102,-4.56596 1.3102,-4.60568 0.63525,-6.15408c-0.39706,-0.83381 -0.95287,-1.62792 -1.23078,-1.78668c-0.31762,-0.11914 -1.23087,-0.47648 -2.02497,-0.83381z" fill="url(#color-13)" stroke="none" stroke-width="0.04449"/><path d="M368.4931,223.81994c0.63525,0.15886 9.88621,6.98789 10.04507,7.34522c0.19848,0.47648 -1.94554,8.45695 -2.38221,9.01277c-0.19857,0.27791 -1.34992,1.0323 -2.54107,1.70726c-1.19116,0.63525 -2.14403,1.27058 -2.14403,1.34992c0,0.07942 1.86612,1.50878 4.16891,3.17632c2.30288,1.70726 4.16891,3.17632 4.16891,3.33518c0,0.47639 -9.25097,4.48653 -9.48925,4.1292c-0.11905,-0.19857 -1.82631,-2.54107 -3.81157,-5.24092l-3.57328,-4.9233l-0.19857,4.52624l-0.19848,4.56595l-3.53366,0.11906c-1.94546,0.07942 -3.69243,-0.03962 -3.85128,-0.19848c-0.35734,-0.35734 -2.85869,-24.4179 -2.66013,-25.4502c0.11905,-0.55582 1.66754,-0.95287 7.86133,-2.10431c4.24833,-0.79401 7.94076,-1.42935 8.13933,-1.34992zM362.85514,230.45049c-0.39706,-0.11914 -0.51619,1.0323 -0.51619,5.08216c0,4.76444 0.03971,5.20121 0.71468,5.00263c0.35734,-0.07942 1.70726,-0.47648 2.93813,-0.7941l2.22337,-0.63525l0.63534,-2.77927c0.35734,-1.50869 0.63525,-2.89833 0.63525,-3.0969c0,-0.19848 -1.38963,-0.87344 -3.05717,-1.46906c-1.70726,-0.63525 -3.33518,-1.19107 -3.57338,-1.3102z" fill="url(#color-14)" stroke="none" stroke-width="0.04449"/><path d="M391.44195,223.66118c0.63525,-0.03971 0.67496,0.71468 0.67496,10.68032c0,5.87616 0.07942,10.72003 0.15876,10.72003c0.07942,0 3.21604,-1.07201 6.98789,-2.38221c3.77185,-1.3102 6.90847,-2.38221 6.98789,-2.38221c0.07942,0 0.15886,2.66012 0.15886,5.91587v5.91587l-1.46906,0.2382c-2.69984,0.43677 -20.09015,1.8264 -20.28871,1.66754c-0.19848,-0.2382 -3.85128,-23.02818 -4.28796,-26.7604c-0.23828,-2.22337 -0.19857,-2.46165 0.47638,-2.50136c0.43677,0 2.81898,-0.2382 5.32035,-0.55582c2.50136,-0.27791 4.88359,-0.5161 5.28064,-0.55582z" fill="url(#color-15)" stroke="none" stroke-width="0.04449"/><path d="M420.664,223.66118c0.07934,-0.03971 3.25566,1.74697 7.02752,3.97033l6.90855,4.01014v6.74961v6.74969l-2.66022,2.77927c-5.08206,5.24092 -4.40709,4.96301 -13.41988,5.67769c-4.32776,0.31762 -7.94076,0.5161 -8.02019,0.43667c-0.31762,-0.31762 -4.16891,-26.4825 -3.93071,-26.72069c0.11914,-0.11914 3.29547,-0.99258 7.06733,-1.94546c3.77185,-0.91325 6.94818,-1.70726 7.0276,-1.70726zM418.44053,232.87241c-0.39706,-0.15876 -0.51619,1.34992 -0.51619,6.78941c0,5.32025 0.11914,6.98789 0.51619,6.98789c0.55582,0 6.2335,-1.46906 6.43207,-1.66764c0.19848,-0.19848 1.38964,-7.14665 1.38964,-8.09952c0,-0.71468 -0.63534,-1.11172 -3.6528,-2.34259c-2.02488,-0.83373 -3.93071,-1.5484 -4.16891,-1.66755z" fill="url(#color-16)" stroke="none" stroke-width="0.04449"/><path d="M85.40444,224.05822c0.83381,-0.03971 9.64802,3.33509 10.24364,3.93063c0.27791,0.23828 -2.46165,6.35264 -3.1366,7.10704c-0.07942,0.07942 -1.5882,-0.47648 -3.3749,-1.27058l-3.21595,-1.46898l-2.73964,1.90574l-2.69984,1.86612l-0.03971,2.18374c0,1.19107 0.11915,2.81889 0.23828,3.61299c0.2382,1.38964 0.35733,1.50878 3.81157,2.85869l3.61299,1.42935l2.38222,-2.14403c1.31029,-1.19116 2.54107,-2.18374 2.73964,-2.18374c0.31762,0 1.23077,1.38964 3.25566,4.80415l1.0323,1.8264l-5.20121,2.85869l-5.20121,2.85869l-6.11437,-2.06459c-3.3749,-1.11173 -6.35264,-2.26318 -6.67027,-2.50136c-0.31762,-0.2382 -1.46906,-3.45423 -2.5808,-7.14675l-1.98517,-6.74961l2.89842,-4.1292l2.93804,-4.16891l4.48653,-1.70726c2.50136,-0.91325 4.88357,-1.70726 5.32034,-1.70726z" fill="url(#color-17)" stroke="none" stroke-width="0.04449"/><path d="M182.79808,224.09784l6.07464,-0.07935l-0.11905,4.24825l-0.11914,4.28805h-2.18374c-1.19107,0 -3.73214,-0.11915 -5.63789,-0.31763l-3.49395,-0.27791v10.52155v10.52146l-0.87352,0.15886c-0.5161,0.11905 -2.14403,0.31763 -3.69243,0.43677c-1.50878,0.11905 -3.17632,0.31762 -3.6528,0.47638l-0.91316,0.19857l0.03971,-6.67027c0,-3.69252 0.15877,-8.69515 0.31763,-11.07736c0.19848,-2.42193 0.27791,-4.4469 0.19848,-4.52624c-0.07934,-0.07942 -2.14402,0.15876 -4.60558,0.5161c-2.46165,0.35734 -4.76453,0.63525 -5.12187,0.63525c-0.5161,0 -0.91316,-1.0323 -1.70727,-4.16891c-0.55582,-2.26308 -1.0323,-4.24825 -1.0323,-4.36739c0,-0.07942 4.60568,-0.2382 10.24365,-0.31762c5.59825,-0.03971 12.94339,-0.11914 16.27857,-0.19857z" fill="url(#color-18)" stroke="none" stroke-width="0.04449"/><path d="M204.51601,224.05822c0.83381,-0.03971 9.6481,3.33509 10.24364,3.93063c0.27791,0.23828 -2.46165,6.35264 -3.1366,7.10704c-0.07942,0.07942 -1.5882,-0.47648 -3.37481,-1.27058l-3.21604,-1.46898l-2.73956,1.90574l-2.69984,1.86612l-0.03971,2.18374c0,1.19107 0.11905,2.81889 0.2382,3.61299c0.2382,1.38964 0.35733,1.50878 3.81157,2.85869l3.61309,1.42935l2.38221,-2.14403c1.3102,-1.19116 2.54099,-2.18374 2.73956,-2.18374c0.31762,0 1.23078,1.38964 3.25575,4.80415l1.0323,1.8264l-5.20121,2.85869l-5.20129,2.85869l-6.11437,-2.06459c-3.37481,-1.11173 -6.35264,-2.26318 -6.67027,-2.50136c-0.31762,-0.2382 -1.46906,-3.45423 -2.5807,-7.14675l-1.98526,-6.74961l2.89842,-4.1292l2.93813,-4.16891l4.48653,-1.70726c2.50127,-0.91325 4.88359,-1.70726 5.32025,-1.70726z" fill="url(#color-19)" stroke="none" stroke-width="0.04449"/><path d="M172.66903,101.09525c0,0.376 -1.75052,3.66075 -5.25037,9.89112h-0.24444c-0.28031,0 -4.30504,-1.84711 -12.07513,-5.57957l-3.9563,5.16994c6.68578,3.14993 14.84165,7.15512 24.39692,12.05024c-4.33971,7.56579 -7.42016,12.56401 -9.24016,15.06313l-19.77691,1.71141c-9.03053,-5.9566 -13.79186,-9.03706 -14.31676,-9.24239v-0.24014c0,-0.65096 1.82119,-3.56074 5.49705,-8.79912h0.45422c1.43527,0.85616 5.98594,3.28683 13.61588,7.29201l4.62016,-5.13305c-14.03645,-6.98445 -21.80551,-10.92224 -23.3104,-11.84698v-0.20533c4.44519,-8.49052 6.89438,-12.80312 7.27897,-12.90534c11.58625,-2.29379 18.06225,-3.45749 19.35752,-3.45749c8.4003,4.14312 12.70417,6.23156 12.94979,6.23156zM263.62763,105.88709c-2.10031,9.37928 -3.43023,14.0701 -3.98993,14.0701c-0.10533,0 -2.9043,2.29274 -8.40031,6.91394c-3.39556,-0.17067 -7.31585,-0.37496 -11.69157,-0.64874l-0.45422,12.32298c-0.94415,0.27378 -5.07541,0.54757 -12.39127,0.85616c-0.87481,0 -1.33008,-2.46549 -1.33008,-7.36046c-1.61022,-20.30061 -2.41541,-31.25545 -2.41541,-32.86478c2.72948,-0.58237 11.20047,-2.01881 25.41188,-4.3126zM306.0967,99.34798l-3.3609,12.01645c-10.9212,-2.84134 -16.8018,-4.41585 -17.60579,-4.72444c0,0.20548 -1.19097,2.80786 -3.60638,7.77229h0.24667c4.8646,-0.30844 10.18565,-0.75511 15.89128,-1.40488l0.24341,0.47926c-0.9443,5.30563 -1.67881,8.90016 -2.16889,10.81691l-13.47572,-1.88208c0.14015,2.60133 0.20963,4.55393 0.20963,5.88933v1.1963l0.24459,0.47926c2.97496,-0.30755 9.03054,-0.78563 18.09588,-1.4366c0.31511,1.40385 0.8757,4.96253 1.68089,10.61157c-0.17496,0 -0.24445,0.06845 -0.24445,0.24015c-21.17632,-1.09629 -31.92272,-1.81452 -32.27249,-2.12311l-5.0766,-14.1375c3.85082,-17.56239 6.02193,-26.97661 6.51186,-28.27721c23.13664,2.67082 34.687,4.17689 34.687,4.4843zM346.11653,105.61318v0.20548c-1.92533,7.80594 -3.22163,12.25542 -3.816,13.3855l-7.38549,4.17571c8.75025,6.19675 13.15957,9.41526 13.23009,9.65437c-3.11512,1.4723 -7.87541,3.59439 -14.35039,6.36727c-7.49082,-10.03127 -11.23526,-15.13173 -11.23526,-15.37188h-0.42044c-0.17496,5.85453 -0.24563,9.89557 -0.24563,12.08608c-0.10533,1.02682 -0.3151,1.54075 -0.66489,1.54075h-10.53453c-0.48992,0 -1.22563,-6.36949 -2.24149,-19.10416c-0.45422,-2.77304 -1.1551,-9.2089 -2.03082,-19.30743c2.6957,-0.58252 10.9212,-2.01898 24.67721,-4.3812c0.52489,0.54771 5.53187,4.14207 15.01765,10.7495zM197.00626,96.09479l-2.16875,25.50537l9.76387,1.30058l2.87185,-22.55957l14.63084,3.1837l-3.14993,23.34624l-10.8169,12.42832l-21.38505,-3.69763l-8.36667,-9.03823l1.54074,-30.9827zM321.43916,104.72221c0,1.40281 0.06844,6.36846 0.2434,14.92742h0.21082c5.7046,-1.3006 8.54164,-2.19052 8.54164,-2.636l1.99496,-8.7643l-10.99083,-3.73141zM238.88201,118.86193c5.7403,-0.99201 8.60993,-1.57556 8.60993,-1.74623l1.99496,-8.42089c-2.83482,-1.13008 -6.36949,-2.50029 -10.6049,-4.10844z" fill="#ececec" stroke="url(#color-20)" stroke-width="11.00161"/><path d="M343.31074,150.79157c13.47261,3.92148 20.66685,6.26638 21.49159,7.12253c7.42342,11.3135 11.59378,17.84714 12.51082,19.56062c-4.81141,16.40742 -7.5615,24.61099 -8.24934,24.61099c-15.99232,4.01171 -24.3796,5.99586 -25.11188,5.99586c-13.24328,-8.29393 -20.25395,-12.93794 -21.12535,-13.88431c-0.45852,-15.46106 -0.6877,-23.97974 -0.6877,-25.60211c-0.22829,-0.45096 -0.31955,-0.81052 -0.31955,-1.03541c13.65512,-11.17883 20.71247,-16.76817 21.17099,-16.76817zM341.98184,171.84181c-0.22919,1.39748 -0.50518,6.49024 -0.9637,15.28061l11.77854,2.61438c2.84133,-8.7449 4.21482,-13.43334 4.21482,-14.02017c-9.34787,-2.79363 -14.34181,-4.19096 -15.02965,-4.19096z" fill="#9404e4" stroke="url(#color-21)" stroke-width="11.00161"/><path d="M316.82105,155.70506l-8.20252,52.8263l-14.80032,-1.30503l3.29764,-55.48836z" fill="#fbc211" stroke="url(#color-22)" stroke-width="11.00161"/><path d="M287.4453,164.35856v0.26948c-2.52088,10.27794 -4.21704,16.13795 -4.996,17.6255l-9.66845,5.49912c11.45587,8.15808 17.22995,12.39676 17.32122,12.71188c-4.07793,1.93852 -10.31053,4.73216 -18.78803,8.38297c-9.80638,-13.20728 -14.70905,-19.9224 -14.70905,-20.2375h-0.54979c-0.22933,7.70712 -0.32058,13.02491 -0.32058,15.90966c-0.1369,1.35289 -0.41185,2.02874 -0.87036,2.02874h-13.79409c-0.64104,0 -1.60386,-8.38415 -2.93275,-25.15218c-0.59541,-3.65097 -1.51141,-12.12521 -2.6566,-25.42166c3.52816,-0.76711 14.29719,-2.65883 32.30611,-5.7686c0.68785,0.72149 7.23986,5.45349 19.65839,14.15262zM255.13803,163.1873c0,1.8483 0.09243,8.38297 0.32059,19.65187h0.276c7.46919,-1.71245 11.18193,-2.88593 11.18193,-3.47157l2.61112,-11.53838l-14.38965,-4.91362z" fill="#0492d0" stroke="url(#color-23)" stroke-width="11.00161"/><path d="M214.85635,154.6218c0,0.22593 5.81868,17.44387 17.50372,51.61028c-1.23645,0.45096 -8.24712,1.3083 -21.12416,2.61541c-0.87036,-2.93052 -1.87764,-7.48105 -2.9772,-13.6572c-10.99839,0.99201 -16.49646,1.84607 -16.49646,2.61319l-2.97941,10.41379h-0.32059c-12.96831,-2.34371 -19.47588,-3.74208 -19.47588,-4.23867c10.3563,-31.8673 16.31513,-49.71546 17.82758,-53.59237c16.95395,2.38948 26.3018,3.83023 28.0424,4.23556zM197.7199,168.91145c-0.45852,2.2089 -1.14622,6.39987 -2.01659,12.66506h9.94328l-3.66505,-14.28847c-2.84133,0 -4.26163,0.54118 -4.26163,1.62341z" fill="#10d004" stroke="url(#color-24)" stroke-width="11.00161"/><path d="M130.76703,151.78254c3.34563,8.78935 5.36016,14.4255 6.09349,16.85943h0.276c0.77912,-1.668 3.84875,-6.31098 9.11868,-13.88432h0.27378c8.29497,0.49645 12.41958,1.08223 12.41958,1.6689l7.47022,50.25768c0,0.31615 -6.55424,1.03659 -19.61381,2.16327l-0.276,-0.54104c-0.7323,-15.2806 -1.09853,-24.60996 -1.09853,-27.9904h-0.27378l-11.32001,9.77927h-0.27392c-0.36726,-0.18029 -2.9326,-4.14638 -7.74401,-11.94372h-0.276c-5.91097,16.90284 -9.11956,25.87263 -9.66949,26.90922h-0.5486c-10.53986,-4.68756 -16.5421,-7.48223 -17.96343,-8.42859v-0.27052c13.06075,-30.24507 19.88773,-45.6168 20.43751,-46.20257c8.66105,0.58578 12.96831,1.12801 12.96831,1.62341z" fill="#e10404" stroke="url(#color-25)" stroke-width="11.00161"/><path d="M172.74308,100.57674c0,0.376 -1.75052,3.66075 -5.25037,9.89112h-0.24444c-0.28031,0 -4.30504,-1.84711 -12.07513,-5.57957l-3.9563,5.16994c6.68578,3.14993 14.84165,7.15512 24.39692,12.05024c-4.33971,7.56579 -7.42016,12.56402 -9.24016,15.06314l-19.77691,1.71141c-9.03053,-5.9566 -13.79186,-9.03704 -14.31676,-9.24238v-0.24015c0,-0.65096 1.82119,-3.56075 5.49705,-8.79912h0.45422c1.43527,0.85616 5.98594,3.28682 13.61588,7.29201l4.62015,-5.13305c-14.03645,-6.98445 -21.8055,-10.92223 -23.3104,-11.84697v-0.20533c4.44519,-8.49052 6.89438,-12.80313 7.27897,-12.90536c11.58625,-2.29379 18.06224,-3.45748 19.3575,-3.45748c8.4003,4.14311 12.70417,6.23156 12.94979,6.23156zM263.70166,105.36859c-2.10031,9.37927 -3.43022,14.0701 -3.98993,14.0701c-0.10533,0 -2.9043,2.29274 -8.40031,6.91394c-3.39556,-0.17067 -7.31586,-0.37496 -11.69157,-0.64874l-0.45422,12.32298c-0.94415,0.27378 -5.07541,0.54756 -12.39127,0.85615c-0.87481,0 -1.33008,-2.46548 -1.33008,-7.36045c-1.61022,-20.30061 -2.41542,-31.25544 -2.41542,-32.86478c2.72948,-0.58237 11.20047,-2.01881 25.41188,-4.3126zM302.3637,110.39969c-10.9212,-2.84134 -16.8018,-4.41585 -17.6058,-4.72444c0,0.20548 -1.19097,2.80786 -3.60637,7.7723h0.24666c4.8646,-0.30844 10.18565,-0.75511 15.89128,-1.40489l0.2434,0.47926c-0.9443,5.30563 -1.67881,8.90016 -2.1689,10.8169l-13.47572,-1.88208c0.14015,2.60133 0.20963,4.55393 0.20963,5.88934v1.1963l0.24459,0.47926c2.97496,-0.30755 9.03053,-0.78563 18.09588,-1.4366c0.31511,1.40385 0.8757,4.96253 1.68088,10.61157c-0.17496,0 -0.24444,0.06844 -0.24444,0.24016c-21.17632,-1.09629 -31.9227,-1.81452 -32.27248,-2.12311l-5.0766,-14.1375c3.85082,-17.56239 6.02193,-26.97663 6.51186,-28.27722c13.07318,1.50912 34.68701,3.98664 34.68701,4.4843zM346.1906,105.09465v0.20549c-1.92533,7.80594 -3.22163,12.25541 -3.816,13.38549l-7.3855,4.17571c8.75025,6.19675 13.15957,9.41527 13.23009,9.65439c-3.11512,1.4723 -7.87541,3.59437 -14.35039,6.36727c-7.49082,-10.03127 -11.23528,-15.13172 -11.23528,-15.37187h-0.42044c-0.17496,5.85453 -0.24563,9.89557 -0.24563,12.08608c-0.10533,1.02682 -0.31511,1.54075 -0.6649,1.54075h-10.53452c-0.48992,0 -1.22563,-6.36949 -2.24149,-19.10416c-0.45422,-2.77304 -1.15512,-9.20891 -2.03082,-19.30743c2.6957,-0.58252 10.9212,-2.01896 24.67721,-4.38119c0.52489,0.54771 5.53187,4.14207 15.01765,10.74949zM197.08033,95.57627l-2.16875,25.50536l9.76387,1.3006l2.87185,-22.55957l14.63084,3.1837l-3.14993,23.34625l-10.8169,12.42832l-21.38505,-3.69764l-8.36667,-9.03823l1.54074,-30.9827zM321.51319,104.2037c0,1.40281 0.06844,6.36846 0.2434,14.92742h0.21081c5.7046,-1.3006 8.54164,-2.19052 8.54164,-2.636l1.99496,-8.7643l-10.99083,-3.73142zM238.95606,118.34341c5.7403,-0.99201 8.60994,-1.57556 8.60994,-1.74623l1.99496,-8.42089c-2.83482,-1.13008 -6.36949,-2.50029 -10.6049,-4.10844z" fill="url(#color-26)" stroke="none" stroke-width="1.19633"/><path d="M130.91519,151.18993c3.34563,8.78935 5.36016,14.4255 6.09349,16.85943h0.276c0.77912,-1.668 3.84874,-6.31098 9.11867,-13.88431h0.27378c8.29497,0.49645 12.41958,1.08222 12.41958,1.66888l7.47023,50.2577c0,0.31615 -6.55424,1.03659 -19.61381,2.16326l-0.276,-0.54103c-0.7323,-15.2806 -1.09853,-24.60996 -1.09853,-27.9904h-0.27378l-11.32002,9.77927h-0.27393c-0.36726,-0.18029 -2.9326,-4.14637 -7.74401,-11.94371h-0.276c-5.91097,16.90284 -9.11956,25.87263 -9.6695,26.90922h-0.5486c-10.53986,-4.68756 -16.5421,-7.48223 -17.96343,-8.42859v-0.27052c13.06075,-30.24507 19.88773,-45.61681 20.43751,-46.20258c8.66105,0.58578 12.96831,1.128 12.96831,1.62341z" fill="url(#color-27)" stroke="none" stroke-width="1.57068"/><path d="M215.00451,154.0292c0,0.22593 5.81868,17.44387 17.50373,51.61028c-1.23645,0.45096 -8.24712,1.3083 -21.12417,2.61541c-0.87036,-2.93052 -1.87764,-7.48105 -2.9772,-13.6572c-10.99839,0.99201 -16.49646,1.84607 -16.49646,2.61319l-2.97941,10.4138h-0.32058c-12.96831,-2.34371 -19.47589,-3.74207 -19.47589,-4.23867c10.3563,-31.8673 16.31513,-49.71546 17.82758,-53.59237c16.95395,2.38948 26.3018,3.83023 28.0424,4.23556zM197.86801,168.31883c-0.45852,2.2089 -1.14622,6.39986 -2.01659,12.66505h9.94328l-3.66505,-14.28847c-2.84133,0 -4.26163,0.5412 -4.26163,1.62341z" fill="url(#color-28)" stroke="none" stroke-width="1.57068"/><path d="M287.59344,163.76596v0.26949c-2.52088,10.27794 -4.21704,16.13795 -4.99601,17.6255l-9.66845,5.49912c11.45587,8.15808 17.22995,12.39676 17.32121,12.71188c-4.07793,1.93852 -10.31052,4.73216 -18.78801,8.38297c-9.80638,-13.20728 -14.70905,-19.9224 -14.70905,-20.23751h-0.54978c-0.22933,7.70712 -0.32058,13.02491 -0.32058,15.90964c-0.1369,1.35289 -0.41185,2.02875 -0.87038,2.02875h-13.79409c-0.64104,0 -1.60386,-8.38415 -2.93275,-25.15218c-0.59541,-3.65097 -1.51141,-12.12521 -2.65659,-25.42166c3.52816,-0.76711 14.29719,-2.65883 32.30611,-5.7686c0.68785,0.72149 7.23987,5.45349 19.6584,14.15262zM255.28616,162.59469c0,1.8483 0.09244,8.38297 0.32059,19.65187h0.276c7.46919,-1.71245 11.18193,-2.88593 11.18193,-3.47157l2.61112,-11.53838l-14.38965,-4.91364z" fill="url(#color-29)" stroke="none" stroke-width="1.57068"/><path d="M316.96918,155.11248l-8.20252,52.8263l-14.80031,-1.30504l3.29763,-55.48836z" fill="url(#color-30)" stroke="none" stroke-width="1.57068"/><path d="M343.45891,150.19897c13.47261,3.92148 20.66684,6.26638 21.49159,7.12252c7.42342,11.3135 11.5938,17.84714 12.51083,19.56062c-4.81141,16.40742 -7.5615,24.61099 -8.24934,24.61099c-15.99232,4.01171 -24.3796,5.99586 -25.11188,5.99586c-13.24328,-8.29393 -20.25395,-12.93794 -21.12535,-13.88432c-0.45852,-15.46106 -0.68771,-23.97973 -0.68771,-25.60211c-0.22829,-0.45096 -0.31955,-0.81052 -0.31955,-1.0354c13.65512,-11.17883 20.71247,-16.76817 21.17098,-16.76817zM342.13,171.24924c-0.22919,1.39748 -0.50519,6.49023 -0.9637,15.2806l11.77853,2.61437c2.84133,-8.7449 4.21482,-13.43334 4.21482,-14.02017c-9.34787,-2.79363 -14.34181,-4.19096 -15.02965,-4.19096z" fill="url(#color-31)" stroke="none" stroke-width="1.57068"/></g></g></g></svg>