<svg version="1.1" xmlns="http://www.w3.org/2000/svg" xmlns:xlink="http://www.w3.org/1999/xlink" width="66.32349" height="26.2205" viewBox="0,0,66.32349,26.2205"><defs><linearGradient x1="240.00002" y1="166.88975" x2="240.00002" y2="193.11025" gradientUnits="userSpaceOnUse" id="color-1"><stop offset="0" stop-color="#a7a7a7"/><stop offset="1" stop-color="#7c7c7c"/></linearGradient><linearGradient x1="226.80558" y1="168.84696" x2="226.80558" y2="179.69703" gradientUnits="userSpaceOnUse" id="color-2"><stop offset="0" stop-color="#00395c"/><stop offset="1" stop-color="#003197"/></linearGradient><linearGradient x1="237.10182" y1="169.18216" x2="237.10182" y2="179.35132" gradientUnits="userSpaceOnUse" id="color-3"><stop offset="0" stop-color="#00395c"/><stop offset="1" stop-color="#003197"/></linearGradient><linearGradient x1="244.62751" y1="169.77609" x2="244.62751" y2="178.89235" gradientUnits="userSpaceOnUse" id="color-4"><stop offset="0" stop-color="#00395c"/><stop offset="1" stop-color="#003197"/></linearGradient><linearGradient x1="252.51853" y1="168.52922" x2="252.51853" y2="179.50041" gradientUnits="userSpaceOnUse" id="color-5"><stop offset="0" stop-color="#00395c"/><stop offset="1" stop-color="#003197"/></linearGradient><linearGradient x1="226.80557" y1="168.84698" x2="226.80557" y2="179.69704" gradientUnits="userSpaceOnUse" id="color-6"><stop offset="0" stop-color="#5276bd"/><stop offset="1" stop-color="#69d9ff"/></linearGradient><linearGradient x1="237.10181" y1="169.18217" x2="237.10181" y2="179.35131" gradientUnits="userSpaceOnUse" id="color-7"><stop offset="0" stop-color="#5276bd"/><stop offset="1" stop-color="#69d9ff"/></linearGradient><linearGradient x1="244.62753" y1="169.77609" x2="244.62753" y2="178.89236" gradientUnits="userSpaceOnUse" id="color-8"><stop offset="0" stop-color="#5276bd"/><stop offset="1" stop-color="#69d9ff"/></linearGradient><linearGradient x1="252.51853" y1="168.52922" x2="252.51853" y2="179.5004" gradientUnits="userSpaceOnUse" id="color-9"><stop offset="0" stop-color="#5276bd"/><stop offset="1" stop-color="#69d9ff"/></linearGradient><linearGradient x1="245.24356" y1="180.6415" x2="245.24356" y2="191.47079" gradientUnits="userSpaceOnUse" id="color-10"><stop offset="0" stop-color="#00395c"/><stop offset="1" stop-color="#003196"/></linearGradient><linearGradient x1="234.70592" y1="181.46361" x2="234.70592" y2="190.74043" gradientUnits="userSpaceOnUse" id="color-11"><stop offset="0" stop-color="#00395c"/><stop offset="1" stop-color="#003196"/></linearGradient><linearGradient x1="245.24357" y1="180.6415" x2="245.24357" y2="191.4708" gradientUnits="userSpaceOnUse" id="color-12"><stop offset="0" stop-color="#5276bd"/><stop offset="1" stop-color="#69d9ff"/></linearGradient><linearGradient x1="234.70591" y1="181.46361" x2="234.70591" y2="190.74043" gradientUnits="userSpaceOnUse" id="color-13"><stop offset="0" stop-color="#5276bd"/><stop offset="1" stop-color="#69d9ff"/></linearGradient></defs><g transform="translate(-206.83828,-166.88975)"><g data-paper-data="{&quot;isPaintingLayer&quot;:true}" fill-rule="nonzero" stroke-linecap="butt" stroke-linejoin="miter" stroke-miterlimit="10" stroke-dasharray="" stroke-dashoffset="0" style="mix-blend-mode: normal"><path d="M207.98858,168.24891c0,0 19.17748,-1.35916 31.45205,-1.35916c12.80097,0 32.80089,1.35916 32.80089,1.35916c0,0 0.92025,7.32013 0.92025,11.46167c0,5.03048 -0.92025,12.04051 -0.92025,12.04051c0,0 -19.80915,1.35916 -32.34076,1.35916c-12.54392,0 -31.91217,-1.35916 -31.91217,-1.35916c0,0 -1.15031,-7.41612 -1.15031,-12.3803c0,-4.20785 1.15031,-11.12188 1.15031,-11.12188z" fill="#ffffff" stroke="url(#color-1)" stroke-width="0"/><g fill="none" stroke-width="1.5"><path d="M231.53466,169.10929l-0.02007,8.0261l-3.32712,2.56164l-4.23596,-0.84647l-1.875,-3.4289l3.71058,-1.57326l0.5648,2.78312l1.91586,-1.08874l-1.25001,-6.69582z" stroke="url(#color-2)"/><path d="M239.55451,169.78709l2.71001,2.75517l-0.55978,4.9054l-4.36784,1.90367l-4.43449,-1.74742l-0.9633,-4.86024l3.2705,-3.5615zM235.56801,173.21386l0.15625,2.28498l1.8148,0.64937l1.61267,-1.5453l-1.12027,-2.12802z" stroke="url(#color-3)"/><path d="M242.97362,169.77609l3.85178,0.80634l-1.47219,8.12788l-2.9236,0.18205z" stroke="url(#color-4)"/><path d="M250.78401,168.87181l3.48911,4.92189l-0.3426,-4.92189l3.99298,-0.3426l-0.02006,9.60007l-3.04545,0.88733l-3.16657,-3.95284l0.24226,3.97291l-3.30777,0.46373l-1.51233,-9.49901z" stroke="url(#color-5)"/></g><g stroke="none" stroke-width="1"><path d="M231.53466,169.10929l-0.02007,8.0261l-3.32712,2.56164l-4.23596,-0.84647l-1.875,-3.4289l3.71058,-1.57326l0.5648,2.78312l1.91586,-1.08874l-1.25001,-6.69582z" fill="url(#color-6)"/><path d="M239.55451,169.78709l2.71001,2.75517l-0.55978,4.9054l-4.36784,1.90367l-4.43449,-1.74742l-0.9633,-4.86024l3.2705,-3.5615zM235.56801,173.21386l0.15625,2.28498l1.8148,0.64937l1.61267,-1.5453l-1.12027,-2.12802z" fill="url(#color-7)"/><path d="M242.97362,169.77609l3.85178,0.80634l-1.47219,8.12788l-2.9236,0.18205z" fill="url(#color-8)"/><path d="M250.78401,168.87181l3.48911,4.92189l-0.3426,-4.92189l3.99298,-0.3426l-0.02006,9.60007l-3.04545,0.88733l-3.16657,-3.95284l0.24226,3.97291l-3.30777,0.46373l-1.51233,-9.49901z" fill="url(#color-9)"/></g><g fill="none" stroke-width="1.5"><path d="M244.73897,188.58733l0.706,-1.06938l-5.38419,-2.72219l2.05634,-3.50918l4.57784,-0.64507l3.16657,1.77394l-1.43133,2.70284l-2.82397,-1.83559l-0.66514,1.12959l5.5261,2.64192l-1.97678,3.93349l-5.28384,0.48308l-3.18664,-2.27853l1.47219,-2.39965z" stroke="url(#color-10)"/><path d="M234.27193,181.98827l-0.70599,5.96904l2.13804,-0.32254l0.26233,-4.69897l3.9127,0.58486l-0.88733,5.16342l-1.87572,2.05634l-5.36482,-0.02007l-2.21833,-1.85493l0.38274,-7.40181z" stroke="url(#color-11)"/></g><g stroke="none" stroke-width="1"><path d="M244.73897,188.58733l0.706,-1.06938l-5.38419,-2.72219l2.05634,-3.50918l4.57784,-0.64507l3.16657,1.77394l-1.43134,2.70284l-2.82397,-1.83559l-0.66514,1.12959l5.5261,2.64192l-1.97678,3.93349l-5.28384,0.48308l-3.18664,-2.27853l1.47219,-2.39965z" fill="url(#color-12)"/><path d="M234.27193,181.98827l-0.70599,5.96904l2.13804,-0.32254l0.26233,-4.69897l3.9127,0.58486l-0.88733,5.16342l-1.87572,2.05634l-5.36482,-0.02007l-2.21833,-1.85493l0.38274,-7.40181z" fill="url(#color-13)"/></g></g></g></svg>