<svg version="1.1" xmlns="http://www.w3.org/2000/svg" xmlns:xlink="http://www.w3.org/1999/xlink" width="479.65457" height="363.48648" viewBox="0,0,479.65457,363.48648"><defs><linearGradient x1="62.54682" y1="19.28309" x2="62.54682" y2="36.65847" gradientUnits="userSpaceOnUse" id="color-1"><stop offset="0" stop-color="#ffffff"/><stop offset="1" stop-color="#d9d9d9"/></linearGradient><linearGradient x1="61.76052" y1="21.20982" x2="61.76052" y2="34.39181" gradientUnits="userSpaceOnUse" id="color-2"><stop offset="0" stop-color="#ff0000"/><stop offset="1" stop-color="#ffc300"/></linearGradient><linearGradient x1="49.08488" y1="19.19082" x2="49.08488" y2="36.26745" gradientUnits="userSpaceOnUse" id="color-3"><stop offset="0" stop-color="#ffffff"/><stop offset="1" stop-color="#d9d9d9"/></linearGradient><linearGradient x1="48.87766" y1="21.20982" x2="48.87766" y2="34.32084" gradientUnits="userSpaceOnUse" id="color-4"><stop offset="0" stop-color="#ff0000"/><stop offset="1" stop-color="#ffc300"/></linearGradient><linearGradient x1="37.39852" y1="19.28663" x2="37.39852" y2="36.32918" gradientUnits="userSpaceOnUse" id="color-5"><stop offset="0" stop-color="#ffffff"/><stop offset="1" stop-color="#d9d9d9"/></linearGradient><linearGradient x1="37.33712" y1="21.20982" x2="37.33712" y2="34.39181" gradientUnits="userSpaceOnUse" id="color-6"><stop offset="0" stop-color="#ff0000"/><stop offset="1" stop-color="#ffc300"/></linearGradient><linearGradient x1="24.15301" y1="19.22063" x2="24.15301" y2="36.40228" gradientUnits="userSpaceOnUse" id="color-7"><stop offset="0" stop-color="#ffffff"/><stop offset="1" stop-color="#d9d9d9"/></linearGradient><linearGradient x1="24.11682" y1="21.25028" x2="24.11682" y2="34.39181" gradientUnits="userSpaceOnUse" id="color-8"><stop offset="0" stop-color="#ff0000"/><stop offset="1" stop-color="#ffc300"/></linearGradient><linearGradient x1="12.32081" y1="19.28663" x2="12.32081" y2="36.32918" gradientUnits="userSpaceOnUse" id="color-9"><stop offset="0" stop-color="#ffffff"/><stop offset="1" stop-color="#d9d9d9"/></linearGradient><linearGradient x1="12.25907" y1="21.20982" x2="12.25907" y2="34.39181" gradientUnits="userSpaceOnUse" id="color-10"><stop offset="0" stop-color="#ff0000"/><stop offset="1" stop-color="#ffc300"/></linearGradient><linearGradient x1="128.40599" y1="19.30508" x2="128.40599" y2="36.17306" gradientUnits="userSpaceOnUse" id="color-11"><stop offset="0" stop-color="#ffffff"/><stop offset="1" stop-color="#d9d9d9"/></linearGradient><linearGradient x1="128.33396" y1="21.34182" x2="128.33396" y2="34.21936" gradientUnits="userSpaceOnUse" id="color-12"><stop offset="0" stop-color="#ff0000"/><stop offset="1" stop-color="#ffc300"/></linearGradient><linearGradient x1="119.7105" y1="19.35405" x2="119.7105" y2="36.28306" gradientUnits="userSpaceOnUse" id="color-13"><stop offset="0" stop-color="#ffffff"/><stop offset="1" stop-color="#d9d9d9"/></linearGradient><linearGradient x1="119.63989" y1="21.55401" x2="119.63989" y2="34.32084" gradientUnits="userSpaceOnUse" id="color-14"><stop offset="0" stop-color="#ff0000"/><stop offset="1" stop-color="#ffc300"/></linearGradient><linearGradient x1="109.821" y1="19.21353" x2="109.821" y2="36.58892" gradientUnits="userSpaceOnUse" id="color-15"><stop offset="0" stop-color="#ffffff"/><stop offset="1" stop-color="#d9d9d9"/></linearGradient><linearGradient x1="109.03469" y1="21.14027" x2="109.03469" y2="34.32226" gradientUnits="userSpaceOnUse" id="color-16"><stop offset="0" stop-color="#ff0000"/><stop offset="1" stop-color="#ffc300"/></linearGradient><linearGradient x1="95.82043" y1="19.22063" x2="95.82043" y2="36.40228" gradientUnits="userSpaceOnUse" id="color-17"><stop offset="0" stop-color="#ffffff"/><stop offset="1" stop-color="#d9d9d9"/></linearGradient><linearGradient x1="95.78423" y1="21.25028" x2="95.78423" y2="34.39181" gradientUnits="userSpaceOnUse" id="color-18"><stop offset="0" stop-color="#ff0000"/><stop offset="1" stop-color="#ffc300"/></linearGradient><linearGradient x1="81.5083" y1="19.2249" x2="81.5083" y2="36.41293" gradientUnits="userSpaceOnUse" id="color-19"><stop offset="0" stop-color="#ffffff"/><stop offset="1" stop-color="#d9d9d9"/></linearGradient><linearGradient x1="81.65485" y1="21.19988" x2="81.65485" y2="34.39181" gradientUnits="userSpaceOnUse" id="color-20"><stop offset="0" stop-color="#ff0000"/><stop offset="1" stop-color="#ffc300"/></linearGradient><linearGradient x1="41.47862" y1="39.2177" x2="41.47862" y2="52.42609" gradientUnits="userSpaceOnUse" id="color-21"><stop offset="0" stop-color="#131837"/><stop offset="1" stop-color="#242f70"/></linearGradient><linearGradient x1="41.40641" y1="40.41341" x2="41.40641" y2="51.07208" gradientUnits="userSpaceOnUse" id="color-22"><stop offset="0" stop-color="#721987"/><stop offset="1" stop-color="#f435a0"/></linearGradient><linearGradient x1="31.55375" y1="38.14163" x2="31.55375" y2="50.92284" gradientUnits="userSpaceOnUse" id="color-23"><stop offset="0" stop-color="#131837"/><stop offset="1" stop-color="#242f70"/></linearGradient><linearGradient x1="31.41056" y1="39.3331" x2="31.41056" y2="49.66428" gradientUnits="userSpaceOnUse" id="color-24"><stop offset="0" stop-color="#721987"/><stop offset="1" stop-color="#f435a0"/></linearGradient><linearGradient x1="21.96633" y1="39.27329" x2="21.96633" y2="53.11125" gradientUnits="userSpaceOnUse" id="color-25"><stop offset="0" stop-color="#131837"/><stop offset="1" stop-color="#242f70"/></linearGradient><linearGradient x1="21.79655" y1="40.6424" x2="21.79655" y2="51.74998" gradientUnits="userSpaceOnUse" id="color-26"><stop offset="0" stop-color="#721987"/><stop offset="1" stop-color="#f435a0"/></linearGradient><linearGradient x1="11.64813" y1="37.6208" x2="11.64813" y2="52.16265" gradientUnits="userSpaceOnUse" id="color-27"><stop offset="0" stop-color="#131837"/><stop offset="1" stop-color="#242f70"/></linearGradient><linearGradient x1="11.85115" y1="38.99234" x2="11.85115" y2="50.66303" gradientUnits="userSpaceOnUse" id="color-28"><stop offset="0" stop-color="#721987"/><stop offset="1" stop-color="#f435a0"/></linearGradient><linearGradient x1="128.21009" y1="38.45883" x2="128.21009" y2="53.30097" gradientUnits="userSpaceOnUse" id="color-29"><stop offset="0" stop-color="#131837"/><stop offset="1" stop-color="#242f70"/></linearGradient><linearGradient x1="128.13518" y1="39.90166" x2="128.13518" y2="51.85391" gradientUnits="userSpaceOnUse" id="color-30"><stop offset="0" stop-color="#721987"/><stop offset="1" stop-color="#f435a0"/></linearGradient><linearGradient x1="117.73028" y1="37.43048" x2="117.73028" y2="50.85457" gradientUnits="userSpaceOnUse" id="color-31"><stop offset="0" stop-color="#131837"/><stop offset="1" stop-color="#242f70"/></linearGradient><linearGradient x1="117.65385" y1="38.7561" x2="117.65385" y2="49.66853" gradientUnits="userSpaceOnUse" id="color-32"><stop offset="0" stop-color="#721987"/><stop offset="1" stop-color="#f435a0"/></linearGradient><linearGradient x1="109.9769" y1="39.72161" x2="109.9769" y2="52.14996" gradientUnits="userSpaceOnUse" id="color-33"><stop offset="0" stop-color="#131837"/><stop offset="1" stop-color="#242f70"/></linearGradient><linearGradient x1="110.04004" y1="40.90221" x2="110.04004" y2="50.86725" gradientUnits="userSpaceOnUse" id="color-34"><stop offset="0" stop-color="#721987"/><stop offset="1" stop-color="#f435a0"/></linearGradient><linearGradient x1="103.21743" y1="38.6842" x2="103.21743" y2="53.48041" gradientUnits="userSpaceOnUse" id="color-35"><stop offset="0" stop-color="#131837"/><stop offset="1" stop-color="#242f70"/></linearGradient><linearGradient x1="103.04976" y1="40.07265" x2="103.04976" y2="52.12097" gradientUnits="userSpaceOnUse" id="color-36"><stop offset="0" stop-color="#721987"/><stop offset="1" stop-color="#f435a0"/></linearGradient><linearGradient x1="94.1611" y1="38.33678" x2="94.1611" y2="51.16272" gradientUnits="userSpaceOnUse" id="color-37"><stop offset="0" stop-color="#131837"/><stop offset="1" stop-color="#242f70"/></linearGradient><linearGradient x1="94.02908" y1="39.54035" x2="94.02908" y2="49.89208" gradientUnits="userSpaceOnUse" id="color-38"><stop offset="0" stop-color="#721987"/><stop offset="1" stop-color="#f435a0"/></linearGradient><linearGradient x1="84.10603" y1="40.1663" x2="84.10603" y2="52.75296" gradientUnits="userSpaceOnUse" id="color-39"><stop offset="0" stop-color="#131837"/><stop offset="1" stop-color="#242f70"/></linearGradient><linearGradient x1="83.9296" y1="41.35596" x2="83.9296" y2="51.51979" gradientUnits="userSpaceOnUse" id="color-40"><stop offset="0" stop-color="#721987"/><stop offset="1" stop-color="#f435a0"/></linearGradient><linearGradient x1="75.43005" y1="38.03106" x2="75.43005" y2="51.25636" gradientUnits="userSpaceOnUse" id="color-41"><stop offset="0" stop-color="#131837"/><stop offset="1" stop-color="#242f70"/></linearGradient><linearGradient x1="75.35875" y1="39.231" x2="75.35875" y2="49.90536" gradientUnits="userSpaceOnUse" id="color-42"><stop offset="0" stop-color="#721987"/><stop offset="1" stop-color="#f435a0"/></linearGradient><linearGradient x1="59.81423" y1="39.39473" x2="59.81423" y2="53.04237" gradientUnits="userSpaceOnUse" id="color-43"><stop offset="0" stop-color="#131837"/><stop offset="1" stop-color="#242f70"/></linearGradient><linearGradient x1="59.90244" y1="40.65449" x2="59.90244" y2="51.83155" gradientUnits="userSpaceOnUse" id="color-44"><stop offset="0" stop-color="#721987"/><stop offset="1" stop-color="#f435a0"/></linearGradient><linearGradient x1="52.36447" y1="38.53799" x2="52.36447" y2="51.79712" gradientUnits="userSpaceOnUse" id="color-45"><stop offset="0" stop-color="#131837"/><stop offset="1" stop-color="#242f70"/></linearGradient><linearGradient x1="52.3255" y1="40.04183" x2="52.3255" y2="50.45519" gradientUnits="userSpaceOnUse" id="color-46"><stop offset="0" stop-color="#721987"/><stop offset="1" stop-color="#f435a0"/></linearGradient></defs><g transform="translate(-0.79334,3.41019)"><g data-paper-data="{&quot;isPaintingLayer&quot;:true}" fill-rule="nonzero" stroke-linejoin="miter" stroke-dasharray="" stroke-dashoffset="0" style="mix-blend-mode: normal"><text transform="translate(1,87.85714) scale(0.41333,0.41333)" font-size="40" xml:space="preserve" fill="#000000" fill-rule="nonzero" stroke="none" stroke-width="1" stroke-linecap="butt" stroke-linejoin="miter" stroke-miterlimit="10" stroke-dasharray="" stroke-dashoffset="0" font-family="Sans Serif" font-weight="normal" text-anchor="start" style="mix-blend-mode: normal"><tspan x="0" dy="0"> </tspan><tspan x="0" dy="46.150000000000006px"> </tspan><tspan x="0" dy="46.150000000000006px"> </tspan><tspan x="0" dy="46.150000000000006px"> </tspan><tspan x="0" dy="46.150000000000006px"> </tspan><tspan x="0" dy="46.150000000000006px">0.9.1 -</tspan><tspan x="0" dy="46.150000000000006px">0.9.2 -</tspan><tspan x="0" dy="46.150000000000006px">0.9.3 -</tspan><tspan x="0" dy="46.150000000000006px">0.9.4 -</tspan><tspan x="0" dy="46.150000000000006px">0.9.5 -</tspan><tspan x="0" dy="46.150000000000006px">0.9.6 -</tspan><tspan x="0" dy="46.150000000000006px">0.9.7 -</tspan><tspan x="0" dy="46.150000000000006px">0.9.8 -</tspan><tspan x="0" dy="46.150000000000006px">0.9.9 -</tspan><tspan x="0" dy="46.150000000000006px">1.0.0 - ScralaxyTeam</tspan></text><path d="M141.57278,4.63208v62.5" fill="none" stroke="#000000" stroke-width="2.5" stroke-linecap="round" stroke-miterlimit="10"/><text transform="translate(146,32.00708) scale(0.81419,0.81419)" font-size="40" xml:space="preserve" fill="#000000" fill-rule="nonzero" stroke="none" stroke-width="1" stroke-linecap="butt" stroke-linejoin="miter" stroke-miterlimit="10" stroke-dasharray="" stroke-dashoffset="0" font-family="Sans Serif" font-weight="normal" text-anchor="start" style="mix-blend-mode: normal"><tspan x="0" dy="0">Dibs List</tspan></text><text transform="translate(149,49.50708) scale(0.42416,0.42416)" font-size="40" xml:space="preserve" fill="#000000" fill-rule="nonzero" stroke="none" stroke-width="1" stroke-linecap="butt" stroke-linejoin="miter" stroke-miterlimit="10" stroke-dasharray="" stroke-dashoffset="0" font-family="Sans Serif" font-weight="normal" text-anchor="start" style="mix-blend-mode: normal"><tspan x="0" dy="0">You must be a team member to call dibs.</tspan></text><text transform="translate(150.40551,65.85438) scale(0.30573,0.32548)" font-size="40" xml:space="preserve" fill="#000000" fill-rule="nonzero" stroke="none" stroke-width="1" stroke-linecap="butt" stroke-linejoin="miter" stroke-miterlimit="10" stroke-dasharray="" stroke-dashoffset="0" font-family="Sans Serif" font-weight="normal" text-anchor="start" style="mix-blend-mode: normal"><tspan x="0" dy="0">Sub-versions (e.g. 0.1.0.5) will not be added to this list.</tspan></text><g stroke-width="1" stroke-linecap="butt" stroke-miterlimit="4"><g><path d="M69.29465,23.66454l-1.63293,5.94911l-0.39599,0.22851l4.08553,3.048l-8.30518,3.76831l-1.30862,-1.80254l-0.0809,0.83527h-6.31883l-1.59532,-14.67156l9.56554,-1.73654z" fill="url(#color-1)" stroke="#686868"/><path d="M67.2118,24.39124l-1.10495,4.02236l-2.1375,1.23624l3.83005,2.85711l-4.15436,1.88486l-3.25239,-4.4801l-0.38463,3.96275h-3.05012l-1.23624,-11.36809l7.14346,-1.29655zM60.33161,28.33271l2.21486,-0.79482l0.43857,-2.42279l-2.65343,-0.59043z" fill="url(#color-2)" stroke="#511100"/></g><g><path d="M57.14168,21.00898l-2.00125,7.31733l-1.07656,-0.29522l-0.25193,1.2852l1.0354,-0.08445l1.08934,7.0356l-12.86618,-0.76218l-2.0424,-5.8171l2.36389,-10.49733z" fill="url(#color-3)" stroke="#686868"/><path d="M54.84024,22.53689l-0.97224,3.55683l-5.0968,-1.39875l-1.0432,2.30001h0.07096l4.59932,-0.41515l0.07096,0.14193l-0.62806,3.20129l-3.90101,-0.55709l0.06102,2.09705l0.07097,0.14194l5.23802,-0.42509l0.48683,3.14097l-9.41296,-0.55779l-1.469,-4.18417l1.88486,-8.36905z" fill="url(#color-4)" stroke="#511100"/></g><g><path d="M45.30806,23.75325l-1.63932,5.91078l-3.41419,2.87413l-2.25318,-0.12845l-0.12348,3.42554l-6.9916,0.49393l-1.39733,-15.34645l9.77134,-1.6961z" fill="url(#color-5)" stroke="#686868"/><path d="M43.22377,24.47215l-1.15533,4.16429l-2.4313,2.04667l-3.38438,-0.19231l-0.132,3.64767l-3.58664,0.25335l-1.08365,-11.9053l7.35565,-1.27668zM36.06044,28.31212l2.21415,-0.79482l0.43858,-2.42279l-2.65272,-0.59043z" fill="url(#color-6)" stroke="#511100"/></g><g><path d="M28.62531,20.57538l4.92222,14.75459l-8.52234,1.0723l-0.64579,-3.01252l-0.79837,0.12845l-0.8083,2.87058l-8.01421,-1.74435l5.04571,-15.4238z" fill="url(#color-7)" stroke="#686868"/><path d="M27.25283,22.20263l3.8705,11.60085l-4.671,0.58831l-0.65856,-3.07l-3.64767,0.5876l-0.65857,2.34047l-4.3772,-0.95237l3.94147,-12.04723zM23.46322,25.41457l-0.44567,2.84718h2.19853l-0.81044,-3.21194z" fill="url(#color-8)" stroke="#511100"/></g><g><path d="M20.23071,23.75325l-1.64003,5.91078l-3.41419,2.87413l-2.25247,-0.12845l-0.12419,3.42554l-6.99088,0.49393l-1.39803,-15.34645l9.77205,-1.6961z" fill="url(#color-9)" stroke="#686868"/><path d="M18.14572,24.47215l-1.15533,4.16429l-2.4313,2.04667l-3.38438,-0.19231l-0.13129,3.64767l-3.58663,0.25335l-1.08436,-11.9053l7.35565,-1.27668zM10.98239,28.31212l2.21415,-0.79482l0.43857,-2.42279l-2.65272,-0.59043z" fill="url(#color-10)" stroke="#511100"/></g><g><path d="M132.8939,21.42342l3.56818,5.67304l-2.40788,7.30243l-7.3074,1.77416l-6.10594,-4.07914l-0.29097,-7.82687l6.162,-4.96196z" fill="url(#color-11)" stroke="#686868"/><path d="M131.7031,22.94211l2.76555,4.39778l-1.82383,5.53182l-5.55169,1.34765l-4.671,-3.1211l-0.22283,-5.98743l4.68093,-3.76902zM126.44449,29.5079l2.60375,0.5876l0.9325,-3.1509l-3.32335,-0.94244z" fill="url(#color-12)" stroke="#511100"/></g><g><path d="M124.24027,21.01254l-2.33266,15.27052l-6.72688,-0.60464l0.95449,-16.32437z" fill="url(#color-13)" stroke="#686868"/><path d="M122.18296,22.44605l-1.81318,11.87478l-3.27296,-0.2938l0.72953,-12.47303z" fill="url(#color-14)" stroke="#511100"/></g><g><path d="M116.56882,23.595l-1.63293,5.94911l-0.39599,0.22851l4.08553,3.04801l-8.30518,3.76831l-1.30862,-1.80254l-0.0809,0.83527h-6.31883l-1.59532,-14.67156l9.56554,-1.73654z" fill="url(#color-15)" stroke="#686868"/><path d="M114.48597,24.32169l-1.10495,4.02237l-2.1375,1.23624l3.83005,2.8571l-4.15436,1.88486l-3.25239,-4.4801l-0.38463,3.96275h-3.05013l-1.23624,-11.36809l7.14346,-1.29655zM107.60578,28.26315l2.21486,-0.79482l0.43858,-2.42279l-2.65343,-0.59043z" fill="url(#color-16)" stroke="#511100"/></g><g><path d="M100.29272,20.57538l4.92222,14.75459l-8.52163,1.0723l-0.64651,-3.01252l-0.79837,0.12845l-0.8076,2.87058l-8.01493,-1.74435l5.04641,-15.4238z" fill="url(#color-17)" stroke="#686868"/><path d="M98.92023,22.20263l3.8705,11.60085l-4.671,0.58831l-0.65856,-3.07l-3.64767,0.5876l-0.65857,2.34047l-4.3772,-0.95237l3.94147,-12.04723zM95.13063,25.41457l-0.44567,2.84718h2.19853l-0.81044,-3.21194z" fill="url(#color-18)" stroke="#511100"/></g><g><path d="M82.74418,19.90333l0.50741,1.42713l0.67843,-1.0503l5.30685,0.70824l2.12189,14.5126l-8.12918,0.91192l-0.21929,-4.63055l-1.29229,1.13475l-0.97508,-1.4761l-1.75854,4.58585l-7.32655,-3.49509l5.75607,-13.30688z" fill="url(#color-19)" stroke="#686868"/><path d="M81.40646,21.56465l1.34765,3.78889h0.06103l2.01615,-3.12039l2.80671,0.3747l1.65139,11.29711l-4.33675,0.48683l-0.30374,-6.41393h-0.06103l-2.50227,2.19853l-1.77344,-2.68465l-2.31989,6.04845l-3.97198,-1.8948l4.51913,-10.44552z" fill="url(#color-20)" stroke="#511100"/></g><g><path d="M43.84013,39.39413l3.78833,4.18589l-2.10926,4.13815l-0.65677,0.21811l2.6917,3.02945l-6.45224,1.46035l-0.94859,-2.14007l-0.31781,1.15462l-4.50671,-0.92925l1.07728,-11.29368z" fill="url(#color-21)" stroke="#060914"/><path d="M43.30964,40.55238l2.90982,3.21494l-1.52439,2.99199l-1.88691,0.62716l2.55516,2.87538l-3.58169,0.81024l-1.82468,-4.1158l-0.09546,-0.01933l-0.8634,3.13639l-2.40471,-0.49605l0.87367,-9.16388zM39.96842,45.89289l2.12376,-0.20362l0.8773,-1.95096l-2.32918,-1.38784z" fill="url(#color-22)" stroke="#260837"/></g><g><path d="M33.46966,38.29207l5.23598,10.78253l-6.08609,1.58784l-0.83379,-2.34611l-1.06943,0.31842l-0.33171,2.2881l-5.98278,-0.50511l2.31227,-12.2761z" fill="url(#color-23)" stroke="#060914"/><path d="M32.72892,39.44609l4.30068,8.85634l-3.66688,0.95705l-0.84648,-2.38235l-2.85001,0.85011l-0.28156,1.93707l-3.59316,-0.3033l1.88872,-10.02788zM30.03963,42.40545l-0.05861,2.31952l1.7552,-0.2296l-0.98242,-2.47963z" fill="url(#color-24)" stroke="#260837"/></g><g><path d="M28.36781,41.50278l-1.86939,5.15019l-0.86581,-0.31479l-0.47611,1.68934h0.95041l0.36856,5.08373l-9.72276,-1.37394l-1.18786,-4.53089l2.47782,-7.93313z" fill="url(#color-25)" stroke="#060914"/><path d="M26.8108,42.36315l-1.01264,2.79018l-3.99798,-1.4549l-0.98787,1.77694l0.0568,0.00483l3.71824,-0.03262l0.04773,0.11842l-0.71296,2.52797l-3.09409,-0.70208l-0.08821,1.68692l0.04773,0.11842l4.2312,0.00061l0.18489,2.55213l-7.51623,-1.06218l-0.90509,-3.4536l2.05851,-6.5918z" fill="url(#color-26)" stroke="#260837"/></g><g><path d="M18.9109,43.42957l-3.80041,0.1299l0.83983,7.09812l-5.6275,1.50506l-0.50209,-7.94702l-3.43427,0.89241l-2.0011,-5.11756l14.32615,-2.36967z" fill="url(#color-27)" stroke="#060914"/><path d="M17.70129,42.30032l-3.90191,0.13353l0.86944,7.3549l-3.2681,0.87428l-0.50149,-7.93675l-3.80161,0.98787l-1.09662,-2.80469l11.58672,-1.91712z" fill="url(#color-28)" stroke="#260837"/></g><g><path d="M128.55841,42.01454l2.56241,-2.06333l4.40521,4.63178l-5.86676,3.97079l-0.53774,4.74719l-7.06067,-1.699l1.81501,-4.94235l-2.98172,-6.35617l6.7773,-1.84462z" fill="url(#color-29)" stroke="#060914"/><path d="M127.86661,44.07485l3.14909,-2.53642l2.71044,2.85l-5.16831,3.49831l-0.44953,3.96717l-4.49644,-1.08212l1.53104,-4.16716l-2.59865,-5.53808l4.28135,-1.16489z" fill="url(#color-30)" stroke="#260837"/></g><g><path d="M124.94411,39.07028l-1.39691,5.642l-3.69105,-0.91476l-1.13468,7.05704l-5.82386,-0.09184l1.69115,-7.78087l-3.54786,-0.08156l-0.52445,-5.4698z" fill="url(#color-31)" stroke="#060914"/><path d="M123.48859,40.08231l-0.79573,3.21252l-3.79014,-0.93892l-1.17577,7.31262l-3.3823,-0.05317l1.68874,-7.7712l-3.92669,-0.09002l-0.2876,-2.99803z" fill="url(#color-32)" stroke="#260837"/></g><g><path d="M112.74353,39.76691l0.50994,11.87129l-4.85232,0.51175l-1.70082,-12.42836z" fill="url(#color-33)" stroke="#060914"/><path d="M111.62274,40.92879l0.41448,9.66114l-2.63068,0.27733l-1.36368,-9.96506z" fill="url(#color-34)" stroke="#260837"/></g><g><path d="M105.74811,40.0092l-1.9721,7.03891l5.42389,-0.17582l-2.25003,6.60812l-9.71491,-2.05307l1.87604,-12.74315z" fill="url(#color-35)" stroke="#060914"/><path d="M104.28052,40.90886l-2.06213,7.36035l5.32842,-0.1728l-1.37032,4.02457l-7.62377,-1.61079l1.53648,-10.43753z" fill="url(#color-36)" stroke="#260837"/></g><g><path d="M96.2187,38.57182l5.10185,10.84597l-6.10482,1.51231l-0.80539,-2.35638l-1.07306,0.30572l-0.3601,2.28327l-5.97553,-0.57882l2.46331,-12.2471z" fill="url(#color-37)" stroke="#060914"/><path d="M95.46405,39.71617l4.19012,8.9089l-3.67836,0.91113l-0.81688,-2.39202l-2.86027,0.81446l-0.30572,1.93344l-3.58894,-0.34801l2.01258,-10.00371zM92.73791,42.6417l-0.0876,2.3183l1.75821,-0.20784l-0.95162,-2.49111z" fill="url(#color-38)" stroke="#260837"/></g><g><path d="M88.65473,45.6059l-0.91415,-0.11177l-0.08398,1.75339l0.92624,-0.21388l1.50264,4.86984l-9.78136,0.84951l-2.17753,-4.14722l0.62836,-8.28779l10.562,-0.15165z" fill="url(#color-39)" stroke="#060914"/><path d="M87.63485,44.30201l-4.22274,-0.5178l-0.56191,1.95398l0.05619,-0.00844l3.61552,-0.86884l0.07311,0.10513l-0.12628,2.62343l-3.17204,0.01209l0.29364,1.66336l0.07311,0.10513l4.12245,-0.95162l0.75465,2.44458l-7.56214,0.65677l-1.65973,-3.16117l0.52263,-6.88605l8.15245,-0.11662z" fill="url(#color-40)" stroke="#260837"/></g><g><path d="M77.81904,38.23588l3.77322,4.19918l-2.12436,4.1303l-0.65737,0.21569l2.68022,3.03912l-6.45767,1.43618l-0.94073,-2.1437l-0.32264,1.15402l-4.50189,-0.94618l1.11777,-11.28945z" fill="url(#color-41)" stroke="#060914"/><path d="M77.28494,39.39109l2.89774,3.22582l-1.53588,2.98656l-1.88872,0.61991l2.54428,2.88505l-3.58411,0.79694l-1.80958,-4.12245l-0.09607,-0.01992l-0.87488,3.13337l-2.4029,-0.50451l0.9081,-9.16086zM73.92377,44.71954l2.12436,-0.19576l0.88455,-1.94794l-2.32375,-1.3963z" fill="url(#color-42)" stroke="#260837"/></g><g><path d="M66.69514,50.84732l-4.02758,1.81804l-1.68571,-1.76245l0.50632,1.87966l-5.99728,0.25981l-2.55757,-10.98734l5.25652,-1.55159l1.76003,2.02044l-0.53835,-2.61074l6.64618,-0.5184z" fill="url(#color-43)" stroke="#060914"/><path d="M65.48191,50.11141l-2.54126,1.14677l-4.27894,-4.47288l1.31715,4.89159l-3.569,0.15468l-2.0869,-8.96691l3.47776,-1.02653l4.19737,4.81727l-1.17275,-5.67886l4.1309,-0.32204z" fill="url(#color-44)" stroke="#260837"/></g><g><path d="M56.1543,40.24242l-2.77388,11.55469l-4.80579,-0.84225l1.78118,-12.41689z" fill="url(#color-45)" stroke="#060914"/><path d="M54.75679,41.05144l-2.25729,9.40373l-2.6053,-0.45677l1.42772,-9.95659z" fill="url(#color-46)" stroke="#260837"/></g></g></g></g></svg>