<svg version="1.1" xmlns="http://www.w3.org/2000/svg" xmlns:xlink="http://www.w3.org/1999/xlink" width="479.65457" height="363.48648" viewBox="0,0,479.65457,363.48648"><defs><linearGradient x1="17.64856" y1="12.59594" x2="17.64856" y2="35.81291" gradientUnits="userSpaceOnUse" id="color-1"><stop offset="0" stop-color="#7f7f7f"/><stop offset="1" stop-color="#2b2a2b"/></linearGradient><radialGradient cx="29.59647" cy="30.67036" r="30.8368" gradientUnits="userSpaceOnUse" id="color-2"><stop offset="0" stop-color="#000000" stop-opacity="0"/><stop offset="1" stop-color="#000000" stop-opacity="0"/></radialGradient><linearGradient x1="41.481" y1="17.99845" x2="41.481" y2="35.81291" gradientUnits="userSpaceOnUse" id="color-3"><stop offset="0" stop-color="#7f7f7f"/><stop offset="1" stop-color="#2b2a2b"/></linearGradient><radialGradient cx="40.36954" cy="31.72984" r="17.68185" gradientUnits="userSpaceOnUse" id="color-4"><stop offset="0" stop-color="#000000" stop-opacity="0"/><stop offset="1" stop-color="#000000" stop-opacity="0"/></radialGradient><linearGradient x1="60.49891" y1="17.99845" x2="60.49891" y2="35.81291" gradientUnits="userSpaceOnUse" id="color-5"><stop offset="0" stop-color="#7f7f7f"/><stop offset="1" stop-color="#2b2a2b"/></linearGradient><radialGradient cx="63.6879" cy="25.84927" r="15.58959" gradientUnits="userSpaceOnUse" id="color-6"><stop offset="0" stop-color="#000000" stop-opacity="0"/><stop offset="1" stop-color="#000000" stop-opacity="0"/></radialGradient><linearGradient x1="75.24578" y1="10.84821" x2="75.24578" y2="35.81291" gradientUnits="userSpaceOnUse" id="color-7"><stop offset="0" stop-color="#7f7f7f"/><stop offset="1" stop-color="#2b2a2b"/></linearGradient><radialGradient cx="71.96764" cy="26.76819" r="20.76895" gradientUnits="userSpaceOnUse" id="color-8"><stop offset="0" stop-color="#000000" stop-opacity="0"/><stop offset="1" stop-color="#000000" stop-opacity="0"/></radialGradient><linearGradient x1="89.81473" y1="18.01622" x2="89.81473" y2="35.81291" gradientUnits="userSpaceOnUse" id="color-9"><stop offset="0" stop-color="#7f7f7f"/><stop offset="1" stop-color="#2b2a2b"/></linearGradient><radialGradient cx="81.83466" cy="29.0644" r="21.98169" gradientUnits="userSpaceOnUse" id="color-10"><stop offset="0" stop-color="#000000" stop-opacity="0"/><stop offset="1" stop-color="#000000" stop-opacity="0"/></radialGradient><linearGradient x1="17.22402" y1="35.1701" x2="17.22402" y2="55.21042" gradientUnits="userSpaceOnUse" id="color-11"><stop offset="0" stop-color="#7f7f7f"/><stop offset="1" stop-color="#2b2a2b"/></linearGradient><radialGradient cx="24.09722" cy="45.46682" r="21.83467" gradientUnits="userSpaceOnUse" id="color-12"><stop offset="0" stop-color="#000000" stop-opacity="0"/><stop offset="1" stop-color="#000000" stop-opacity="0"/></radialGradient><linearGradient x1="35.47793" y1="39.82162" x2="35.47793" y2="55.21042" gradientUnits="userSpaceOnUse" id="color-13"><stop offset="0" stop-color="#7f7f7f"/><stop offset="1" stop-color="#2b2a2b"/></linearGradient><radialGradient cx="41.87113" cy="45.1" r="18.30018" gradientUnits="userSpaceOnUse" id="color-14"><stop offset="0" stop-color="#000000" stop-opacity="0"/><stop offset="1" stop-color="#000000" stop-opacity="0"/></radialGradient><linearGradient x1="51.90598" y1="39.82162" x2="51.90598" y2="55.21042" gradientUnits="userSpaceOnUse" id="color-15"><stop offset="0" stop-color="#7f7f7f"/><stop offset="1" stop-color="#2b2a2b"/></linearGradient><radialGradient cx="55.03247" cy="46.77734" r="13.95985" gradientUnits="userSpaceOnUse" id="color-16"><stop offset="0" stop-color="#000000" stop-opacity="0"/><stop offset="1" stop-color="#000000" stop-opacity="0"/></radialGradient><linearGradient x1="68.057" y1="35.1701" x2="68.057" y2="55.21042" gradientUnits="userSpaceOnUse" id="color-17"><stop offset="0" stop-color="#7f7f7f"/><stop offset="1" stop-color="#2b2a2b"/></linearGradient><radialGradient cx="75.23753" cy="43.70129" r="22.51992" gradientUnits="userSpaceOnUse" id="color-18"><stop offset="0" stop-color="#000000" stop-opacity="0"/><stop offset="1" stop-color="#000000" stop-opacity="0"/></radialGradient><linearGradient x1="86.06398" y1="39.66925" x2="86.06398" y2="59.84729" gradientUnits="userSpaceOnUse" id="color-19"><stop offset="0" stop-color="#7f7f7f"/><stop offset="1" stop-color="#2b2a2b"/></linearGradient><radialGradient cx="77.80529" cy="45.17383" r="23.84621" gradientUnits="userSpaceOnUse" id="color-20"><stop offset="0" stop-color="#000000" stop-opacity="0"/><stop offset="1" stop-color="#000000" stop-opacity="0"/></radialGradient><linearGradient x1="119.2883" y1="14.91294" x2="119.2883" y2="54.49677" gradientUnits="userSpaceOnUse" id="color-21"><stop offset="0" stop-color="#7f7f7f"/><stop offset="1" stop-color="#2b2a2b"/></linearGradient><radialGradient cx="120.63677" cy="30.86126" r="29.99147" gradientUnits="userSpaceOnUse" id="color-22"><stop offset="0" stop-color="#000000" stop-opacity="0"/><stop offset="1" stop-color="#000000" stop-opacity="0"/></radialGradient><linearGradient x1="3.70822" y1="11.39621" x2="3.70822" y2="34.61319" gradientUnits="userSpaceOnUse" id="color-23"><stop offset="0" stop-color="#f96e91"/><stop offset="1" stop-color="#ff3183"/></linearGradient><radialGradient cx="29.09282" cy="29.47063" r="30.8368" gradientUnits="userSpaceOnUse" id="color-24"><stop offset="0" stop-color="#000000" stop-opacity="0"/><stop offset="1" stop-color="#000000" stop-opacity="0"/></radialGradient><linearGradient x1="32.23955" y1="16.79872" x2="32.23955" y2="34.61319" gradientUnits="userSpaceOnUse" id="color-25"><stop offset="0" stop-color="#31c00a"/><stop offset="1" stop-color="#a0d41c"/></linearGradient><radialGradient cx="39.86589" cy="30.5301" r="17.68185" gradientUnits="userSpaceOnUse" id="color-26"><stop offset="0" stop-color="#000000" stop-opacity="0"/><stop offset="1" stop-color="#000000" stop-opacity="0"/></radialGradient><linearGradient x1="51.42728" y1="16.79872" x2="51.42728" y2="34.61319" gradientUnits="userSpaceOnUse" id="color-27"><stop offset="0" stop-color="#00c2ff"/><stop offset="1" stop-color="#00acf2"/></linearGradient><radialGradient cx="63.18425" cy="24.64955" r="15.58959" gradientUnits="userSpaceOnUse" id="color-28"><stop offset="0" stop-color="#000000" stop-opacity="0"/><stop offset="1" stop-color="#000000" stop-opacity="0"/></radialGradient><linearGradient x1="74.74213" y1="9.64848" x2="74.74213" y2="34.61319" gradientUnits="userSpaceOnUse" id="color-29"><stop offset="0" stop-color="#f96e91"/><stop offset="1" stop-color="#ff3183"/></linearGradient><radialGradient cx="71.464" cy="25.56846" r="20.76895" gradientUnits="userSpaceOnUse" id="color-30"><stop offset="0" stop-color="#000000" stop-opacity="0"/><stop offset="1" stop-color="#000000" stop-opacity="0"/></radialGradient><linearGradient x1="89.31109" y1="16.81648" x2="89.31109" y2="34.61319" gradientUnits="userSpaceOnUse" id="color-31"><stop offset="0" stop-color="#31c00a"/><stop offset="1" stop-color="#a0d41c"/></linearGradient><radialGradient cx="81.33101" cy="27.86466" r="21.98169" gradientUnits="userSpaceOnUse" id="color-32"><stop offset="0" stop-color="#000000" stop-opacity="0"/><stop offset="1" stop-color="#000000" stop-opacity="0"/></radialGradient><linearGradient x1="16.72037" y1="33.97037" x2="16.72037" y2="54.0107" gradientUnits="userSpaceOnUse" id="color-33"><stop offset="0" stop-color="#00c2ff"/><stop offset="1" stop-color="#00acf2"/></linearGradient><radialGradient cx="23.59358" cy="44.2671" r="21.83466" gradientUnits="userSpaceOnUse" id="color-34"><stop offset="0" stop-color="#000000" stop-opacity="0"/><stop offset="1" stop-color="#000000" stop-opacity="0"/></radialGradient><linearGradient x1="34.97429" y1="38.62189" x2="34.97429" y2="54.0107" gradientUnits="userSpaceOnUse" id="color-35"><stop offset="0" stop-color="#f96e91"/><stop offset="1" stop-color="#ff3183"/></linearGradient><radialGradient cx="41.36749" cy="43.90027" r="18.30018" gradientUnits="userSpaceOnUse" id="color-36"><stop offset="0" stop-color="#000000" stop-opacity="0"/><stop offset="1" stop-color="#000000" stop-opacity="0"/></radialGradient><linearGradient x1="51.40234" y1="38.62189" x2="51.40234" y2="54.0107" gradientUnits="userSpaceOnUse" id="color-37"><stop offset="0" stop-color="#31c00a"/><stop offset="1" stop-color="#a0d41c"/></linearGradient><radialGradient cx="54.52881" cy="45.57761" r="13.95985" gradientUnits="userSpaceOnUse" id="color-38"><stop offset="0" stop-color="#000000" stop-opacity="0"/><stop offset="1" stop-color="#000000" stop-opacity="0"/></radialGradient><linearGradient x1="67.55336" y1="33.97037" x2="67.55336" y2="54.0107" gradientUnits="userSpaceOnUse" id="color-39"><stop offset="0" stop-color="#00c2ff"/><stop offset="1" stop-color="#00acf2"/></linearGradient><radialGradient cx="74.7339" cy="42.50157" r="22.51992" gradientUnits="userSpaceOnUse" id="color-40"><stop offset="0" stop-color="#000000" stop-opacity="0"/><stop offset="1" stop-color="#000000" stop-opacity="0"/></radialGradient><linearGradient x1="85.56033" y1="38.46952" x2="85.56033" y2="58.64755" gradientUnits="userSpaceOnUse" id="color-41"><stop offset="0" stop-color="#f96e91"/><stop offset="1" stop-color="#ff3183"/></linearGradient><radialGradient cx="77.30164" cy="43.97411" r="23.84621" gradientUnits="userSpaceOnUse" id="color-42"><stop offset="0" stop-color="#000000" stop-opacity="0"/><stop offset="1" stop-color="#000000" stop-opacity="0"/></radialGradient><linearGradient x1="99.95113" y1="13.71321" x2="99.95113" y2="53.29705" gradientUnits="userSpaceOnUse" id="color-43"><stop offset="0" stop-color="#ff9400"/><stop offset="1" stop-color="#ffef80"/></linearGradient><radialGradient cx="120.13314" cy="29.66154" r="29.99147" gradientUnits="userSpaceOnUse" id="color-44"><stop offset="0" stop-color="#000000" stop-opacity="0"/><stop offset="1" stop-color="#000000" stop-opacity="0"/></radialGradient></defs><g transform="translate(-0.79334,3.41019)"><g data-paper-data="{&quot;isPaintingLayer&quot;:true}" fill-rule="nonzero" stroke-miterlimit="10" stroke-dasharray="" stroke-dashoffset="0" style="mix-blend-mode: normal"><text transform="translate(1,87.85714) scale(0.41333,0.41333)" font-size="40" xml:space="preserve" fill="#000000" fill-rule="nonzero" stroke="none" stroke-width="1" stroke-linecap="butt" stroke-linejoin="miter" stroke-miterlimit="10" stroke-dasharray="" stroke-dashoffset="0" font-family="Sans Serif" font-weight="normal" text-anchor="start" style="mix-blend-mode: normal"><tspan x="0" dy="0">0.6.1 -</tspan><tspan x="0" dy="46.150000000000006px">0.6.2 -</tspan><tspan x="0" dy="46.150000000000006px">0.6.3 -</tspan><tspan x="0" dy="46.150000000000006px">0.6.4 -</tspan><tspan x="0" dy="46.150000000000006px">0.6.5 -</tspan><tspan x="0" dy="46.150000000000006px">0.6.6 -</tspan><tspan x="0" dy="46.150000000000006px">0.6.7 -</tspan><tspan x="0" dy="46.150000000000006px">0.6.8 -</tspan><tspan x="0" dy="46.150000000000006px">0.6.9 -</tspan><tspan x="0" dy="46.150000000000006px">0.7.0 -</tspan><tspan x="0" dy="46.150000000000006px">0.7.1 -</tspan><tspan x="0" dy="46.150000000000006px">0.7.2 -</tspan><tspan x="0" dy="46.150000000000006px">0.7.3 -</tspan><tspan x="0" dy="46.150000000000006px">0.7.4 -</tspan><tspan x="0" dy="46.150000000000006px">0.7.5 -</tspan></text><text transform="translate(235.99675,87.85714) scale(0.41333,0.41333)" font-size="40" xml:space="preserve" fill="#000000" fill-rule="nonzero" stroke="none" stroke-width="1" stroke-linecap="butt" stroke-linejoin="miter" stroke-miterlimit="10" stroke-dasharray="" stroke-dashoffset="0" font-family="Sans Serif" font-weight="normal" text-anchor="start" style="mix-blend-mode: normal"><tspan x="0" dy="0">0.7.6 -</tspan><tspan x="0" dy="46.150000000000006px">0.7.7 -</tspan><tspan x="0" dy="46.150000000000006px">0.7.8 -</tspan><tspan x="0" dy="46.150000000000006px">0.7.9 -</tspan><tspan x="0" dy="46.150000000000006px">0.8.0 -</tspan><tspan x="0" dy="46.150000000000006px">0.8.1 -</tspan><tspan x="0" dy="46.150000000000006px">0.8.2 -</tspan><tspan x="0" dy="46.150000000000006px">0.8.3 -</tspan><tspan x="0" dy="46.150000000000006px">0.8.4 -</tspan><tspan x="0" dy="46.150000000000006px">0.8.5 -</tspan><tspan x="0" dy="46.150000000000006px">0.8.6 -</tspan><tspan x="0" dy="46.150000000000006px">0.8.7 -</tspan><tspan x="0" dy="46.150000000000006px">0.8.8 -</tspan><tspan x="0" dy="46.150000000000006px">0.8.9 -</tspan><tspan x="0" dy="46.150000000000006px">0.9.0 -</tspan></text><path d="M141.57278,4.63208v62.5" fill="none" stroke="#000000" stroke-width="2.5" stroke-linecap="round" stroke-linejoin="miter"/><text transform="translate(146,32.00708) scale(0.81419,0.81419)" font-size="40" xml:space="preserve" fill="#000000" fill-rule="nonzero" stroke="none" stroke-width="1" stroke-linecap="butt" stroke-linejoin="miter" stroke-miterlimit="10" stroke-dasharray="" stroke-dashoffset="0" font-family="Sans Serif" font-weight="normal" text-anchor="start" style="mix-blend-mode: normal"><tspan x="0" dy="0">Dibs List</tspan></text><text transform="translate(149,49.50708) scale(0.42416,0.42416)" font-size="40" xml:space="preserve" fill="#000000" fill-rule="nonzero" stroke="none" stroke-width="1" stroke-linecap="butt" stroke-linejoin="miter" stroke-miterlimit="10" stroke-dasharray="" stroke-dashoffset="0" font-family="Sans Serif" font-weight="normal" text-anchor="start" style="mix-blend-mode: normal"><tspan x="0" dy="0">You must be a team member to call dibs.</tspan></text><g stroke-linecap="round" stroke-linejoin="round"><g><g stroke-width="3.89753"><path d="M12.16519,12.59594c3.3644,0.23775 5.04665,0.45128 5.04665,0.64136c1.29562,3.4833 2.08658,5.70659 2.37129,6.66983c0.03557,0 0.07197,0 0.10753,0c0.30898,-0.66643 1.49138,-2.49666 3.54804,-5.49228c0.03557,0 0.07197,0 0.10757,0c3.22126,0.20219 4.83229,0.42136 4.83229,0.65913c0.96893,6.62778 1.93781,13.25554 2.90669,19.88328c0,0.1189 -2.54435,0.40359 -7.63224,0.85566l-0.10674,-0.2143c-0.28552,-6.03897 -0.42866,-9.73016 -0.42866,-11.0735c-0.03557,0 -0.07118,0 -0.10675,0l-4.4045,3.86989h-0.10674c-0.14318,-0.07113 -1.14763,-1.64659 -3.01343,-4.72555c-0.03561,0 -0.072,0 -0.10756,0c-2.29447,6.68117 -3.54804,10.22916 -3.76236,10.64566c-0.07117,0 -0.14235,0 -0.21352,0c-4.102,-1.85448 -6.43202,-2.96653 -6.99088,-3.33448c0,-0.03561 0,-0.07117 0,-0.10757c5.08868,-11.95909 7.73981,-18.05147 7.95333,-18.27711z" fill="url(#color-1)" stroke="url(#color-2)"/><path d="M35.45412,17.99845c7.06126,0.97535 10.59229,1.57546 10.59229,1.8011c2.78131,2.38988 4.17238,3.66769 4.17238,3.83432c-1.12982,3.5302 -1.77117,5.67667 -1.92565,6.43688c1.12904,2.50878 1.77117,4.00659 1.92565,4.49427c0,0.14236 -1.84235,0.52245 -5.52784,1.14115c-0.04772,-0.2022 -0.38659,-0.6543 -1.01662,-1.35546c-5.0879,0.97452 -7.82795,1.4622 -8.22022,1.4622l-2.71093,-7.32894l5.97427,-3.15656c0.96241,0.15447 2.46669,0.23212 4.51123,0.23212c0,-0.26125 0.03561,-1.05221 0.10679,-2.37129c-0.34454,0 -3.4235,0.22564 -9.23683,0.67692c-0.03557,-0.07682 -0.07117,-0.15447 -0.10674,-0.23129c0.80794,-3.75671 1.29561,-5.63542 1.4622,-5.63542zM39.16311,28.48397c0,0.13103 0.38011,1.52126 1.14115,4.17239c0.03557,0 0.07118,0 0.10675,0c1.49782,-0.97456 2.24674,-1.61671 2.24674,-1.92565l0.23212,-1.90789c-0.28548,0 -1.52773,-0.11322 -3.72675,-0.33885z" fill="url(#color-3)" stroke="url(#color-4)"/><path d="M64.73357,17.99845c2.35431,1.31986 3.79874,2.17553 4.33332,2.56779c-1.92565,4.00659 -2.96006,6.04545 -3.10241,6.11662c-0.04203,0 -0.08329,0 -0.12533,0l-2.5492,-2.22893c-1.00532,1.22444 -2.00977,2.44894 -3.01426,3.67338c0.03802,0.74323 0.30167,5.94435 0.33886,6.6868c-0.15447,0.14314 -2.12215,0.47556 -5.9023,0.99881c-0.14231,-1.02225 -1.06997,-6.03333 -2.78131,-15.03236c0,-0.14235 2.48449,-0.51113 7.45353,-1.10555c0.08329,0.09541 0.30893,1.20665 0.67771,3.33449c2.97138,-3.34016 4.52904,-5.01104 4.67139,-5.01104z" fill="url(#color-5)" stroke="url(#color-6)"/><path d="M72.97237,10.84821c2.33567,0.36882 4.67218,0.73677 7.00786,1.10559c-0.87991,3.36445 -1.45657,5.04665 -1.72993,5.04665c-3.6847,-0.24992 -5.52784,-0.49337 -5.52784,-0.73113v-5.17118c0.03561,-0.16662 0.1189,-0.24993 0.24992,-0.24993zM71.01113,19.33612c0.03561,0 0.07117,0 0.10678,0c5.42106,0.98668 8.13124,1.56334 8.13124,1.72993c-1.55769,8.82033 -2.5023,13.73675 -2.8355,14.74687c-1.88439,0 -3.768,0 -5.65239,0c-0.16662,0 -0.24992,-0.0833 -0.24992,-0.24988c0.16658,-5.40899 0.33321,-10.81793 0.4998,-16.22691z" fill="url(#color-7)" stroke="url(#color-8)"/><path d="M87.71924,18.01622c4.51771,1.21316 6.91324,1.94992 7.18661,2.21117c2.48449,3.51887 3.88121,5.54643 4.19018,6.08101c-1.6046,5.08789 -2.52575,7.63223 -2.76355,7.63223c-5.34994,1.24793 -8.14984,1.87227 -8.39893,1.87227c-4.4223,-2.5799 -6.77657,-4.01787 -7.06206,-4.31551c-0.15447,-4.8024 -0.23133,-7.45349 -0.23133,-7.9525c-0.07117,-0.14314 -0.10674,-0.24992 -0.10674,-0.32109c4.56461,-3.47119 6.92455,-5.20758 7.07903,-5.20758c0.02104,0 0.08574,0 0.10678,0zM87.38036,24.54291c-0.07113,0.47556 -0.17791,2.20549 -0.32105,5.18899l3.97667,0.89202c0.95108,-2.97217 1.42664,-4.55891 1.42664,-4.76111c-3.16225,-0.95112 -4.85657,-1.42668 -5.08225,-1.42668c0,0.03561 0,0.07118 0,0.10678z" fill="url(#color-9)" stroke="url(#color-10)"/></g><g stroke-width="3.36683"><path d="M19.45754,35.1701l6.71598,4.95961c-0.92426,4.22115 -1.50906,6.33102 -1.75565,6.33102c-0.05172,0 -1.28408,1.03749 -3.6972,3.11174c-1.49927,-0.07196 -3.21441,-0.16907 -5.1447,-0.29275l-0.20053,5.54578c-0.42057,0.12297 -2.23839,0.25149 -5.45285,0.38492c-0.39053,0 -0.58545,-1.10384 -0.58545,-3.31219c-0.70838,-9.13956 -1.06259,-14.06841 -1.06259,-14.78733c1.20162,-0.2571 4.92887,-0.90401 11.18302,-1.9408zM15.2832,39.54497v6.42323c2.52624,-0.45203 3.78941,-0.71398 3.78941,-0.78594l0.87816,-3.78942c-1.24287,-0.51349 -2.7987,-1.12969 -4.66757,-1.84787z" fill="url(#color-11)" stroke="url(#color-12)"/><path d="M30.27103,39.82162c6.10047,0.84255 9.15001,1.36094 9.15001,1.55588c2.40328,2.06446 3.60494,3.1683 3.60494,3.31223c-0.97598,3.04953 -1.53072,4.90372 -1.66414,5.56043c0.97598,2.16714 1.53001,3.46101 1.66414,3.88229c0,0.12297 -1.59219,0.45132 -4.77585,0.98577c-0.04055,-0.17464 -0.33325,-0.5652 -0.8775,-1.17092c-4.39582,0.84185 -6.76278,1.26313 -7.1016,1.26313l-2.34116,-6.33102l5.16011,-2.72678c0.8321,0.13347 2.13087,0.20054 3.89702,0.20054c0,-0.22568 0.03142,-0.90896 0.09288,-2.04841c-0.2983,0 -2.95799,0.19494 -7.9791,0.58476l-0.09292,-0.19979c0.69867,-3.24517 1.11924,-4.8681 1.26316,-4.8681zM33.47495,48.87941c0,0.11317 0.32906,1.31413 0.98577,3.60428c0.03146,0 0.06216,0 0.09292,0c1.29387,-0.84189 1.9408,-1.3966 1.9408,-1.66349c0.0664,-0.5491 0.13347,-1.09895 0.20053,-1.64804c-0.24663,0 -1.31973,-0.09782 -3.22002,-0.29275z" fill="url(#color-13)" stroke="url(#color-14)"/><path d="M55.56438,39.82162c2.03301,1.14016 3.28077,1.87933 3.74331,2.21819c-1.66349,3.46102 -2.55704,5.22228 -2.68068,5.28374c-0.03565,0 -0.07126,0 -0.10761,0c-0.73424,-0.64202 -1.46851,-1.28337 -2.20279,-1.92544c-0.8677,1.05774 -1.7354,2.11546 -2.60311,3.1732l0.29275,5.77632c-0.13347,0.12367 -1.83322,0.41081 -5.09864,0.86281c-0.12367,-0.88306 -0.92431,-5.21182 -2.40332,-12.98549c0,-0.12297 2.14623,-0.44157 6.43863,-0.95506c0.07196,0.08246 0.26756,1.04238 0.58545,2.8805c2.5675,-2.8854 3.91304,-4.32876 4.03601,-4.32876z" fill="url(#color-15)" stroke="url(#color-16)"/><path d="M65.16082,35.1701c2.2594,0.40032 4.51879,0.80064 6.77814,1.20166l-0.64691,5.14475c1.34488,-0.07196 2.33065,-0.10832 2.95731,-0.10832c0.32836,0 0.65742,0 0.98577,0c0.07197,-0.03561 0.14392,-0.07126 0.21589,-0.10757l0.10756,0.21589c-0.21589,3.12149 -0.40032,4.87786 -0.5547,5.26767l-0.21518,-0.12293c-0.15439,0 -1.54048,-0.07196 -4.15897,-0.21589c-0.14392,2.41378 -0.25221,5.29913 -0.32346,8.65747l-0.21589,0.10757c-3.30663,-0.21585 -5.27818,-0.40032 -5.91534,-0.55471c0.03636,-0.14393 0.07197,-0.28714 0.10828,-0.43107c0,-0.89356 0.14322,-3.66641 0.43107,-8.31792c-2.77289,-0.15443 -4.15897,-0.33885 -4.15897,-0.55474c0.14393,-3.43026 0.32835,-5.14471 0.55474,-5.14471l4.05067,0.76989c0,-0.44153 0,-0.8831 0,-1.32463c0,-1.0787 -0.04051,-2.53675 -0.12297,-4.37482c0.08246,0 0.12297,-0.03565 0.12297,-0.10761z" fill="url(#color-17)" stroke="url(#color-18)"/><path d="M84.21818,39.82721c0.32067,0.03142 0.32139,-0.32209 0.24383,0.24104c-0.30599,2.23421 -0.84674,4.41185 -1.29176,6.60559c-0.08872,0.76221 -0.969,2.0833 -0.31022,2.26707c1.43502,0.42195 4.59075,-0.64695 4.59075,-0.86285c0.57496,-3.55253 0.97037,-5.54506 1.18556,-5.9761c3.78942,0.78039 5.88949,1.24216 6.3003,1.38609c-2.20768,7.58924 -3.41914,11.54284 -3.63503,11.86073c-3.86134,2.71138 -6.03337,4.21065 -6.51615,4.49851c-0.14392,0 -2.60311,-0.60641 -7.37829,-1.81787c0,-0.03632 0,-0.07197 0,-0.10757c1.26317,-2.78339 2.04841,-4.17504 2.3565,-4.17504l4.69832,2.35718l2.2489,-3.85088c-2.02255,0.50303 -3.19836,0.75453 -3.52742,0.75453c-1.99741,-1.03748 -3.99475,-2.07422 -5.99216,-3.1117c0.72938,-6.69573 0.75731,-9.35125 1.38679,-10.04357c0.15998,-0.38496 4.78842,-0.04682 5.64007,-0.02515z" fill="url(#color-19)" stroke="url(#color-20)"/></g><path d="M124.37066,14.91294c7.3013,3.69135 11.05478,5.53773 11.25764,5.53773c0,0.32428 -1.5221,3.2553 -4.56491,8.79302c-0.07038,0 -0.14214,0 -0.21248,0c-0.24427,0 -3.74244,-1.65315 -10.4973,-4.95953l-3.43744,4.59387c5.82064,2.79854 12.89011,6.36987 21.20567,10.70979c-3.77277,6.71482 -6.44987,11.17621 -8.03131,13.38825l-17.1914,1.52072c-7.84911,-5.29349 -11.99726,-8.03268 -12.44436,-8.21487c0,-0.07176 0,-0.14211 0,-0.21386c0,-0.56719 1.59248,-3.17392 4.77739,-7.81883c0.1311,0 0.26358,0 0.39604,0c1.25715,0.75071 5.20239,2.91034 11.83445,6.48026l4.017,-4.56349c-12.19045,-6.20701 -18.94532,-9.71621 -20.26314,-10.52763c0,-0.06072 0,-0.12143 0,-0.18215c3.8735,-7.54554 5.98345,-11.3694 6.32845,-11.47012c10.0805,-2.04923 15.68861,-3.07315 16.8257,-3.07315z" fill="url(#color-21)" stroke="url(#color-22)" stroke-width="6.6502"/></g><g><g stroke-width="3.89753"><path d="M11.66155,11.39621c3.3644,0.23775 5.04665,0.45128 5.04665,0.64136c1.29562,3.4833 2.08658,5.70659 2.37128,6.66984c0.03557,0 0.07197,0 0.10753,0c0.30898,-0.66643 1.49138,-2.49666 3.54804,-5.49228c0.03557,0 0.07197,0 0.10757,0c3.22126,0.20219 4.83229,0.42136 4.83229,0.65912c0.96893,6.62778 1.93781,13.25554 2.90669,19.88328c0,0.1189 -2.54435,0.40359 -7.63224,0.85566l-0.10674,-0.21431c-0.28552,-6.03897 -0.42866,-9.73015 -0.42866,-11.0735c-0.03557,0 -0.07118,0 -0.10675,0l-4.4045,3.86989h-0.10674c-0.14318,-0.07113 -1.14763,-1.64659 -3.01344,-4.72555c-0.03561,0 -0.07201,0 -0.10757,0c-2.29447,6.68117 -3.54804,10.22916 -3.76236,10.64567c-0.07117,0 -0.14236,0 -0.21353,0c-4.102,-1.85448 -6.43202,-2.96654 -6.99088,-3.33449c0,-0.03561 0,-0.07117 0,-0.10756c5.08868,-11.95909 7.73981,-18.05148 7.95333,-18.27712z" fill="url(#color-23)" stroke="url(#color-24)"/><path d="M34.95049,16.79872c7.06126,0.97535 10.59229,1.57546 10.59229,1.8011c2.78131,2.38988 4.17238,3.66769 4.17238,3.83432c-1.12982,3.5302 -1.77117,5.67667 -1.92564,6.43688c1.12904,2.50878 1.77117,4.00659 1.92564,4.49426c0,0.14236 -1.84235,0.52245 -5.52784,1.14115c-0.04772,-0.2022 -0.38659,-0.6543 -1.01662,-1.35546c-5.0879,0.97452 -7.82795,1.4622 -8.22022,1.4622l-2.71093,-7.32895l5.97427,-3.15656c0.96241,0.15447 2.46669,0.23212 4.51124,0.23212c0,-0.26125 0.03561,-1.05221 0.10678,-2.37129c-0.34454,0 -3.4235,0.22564 -9.23683,0.67692c-0.03557,-0.07682 -0.07118,-0.15446 -0.10675,-0.23128c0.80794,-3.75671 1.29562,-5.63541 1.46221,-5.63541zM38.65946,27.28424c0,0.13103 0.38011,1.52126 1.14115,4.17238c0.03557,0 0.07117,0 0.10674,0c1.49782,-0.97456 2.24674,-1.61671 2.24674,-1.92564l0.23212,-1.90789c-0.28548,0 -1.52773,-0.11322 -3.72675,-0.33885z" fill="url(#color-25)" stroke="url(#color-26)"/><path d="M64.22992,16.79872c2.35431,1.31986 3.79874,2.17553 4.33332,2.56779c-1.92565,4.00659 -2.96006,6.04545 -3.10241,6.11662c-0.04203,0 -0.0833,0 -0.12533,0l-2.5492,-2.22893c-1.00532,1.22444 -2.00977,2.44894 -3.01426,3.67337c0.03802,0.74323 0.30167,5.94436 0.33886,6.68681c-0.15447,0.14314 -2.12215,0.47556 -5.9023,0.9988c-0.14231,-1.02225 -1.06998,-6.03332 -2.78132,-15.03236c0,-0.14235 2.4845,-0.51113 7.45354,-1.10555c0.08329,0.09541 0.30893,1.20665 0.67771,3.33449c2.97138,-3.34016 4.52904,-5.01103 4.6714,-5.01103z" fill="url(#color-27)" stroke="url(#color-28)"/><path d="M72.46873,9.64848c2.33567,0.36882 4.67218,0.73677 7.00786,1.10559c-0.87991,3.36445 -1.45656,5.04665 -1.72993,5.04665c-3.6847,-0.24992 -5.52784,-0.49337 -5.52784,-0.73113v-5.17118c0.03561,-0.16662 0.11889,-0.24992 0.24992,-0.24992zM70.50749,18.13638c0.03561,0 0.07117,0 0.10678,0c5.42106,0.98668 8.13124,1.56334 8.13124,1.72993c-1.55769,8.82033 -2.5023,13.73674 -2.83551,14.74687c-1.88439,0 -3.76799,0 -5.65239,0c-0.16662,0 -0.24993,-0.08329 -0.24993,-0.24988c0.16658,-5.40899 0.33321,-10.81794 0.49981,-16.22692z" fill="url(#color-29)" stroke="url(#color-30)"/><path d="M87.2156,16.81648c4.51771,1.21316 6.91324,1.94992 7.18661,2.21117c2.48449,3.51887 3.88121,5.54643 4.19018,6.08101c-1.6046,5.08789 -2.52575,7.63224 -2.76355,7.63224c-5.34994,1.24793 -8.14984,1.87227 -8.39892,1.87227c-4.4223,-2.57991 -6.77657,-4.01787 -7.06206,-4.31552c-0.15447,-4.8024 -0.23133,-7.45349 -0.23133,-7.9525c-0.07117,-0.14314 -0.10674,-0.24992 -0.10674,-0.32109c4.56461,-3.47118 6.92455,-5.20758 7.07903,-5.20758c0.02104,0 0.08574,0 0.10678,0zM86.87671,23.34318c-0.07113,0.47556 -0.17791,2.20549 -0.32106,5.18899l3.97667,0.89202c0.95108,-2.97217 1.42664,-4.55892 1.42664,-4.76111c-3.16225,-0.95112 -4.85657,-1.42668 -5.08225,-1.42668c0,0.03561 0,0.07118 0,0.10678z" fill="url(#color-31)" stroke="url(#color-32)"/></g><g stroke-width="3.36683"><path d="M18.95389,33.97037l6.71598,4.95961c-0.92426,4.22115 -1.50905,6.33102 -1.75565,6.33102c-0.05172,0 -1.28408,1.03749 -3.6972,3.11174c-1.49927,-0.07196 -3.21441,-0.16907 -5.1447,-0.29275l-0.20053,5.54578c-0.42057,0.12297 -2.23839,0.25149 -5.45286,0.38492c-0.39053,0 -0.58545,-1.10384 -0.58545,-3.31219c-0.70838,-9.13956 -1.06259,-14.06841 -1.06259,-14.78733c1.20162,-0.2571 4.92887,-0.90401 11.18302,-1.9408zM14.77956,38.34524v6.42323c2.52624,-0.45203 3.78941,-0.71398 3.78941,-0.78594l0.87816,-3.78942c-1.24287,-0.51349 -2.7987,-1.12969 -4.66757,-1.84787z" fill="url(#color-33)" stroke="url(#color-34)"/><path d="M29.76738,38.62189c6.10047,0.84255 9.15001,1.36094 9.15001,1.55588c2.40328,2.06446 3.60494,3.1683 3.60494,3.31223c-0.97598,3.04953 -1.53072,4.90372 -1.66414,5.56043c0.97598,2.16714 1.53001,3.46101 1.66414,3.88229c0,0.12297 -1.59219,0.45132 -4.77585,0.98577c-0.04055,-0.17464 -0.33325,-0.5652 -0.87749,-1.17091c-4.39582,0.84185 -6.76278,1.26312 -7.1016,1.26312l-2.34116,-6.33102l5.16011,-2.72678c0.8321,0.13347 2.13087,0.20054 3.89702,0.20054c0,-0.22568 0.03142,-0.90895 0.09288,-2.04841c-0.2983,0 -2.95799,0.19494 -7.9791,0.58475l-0.09292,-0.19979c0.69867,-3.24517 1.11924,-4.8681 1.26317,-4.8681zM32.9713,47.67968c0,0.11317 0.32906,1.31412 0.98577,3.60428c0.03146,0 0.06216,0 0.09292,0c1.29387,-0.84189 1.9408,-1.3966 1.9408,-1.66349c0.0664,-0.5491 0.13348,-1.09895 0.20054,-1.64804c-0.24663,0 -1.31973,-0.09781 -3.22002,-0.29275z" fill="url(#color-35)" stroke="url(#color-36)"/><path d="M55.06073,38.62189c2.03301,1.14016 3.28077,1.87933 3.74331,2.21819c-1.66349,3.46102 -2.55704,5.22228 -2.68068,5.28374c-0.03565,0 -0.07126,0 -0.10761,0c-0.73424,-0.64202 -1.46851,-1.28338 -2.20279,-1.92544c-0.8677,1.05774 -1.7354,2.11547 -2.60311,3.17321l0.29275,5.77631c-0.13347,0.12367 -1.83322,0.41081 -5.09864,0.86281c-0.12367,-0.88306 -0.92431,-5.21182 -2.40332,-12.98549c0,-0.12297 2.14622,-0.44157 6.43863,-0.95506c0.07196,0.08246 0.26756,1.04238 0.58545,2.8805c2.5675,-2.8854 3.91304,-4.32876 4.03601,-4.32876z" fill="url(#color-37)" stroke="url(#color-38)"/><path d="M64.65717,33.97037c2.2594,0.40032 4.51879,0.80064 6.77814,1.20166l-0.64691,5.14475c1.34488,-0.07196 2.33065,-0.10832 2.95731,-0.10832c0.32836,0 0.65742,0 0.98577,0c0.07197,-0.03561 0.14392,-0.07126 0.21589,-0.10757l0.10757,0.21589c-0.21589,3.12149 -0.40032,4.87786 -0.5547,5.26767l-0.21518,-0.12293c-0.15439,0 -1.54048,-0.07196 -4.15897,-0.21589c-0.14392,2.41378 -0.25221,5.29913 -0.32346,8.65747l-0.21589,0.10757c-3.30663,-0.21585 -5.27818,-0.40032 -5.91534,-0.55471c0.03636,-0.14393 0.07196,-0.28714 0.10828,-0.43107c0,-0.89356 0.14323,-3.66641 0.43107,-8.31792c-2.77289,-0.15443 -4.15898,-0.33885 -4.15898,-0.55474c0.14393,-3.43026 0.32835,-5.14471 0.55475,-5.14471l4.05066,0.76989c0,-0.44153 0,-0.8831 0,-1.32463c0,-1.0787 -0.04051,-2.53675 -0.12297,-4.37483c0.08246,0 0.12297,-0.03565 0.12297,-0.10761z" fill="url(#color-39)" stroke="url(#color-40)"/><path d="M83.71454,38.62749c0.32067,0.03142 0.32139,-0.32209 0.24383,0.24104c-0.30599,2.23421 -0.84674,4.41185 -1.29176,6.60559c-0.08872,0.76221 -0.969,2.08331 -0.31022,2.26708c1.43502,0.42195 4.59075,-0.64695 4.59075,-0.86285c0.57496,-3.55253 0.97037,-5.54507 1.18556,-5.97611c3.78942,0.78039 5.88949,1.24217 6.30031,1.38609c-2.20768,7.58924 -3.41914,11.54284 -3.63503,11.86073c-3.86134,2.71138 -6.03337,4.21064 -6.51615,4.4985c-0.14392,0 -2.60311,-0.60641 -7.37829,-1.81787c0,-0.03632 0,-0.07196 0,-0.10757c1.26317,-2.78339 2.04841,-4.17504 2.3565,-4.17504l4.69832,2.35718l2.2489,-3.85088c-2.02255,0.50303 -3.19836,0.75453 -3.52742,0.75453c-1.99741,-1.03748 -3.99475,-2.07422 -5.99216,-3.1117c0.72938,-6.69573 0.75731,-9.35125 1.38679,-10.04357c0.15998,-0.38496 4.78842,-0.04681 5.64007,-0.02515z" fill="url(#color-41)" stroke="url(#color-42)"/></g><path d="M123.86702,13.71321c7.30131,3.69135 11.05478,5.53772 11.25763,5.53772c0,0.32428 -1.52209,3.2553 -4.5649,8.79302c-0.07038,0 -0.14214,0 -0.21249,0c-0.24427,0 -3.74243,-1.65315 -10.4973,-4.95953l-3.43744,4.59387c5.82064,2.79854 12.89012,6.36987 21.20567,10.70979c-3.77277,6.71482 -6.44987,11.17621 -8.03131,13.38825l-17.1914,1.52072c-7.84911,-5.29349 -11.99726,-8.03268 -12.44436,-8.21487c0,-0.07176 0,-0.14211 0,-0.21386c0,-0.56719 1.59247,-3.17392 4.77738,-7.81883c0.1311,0 0.26358,0 0.39604,0c1.25715,0.75071 5.20239,2.91034 11.83446,6.48026l4.017,-4.56349c-12.19045,-6.20701 -18.94532,-9.71621 -20.26314,-10.52763c0,-0.06072 0,-0.12143 0,-0.18215c3.8735,-7.54554 5.98345,-11.3694 6.32845,-11.47012c10.0805,-2.04923 15.68861,-3.07315 16.8257,-3.07315z" fill="url(#color-43)" stroke="url(#color-44)" stroke-width="6.6502"/></g></g><text transform="translate(150.40551,65.85437) scale(0.30573,0.32548)" font-size="40" xml:space="preserve" fill="#000000" fill-rule="nonzero" stroke="none" stroke-width="1" stroke-linecap="butt" stroke-linejoin="miter" stroke-miterlimit="10" stroke-dasharray="" stroke-dashoffset="0" font-family="Sans Serif" font-weight="normal" text-anchor="start" style="mix-blend-mode: normal"><tspan x="0" dy="0">Sub-versions (e.g. 0.1.0.5) will not be added to this list.</tspan></text></g></g></svg>