<svg version="1.1" xmlns="http://www.w3.org/2000/svg" xmlns:xlink="http://www.w3.org/1999/xlink" width="66.32349" height="26.2205" viewBox="0,0,66.32349,26.2205"><defs><linearGradient x1="240.00002" y1="166.88975" x2="240.00002" y2="193.11025" gradientUnits="userSpaceOnUse" id="color-1"><stop offset="0" stop-color="#a7a7a7"/><stop offset="1" stop-color="#7c7c7c"/></linearGradient><linearGradient x1="213.65311" y1="175.68417" x2="213.65311" y2="185.602" gradientUnits="userSpaceOnUse" id="color-2"><stop offset="0" stop-color="#00395c"/><stop offset="1" stop-color="#003197"/></linearGradient><linearGradient x1="221.10289" y1="176.2884" x2="221.10289" y2="184.779" gradientUnits="userSpaceOnUse" id="color-3"><stop offset="0" stop-color="#00395c"/><stop offset="1" stop-color="#003197"/></linearGradient><linearGradient x1="228.04916" y1="175.38846" x2="228.04916" y2="185.47451" gradientUnits="userSpaceOnUse" id="color-4"><stop offset="0" stop-color="#00395c"/><stop offset="1" stop-color="#003197"/></linearGradient><linearGradient x1="237.42951" y1="175.31703" x2="237.42951" y2="184.89707" gradientUnits="userSpaceOnUse" id="color-5"><stop offset="0" stop-color="#00395c"/><stop offset="1" stop-color="#003197"/></linearGradient><linearGradient x1="246.80693" y1="175.57471" x2="246.80693" y2="185.04594" gradientUnits="userSpaceOnUse" id="color-6"><stop offset="0" stop-color="#00395c"/><stop offset="1" stop-color="#003197"/></linearGradient><linearGradient x1="256.48797" y1="174.59008" x2="256.48797" y2="185.12539" gradientUnits="userSpaceOnUse" id="color-7"><stop offset="0" stop-color="#00395c"/><stop offset="1" stop-color="#003197"/></linearGradient><linearGradient x1="265.72673" y1="174.398" x2="265.72673" y2="184.46603" gradientUnits="userSpaceOnUse" id="color-8"><stop offset="0" stop-color="#00395c"/><stop offset="1" stop-color="#003197"/></linearGradient><linearGradient x1="213.65315" y1="175.68417" x2="213.65315" y2="185.602" gradientUnits="userSpaceOnUse" id="color-9"><stop offset="0" stop-color="#5276bd"/><stop offset="1" stop-color="#69d9ff"/></linearGradient><linearGradient x1="221.10289" y1="176.28841" x2="221.10289" y2="184.77901" gradientUnits="userSpaceOnUse" id="color-10"><stop offset="0" stop-color="#5276bd"/><stop offset="1" stop-color="#69d9ff"/></linearGradient><linearGradient x1="228.04918" y1="175.38846" x2="228.04918" y2="185.47452" gradientUnits="userSpaceOnUse" id="color-11"><stop offset="0" stop-color="#5276bd"/><stop offset="1" stop-color="#69d9ff"/></linearGradient><linearGradient x1="237.4295" y1="175.31703" x2="237.4295" y2="184.89706" gradientUnits="userSpaceOnUse" id="color-12"><stop offset="0" stop-color="#5276bd"/><stop offset="1" stop-color="#69d9ff"/></linearGradient><linearGradient x1="246.80693" y1="175.57472" x2="246.80693" y2="185.04593" gradientUnits="userSpaceOnUse" id="color-13"><stop offset="0" stop-color="#5276bd"/><stop offset="1" stop-color="#69d9ff"/></linearGradient><linearGradient x1="256.48798" y1="174.59008" x2="256.48798" y2="185.12538" gradientUnits="userSpaceOnUse" id="color-14"><stop offset="0" stop-color="#5276bd"/><stop offset="1" stop-color="#69d9ff"/></linearGradient><linearGradient x1="265.72671" y1="174.39801" x2="265.72671" y2="184.46603" gradientUnits="userSpaceOnUse" id="color-15"><stop offset="0" stop-color="#5276bd"/><stop offset="1" stop-color="#69d9ff"/></linearGradient></defs><g transform="translate(-206.83828,-166.88975)"><g data-paper-data="{&quot;isPaintingLayer&quot;:true}" fill-rule="nonzero" stroke-linecap="butt" stroke-linejoin="miter" stroke-miterlimit="10" stroke-dasharray="" stroke-dashoffset="0" style="mix-blend-mode: normal"><path d="M207.98858,168.24891c0,0 19.17748,-1.35916 31.45205,-1.35916c12.80097,0 32.80089,1.35916 32.80089,1.35916c0,0 0.92025,7.32013 0.92025,11.46167c0,5.03048 -0.92025,12.04051 -0.92025,12.04051c0,0 -19.80915,1.35916 -32.34076,1.35916c-12.54392,0 -31.91217,-1.35916 -31.91217,-1.35916c0,0 -1.15031,-7.41612 -1.15031,-12.3803c0,-4.20785 1.15031,-11.12188 1.15031,-11.12188z" fill="#ffffff" stroke="url(#color-1)" stroke-width="0"/><g fill="none" stroke-width="1.5"><path d="M212.48824,175.68417l0.41321,3.55071l2.21694,0.07477l-0.28171,-3.38115l3.71893,-0.11282l-0.09346,9.26029l-2.78036,0.07477l-0.3004,-3.38049l-2.08543,0.45127l0.35714,2.83643l-2.83643,0.54406l-2.06607,-9.31636z" stroke="url(#color-2)"/><path d="M219.56251,176.2884l3.58743,0.751l-1.37115,7.57004l-2.72295,0.16956z" stroke="url(#color-3)"/><path d="M227.57921,182.78895l0.65754,-0.99599l-5.01465,-2.53536l1.91521,-3.26834l4.26366,-0.6008l2.94925,1.65219l-1.3331,2.51734l-2.63016,-1.7096l-0.61949,1.05206l5.14683,2.4606l-1.84111,3.66353l-4.9212,0.44993l-2.96794,-2.12215l1.37115,-2.23497z" stroke="url(#color-4)"/><path d="M242.11606,175.31703l0.16889,2.89317l-3.15552,0.4506l0.99532,6.06672l-3.79437,0.16956l-0.13084,-5.74829l-3.269,0.41388l-0.35647,-3.83242z" stroke="url(#color-5)"/><path d="M249.0913,176.13812l2.52402,2.56607l-0.52136,4.56873l-4.06806,1.77302l-4.13015,-1.62749l-0.89719,-4.52667l3.04604,-3.31707zM245.3784,179.3297l0.14553,2.12816l1.69024,0.6048l1.50199,-1.43924l-1.04338,-1.98196z" stroke="url(#color-6)"/><path d="M260.75363,177.03132l-0.6048,2.98262l-1.54338,1.12683l2.67021,2.29438l-3.37982,1.69024l-2.41988,-3.46326v2.8164l-3.00399,0.14619l-0.77169,-9.30435l5.6535,-0.7303zM255.47597,179.82635l1.66888,-0.33378l0.29239,-1.71027l-2.06541,-0.58411z" stroke="url(#color-7)"/><path d="M260.20406,175.69439l4.13282,-1.29639l1.27703,4.11346l2.36647,-3.47461l3.269,1.85913l-4.33976,4.4706l0.26368,3.09945l-3.88849,-0.20694l0.65754,-3.00465z" stroke="url(#color-8)"/></g><g stroke="none" stroke-width="1"><path d="M212.48824,175.68417l0.41321,3.55071l2.21694,0.07477l-0.28171,-3.38115l3.71893,-0.11282l-0.09346,9.26029l-2.78036,0.07477l-0.3004,-3.38049l-2.08543,0.45127l0.35714,2.83643l-2.83643,0.54406l-2.06607,-9.31636z" fill="url(#color-9)"/><path d="M219.56251,176.28841l3.58743,0.751l-1.37115,7.57004l-2.72295,0.16956z" fill="url(#color-10)"/><path d="M227.57921,182.78895l0.65754,-0.99599l-5.01465,-2.53536l1.91521,-3.26834l4.26366,-0.6008l2.94925,1.65219l-1.3331,2.51734l-2.63016,-1.7096l-0.61949,1.05206l5.14683,2.4606l-1.84111,3.66353l-4.9212,0.44993l-2.96794,-2.12215l1.37115,-2.23497z" fill="url(#color-11)"/><path d="M242.11607,175.31703l0.16889,2.89317l-3.15552,0.4506l0.99532,6.06672l-3.79437,0.16955l-0.13084,-5.74829l-3.269,0.41388l-0.35647,-3.83242z" fill="url(#color-12)"/><path d="M249.0913,176.13812l2.52402,2.56607l-0.52136,4.56873l-4.06806,1.77302l-4.13015,-1.6275l-0.89719,-4.52667l3.04604,-3.31707zM245.3784,179.3297l0.14553,2.12816l1.69024,0.6048l1.50199,-1.43924l-1.04338,-1.98197z" fill="url(#color-13)"/><path d="M260.75362,177.03132l-0.6048,2.98262l-1.54338,1.12683l2.67021,2.29438l-3.37982,1.69024l-2.41988,-3.46326v2.8164l-3.00399,0.14619l-0.77169,-9.30435l5.6535,-0.7303zM255.47597,179.82635l1.66888,-0.33378l0.29239,-1.71027l-2.06541,-0.58411z" fill="url(#color-14)"/><path d="M260.20407,175.69439l4.13282,-1.29639l1.27703,4.11346l2.36647,-3.47461l3.269,1.85913l-4.33976,4.4706l0.26368,3.09945l-3.88849,-0.20694l0.65754,-3.00465z" fill="url(#color-15)"/></g></g></g></svg>