<svg version="1.1" xmlns="http://www.w3.org/2000/svg" xmlns:xlink="http://www.w3.org/1999/xlink" width="1173.0908" height="551.67658" viewBox="0,0,1173.0908,551.67658"><defs><linearGradient x1="240.74999" y1="-3.19323" x2="240.74999" y2="373.80679" gradientUnits="userSpaceOnUse" id="color-1"><stop offset="0" stop-color="#6680ff"/><stop offset="1" stop-color="#55f9ff"/></linearGradient><linearGradient x1="268.59374" y1="33.05001" x2="268.59374" y2="68.80677" gradientUnits="userSpaceOnUse" id="color-2"><stop offset="0" stop-color="#8fadff"/><stop offset="1" stop-color="#8fadff" stop-opacity="0"/></linearGradient><linearGradient x1="202.24999" y1="72.18338" x2="202.24999" y2="192.96254" gradientUnits="userSpaceOnUse" id="color-3"><stop offset="0" stop-color="#bfd7ff"/><stop offset="1" stop-color="#bfd7ff" stop-opacity="0"/></linearGradient><linearGradient x1="355.24999" y1="53.18338" x2="355.24999" y2="173.96254" gradientUnits="userSpaceOnUse" id="color-4"><stop offset="0" stop-color="#bfd7ff"/><stop offset="1" stop-color="#bfd7ff" stop-opacity="0"/></linearGradient><radialGradient cx="459.24999" cy="31.80676" r="168.39507" gradientUnits="userSpaceOnUse" id="color-5"><stop offset="0" stop-color="#f8ff9e"/><stop offset="1" stop-color="#f8ff9e" stop-opacity="0"/></radialGradient><linearGradient x1="35.07998" y1="90.80676" x2="35.07998" y2="213.96254" gradientUnits="userSpaceOnUse" id="color-6"><stop offset="0" stop-color="#bfd7ff"/><stop offset="1" stop-color="#bfd7ff" stop-opacity="0"/></linearGradient><linearGradient x1="227.14078" y1="167.9444" x2="249.3592" y2="241.66917" gradientUnits="userSpaceOnUse" id="color-7"><stop offset="0" stop-color="#155e95" stop-opacity="0"/><stop offset="1" stop-color="#155e95"/></linearGradient><radialGradient cx="459.24999" cy="31.80677" r="74.5" gradientUnits="userSpaceOnUse" id="color-8"><stop offset="0" stop-color="#ffffff"/><stop offset="1" stop-color="#f8ff9e"/></radialGradient><linearGradient x1="76.59374" y1="17.80677" x2="76.59374" y2="64.80677" gradientUnits="userSpaceOnUse" id="color-9"><stop offset="0" stop-color="#8fadff"/><stop offset="1" stop-color="#8fadff" stop-opacity="0"/></linearGradient></defs><g transform="translate(348.29541,136.5883)"><g data-paper-data="{&quot;isPaintingLayer&quot;:true}" fill-rule="nonzero" stroke-linecap="butt" stroke-linejoin="miter" stroke-miterlimit="10" stroke-dasharray="" stroke-dashoffset="0" style="mix-blend-mode: normal"><path d="M-83.75001,-3.19323h649v377h-649z" data-paper-data="{&quot;origPos&quot;:null}" fill="url(#color-1)" stroke="#000000" stroke-width="0"/><path d="M273.26604,64.63795c-2.53275,2.52355 -6.68453,4.16883 -11.37669,4.16883c-6.81832,0 -12.49556,-3.47416 -13.72205,-8.06893c-2.04675,0.8365 -4.41973,1.31487 -6.94983,1.31487c-7.71403,0 -13.96748,-4.4469 -13.96748,-9.93243c0,-5.48553 6.25345,-9.93243 13.96748,-9.93243c0.84068,0 1.66402,0.05282 2.46381,0.15404c2.42385,-2.94419 6.91837,-4.9216 12.06237,-4.9216c3.08044,0 5.92798,0.70912 8.23739,1.91034c2.04625,-3.67856 7.09239,-6.28061 12.99318,-6.28061c6.55157,0 12.04959,3.20764 13.55786,7.53494c1.67135,-0.50282 3.50897,-0.78088 5.43792,-0.78088c7.71403,0 13.96748,4.4469 13.96748,9.93243c0,5.48553 -6.25345,9.93243 -13.96748,9.93243c-0.1848,0 -0.36875,-0.00256 -0.55181,-0.00761c-1.68791,4.13582 -7.05533,7.15896 -13.41568,7.15896c-3.30626,0 -6.34421,-0.8169 -8.73648,-2.18235z" data-paper-data="{&quot;origPos&quot;:null,&quot;index&quot;:null}" fill="url(#color-2)" stroke="none" stroke-width="0.5"/><path d="M126.82859,178.2039c-1.8671,-2.89234 -3.04109,-6.27413 -3.28701,-9.91045c-8.30604,-2.78089 -14.29158,-10.62485 -14.29158,-19.86682c0,-8.96583 5.63322,-16.61596 13.5534,-19.60409c-0.64028,-2.00835 -0.98584,-4.14827 -0.98584,-6.36888c0,-11.56813 9.37782,-20.94595 20.94594,-20.94595c3.7677,0 7.30305,0.99478 10.35773,2.73602c-0.19966,-1.16139 -0.30368,-2.35548 -0.30368,-3.57386c0,-11.56812 9.37782,-20.94594 20.94594,-20.94594c5.14884,0 9.86378,1.85778 13.51105,4.9396c3.252,-7.35098 10.60933,-12.48014 19.16463,-12.48014c11.56813,0 20.94594,9.37782 20.94594,20.94594c0,0.41947 -0.01233,0.83607 -0.03665,1.24943c7.42379,1.49308 13.42733,6.91124 15.75303,13.99688c3.03148,-1.70576 6.53042,-2.67874 10.2566,-2.67874c11.56813,0 20.94594,9.37782 20.94594,20.94595c0,2.67611 -0.50186,5.23499 -1.4166,7.58769c0.46815,-0.03127 0.94053,-0.04715 1.4166,-0.04715c11.56813,0 20.94594,9.37782 20.94594,20.94594c0,11.56813 -18.59403,33.51352 -30.16216,33.51352c-1.53662,0 -14.57028,4.31969 -23.79254,4.31969c-3.17185,0 -6.33153,-0.88219 -9.43005,-0.96834c-5.12202,-0.14241 -10.24879,0.08993 -15.372,0c-3.02111,-0.05303 -2.9754,-0.7837 -5.57394,-0.83784c-7.07742,-0.14746 -14.15801,0.03647 -21.23687,0c-6.88085,-0.03546 -13.93021,-1.38915 -20.80553,-1.67567c-7.62601,-0.31781 -12.11689,-0.88019 -20.06143,-1.67568c-0.64666,-0.06475 -1.2864,-0.10891 -1.9207,-0.14241c-0.80546,0.09405 -1.62487,0.14241 -2.45558,0.14241c-2.07611,0 -4.08167,-0.30205 -5.97514,-0.8646c-1.48433,-0.339 -2.97662,-0.87726 -4.49784,-1.75365c-3.8349,-2.20932 -5.84257,-4.38401 -7.13762,-6.98287z" data-paper-data="{&quot;origPos&quot;:null,&quot;index&quot;:null}" fill="url(#color-3)" stroke="none" stroke-width="0.5"/><path d="M423.53377,166.18675c-1.52122,0.87638 -3.0135,1.41464 -4.49783,1.75365c-1.89347,0.56255 -3.89903,0.8646 -5.97514,0.8646c-0.83071,0 -1.65012,-0.04836 -2.45558,-0.14241c-0.63431,0.0335 -1.27404,0.07766 -1.9207,0.14241c-7.94454,0.7955 -12.43542,1.35787 -20.06143,1.67568c-6.87532,0.28653 -13.92469,1.64022 -20.80553,1.67568c-7.07886,0.03647 -14.15945,-0.14745 -21.23687,0c-2.59854,0.05414 -2.55283,0.78481 -5.57395,0.83784c-5.12321,0.08993 -10.24998,-0.14241 -15.372,0c-3.09852,0.08615 -6.25821,0.96834 -9.43006,0.96834c-9.22226,0 -22.25592,-4.31969 -23.79254,-4.31969c-11.56813,0 -30.16216,-21.94539 -30.16216,-33.51351c0,-11.56813 9.37782,-20.94595 20.94595,-20.94595c0.47608,0 0.94844,0.01588 1.4166,0.04715c-0.91474,-2.35269 -1.4166,-4.91158 -1.4166,-7.58769c0,-11.56813 9.37782,-20.94595 20.94595,-20.94595c3.72619,0 7.22512,0.97298 10.2566,2.67874c2.3257,-7.08564 8.32924,-12.5038 15.75302,-13.99688c-0.02432,-0.41337 -0.03665,-0.82996 -0.03665,-1.24943c0,-11.56813 9.37782,-20.94595 20.94595,-20.94595c8.5553,0 15.91262,5.12916 19.16462,12.48014c3.64728,-3.08182 8.36221,-4.9396 13.51105,-4.9396c11.56813,0 20.94595,9.37782 20.94595,20.94595c0,1.21838 -0.10403,2.41247 -0.30368,3.57386c3.05469,-1.74124 6.59004,-2.73602 10.35774,-2.73602c11.56813,0 20.94595,9.37782 20.94595,20.94595c0,2.22062 -0.34556,4.36052 -0.98584,6.36888c7.92018,2.98814 13.5534,10.63826 13.5534,19.6041c0,9.24196 -5.98555,17.08592 -14.29159,19.86682c-0.24593,3.63633 -1.4199,7.01812 -3.28701,9.91046c-1.29505,2.59885 -3.30272,4.77354 -7.13762,6.98286z" data-paper-data="{&quot;origPos&quot;:null}" fill="url(#color-4)" stroke="none" stroke-width="0.5"/><path d="M294.24999,31.80676c0,-93.00203 73.87303,-168.39506 165,-168.39506c91.12698,0 165,75.39303 165,168.39506c0,93.00203 -73.87302,168.39507 -165,168.39507c-91.12697,0 -165,-75.39304 -165,-168.39507z" data-paper-data="{&quot;origPos&quot;:null}" fill="url(#color-5)" stroke="none" stroke-width="0"/><path d="M104.70741,206.03377c-1.55115,0.89363 -3.07279,1.44248 -4.58634,1.78815c-1.93073,0.57362 -3.97576,0.88161 -6.09272,0.88161c-0.84705,0 -1.68259,-0.04931 -2.5039,-0.14522c-0.64679,0.03416 -1.29911,0.07919 -1.9585,0.14522c-8.10086,0.81115 -12.68011,1.38459 -20.45618,1.70865c-7.01061,0.29216 -14.19869,1.6725 -21.21493,1.70865c-7.21816,0.03719 -14.43807,-0.15035 -21.65475,0c-2.64968,0.0552 -2.60307,0.80025 -5.68363,0.85432c-5.22402,0.0917 -10.45167,-0.14522 -15.67448,0c-3.15949,0.08785 -6.38136,0.9874 -9.61562,0.9874c-9.40373,0 -22.69385,-4.4047 -24.26071,-4.4047c-11.79576,0 -30.75567,-22.37721 -30.75567,-34.17297c0,-11.79576 9.56235,-21.35811 21.35811,-21.35811c0.48544,0 0.96711,0.0162 1.44447,0.04808c-0.93274,-2.39899 -1.44447,-5.00823 -1.44447,-7.737c0,-11.79576 9.56235,-21.35811 21.35811,-21.35811c3.79951,0 7.36729,0.99213 10.45842,2.73145c2.37146,-7.22507 8.49313,-12.74984 16.063,-14.2723c-0.0248,-0.4215 -0.03737,-0.84629 -0.03737,-1.27401c0,-11.79576 9.56235,-21.35811 21.35811,-21.35811c8.72364,0 16.22574,5.23008 19.54173,12.72571c3.71904,-3.14246 8.52675,-5.0368 13.77691,-5.0368c11.79576,0 21.35811,9.56235 21.35811,21.35811c0,1.24236 -0.10607,2.45994 -0.30966,3.64418c3.11479,-1.7755 6.71971,-2.78986 10.56155,-2.78986c11.79576,0 21.35811,9.56235 21.35811,21.35811c0,2.26431 -0.35236,4.44633 -1.00524,6.4942c8.07603,3.04693 13.8201,10.84759 13.8201,19.98985c0,9.42382 -6.10333,17.42213 -14.57281,20.25774c-0.25077,3.70788 -1.44784,7.15622 -3.35169,10.10547c-1.32053,2.64999 -3.3677,4.86747 -7.27807,7.12027z" data-paper-data="{&quot;origPos&quot;:null,&quot;index&quot;:null}" fill="url(#color-6)" stroke="none" stroke-width="0.5"/><path d="M245.38752,263.05836l-5.47586,-130.25949l35.86143,-11.59888c0,0 20.83133,5.6871 34.55522,4.47167c41.17173,-3.64629 61.43078,-13.1158 61.43078,-13.1158l25.1872,137.94392z" data-paper-data="{&quot;origPos&quot;:null,&quot;index&quot;:null,&quot;origRot&quot;:0}" fill="#818ba5" stroke="none" stroke-width="0"/><path d="M251.07932,113.92816c9.23913,-5.49074 14.8211,-4.88356 27.95748,-6.46515c6.14449,-0.73978 32.0295,-9.84147 40.20291,-11.45642c8.1734,-1.61495 26.8276,2.1116 46.51174,3.06327c19.68413,0.95168 20.78695,19.99279 20.78695,19.99279c0,0 -16.71624,12.01472 -30.73021,15.27718c-14.01396,3.26246 -14.63473,-2.78515 -42.39718,-3.25305c-16.21834,-0.27333 -32.95861,13.7504 -43.93065,14.66029c-10.97204,0.90989 -38.10793,0.2195 -38.10793,0.2195c0,0 -0.86123,-13.16036 3.38665,-20.44602c3.22873,-5.53769 7.08111,-6.10165 16.32023,-11.59239z" data-paper-data="{&quot;origPos&quot;:null,&quot;index&quot;:null,&quot;origRot&quot;:0}" fill="#61bf9e" stroke="none" stroke-width="0"/><path d="M367.2581,144.27924c13.62728,3.55876 24.95518,18.80695 24.95518,18.80695c0,0 -16.04211,7.02438 -23.31258,7.62124c-7.27046,0.59686 -18.635,-3.86513 -29.20463,-1.91932c-18.09302,3.33082 -31.62215,-16.00178 -18.70446,-15.60083c20.28731,0.62968 38.70069,-10.88383 46.26649,-8.90803z" data-paper-data="{&quot;origPos&quot;:null,&quot;index&quot;:null}" fill="#61bf9e" stroke="none" stroke-width="0"/><path d="M7.24999,323.80679l10,-150c0,0 24.65923,7.29356 69.06873,3.8992c14.80316,-1.13145 35.93127,-10.8992 35.93127,-10.8992l39.19216,4.44586l8.80784,148.55414z" data-paper-data="{&quot;origPos&quot;:null}" fill="#818ba5" stroke="none" stroke-width="0"/><path d="M130.15879,261.1982c0,0 -19.01069,9.37117 -32.16539,10.45108c-13.1547,1.07991 -33.71692,-6.99329 -52.84089,-3.47269c-32.73629,6.02656 -30.68195,19.76393 -54.06277,18.6234c-23.83932,-1.1629 -47.83975,-10.02606 -47.83975,-10.02606c0,0 2.88692,-23.43732 8.80038,-31.21444c8.71281,-11.45871 18.912,-9.17484 32.97955,-12.22754c23.08785,-5.01012 35.01416,-6.9459 44.99916,-6.63597c9.985,0.30992 30.50855,9.14152 37.92096,8.81053c15.8471,-0.70764 42.87197,-0.80757 54.88514,3.90113c12.01316,4.7087 7.32362,21.79056 7.32362,21.79056z" data-paper-data="{&quot;origPos&quot;:null}" fill="#61bf9e" stroke="none" stroke-width="0"/><path d="M-326.07699,415.08829l-22.21842,-73.72477l1150.87238,-346.83825l22.21842,73.72477z" data-paper-data="{&quot;origPos&quot;:null,&quot;origRot&quot;:0}" fill="url(#color-7)" stroke="none" stroke-width="0"/><path d="M384.74999,31.80677c0,-41.14521 33.35479,-74.5 74.5,-74.5c41.14521,0 74.5,33.35479 74.5,74.5c0,41.14521 -33.35479,74.5 -74.5,74.5c-41.14521,0 -74.5,-33.35479 -74.5,-74.5z" data-paper-data="{&quot;origPos&quot;:null}" fill="url(#color-8)" stroke="none" stroke-width="0"/><path d="M172.24999,175.79499c0,0 -17.08746,8.42313 -28.91135,9.39379c-11.82389,0.97066 -30.30592,-6.28581 -47.49519,-3.12137c-29.42449,5.41688 -27.57798,17.76449 -48.59346,16.73935c-21.42759,-1.04525 -43,-9.01176 -43,-9.01176c0,0 2.59486,-21.06626 7.91008,-28.0566c7.83137,-10.29948 16.99875,-8.24666 29.64314,-10.99053c20.75215,-4.50327 31.47192,-6.24321 40.44678,-5.96464c8.97486,0.27857 27.42212,8.21671 34.08465,7.9192c14.24391,-0.63605 38.53479,-0.72587 49.33263,3.50647c10.79784,4.23234 6.58272,19.5861 6.58272,19.5861z" data-paper-data="{&quot;origPos&quot;:null}" fill="#61bf9e" stroke="none" stroke-width="0"/><path d="M50.24999,164.80675l-0.60215,-47.19355c0,0 19.61531,5.65181 48.02784,4.47439c9.47084,-0.39247 22.98829,-3.78065 22.98829,-3.78065l26.19283,2.58277l4.39319,43.71392c0,0 -24.48329,8.07255 -53.99417,8.10054c-27.9057,0.02647 -47.00583,-7.89742 -47.00583,-7.89742z" data-paper-data="{&quot;origPos&quot;:null}" fill="#818ba5" stroke="none" stroke-width="0"/><path d="M67.36147,100.1018c8.20128,-2.14176 25.61149,9.06393 47.60284,8.38136c14.00271,-0.43463 40.65925,8.67292 40.65925,8.67292c0,0 7.02785,19.05986 -25.99526,20.67074c-14.00776,0.6833 -12.77698,-7.54694 -32.38973,-11.15753c-11.45742,-2.10924 -23.77653,2.72752 -31.65768,2.08053c-7.88116,-0.64699 -25.27072,-8.26138 -25.27072,-8.26138c0,0 12.27939,-16.52896 27.0513,-20.38664z" data-paper-data="{&quot;origPos&quot;:null,&quot;index&quot;:null}" fill="#61bf9e" stroke="none" stroke-width="0"/><path d="M64.52842,135.20232c6.43285,-1.3101 22.08891,6.32419 39.33828,5.90667c10.98332,-0.26586 -0.51988,12.55305 -15.90355,10.34447c-8.98687,-1.29021 -18.64962,1.66841 -24.83136,1.27265c-6.18175,-0.39576 -19.82162,-5.05343 -19.82162,-5.05343c0,0 9.6316,-10.11065 21.21825,-12.47037z" data-paper-data="{&quot;origPos&quot;:null,&quot;index&quot;:null}" fill="#61bf9e" stroke="none" stroke-width="0"/><path d="M58.96874,62.19566c-8.36028,0 -15.41541,-3.97373 -17.63406,-9.41001c-0.24061,0.00664 -0.48241,0.01 -0.72532,0.01c-10.13961,0 -18.35937,-5.84517 -18.35937,-13.05555c0,-7.21038 8.21977,-13.05555 18.35938,-13.05555c2.53548,0 4.95091,0.36549 7.1478,1.02642c1.98252,-5.68796 9.20933,-9.9042 17.82095,-9.9042c7.75621,0 14.38906,3.42022 17.07872,8.25546c3.03558,-1.57891 6.77849,-2.51102 10.82753,-2.51102c6.76147,0 12.66923,2.59918 15.85523,6.46914c1.05127,-0.13304 2.1335,-0.20247 3.23852,-0.20247c10.13961,0 18.35938,5.84517 18.35938,13.05556c0,7.21039 -8.21977,13.05555 -18.35937,13.05555c-3.32565,0 -6.44479,-0.62879 -9.13511,-1.72832c-1.61214,6.03954 -9.07452,10.6061 -18.03677,10.6061c-6.16755,0 -11.6248,-2.16262 -14.95395,-5.47967c-3.1445,1.7948 -7.13769,2.86856 -11.48355,2.86856z" data-paper-data="{&quot;origPos&quot;:null}" fill="url(#color-9)" stroke="none" stroke-width="0.5"/></g></g></svg>