<svg version="1.1" xmlns="http://www.w3.org/2000/svg" xmlns:xlink="http://www.w3.org/1999/xlink" width="696.18507" height="294.05556" viewBox="0,0,696.18507,294.05556"><defs><linearGradient x1="28.24999" y1="265.81908" x2="607.24999" y2="265.81908" gradientUnits="userSpaceOnUse" id="color-1"><stop offset="0" stop-color="#d5deeb"/><stop offset="1" stop-color="#a2a6b9"/></linearGradient><linearGradient x1="212.65627" y1="136.99078" x2="212.65627" y2="225.8068" gradientUnits="userSpaceOnUse" id="color-2"><stop offset="0" stop-color="#6df372"/><stop offset="1" stop-color="#369239"/></linearGradient><linearGradient x1="225.75064" y1="141.00866" x2="225.75064" y2="225.59533" gradientUnits="userSpaceOnUse" id="color-3"><stop offset="0" stop-color="#60d664"/><stop offset="1" stop-color="#328835"/></linearGradient><linearGradient x1="212.65627" y1="136.99078" x2="212.65627" y2="225.8068" gradientUnits="userSpaceOnUse" id="color-4"><stop offset="0" stop-color="#59c75d"/><stop offset="1" stop-color="#266628"/></linearGradient><linearGradient x1="6.37013" y1="242.47916" x2="39.50597" y2="344.23387" gradientUnits="userSpaceOnUse" id="color-5"><stop offset="0" stop-color="#6df372"/><stop offset="1" stop-color="#369239"/></linearGradient><linearGradient x1="22.87109" y1="242.19705" x2="54.42903" y2="339.10629" gradientUnits="userSpaceOnUse" id="color-6"><stop offset="0" stop-color="#60d664"/><stop offset="1" stop-color="#328835"/></linearGradient><linearGradient x1="6.37013" y1="242.47917" x2="39.50597" y2="344.23387" gradientUnits="userSpaceOnUse" id="color-7"><stop offset="0" stop-color="#59c75d"/><stop offset="1" stop-color="#266628"/></linearGradient><linearGradient x1="452.52044" y1="107.21375" x2="444.85304" y2="161.49087" gradientUnits="userSpaceOnUse" id="color-8"><stop offset="0" stop-color="#6df372"/><stop offset="1" stop-color="#369239"/></linearGradient><linearGradient x1="460.17579" y1="110.79958" x2="452.87351" y2="162.49203" gradientUnits="userSpaceOnUse" id="color-9"><stop offset="0" stop-color="#60d664"/><stop offset="1" stop-color="#328835"/></linearGradient><linearGradient x1="452.52044" y1="107.21375" x2="444.85304" y2="161.49087" gradientUnits="userSpaceOnUse" id="color-10"><stop offset="0" stop-color="#59c75d"/><stop offset="1" stop-color="#266628"/></linearGradient><linearGradient x1="63.24999" y1="260.80677" x2="479.24998" y2="260.80677" gradientUnits="userSpaceOnUse" id="color-11"><stop offset="0" stop-color="#ffb621"/><stop offset="1" stop-color="#de8835"/></linearGradient><linearGradient x1="415.94916" y1="307.8068" x2="479.24999" y2="307.8068" gradientUnits="userSpaceOnUse" id="color-12"><stop offset="0" stop-color="#e49031"/><stop offset="1" stop-color="#de8835"/></linearGradient><linearGradient x1="120.24999" y1="204.21108" x2="120.24999" y2="253.80694" gradientUnits="userSpaceOnUse" id="color-13"><stop offset="0" stop-color="#4fb952"/><stop offset="1" stop-color="#409843"/></linearGradient><linearGradient x1="474.24999" y1="291.21108" x2="474.24999" y2="340.80694" gradientUnits="userSpaceOnUse" id="color-14"><stop offset="0" stop-color="#4fb952"/><stop offset="1" stop-color="#409843"/></linearGradient></defs><g transform="translate(82.87086,-110.42388)"><g data-paper-data="{&quot;isPaintingLayer&quot;:true}" fill-rule="nonzero" stroke-linejoin="miter" stroke-miterlimit="10" stroke-dasharray="" stroke-dashoffset="0" style="mix-blend-mode: normal"><path d="M265.24999,399.8068l-348.12085,4.67265c0,0 117.21099,-140.40225 190.58191,-178.95483c109.11277,-58.65775 370.53894,-84.71781 370.53894,-84.71781l71,7v252z" data-paper-data="{&quot;origPos&quot;:null}" fill="#60d664" stroke="none" stroke-width="0" stroke-linecap="butt"/><path d="M105.24999,292.8068c35.91213,-28.15646 85.539,-60.44095 136,-79c50.461,-18.55905 105.62031,-33.72459 175.32432,-48.72072c69.70401,-14.99613 84.23243,-13.55064 84.23243,-13.55064l62.54837,-1.70405l43.89488,21.97541c0,0 -77.83026,40.23796 -111.33333,73.66667c-33.50307,33.42871 -52.19597,53.62925 -55.63906,77.96843c-4.6946,33.18609 29.97239,58.36491 29.97239,58.36491l-442,-1c0,0 41.08787,-59.84355 77,-88.00001z" data-paper-data="{&quot;origPos&quot;:null}" fill="url(#color-1)" stroke="#ebebeb" stroke-width="5.5" stroke-linecap="round"/><g data-paper-data="{&quot;origPos&quot;:null}" stroke-linecap="butt"><path d="M172.02153,225.8068l-25.41889,-8.54061l-3.27432,-47.58339l106.51294,-32.69201l23.68427,4.22933l8.45867,43.1392z" data-paper-data="{&quot;origPos&quot;:null}" fill="url(#color-2)" stroke="none" stroke-width="0"/><path d="M171.19224,225.59533l-2.96053,-46.09974l105.73334,-38.48694l9.30453,43.1392z" data-paper-data="{&quot;origPos&quot;:null}" fill="url(#color-3)" stroke="none" stroke-width="0"/><path d="M172.02153,225.8068l-25.41889,-8.5406l-3.27432,-47.58339l25.73267,9.17839z" data-paper-data="{&quot;origPos&quot;:null}" fill="url(#color-4)" stroke="none" stroke-width="0"/><path d="M263.10975,152.85079c0,-1.86864 1.51483,-3.38347 3.38347,-3.38347c1.86864,0 3.38347,1.51483 3.38347,3.38347c0,1.86864 -1.51483,3.38347 -3.38347,3.38347c-1.86864,0 -3.38347,-1.51483 -3.38347,-3.38347z" data-paper-data="{&quot;origPos&quot;:null}" fill="#e6eb4a" stroke="#ff6767" stroke-width="4"/><path d="M257.04771,183.72491c0,-1.86864 1.51483,-3.38347 3.38347,-3.38347c1.86864,0 3.38347,1.51483 3.38347,3.38347c0,1.86864 -1.51483,3.38347 -3.38347,3.38347c-1.86864,0 -3.38347,-1.51483 -3.38347,-3.38347z" data-paper-data="{&quot;origPos&quot;:null}" fill="#e6eb4a" stroke="#ff6767" stroke-width="4"/><path d="M254.51011,170.33203c0,-1.86864 1.51483,-3.38347 3.38347,-3.38347c1.86864,0 3.38347,1.51483 3.38347,3.38347c0,1.86864 -1.51483,3.38347 -3.38347,3.38347c-1.86864,0 -3.38347,-1.51483 -3.38347,-3.38347z" data-paper-data="{&quot;origPos&quot;:null}" fill="#e6eb4a" stroke="#ff6767" stroke-width="4"/><path d="M210.66601,174.27942c0,-1.86864 1.51483,-3.38347 3.38347,-3.38347c1.86864,0 3.38347,1.51483 3.38347,3.38347c0,1.86864 -1.51483,3.38347 -3.38347,3.38347c-1.86864,0 -3.38347,-1.51483 -3.38347,-3.38347z" data-paper-data="{&quot;origPos&quot;:null}" fill="#e6eb4a" stroke="#ff6767" stroke-width="4"/><path d="M218.70175,197.54074c0,-1.86864 1.51483,-3.38347 3.38347,-3.38347c1.86864,0 3.38347,1.51483 3.38347,3.38347c0,1.86864 -1.51483,3.38347 -3.38347,3.38347c-1.86864,0 -3.38347,-1.51483 -3.38347,-3.38347z" data-paper-data="{&quot;origPos&quot;:null}" fill="#e6eb4a" stroke="#ff6767" stroke-width="4"/><path d="M203.05321,187.39034c0,-1.86864 1.51483,-3.38347 3.38347,-3.38347c1.86864,0 3.38347,1.51483 3.38347,3.38347c0,1.86864 -1.51483,3.38347 -3.38347,3.38347c-1.86864,0 -3.38347,-1.51483 -3.38347,-3.38347z" data-paper-data="{&quot;origPos&quot;:null}" fill="#e6eb4a" stroke="#ff6767" stroke-width="4"/><path d="M239.9894,163.42413c0,-1.86864 1.51483,-3.38347 3.38347,-3.38347c1.86864,0 3.38347,1.51483 3.38347,3.38347c0,1.86864 -1.51483,3.38347 -3.38347,3.38347c-1.86864,0 -3.38347,-1.51483 -3.38347,-3.38347z" data-paper-data="{&quot;origPos&quot;:null}" fill="#e6eb4a" stroke="#ff6767" stroke-width="4"/><path d="M234.35028,184.85274c0,-1.86864 1.51483,-3.38347 3.38347,-3.38347c1.86864,0 3.38347,1.51483 3.38347,3.38347c0,1.86864 -1.51483,3.38347 -3.38347,3.38347c-1.86864,0 -3.38347,-1.51483 -3.38347,-3.38347z" data-paper-data="{&quot;origPos&quot;:null}" fill="#e6eb4a" stroke="#ff6767" stroke-width="4"/><path d="M194.45357,204.1667c0,-1.86864 1.51483,-3.38347 3.38347,-3.38347c1.86864,0 3.38347,1.51483 3.38347,3.38347c0,1.86864 -1.51483,3.38347 -3.38347,3.38347c-1.86864,0 -3.38347,-1.51483 -3.38347,-3.38347z" data-paper-data="{&quot;origPos&quot;:null}" fill="#e6eb4a" stroke="#ff6767" stroke-width="4"/><path d="M177.67721,187.67231c0,-1.86864 1.51483,-3.38347 3.38347,-3.38347c1.86864,0 3.38347,1.51483 3.38347,3.38347c0,1.86864 -1.51483,3.38347 -3.38347,3.38347c-1.86864,0 -3.38347,-1.51483 -3.38347,-3.38347z" data-paper-data="{&quot;origPos&quot;:null}" fill="#e6eb4a" stroke="#ff6767" stroke-width="4"/><path d="M177.95917,211.92047c0,-1.86864 1.51483,-3.38347 3.38347,-3.38347c1.86864,0 3.38347,1.51483 3.38347,3.38347c0,1.86864 -1.51483,3.38347 -3.38347,3.38347c-1.86864,0 -3.38347,-1.51483 -3.38347,-3.38347z" data-paper-data="{&quot;origPos&quot;:null}" fill="#e6eb4a" stroke="#ff6767" stroke-width="4"/><path d="M160.91099,201.06519c0,-1.86864 1.13385,-3.38347 2.53253,-3.38347c1.39868,0 2.53254,1.51483 2.53254,3.38347c0,1.86864 -1.13385,3.38347 -2.53254,3.38347c-1.39868,0 -2.53253,-1.51483 -2.53253,-3.38347z" data-paper-data="{&quot;origPos&quot;:null}" fill="#ebc249" stroke="#c73e3e" stroke-width="4"/><path d="M150.04556,185.69861c0,-1.86864 1.13385,-3.38347 2.53253,-3.38347c1.39868,0 2.53253,1.51483 2.53253,3.38347c0,1.86864 -1.13385,3.38347 -2.53253,3.38347c-1.39868,0 -2.53253,-1.51483 -2.53253,-3.38347z" data-paper-data="{&quot;origPos&quot;:null}" fill="#ebc249" stroke="#c73e3e" stroke-width="4"/><path d="M150.25661,209.94678c0,-1.86864 1.13385,-3.38347 2.53254,-3.38347c1.39868,0 2.53253,1.51483 2.53253,3.38347c0,1.86864 -1.13385,3.38347 -2.53253,3.38347c-1.39868,0 -2.53254,-1.51483 -2.53254,-3.38347z" data-paper-data="{&quot;origPos&quot;:null}" fill="#ebc249" stroke="#c73e3e" stroke-width="4"/><path d="M158.32168,170.19919c-0.30098,-1.16101 0.92535,-2.3583 2.73909,-2.67423c1.81374,-0.31593 3.52806,0.36914 3.82904,1.53014c0.30098,1.16101 -0.92535,2.3583 -2.73909,2.67423c-1.81374,0.31593 -3.52806,-0.36914 -3.82904,-1.53014z" data-paper-data="{&quot;origPos&quot;:null,&quot;origRot&quot;:0}" fill="#e5ea49" stroke="#ff8484" stroke-width="4"/><path d="M172.98337,171.60896c-0.30098,-1.16101 0.92535,-2.3583 2.73909,-2.67423c1.81374,-0.31593 3.52806,0.36914 3.82904,1.53014c0.30098,1.16101 -0.92535,2.3583 -2.73909,2.67423c-1.81374,0.31593 -3.52806,-0.36914 -3.82904,-1.53014z" data-paper-data="{&quot;origPos&quot;:null,&quot;origRot&quot;:0}" fill="#e5ea49" stroke="#ff8484" stroke-width="4"/><path d="M184.8255,161.74051c-0.30098,-1.16101 0.92535,-2.3583 2.73909,-2.67423c1.81374,-0.31593 3.52806,0.36914 3.82904,1.53014c0.30098,1.16101 -0.92535,2.3583 -2.73909,2.67423c-1.81374,0.31593 -3.52806,-0.36914 -3.82904,-1.53014z" data-paper-data="{&quot;origPos&quot;:null,&quot;origRot&quot;:0}" fill="#e5ea49" stroke="#ff8484" stroke-width="4"/><path d="M203.43457,159.48486c-0.30098,-1.16101 0.92535,-2.3583 2.73909,-2.67423c1.81374,-0.31593 3.52806,0.36914 3.82904,1.53014c0.30098,1.16101 -0.92535,2.3583 -2.73909,2.67423c-1.81374,0.31593 -3.52806,-0.36914 -3.82904,-1.53014z" data-paper-data="{&quot;origPos&quot;:null,&quot;origRot&quot;:0}" fill="#e5ea49" stroke="#ff8484" stroke-width="4"/><path d="M216.40453,152.29501c-0.30098,-1.16101 0.92535,-2.3583 2.73909,-2.67423c1.81374,-0.31593 3.52806,0.36914 3.82904,1.53014c0.30098,1.16101 -0.92535,2.3583 -2.73909,2.67423c-1.81374,0.31593 -3.52806,-0.36914 -3.82904,-1.53014z" data-paper-data="{&quot;origPos&quot;:null,&quot;origRot&quot;:0}" fill="#e5ea49" stroke="#ff8484" stroke-width="4"/><path d="M230.22035,150.60324c-0.30098,-1.16101 0.92535,-2.3583 2.73909,-2.67423c1.81374,-0.31593 3.52806,0.36914 3.82904,1.53014c0.30098,1.16101 -0.92535,2.3583 -2.73909,2.67423c-1.81374,0.31593 -3.52806,-0.36914 -3.82904,-1.53014z" data-paper-data="{&quot;origPos&quot;:null,&quot;origRot&quot;:0}" fill="#e5ea49" stroke="#ff8484" stroke-width="4"/><path d="M245.16399,146.23296c-0.30098,-1.16101 0.92535,-2.3583 2.73909,-2.67423c1.81374,-0.31593 3.52806,0.36914 3.82904,1.53014c0.30098,1.16101 -0.92535,2.3583 -2.73909,2.67423c-1.81374,0.31593 -3.52806,-0.36914 -3.82904,-1.53014z" data-paper-data="{&quot;origPos&quot;:null,&quot;origRot&quot;:0}" fill="#e5ea49" stroke="#ff8484" stroke-width="4"/></g><g data-paper-data="{&quot;origPos&quot;:null,&quot;origRot&quot;:0}" stroke-width="4.5" stroke-linecap="butt"><path d="M-7.04842,359.39404l-32.30827,-0.30141l-21.50392,-53.29373l109.83286,-77.19287l28.71248,-3.99077l25.78548,46.26792z" data-paper-data="{&quot;origPos&quot;:null}" fill="url(#color-5)" stroke="none"/><path d="M-8.07743,359.46117l-20.59091,-51.71101l106.77769,-83.54114l26.75457,45.95234z" data-paper-data="{&quot;origPos&quot;:null}" fill="url(#color-6)" stroke="none"/><path d="M-7.04842,359.39404l-32.30827,-0.30141l-21.50393,-53.29374l32.90571,0.91505z" data-paper-data="{&quot;origPos&quot;:null}" fill="url(#color-7)" stroke="none"/><path d="M70.09078,241.82626c-0.69716,-2.14086 0.47319,-4.44153 2.61405,-5.13869c2.14086,-0.69716 4.44153,0.47319 5.13869,2.61405c0.69716,2.14086 -0.47319,4.44153 -2.61406,5.13869c-2.14086,0.69716 -4.44152,-0.47319 -5.13868,-2.61405z" data-paper-data="{&quot;origPos&quot;:null}" fill="#e6eb4a" stroke="#ff6767"/><path d="M74.66427,279.45975c-0.69716,-2.14086 0.47319,-4.44153 2.61406,-5.13869c2.14086,-0.69716 4.44152,0.47319 5.13868,2.61405c0.69716,2.14086 -0.47319,4.44152 -2.61405,5.13868c-2.14086,0.69716 -4.44153,-0.47319 -5.13869,-2.61405z" data-paper-data="{&quot;origPos&quot;:null}" fill="#e6eb4a" stroke="#ff6767"/><path d="M66.76031,265.06255c-0.69716,-2.14086 0.47319,-4.44153 2.61405,-5.13869c2.14086,-0.69716 4.44153,0.47319 5.13869,2.61406c0.69716,2.14086 -0.47319,4.44152 -2.61405,5.13868c-2.14086,0.69716 -4.44153,-0.47319 -5.13869,-2.61405z" data-paper-data="{&quot;origPos&quot;:null}" fill="#e6eb4a" stroke="#ff6767"/><path d="M18.00173,285.94252c-0.69716,-2.14086 0.47319,-4.44152 2.61405,-5.13868c2.14086,-0.69716 4.44152,0.47319 5.13868,2.61405c0.69716,2.14086 -0.47319,4.44152 -2.61405,5.13868c-2.14086,0.69716 -4.44152,-0.47319 -5.13868,-2.61405z" data-paper-data="{&quot;origPos&quot;:null}" fill="#e6eb4a" stroke="#ff6767"/><path d="M35.88654,309.59455c-0.69716,-2.14086 0.47319,-4.44153 2.61406,-5.13869c2.14086,-0.69716 4.44152,0.47319 5.13868,2.61405c0.69716,2.14086 -0.47319,4.44152 -2.61405,5.13868c-2.14086,0.69716 -4.44153,-0.47319 -5.13869,-2.61405z" data-paper-data="{&quot;origPos&quot;:null}" fill="#e6eb4a" stroke="#ff6767"/><path d="M14.17137,303.80367c-0.69716,-2.14086 0.47319,-4.44153 2.61405,-5.13869c2.14086,-0.69716 4.44153,0.47319 5.13869,2.61406c0.69716,2.14086 -0.47319,4.44152 -2.61405,5.13868c-2.14086,0.69716 -4.44153,-0.47319 -5.13869,-2.61405z" data-paper-data="{&quot;origPos&quot;:null}" fill="#e6eb4a" stroke="#ff6767"/><path d="M47.547,262.56574c-0.69716,-2.14086 0.47319,-4.44153 2.61405,-5.13869c2.14086,-0.69716 4.44153,0.47319 5.13869,2.61406c0.69716,2.14086 -0.47319,4.44152 -2.61405,5.13868c-2.14086,0.69716 -4.44153,-0.47319 -5.13869,-2.61405z" data-paper-data="{&quot;origPos&quot;:null}" fill="#e6eb4a" stroke="#ff6767"/><path d="M49.08106,289.21995c-0.69716,-2.14086 0.47319,-4.44153 2.61405,-5.13869c2.14086,-0.69716 4.44153,0.47319 5.13869,2.61406c0.69716,2.14086 -0.47319,4.44152 -2.61405,5.13868c-2.14086,0.69716 -4.44153,-0.47319 -5.13869,-2.61405z" data-paper-data="{&quot;origPos&quot;:null}" fill="#e6eb4a" stroke="#ff6767"/><path d="M10.57793,326.23239c-0.69716,-2.14086 0.47319,-4.44152 2.61405,-5.13868c2.14086,-0.69716 4.44152,0.47319 5.13868,2.61405c0.69716,2.14086 -0.47319,4.44153 -2.61405,5.13869c-2.14086,0.69716 -4.44153,-0.47319 -5.13869,-2.61406z" data-paper-data="{&quot;origPos&quot;:null}" fill="#e6eb4a" stroke="#ff6767"/><path d="M-14.79621,313.59407c-0.69716,-2.14086 0.47319,-4.44152 2.61405,-5.13868c2.14086,-0.69716 4.44153,0.47319 5.13869,2.61405c0.69716,2.14086 -0.47319,4.44153 -2.61405,5.13869c-2.14086,0.69716 -4.44153,-0.47319 -5.13869,-2.61406z" data-paper-data="{&quot;origPos&quot;:null}" fill="#e6eb4a" stroke="#ff6767"/><path d="M-5.42656,341.26953c-0.69716,-2.14086 0.47319,-4.44153 2.61406,-5.13869c2.14086,-0.69716 4.44152,0.47319 5.13868,2.61405c0.69716,2.14086 -0.47319,4.44152 -2.61405,5.13868c-2.14086,0.69716 -4.44153,-0.47319 -5.13869,-2.61405z" data-paper-data="{&quot;origPos&quot;:null}" fill="#e6eb4a" stroke="#ff6767"/><path d="M-29.00825,335.19326c-0.69716,-2.14086 0.03671,-4.29939 1.63916,-4.82122c1.60245,-0.52183 3.46663,0.79066 4.16379,2.93152c0.69716,2.14086 -0.03671,4.29939 -1.63916,4.82122c-1.60245,0.52183 -3.46663,-0.79066 -4.16379,-2.93152z" data-paper-data="{&quot;origPos&quot;:null}" fill="#ebc249" stroke="#c73e3e"/><path d="M-47.18958,321.64179c-0.69716,-2.14086 0.03671,-4.29939 1.63916,-4.82122c1.60245,-0.52183 3.46663,0.79066 4.16379,2.93152c0.69716,2.14086 -0.0367,4.29939 -1.63915,4.82122c-1.60245,0.52183 -3.46663,-0.79066 -4.16379,-2.93152z" data-paper-data="{&quot;origPos&quot;:null}" fill="#ebc249" stroke="#c73e3e"/><path d="M-37.90117,349.3437c-0.69716,-2.14086 0.03671,-4.29939 1.63916,-4.82122c1.60245,-0.52183 3.46663,0.79066 4.16379,2.93152c0.69716,2.14086 -0.03671,4.29939 -1.63916,4.82122c-1.60245,0.52183 -3.46663,-0.79066 -4.16379,-2.93152z" data-paper-data="{&quot;origPos&quot;:null}" fill="#ebc249" stroke="#c73e3e"/><path d="M-43.49039,300.79672c-0.77798,-1.21785 0.18031,-3.0471 2.14041,-4.08573c1.96009,-1.03863 4.17974,-0.89335 4.95773,0.3245c0.77798,1.21785 -0.18031,3.0471 -2.1404,4.08573c-1.96009,1.03863 -4.17975,0.89335 -4.95773,-0.3245z" data-paper-data="{&quot;origPos&quot;:null,&quot;origRot&quot;:0}" fill="#e5ea49" stroke="#ff8484"/><path d="M-26.16682,296.94184c-0.77798,-1.21785 0.18031,-3.04709 2.1404,-4.08572c1.96009,-1.03863 4.17975,-0.89335 4.95773,0.32449c0.77798,1.21785 -0.18031,3.0471 -2.1404,4.08573c-1.96009,1.03863 -4.17975,0.89335 -4.95773,-0.3245z" data-paper-data="{&quot;origPos&quot;:null,&quot;origRot&quot;:0}" fill="#e5ea49" stroke="#ff8484"/><path d="M-16.28128,281.21763c-0.77798,-1.21785 0.18031,-3.0471 2.1404,-4.08573c1.96009,-1.03863 4.17975,-0.89335 4.95773,0.3245c0.77798,1.21785 -0.18032,3.04709 -2.14041,4.08572c-1.96009,1.03863 -4.17974,0.89335 -4.95772,-0.3245z" data-paper-data="{&quot;origPos&quot;:null,&quot;origRot&quot;:0}" fill="#e5ea49" stroke="#ff8484"/><path d="M4.1972,271.69065c-0.77798,-1.21785 0.18031,-3.0471 2.1404,-4.08573c1.96009,-1.03863 4.17975,-0.89335 4.95773,0.3245c0.77798,1.21785 -0.18031,3.0471 -2.1404,4.08573c-1.96009,1.03863 -4.17975,0.89335 -4.95773,-0.3245z" data-paper-data="{&quot;origPos&quot;:null,&quot;origRot&quot;:0}" fill="#e5ea49" stroke="#ff8484"/><path d="M16.3742,258.61449c-0.77798,-1.21785 0.18031,-3.04709 2.1404,-4.08572c1.96009,-1.03863 4.17975,-0.89335 4.95773,0.3245c0.77798,1.21785 -0.18031,3.04709 -2.1404,4.08572c-1.96009,1.03863 -4.17975,0.89335 -4.95773,-0.3245z" data-paper-data="{&quot;origPos&quot;:null,&quot;origRot&quot;:0}" fill="#e5ea49" stroke="#ff8484"/><path d="M31.57155,251.52183c-0.77798,-1.21785 0.18031,-3.0471 2.1404,-4.08573c1.96009,-1.03863 4.17975,-0.89335 4.95773,0.3245c0.77798,1.21785 -0.18031,3.04709 -2.1404,4.08572c-1.96009,1.03863 -4.17975,0.89335 -4.95773,-0.32449z" data-paper-data="{&quot;origPos&quot;:null,&quot;origRot&quot;:0}" fill="#e5ea49" stroke="#ff8484"/><path d="M47.06168,240.93962c-0.77798,-1.21785 0.18031,-3.0471 2.1404,-4.08573c1.96009,-1.03863 4.17975,-0.89335 4.95773,0.3245c0.77798,1.21785 -0.18031,3.04709 -2.1404,4.08572c-1.96009,1.03863 -4.17975,0.89335 -4.95773,-0.32449z" data-paper-data="{&quot;origPos&quot;:null,&quot;origRot&quot;:0}" fill="#e5ea49" stroke="#ff8484"/></g><g data-paper-data="{&quot;origPos&quot;:null,&quot;origRot&quot;:0}" stroke-width="2" stroke-linecap="butt"><path d="M420.02039,157.9829l-14.79666,-7.41371l2.10683,-29.36177l67.91432,-10.78354l14.10878,4.62926l1.44509,27.0934z" data-paper-data="{&quot;origPos&quot;:null}" fill="url(#color-8)" stroke="none"/><path d="M419.53185,157.78211l2.17051,-28.42799l67.93816,-14.39223l1.96201,27.16642z" data-paper-data="{&quot;origPos&quot;:null}" fill="url(#color-9)" stroke="none"/><path d="M420.02039,157.9829l-14.79666,-7.41371l2.10683,-29.36177l14.93335,7.83056z" data-paper-data="{&quot;origPos&quot;:null}" fill="url(#color-10)" stroke="none"/><path d="M481.98432,121.26171c0.16132,-1.14196 1.21783,-1.93693 2.35979,-1.77561c1.14196,0.16132 1.93693,1.21783 1.77561,2.35979c-0.16132,1.14196 -1.21783,1.93692 -2.35979,1.77561c-1.14196,-0.16132 -1.93693,-1.21783 -1.77561,-2.35979z" data-paper-data="{&quot;origPos&quot;:null}" fill="#e6eb4a" stroke="#ff6767"/><path d="M475.61436,139.60611c0.16132,-1.14196 1.21783,-1.93692 2.35979,-1.77561c1.14196,0.16132 1.93693,1.21783 1.77561,2.35979c-0.16132,1.14196 -1.21783,1.93693 -2.35979,1.77561c-1.14196,-0.16132 -1.93693,-1.21783 -1.77561,-2.35979z" data-paper-data="{&quot;origPos&quot;:null}" fill="#e6eb4a" stroke="#ff6767"/><path d="M475.21978,131.20243c0.16132,-1.14196 1.21783,-1.93693 2.35979,-1.77561c1.14196,0.16132 1.93692,1.21783 1.77561,2.35979c-0.16132,1.14196 -1.21783,1.93693 -2.35979,1.77561c-1.14196,-0.16132 -1.93693,-1.21783 -1.77561,-2.35979z" data-paper-data="{&quot;origPos&quot;:null}" fill="#e6eb4a" stroke="#ff6767"/><path d="M448.08506,129.8297c0.16132,-1.14196 1.21783,-1.93693 2.35979,-1.77561c1.14196,0.16132 1.93693,1.21783 1.77561,2.35979c-0.16132,1.14196 -1.21783,1.93693 -2.35979,1.77561c-1.14196,-0.16132 -1.93693,-1.21783 -1.77561,-2.35979z" data-paper-data="{&quot;origPos&quot;:null}" fill="#e6eb4a" stroke="#ff6767"/><path d="M450.98772,144.73887c0.16132,-1.14196 1.21783,-1.93692 2.35979,-1.77561c1.14196,0.16132 1.93693,1.21783 1.77561,2.35979c-0.16132,1.14196 -1.21783,1.93693 -2.35979,1.77561c-1.14196,-0.16132 -1.93693,-1.21783 -1.77561,-2.35979z" data-paper-data="{&quot;origPos&quot;:null}" fill="#e6eb4a" stroke="#ff6767"/><path d="M442.30088,137.18481c0.16132,-1.14196 1.21783,-1.93693 2.35979,-1.77561c1.14196,0.16132 1.93692,1.21783 1.77561,2.35979c-0.16132,1.14196 -1.21783,1.93693 -2.35979,1.77561c-1.14196,-0.16132 -1.93693,-1.21783 -1.77561,-2.35979z" data-paper-data="{&quot;origPos&quot;:null}" fill="#e6eb4a" stroke="#ff6767"/><path d="M466.94225,125.72731c0.16132,-1.14196 1.21783,-1.93693 2.35979,-1.77561c1.14196,0.16132 1.93692,1.21783 1.77561,2.35979c-0.16132,1.14196 -1.21783,1.93693 -2.35979,1.77561c-1.14196,-0.16132 -1.93693,-1.21783 -1.77561,-2.35979z" data-paper-data="{&quot;origPos&quot;:null}" fill="#e6eb4a" stroke="#ff6767"/><path d="M461.64617,138.33593c0.16132,-1.14196 1.21783,-1.93693 2.35979,-1.77561c1.14196,0.16132 1.93692,1.21783 1.77561,2.35979c-0.16132,1.14196 -1.21783,1.93693 -2.35979,1.77561c-1.14196,-0.16132 -1.93693,-1.21783 -1.77561,-2.35979z" data-paper-data="{&quot;origPos&quot;:null}" fill="#e6eb4a" stroke="#ff6767"/><path d="M435.59719,146.69475c0.16132,-1.14196 1.21783,-1.93693 2.35979,-1.77561c1.14196,0.16132 1.93693,1.21783 1.77561,2.35979c-0.16132,1.14196 -1.21783,1.93693 -2.35979,1.77561c-1.14196,-0.16132 -1.93692,-1.21783 -1.77561,-2.35979z" data-paper-data="{&quot;origPos&quot;:null}" fill="#e6eb4a" stroke="#ff6767"/><path d="M426.76879,135.16646c0.16132,-1.14196 1.21783,-1.93693 2.35979,-1.77561c1.14196,0.16132 1.93693,1.21783 1.77561,2.35979c-0.16132,1.14196 -1.21783,1.93693 -2.35979,1.77561c-1.14196,-0.16132 -1.93692,-1.21783 -1.77561,-2.35979z" data-paper-data="{&quot;origPos&quot;:null}" fill="#e6eb4a" stroke="#ff6767"/><path d="M424.84778,150.00931c0.16132,-1.14196 1.21783,-1.93692 2.35979,-1.77561c1.14196,0.16132 1.93693,1.21783 1.77561,2.35979c-0.16132,1.14196 -1.21783,1.93693 -2.35979,1.77561c-1.14196,-0.16132 -1.93693,-1.21783 -1.77561,-2.35979z" data-paper-data="{&quot;origPos&quot;:null}" fill="#e6eb4a" stroke="#ff6767"/><path d="M415.36644,141.90371c0.16132,-1.14196 0.98501,-1.96981 1.83977,-1.84907c0.85476,0.12075 1.41691,1.14437 1.25559,2.28633c-0.16132,1.14196 -0.98501,1.96982 -1.83977,1.84907c-0.85476,-0.12075 -1.41691,-1.14437 -1.25559,-2.28633z" data-paper-data="{&quot;origPos&quot;:null}" fill="#ebc249" stroke="#c73e3e"/><path d="M410.05297,131.57491c0.16132,-1.14196 0.98501,-1.96981 1.83977,-1.84907c0.85476,0.12075 1.4169,1.14437 1.25559,2.28633c-0.16132,1.14196 -0.98501,1.96982 -1.83977,1.84907c-0.85476,-0.12075 -1.41691,-1.14437 -1.25559,-2.28633z" data-paper-data="{&quot;origPos&quot;:null}" fill="#ebc249" stroke="#c73e3e"/><path d="M408.08862,146.41162c0.16132,-1.14196 0.98501,-1.96981 1.83977,-1.84907c0.85476,0.12075 1.41691,1.14437 1.25559,2.28633c-0.16132,1.14196 -0.98501,1.96981 -1.83977,1.84907c-0.85476,-0.12075 -1.41691,-1.14437 -1.25559,-2.28633z" data-paper-data="{&quot;origPos&quot;:null}" fill="#ebc249" stroke="#c73e3e"/><path d="M416.4487,122.81739c-0.08371,-0.7355 0.76909,-1.36132 1.90477,-1.39781c1.13568,-0.03649 2.12419,0.53016 2.2079,1.26566c0.08371,0.7355 -0.76909,1.36132 -1.90477,1.39781c-1.13568,0.03649 -2.1242,-0.53016 -2.2079,-1.26566z" data-paper-data="{&quot;origPos&quot;:null,&quot;origRot&quot;:0}" fill="#e5ea49" stroke="#ff8484"/><path d="M425.28703,124.94466c-0.08371,-0.7355 0.76909,-1.36132 1.90477,-1.39781c1.13568,-0.03649 2.1242,0.53016 2.20791,1.26565c0.08371,0.7355 -0.76909,1.36132 -1.90477,1.39781c-1.13568,0.03649 -2.1242,-0.53016 -2.2079,-1.26566z" data-paper-data="{&quot;origPos&quot;:null,&quot;origRot&quot;:0}" fill="#e5ea49" stroke="#ff8484"/><path d="M433.37591,119.93617c-0.08371,-0.7355 0.76909,-1.36132 1.90477,-1.39781c1.13568,-0.03649 2.1242,0.53016 2.2079,1.26566c0.08371,0.7355 -0.76909,1.36132 -1.90477,1.39781c-1.13568,0.03649 -2.12419,-0.53016 -2.2079,-1.26565z" data-paper-data="{&quot;origPos&quot;:null,&quot;origRot&quot;:0}" fill="#e5ea49" stroke="#ff8484"/><path d="M444.94299,120.16421c-0.08371,-0.7355 0.76909,-1.36132 1.90477,-1.39781c1.13568,-0.03649 2.1242,0.53016 2.2079,1.26566c0.08371,0.7355 -0.76909,1.36132 -1.90477,1.39781c-1.13568,0.03649 -2.1242,-0.53016 -2.2079,-1.26566z" data-paper-data="{&quot;origPos&quot;:null,&quot;origRot&quot;:0}" fill="#e5ea49" stroke="#ff8484"/><path d="M453.48987,116.89004c-0.08371,-0.7355 0.76909,-1.36132 1.90477,-1.39781c1.13568,-0.03649 2.1242,0.53016 2.2079,1.26566c0.08371,0.7355 -0.76909,1.36132 -1.90477,1.39781c-1.13568,0.03649 -2.1242,-0.53016 -2.2079,-1.26566z" data-paper-data="{&quot;origPos&quot;:null,&quot;origRot&quot;:0}" fill="#e5ea49" stroke="#ff8484"/><path d="M462.07902,117.0489c-0.08371,-0.7355 0.76909,-1.36132 1.90477,-1.39781c1.13568,-0.03649 2.1242,0.53016 2.2079,1.26566c0.08371,0.7355 -0.76909,1.36132 -1.90477,1.39781c-1.13568,0.03649 -2.1242,-0.53016 -2.20791,-1.26565z" data-paper-data="{&quot;origPos&quot;:null,&quot;origRot&quot;:0}" fill="#e5ea49" stroke="#ff8484"/><path d="M471.58864,115.6682c-0.08371,-0.7355 0.76909,-1.36132 1.90477,-1.39781c1.13568,-0.03649 2.1242,0.53016 2.2079,1.26566c0.08371,0.7355 -0.76909,1.36132 -1.90477,1.39781c-1.13568,0.03649 -2.1242,-0.53016 -2.20791,-1.26565z" data-paper-data="{&quot;origPos&quot;:null,&quot;origRot&quot;:0}" fill="#e5ea49" stroke="#ff8484"/></g><path d="M63.24999,364.8068c0,0 29.60341,-57.87564 107.95402,-103.08975c25.62096,-13.12601 84.93563,-40.22179 112.15487,-49.59401c81.65772,-28.11664 193.8911,-55.31625 193.8911,-55.31625l2,1c0,0 -76.12287,17.79907 -131.63159,37.06164c-58.8394,20.41838 -127.2275,46.5147 -185.13083,81.36669c-34.38622,20.69705 -86.23758,88.57166 -86.23758,88.57166z" data-paper-data="{&quot;origPos&quot;:null}" fill="url(#color-11)" stroke="none" stroke-width="0" stroke-linecap="butt"/><path d="M420.24999,364.8068c0,0 -12.94718,-31.98764 6.08641,-64.46851c8.62425,-14.7173 52.91359,-49.53149 52.91359,-49.53149v2c0,0 -36.66174,33.98032 -46.68605,58.92971c-7.53752,18.76005 3.68605,53.07029 3.68605,53.07029z" data-paper-data="{&quot;origPos&quot;:null}" fill="url(#color-12)" stroke="none" stroke-width="0" stroke-linecap="butt"/><path d="M111.24999,253.8068l-16,-29l21.60712,5.39826l3.65627,-25.99397l10.90868,14.28782l13.82793,-11.6921l-3,33c0,0 -1.71203,6.45007 -11.7822,10.48228c-8.98228,3.59661 -19.2178,3.51772 -19.2178,3.51772z" data-paper-data="{&quot;origPos&quot;:null}" fill="url(#color-13)" stroke="none" stroke-width="0" stroke-linecap="butt"/><path d="M483.24999,340.80681c0,0 -10.23552,0.07889 -19.2178,-3.51772c-10.07017,-4.03221 -11.7822,-10.48228 -11.7822,-10.48228l-3,-33l13.82793,11.6921l10.90868,-14.28782l3.65627,25.99397l21.60712,-5.39826l-16,29z" data-paper-data="{&quot;origPos&quot;:null,&quot;index&quot;:null}" fill="url(#color-14)" stroke="none" stroke-width="0" stroke-linecap="butt"/></g></g></svg>