<svg version="1.1" xmlns="http://www.w3.org/2000/svg" xmlns:xlink="http://www.w3.org/1999/xlink" width="66.32349" height="26.2205" viewBox="0,0,66.32349,26.2205"><defs><linearGradient x1="240.00002" y1="166.88975" x2="240.00002" y2="193.11025" gradientUnits="userSpaceOnUse" id="color-1"><stop offset="0" stop-color="#a7a7a7"/><stop offset="1" stop-color="#7c7c7c"/></linearGradient><linearGradient x1="224.39222" y1="181.0083" x2="224.39222" y2="190.16231" gradientUnits="userSpaceOnUse" id="color-2"><stop offset="0" stop-color="#003c5c"/><stop offset="1" stop-color="#003097"/></linearGradient><linearGradient x1="232.58443" y1="182.1352" x2="232.58443" y2="190.617" gradientUnits="userSpaceOnUse" id="color-3"><stop offset="0" stop-color="#003c5c"/><stop offset="1" stop-color="#003097"/></linearGradient><linearGradient x1="241.66551" y1="182.07495" x2="241.66551" y2="190.2828" gradientUnits="userSpaceOnUse" id="color-4"><stop offset="0" stop-color="#003c5c"/><stop offset="1" stop-color="#003097"/></linearGradient><linearGradient x1="250.14963" y1="180.95694" x2="250.14963" y2="190.14646" gradientUnits="userSpaceOnUse" id="color-5"><stop offset="0" stop-color="#003c5c"/><stop offset="1" stop-color="#003097"/></linearGradient><linearGradient x1="256.05422" y1="180.86752" x2="256.05422" y2="189.96825" gradientUnits="userSpaceOnUse" id="color-6"><stop offset="0" stop-color="#003c5c"/><stop offset="1" stop-color="#003097"/></linearGradient><linearGradient x1="224.39222" y1="181.0083" x2="224.39222" y2="190.16231" gradientUnits="userSpaceOnUse" id="color-7"><stop offset="0" stop-color="#5276bd"/><stop offset="1" stop-color="#69d9ff"/></linearGradient><linearGradient x1="232.58443" y1="182.1352" x2="232.58443" y2="190.617" gradientUnits="userSpaceOnUse" id="color-8"><stop offset="0" stop-color="#5276bd"/><stop offset="1" stop-color="#69d9ff"/></linearGradient><linearGradient x1="241.66551" y1="182.07495" x2="241.66551" y2="190.2828" gradientUnits="userSpaceOnUse" id="color-9"><stop offset="0" stop-color="#5276bd"/><stop offset="1" stop-color="#69d9ff"/></linearGradient><linearGradient x1="250.14963" y1="180.95694" x2="250.14963" y2="190.14646" gradientUnits="userSpaceOnUse" id="color-10"><stop offset="0" stop-color="#5276bd"/><stop offset="1" stop-color="#69d9ff"/></linearGradient><linearGradient x1="256.05422" y1="180.86752" x2="256.05422" y2="189.96825" gradientUnits="userSpaceOnUse" id="color-11"><stop offset="0" stop-color="#5276bd"/><stop offset="1" stop-color="#69d9ff"/></linearGradient><linearGradient x1="226.31635" y1="170.6959" x2="226.31635" y2="178.7617" gradientUnits="userSpaceOnUse" id="color-12"><stop offset="0" stop-color="#00395c"/><stop offset="1" stop-color="#003196"/></linearGradient><linearGradient x1="233.40006" y1="169.383" x2="233.40006" y2="178.95491" gradientUnits="userSpaceOnUse" id="color-13"><stop offset="0" stop-color="#00395c"/><stop offset="1" stop-color="#003196"/></linearGradient><linearGradient x1="242.71672" y1="169.86517" x2="242.71672" y2="178.2696" gradientUnits="userSpaceOnUse" id="color-14"><stop offset="0" stop-color="#00395c"/><stop offset="1" stop-color="#003196"/></linearGradient><linearGradient x1="251.1496" y1="170.29491" x2="251.1496" y2="178.77672" gradientUnits="userSpaceOnUse" id="color-15"><stop offset="0" stop-color="#00395c"/><stop offset="1" stop-color="#003196"/></linearGradient><linearGradient x1="226.31635" y1="170.6959" x2="226.31635" y2="178.7617" gradientUnits="userSpaceOnUse" id="color-16"><stop offset="0" stop-color="#5276bd"/><stop offset="1" stop-color="#69d9ff"/></linearGradient><linearGradient x1="233.40006" y1="169.383" x2="233.40006" y2="178.95491" gradientUnits="userSpaceOnUse" id="color-17"><stop offset="0" stop-color="#5276bd"/><stop offset="1" stop-color="#69d9ff"/></linearGradient><linearGradient x1="242.71672" y1="169.86517" x2="242.71672" y2="178.2696" gradientUnits="userSpaceOnUse" id="color-18"><stop offset="0" stop-color="#5276bd"/><stop offset="1" stop-color="#69d9ff"/></linearGradient><linearGradient x1="251.14958" y1="170.29491" x2="251.14958" y2="178.77672" gradientUnits="userSpaceOnUse" id="color-19"><stop offset="0" stop-color="#5276bd"/><stop offset="1" stop-color="#69d9ff"/></linearGradient></defs><g transform="translate(-206.83828,-166.88975)"><g data-paper-data="{&quot;isPaintingLayer&quot;:true}" fill-rule="nonzero" stroke-linecap="butt" stroke-linejoin="miter" stroke-miterlimit="10" stroke-dasharray="" stroke-dashoffset="0" style="mix-blend-mode: normal"><path d="M207.98858,168.24891c0,0 19.17748,-1.35916 31.45205,-1.35916c12.80097,0 32.80089,1.35916 32.80089,1.35916c0,0 0.92025,7.32013 0.92025,11.46167c0,5.03048 -0.92025,12.04051 -0.92025,12.04051c0,0 -19.80915,1.35916 -32.34076,1.35916c-12.54392,0 -31.91217,-1.35916 -31.91217,-1.35916c0,0 -1.15031,-7.41612 -1.15031,-12.3803c0,-4.20785 1.15031,-11.12188 1.15031,-11.12188z" fill="#ffffff" stroke="url(#color-1)" stroke-width="0"/><g><g fill="none" stroke-width="1.5"><path d="M223.02721,181.0083l1.96271,5.67441l0.83899,-4.94259l3.62229,0.65952l-2.49857,7.53121l-3.67555,0.23147l-3.9438,-7.20906z" stroke="url(#color-2)"/><path d="M234.78399,182.67042l2.27915,7.58955l-3.19043,0.35703l-0.33737,-1.92212l-2.15993,0.13825l-0.35639,1.76422l-2.9133,-0.65445l2.31847,-7.8077zM231.81171,186.53432l1.36724,0.17883l-0.49527,-2.00202h-0.41664z" stroke="url(#color-3)"/><path d="M241.28153,182.53915l-0.62464,5.28123l1.89168,-0.28537l0.2321,-4.15751l3.46184,0.51747l-0.78508,4.56844l-1.65958,1.81939l-4.74664,-0.01776l-1.96271,-1.64119l0.33864,-6.5489z" stroke="url(#color-4)"/><path d="M249.93561,180.95694l0.08942,6.06695l4.05034,-1.19538l-0.12493,3.72882l-6.44173,0.58913l-1.2848,-8.70756z" stroke="url(#color-5)"/><path d="M260.50631,180.86752l0.16044,2.74842l-2.99764,0.42805l0.94552,5.76319l-3.60453,0.16108l-0.12429,-5.4607l-3.10545,0.39318l-0.33864,-3.64068z" stroke="url(#color-6)"/></g><g stroke="none" stroke-width="1"><path d="M223.02721,181.0083l1.96271,5.67441l0.83899,-4.94259l3.62229,0.65952l-2.49857,7.53121l-3.67555,0.23147l-3.9438,-7.20906z" fill="url(#color-7)"/><path d="M234.78399,182.67042l2.27915,7.58955l-3.19043,0.35703l-0.33737,-1.92212l-2.15993,0.13825l-0.35639,1.76422l-2.9133,-0.65445l2.31847,-7.8077zM231.81171,186.53432l1.36724,0.17883l-0.49527,-2.00202h-0.41664z" fill="url(#color-8)"/><path d="M241.28153,182.53915l-0.62464,5.28123l1.89168,-0.28537l0.2321,-4.15751l3.46184,0.51747l-0.78508,4.56844l-1.65958,1.81939l-4.74664,-0.01776l-1.96271,-1.64119l0.33864,-6.5489z" fill="url(#color-9)"/><path d="M249.93561,180.95694l0.08942,6.06695l4.05034,-1.19538l-0.12493,3.72882l-6.44173,0.58913l-1.2848,-8.70756z" fill="url(#color-10)"/><path d="M260.50631,180.86752l0.16044,2.74842l-2.99764,0.42805l0.94552,5.76319l-3.60453,0.16108l-0.12429,-5.4607l-3.10545,0.39318l-0.33864,-3.64068z" fill="url(#color-11)"/></g><g fill="none" stroke-width="1.5"><path d="M224.85304,170.6959l3.40794,0.71342l-1.30255,7.1913l-2.58671,0.16108z" stroke="url(#color-12)"/><path d="M238.01765,171.91961l-0.31708,4.26088l-2.25949,2.45735l-5.37065,0.31708l-1.28797,-8.4818l4.73649,-1.09011zM232.8252,176.51723l1.64499,-0.5942l0.43566,-2.477l-2.43705,-0.87196z" stroke="url(#color-13)"/><path d="M246.60662,170.70415l-0.49971,2.56959l-3.37243,-0.89289l-0.21371,0.83962l2.6051,0.28537l-0.4103,1.94495l-2.35588,-0.32152l0.10781,0.89225l3.31853,-0.19595l0.30376,2.44403l-6.33519,-0.28473l-0.92777,-3.22974l1.15987,-4.88996z" stroke="url(#color-14)"/><path d="M253.34916,170.83014l2.27915,7.58955l-3.19043,0.35703l-0.33737,-1.92212l-2.15993,0.13825l-0.35639,1.76422l-2.9133,-0.65445l2.31847,-7.8077zM250.37688,174.69404l1.36724,0.17883l-0.49527,-2.00202h-0.41664z" stroke="url(#color-15)"/></g><g stroke="none" stroke-width="1"><path d="M224.85304,170.6959l3.40794,0.71342l-1.30255,7.1913l-2.58671,0.16108z" fill="url(#color-16)"/><path d="M238.01765,171.91961l-0.31708,4.26088l-2.25949,2.45735l-5.37065,0.31708l-1.28797,-8.4818l4.73649,-1.09011zM232.8252,176.51723l1.64499,-0.5942l0.43566,-2.477l-2.43705,-0.87196z" fill="url(#color-17)"/><path d="M246.60662,170.70415l-0.49971,2.56959l-3.37243,-0.89289l-0.21371,0.83962l2.6051,0.28537l-0.4103,1.94495l-2.35588,-0.32152l0.10781,0.89225l3.31853,-0.19595l0.30376,2.44403l-6.33519,-0.28473l-0.92777,-3.22974l1.15987,-4.88996z" fill="url(#color-18)"/><path d="M253.34916,170.83014l2.27915,7.58955l-3.19043,0.35703l-0.33737,-1.92212l-2.15993,0.13825l-0.35639,1.76422l-2.9133,-0.65445l2.31847,-7.8077zM250.37688,174.69404l1.36724,0.17883l-0.49527,-2.00202h-0.41664z" fill="url(#color-19)"/></g></g></g></g></svg>