<svg version="1.1" xmlns="http://www.w3.org/2000/svg" xmlns:xlink="http://www.w3.org/1999/xlink" width="465.22823" height="225.60096" viewBox="0,0,465.22823,225.60096"><defs><linearGradient x1="4.2996" y1="13.74998" x2="4.2996" y2="30.53663" gradientUnits="userSpaceOnUse" id="color-1"><stop offset="0" stop-color="#5276bd"/><stop offset="1" stop-color="#69d9ff"/></linearGradient><linearGradient x1="4.2996" y1="13.74998" x2="4.2996" y2="30.53663" gradientUnits="userSpaceOnUse" id="color-2"><stop offset="0" stop-color="#000000"/><stop offset="1" stop-color="#182f3a"/></linearGradient><linearGradient x1="32.76531" y1="37.19388" x2="32.76531" y2="53.03196" gradientUnits="userSpaceOnUse" id="color-3"><stop offset="0" stop-color="#5276bd"/><stop offset="1" stop-color="#69d9ff"/></linearGradient><linearGradient x1="32.76531" y1="37.19388" x2="32.76531" y2="53.03196" gradientUnits="userSpaceOnUse" id="color-4"><stop offset="0" stop-color="#182f3a"/><stop offset="1" stop-color="#2e596d"/></linearGradient><linearGradient x1="4.17606" y1="13.74998" x2="4.17606" y2="30.53663" gradientUnits="userSpaceOnUse" id="color-5"><stop offset="0" stop-color="#5276bd"/><stop offset="1" stop-color="#69d9ff"/></linearGradient><linearGradient x1="32.64173" y1="37.19388" x2="32.64173" y2="53.03196" gradientUnits="userSpaceOnUse" id="color-6"><stop offset="0" stop-color="#5276bd"/><stop offset="1" stop-color="#69d9ff"/></linearGradient></defs><g transform="translate(-1.40279,3.41019)"><g data-paper-data="{&quot;isPaintingLayer&quot;:true}" fill-rule="nonzero" stroke-linejoin="miter" stroke-miterlimit="10" stroke-dasharray="" stroke-dashoffset="0" style="mix-blend-mode: normal"><text transform="translate(1.67459,83.51585) scale(0.54361,0.54361)" font-size="22" xml:space="preserve" fill="#ffffff" fill-rule="nonzero" stroke="none" stroke-width="1" stroke-linecap="butt" stroke-linejoin="miter" stroke-miterlimit="10" stroke-dasharray="" stroke-dashoffset="0" font-family="Sans Serif" font-weight="400" text-anchor="start" style="mix-blend-mode: normal"><tspan x="0" dy="0">The 12th of April, 2022.</tspan><tspan x="0" dy="24.86px">@ScralaxyTeam released Version 3.0 of the Scralaxy Team Development Hub. This</tspan><tspan x="0" dy="24.86px">update improved the project by quite a lot!</tspan><tspan x="0" dy="24.86px"> </tspan><tspan x="0" dy="24.86px">In other news, the winner of the Game 6 poll was decided!</tspan><tspan x="0" dy="24.86px">@DoritoDude123 started development on Paper Mario: Tear In Reality, the sixth</tspan><tspan x="0" dy="24.86px">game devloped by the Scralaxy Team!</tspan><tspan x="0" dy="24.86px"> </tspan><tspan x="0" dy="24.86px">The 19th of March, 2024.</tspan><tspan x="0" dy="24.86px">@ScralaxyTeam released Version 4.0 of the Scralaxy Team Development Hub! This</tspan><tspan x="0" dy="24.86px">update improved the project by a ton!</tspan></text><text transform="translate(150.40552,65.85436) scale(0.30573,0.32548)" font-size="40" xml:space="preserve" fill="#ffffff" fill-rule="nonzero" stroke="none" stroke-width="1" stroke-linecap="butt" stroke-linejoin="miter" stroke-miterlimit="10" stroke-dasharray="" stroke-dashoffset="0" font-family="Sans Serif" font-weight="normal" text-anchor="start" style="mix-blend-mode: normal"><tspan x="0" dy="0">PAGE 3</tspan></text><g stroke-linecap="butt"><path d="M125.54381,19.45487l3.84402,-4.46429l4.63432,3.3694l-6.48342,6.37385l0.4017,5.80277l-6.72703,-0.36496l1.09496,-6.37385l-5.18242,-7.25017l5.82699,-2.79766zM72.72867,14.78381c0.06105,1.6424 0.1464,5.32816 0.25539,11.045h0.07282l7.26261,-2.55422c0,0.06047 0.0243,0.08477 0.08477,0.08477l-0.24295,6.1066c0,0.10965 -3.77111,0.46217 -11.30089,1.07066c-0.17004,-0.85135 -0.97287,-5.91177 -2.39596,-15.18107c0.64457,-0.10957 2.69988,-0.32822 6.19138,-0.65709c0,0.06105 0.02422,0.08535 0.07282,0.08535zM18.36153,16.92447c0,0.13387 -0.60791,1.30166 -1.82487,3.51572h-0.08469c-0.09713,0 -1.49666,-0.65701 -4.19711,-1.98306l-1.37457,1.83732c2.32371,1.1186 5.15812,2.54235 8.479,4.28189c-1.50844,2.68801 -2.5791,4.46429 -3.21189,5.3518l-6.87269,0.60849c-3.13841,-2.11693 -4.79259,-3.21123 -4.97506,-3.28471v-0.08469c0,-0.23109 0.63279,-1.26558 1.90956,-3.12654h0.15817c0.49883,0.30391 2.08018,1.16778 4.73212,2.59088l1.60565,-1.82422c-4.87793,-2.48189 -7.57847,-3.88068 -8.1016,-4.20898v-0.07282c1.54519,-3.01688 2.39662,-4.54963 2.5305,-4.58638c4.02649,-0.81469 6.27673,-1.22817 6.72703,-1.22817c2.9191,1.4717 4.4151,2.21348 4.50045,2.21348zM33.37939,16.96121c-1.15535,2.37224 -1.73953,3.60041 -1.73953,3.69762h-0.07291c-0.52314,-0.14574 -1.65418,-0.65643 -3.41793,-1.52031l-2.89488,2.03158c0,2.51805 0.14574,3.77053 0.42542,3.77053c0.18248,0.09779 1.39879,0.58418 3.63724,1.45992c0.8638,-0.85143 1.727,-1.67848 2.61519,-2.46945c0.15817,0.14632 0.8881,1.30166 2.17732,3.47897v0.21922c-0.08469,0 -1.87283,0.97287 -5.3761,2.90732c-4.47681,-1.49601 -6.77555,-2.29941 -6.89765,-2.39662l-2.1774,-7.18912c2.04345,-2.90723 3.08979,-4.35471 3.12654,-4.35471c0.08469,0 1.81236,-0.63271 5.15754,-1.88519c3.62471,1.41066 5.43715,2.16487 5.43715,2.25022zM48.32501,18.5307v0.07282c-0.66954,2.77336 -1.11918,4.35471 -1.32597,4.75584l-2.56658,1.48414c3.04053,2.20162 4.57328,3.3451 4.59758,3.43045c-1.08244,0.52314 -2.73661,1.27736 -4.98685,2.26267c-2.6034,-3.56432 -3.90507,-5.37676 -3.90507,-5.46203h-0.14574c-0.06105,2.08018 -0.08535,3.51572 -0.08535,4.29425c-0.03675,0.36496 -0.10957,0.54744 -0.23101,0.54744h-3.66154c-0.1707,0 -0.426,-2.26267 -0.77853,-6.788c-0.15817,-0.98531 -0.4017,-3.27228 -0.70561,-6.86033c0.9367,-0.20678 3.79541,-0.71806 8.57613,-1.55696c0.18248,0.19426 1.92193,1.4717 5.2185,3.81972zM109.1022,14.71099c2.82262,1.65418 4.34293,2.51797 4.56216,2.59088v0.14574c-0.73,0.83957 -2.08027,2.28697 -4.03894,4.34285c3.84393,1.42318 5.99703,2.28697 6.47164,2.5791l-3.57619,4.4151c-2.42093,-2.0553 -3.96545,-3.35697 -4.63498,-3.8801c-1.62996,3.18693 -2.63949,5.06033 -3.04061,5.63207h-0.08527c-3.02875,-1.05814 -4.67115,-1.69092 -4.93898,-1.89771v-0.08535l4.18468,-5.4739c-3.88068,-1.59313 -5.96029,-2.52984 -6.24056,-2.81011c1.71523,-2.90666 2.67623,-4.45184 2.89546,-4.64619c0.0243,0.08469 1.89771,1.37457 5.61963,3.8801c1.32597,-2.4327 2.23844,-4.02649 2.73727,-4.7925zM61.53053,15.903c0,0.06047 1.54461,4.70724 4.64676,13.92802c-0.32879,0.12144 -2.18975,0.35252 -5.60777,0.70561c-0.23109,-0.79096 -0.49892,-2.01914 -0.79096,-3.68584c-2.9191,0.26783 -4.37902,0.49892 -4.37902,0.7057l-0.79096,2.80953h-0.08469c-3.4429,-0.63221 -5.16998,-1.00961 -5.16998,-1.14348c2.74914,-8.59986 4.33041,-13.41666 4.73212,-14.46301c4.50045,0.64465 6.98176,1.03391 7.44451,1.14348zM92.8312,15.903c0,0.06047 1.54527,4.70724 4.64685,13.92802c-0.32822,0.12144 -2.18918,0.35252 -5.60719,0.70561c-0.23167,-0.79096 -0.49883,-2.01914 -0.79096,-3.68584c-2.91976,0.26783 -4.37902,0.49892 -4.37902,0.7057l-0.79096,2.80953h-0.08535c-3.44224,-0.63221 -5.16932,-1.00961 -5.16932,-1.14348c2.74914,-8.59986 4.33041,-13.41666 4.73154,-14.46301c4.50103,0.64465 6.98234,1.03391 7.44443,1.14348zM39.74888,18.21427c0,0.49826 0.0243,2.26267 0.08535,5.30328h0.07282c1.98306,-0.46217 2.96836,-0.77853 2.96836,-0.9367l0.69318,-3.1141l-3.81972,-1.32531zM56.9809,19.75888c-0.12144,0.59604 -0.30391,1.72767 -0.535,3.41793h2.63949l-0.97345,-3.8558c-0.75423,0 -1.13105,0.14574 -1.13105,0.43787zM88.28222,19.75888c-0.12209,0.59604 -0.30391,1.72767 -0.53565,3.41793h2.64015l-0.97345,-3.8558c-0.75423,0 -1.13105,0.14574 -1.13105,0.43787z" fill="url(#color-1)" stroke="url(#color-2)" stroke-width="5.29194"/><path d="M90.53119,37.63175c0.8881,2.37224 1.42309,3.89254 1.61801,4.54963h0.07291c0.20678,-0.45031 1.02205,-1.70279 2.42084,-3.74623h0.07291c2.20162,0.1333 3.2965,0.29147 3.2965,0.44965l1.98248,13.56363c0,0.08469 -1.73953,0.27961 -5.20614,0.58352l-0.07282,-0.14574c-0.19492,-4.12363 -0.29213,-6.6416 -0.29213,-7.55408h-0.07282l-3.00445,2.63949h-0.07291c-0.09779,-0.04852 -0.77853,-1.11918 -2.05588,-3.22367h-0.07291c-1.56949,4.5615 -2.42084,6.98234 -2.56724,7.26203h-0.14574c-2.79766,-1.265 -4.39146,-2.01922 -4.7682,-2.27453v-0.07291c3.46654,-8.16257 5.27898,-12.3105 5.42529,-12.46867c2.29883,0.15817 3.44232,0.30457 3.44232,0.43787zM49.92935,37.3645c-0.2067,3.10166 -0.36496,4.64685 -0.47453,4.64685h-0.07291c-3.3451,-0.26783 -5.2185,-0.426 -5.59599,-0.47461v10.78961c0,0.19492 -0.766,0.32888 -2.28631,0.38926c0,0.06105 -0.86387,0.15817 -2.59154,0.31636l-0.08469,-0.15817c0.37682,-6.4349 0.60791,-10.24217 0.71748,-11.40988c-1.27736,0.20678 -3.17506,0.46209 -5.66882,0.77853c-0.74178,-2.76158 -1.10674,-4.17223 -1.10674,-4.24572c0,-0.10899 5.69312,-0.36496 17.09122,-0.79039zM64.48512,38.79945l-1.16778,4.27003c-3.79541,-1.00961 -5.83885,-1.56949 -6.11846,-1.67848c0,0.07291 -0.41357,0.99717 -1.25313,2.76093h0.08535c1.69027,-0.10957 3.53944,-0.26717 5.5225,-0.49883l0.08469,0.17062c-0.32822,1.88526 -0.58361,3.16262 -0.75365,3.84402l-4.68351,-0.66888c0.04852,0.92426 0.07282,1.61744 0.07282,2.09197v0.42542l0.08535,0.17062c1.03383,-0.10957 3.13832,-0.27961 6.28916,-0.51069c0.10899,0.49826 0.30391,1.76383 0.58361,3.77053c-0.06105,0 -0.08535,0.0243 -0.08535,0.08527c-7.35916,-0.38918 -11.09352,-0.64457 -11.21496,-0.75423l-1.76383,-5.02358c1.33782,-6.24056 2.09205,-9.58566 2.26201,-10.04783c8.04055,0.94856 12.05519,1.48414 12.05519,1.59313zM76.7296,38.39842c0,0.06105 1.54461,4.70781 4.64685,13.92793c-0.3283,0.12209 -2.18984,0.35318 -5.60785,0.70561c-0.23109,-0.79096 -0.49883,-2.01914 -0.79096,-3.68576c-2.9191,0.26783 -4.37902,0.49883 -4.37902,0.70561l-0.7903,2.81019h-0.08535c-3.44232,-0.63279 -5.16998,-1.01027 -5.16998,-1.14348c2.74914,-8.60044 4.33041,-13.41732 4.73212,-14.46359c4.50045,0.64457 6.98242,1.03383 7.44451,1.14348zM72.17997,42.2542c-0.12144,0.59604 -0.30391,1.72767 -0.535,3.41867h2.63949l-0.97287,-3.85646c-0.75423,0 -1.13162,0.14632 -1.13162,0.43778z" fill="url(#color-3)" stroke="url(#color-4)" stroke-width="5.29194"/><g stroke="none" stroke-width="0.75599"><g><path d="M125.42021,19.45487l3.84402,-4.46429l4.63432,3.3694l-6.48342,6.37385l0.4017,5.80277l-6.72703,-0.36496l1.09496,-6.37385l-5.18242,-7.25017l5.82699,-2.79766zM72.60508,14.78381c0.06105,1.6424 0.1464,5.32816 0.25539,11.045h0.07282l7.26261,-2.55422c0,0.06047 0.0243,0.08477 0.08477,0.08477l-0.24295,6.1066c0,0.10965 -3.77111,0.46217 -11.30089,1.07066c-0.17004,-0.85135 -0.97287,-5.91177 -2.39596,-15.18107c0.64457,-0.10957 2.69988,-0.32822 6.19138,-0.65709c0,0.06105 0.02422,0.08535 0.07282,0.08535zM18.23794,16.92447c0,0.13387 -0.60791,1.30166 -1.82487,3.51572h-0.08469c-0.09713,0 -1.49666,-0.65701 -4.19711,-1.98306l-1.37457,1.83732c2.32371,1.1186 5.15812,2.54235 8.479,4.28189c-1.50844,2.68801 -2.5791,4.46429 -3.21189,5.3518l-6.87269,0.60849c-3.13841,-2.11693 -4.79259,-3.21123 -4.97506,-3.28471v-0.08469c0,-0.23109 0.63279,-1.26558 1.90956,-3.12654h0.15817c0.49883,0.30391 2.08018,1.16778 4.73212,2.59088l1.60565,-1.82422c-4.87793,-2.48189 -7.57847,-3.88068 -8.1016,-4.20898v-0.07282c1.54519,-3.01688 2.39662,-4.54963 2.5305,-4.58638c4.02649,-0.81469 6.27673,-1.22817 6.72703,-1.22817c2.9191,1.4717 4.4151,2.21348 4.50045,2.21348zM33.25582,16.96121c-1.15535,2.37224 -1.73953,3.60041 -1.73953,3.69762h-0.07291c-0.52314,-0.14574 -1.65418,-0.65643 -3.41793,-1.52031l-2.89488,2.03158c0,2.51805 0.14574,3.77053 0.42542,3.77053c0.18248,0.09779 1.39879,0.58418 3.63724,1.45992c0.8638,-0.85143 1.727,-1.67848 2.61519,-2.46945c0.15817,0.14632 0.8881,1.30166 2.17732,3.47897v0.21922c-0.08469,0 -1.87283,0.97287 -5.3761,2.90732c-4.47681,-1.49601 -6.77555,-2.29941 -6.89765,-2.39662l-2.1774,-7.18912c2.04345,-2.90723 3.08979,-4.35471 3.12654,-4.35471c0.08469,0 1.81236,-0.63271 5.15754,-1.88519c3.62471,1.41066 5.43715,2.16487 5.43715,2.25022zM48.20144,18.5307v0.07282c-0.66954,2.77336 -1.11918,4.35471 -1.32597,4.75584l-2.56658,1.48414c3.04053,2.20162 4.57328,3.3451 4.59758,3.43045c-1.08244,0.52314 -2.73661,1.27736 -4.98685,2.26267c-2.6034,-3.56432 -3.90507,-5.37676 -3.90507,-5.46203h-0.14574c-0.06105,2.08018 -0.08535,3.51572 -0.08535,4.29425c-0.03675,0.36496 -0.10957,0.54744 -0.23101,0.54744h-3.66154c-0.1707,0 -0.426,-2.26267 -0.77853,-6.788c-0.15817,-0.98531 -0.4017,-3.27228 -0.70561,-6.86033c0.9367,-0.20678 3.79541,-0.71806 8.57613,-1.55696c0.18248,0.19426 1.92193,1.4717 5.2185,3.81972zM108.97863,14.71099c2.82262,1.65418 4.34293,2.51797 4.56216,2.59088v0.14574c-0.73,0.83957 -2.08027,2.28697 -4.03894,4.34285c3.84393,1.42318 5.99703,2.28697 6.47164,2.5791l-3.57619,4.4151c-2.42093,-2.0553 -3.96545,-3.35697 -4.63498,-3.8801c-1.62996,3.18693 -2.63949,5.06033 -3.04061,5.63207h-0.08527c-3.02875,-1.05814 -4.67115,-1.69092 -4.93898,-1.89771v-0.08535l4.18468,-5.4739c-3.88068,-1.59313 -5.96029,-2.52984 -6.24056,-2.81011c1.71523,-2.90666 2.67623,-4.45184 2.89546,-4.64619c0.0243,0.08469 1.89771,1.37457 5.61963,3.8801c1.32597,-2.4327 2.23844,-4.02649 2.73727,-4.7925zM61.40694,15.903c0,0.06047 1.54461,4.70724 4.64676,13.92802c-0.32879,0.12144 -2.18975,0.35252 -5.60777,0.70561c-0.23109,-0.79096 -0.49892,-2.01914 -0.79096,-3.68584c-2.9191,0.26783 -4.37902,0.49892 -4.37902,0.7057l-0.79096,2.80953h-0.08469c-3.4429,-0.63221 -5.16998,-1.00961 -5.16998,-1.14348c2.74914,-8.59986 4.33041,-13.41666 4.73212,-14.46301c4.50045,0.64465 6.98176,1.03391 7.44451,1.14348zM92.70762,15.903c0,0.06047 1.54527,4.70724 4.64685,13.92802c-0.32822,0.12144 -2.18918,0.35252 -5.60719,0.70561c-0.23167,-0.79096 -0.49883,-2.01914 -0.79096,-3.68584c-2.91976,0.26783 -4.37902,0.49892 -4.37902,0.7057l-0.79096,2.80953h-0.08535c-3.44224,-0.63221 -5.16932,-1.00961 -5.16932,-1.14348c2.74914,-8.59986 4.33041,-13.41666 4.73154,-14.46301c4.50103,0.64465 6.98234,1.03391 7.44443,1.14348zM39.6253,18.21427c0,0.49826 0.0243,2.26267 0.08535,5.30328h0.07282c1.98306,-0.46217 2.96836,-0.77853 2.96836,-0.9367l0.69318,-3.1141l-3.81972,-1.32531zM56.85733,19.75888c-0.12144,0.59604 -0.30391,1.72767 -0.535,3.41793h2.63949l-0.97345,-3.8558c-0.75423,0 -1.13105,0.14574 -1.13105,0.43787zM88.15864,19.75888c-0.12209,0.59604 -0.30391,1.72767 -0.53565,3.41793h2.64015l-0.97345,-3.8558c-0.75423,0 -1.13105,0.14574 -1.13105,0.43787z" fill="url(#color-5)"/><path d="M90.40763,37.63175c0.8881,2.37224 1.42309,3.89254 1.61801,4.54963h0.07291c0.20678,-0.45031 1.02205,-1.70279 2.42084,-3.74623h0.07291c2.20162,0.1333 3.2965,0.29147 3.2965,0.44965l1.98248,13.56363c0,0.08469 -1.73953,0.27961 -5.20614,0.58352l-0.07282,-0.14574c-0.19492,-4.12363 -0.29213,-6.6416 -0.29213,-7.55408h-0.07282l-3.00445,2.63949h-0.07291c-0.09779,-0.04852 -0.77853,-1.11918 -2.05588,-3.22367h-0.07291c-1.56949,4.5615 -2.42084,6.98234 -2.56724,7.26203h-0.14574c-2.79766,-1.265 -4.39146,-2.01922 -4.7682,-2.27453v-0.07291c3.46654,-8.16257 5.27898,-12.3105 5.42529,-12.46867c2.29883,0.15817 3.44232,0.30457 3.44232,0.43787zM49.80578,37.3645c-0.2067,3.10166 -0.36496,4.64685 -0.47453,4.64685h-0.07291c-3.3451,-0.26783 -5.2185,-0.426 -5.59599,-0.47461v10.78961c0,0.19492 -0.766,0.32888 -2.28631,0.38926c0,0.06105 -0.86387,0.15817 -2.59154,0.31636l-0.08469,-0.15817c0.37682,-6.4349 0.60791,-10.24217 0.71748,-11.40988c-1.27736,0.20678 -3.17506,0.46209 -5.66882,0.77853c-0.74178,-2.76158 -1.10674,-4.17223 -1.10674,-4.24572c0,-0.10899 5.69312,-0.36496 17.09122,-0.79039zM64.36156,38.79945l-1.16778,4.27003c-3.79541,-1.00961 -5.83885,-1.56949 -6.11846,-1.67848c0,0.07291 -0.41357,0.99717 -1.25313,2.76093h0.08535c1.69027,-0.10957 3.53944,-0.26717 5.5225,-0.49883l0.08469,0.17062c-0.32822,1.88526 -0.58361,3.16262 -0.75365,3.84402l-4.68351,-0.66888c0.04852,0.92426 0.07282,1.61744 0.07282,2.09197v0.42542l0.08535,0.17062c1.03383,-0.10957 3.13832,-0.27961 6.28916,-0.51069c0.10899,0.49826 0.30391,1.76383 0.58361,3.77053c-0.06105,0 -0.08535,0.0243 -0.08535,0.08527c-7.35916,-0.38918 -11.09352,-0.64457 -11.21496,-0.75423l-1.76383,-5.02358c1.33782,-6.24056 2.09205,-9.58566 2.26201,-10.04783c8.04055,0.94856 12.05519,1.48414 12.05519,1.59313zM76.60601,38.39842c0,0.06105 1.54461,4.70781 4.64685,13.92793c-0.3283,0.12209 -2.18984,0.35318 -5.60785,0.70561c-0.23109,-0.79096 -0.49883,-2.01914 -0.79096,-3.68576c-2.9191,0.26783 -4.37902,0.49883 -4.37902,0.70561l-0.7903,2.81019h-0.08535c-3.44232,-0.63279 -5.16998,-1.01027 -5.16998,-1.14348c2.74914,-8.60044 4.33041,-13.41732 4.73212,-14.46359c4.50045,0.64457 6.98242,1.03383 7.44451,1.14348zM72.05643,42.2542c-0.12144,0.59604 -0.30391,1.72767 -0.535,3.41867h2.63949l-0.97287,-3.85646c-0.75423,0 -1.13162,0.14632 -1.13162,0.43778z" fill="url(#color-6)"/></g></g></g><path d="M141.5728,4.63207v62.5" fill="none" stroke="#ffffff" stroke-width="2.5" stroke-linecap="round"/><text transform="translate(146.00001,32.00707) scale(0.81419,0.81419)" font-size="40" xml:space="preserve" fill="#ffffff" fill-rule="nonzero" stroke="none" stroke-width="1" stroke-linecap="butt" stroke-linejoin="miter" stroke-miterlimit="10" stroke-dasharray="" stroke-dashoffset="0" font-family="Sans Serif" font-weight="normal" text-anchor="start" style="mix-blend-mode: normal"><tspan x="0" dy="0">The History</tspan></text><text transform="translate(149.00001,49.50707) scale(0.42416,0.42416)" font-size="40" xml:space="preserve" fill="#ffffff" fill-rule="nonzero" stroke="none" stroke-width="1" stroke-linecap="butt" stroke-linejoin="miter" stroke-miterlimit="10" stroke-dasharray="" stroke-dashoffset="0" font-family="Sans Serif" font-weight="normal" text-anchor="start" style="mix-blend-mode: normal"><tspan x="0" dy="0">How exactly did we get here?</tspan></text></g></g></svg>