<svg version="1.1" xmlns="http://www.w3.org/2000/svg" xmlns:xlink="http://www.w3.org/1999/xlink" width="495" height="396" viewBox="0,0,495,396"><defs><linearGradient x1="240" y1="-18" x2="240" y2="378" gradientUnits="userSpaceOnUse" id="color-1"><stop offset="0" stop-color="#000000"/><stop offset="1" stop-color="#000000" stop-opacity="0"/></linearGradient><linearGradient x1="240" y1="378" x2="240" y2="-18" gradientUnits="userSpaceOnUse" id="color-2"><stop offset="0" stop-color="#000000"/><stop offset="1" stop-color="#000000" stop-opacity="0"/></linearGradient><linearGradient x1="46.69458" y1="5.05373" x2="46.69458" y2="32.86653" gradientUnits="userSpaceOnUse" id="color-3"><stop offset="0" stop-color="#00395c"/><stop offset="1" stop-color="#003197"/></linearGradient><linearGradient x1="71.55452" y1="7.4068" x2="71.55452" y2="31.82729" gradientUnits="userSpaceOnUse" id="color-4"><stop offset="0" stop-color="#00395c"/><stop offset="1" stop-color="#003197"/></linearGradient><linearGradient x1="98.32715" y1="5.44256" x2="98.32715" y2="32.04103" gradientUnits="userSpaceOnUse" id="color-5"><stop offset="0" stop-color="#00395c"/><stop offset="1" stop-color="#003197"/></linearGradient><linearGradient x1="23.13093" y1="37.21851" x2="23.13093" y2="66.29906" gradientUnits="userSpaceOnUse" id="color-6"><stop offset="0" stop-color="#00395c"/><stop offset="1" stop-color="#003197"/></linearGradient><linearGradient x1="49.92572" y1="40.24595" x2="49.92572" y2="64.09522" gradientUnits="userSpaceOnUse" id="color-7"><stop offset="0" stop-color="#00395c"/><stop offset="1" stop-color="#003197"/></linearGradient><linearGradient x1="74.91559" y1="37.27377" x2="74.91559" y2="63.97548" gradientUnits="userSpaceOnUse" id="color-8"><stop offset="0" stop-color="#00395c"/><stop offset="1" stop-color="#003197"/></linearGradient><linearGradient x1="98.41565" y1="38.55813" x2="98.41565" y2="62.9786" gradientUnits="userSpaceOnUse" id="color-9"><stop offset="0" stop-color="#00395c"/><stop offset="1" stop-color="#003197"/></linearGradient><linearGradient x1="122.95951" y1="36.2898" x2="122.95951" y2="64.13023" gradientUnits="userSpaceOnUse" id="color-10"><stop offset="0" stop-color="#00395c"/><stop offset="1" stop-color="#003197"/></linearGradient><linearGradient x1="46.69458" y1="5.05373" x2="46.69458" y2="32.86647" gradientUnits="userSpaceOnUse" id="color-11"><stop offset="0" stop-color="#5276bd"/><stop offset="1" stop-color="#69d9ff"/></linearGradient><linearGradient x1="71.5545" y1="7.40673" x2="71.5545" y2="31.82724" gradientUnits="userSpaceOnUse" id="color-12"><stop offset="0" stop-color="#5276bd"/><stop offset="1" stop-color="#69d9ff"/></linearGradient><linearGradient x1="98.32712" y1="5.44256" x2="98.32712" y2="32.04101" gradientUnits="userSpaceOnUse" id="color-13"><stop offset="0" stop-color="#5276bd"/><stop offset="1" stop-color="#69d9ff"/></linearGradient><linearGradient x1="23.13098" y1="37.21851" x2="23.13098" y2="66.29902" gradientUnits="userSpaceOnUse" id="color-14"><stop offset="0" stop-color="#5276bd"/><stop offset="1" stop-color="#69d9ff"/></linearGradient><linearGradient x1="49.92572" y1="40.24595" x2="49.92572" y2="64.09522" gradientUnits="userSpaceOnUse" id="color-15"><stop offset="0" stop-color="#5276bd"/><stop offset="1" stop-color="#69d9ff"/></linearGradient><linearGradient x1="74.91559" y1="37.27377" x2="74.91559" y2="63.97539" gradientUnits="userSpaceOnUse" id="color-16"><stop offset="0" stop-color="#5276bd"/><stop offset="1" stop-color="#69d9ff"/></linearGradient><linearGradient x1="98.41565" y1="38.55806" x2="98.41565" y2="62.97857" gradientUnits="userSpaceOnUse" id="color-17"><stop offset="0" stop-color="#5276bd"/><stop offset="1" stop-color="#69d9ff"/></linearGradient><linearGradient x1="122.95956" y1="36.2898" x2="122.95956" y2="64.13024" gradientUnits="userSpaceOnUse" id="color-18"><stop offset="0" stop-color="#5276bd"/><stop offset="1" stop-color="#69d9ff"/></linearGradient></defs><g transform="translate(7.5,18)"><g data-paper-data="{&quot;isPaintingLayer&quot;:true}" fill-rule="nonzero" stroke-linejoin="miter" stroke-miterlimit="10" stroke-dasharray="" stroke-dashoffset="0" style="mix-blend-mode: normal"><g stroke="none" stroke-width="0" stroke-linecap="butt"><path d="M-7.5,378v-396h495v396z" fill="url(#color-1)"/><path d="M487.5,-18v396h-495v-396z" data-paper-data="{&quot;index&quot;:null}" fill="url(#color-2)"/></g><g fill="none" stroke-width="4" stroke-linecap="butt"><path d="M60.11175,12.42431l-0.92132,12.38068l-6.56532,7.14022l-15.60531,0.92132l-3.74239,-24.64529l13.76267,-3.16751zM45.0242,25.78341l4.77979,-1.72654l1.26591,-7.19736l-7.08127,-2.53362z" stroke="url(#color-3)"/><path d="M82.85727,9.84463l-1.452,7.46638l-9.79917,-2.59445l-0.62099,2.43967l7.56956,0.82918l-1.19218,5.65136l-6.8454,-0.93422l0.31325,2.59258l9.64252,-0.56939l0.88262,7.10152l-18.40797,-0.82735l-2.69577,-9.38457l3.37018,-14.20859z" stroke="url(#color-4)"/><path d="M94.36087,5.44256l5.70296,16.48793l2.4378,-14.36152l10.52514,1.91634l-7.25998,21.88319l-10.67994,0.67257l-11.45938,-20.94711z" stroke="url(#color-5)"/></g><g fill="none" stroke-width="4" stroke-linecap="butt"><path d="M34.9054,43.95705l-1.66944,8.23291l-4.26019,3.11038l7.37057,6.33315l-9.32929,4.66556l-6.67955,-9.55961v7.77411l-8.29186,0.40354l-2.13008,-25.68268l15.6053,-2.01585zM20.33754,51.67214l4.6066,-0.92132l0.80708,-4.72084l-5.70113,-1.61231z" stroke="url(#color-6)"/><path d="M48.81003,41.59476l-1.81498,15.34548l5.49658,-0.82918l0.67441,-12.08032l10.05896,1.5036l-2.28118,13.27436l-4.82218,5.28654l-13.79216,-0.05159l-5.70296,-4.76875l0.98397,-19.02894z" stroke="url(#color-7)"/><path d="M74.2937,37.27377l0.25981,17.62854l11.76893,-3.47336l-0.36299,10.83472l-18.71752,1.7118l-3.73319,-25.30126z" stroke="url(#color-8)"/><path d="M109.71841,40.99592l-1.452,7.46639l-9.79917,-2.59446l-0.62098,2.43967l7.56956,0.82918l-1.19218,5.65136l-6.8454,-0.93422l0.31325,2.59257l9.64253,-0.56939l0.88261,7.10153l-18.40797,-0.82736l-2.69577,-9.38456l3.37018,-14.20859z" stroke="url(#color-9)"/><path d="M121.6623,56.71729l1.81498,-2.74922l-13.84191,-6.99834l5.28654,-9.02157l11.76892,-1.65837l8.1408,4.56054l-3.67977,6.94859l-7.25997,-4.71899l-1.70996,2.904l14.20673,6.79197l-5.08201,10.11239l-13.58392,1.24193l-8.19239,-5.85774l3.78479,-6.16916z" stroke="url(#color-10)"/></g><g stroke="none" stroke-width="0.5" stroke-linecap="butt"><path d="M60.11175,12.42431l-0.92132,12.38068l-6.56532,7.14022l-15.60531,0.92132l-3.74239,-24.64529l13.76267,-3.16751zM45.0242,25.78341l4.77979,-1.72654l1.26591,-7.19736l-7.08127,-2.53362z" fill="url(#color-11)"/><path d="M82.85727,9.84463l-1.452,7.46638l-9.79917,-2.59445l-0.62099,2.43967l7.56956,0.82918l-1.19218,5.65136l-6.8454,-0.93422l0.31325,2.59258l9.64252,-0.56939l0.88262,7.10152l-18.40797,-0.82735l-2.69577,-9.38457l3.37018,-14.20859z" fill="url(#color-12)"/><path d="M94.36087,5.44256l5.70296,16.48793l2.4378,-14.36152l10.52514,1.91634l-7.25998,21.88319l-10.67994,0.67257l-11.45938,-20.94711z" fill="url(#color-13)"/></g><g stroke="none" stroke-width="0.5" stroke-linecap="butt"><path d="M34.9054,43.95705l-1.66944,8.23291l-4.26019,3.11038l7.37057,6.33315l-9.32929,4.66556l-6.67955,-9.55961v7.77411l-8.29186,0.40354l-2.13008,-25.68268l15.6053,-2.01585zM20.33754,51.67214l4.6066,-0.92132l0.80708,-4.72084l-5.70113,-1.61231z" fill="url(#color-14)"/><path d="M48.81003,41.59476l-1.81498,15.34548l5.49658,-0.82918l0.67441,-12.08032l10.05896,1.5036l-2.28118,13.27436l-4.82218,5.28654l-13.79216,-0.05159l-5.70296,-4.76875l0.98397,-19.02894z" fill="url(#color-15)"/><path d="M74.2937,37.27377l0.25981,17.62854l11.76893,-3.47336l-0.36299,10.83472l-18.71752,1.7118l-3.73319,-25.30126z" fill="url(#color-16)"/><path d="M109.71841,40.99592l-1.452,7.46639l-9.79917,-2.59446l-0.62098,2.43967l7.56956,0.82918l-1.19218,5.65136l-6.8454,-0.93422l0.31325,2.59257l9.64253,-0.56939l0.88261,7.10153l-18.40797,-0.82736l-2.69577,-9.38456l3.37018,-14.20859z" fill="url(#color-17)"/><path d="M121.6623,56.71729l1.81498,-2.74922l-13.84191,-6.99834l5.28654,-9.02157l11.76892,-1.65837l8.1408,4.56054l-3.67977,6.94859l-7.25997,-4.71899l-1.70996,2.904l14.20673,6.79197l-5.08201,10.11239l-13.58392,1.24193l-8.19239,-5.85774l3.78479,-6.16916z" fill="url(#color-18)"/></g><path d="M143.72388,67.13207v-62.5" fill="none" stroke="#ffffff" stroke-width="2.5" stroke-linecap="round"/><text transform="translate(148.15108,32.00707) scale(0.81419,0.81419)" font-size="40" xml:space="preserve" fill="#ffffff" fill-rule="nonzero" stroke="none" stroke-width="1" stroke-linecap="butt" stroke-linejoin="miter" stroke-miterlimit="10" stroke-dasharray="" stroke-dashoffset="0" font-family="Sans Serif" font-weight="normal" text-anchor="start" style="mix-blend-mode: normal"><tspan x="0" dy="0">Developer Rules</tspan></text><text transform="translate(149.65108,54.50707) scale(0.42416,0.42416)" font-size="40" xml:space="preserve" fill="#ffffff" fill-rule="nonzero" stroke="none" stroke-width="1" stroke-linecap="butt" stroke-linejoin="miter" stroke-miterlimit="10" stroke-dasharray="" stroke-dashoffset="0" font-family="Sans Serif" font-weight="normal" text-anchor="start" style="mix-blend-mode: normal"><tspan x="0" dy="0">Don't worry about these too much.</tspan></text><text transform="translate(371.05145,9.19624) scale(0.23998,0.23998)" font-size="40" xml:space="preserve" fill="#ffffff" fill-rule="nonzero" stroke="none" stroke-width="1" stroke-linecap="butt" stroke-linejoin="miter" stroke-miterlimit="10" stroke-dasharray="" stroke-dashoffset="0" font-family="Sans Serif" font-weight="normal" text-anchor="start" style="mix-blend-mode: normal"><tspan x="0" dy="0">Last Modified: 19/03/24</tspan></text><text transform="translate(1.95778,85.5152) scale(0.26364,0.26364)" font-size="40" xml:space="preserve" fill="#ffffff" fill-rule="nonzero" stroke="none" stroke-width="1" stroke-linecap="butt" stroke-linejoin="miter" stroke-miterlimit="10" stroke-dasharray="" stroke-dashoffset="0" font-family="Sans Serif" font-weight="normal" text-anchor="start" style="mix-blend-mode: normal"><tspan x="0" dy="0">&gt; Your Turn!</tspan><tspan x="0" dy="46.150000000000006px">When it is your turn to develop an update, you will be notified on your profile. If you fail to</tspan><tspan x="0" dy="46.150000000000006px">respond within 72 hours, your update slot will be given away. If you return after this occurs but</tspan><tspan x="0" dy="46.150000000000006px">before the update is released, you will be given permission to create a sub-version if the next</tspan><tspan x="0" dy="46.150000000000006px">update slot is taken.</tspan><tspan x="0" dy="46.150000000000006px"> </tspan><tspan x="0" dy="46.150000000000006px">&gt; Let's Get Started, but, take your time!</tspan><tspan x="0" dy="46.150000000000006px">By default, you will have 2-4 weeks to develop an update, however, don't worry. In the end, this</tspan><tspan x="0" dy="46.150000000000006px">means nothing. You can always ask for more time, and it will be accepted no matter what.</tspan><tspan x="0" dy="46.150000000000006px"> </tspan><tspan x="0" dy="46.150000000000006px">&gt; But where do I start!?</tspan><tspan x="0" dy="46.150000000000006px">When creating an update, always remix the latest version unless there is a specific reason.</tspan><tspan x="0" dy="46.150000000000006px"> </tspan><tspan x="0" dy="46.150000000000006px"> </tspan><tspan x="0" dy="46.150000000000006px"> </tspan><tspan x="0" dy="46.150000000000006px">&gt; Fan Contributions!</tspan><tspan x="0" dy="46.150000000000006px">Just because you can't call dibs on an update doesn't mean you can't make one! If you want to</tspan><tspan x="0" dy="46.150000000000006px">make an update to any of our games, go for it! Anyone is able to submit an idea to the vault by</tspan><tspan x="0" dy="46.150000000000006px">commenting it below. However, if you do make a fan-update/fan-version, feel free to link it to</tspan><tspan x="0" dy="46.150000000000006px">us in the relevant studio! Talk to us about it, tell us about what you've done and why</tspan><tspan x="0" dy="46.150000000000006px">you did it.</tspan><tspan x="0" dy="46.150000000000006px"> </tspan><tspan x="0" dy="46.150000000000006px">Who knows, the content you make may end up becoming official someday.</tspan></text></g></g></svg>