<svg version="1.1" xmlns="http://www.w3.org/2000/svg" xmlns:xlink="http://www.w3.org/1999/xlink" width="534.53454" height="641.41284" viewBox="0,0,534.53454,641.41284"><defs><linearGradient x1="235.11957" y1="-16.03765" x2="235.11957" y2="353.71237" gradientUnits="userSpaceOnUse" id="color-1"><stop offset="0" stop-color="#3b83ff"/><stop offset="1" stop-color="#8cc7ff"/></linearGradient><linearGradient x1="83.61954" y1="56.62896" x2="83.61954" y2="116.62902" gradientUnits="userSpaceOnUse" id="color-2"><stop offset="0" stop-color="#ffffff"/><stop offset="1" stop-color="#c0c0c0"/></linearGradient><linearGradient x1="140.11944" y1="28.62895" x2="140.11944" y2="88.62902" gradientUnits="userSpaceOnUse" id="color-3"><stop offset="0" stop-color="#ffffff"/><stop offset="1" stop-color="#dddddd"/></linearGradient><linearGradient x1="348.61961" y1="48.62902" x2="348.61961" y2="120.62893" gradientUnits="userSpaceOnUse" id="color-4"><stop offset="0" stop-color="#ffffff"/><stop offset="1" stop-color="#c0c0c0"/></linearGradient><linearGradient x1="405.61962" y1="22.62903" x2="405.61962" y2="65.62897" gradientUnits="userSpaceOnUse" id="color-5"><stop offset="0" stop-color="#ffffff"/><stop offset="1" stop-color="#ececec"/></linearGradient><linearGradient x1="25.11953" y1="54.62902" x2="25.11953" y2="87.62902" gradientUnits="userSpaceOnUse" id="color-6"><stop offset="0" stop-color="#ffffff"/><stop offset="1" stop-color="#dddddd"/></linearGradient><linearGradient x1="23.13131" y1="107.73855" x2="58.04901" y2="31.87292" gradientUnits="userSpaceOnUse" id="color-7"><stop offset="0" stop-color="#fff630" stop-opacity="0"/><stop offset="1" stop-color="#fff630"/></linearGradient></defs><g transform="translate(24.40159,16.03765)"><g data-paper-data="{&quot;isPaintingLayer&quot;:true}" fill-rule="nonzero" stroke-linecap="butt" stroke-linejoin="miter" stroke-miterlimit="10" stroke-dasharray="" stroke-dashoffset="0" style="mix-blend-mode: normal"><path d="M-11.38047,-16.03765h493v369.75h-493z" fill="url(#color-1)" stroke="none" stroke-width="1"/><g stroke="none" stroke-width="0"><path d="M-12.38502,363.01933v-123c0,0 15.02846,7.08962 60.01695,9.70899c75.5467,4.39858 204.63893,5.29101 262.98305,5.29101c27.10115,0 61.22493,-6.26486 92.82167,-9.03445c49.71753,-4.35795 93.17833,-5.96555 93.17833,-5.96555v123z" fill="#00a9a9"/><g fill="#00a9a9"><path d="M63.11498,138.51935c0,-21.26297 17.23703,-38.5 38.5,-38.5c21.26297,0 38.5,17.23703 38.5,38.5c0,23.94117 0.92969,135.42634 0.92969,135.42634l-75.42969,1.07367c0,0 -2.5,-115.23703 -2.5,-136.5z"/><path d="M137.11496,99.97936c0,-26.48758 25.42095,-47.96 56.7793,-47.96c31.35835,0 56.7793,21.47242 56.7793,47.96c0,29.82386 1.37108,168.70252 1.37108,168.70252l-111.24272,1.33748c0,0 -3.68696,-143.55242 -3.68696,-170.04z"/><path d="M392.11504,142.57937c0,-24.05752 18.78535,-43.56 41.95824,-43.56c23.1729,0 41.95825,19.50248 41.95825,43.56c0,27.08772 1.01319,153.22523 1.01319,153.22523l-82.20513,1.21477c0,0 -2.72456,-130.38247 -2.72456,-154.44z"/></g><path d="M-24.40159,625.37519v-333.33333c0,0 42.75686,-1.5015 79.57958,-1.5015c30.35698,0 92.90394,6.18056 162.1605,6.41065c50.26799,0.167 105.57222,-6.48968 153.16659,-7.36748c79.14954,-1.45977 139.62787,2.45833 139.62787,2.45833v333.33333z" fill="#22bb55"/></g><path d="M142.61944,86.62902c0,16.56854 -26.4152,30 -59,30c-32.5848,0 -59,-13.43146 -59,-30c0,-16.56854 26.4152,-30 59,-30c32.5848,0 59,13.43146 59,30z" fill="url(#color-2)" stroke="none" stroke-width="0"/><path d="M200.61954,58.62896c0,16.56854 -27.08677,30 -60.5,30c-33.41322,0 -60.5,-13.43146 -60.5,-30c0,-16.56854 27.08678,-30 60.5,-30c33.41323,0 60.5,13.43146 60.5,30z" fill="url(#color-3)" stroke="none" stroke-width="0"/><path d="M421.61961,84.62902c0,19.88225 -32.68322,36 -73,36c-40.31678,0 -73,-16.11775 -73,-36c0,-19.88225 32.68322,-36 73,-36c40.31678,0 73,16.11775 73,36z" fill="url(#color-4)" stroke="none" stroke-width="0"/><path d="M445.61962,44.12904c0,11.87412 -17.90861,21.5 -40,21.5c-22.09139,0 -40,-9.62588 -40,-21.5c0,-11.87412 17.90861,-21.5 40,-21.5c22.09139,0 40,9.62588 40,21.5z" fill="url(#color-5)" stroke="none" stroke-width="0"/><g stroke="none" stroke-width="0"><path d="M106.95291,64.96228c0,4.97056 -1.79086,9 -4,9c-2.20914,0 -4,-4.02944 -4,-9c0,-4.97056 1.79086,-9 4,-9c2.20914,0 4,4.02944 4,9z" data-paper-data="{&quot;origPos&quot;:null}" fill="#000000"/><path d="M102.28623,59.62896c0,-0.92047 0.7462,-1.66666 1.66667,-1.66666c0.92047,0 1.66666,0.74619 1.66666,1.66666c0,0.92047 -0.74619,1.66666 -1.66666,1.66666c-0.92047,0 -1.66667,-0.74619 -1.66667,-1.66666z" data-paper-data="{&quot;origPos&quot;:null}" fill="#ffffff"/></g><g stroke="none" stroke-width="0"><path d="M136.9528,64.62896c0,4.97056 -1.79086,9 -4,9c-2.20914,0 -4,-4.02944 -4,-9c0,-4.97056 1.79086,-9 4,-9c2.20914,0 4,4.02944 4,9z" data-paper-data="{&quot;origPos&quot;:null}" fill="#000000"/><path d="M132.28617,59.29559c0,-0.92047 0.74619,-1.66666 1.66666,-1.66666c0.92048,0 1.66666,0.74619 1.66666,1.66666c0,0.92047 -0.74619,1.66667 -1.66666,1.66667c-0.92048,0 -1.66666,-0.7462 -1.66666,-1.66667z" data-paper-data="{&quot;origPos&quot;:null}" fill="#ffffff"/></g><g stroke="none" stroke-width="0"><path d="M328.95286,76.62902c0,4.97056 -1.79086,9 -4,9c-2.20914,0 -4,-4.02944 -4,-9c0,-4.97056 1.79086,-9 4,-9c2.20914,0 4,4.02944 4,9z" data-paper-data="{&quot;origPos&quot;:null}" fill="#000000"/><path d="M324.28614,71.29559c0,-0.92047 0.74619,-1.66667 1.66667,-1.66667c0.92048,0 1.66666,0.74619 1.66666,1.66667c0,0.92047 -0.74619,1.66667 -1.66666,1.66667c-0.92048,0 -1.66667,-0.7462 -1.66667,-1.66667z" data-paper-data="{&quot;origPos&quot;:null}" fill="#ffffff"/></g><g stroke="none" stroke-width="0"><path d="M361.28624,77.62902c0,4.97056 -1.79086,9 -4,9c-2.20914,0 -4,-4.02944 -4,-9c0,-4.97056 1.79086,-9 4,-9c2.20914,0 4,4.02944 4,9z" data-paper-data="{&quot;origPos&quot;:null}" fill="#000000"/><path d="M356.61961,72.29559c0,-0.92047 0.74619,-1.66666 1.66666,-1.66666c0.92048,0 1.66667,0.74619 1.66667,1.66666c0,0.92047 -0.74619,1.66667 -1.66667,1.66667c-0.92048,0 -1.66666,-0.7462 -1.66666,-1.66667z" data-paper-data="{&quot;origPos&quot;:null}" fill="#ffffff"/></g><g stroke="#806a08"><path d="M40.18019,442.59313h152.60033v35.03444h-152.60033z" data-paper-data="{&quot;origPos&quot;:null}" fill="#bd9b0b" stroke-width="1.5"/><path d="M40.18019,477.55678h152.60033v35.03436h-152.60033z" data-paper-data="{&quot;origPos&quot;:null}" fill="#ffd210" stroke-width="0.21558"/></g><g stroke="#806a08"><path d="M346.04761,442.74159h152.60033v35.03444h-152.60033z" data-paper-data="{&quot;origPos&quot;:null}" fill="#bd9b0b" stroke-width="1.5"/><path d="M346.04761,477.70507h152.60033v35.03436h-152.60033z" data-paper-data="{&quot;origPos&quot;:null}" fill="#ffd210" stroke-width="0.21558"/></g><g stroke="#806a08"><path d="M193.06087,442.68745h152.60033v35.03444h-152.60033z" data-paper-data="{&quot;origPos&quot;:null}" fill="#bd9b0b" stroke-width="1.5"/><path d="M193.06087,477.65108h152.60033v35.03436h-152.60033z" data-paper-data="{&quot;origPos&quot;:null}" fill="#ffd210" stroke-width="0.21558"/></g><path d="M8.61953,71.12896c0,-9.1127 7.3873,-16.5 16.5,-16.5c9.1127,0 16.5,7.3873 16.5,16.5c0,9.1127 -7.3873,16.5 -16.5,16.5c-9.1127,0 -16.5,-7.3873 -16.5,-16.5z" fill="url(#color-6)" stroke="none" stroke-width="0"/><path d="M68.08973,128.43101l-89.91695,-41.38492l31.49774,-68.43509l30.60579,5.08193l41.39276,54.40399l8.99158,-11.66348l4.68947,2.769z" data-paper-data="{&quot;origRot&quot;:0}" fill="url(#color-7)" stroke="none" stroke-width="0"/></g></g></svg>