<svg version="1.1" xmlns="http://www.w3.org/2000/svg" xmlns:xlink="http://www.w3.org/1999/xlink" width="66.32349" height="26.2205" viewBox="0,0,66.32349,26.2205"><defs><linearGradient x1="240.00002" y1="166.88975" x2="240.00002" y2="193.11025" gradientUnits="userSpaceOnUse" id="color-1"><stop offset="0" stop-color="#a7a7a7"/><stop offset="1" stop-color="#7c7c7c"/></linearGradient><linearGradient x1="230.34375" y1="168.82359" x2="230.34375" y2="178.97448" gradientUnits="userSpaceOnUse" id="color-2"><stop offset="0" stop-color="#00395c"/><stop offset="1" stop-color="#003197"/></linearGradient><linearGradient x1="239.41693" y1="169.68239" x2="239.41693" y2="178.59519" gradientUnits="userSpaceOnUse" id="color-3"><stop offset="0" stop-color="#00395c"/><stop offset="1" stop-color="#003197"/></linearGradient><linearGradient x1="249.18819" y1="168.9655" x2="249.18819" y2="178.6732" gradientUnits="userSpaceOnUse" id="color-4"><stop offset="0" stop-color="#00395c"/><stop offset="1" stop-color="#003197"/></linearGradient><linearGradient x1="230.34375" y1="168.82359" x2="230.34375" y2="178.97446" gradientUnits="userSpaceOnUse" id="color-5"><stop offset="0" stop-color="#5276bd"/><stop offset="1" stop-color="#69d9ff"/></linearGradient><linearGradient x1="239.41692" y1="169.68237" x2="239.41692" y2="178.59517" gradientUnits="userSpaceOnUse" id="color-6"><stop offset="0" stop-color="#5276bd"/><stop offset="1" stop-color="#69d9ff"/></linearGradient><linearGradient x1="249.18818" y1="168.9655" x2="249.18818" y2="178.67319" gradientUnits="userSpaceOnUse" id="color-7"><stop offset="0" stop-color="#5276bd"/><stop offset="1" stop-color="#69d9ff"/></linearGradient><linearGradient x1="221.74368" y1="180.56283" x2="221.74368" y2="191.17641" gradientUnits="userSpaceOnUse" id="color-8"><stop offset="0" stop-color="#00395c"/><stop offset="1" stop-color="#003197"/></linearGradient><linearGradient x1="231.52303" y1="181.66776" x2="231.52303" y2="190.37207" gradientUnits="userSpaceOnUse" id="color-9"><stop offset="0" stop-color="#00395c"/><stop offset="1" stop-color="#003197"/></linearGradient><linearGradient x1="240.64363" y1="180.583" x2="240.64363" y2="190.32837" gradientUnits="userSpaceOnUse" id="color-10"><stop offset="0" stop-color="#00395c"/><stop offset="1" stop-color="#003197"/></linearGradient><linearGradient x1="249.22049" y1="181.05175" x2="249.22049" y2="189.96454" gradientUnits="userSpaceOnUse" id="color-11"><stop offset="0" stop-color="#00395c"/><stop offset="1" stop-color="#003197"/></linearGradient><linearGradient x1="258.17831" y1="180.22388" x2="258.17831" y2="190.38485" gradientUnits="userSpaceOnUse" id="color-12"><stop offset="0" stop-color="#00395c"/><stop offset="1" stop-color="#003197"/></linearGradient><linearGradient x1="221.7437" y1="180.56283" x2="221.7437" y2="191.1764" gradientUnits="userSpaceOnUse" id="color-13"><stop offset="0" stop-color="#5276bd"/><stop offset="1" stop-color="#69d9ff"/></linearGradient><linearGradient x1="231.52303" y1="181.66776" x2="231.52303" y2="190.37207" gradientUnits="userSpaceOnUse" id="color-14"><stop offset="0" stop-color="#5276bd"/><stop offset="1" stop-color="#69d9ff"/></linearGradient><linearGradient x1="240.64363" y1="180.583" x2="240.64363" y2="190.32834" gradientUnits="userSpaceOnUse" id="color-15"><stop offset="0" stop-color="#5276bd"/><stop offset="1" stop-color="#69d9ff"/></linearGradient><linearGradient x1="249.22049" y1="181.05173" x2="249.22049" y2="189.96453" gradientUnits="userSpaceOnUse" id="color-16"><stop offset="0" stop-color="#5276bd"/><stop offset="1" stop-color="#69d9ff"/></linearGradient><linearGradient x1="258.17833" y1="180.22388" x2="258.17833" y2="190.38486" gradientUnits="userSpaceOnUse" id="color-17"><stop offset="0" stop-color="#5276bd"/><stop offset="1" stop-color="#69d9ff"/></linearGradient></defs><g transform="translate(-206.83828,-166.88975)"><g data-paper-data="{&quot;isPaintingLayer&quot;:true}" fill-rule="nonzero" stroke-linecap="butt" stroke-linejoin="miter" stroke-miterlimit="10" stroke-dasharray="" stroke-dashoffset="0" style="mix-blend-mode: normal"><path d="M207.98858,168.24891c0,0 19.17748,-1.35916 31.45205,-1.35916c12.80097,0 32.80089,1.35916 32.80089,1.35916c0,0 0.92025,7.32013 0.92025,11.46167c0,5.03048 -0.92025,12.04051 -0.92025,12.04051c0,0 -19.80915,1.35916 -32.34076,1.35916c-12.54392,0 -31.91217,-1.35916 -31.91217,-1.35916c0,0 -1.15031,-7.41612 -1.15031,-12.3803c0,-4.20785 1.15031,-11.12188 1.15031,-11.12188z" fill="#ffffff" stroke="url(#color-1)" stroke-width="0"/><g fill="none" stroke-width="1.5"><path d="M235.24064,171.51364l-0.33626,4.5186l-2.39616,2.60598l-5.6955,0.33626l-1.36587,-8.99484l5.02299,-1.15605zM229.73411,176.38934l1.74449,-0.63014l0.46202,-2.62683l-2.58446,-0.9247z" stroke="url(#color-2)"/><path d="M243.54212,170.57213l-0.52994,2.72502l-3.57642,-0.9469l-0.22664,0.89041l2.76268,0.30263l-0.43511,2.06259l-2.49838,-0.34096l0.11433,0.94622l3.51925,-0.20781l0.32213,2.59186l-6.71839,-0.30196l-0.98388,-3.4251l1.23002,-5.18574z" stroke="url(#color-3)"/><path d="M247.74061,168.9655l2.08142,6.01763l0.88973,-5.24155l3.84138,0.69941l-2.64969,7.98675l-3.89788,0.24547l-4.18235,-7.64511z" stroke="url(#color-4)"/></g><g stroke="none" stroke-width="1"><path d="M235.24064,171.51364l-0.33626,4.5186l-2.39616,2.60598l-5.6955,0.33626l-1.36587,-8.99484l5.02299,-1.15605zM229.73411,176.38934l1.74449,-0.63014l0.46202,-2.62683l-2.58446,-0.9247z" fill="url(#color-5)"/><path d="M243.54212,170.57213l-0.52994,2.72502l-3.57642,-0.9469l-0.22664,0.89041l2.76268,0.30263l-0.43511,2.06259l-2.49838,-0.34096l0.11433,0.94622l3.51925,-0.20781l0.32213,2.59186l-6.71839,-0.30196l-0.98388,-3.4251l1.23002,-5.18574z" fill="url(#color-6)"/><path d="M247.74061,168.9655l2.08142,6.01763l0.88973,-5.24155l3.84138,0.69941l-2.64969,7.98675l-3.89788,0.24547l-4.18235,-7.64511z" fill="url(#color-7)"/></g><g fill="none" stroke-width="1.5"><path d="M226.04103,183.02221l-0.6093,3.00478l-1.55485,1.1352l2.69005,2.31142l-3.40493,1.7028l-2.43785,-3.48899v2.83733l-3.0263,0.14728l-0.77742,-9.37346l5.6955,-0.73573zM220.72417,185.838l1.68128,-0.33626l0.29456,-1.72297l-2.08075,-0.58845z" stroke="url(#color-8)"/><path d="M231.11583,182.16004l-0.66242,5.60067l2.0061,-0.30263l0.24614,-4.40898l3.67124,0.54877l-0.83257,4.84477l-1.75996,1.92944l-5.03375,-0.01883l-2.08142,-1.74046l0.35912,-6.94503z" stroke="url(#color-9)"/><path d="M240.41666,180.583l0.09482,6.43392l4.29533,-1.26768l-0.13248,3.95437l-6.83137,0.62476l-1.36251,-9.23425z" stroke="url(#color-10)"/><path d="M253.34568,181.94148l-0.52994,2.72502l-3.57642,-0.9469l-0.22664,0.89041l2.76268,0.30263l-0.43511,2.06259l-2.49838,-0.34096l0.11433,0.94622l3.51925,-0.20781l0.32213,2.59186l-6.71839,-0.30196l-0.98388,-3.4251l1.23002,-5.18574z" stroke="url(#color-11)"/><path d="M257.70486,187.67934l0.66242,-1.00339l-5.05191,-2.5542l1.92944,-3.29262l4.29533,-0.60526l2.97116,1.66447l-1.34301,2.53604l-2.64969,-1.7223l-0.62409,1.05988l5.18506,2.47888l-1.85479,3.69074l-4.95775,0.45327l-2.98999,-2.13791l1.38134,-2.25157z" stroke="url(#color-12)"/></g><g stroke="none" stroke-width="1"><path d="M226.04103,183.02221l-0.6093,3.00478l-1.55485,1.1352l2.69005,2.31142l-3.40493,1.7028l-2.43785,-3.48899v2.83733l-3.0263,0.14728l-0.77742,-9.37346l5.6955,-0.73573zM220.72417,185.838l1.68128,-0.33626l0.29456,-1.72297l-2.08075,-0.58845z" fill="url(#color-13)"/><path d="M231.11583,182.16004l-0.66242,5.60067l2.0061,-0.30263l0.24614,-4.40898l3.67124,0.54877l-0.83257,4.84477l-1.75996,1.92944l-5.03375,-0.01883l-2.08142,-1.74046l0.35912,-6.94503z" fill="url(#color-14)"/><path d="M240.41666,180.583l0.09482,6.43392l4.29533,-1.26768l-0.13248,3.95437l-6.83137,0.62476l-1.36251,-9.23425z" fill="url(#color-15)"/><path d="M253.34568,181.94148l-0.52994,2.72502l-3.57642,-0.9469l-0.22664,0.89041l2.76268,0.30263l-0.43511,2.06259l-2.49838,-0.34096l0.11433,0.94622l3.51925,-0.20781l0.32213,2.59186l-6.71839,-0.30196l-0.98388,-3.4251l1.23002,-5.18574z" fill="url(#color-16)"/><path d="M257.70486,187.67934l0.66242,-1.00339l-5.05191,-2.5542l1.92944,-3.29262l4.29533,-0.60526l2.97116,1.66447l-1.34301,2.53604l-2.64969,-1.7223l-0.62409,1.05988l5.18506,2.47888l-1.85479,3.69074l-4.95775,0.45327l-2.98999,-2.13791l1.38134,-2.25157z" fill="url(#color-17)"/></g></g></g></svg>