<svg version="1.1" xmlns="http://www.w3.org/2000/svg" xmlns:xlink="http://www.w3.org/1999/xlink" width="473.72676" height="354.94263" viewBox="0,0,473.72676,354.94263"><g transform="translate(-2.88315,-2.25)"><g data-paper-data="{&quot;isPaintingLayer&quot;:true}" fill-rule="nonzero" stroke="none" stroke-linecap="butt" stroke-linejoin="miter" stroke-miterlimit="10" stroke-dasharray="" stroke-dashoffset="0" style="mix-blend-mode: normal"><g stroke-width="0.04449"><g fill="#000000"><path d="M390.45914,3.65165c0.52381,0.2619 1.0338,0.48244 1.13031,0.48244c0.0827,0 0.35839,-0.22054 0.6065,-0.48244c0.55135,-0.6065 1.02001,-0.62029 3.11521,-0.12406c1.80572,0.42729 2.06762,0.62029 2.16411,1.51624c0.06891,0.55138 0.12406,0.67544 0.35839,0.67544c0.20675,0 0.28945,-0.11027 0.31702,-0.41354c0.13785,-1.40597 0.77192,-1.66787 3.00494,-1.24058c1.04762,0.193 1.11652,0.193 3.83201,-0.27566c1.51624,-0.2619 3.00494,-0.48244 3.29439,-0.48244c0.64787,0 1.13031,0.23433 2.46737,1.26812c0.57893,0.44108 1.14407,0.79947 1.25434,0.79947c0.28948,0 0.46869,-0.27566 0.59271,-0.88216c0.15163,-0.85462 0.57896,-1.18543 1.4887,-1.18543c0.70299,0 7.25046,0.77189 7.60884,0.89595c0.0827,0.02758 1.4887,-0.19297 3.10142,-0.49623c1.62654,-0.28945 3.10145,-0.53756 3.29442,-0.53756c0.42732,0 0.96489,0.31702 2.81197,1.65409c1.51624,1.08895 1.73678,1.36464 1.73678,2.16411c0,0.57893 -0.63405,3.08766 -0.90974,3.6528c-0.30327,0.57893 -0.23433,0.74435 0.41354,1.21301c0.33081,0.23433 0.67541,0.59271 0.7581,0.77189c0.22054,0.51002 0.17921,1.22679 -0.0827,1.54385c-0.3446,0.39972 -3.57008,1.81951 -4.12146,1.81951c-0.31702,0 -0.6065,-0.13785 -0.96489,-0.44111c-0.46866,-0.41351 -0.51002,-0.42729 -0.92353,-0.24812c-0.48244,0.22054 -3.5839,0.27569 -4.25931,0.08273c-0.28948,-0.08273 -0.46866,-0.04136 -0.74435,0.17918c-0.35839,0.27569 -0.51002,0.28948 -4.17658,0.28948c-2.19168,0 -4.02498,-0.05515 -4.31443,-0.13785c-0.66165,-0.193 -0.84083,-0.45487 -1.36464,-2.05384c-0.23433,-0.73056 -0.51002,-1.406 -0.62029,-1.51627c-0.20675,-0.22054 -0.52381,-0.11027 -1.19922,0.42732c-0.31702,0.24812 -0.62029,0.33081 -1.51624,0.38596l-1.13031,0.06891l-0.06894,1.10273c-0.0827,1.26812 -0.13781,1.40597 -0.77189,1.66787c-0.55138,0.23433 -3.51496,0.2619 -3.94228,0.04136c-0.1516,-0.08273 -0.35839,-0.35839 -0.46866,-0.62029c-0.23433,-0.57893 -0.44108,-0.59271 -0.93731,-0.06894c-0.66162,0.68923 -0.9511,0.74435 -3.76307,0.67544c-2.96357,-0.06894 -3.08763,-0.09648 -4.01116,-1.19922c-0.34463,-0.39975 -0.71677,-0.70299 -0.86841,-0.70299c-0.16542,0 -0.41354,0.23433 -0.67544,0.67541c-0.23433,0.37217 -0.57893,0.74435 -0.79947,0.82704c-0.3446,0.13785 -4.25931,0.56517 -5.21041,0.56517c-0.51002,0 -3.5425,-1.97114 -3.76307,-2.45359c-0.0827,-0.17921 -0.1516,-0.73056 -0.1516,-1.22679c0,-0.75814 0.06891,-1.0338 0.41351,-1.65409c0.23433,-0.39975 0.41354,-0.7995 0.41354,-0.88219c0,-0.0827 -0.17921,-0.33081 -0.41354,-0.5376c-0.37217,-0.3446 -0.41351,-0.48244 -0.41351,-1.17164c0,-0.70299 0.09648,-0.96489 0.77189,-2.23301c0.41354,-0.78571 0.90977,-1.51627 1.07516,-1.64033c0.17921,-0.11027 1.21301,-0.38596 2.30195,-0.6065c2.67413,-0.53756 3.07388,-0.52378 4.25931,0.06894z"/><path d="M413.14782,16.55359c0.62029,-0.01379 0.86841,0.12406 3.29442,1.91599l1.51624,1.11652l0.0827,-0.66165c0.16542,-1.35085 0.31705,-1.41976 2.96361,-1.41976c2.09517,0 2.64655,0.12406 2.89467,0.64787c0.05512,0.13781 0.15163,0.82704 0.19297,1.53003l0.06894,1.2957l1.76436,-1.33706c2.55007,-1.91599 2.92224,-2.13653 3.68038,-2.13653c0.71677,0 4.61766,1.07516 5.54122,1.53003c0.33081,0.15163 0.7581,0.52381 0.96489,0.81329c0.19297,0.28945 0.89595,1.2957 1.54382,2.26059c1.14407,1.68166 1.18543,1.76436 1.18543,2.53628c0,0.59271 -0.17918,1.35085 -0.73056,2.99115c-0.88219,2.61898 -1.21301,3.3082 -1.72302,3.57008c-0.57893,0.28948 -5.83067,1.46112 -6.5888,1.46112c-0.6065,0 -0.92353,-0.1516 -3.14278,-1.44733c-1.35085,-0.79947 -2.49492,-1.44733 -2.52249,-1.44733c-0.01379,0 -0.04136,0.39975 -0.04136,0.89598c0,1.0338 -0.17918,1.4887 -0.64783,1.70924c-0.193,0.0827 -1.17167,0.1516 -2.38468,0.1516c-1.21301,0 -2.19165,-0.06891 -2.38465,-0.1516c-0.3446,-0.15163 -0.64787,-0.64787 -0.64787,-1.02004c0,-0.11027 -0.05512,-0.20675 -0.11027,-0.20675c-0.05512,0 -0.85462,0.3446 -1.77814,0.75814c-2.30195,1.0338 -2.92224,1.00622 -3.69413,-0.13785c-0.46866,-0.68923 -0.56517,-0.74435 -0.68923,-0.3446c-0.17918,0.55135 -0.74432,0.6892 -2.89467,0.6892c-1.94353,0 -2.46734,-0.09648 -2.71546,-0.46866c-0.0827,-0.11027 -0.11027,-0.11027 -0.11027,0c0,0.2619 -0.67544,0.45487 -2.27438,0.66162c-2.68791,0.35839 -3.74929,0.41354 -4.1904,0.22054c-0.45487,-0.17918 -0.71677,-0.70299 -0.97865,-1.97111c-0.13785,-0.6892 -0.193,-0.78571 -0.48244,-0.78571c-0.7168,0 -0.96489,0.22054 -1.15789,0.97868c-0.27569,1.07516 -0.42729,1.36464 -0.85462,1.58518c-0.53756,0.27569 -1.06137,0.24812 -3.08763,-0.16542c-1.70924,-0.3446 -1.79193,-0.3446 -2.26059,-0.12406c-0.28948,0.13785 -1.25437,0.31705 -2.2882,0.42732c-3.08763,0.33081 -3.87331,0.24812 -4.19037,-0.45487c-0.0827,-0.193 -0.15163,-1.11652 -0.15163,-2.19168v-1.86087l-0.41351,0.22054c-0.55138,0.28948 -1.4887,0.2619 -2.01247,-0.05512l-0.42732,-0.2619l-0.24812,0.78571c-0.6065,1.91599 -1.0338,2.86709 -1.39218,3.03248c-0.7995,0.35839 -1.47491,0.193 -3.76307,-0.89595c-2.39843,-1.1441 -2.49492,-1.24058 -2.49492,-2.38465c0,-0.63408 0.73053,-2.42601 4.24549,-10.39324c0.48244,-1.11652 0.68923,-1.19922 2.99118,-1.19922c2.26059,0 2.55004,0.11027 2.90842,1.06137c0.31705,0.85462 0.41354,0.96489 0.59275,0.6065c0.33081,-0.6065 0.88216,-0.74435 2.75682,-0.67544c1.94357,0.06894 2.49492,0.24812 2.74303,0.89598c0.0827,0.20675 0.3446,1.77814 0.57893,3.48738c0.23433,1.70924 0.46866,3.19793 0.51002,3.3082c0.04136,0.11027 0.67541,-1.62654 1.40597,-3.85956c0.74435,-2.23304 1.406,-4.20415 1.50248,-4.35579c0.39975,-0.73056 1.26812,-0.75814 5.33446,-0.12406c2.5914,0.39972 3.03251,0.52378 3.32196,0.96489c0.11027,0.17918 0.85462,2.23301 1.64033,4.56254c0.79947,2.41222 1.43355,4.0801 1.43355,3.84577c0.01379,-0.23433 -0.08273,-1.10273 -0.17921,-1.92978c-0.11027,-0.84083 -0.27569,-2.42601 -0.37217,-3.54253c-0.19297,-2.26059 -0.11027,-2.68788 0.5376,-3.01873c0.20675,-0.09648 1.92978,-0.46866 3.81819,-0.82704c1.9022,-0.35839 3.69417,-0.64783 4.01119,-0.66162z"/><path d="M347.21831,36.54057c0.92356,0.46866 1.73681,0.93731 1.80572,1.06137c0.09648,0.17921 0.15163,0.16542 0.3446,-0.09648c0.13785,-0.17918 0.92356,-0.55135 2.06762,-0.97868c2.32953,-0.86838 2.89467,-0.89595 4.6039,-0.20675l1.18543,0.48244l3.00494,-0.55135c3.33578,-0.6065 3.7355,-0.64787 4.31446,-0.34463c0.70299,0.35842 3.65277,2.56386 3.80441,2.83955c0.12406,0.23433 0.17921,0.16542 0.38596,-0.52381c0.63408,-2.02626 1.0338,-2.52249 2.01247,-2.52249c0.67544,0 5.12771,0.6892 5.56879,0.85462c0.24812,0.09648 0.48244,0.35839 0.64787,0.71677l0.2619,0.56514v-0.44108c0,-0.63408 0.24812,-1.10273 0.67541,-1.26812c0.20675,-0.06894 2.94982,-0.16542 6.35447,-0.22057c6.58883,-0.09648 6.60262,-0.09648 6.91964,0.70302l0.17918,0.44108l1.64033,-0.6065c2.05384,-0.75814 2.77061,-0.78568 4.19037,-0.20675c0.89598,0.37217 0.99246,0.38596 1.06137,0.16539c0.04136,-0.13781 0.23433,-0.31702 0.42732,-0.39972c0.45487,-0.22054 4.74175,-0.22054 5.19662,-0.01379c0.52378,0.23433 0.64783,0.6892 0.64783,2.26059c0,0.86841 0.05515,1.44733 0.13785,1.44733c0.08273,0 0.13785,-0.59271 0.13785,-1.51624c0,-0.82707 0.06894,-1.65412 0.15163,-1.8333c0.19297,-0.42732 0.66162,-0.64787 1.3784,-0.64787c0.85462,0 3.45984,0.42732 3.87334,0.63408c0.33084,0.16542 0.37217,0.16542 0.4549,-0.06891c0.20675,-0.64787 1.30949,-0.7168 3.47359,-0.22057c1.76436,0.41354 2.32953,0.64787 2.45355,1.02004c0.12406,0.39975 0.27569,0.35839 0.46869,-0.11027c0.20675,-0.48244 0.66162,-0.70299 1.43355,-0.70299c0.78568,0 3.72171,1.40597 3.94225,1.88842c0.3446,0.77192 0.19297,1.46112 -0.96489,4.13525c-1.53003,3.55629 -1.81951,4.06631 -2.56386,4.76929c-0.37217,0.33081 -1.25434,1.1441 -1.97111,1.81951c-1.65412,1.53003 -1.97114,1.72302 -2.79818,1.72302c-0.52381,0 -0.99246,-0.16542 -2.41222,-0.88219l-1.7506,-0.86841l-1.91599,0.12406c-2.28816,0.13785 -2.61898,0.05515 -2.97736,-0.7581c-0.22054,-0.46869 -0.2619,-0.51002 -0.33081,-0.2619c-0.11027,0.35839 -0.86841,0.63408 -2.41222,0.92353c-1.98493,0.35839 -2.48116,0.24812 -2.85333,-0.6892l-0.24812,-0.56514l-1.30949,0.73053c-1.68166,0.92356 -1.97114,0.93734 -4.35579,0.12406c-2.52249,-0.84083 -3.22548,-1.15785 -3.43223,-1.58515c-0.11027,-0.193 -0.51002,-1.44733 -0.90977,-2.77061c-0.39972,-1.32331 -0.73056,-2.42601 -0.74435,-2.42601c0,-0.01379 -0.27566,-0.06894 -0.59271,-0.12406l-0.59271,-0.09651v3.11524c0,1.9849 -0.05512,3.22548 -0.15163,3.44602c-0.19297,0.42732 -0.93731,0.73056 -1.9849,0.82704c-0.45487,0.04136 -1.24058,0.11027 -1.7506,0.16542c-1.1027,0.11027 -1.66787,-0.06894 -1.9022,-0.63408c-0.11027,-0.2619 -0.13785,-1.36464 -0.11027,-3.54253l0.04136,-3.15654l-1.47491,0.01379c-0.82704,0 -1.4887,0 -1.4887,0c0,0 0.37217,1.11649 0.82704,2.48113c0.85462,2.53628 0.95113,3.10142 0.66165,3.72171c-0.2619,0.56514 -0.74435,0.73056 -3.0463,0.97868c-1.79193,0.19297 -2.20547,0.20675 -2.56386,0.05515c-0.4962,-0.20678 -0.78568,-0.67544 -0.92353,-1.50248c-0.15163,-0.97868 -0.59271,-0.88219 -0.86841,0.19297c-0.17918,0.71677 -0.52378,1.11652 -1.07516,1.25437c-0.44108,0.11027 -2.19168,-0.11027 -3.58386,-0.46866l-0.97868,-0.24812l-0.99246,0.45487c-1.40597,0.63408 -2.30195,0.59271 -2.89467,-0.13785c-0.20675,-0.24812 -0.24812,-0.2619 -0.66162,-0.04133c-0.33084,0.16539 -0.82704,0.22054 -2.0952,0.22054c-1.72302,0 -2.0952,-0.09648 -2.49492,-0.57893c-0.22054,-0.27569 -0.23433,-0.27569 -1.39221,0.35839c-1.53003,0.82704 -1.84705,0.82704 -4.43848,-0.05515c-2.31574,-0.78568 -3.0463,-1.13031 -3.17036,-1.47491c-0.0827,-0.17918 -0.20675,-0.05512 -0.62029,0.59271c-0.33081,0.51002 -0.67541,0.89598 -0.92353,0.99246c-0.39975,0.16542 -4.28685,0.57893 -5.3758,0.57893c-0.46866,0 -0.81329,-0.16539 -2.16411,-1.07516c-0.86841,-0.57893 -1.65412,-1.19922 -1.73681,-1.3784c-0.0827,-0.17921 -0.15163,-0.88219 -0.15163,-1.57139c0,-1.11652 0.04136,-1.32328 0.37217,-1.88845c0.23433,-0.41351 0.30327,-0.63405 0.193,-0.67541c-0.33084,-0.11027 -0.56517,-0.85462 -0.56517,-1.8333c0,-0.9511 0.04136,-1.06137 0.77192,-2.39843c0.52378,-0.97868 0.88216,-1.46112 1.13028,-1.58518c0.20678,-0.09648 1.24058,-0.3446 2.30195,-0.55135c2.94982,-0.59271 3.18415,-0.57893 5.21041,0.42729z"/><path d="M430.14363,36.34761c0.0827,0.17918 0.15163,1.06137 0.15163,1.9849c0,1.58518 0.01379,1.64033 0.2619,1.50248c0.38593,-0.20675 1.19922,-0.16542 1.66787,0.06891l0.39975,0.20678l0.1516,-0.78571c0.42732,-1.99869 0.99246,-2.27438 3.51496,-1.72302l1.10273,0.24812l1.30949,-0.84083c1.80572,-1.18543 2.0952,-1.30949 2.86709,-1.30949c0.68923,0 3.33578,0.67544 4.01119,1.02004c0.20675,0.11027 0.45487,0.1516 0.56517,0.0827c0.27566,-0.13785 5.65149,-1.10273 6.20284,-1.10273c0.48244,0 1.07516,0.27569 1.79193,0.82704c0.77192,0.59271 0.81329,0.59271 0.97868,0.22057c0.22054,-0.48244 0.63408,-0.6065 2.81197,-0.84086c2.32953,-0.24809 2.8533,-0.24809 3.28063,-0.05512c0.57893,0.2619 0.64783,0.64787 0.64783,3.70792c0,1.59897 0.02758,2.89467 0.06894,2.89467c0.05512,0 0.62029,-0.19297 1.2957,-0.42729l1.21301,-0.41354l-0.19297,-1.19922c-0.34463,-2.32953 -0.22057,-3.01873 0.63405,-3.3909c0.73056,-0.33081 4.9485,-1.32328 5.61016,-1.32328c0.56514,0 0.64783,0.04136 4.6866,2.38465c0.67541,0.39975 1.17164,0.78571 1.26812,0.99246c0.1103,0.23433 0.16542,1.30949 0.16542,3.11521c0,2.4398 -0.02758,2.81197 -0.2619,3.26684c-0.30324,0.59271 -2.39843,2.66034 -3.03251,2.97739c-0.48244,0.26187 -6.31311,0.74432 -6.94719,0.57893c-0.20675,-0.04136 -0.46866,-0.193 -0.59271,-0.33081c-0.193,-0.22057 -0.33081,-0.23433 -1.88842,-0.08273c-6.39584,0.62029 -6.96101,0.59271 -7.29182,-0.30324c-0.09648,-0.2619 -0.20675,-0.46866 -0.2619,-0.46866c-0.04136,0 -0.6892,0.27566 -1.41976,0.62029c-1.76439,0.81326 -2.61898,0.82704 -3.25305,0.02754c-0.20675,-0.24812 -0.24812,-0.2619 -0.66165,-0.04133c-0.33081,0.16539 -0.82704,0.22054 -2.09517,0.22054c-1.72302,0 -2.3571,-0.15163 -2.53628,-0.62029c-0.06894,-0.19297 -0.12406,-0.19297 -0.46866,-0.01379c-0.62029,0.31702 -3.41847,0.90977 -4.32824,0.90977c-0.84083,0 -1.41976,-0.23436 -3.50117,-1.41979l-0.84083,-0.46866l-0.30324,0.71677c-0.19297,0.45487 -0.42732,0.77192 -0.63408,0.86841c-0.17918,0.0827 -1.25434,0.23433 -2.38465,0.31702c-2.21926,0.193 -2.82576,0.09651 -2.99115,-0.44108c-0.06894,-0.22054 -0.13785,-0.23433 -0.37217,-0.11027c-0.193,0.11027 -0.99246,0.13785 -2.37089,0.09648c-2.46734,-0.06891 -2.83952,-0.19297 -3.17033,-1.10273c-0.35839,-0.9511 -2.0125,-8.69779 -2.0125,-9.38699c0,-1.36464 0.38596,-1.59897 3.2393,-2.01247c2.89467,-0.42732 3.58386,-0.35839 3.91468,0.35839z"/></g><g data-paper-data="{&quot;origPos&quot;:null}"><path d="M388.8326,4.28569c0.35839,-0.01376 3.14278,1.39221 3.14278,1.59897c0,0.08273 -0.24812,0.62029 -0.56514,1.19922c-0.63408,1.18543 -0.44108,1.17167 -2.30195,0.23433l-1.08895,-0.55135l-0.45487,0.62029c-0.24812,0.3446 -0.42732,0.63408 -0.39975,0.64783c0.02758,0.01379 1.28194,0.64787 2.77061,1.406c1.50248,0.7581 2.72928,1.43355 2.72928,1.50245c0,0.20678 -1.94357,3.40469 -2.10899,3.45984c-0.09648,0.04133 -1.14407,0.1516 -2.32953,0.26187l-2.15032,0.20678l-1.46112,-0.97868c-1.44733,-0.97868 -1.46112,-0.99246 -1.46112,-1.53003c0,-0.38596 0.13785,-0.75814 0.42732,-1.22679l0.42729,-0.66165l0.92356,0.49623c0.49623,0.27569 1.22679,0.6892 1.62651,0.89598l0.70299,0.39972l0.49623,-0.57893c0.59271,-0.73056 0.77192,-0.56514 -2.28816,-2.13653c-2.04005,-1.04758 -2.31574,-1.22679 -2.31574,-1.51627c0,-0.27566 0.82707,-1.95732 1.35085,-2.77061c0.06894,-0.09648 1.00625,-0.35839 2.10899,-0.57893c1.08895,-0.20675 2.09517,-0.39975 2.21923,-0.39975z" fill="#ffffff"/><path d="M393.24354,4.27195c0.0827,0 0.84083,0.16539 1.66787,0.35839l1.51624,0.35839l-0.0827,2.57761c-0.05512,1.406 -0.13785,2.97739 -0.17918,3.47363l-0.09651,0.90974l1.1441,0.09648c0.71677,0.05515 1.18543,0.04136 1.24058,-0.04133c0.04133,-0.08273 0.24812,-1.64033 0.46866,-3.48741c0.20675,-1.84705 0.42729,-3.40466 0.48244,-3.45981c0.16539,-0.16542 2.7844,0.33081 2.86709,0.55138c0.06891,0.17918 -0.35839,4.06631 -0.71677,6.47853l-0.19297,1.28191l-0.73056,0.6892l-0.73056,0.67544l-1.65412,0.01379c-0.90974,0 -1.9849,-0.04136 -2.38465,-0.09648c-0.71677,-0.08273 -0.75814,-0.11027 -1.75057,-1.26816l-1.02004,-1.18543l-0.01379,-3.96983c0,-2.94982 0.04136,-3.95604 0.16542,-3.95604z" fill="#ffffff"/><path d="M428.0209,4.34085c0.22054,0.05515 3.43223,2.42601 3.48738,2.55007c0.06891,0.16542 -0.67544,2.93603 -0.82704,3.129c-0.06894,0.09648 -0.46866,0.35839 -0.88219,0.59271c-0.41354,0.22054 -0.74435,0.44108 -0.74435,0.46866c0,0.02758 0.64787,0.52381 1.44733,1.10273c0.7995,0.59271 1.44733,1.10273 1.44733,1.15785c0,0.16542 -3.21169,1.55763 -3.29442,1.43358c-0.04133,-0.06894 -0.63405,-0.88219 -1.32328,-1.81951l-1.24055,-1.70924l-0.06894,1.57139l-0.06891,1.58518l-1.22679,0.04133c-0.67541,0.02758 -1.28191,-0.01379 -1.33706,-0.06891c-0.12406,-0.12406 -0.99246,-8.47725 -0.92353,-8.83563c0.04133,-0.19297 0.57893,-0.33081 2.72925,-0.73056c1.47491,-0.27569 2.75682,-0.49623 2.82576,-0.46866zM426.06355,6.64281c-0.13785,-0.04136 -0.17921,0.35839 -0.17921,1.76436c0,1.65412 0.01379,1.80572 0.24812,1.73681c0.12406,-0.02758 0.59271,-0.16542 1.02004,-0.27569l0.77189,-0.22054l0.22057,-0.96489c0.12406,-0.52381 0.22054,-1.00625 0.22054,-1.07516c0,-0.06891 -0.48244,-0.30327 -1.06137,-0.51002c-0.59271,-0.22054 -1.15789,-0.41351 -1.24058,-0.45487z" fill="#ffffff"/><path d="M408.18553,4.42354c0.16542,-0.01379 1.0338,0.55138 2.01247,1.28194l1.73681,1.30949l-0.2619,1.14407c-0.44108,1.91602 -0.48244,1.97114 -1.57139,2.86712l-1.00622,0.82704h-1.39221h-1.39218v1.43355c0,1.68166 0.09648,1.59897 -1.81951,1.59897h-1.19922l-0.06894,-0.59271c-0.15163,-1.1441 -0.64783,-8.80806 -0.59271,-8.877c0.04136,-0.02758 1.24058,-0.2619 2.67413,-0.52381c1.41976,-0.24809 2.71546,-0.46866 2.88088,-0.46866zM406.28331,6.75307c-0.06894,0 -0.11027,0.74435 -0.11027,1.65409c0,1.24058 0.04133,1.65412 0.17918,1.65412c0.08273,-0.01379 0.5376,-0.08273 0.99246,-0.17921l0.82704,-0.17918l0.23433,-0.88219c0.12406,-0.49623 0.22054,-0.96489 0.23433,-1.03383c0.01379,-0.0827 -0.49623,-0.3446 -1.11649,-0.59271c-0.63408,-0.24812 -1.18546,-0.44108 -1.24058,-0.44108z" fill="#ffffff"/><path d="M414.11271,4.40975c0.35839,0 6.61638,0.77192 7.30557,0.90977l0.44111,0.0827l-0.35839,1.32328c-0.193,0.74435 -0.38596,1.37843 -0.42732,1.43355c-0.05512,0.05515 -0.97868,-0.13781 -2.06762,-0.44108c-1.1027,-0.30324 -1.99869,-0.5376 -1.99869,-0.51002c-0.01379,0.01379 -0.19297,0.38596 -0.39975,0.84083c-0.20675,0.44111 -0.3446,0.84083 -0.30324,0.88219c0.04133,0.04136 0.86841,0.01379 1.8333,-0.0827c0.9511,-0.08273 1.76436,-0.12406 1.79193,-0.11027c0.02758,0.02754 -0.06894,0.62026 -0.193,1.30949c-0.22054,1.10273 -0.27566,1.25434 -0.52378,1.25434c-0.28948,0 -1.76439,-0.22054 -2.45359,-0.35839l-0.38596,-0.0827v0.92353v0.93734l0.7995,-0.08273c1.30949,-0.13785 3.47359,-0.27566 3.47359,-0.22054c0,0.02758 0.0827,0.56514 0.19297,1.18543l0.17921,1.1441h-3.33578c-1.83326,0 -3.52871,-0.04136 -3.76304,-0.08273c-0.41354,-0.0827 -0.4549,-0.16539 -1.00625,-1.83326l-0.57893,-1.7506l0.73056,-3.33575c0.70299,-3.19793 0.74432,-3.33578 1.04758,-3.33578z" fill="#ffffff"/><path d="M413.47863,18.22148c0.193,0.13785 1.17164,0.84083 2.17789,1.57139c0.99246,0.73056 1.81951,1.41976 1.81951,1.53003c0,0.20678 -0.42729,1.94357 -0.77192,3.17036c-0.20675,0.6892 -0.24809,0.74435 -1.30949,1.35085l-1.10273,0.63408l1.81951,1.33706c1.00625,0.73053 1.84708,1.40597 1.87466,1.47488c0.04133,0.13785 -0.45487,0.38596 -3.33578,1.65412l-0.6892,0.31702l-1.65409,-2.30195l-1.65409,-2.28816l-0.06894,1.99869l-0.06891,1.99872l-1.59897,0.04136c-1.36464,0.02754 -1.62654,0 -1.69545,-0.17921c-0.04136,-0.12406 -0.17918,-1.19922 -0.28948,-2.38465c-0.11027,-1.18543 -0.26187,-2.72928 -0.3446,-3.40469c-0.28945,-2.48113 -0.53756,-5.3758 -0.46866,-5.44474c0.04136,-0.02758 1.64033,-0.3446 3.54253,-0.6892c3.40469,-0.63408 3.47359,-0.63408 3.81819,-0.38596zM411.90724,21.37805l-1.46112,-0.5376v2.26062c0,1.24055 0.04136,2.26059 0.09651,2.26059c0.31702,0 2.26059,-0.6065 2.37086,-0.73056c0.15163,-0.20675 0.64787,-2.55007 0.53756,-2.64655c-0.04133,-0.04136 -0.73056,-0.31705 -1.54382,-0.6065z" fill="#2ea2f4"/><path d="M398.52284,18.56607c1.2957,0.193 2.41222,0.41354 2.49492,0.51002c0.17921,0.16542 3.96986,11.50976 3.88713,11.59246c-0.04133,0.04136 -1.81951,0.28945 -4.06631,0.55135l-0.57893,0.05515l-0.20678,-0.99246c-0.12406,-0.53756 -0.27566,-1.24058 -0.33081,-1.54382c-0.11027,-0.52381 -0.12406,-0.55138 -0.57893,-0.51002c-1.06137,0.0827 -2.88088,0.3446 -3.01873,0.44108c-0.0827,0.04136 -0.28948,0.57896 -0.45487,1.18546c-0.15163,0.59271 -0.31705,1.13028 -0.37217,1.18543c-0.09648,0.09648 -3.91471,-0.64787 -4.20415,-0.81326c-0.13785,-0.08273 0.24812,-1.43358 1.65409,-5.76179c1.00625,-3.11521 1.88842,-5.83067 1.97114,-6.05124c0.17918,-0.44108 -0.2619,-0.46866 3.80441,0.15163zM397.88877,21.91561c-0.50999,0 -0.62029,0.193 -0.81326,1.51627c-0.0827,0.64783 -0.19297,1.28191 -0.23433,1.40597c-0.05515,0.22054 0.05515,0.24812 1.06137,0.24812c1.07516,0 1.13031,-0.01379 1.06137,-0.27569c-0.04133,-0.1516 -0.20675,-0.86838 -0.38593,-1.58515c-0.30327,-1.25437 -0.33084,-1.30952 -0.68923,-1.30952z" fill="#43e73b"/><path d="M379.15616,18.1801l1.46109,0.04136l1.47491,0.04136l0.68923,1.97111l0.6892,1.97114l1.02001,-1.54382l1.03383,-1.54382l1.30949,0.06891c0.71677,0.04136 1.35085,0.12406 1.40597,0.19297c0.15163,0.16542 1.73681,11.33058 1.64033,11.44085c-0.08273,0.06891 -3.44605,0.46866 -4.06634,0.46866h-0.31702v-3.23927v-3.25305l-1.32328,1.11649c-0.71677,0.6065 -1.36464,1.10273 -1.43355,1.10273c-0.06894,0 -0.48244,-0.59271 -0.92353,-1.30949c-0.44111,-0.71677 -0.84086,-1.25437 -0.88219,-1.19922c-0.04136,0.05512 -0.5376,1.41976 -1.10273,3.01873c-0.55135,1.61275 -1.06137,2.93603 -1.11652,2.93603c-0.27566,0 -3.96983,-1.86087 -3.96983,-1.99872c0,-0.13785 1.76436,-4.24552 4.14904,-9.69025z" fill="#df0202"/><path d="M419.40581,18.86934l1.62654,0.04133l1.61272,0.04136l0.04136,6.09257l0.02758,6.10639h-1.65412h-1.65409v-6.13393z" fill="#f3df25"/><path d="M429.60607,18.88313c0.17918,0 4.38333,1.24055 4.70039,1.3784c0.3446,0.16542 3.15654,4.10767 3.15654,4.43848c0,0.30327 -1.48867,4.67284 -1.70921,5.00365c-0.16542,0.24812 -0.67544,0.39975 -3.07388,0.9511l-2.88088,0.66165l-2.20547,-1.29573c-1.19922,-0.71677 -2.3295,-1.39218 -2.50871,-1.50245c-0.30324,-0.193 -0.30324,-0.20678 -0.27569,-3.15657l0.04136,-2.96361l2.34332,-1.76436c1.28191,-0.96489 2.37086,-1.75057 2.41222,-1.75057zM429.52335,23.43187c-0.20675,0 -0.37217,1.58518 -0.30324,2.81197l0.04133,0.82704l1.30952,0.28945c0.71677,0.16542 1.32328,0.28948 1.35082,0.27569c0.13785,-0.11027 0.97868,-3.17036 0.89598,-3.25305c-0.06891,-0.05515 -0.78571,-0.30327 -1.61275,-0.52381c-0.82704,-0.23433 -1.58518,-0.42729 -1.68166,-0.42729z" fill="#a435e5"/><path d="M344.72339,37.09196c0.35839,-0.01379 3.14278,1.39218 3.14278,1.59894c0,0.08273 -0.24812,0.62029 -0.56514,1.19922c-0.63408,1.18546 -0.44111,1.17167 -2.30195,0.23436l-1.08895,-0.55138l-0.4549,0.62029c-0.24812,0.3446 -0.42729,0.63408 -0.39972,0.64787c0.02754,0.01376 1.28191,0.64783 2.77061,1.40597c1.50245,0.75814 2.72925,1.43355 2.72925,1.50245c0,0.20678 -1.94357,3.40469 -2.10896,3.45984c-0.09651,0.04133 -1.1441,0.15163 -2.32953,0.2619l-2.15032,0.20675l-1.39221,-0.92353l-1.3784,-0.92356l-0.01379,-0.73056c0,-0.55135 0.0827,-0.85462 0.35839,-1.26812l0.37217,-0.55138l0.90974,0.49623c0.49623,0.27569 1.22679,0.68923 1.62654,0.89598l0.70299,0.39975l0.49623,-0.57896c0.2619,-0.33081 0.42729,-0.64783 0.37217,-0.70299c-0.06894,-0.06891 -1.15789,-0.66162 -2.4398,-1.30949c-2.32953,-1.21301 -2.32953,-1.21301 -2.37086,-1.70924c-0.04136,-0.45487 0.45487,-1.57139 1.18543,-2.70167c0.06891,-0.09651 1.00622,-0.35839 2.10896,-0.57896c1.08895,-0.20675 2.0952,-0.39972 2.21926,-0.39972z" fill="#f3df25"/><path d="M363.649,37.14708c0.22054,0.05515 3.43226,2.42601 3.48738,2.55007c0.06894,0.16542 -0.67541,2.93603 -0.82704,3.129c-0.06891,0.09648 -0.46866,0.35839 -0.88219,0.59271c-0.41351,0.22054 -0.74435,0.44111 -0.74435,0.46866c0,0.02758 0.64787,0.52381 1.44733,1.10273c0.7995,0.59271 1.44736,1.10273 1.44736,1.15789c0,0.16539 -3.21172,1.5576 -3.29442,1.43355c-0.04136,-0.06894 -0.63408,-0.88219 -1.32328,-1.81951l-1.24058,-1.70924l-0.06891,1.57139l-0.06894,1.58518l-1.22679,0.04133c-0.67541,0.02758 -1.28191,-0.01376 -1.33706,-0.06891c-0.12406,-0.12406 -0.99243,-8.47725 -0.92353,-8.83563c0.04136,-0.19297 0.57893,-0.33081 2.72925,-0.73056c1.47491,-0.27566 2.75685,-0.49623 2.82576,-0.46866zM361.69163,39.44903c-0.13785,-0.04136 -0.17918,0.35839 -0.17918,1.76439c0,1.65409 0.01379,1.80572 0.24812,1.73678c0.12406,-0.02758 0.59271,-0.16542 1.02001,-0.27569l0.77192,-0.22054l0.22054,-0.96489c0.12406,-0.52378 0.22054,-1.00622 0.22054,-1.07516c0,-0.06891 -0.48244,-0.30324 -1.06137,-0.51002c-0.59271,-0.22054 -1.15785,-0.41351 -1.24058,-0.45487z" fill="#f3df25"/><path d="M371.20269,37.16087c0.23436,0.04136 1.33706,0.20675 2.42601,0.37217l1.98493,0.30324l1.5576,4.65905c1.04758,3.15657 1.50248,4.6866 1.39218,4.71417c-0.3446,0.13785 -3.47359,0.44108 -3.57008,0.35839c-0.04136,-0.04136 -0.17918,-0.57893 -0.30324,-1.17164c-0.12406,-0.6065 -0.24812,-1.13031 -0.28948,-1.15789c-0.13785,-0.13785 -2.61898,0.2619 -2.77061,0.45487c-0.0827,0.11027 -0.23433,0.5376 -0.33081,0.96489c-0.09651,0.42732 -0.22057,0.7995 -0.27569,0.82707c-0.11027,0.06891 -3.29442,-0.56517 -3.40469,-0.66165c-0.05512,-0.06891 2.7844,-9.06996 3.00494,-9.49726c0.09648,-0.16542 0.24812,-0.20678 0.57893,-0.16542zM373.0222,40.24853c-0.19297,0 -0.35839,0.09648 -0.39972,0.23433c-0.06894,0.24812 -0.35839,1.94353 -0.35839,2.13653c0,0.06891 0.39972,0.11027 0.88216,0.11027h0.88219l-0.19297,-0.66165c-0.09651,-0.35839 -0.24812,-0.90974 -0.33084,-1.24055c-0.12406,-0.48244 -0.20675,-0.57893 -0.48244,-0.57893z" fill="#f3df25"/><path d="M406.17305,37.06439l0.66162,0.09648c0.35839,0.04136 1.08895,0.16542 1.61275,0.24812l0.96489,0.16542l0.04136,4.90714l0.02754,4.90714l-0.37217,0.08273c-0.22054,0.04133 -0.90974,0.0827 -1.5576,0.11027l-1.17164,0.04133l-0.04136,-2.10896l-0.04133,-2.0952h-0.85462c-0.46866,0 -1.08895,0.04136 -1.36464,0.08273l-0.52381,0.09648v1.76436v1.76439l-0.71677,0.13781c-1.91599,0.39975 -2.02626,0.39975 -2.09517,0.16542c-0.04136,-0.12406 -0.31705,-2.23304 -0.63408,-4.70039c-0.30327,-2.46737 -0.59271,-4.71417 -0.63408,-5.00365l-0.0827,-0.50999h1.87463h1.87466v1.92978v1.92978h1.51624h1.51627v-2.0125z" fill="#f3df25"/><path d="M412.00372,37.07817c0.08273,0.01379 0.88219,0.17918 1.7506,0.38596l1.58518,0.38593v1.73681v1.75057l0.79947,0.193c0.42732,0.11027 0.81326,0.16542 0.84083,0.11027c0.02758,-0.04136 0.3446,-0.96489 0.6892,-2.05384c0.35839,-1.07516 0.70302,-1.95735 0.74435,-1.95735c0.193,0 2.7844,1.2957 2.7844,1.39221c0,0.12406 -1.59897,3.85956 -2.27438,5.2931c-0.53756,1.15785 -0.3446,0.96489 -3.94225,4.19037l-0.84083,0.75814l-2.19168,-1.08895c-1.19922,-0.6065 -2.19168,-1.1441 -2.19168,-1.21301c0,-0.06894 0.31702,-0.64787 0.70299,-1.28191l0.6892,-1.15789l1.02004,0.6892c0.56514,0.38596 1.07516,0.68923 1.13031,0.68923c0.06891,0 0.46866,-0.35839 0.90974,-0.7995l0.78571,-0.78568l-1.58518,-1.58518l-1.58518,-1.58518v-2.02626c0,-1.54382 0.04136,-2.04005 0.17918,-2.04005z" fill="#f3df25"/><path d="M428.75146,37.09196c0.12406,-0.01379 0.16539,0.71677 0.16539,3.18412v3.21172l1.22679,-1.22679l1.22679,-1.21301l0.92353,1.25434c0.49623,0.68923 0.96489,1.25437 1.02004,1.25437c0.04133,0 0.30324,-1.02001 0.55135,-2.26059c0.2619,-1.24058 0.51002,-2.34332 0.56517,-2.42601c0.06891,-0.11027 0.57893,-0.04136 1.81951,0.23433c1.54382,0.35839 1.75057,0.37217 1.87463,0.19297c0.06891,-0.12406 0.85462,-0.67541 1.73681,-1.24055l1.61272,-1.02004l1.406,0.37217c2.21923,0.59271 2.12274,0.52381 3.04627,2.34332l0.82704,1.59894l-0.19297,0.71677c-0.09648,0.39975 -0.46866,1.62654 -0.81326,2.72928l-0.64787,1.99869l-0.67541,0.16542c-0.38596,0.09648 -1.21301,0.28945 -1.84708,0.41351l-1.14407,0.24812l-1.41979,-0.7581c-0.78568,-0.41354 -1.53003,-0.82704 -1.68166,-0.92356c-0.22054,-0.17918 -0.24812,-0.46866 -0.28945,-3.25305l-0.05515,-3.06006l-0.41351,1.30949c-0.22057,0.71677 -0.77192,2.46734 -1.22679,3.87334l-0.81329,2.56382l-0.99243,0.09651c-0.55138,0.05512 -1.30949,0.12406 -1.69545,0.16539l-0.68923,0.08273l-0.55135,-1.46112c-0.30324,-0.7995 -0.59271,-1.46112 -0.63408,-1.46112c-0.05512,0 -0.33081,0.53756 -0.62029,1.18543l-0.53756,1.18543l-1.62654,-0.05512c-0.89595,-0.04136 -1.68166,-0.12406 -1.76436,-0.20678c-0.11027,-0.11027 -2.05384,-8.54616 -2.05384,-8.95966c0,-0.193 0.38596,-0.28948 2.55007,-0.59275c0.90974,-0.13781 1.73678,-0.24809 1.8333,-0.26187zM442.53556,40.05553l-0.50999,-0.22054l-0.68923,0.78568c-0.77189,0.86841 -0.78568,0.89598 -0.62026,2.81197c0.0827,0.99246 0.11027,1.04758 0.57893,1.35085c0.46866,0.31702 1.06137,0.33081 1.51624,0.04136c0.09648,-0.06894 0.37217,-0.84083 0.63408,-1.72302c0.45487,-1.58518 0.45487,-1.59897 0.22054,-2.13653c-0.13785,-0.28948 -0.33081,-0.56517 -0.42729,-0.62029c-0.11027,-0.04136 -0.42732,-0.16542 -0.70302,-0.28948z" fill="#f3df25"/><path d="M452.28096,37.14708c0.22054,0.05515 3.43223,2.42601 3.48738,2.55007c0.06891,0.16542 -0.67544,2.93603 -0.82704,3.129c-0.06894,0.09648 -0.46866,0.35839 -0.88219,0.59271c-0.41354,0.22054 -0.74435,0.44111 -0.74435,0.46866c0,0.02758 0.64787,0.52381 1.44733,1.10273c0.7995,0.59271 1.44733,1.10273 1.44733,1.15789c0,0.16539 -3.21169,1.5576 -3.29442,1.43355c-0.04133,-0.06894 -0.63405,-0.88219 -1.32328,-1.81951l-1.24055,-1.70924l-0.06894,1.57139l-0.06891,1.58518l-1.22679,0.04133c-0.67541,0.02758 -1.28191,-0.01376 -1.33706,-0.06891c-0.12406,-0.12406 -0.99246,-8.47725 -0.92353,-8.83563c0.04133,-0.19297 0.57893,-0.33081 2.72925,-0.73056c1.47491,-0.27566 2.75682,-0.49623 2.82576,-0.46866zM450.32361,39.44903c-0.13785,-0.04136 -0.17921,0.35839 -0.17921,1.76439c0,1.65409 0.01379,1.80572 0.24812,1.73678c0.12406,-0.02758 0.59271,-0.16542 1.02004,-0.27569l0.77189,-0.22054l0.22057,-0.96489c0.12406,-0.52378 0.22054,-1.00622 0.22054,-1.07516c0,-0.06891 -0.48244,-0.30324 -1.06137,-0.51002c-0.59271,-0.22054 -1.15789,-0.41351 -1.24058,-0.45487z" fill="#f3df25"/><path d="M460.24819,37.09196c0.22054,-0.01379 0.23433,0.24812 0.23433,3.70792c0,2.04005 0.02758,3.72171 0.05512,3.72171c0.02758,0 1.11652,-0.37217 2.42601,-0.82704c1.30949,-0.45487 2.39843,-0.82704 2.42601,-0.82704c0.02758,0 0.05515,0.92353 0.05515,2.05384v2.05384l-0.51002,0.0827c-0.93731,0.15163 -6.97476,0.63408 -7.0437,0.57893c-0.06891,-0.0827 -1.33706,-7.99477 -1.48867,-9.2905c-0.08273,-0.77189 -0.06894,-0.85462 0.16539,-0.86841c0.15163,0 0.97868,-0.0827 1.84708,-0.19297c0.86841,-0.09648 1.69545,-0.17918 1.8333,-0.19297z" fill="#f3df25"/><path d="M470.39331,37.09196c0.02754,-0.01379 1.13028,0.6065 2.43977,1.3784l2.39847,1.39221v2.34328v2.34332l-0.92356,0.96489c-1.76436,1.81951 -1.53003,1.72302 -4.65902,1.97114c-1.50248,0.11027 -2.75682,0.17918 -2.7844,0.1516c-0.11027,-0.11027 -1.44733,-9.19402 -1.36464,-9.27672c0.04136,-0.04136 1.1441,-0.3446 2.45359,-0.67541c1.30949,-0.31705 2.41222,-0.59271 2.4398,-0.59271zM469.6214,40.28986c-0.13785,-0.05512 -0.17921,0.46866 -0.17921,2.3571c0,1.84705 0.04136,2.42601 0.17921,2.42601c0.19297,0 2.16411,-0.51002 2.23304,-0.57896c0.06891,-0.06891 0.48244,-2.48113 0.48244,-2.81194c0,-0.24812 -0.22057,-0.38596 -1.26816,-0.81329c-0.70299,-0.28945 -1.36464,-0.53756 -1.44733,-0.57893z" fill="#f3df25"/><path d="M354.0001,37.22981c0.28948,-0.01379 3.34954,1.15785 3.55632,1.36461c0.09648,0.08273 -0.85462,2.20547 -1.08895,2.46737c-0.02758,0.02758 -0.55138,-0.16542 -1.17167,-0.44111l-1.11649,-0.50999l-0.95113,0.66162l-0.93731,0.64787l-0.01379,0.75814c0,0.41351 0.04136,0.97865 0.08273,1.25434c0.0827,0.48244 0.12406,0.52381 1.32328,0.99246l1.25434,0.49623l0.82704,-0.74435c0.4549,-0.41354 0.88219,-0.75814 0.95113,-0.75814c0.11027,0 0.42729,0.48244 1.13028,1.66787l0.35839,0.63408l-1.80572,0.99246l-1.80572,0.99246l-2.12274,-0.71677c-1.17167,-0.38596 -2.20547,-0.78571 -2.31574,-0.86841c-0.11027,-0.0827 -0.51002,-1.19922 -0.89598,-2.48116l-0.6892,-2.34328l1.00625,-1.43355l1.02001,-1.44733l1.5576,-0.59271c0.86841,-0.31705 1.69545,-0.59271 1.84708,-0.59271z" fill="#f3df25"/><path d="M387.81259,37.24356l2.10896,-0.02754l-0.04133,1.47488l-0.04136,1.4887h-0.75814c-0.41351,0 -1.2957,-0.04136 -1.95732,-0.11027l-1.21301,-0.09648v3.6528v3.65277l-0.30327,0.05515c-0.17918,0.04133 -0.74435,0.11027 -1.28191,0.15163c-0.52381,0.04133 -1.10273,0.11027 -1.26816,0.16539l-0.31702,0.06894l0.01379,-2.31574c0,-1.28194 0.05512,-3.01873 0.11027,-3.84577c0.06891,-0.84083 0.09648,-1.54385 0.06891,-1.57139c-0.02754,-0.02758 -0.74435,0.05512 -1.59894,0.17918c-0.85462,0.12406 -1.65412,0.22054 -1.77818,0.22054c-0.17918,0 -0.31702,-0.35839 -0.59271,-1.44733c-0.19297,-0.78568 -0.35839,-1.47488 -0.35839,-1.51624c0,-0.02758 1.59897,-0.0827 3.55632,-0.11027c1.94357,-0.01379 4.4936,-0.04136 5.65149,-0.06894z" fill="#f3df25"/><path d="M395.35249,37.22981c0.28948,-0.01379 3.34957,1.15785 3.55632,1.36461c0.09648,0.08273 -0.85462,2.20547 -1.08895,2.46737c-0.02758,0.02758 -0.55138,-0.16542 -1.17164,-0.44111l-1.11652,-0.50999l-0.9511,0.66162l-0.93731,0.64787l-0.01379,0.75814c0,0.41351 0.04133,0.97865 0.0827,1.25434c0.0827,0.48244 0.12406,0.52381 1.32328,0.99246l1.25437,0.49623l0.82704,-0.74435c0.45487,-0.41354 0.88216,-0.75814 0.9511,-0.75814c0.11027,0 0.42729,0.48244 1.13031,1.66787l0.35839,0.63408l-1.80572,0.99246l-1.80575,0.99246l-2.12274,-0.71677c-1.17164,-0.38596 -2.20547,-0.78571 -2.31574,-0.86841c-0.11027,-0.0827 -0.51002,-1.19922 -0.89595,-2.48116l-0.68923,-2.34328l1.00625,-1.43355l1.02004,-1.44733l1.5576,-0.59271c0.86838,-0.31705 1.69545,-0.59271 1.84705,-0.59271z" fill="#f3df25"/></g></g><text transform="translate(7.50002,26) scale(0.5,0.5)" font-size="40" xml:space="preserve" fill="#000000" fill-rule="nonzero" stroke="none" stroke-width="1" stroke-linecap="butt" stroke-linejoin="miter" stroke-miterlimit="10" stroke-dasharray="" stroke-dashoffset="0" font-family="Sans Serif" font-weight="normal" text-anchor="start" style="mix-blend-mode: normal"><tspan x="0" dy="0">Bug Tracker</tspan></text><text transform="translate(6.00001,24) scale(0.5,0.5)" font-size="40" xml:space="preserve" data-paper-data="{&quot;origPos&quot;:null}" fill="#ffffff" fill-rule="nonzero" stroke="none" stroke-width="1" stroke-linecap="butt" stroke-linejoin="miter" stroke-miterlimit="10" stroke-dasharray="" stroke-dashoffset="0" font-family="Sans Serif" font-weight="normal" text-anchor="start" style="mix-blend-mode: normal"><tspan x="0" dy="0">Bug Tracker</tspan></text><text transform="translate(3,40.55247) scale(0.23371,0.21261)" font-size="40" xml:space="preserve" data-paper-data="{&quot;origPos&quot;:null}" fill="#ffffff" fill-rule="nonzero" stroke="none" stroke-width="1" stroke-linecap="butt" stroke-linejoin="miter" stroke-miterlimit="10" stroke-dasharray="" stroke-dashoffset="0" font-family="Sans Serif" font-weight="normal" text-anchor="start" style="mix-blend-mode: normal"><tspan x="0" dy="0">- (SMSW-001) Dying whilst diving causes you to die whilst in the dive</tspan><tspan x="0" dy="46.150000000000006px">pose. | Reported by @zacky673248</tspan><tspan x="0" dy="46.150000000000006px">-</tspan><tspan x="0" dy="46.150000000000006px">-</tspan><tspan x="0" dy="46.150000000000006px">-</tspan><tspan x="0" dy="46.150000000000006px">-</tspan><tspan x="0" dy="46.150000000000006px">-</tspan><tspan x="0" dy="46.150000000000006px">-</tspan><tspan x="0" dy="46.150000000000006px">-</tspan><tspan x="0" dy="46.150000000000006px">-</tspan><tspan x="0" dy="46.150000000000006px">-</tspan><tspan x="0" dy="46.150000000000006px">-</tspan><tspan x="0" dy="46.150000000000006px">-</tspan><tspan x="0" dy="46.150000000000006px">-</tspan><tspan x="0" dy="46.150000000000006px">-</tspan><tspan x="0" dy="46.150000000000006px">-</tspan><tspan x="0" dy="46.150000000000006px">-</tspan><tspan x="0" dy="46.150000000000006px">-</tspan><tspan x="0" dy="46.150000000000006px">-</tspan><tspan x="0" dy="46.150000000000006px">-</tspan><tspan x="0" dy="46.150000000000006px">-</tspan><tspan x="0" dy="46.150000000000006px">-</tspan><tspan x="0" dy="46.150000000000006px">-</tspan><tspan x="0" dy="46.150000000000006px">-</tspan><tspan x="0" dy="46.150000000000006px">-</tspan><tspan x="0" dy="46.150000000000006px">-</tspan><tspan x="0" dy="46.150000000000006px">-</tspan><tspan x="0" dy="46.150000000000006px">-</tspan><tspan x="0" dy="46.150000000000006px">-</tspan><tspan x="0" dy="46.150000000000006px">-</tspan><tspan x="0" dy="46.150000000000006px">-</tspan><tspan x="0" dy="46.150000000000006px">-</tspan><tspan x="0" dy="46.150000000000006px">- </tspan></text></g></g></svg>