<svg version="1.1" xmlns="http://www.w3.org/2000/svg" xmlns:xlink="http://www.w3.org/1999/xlink" width="478.03969" height="363.48648" viewBox="0,0,478.03969,363.48648"><g transform="translate(-2.44134,3.41019)"><g data-paper-data="{&quot;isPaintingLayer&quot;:true}" fill-rule="nonzero" stroke-linejoin="miter" stroke-miterlimit="10" stroke-dasharray="" stroke-dashoffset="0" style="mix-blend-mode: normal"><text transform="translate(235.99675,87.85714) scale(0.41333,0.41333)" font-size="40" xml:space="preserve" fill="#000000" fill-rule="nonzero" stroke="none" stroke-width="1" stroke-linecap="butt" stroke-linejoin="miter" stroke-miterlimit="10" stroke-dasharray="" stroke-dashoffset="0" font-family="Sans Serif" font-weight="normal" text-anchor="start" style="mix-blend-mode: normal"><tspan x="0" dy="0"> </tspan><tspan x="0" dy="46.150000000000006px"> </tspan><tspan x="0" dy="46.150000000000006px"> </tspan><tspan x="0" dy="46.150000000000006px"> </tspan><tspan x="0" dy="46.150000000000006px"> </tspan><tspan x="0" dy="46.150000000000006px"> </tspan><tspan x="0" dy="46.150000000000006px"> </tspan><tspan x="0" dy="46.150000000000006px">0.2.3 - mariofan235</tspan><tspan x="0" dy="46.150000000000006px">0.2.4 -</tspan><tspan x="0" dy="46.150000000000006px">0.2.5 -</tspan><tspan x="0" dy="46.150000000000006px">0.2.6 -</tspan><tspan x="0" dy="46.150000000000006px">0.2.7 -</tspan><tspan x="0" dy="46.150000000000006px">0.2.8 -</tspan><tspan x="0" dy="46.150000000000006px">0.2.9 -</tspan><tspan x="0" dy="46.150000000000006px">0.3.0 -</tspan></text><path d="M141.57278,67.13208v-62.5" fill="none" stroke="#000000" stroke-width="2.5" stroke-linecap="round"/><text transform="translate(145.99999,32.00708) scale(0.81419,0.81419)" font-size="40" xml:space="preserve" fill="#000000" fill-rule="nonzero" stroke="none" stroke-width="1" stroke-linecap="butt" stroke-linejoin="miter" stroke-miterlimit="10" stroke-dasharray="" stroke-dashoffset="0" font-family="Sans Serif" font-weight="normal" text-anchor="start" style="mix-blend-mode: normal"><tspan x="0" dy="0">Dibs List</tspan></text><text transform="translate(148.99999,49.50708) scale(0.42416,0.42416)" font-size="40" xml:space="preserve" fill="#000000" fill-rule="nonzero" stroke="none" stroke-width="1" stroke-linecap="butt" stroke-linejoin="miter" stroke-miterlimit="10" stroke-dasharray="" stroke-dashoffset="0" font-family="Sans Serif" font-weight="normal" text-anchor="start" style="mix-blend-mode: normal"><tspan x="0" dy="0">You must be a team member to call dibs.</tspan></text><text transform="translate(150.40551,65.85438) scale(0.30573,0.32548)" font-size="40" xml:space="preserve" fill="#000000" fill-rule="nonzero" stroke="none" stroke-width="1" stroke-linecap="butt" stroke-linejoin="miter" stroke-miterlimit="10" stroke-dasharray="" stroke-dashoffset="0" font-family="Sans Serif" font-weight="normal" text-anchor="start" style="mix-blend-mode: normal"><tspan x="0" dy="0">Sub-versions (e.g. 0.1.0.5) will not be added to this list.</tspan></text><path d="M40.97944,143.38835l-0.1449,-0.1449" fill="none" stroke="#6dbee5" stroke-width="0.5" stroke-linecap="round"/><path d="M112.43279,135.34138l-0.10395,-0.10395" fill="none" stroke="#b0faff" stroke-width="0.5" stroke-linecap="round"/><path d="M110.35389,134.73503l-0.10395,-0.10395" fill="none" stroke="#b0faff" stroke-width="0.5" stroke-linecap="round"/><g stroke="none" stroke-width="0.04449" stroke-linecap="butt"><g fill="#000000"><path d="M53.96308,12.11194c0.51253,0.25626 1.01154,0.47205 1.10598,0.47205c0.08092,0 0.35067,-0.21579 0.59344,-0.47205c0.53948,-0.59344 0.99805,-0.60693 3.04814,-0.12139c1.76685,0.41809 2.02311,0.60694 2.11752,1.4836c0.06743,0.53951 0.12139,0.6609 0.35068,0.6609c0.2023,0 0.28322,-0.1079 0.3102,-0.40464c0.13488,-1.3757 0.7553,-1.63196 2.94025,-1.21387c1.02506,0.18885 1.09248,0.18885 3.7495,-0.26972c1.48359,-0.25626 2.94024,-0.47206 3.22346,-0.47206c0.63392,0 1.10597,0.22929 2.41425,1.24082c0.56646,0.43159 1.11944,0.78225 1.22733,0.78225c0.28325,0 0.4586,-0.26973 0.57995,-0.86317c0.14836,-0.83622 0.5665,-1.15991 1.45665,-1.15991c0.68785,0 7.09436,0.75527 7.44503,0.87666c0.08092,0.02698 1.45664,-0.18881 3.03464,-0.48555c1.59152,-0.28322 3.03468,-0.52599 3.2235,-0.52599c0.41812,0 0.94411,0.31019 2.75142,1.61848c1.48359,1.0655 1.69939,1.33526 1.69939,2.11752c0,0.56646 -0.6204,3.02118 -0.89015,3.57415c-0.29674,0.56647 -0.22928,0.72832 0.40464,1.18689c0.32369,0.22929 0.66087,0.57995 0.74178,0.75527c0.21579,0.49904 0.17535,1.20038 -0.08092,1.51061c-0.33718,0.39111 -3.49321,1.78034 -4.03272,1.78034c-0.31019,0 -0.59344,-0.13489 -0.94411,-0.43162c-0.45857,-0.40461 -0.49904,-0.41809 -0.90365,-0.24277c-0.47205,0.21579 -3.50674,0.26975 -4.16761,0.08095c-0.28325,-0.08095 -0.45857,-0.04047 -0.72832,0.17532c-0.35067,0.26975 -0.49904,0.28325 -4.08666,0.28325c-2.1445,0 -3.93832,-0.05397 -4.22154,-0.13489c-0.64741,-0.18885 -0.82273,-0.44508 -1.33526,-2.00962c-0.22929,-0.71483 -0.49904,-1.37573 -0.60693,-1.48362c-0.2023,-0.21579 -0.51253,-0.10789 -1.17341,0.41812c-0.31019,0.24278 -0.60693,0.32368 -1.48359,0.37765l-1.10598,0.06743l-0.06746,1.07899c-0.08092,1.24082 -0.13484,1.3757 -0.75527,1.63196c-0.53951,0.22929 -3.43928,0.25626 -3.8574,0.04047c-0.14834,-0.08095 -0.35067,-0.35067 -0.45857,-0.60693c-0.22929,-0.56647 -0.43158,-0.57995 -0.91713,-0.06745c-0.64737,0.67439 -0.93062,0.72832 -3.68205,0.6609c-2.89977,-0.06745 -3.02116,-0.0944 -3.9248,-1.1734c-0.33721,-0.39115 -0.70134,-0.68785 -0.84971,-0.68785c-0.16186,0 -0.40464,0.22929 -0.6609,0.66087c-0.22928,0.36416 -0.56647,0.72833 -0.78225,0.80924c-0.33718,0.13488 -4.16761,0.553 -5.09824,0.553c-0.49904,0 -3.46623,-1.9287 -3.68205,-2.40076c-0.08092,-0.17535 -0.14834,-0.71483 -0.14834,-1.20038c0,-0.74181 0.06743,-1.01155 0.4046,-1.61848c0.22928,-0.39115 0.40464,-0.78228 0.40464,-0.86319c0,-0.08092 -0.17535,-0.32369 -0.40464,-0.52603c-0.36415,-0.33718 -0.4046,-0.47206 -0.4046,-1.14642c0,-0.68785 0.0944,-0.94411 0.75527,-2.18493c0.40463,-0.7688 0.89018,-1.48362 1.05201,-1.60501c0.17535,-0.10789 1.18689,-0.37766 2.25239,-0.59345c2.61655,-0.52599 3.0077,-0.5125 4.16761,0.06746z"/><path d="M76.16328,24.7361c0.60693,-0.01349 0.84971,0.12138 3.22349,1.87473l1.4836,1.09249l0.08092,-0.6474c0.16186,-1.32176 0.31023,-1.3892 2.89981,-1.3892c2.05006,0 2.58957,0.12139 2.83235,0.63393c0.05393,0.13484 0.14836,0.80923 0.18881,1.49708l0.06746,1.26781l1.72637,-1.30828c2.49517,-1.87474 2.85933,-2.09053 3.60115,-2.09053c0.70134,0 4.51824,1.05202 5.42191,1.49709c0.32369,0.14836 0.74178,0.51253 0.94412,0.79578c0.18882,0.28322 0.87666,1.26781 1.51058,2.21192c1.11944,1.64545 1.15991,1.72637 1.15991,2.48167c0,0.57995 -0.17532,1.32177 -0.71483,2.92675c-0.8632,2.5626 -1.1869,3.23698 -1.68593,3.49322c-0.56646,0.28325 -5.70513,1.42966 -6.44694,1.42966c-0.59344,0 -0.90365,-0.14834 -3.07512,-1.41617c-1.32176,-0.78226 -2.4412,-1.41616 -2.46818,-1.41616c-0.0135,0 -0.04047,0.39114 -0.04047,0.87669c0,1.01154 -0.17532,1.45665 -0.63388,1.67244c-0.18885,0.08092 -1.14644,0.14834 -2.33334,0.14834c-1.1869,0 -2.14446,-0.06743 -2.33331,-0.14834c-0.33718,-0.14836 -0.63392,-0.63393 -0.63392,-0.99808c0,-0.10789 -0.05393,-0.2023 -0.1079,-0.2023c-0.05393,0 -0.83622,0.33719 -1.73985,0.74182c-2.25239,1.01154 -2.85933,0.98455 -3.6146,-0.13489c-0.45857,-0.67439 -0.553,-0.72832 -0.67439,-0.33718c-0.17532,0.53948 -0.72829,0.67436 -2.83235,0.67436c-1.90169,0 -2.41422,-0.09441 -2.657,-0.45857c-0.08092,-0.10789 -0.10789,-0.10789 -0.10789,0c0,0.25626 -0.6609,0.44508 -2.22541,0.64738c-2.63004,0.35068 -3.66857,0.40464 -4.10018,0.21579c-0.44508,-0.17532 -0.70134,-0.68786 -0.95758,-1.92868c-0.13488,-0.67436 -0.18885,-0.76879 -0.47205,-0.76879c-0.70137,0 -0.94411,0.21579 -1.13296,0.95761c-0.26976,1.05201 -0.41809,1.33526 -0.83622,1.55105c-0.52598,0.26976 -1.03852,0.24278 -3.02115,-0.16186c-1.67244,-0.33718 -1.75335,-0.33718 -2.21192,-0.12139c-0.28325,0.13488 -1.22736,0.31023 -2.23893,0.41812c-3.02115,0.32369 -3.78992,0.24278 -4.10015,-0.44508c-0.08092,-0.18885 -0.14837,-1.09248 -0.14837,-2.14449v-1.8208l-0.40461,0.21579c-0.53951,0.28325 -1.45664,0.25626 -1.96914,-0.05393l-0.41812,-0.25626l-0.24278,0.76879c-0.59344,1.87474 -1.01154,2.80536 -1.3622,2.96719c-0.78229,0.35068 -1.44316,0.18885 -3.68205,-0.87666c-2.3468,-1.11947 -2.44121,-1.21387 -2.44121,-2.33331c0,-0.62043 0.7148,-2.37377 4.15409,-10.16947c0.47205,-1.09248 0.67439,-1.1734 2.92678,-1.1734c2.21192,0 2.49514,0.10789 2.8458,1.03852c0.31023,0.83622 0.40464,0.94412 0.57999,0.59344c0.32369,-0.59344 0.86316,-0.72833 2.69746,-0.6609c1.90172,0.06745 2.44121,0.24278 2.68398,0.87669c0.08092,0.2023 0.33718,1.73986 0.56647,3.4123c0.22928,1.67244 0.45857,3.12908 0.49904,3.23697c0.04047,0.10789 0.66087,-1.59152 1.3757,-3.77646c0.72832,-2.18497 1.37573,-4.11363 1.47013,-4.26201c0.39115,-0.71483 1.24081,-0.74182 5.21961,-0.12139c2.53561,0.39111 2.96722,0.5125 3.25044,0.94412c0.10789,0.17532 0.83622,2.18494 1.60501,4.46431c0.78226,2.36029 1.40269,3.99226 1.40269,3.76298c0.0135,-0.22928 -0.08095,-1.07899 -0.17535,-1.88824c-0.10789,-0.82272 -0.26976,-2.37378 -0.36416,-3.46626c-0.18882,-2.21192 -0.10789,-2.63001 0.52603,-2.95374c0.2023,-0.0944 1.88823,-0.45857 3.73598,-0.80923c1.86124,-0.35067 3.61464,-0.63388 3.92483,-0.64738z"/><path d="M11.65321,44.29277c0.90367,0.45857 1.69942,0.91713 1.76685,1.03852c0.09441,0.17535 0.14837,0.16185 0.33718,-0.09441c0.13488,-0.17532 0.90368,-0.53948 2.02311,-0.95761c2.27937,-0.84969 2.83235,-0.87665 4.50478,-0.20229l1.1599,0.47205l2.94025,-0.53948c3.26396,-0.59344 3.65508,-0.63392 4.22158,-0.33721c0.68785,0.3507 3.57412,2.50866 3.7225,2.77842c0.12139,0.22928 0.17535,0.16186 0.37765,-0.51253c0.62043,-1.98264 1.01154,-2.46818 1.96914,-2.46818c0.6609,0 5.01731,0.67436 5.4489,0.83622c0.24278,0.09441 0.47205,0.35067 0.63392,0.70134l0.25626,0.55297v-0.43158c0,-0.62043 0.24278,-1.07899 0.66087,-1.24082c0.2023,-0.06746 2.88631,-0.16186 6.21766,-0.21582c6.44698,-0.09441 6.46047,-0.0944 6.77067,0.68789l0.17532,0.43158l1.60502,-0.59345c2.00962,-0.74182 2.71095,-0.76876 4.10015,-0.20229c0.87669,0.36415 0.97109,0.37765 1.03852,0.16183c0.04047,-0.13484 0.22929,-0.31019 0.41812,-0.39111c0.44508,-0.21579 4.63967,-0.21579 5.08474,-0.01349c0.51251,0.22928 0.63388,0.67436 0.63388,2.21192c0,0.84972 0.05396,1.41617 0.13488,1.41617c0.08095,0 0.13488,-0.57995 0.13488,-1.4836c0,-0.80927 0.06745,-1.61851 0.14836,-1.79383c0.18882,-0.41812 0.64737,-0.63392 1.34873,-0.63392c0.83622,0 3.38536,0.41812 3.78995,0.62043c0.32372,0.16186 0.36415,0.16186 0.4451,-0.06743c0.2023,-0.63392 1.2813,-0.70137 3.3988,-0.21582c1.72638,0.40463 2.27938,0.63392 2.40073,0.99808c0.12139,0.39115 0.26975,0.35068 0.4586,-0.10789c0.2023,-0.47205 0.64738,-0.68785 1.40269,-0.68785c0.76877,0 3.64159,1.3757 3.85738,1.84776c0.33718,0.7553 0.18881,1.42967 -0.94412,4.04622c-1.49709,3.47973 -1.78033,3.97877 -2.50866,4.66661c-0.36415,0.32369 -1.22733,1.11946 -1.92867,1.78034c-1.6185,1.49709 -1.9287,1.68592 -2.73794,1.68592c-0.51253,0 -0.97109,-0.16186 -2.36029,-0.8632l-1.71291,-0.84971l-1.87474,0.12138c-2.23889,0.13488 -2.56259,0.05397 -2.91326,-0.74177c-0.21579,-0.4586 -0.25626,-0.49905 -0.32368,-0.25626c-0.10789,0.35068 -0.84972,0.62043 -2.36029,0.90365c-1.94219,0.35068 -2.42774,0.24278 -2.79189,-0.67437l-0.24278,-0.55297l-1.28129,0.7148c-1.64545,0.90367 -1.92871,0.91716 -4.26201,0.12139c-2.46818,-0.82272 -3.15604,-1.13292 -3.35834,-1.55102c-0.10789,-0.18885 -0.49903,-1.41617 -0.89018,-2.71096c-0.39111,-1.29482 -0.71483,-2.37378 -0.72833,-2.37378c0,-0.01349 -0.26972,-0.06745 -0.57995,-0.12139l-0.57995,-0.09443v3.04817c0,1.94217 -0.05393,3.15604 -0.14836,3.37183c-0.18881,0.41812 -0.91713,0.71483 -1.94217,0.80924c-0.44508,0.04047 -1.21387,0.10789 -1.71291,0.16186c-1.07896,0.10789 -1.63196,-0.06745 -1.86125,-0.62043c-0.10789,-0.25626 -0.13488,-1.33526 -0.10789,-3.46626l0.04046,-3.08858l-1.44315,0.01349c-0.80924,0 -1.45665,0 -1.45665,0c0,0 0.36415,1.09245 0.80923,2.42771c0.83622,2.48168 0.93066,3.03465 0.6474,3.64159c-0.25626,0.55298 -0.72832,0.71482 -2.98071,0.9576c-1.75335,0.18881 -2.15799,0.2023 -2.50867,0.05397c-0.48551,-0.20233 -0.76877,-0.6609 -0.90365,-1.47013c-0.14836,-0.95761 -0.57995,-0.86319 -0.84971,0.18882c-0.17532,0.70134 -0.5125,1.09248 -1.05201,1.22736c-0.43158,0.10789 -2.14449,-0.10789 -3.5067,-0.45857l-0.95761,-0.24278l-0.9711,0.44508c-1.3757,0.62043 -2.25239,0.57995 -2.83234,-0.13488c-0.2023,-0.24278 -0.24278,-0.25626 -0.64738,-0.04044c-0.32371,0.16183 -0.80924,0.21579 -2.05009,0.21579c-1.68593,0 -2.05009,-0.0944 -2.4412,-0.56647c-0.21579,-0.26976 -0.22928,-0.26975 -1.36223,0.35068c-1.49709,0.80924 -1.80729,0.80923 -4.34292,-0.05396c-2.26589,-0.76877 -2.98072,-1.10598 -3.10211,-1.44316c-0.08092,-0.17532 -0.2023,-0.05393 -0.60693,0.57995c-0.32369,0.49904 -0.66087,0.87668 -0.90365,0.97109c-0.39114,0.16186 -4.19455,0.56647 -5.26006,0.56647c-0.45857,0 -0.79578,-0.16183 -2.11752,-1.05201c-0.84971,-0.56647 -1.61851,-1.17341 -1.69941,-1.34873c-0.08092,-0.17535 -0.14837,-0.8632 -0.14837,-1.53756c0,-1.09248 0.04047,-1.2948 0.36416,-1.84779c0.22928,-0.4046 0.29674,-0.6204 0.18885,-0.66087c-0.32371,-0.10789 -0.553,-0.83622 -0.553,-1.79383c0,-0.93062 0.04047,-1.03852 0.7553,-2.3468c0.51251,-0.95761 0.86317,-1.42966 1.10595,-1.55105c0.20233,-0.09441 1.21387,-0.33718 2.25239,-0.53948c2.88631,-0.57995 3.1156,-0.56646 5.09823,0.41809z"/><path d="M92.79319,44.10396c0.08092,0.17532 0.14836,1.03852 0.14836,1.94216c0,1.55105 0.01349,1.60501 0.25626,1.47013c0.37762,-0.2023 1.17341,-0.16185 1.63197,0.06743l0.39114,0.20232l0.14834,-0.76879c0.41812,-1.95566 0.97109,-2.22542 3.43928,-1.68593l1.07899,0.24278l1.2813,-0.82272c1.76685,-1.15991 2.05009,-1.28129 2.80536,-1.28129c0.67439,0 3.26396,0.6609 3.92483,0.99808c0.2023,0.10789 0.44508,0.14833 0.553,0.08092c0.26972,-0.13488 5.52982,-1.07899 6.0693,-1.07899c0.47205,0 1.05201,0.26975 1.75335,0.80923c0.7553,0.57995 0.79578,0.57996 0.95761,0.21583c0.21579,-0.47205 0.62043,-0.59345 2.75143,-0.82276c2.27938,-0.24275 2.79187,-0.24274 3.21,-0.05393c0.56646,0.25626 0.63389,0.63392 0.63389,3.62808c0,1.56455 0.02698,2.83235 0.06745,2.83235c0.05393,0 0.60693,-0.18881 1.2678,-0.41809l1.18689,-0.40463l-0.18882,-1.1734c-0.33721,-2.27938 -0.21582,-2.95374 0.6204,-3.31789c0.71483,-0.32369 4.84196,-1.29479 5.48938,-1.29479c0.55298,0 0.63388,0.04046 4.5857,2.3333c0.66087,0.39115 1.14641,0.7688 1.24081,0.9711c0.10792,0.22928 0.16186,1.28129 0.16186,3.04814c0,2.38727 -0.02698,2.75143 -0.25626,3.19651c-0.29671,0.57995 -2.34679,2.60306 -2.96722,2.91329c-0.47206,0.25623 -6.17719,0.7283 -6.79762,0.56647c-0.2023,-0.04047 -0.45857,-0.18885 -0.57995,-0.32369c-0.18885,-0.21582 -0.32369,-0.22928 -1.84776,-0.08094c-6.25814,0.60694 -6.81114,0.57995 -7.13483,-0.29671c-0.0944,-0.25626 -0.2023,-0.45857 -0.25626,-0.45857c-0.04047,0 -0.67436,0.26973 -1.38919,0.60694c-1.7264,0.79575 -2.5626,0.80924 -3.18301,0.02695c-0.2023,-0.24278 -0.24278,-0.25626 -0.64741,-0.04044c-0.32369,0.16183 -0.80923,0.21579 -2.05006,0.21579c-1.68592,0 -2.30636,-0.14836 -2.48168,-0.60693c-0.06745,-0.18881 -0.12139,-0.18881 -0.45857,-0.01349c-0.60694,0.3102 -3.34487,0.89019 -4.23506,0.89019c-0.82273,0 -1.38919,-0.22931 -3.42579,-1.38922l-0.82273,-0.45857l-0.29671,0.70134c-0.18882,0.44508 -0.41812,0.7553 -0.62043,0.84972c-0.17532,0.08092 -1.22733,0.22928 -2.3333,0.3102c-2.17148,0.18885 -2.76493,0.09443 -2.92675,-0.43159c-0.06745,-0.21579 -0.13488,-0.22928 -0.36415,-0.10789c-0.18885,0.10789 -0.97109,0.13488 -2.31985,0.0944c-2.41422,-0.06743 -2.77838,-0.18881 -3.10207,-1.07898c-0.35067,-0.93062 -1.96917,-8.51053 -1.96917,-9.18489c0,-1.33526 0.37765,-1.56455 3.16956,-1.96914c2.83235,-0.41812 3.5067,-0.35068 3.8304,0.35067z"/></g><g data-paper-data="{&quot;origPos&quot;:null}"><path d="M52.37156,12.73232c0.35068,-0.01347 3.07512,1.36224 3.07512,1.56455c0,0.08095 -0.24278,0.60694 -0.55297,1.1734c-0.62043,1.15991 -0.43158,1.14645 -2.25239,0.22929l-1.06551,-0.53948l-0.44508,0.60694c-0.24278,0.33718 -0.41812,0.62043 -0.39115,0.63388c0.02699,0.01349 1.25434,0.63392 2.71096,1.37573c1.47013,0.74178 2.67052,1.40269 2.67052,1.4701c0,0.20233 -1.90173,3.33139 -2.06359,3.38535c-0.09441,0.04044 -1.11944,0.14833 -2.27938,0.25623l-2.10402,0.20233l-1.42966,-0.95761c-1.41617,-0.95761 -1.42966,-0.9711 -1.42966,-1.49709c0,-0.37765 0.13488,-0.74182 0.41812,-1.20038l0.41809,-0.6474l0.90368,0.48554c0.48555,0.26975 1.20038,0.67436 1.59149,0.87669l0.68785,0.39112l0.48555,-0.56647c0.57995,-0.71483 0.7553,-0.55297 -2.2389,-2.09053c-1.99613,-1.02502 -2.26588,-1.20038 -2.26588,-1.48362c0,-0.26973 0.80927,-1.91518 1.32177,-2.71096c0.06746,-0.09441 0.98458,-0.35067 2.06358,-0.56646c1.06551,-0.2023 2.05006,-0.39114 2.17145,-0.39114z" fill="#ffffff"/><path d="M56.68753,12.71888c0.08092,0 0.82273,0.16182 1.63197,0.35067l1.4836,0.35068l-0.08092,2.52211c-0.05394,1.37573 -0.13488,2.91329 -0.17532,3.39885l-0.09444,0.89016l1.11947,0.0944c0.70134,0.05397 1.15991,0.04047 1.21387,-0.04044c0.04044,-0.08095 0.24278,-1.60501 0.45857,-3.41232c0.2023,-1.80729 0.41809,-3.33136 0.47205,-3.38532c0.16183,-0.16186 2.72445,0.32369 2.80536,0.53951c0.06743,0.17532 -0.35067,3.97876 -0.70134,6.33905l-0.18881,1.25431l-0.71483,0.67437l-0.71483,0.6609l-1.61851,0.01349c-0.89015,0 -1.94216,-0.04047 -2.33331,-0.09441c-0.70134,-0.08095 -0.74181,-0.10789 -1.71288,-1.24085l-0.99808,-1.15991l-0.01349,-3.88436c0,-2.88631 0.04047,-3.87086 0.16186,-3.87086z" fill="#ffffff"/><path d="M90.71614,12.7863c0.21579,0.05396 3.35833,2.37378 3.4123,2.49517c0.06743,0.16186 -0.6609,2.87282 -0.80924,3.06163c-0.06745,0.0944 -0.45857,0.35067 -0.8632,0.57995c-0.40463,0.21579 -0.72832,0.43159 -0.72832,0.45857c0,0.02698 0.63392,0.51253 1.41617,1.07899c0.78229,0.57995 1.41617,1.07898 1.41617,1.13292c0,0.16186 -3.14254,1.52409 -3.22349,1.40272c-0.04044,-0.06745 -0.6204,-0.8632 -1.29479,-1.78034l-1.21384,-1.67244l-0.06746,1.53755l-0.06743,1.55106l-1.20038,0.04044c-0.66087,0.02698 -1.25431,-0.01349 -1.30827,-0.06743c-0.12139,-0.12139 -0.97109,-8.29474 -0.90364,-8.6454c0.04044,-0.18881 0.56646,-0.32369 2.67049,-0.71483c1.44316,-0.26975 2.69746,-0.48555 2.76492,-0.45857zM88.80094,15.0387c-0.13488,-0.04047 -0.17535,0.35067 -0.17535,1.72637c0,1.6185 0.01349,1.76684 0.24278,1.69942c0.12139,-0.02698 0.57995,-0.16186 0.99808,-0.26975l0.75527,-0.21579l0.21582,-0.94412c0.12139,-0.51253 0.21579,-0.98458 0.21579,-1.05201c0,-0.06743 -0.47206,-0.29674 -1.03852,-0.49904c-0.57995,-0.21579 -1.13296,-0.40461 -1.21387,-0.44508z" fill="#ffffff"/><path d="M71.30782,12.86721c0.16186,-0.0135 1.01154,0.53951 1.96914,1.25434l1.69942,1.2813l-0.25626,1.11944c-0.43158,1.87477 -0.47205,1.9287 -1.53756,2.80539l-0.98456,0.80923h-1.36223h-1.36221v1.40269c0,1.64545 0.09441,1.56454 -1.78033,1.56454h-1.1734l-0.06745,-0.57994c-0.14836,-1.11947 -0.63389,-8.61843 -0.57995,-8.68589c0.04047,-0.02698 1.21387,-0.25626 2.61656,-0.51253c1.3892,-0.24275 2.65699,-0.45857 2.81885,-0.45857zM69.44658,15.14658c-0.06745,0 -0.10789,0.72832 -0.10789,1.61848c0,1.21387 0.04044,1.61851 0.17532,1.61851c0.08095,-0.01349 0.52603,-0.08095 0.9711,-0.17535l0.80924,-0.17533l0.22928,-0.86319c0.12139,-0.48554 0.21579,-0.94412 0.22929,-1.01157c0.0135,-0.08092 -0.48555,-0.33718 -1.09246,-0.57995c-0.62043,-0.24278 -1.15994,-0.43158 -1.21387,-0.43158z" fill="#ffffff"/><path d="M77.10739,12.85371c0.35067,0 6.47393,0.7553 7.14829,0.89019l0.43161,0.08092l-0.35067,1.29479c-0.18885,0.72833 -0.37765,1.34875 -0.41812,1.40268c-0.05393,0.05397 -0.95761,-0.13484 -2.02311,-0.43158c-1.07896,-0.29671 -1.95566,-0.52603 -1.95566,-0.49904c-0.0135,0.01349 -0.18881,0.37766 -0.39114,0.82273c-0.2023,0.43162 -0.33718,0.82273 -0.29671,0.8632c0.04044,0.04047 0.84972,0.0135 1.79383,-0.08092c0.93063,-0.08095 1.72638,-0.12139 1.75335,-0.1079c0.02698,0.02695 -0.06745,0.60691 -0.18885,1.2813c-0.21579,1.07899 -0.26973,1.22734 -0.51251,1.22734c-0.28325,0 -1.7264,-0.21579 -2.40076,-0.35067l-0.37765,-0.08092v0.90365v0.91716l0.78229,-0.08095c1.2813,-0.13488 3.3988,-0.26973 3.3988,-0.21579c0,0.02698 0.08092,0.55297 0.18882,1.15991l0.17535,1.11947h-3.26396c-1.79379,0 -3.45274,-0.04047 -3.68202,-0.08095c-0.40463,-0.08092 -0.44511,-0.16183 -0.98459,-1.79379l-0.56646,-1.71291l0.71483,-3.26393c0.68785,-3.12908 0.7283,-3.26396 1.02502,-3.26396z" fill="#ffffff"/><path d="M76.48696,26.36808c0.18885,0.13488 1.14642,0.82273 2.13101,1.53756c0.9711,0.71483 1.78033,1.3892 1.78033,1.49709c0,0.20233 -0.41809,1.90172 -0.7553,3.1021c-0.2023,0.67436 -0.24275,0.72832 -1.2813,1.32176l-1.07899,0.62043l1.78033,1.30828c0.98458,0.7148 1.80732,1.3757 1.8343,1.44313c0.04044,0.13488 -0.44508,0.37765 -3.26397,1.6185l-0.67436,0.3102l-1.61848,-2.25239l-1.61847,-2.23889l-0.06746,1.95566l-0.06743,1.95569l-1.56454,0.04047c-1.33526,0.02694 -1.59153,0 -1.65895,-0.17535c-0.04047,-0.12139 -0.17533,-1.1734 -0.28325,-2.33331c-0.10789,-1.15991 -0.25623,-2.67051 -0.33718,-3.33138c-0.28322,-2.42771 -0.52598,-5.26007 -0.45857,-5.32752c0.04047,-0.02698 1.60501,-0.33718 3.46626,-0.67436c3.33139,-0.62043 3.39881,-0.62043 3.73599,-0.37765zM74.94941,29.45669l-1.42966,-0.52602v2.21195c0,1.21384 0.04047,2.21192 0.09444,2.21192c0.31019,0 2.21192,-0.59345 2.31981,-0.71484c0.14836,-0.2023 0.63392,-2.49516 0.52599,-2.58957c-0.04044,-0.04047 -0.71483,-0.31022 -1.51058,-0.59344z" fill="#2ea2f4"/><path d="M61.85318,26.70525c1.26781,0.18885 2.36028,0.40464 2.44121,0.49904c0.17535,0.16186 3.88439,11.26196 3.80344,11.34288c-0.04044,0.04047 -1.78034,0.28321 -3.97876,0.53947l-0.56647,0.05397l-0.20232,-0.9711c-0.12139,-0.52598 -0.26973,-1.21387 -0.32369,-1.51058c-0.10789,-0.51253 -0.12139,-0.53951 -0.56646,-0.49904c-1.03852,0.08092 -2.81885,0.33718 -2.95374,0.43158c-0.08092,0.04047 -0.28325,0.5665 -0.44508,1.15994c-0.14836,0.57995 -0.31022,1.10594 -0.36415,1.15991c-0.09441,0.09441 -3.83043,-0.63392 -4.11364,-0.79575c-0.13488,-0.08095 0.24278,-1.40272 1.61848,-5.63774c0.98459,-3.04814 1.84777,-5.70514 1.92871,-5.92096c0.17532,-0.43158 -0.25627,-0.45857 3.7225,0.14837zM61.23275,29.98268c-0.49901,0 -0.60693,0.18884 -0.79575,1.48362c-0.08092,0.63388 -0.18881,1.25431 -0.22928,1.3757c-0.05396,0.21579 0.05396,0.24278 1.03852,0.24278c1.05201,0 1.10598,-0.0135 1.03852,-0.26976c-0.04044,-0.14834 -0.2023,-0.84969 -0.37762,-1.55102c-0.29674,-1.22736 -0.32372,-1.28132 -0.67439,-1.28132z" fill="#43e73b"/><path d="M42.90345,26.32759l1.42963,0.04047l1.44316,0.04047l0.67439,1.92867l0.67436,1.92871l0.99805,-1.51058l1.01157,-1.51058l1.2813,0.06743c0.70134,0.04047 1.32176,0.12139 1.3757,0.18881c0.14836,0.16186 1.69942,11.08664 1.60502,11.19454c-0.08095,0.06743 -3.37186,0.45857 -3.9788,0.45857h-0.31019v-3.16953v-3.18301l-1.29479,1.09245c-0.70134,0.59344 -1.33526,1.07899 -1.40268,1.07899c-0.06746,0 -0.47205,-0.57995 -0.90364,-1.28129c-0.43162,-0.70134 -0.82276,-1.22736 -0.8632,-1.1734c-0.04047,0.05394 -0.52603,1.38919 -1.07899,2.95374c-0.53948,1.57803 -1.03851,2.87282 -1.09248,2.87282c-0.26973,0 -3.88436,-1.82081 -3.88436,-1.95569c0,-0.13488 1.72637,-4.15411 4.05971,-9.48162z" fill="#df0202"/><path d="M82.28653,27.00199l1.59153,0.04044l1.57799,0.04047l0.04047,5.9614l0.02699,5.97492h-1.61851h-1.61848v-6.00187z" fill="#f3df25"/><path d="M92.26719,27.01549c0.17532,0 4.28895,1.21384 4.59919,1.34872c0.33718,0.16186 3.08858,4.01924 3.08858,4.34293c0,0.29674 -1.45662,4.57223 -1.67241,4.89592c-0.16186,0.24278 -0.6609,0.39115 -3.0077,0.93063l-2.81885,0.6474l-2.15798,-1.26784c-1.1734,-0.70134 -2.27935,-1.3622 -2.4547,-1.4701c-0.29671,-0.18885 -0.29671,-0.20233 -0.26976,-3.08861l0.04047,-2.89981l2.29287,-1.72637c1.25431,-0.94411 2.31982,-1.71288 2.36029,-1.71288zM92.18625,31.46629c-0.2023,0 -0.36416,1.55105 -0.29671,2.75143l0.04044,0.80924l1.28132,0.28321c0.70134,0.16186 1.29479,0.28325 1.32174,0.26976c0.13488,-0.10789 0.95761,-3.1021 0.87669,-3.18301c-0.06743,-0.05396 -0.76879,-0.29675 -1.57802,-0.51253c-0.80924,-0.22928 -1.55105,-0.41809 -1.64545,-0.41809z" fill="#a435e5"/><path d="M9.212,44.83229c0.35068,-0.01349 3.07512,1.36221 3.07512,1.56452c0,0.08095 -0.24277,0.60694 -0.55297,1.1734c-0.62043,1.15993 -0.43162,1.14645 -2.25239,0.22931l-1.0655,-0.53951l-0.4451,0.60694c-0.24278,0.33718 -0.41809,0.62043 -0.39112,0.63392c0.02695,0.01346 1.25431,0.63388 2.71096,1.3757c1.47011,0.74182 2.67049,1.40269 2.67049,1.47011c0,0.20233 -1.90172,3.33138 -2.06355,3.38535c-0.09443,0.04044 -1.11946,0.14837 -2.27937,0.25626l-2.10402,0.2023l-1.36223,-0.90365l-1.34873,-0.90367l-0.01349,-0.71484c0,-0.53948 0.08092,-0.83622 0.35068,-1.24081l0.36415,-0.53951l0.89016,0.48555c0.48555,0.26976 1.20038,0.67439 1.59152,0.87669l0.68785,0.39115l0.48555,-0.5665c0.25626,-0.32369 0.41809,-0.63388 0.36416,-0.68785c-0.06746,-0.06743 -1.13296,-0.64737 -2.38727,-1.28129c-2.27937,-1.18689 -2.27938,-1.1869 -2.31982,-1.67244c-0.04047,-0.44508 0.44508,-1.53756 1.15991,-2.6435c0.06743,-0.09443 0.98456,-0.35067 2.06356,-0.56649c1.0655,-0.2023 2.05009,-0.39111 2.17148,-0.39111z" fill="#f3df25"/><path d="M27.73015,44.88622c0.21579,0.05396 3.35836,2.37378 3.4123,2.49517c0.06745,0.16186 -0.66087,2.87282 -0.80924,3.06163c-0.06743,0.09441 -0.45857,0.35068 -0.8632,0.57995c-0.40461,0.21579 -0.72832,0.43162 -0.72832,0.45857c0,0.02699 0.63392,0.51253 1.41617,1.07898c0.78229,0.57995 1.4162,1.07899 1.4162,1.13296c0,0.16183 -3.14258,1.52407 -3.22349,1.40269c-0.04047,-0.06746 -0.62043,-0.8632 -1.29479,-1.78034l-1.21387,-1.67244l-0.06743,1.53756l-0.06745,1.55105l-1.20038,0.04044c-0.66087,0.02699 -1.25431,-0.01346 -1.30827,-0.06743c-0.12139,-0.12139 -0.97106,-8.29473 -0.90365,-8.6454c0.04047,-0.18881 0.56647,-0.32369 2.67049,-0.71484c1.44316,-0.26973 2.6975,-0.48555 2.76492,-0.45857zM25.81494,47.13861c-0.13488,-0.04047 -0.17533,0.35068 -0.17533,1.7264c0,1.61848 0.01349,1.76685 0.24278,1.69939c0.12139,-0.02699 0.57995,-0.16186 0.99805,-0.26975l0.7553,-0.21579l0.21579,-0.94412c0.12139,-0.5125 0.21579,-0.98456 0.21579,-1.05201c0,-0.06743 -0.47206,-0.29671 -1.03852,-0.49904c-0.57995,-0.21579 -1.13292,-0.40461 -1.21387,-0.44508z" fill="#f3df25"/><path d="M35.12121,44.89971c0.22931,0.04047 1.30827,0.2023 2.37378,0.36416l1.9422,0.29671l1.52407,4.55874c1.02502,3.08861 1.47013,4.5857 1.3622,4.61267c-0.33718,0.13488 -3.3988,0.43159 -3.49321,0.35068c-0.04047,-0.04047 -0.17533,-0.56647 -0.29671,-1.14641c-0.12139,-0.59344 -0.24278,-1.10598 -0.28325,-1.13296c-0.13488,-0.13488 -2.5626,0.25626 -2.71096,0.44508c-0.08092,0.10789 -0.22928,0.52602 -0.32369,0.94411c-0.09443,0.41812 -0.21582,0.78229 -0.26976,0.80927c-0.10789,0.06743 -3.22349,-0.553 -3.33138,-0.6474c-0.05393,-0.06743 2.72445,-8.87468 2.94024,-9.29279c0.09441,-0.16186 0.24278,-0.20233 0.56647,-0.16186zM36.90155,47.9209c-0.18881,0 -0.35068,0.0944 -0.39111,0.22928c-0.06746,0.24278 -0.35067,1.90169 -0.35067,2.09053c0,0.06743 0.39111,0.10789 0.86316,0.10789h0.8632l-0.18881,-0.6474c-0.09443,-0.35068 -0.24278,-0.89015 -0.32371,-1.21384c-0.12139,-0.47205 -0.2023,-0.56647 -0.47206,-0.56647z" fill="#f3df25"/><path d="M69.33867,44.80531l0.64737,0.09441c0.35067,0.04047 1.06551,0.16186 1.57803,0.24278l0.94411,0.16185l0.04047,4.8015l0.02694,4.80149l-0.36415,0.08094c-0.21579,0.04044 -0.89016,0.08093 -1.52407,0.1079l-1.14641,0.04044l-0.04047,-2.06356l-0.04044,-2.05009h-0.83622c-0.45857,0 -1.06551,0.04046 -1.33526,0.08094l-0.51253,0.09441v1.72637v1.7264l-0.70134,0.13484c-1.87474,0.39115 -1.98264,0.39115 -2.05006,0.16186c-0.04047,-0.12139 -0.31022,-2.18496 -0.62043,-4.5992c-0.29674,-2.41425 -0.57994,-4.61267 -0.62042,-4.89592l-0.08092,-0.49901h1.83427h1.8343v1.88823v1.88824h1.4836h1.48362v-1.96917z" fill="#f3df25"/><path d="M75.0438,44.81879c0.08095,0.01349 0.8632,0.17532 1.71291,0.37765l1.55105,0.37762v1.69942v1.71288l0.78226,0.18885c0.41812,0.10789 0.79575,0.16186 0.82273,0.10789c0.02698,-0.04047 0.33718,-0.94411 0.67436,-2.00962c0.35067,-1.05201 0.68788,-1.91521 0.72832,-1.91521c0.18885,0 2.72445,1.26781 2.72445,1.36224c0,0.12139 -1.56454,3.77647 -2.22541,5.17914c-0.52599,1.13292 -0.33718,0.94411 -3.85738,4.10015l-0.82273,0.74182l-2.14449,-1.0655c-1.1734,-0.59344 -2.1445,-1.11947 -2.1445,-1.18689c0,-0.06746 0.31019,-0.63393 0.68785,-1.25432l0.67436,-1.13296l0.99808,0.67437c0.55298,0.37765 1.05201,0.67439 1.10598,0.67439c0.06743,0 0.45857,-0.35067 0.89015,-0.78229l0.76879,-0.76876l-1.55105,-1.55105l-1.55105,-1.55105v-1.98264c0,-1.51058 0.04046,-1.99613 0.17532,-1.99613z" fill="#f3df25"/><path d="M91.43098,44.83229c0.12139,-0.01349 0.16183,0.70134 0.16183,3.11557v3.14257l1.20037,-1.20038l1.20038,-1.18689l0.90364,1.22733c0.48555,0.67439 0.94411,1.22736 0.99808,1.22736c0.04044,0 0.29671,-0.99805 0.53948,-2.21192c0.25626,-1.21387 0.49903,-2.29287 0.553,-2.37378c0.06743,-0.10789 0.56646,-0.04047 1.78033,0.22928c1.51058,0.35068 1.71288,0.36415 1.83427,0.18881c0.06743,-0.12139 0.83622,-0.66087 1.69942,-1.21384l1.578,-0.99808l1.37573,0.36416c2.17145,0.57995 2.07704,0.51253 2.98068,2.29286l0.80924,1.56452l-0.18882,0.70133c-0.0944,0.39115 -0.45857,1.59152 -0.79575,2.67052l-0.63392,1.95566l-0.66087,0.16186c-0.37765,0.09441 -1.1869,0.28322 -1.80732,0.40461l-1.11944,0.24278l-1.38922,-0.74178c-0.76877,-0.40463 -1.49709,-0.80924 -1.64545,-0.90367c-0.21579,-0.17532 -0.24278,-0.45857 -0.28322,-3.18301l-0.05396,-2.99418l-0.40461,1.2813c-0.21582,0.70134 -0.7553,2.41422 -1.20038,3.78995l-0.79578,2.50862l-0.97106,0.09443c-0.53951,0.05394 -1.28129,0.12139 -1.65895,0.16183l-0.67439,0.08095l-0.53948,-1.42966c-0.29671,-0.78229 -0.57995,-1.42966 -0.62043,-1.42966c-0.05393,0 -0.32369,0.52599 -0.60694,1.15991l-0.52598,1.15991l-1.59153,-0.05393c-0.87666,-0.04047 -1.64545,-0.12139 -1.72637,-0.20233c-0.10789,-0.10789 -2.00962,-8.36216 -2.00962,-8.76676c0,-0.18885 0.37766,-0.28325 2.49517,-0.57999c0.89015,-0.13484 1.69939,-0.24274 1.79383,-0.25623zM104.91831,47.73205l-0.49901,-0.21579l-0.67439,0.76877c-0.75527,0.84972 -0.76877,0.87669 -0.60691,2.75143c0.08092,0.97109 0.1079,1.02503 0.56647,1.32177c0.45857,0.3102 1.03852,0.32368 1.48359,0.04046c0.0944,-0.06746 0.36416,-0.82273 0.62043,-1.68592c0.44508,-1.55105 0.44508,-1.56455 0.21579,-2.09053c-0.13488,-0.28325 -0.32368,-0.553 -0.41809,-0.60693c-0.10789,-0.04047 -0.41812,-0.16186 -0.68788,-0.28325z" fill="#f3df25"/><path d="M114.45389,44.88622c0.21579,0.05396 3.35833,2.37378 3.4123,2.49517c0.06743,0.16186 -0.6609,2.87282 -0.80924,3.06163c-0.06745,0.09441 -0.45857,0.35068 -0.8632,0.57995c-0.40463,0.21579 -0.72832,0.43162 -0.72832,0.45857c0,0.02699 0.63392,0.51253 1.41617,1.07898c0.78229,0.57995 1.41617,1.07899 1.41617,1.13296c0,0.16183 -3.14254,1.52407 -3.22349,1.40269c-0.04044,-0.06746 -0.6204,-0.8632 -1.29479,-1.78034l-1.21384,-1.67244l-0.06745,1.53756l-0.06743,1.55105l-1.20037,0.04044c-0.66087,0.02699 -1.25431,-0.01346 -1.30828,-0.06743c-0.12139,-0.12139 -0.97109,-8.29473 -0.90364,-8.6454c0.04044,-0.18881 0.56647,-0.32369 2.67049,-0.71484c1.44316,-0.26973 2.69747,-0.48555 2.76492,-0.45857zM112.53868,47.13861c-0.13488,-0.04047 -0.17535,0.35068 -0.17535,1.7264c0,1.61848 0.0135,1.76685 0.24278,1.69939c0.12139,-0.02699 0.57994,-0.16186 0.99808,-0.26975l0.75527,-0.21579l0.21582,-0.94412c0.12139,-0.5125 0.21579,-0.98456 0.21579,-1.05201c0,-0.06743 -0.47205,-0.29671 -1.03851,-0.49904c-0.57995,-0.21579 -1.13296,-0.40461 -1.21388,-0.44508z" fill="#f3df25"/><path d="M122.24959,44.83229c0.21579,-0.01349 0.22929,0.24278 0.22929,3.62809c0,1.99613 0.02698,3.64158 0.05393,3.64158c0.02698,0 1.09248,-0.36416 2.37378,-0.80923c1.2813,-0.44508 2.3468,-0.80923 2.37378,-0.80923c0.02698,0 0.05396,0.90365 0.05396,2.00962v2.00962l-0.49904,0.08092c-0.91713,0.14836 -6.8246,0.62043 -6.89205,0.56647c-0.06743,-0.08092 -1.30827,-7.82264 -1.45662,-9.09047c-0.08095,-0.75527 -0.06746,-0.83622 0.16183,-0.84972c0.14836,0 0.95761,-0.08092 1.80732,-0.18881c0.84972,-0.09441 1.65895,-0.17532 1.79383,-0.18881z" fill="#f3df25"/><path d="M132.17629,44.83229c0.02695,-0.01349 1.10594,0.59344 2.38724,1.34872l2.34683,1.36224v2.29283v2.29286l-0.90367,0.94412c-1.72637,1.78034 -1.49709,1.68592 -4.55871,1.9287c-1.47013,0.10789 -2.69747,0.17532 -2.72445,0.14834c-0.1079,-0.10789 -1.41617,-8.99608 -1.33526,-9.077c0.04047,-0.04047 1.11947,-0.33717 2.40077,-0.66086c1.2813,-0.31023 2.36029,-0.57995 2.38727,-0.57995zM131.421,47.96134c-0.13488,-0.05394 -0.17535,0.45857 -0.17535,2.30635c0,1.80729 0.04047,2.37378 0.17535,2.37378c0.18882,0 2.11752,-0.49904 2.18497,-0.56649c0.06742,-0.06743 0.47205,-2.42771 0.47205,-2.7514c0,-0.24278 -0.21582,-0.37765 -1.24086,-0.79578c-0.68786,-0.28322 -1.33526,-0.52598 -1.41617,-0.56647z" fill="#f3df25"/><path d="M18.289,44.96717c0.28325,-0.01349 3.27743,1.13292 3.47976,1.33523c0.0944,0.08095 -0.83622,2.15799 -1.06551,2.41425c-0.02698,0.02699 -0.53951,-0.16186 -1.14644,-0.43162l-1.09245,-0.49901l-0.93065,0.64737l-0.91713,0.63393l-0.0135,0.74181c0,0.4046 0.04047,0.95758 0.08095,1.22734c0.08092,0.47205 0.12139,0.51253 1.29479,0.97109l1.22734,0.48555l0.80924,-0.72833c0.44511,-0.40463 0.8632,-0.74181 0.93065,-0.74181c0.10789,0 0.41809,0.47205 1.10594,1.63196l0.35068,0.62042l-1.76684,0.9711l-1.76684,0.97109l-2.07704,-0.70134c-1.14644,-0.37765 -2.15798,-0.7688 -2.26588,-0.84972c-0.10789,-0.08092 -0.49904,-1.1734 -0.87669,-2.42774l-0.67436,-2.29283l0.98459,-1.40268l0.99805,-1.41617l1.52407,-0.57995c0.84971,-0.31023 1.65895,-0.57995 1.80731,-0.57995z" fill="#f3df25"/><path d="M51.37351,44.98062l2.06356,-0.02695l-0.04044,1.44313l-0.04047,1.45665h-0.74182c-0.4046,0 -1.26781,-0.04048 -1.91518,-0.1079l-1.18689,-0.0944v3.57415v3.57413l-0.29675,0.05396c-0.17532,0.04044 -0.72832,0.10789 -1.25431,0.14836c-0.51253,0.04044 -1.07899,0.10789 -1.24086,0.16183l-0.3102,0.06746l0.01349,-2.26588c0,-1.25434 0.05394,-2.95374 0.1079,-3.76297c0.06743,-0.82272 0.0944,-1.51062 0.06743,-1.53756c-0.02694,-0.02699 -0.72832,0.05393 -1.56451,0.17532c-0.83622,0.12139 -1.6185,0.21579 -1.73989,0.21579c-0.17532,0 -0.3102,-0.35068 -0.57995,-1.41617c-0.18881,-0.76877 -0.35067,-1.44313 -0.35067,-1.4836c0,-0.02699 1.56454,-0.08092 3.47975,-0.10789c1.90172,-0.01349 4.39686,-0.04047 5.52981,-0.06746z" fill="#f3df25"/><path d="M58.75107,44.96717c0.28325,-0.01349 3.27745,1.13292 3.47975,1.33523c0.09441,0.08095 -0.83622,2.15799 -1.06551,2.41425c-0.02699,0.02699 -0.53951,-0.16186 -1.14641,-0.43162l-1.09248,-0.49901l-0.93062,0.64737l-0.91713,0.63393l-0.01349,0.74181c0,0.4046 0.04043,0.95758 0.08091,1.22734c0.08092,0.47205 0.12139,0.51253 1.29479,0.97109l1.22736,0.48555l0.80924,-0.72833c0.44508,-0.40463 0.86317,-0.74181 0.93062,-0.74181c0.10789,0 0.41809,0.47205 1.10598,1.63196l0.35067,0.62042l-1.76684,0.9711l-1.76687,0.97109l-2.07703,-0.70134c-1.14641,-0.37765 -2.15799,-0.7688 -2.26589,-0.84972c-0.10789,-0.08092 -0.49904,-1.1734 -0.87666,-2.42774l-0.67439,-2.29283l0.98458,-1.40268l0.99808,-1.41617l1.52407,-0.57995c0.84969,-0.31023 1.65894,-0.57995 1.80728,-0.57995z" fill="#f3df25"/></g></g></g></g></svg>