<svg version="1.1" xmlns="http://www.w3.org/2000/svg" xmlns:xlink="http://www.w3.org/1999/xlink" width="488.1018" height="367.89082" viewBox="0,0,488.1018,367.89082"><defs><linearGradient x1="236.51295" y1="-3.9454" x2="236.51295" y2="363.94542" gradientUnits="userSpaceOnUse" id="color-1"><stop offset="0" stop-color="#310b47"/><stop offset="1" stop-color="#4c3490"/></linearGradient></defs><g transform="translate(7.53795,3.9454)"><g data-paper-data="{&quot;isPaintingLayer&quot;:true}" fill-rule="nonzero" stroke="none" stroke-linecap="butt" stroke-linejoin="miter" stroke-miterlimit="10" stroke-dasharray="" stroke-dashoffset="0" style="mix-blend-mode: normal"><path d="M-7.53795,363.94542v-367.89082h488.1018v367.89082z" data-paper-data="{&quot;origPos&quot;:null}" fill="url(#color-1)" stroke-width="0"/><path d="M66.89967,69.30001c0,-1.12489 1.38638,-0.79588 2.14819,-1.62354c0.84715,-0.92038 0.4759,-2.25146 1.72681,-2.25146c1.07188,0 0.70855,1.23498 1.52203,1.93297c0.98957,0.84909 2.35297,0.63812 2.35297,1.94203c0,1.45634 -1.34192,1.09826 -2.53663,1.93108c-0.75428,0.5258 -0.41891,1.94392 -1.33837,1.94392c0,0 -1.01411,-1.20945 -1.86165,-2.13719c-0.75488,-0.82631 -2.01335,0.4023 -2.01335,-1.73781z" fill="#ffffff" stroke-width="0"/><path d="M153.39967,103.30002c0,-1.12489 1.38639,-0.79588 2.14819,-1.62354c0.84715,-0.92038 0.4759,-2.25146 1.72681,-2.25146c1.07189,0 0.70855,1.23497 1.52202,1.93296c0.98957,0.84909 2.35298,0.63812 2.35298,1.94204c0,1.45634 -1.34193,1.09825 -2.53663,1.93108c-0.75428,0.52581 -0.4189,1.94392 -1.33837,1.94392c0,0 -1.01412,-1.20946 -1.86165,-2.1372c-0.75488,-0.82631 -2.01335,0.4023 -2.01335,-1.7378z" data-paper-data="{&quot;origPos&quot;:null}" fill="#ffffff" stroke-width="0"/><path d="M230.89967,89.55002c0,-1.12489 1.38638,-0.79588 2.14819,-1.62354c0.84715,-0.92038 0.4759,-2.25146 1.72681,-2.25146c1.07189,0 0.70855,1.23497 1.52203,1.93296c0.98957,0.84909 2.35297,0.63812 2.35297,1.94204c0,1.45634 -1.34193,1.09825 -2.53663,1.93108c-0.75428,0.52581 -0.41891,1.94392 -1.33837,1.94392c0,0 -1.01412,-1.20946 -1.86166,-2.1372c-0.75487,-0.82631 -2.01334,0.4023 -2.01334,-1.7378z" data-paper-data="{&quot;origPos&quot;:null}" fill="#ffffff" stroke-width="0"/><path d="M202.733,28.30001c0,-1.12489 1.38638,-0.79588 2.14819,-1.62354c0.84715,-0.92038 0.4759,-2.25146 1.72681,-2.25146c1.07189,0 0.70855,1.23497 1.52203,1.93296c0.98957,0.84909 2.35297,0.63812 2.35297,1.94204c0,1.45634 -1.34193,1.09825 -2.53663,1.93108c-0.75428,0.52581 -0.41891,1.94392 -1.33837,1.94392c0,0 -1.01412,-1.20946 -1.86166,-2.1372c-0.75487,-0.82631 -2.01334,0.4023 -2.01334,-1.7378z" data-paper-data="{&quot;origPos&quot;:null}" fill="#ffffff" stroke-width="0"/><path d="M327.39967,39.63335c0,-1.12489 1.38639,-0.79588 2.14819,-1.62354c0.84715,-0.92038 0.4759,-2.25146 1.72681,-2.25146c1.07189,0 0.70855,1.23497 1.52202,1.93296c0.98957,0.84909 2.35298,0.63812 2.35298,1.94204c0,1.45634 -1.34193,1.09825 -2.53663,1.93108c-0.75428,0.52581 -0.41891,1.94392 -1.33837,1.94392c0,0 -1.01412,-1.20946 -1.86166,-2.1372c-0.75487,-0.82631 -2.01334,0.4023 -2.01334,-1.7378z" data-paper-data="{&quot;origPos&quot;:null}" fill="#ffffff" stroke-width="0"/><path d="M340.39967,115.96668c0,-1.12489 1.38639,-0.79588 2.14819,-1.62354c0.84715,-0.92038 0.4759,-2.25146 1.72681,-2.25146c1.07189,0 0.70855,1.23497 1.52202,1.93296c0.98957,0.84909 2.35298,0.63812 2.35298,1.94204c0,1.45634 -1.34193,1.09825 -2.53663,1.93108c-0.75428,0.52581 -0.41891,1.94392 -1.33837,1.94392c0,0 -1.01412,-1.20946 -1.86166,-2.1372c-0.75487,-0.82631 -2.01334,0.4023 -2.01334,-1.7378z" data-paper-data="{&quot;origPos&quot;:null}" fill="#ffffff" stroke-width="0"/><path d="M440.06634,63.96668c0,-1.12489 1.38638,-0.79588 2.14819,-1.62354c0.84715,-0.92038 0.4759,-2.25146 1.72681,-2.25146c1.07189,0 0.70855,1.23498 1.52202,1.93297c0.98957,0.84909 2.35298,0.63812 2.35298,1.94203c0,1.45634 -1.34193,1.09826 -2.53663,1.93108c-0.75428,0.52581 -0.4189,1.94392 -1.33837,1.94392c0,0 -1.01412,-1.20945 -1.86165,-2.13719c-0.75488,-0.82631 -2.01335,0.4023 -2.01335,-1.73781z" data-paper-data="{&quot;origPos&quot;:null}" fill="#ffffff" stroke-width="0"/><path d="M429.06634,104.96668c0,-1.12489 1.38638,-0.79588 2.14819,-1.62354c0.84715,-0.92038 0.4759,-2.25146 1.72681,-2.25146c1.07189,0 0.70855,1.23498 1.52202,1.93297c0.98957,0.84909 2.35298,0.63812 2.35298,1.94203c0,1.45634 -1.34193,1.09826 -2.53664,1.93108c-0.75428,0.52581 -0.4189,1.94392 -1.33836,1.94392c0,0 -1.01412,-1.20945 -1.86166,-2.13719c-0.75488,-0.82631 -2.01334,0.4023 -2.01334,-1.73781z" data-paper-data="{&quot;origPos&quot;:null}" fill="#ffffff" stroke-width="0"/><path d="M-7.18366,110.46668c0,-1.12489 1.38638,-0.79588 2.14819,-1.62354c0.84715,-0.92038 0.4759,-2.25146 1.72681,-2.25146c1.07189,0 0.70855,1.23498 1.52202,1.93297c0.98957,0.84909 2.35298,0.63812 2.35298,1.94203c0,1.45634 -1.34193,1.09826 -2.53664,1.93108c-0.75428,0.52581 -0.4189,1.94392 -1.33836,1.94392c0,0 -1.01412,-1.20945 -1.86166,-2.13719c-0.75488,-0.82631 -2.01334,0.4023 -2.01334,-1.73781z" data-paper-data="{&quot;origPos&quot;:null}" fill="#ffffff" stroke-width="0"/><path d="M5.81634,25.21668c0,-1.12489 1.38638,-0.79588 2.14819,-1.62354c0.84715,-0.92038 0.4759,-2.25146 1.72681,-2.25146c1.07188,0 0.70855,1.23498 1.52202,1.93297c0.98957,0.84909 2.35298,0.63812 2.35298,1.94203c0,1.45634 -1.34193,1.09826 -2.53664,1.93108c-0.75428,0.52581 -0.41891,1.94392 -1.33836,1.94392c0,0 -1.01412,-1.20945 -1.86166,-2.13719c-0.75487,-0.82631 -2.01334,0.4023 -2.01334,-1.73781z" data-paper-data="{&quot;origPos&quot;:null}" fill="#ffffff" stroke-width="0"/><path d="M130.52467,180.00001c0,-58.26604 47.23396,-105.5 105.5,-105.5c58.26604,0 105.5,47.23396 105.5,105.5c0,58.26604 -47.23396,105.5 -105.5,105.5c-58.26604,0 -105.5,-47.23396 -105.5,-105.5z" data-paper-data="{&quot;origPos&quot;:null}" fill="#fffae9" stroke-width="NaN"/><path d="M281.02467,109.30001c-1.16856,0 -2.14985,-0.80174 -2.42383,-1.88516c-0.77041,-0.21475 -1.4889,-0.67642 -2.96919,-1.6686c-1.28457,-1.37571 -4.11434,-2.22222 -6.0228,-2.56607c-0.72749,-0.13108 -1.50756,0.38069 -2.20943,0.13739c-1.01114,-0.3505 -3.34773,-1.69847 -4.38675,-2.59158c-0.86282,-0.74165 -1.34195,-2.0695 -2.38102,-2.47643c-0.24408,-0.09559 0.49118,0.64201 0.26777,0.78419c-0.44019,0.28013 -4.01301,0.21169 -4.5,0c-1.43749,-0.62486 -2.31075,-2.35548 -3.76777,-2.9261c-0.24408,-0.09559 0.49118,0.64201 0.26777,0.78419c-0.42984,0.27355 -1.03671,0.20139 -1.5,0c-0.66477,-0.28897 -4.08454,-3.85382 -3.5,-2.14191c-1.93677,0 -3.44398,-0.87564 -5.29057,-1.20835c-1.5159,-0.27313 -3.62869,0.13739 -5.20943,0.13739c-2.86121,0 -6.18425,-0.50733 -9,0c-0.78075,0.14067 -1.42836,0.79491 -2.20943,0.93356c-2.17843,0.3867 -4.58552,0.13739 -6.79057,0.13739c-0.40076,0 -0.80151,0 -1.20227,0c-0.85105,2.43875 -2.73477,3.33522 -5.00716,4.14643l-0.60319,-1.12775c-0.1824,0.34406 -0.42737,0.59455 -0.68738,0.77692c0,9.97984 0,19.95968 0,29.93952c0,7.49669 0,14.99339 0,22.49008c0,3.06833 0.46756,6.61761 0,9.6386c-0.31102,2.00956 -1.11926,4.0202 -1.57464,6.00414c-1.15956,4.96736 -0.42536,10.81699 -0.42536,15.95046c0,1.60643 0,3.21287 0,4.8193c0,0.14777 0,0.29555 0,0.44332c0.18075,0.04911 0.35685,0.09215 0.5,0.09215c0.66667,0 1.33333,0 2,0c2.5,0 5,0 7.5,0c11.79475,0 23.14081,-1.07096 35,-1.07096c6.83333,0 13.66667,0 20.5,0c3.22692,0 6.80729,0.46909 10,0c2.5877,-0.3802 4.7358,-1.97611 7.5,-2.14191c11.86536,0 23.73071,0 35.59607,0c0.10048,-0.68398 0.40393,-1.54615 0.40393,-2.14191c0,-2.30732 0.63144,-5.84381 0,-8.03217c-0.71032,-2.46174 -3.06718,-4.75294 -3.73607,-7.37028c-0.36311,-1.42084 0.20152,-3.02404 -0.26393,-4.41023c-0.25471,-0.75858 -1.24447,-1.00617 -1.58013,-1.72772c-1.4071,-3.02483 -2.75633,-6.55408 -3.79158,-9.74161c-0.33266,-1.06879 -1.50043,-1.65792 -1.89606,-2.70181c-0.60471,-1.59556 -0.18002,-3.48883 -0.73223,-5.10607c-0.09309,-0.27262 -0.00116,0.87455 -0.26777,0.82224c-1.97745,-0.38794 -4.25048,-5.4059 -5.31236,-6.83379c-0.37792,-0.50819 -1.47854,-1.18214 -1.68764,-1.73386c-0.60471,-1.59556 -0.18002,-3.48883 -0.73223,-5.10607c-0.09309,-0.27262 -0.00116,0.87455 -0.26777,0.82224c-0.92738,-0.18193 -1.33333,-1.42794 -2,-2.14191c-1.33333,-1.42794 -2.66667,-2.85588 -4,-4.28382c-2.88296,-3.08753 -6.12104,-5.57332 -9,-8.56765c-1.53245,-1.59386 -3.16797,-4.20027 -5,-5.35478c-0.59216,-0.37317 -1.44797,-0.02111 -2.0228,-0.42416c-1.21542,-0.85222 -2.0782,-2.19728 -3.17263,-3.21535c-0.29001,1.0597 -1.25983,1.8385 -2.41155,1.8385zM211.60885,93.81636c0.5,-0.17849 1.01228,-0.74941 1.5,-0.53548c0.33443,0.14669 -0.33668,1.43153 -0.08114,1.15785c0.37268,-0.39912 0.33333,-1.07096 0.5,-1.60643c0.95724,-1.14572 1.71452,-2.52735 2.87171,-3.43716c0.40305,-0.31689 1,0 1.5,0c2.06243,0 4.72086,0.49568 6.70943,0.13739c1.30004,-0.23423 2.49,-0.97748 3.79057,-1.20835c4.15907,-0.73829 9.27827,-0.15302 13.5,0c2.20089,0.07977 3.8904,1.07096 6,1.07096c0.11874,0.02849 4.00255,0.30461 4.26777,1.85515c0.04884,0.28552 -1.02232,0.18707 -0.76777,0.28677c1.51009,0.5914 3.27792,0.13657 4.76777,0.78419c0.4368,0.18987 0.91506,0.57437 1,1.07096c0.04884,0.28552 -1.02232,0.18707 -0.76777,0.28677c2.40868,0.94332 5.12632,-0.36402 7.76777,0.78419c1.03497,0.44989 2.47927,3.20966 3.23223,3.49963c1.18967,0.45816 2.54334,-0.084 3.79057,0.13739c2.59886,0.46133 6.16634,1.92032 7.9772,3.85966c-0.25592,0.09559 -1.02232,0.18707 -0.76777,0.28677c3.34097,1.30843 6.33931,-1.32434 9.26777,2.39062c1.29949,1.64849 2.62106,1.45983 4.5,2.67739c2.1921,1.42048 3.61957,4.38582 5.61898,6.09121c2.98214,2.54362 5.66968,4.9275 8.38102,7.83122c2.56549,2.74753 6.34263,5.72335 7.73223,9.38989c0.18804,0.49617 0.25542,1.1461 0,1.60643c-0.13276,0.23927 -0.82149,-0.54816 -0.73223,-0.28677c0.37997,1.11279 1.61985,1.62593 2.31236,2.54996c1.48286,1.97862 3.30992,3.98299 4.68764,6.01768c0.30007,0.44316 2.51202,3.16521 1.73223,4.57059c-0.13276,0.23927 -0.82149,-0.54816 -0.73223,-0.28677c0.5783,1.69364 2.49196,2.82865 3.10394,4.79488c1.3427,4.6275 4.25775,8.62786 5.62829,13.16266c0.19507,0.64544 -0.45096,1.36734 -0.26393,2.0155c0.98498,3.41363 3.36856,6.26146 4.26393,9.76501c0.33983,1.32974 0,3.43422 0,4.8193c0,3.60161 0.96276,10.70956 -4,10.70956c-12.33333,0 -24.66667,0 -37,0c-2.3065,-0.4467 -5.18734,1.77923 -7.5,2.14191c-3.17406,0.49777 -6.7872,0 -10,0c-6.83333,0 -13.66667,0 -20.5,0c-3.83333,0 -7.66667,0 -11.5,0c-1.88952,0 -4.37785,-0.4674 -6.20943,-0.13739c-1.30004,0.23423 -2.49,0.97748 -3.79057,1.20835c-4.23355,0.75151 -9.20002,0 -13.5,0c-4.93546,0 -11.16467,1.43008 -15,-2.67739c-0.35355,-0.37864 0,-1.07096 0,-1.60643c0,-1.60643 0,-3.21287 0,-4.8193c0,-6.07845 -0.80319,-12.95323 0.57464,-18.85562c0.33485,-1.41475 1.20247,-3.28659 1.42536,-4.70542c0.47371,-3.01555 0,-6.57438 0,-9.6386c0,-7.49669 0,-14.99339 0,-22.49008c0,-10.70956 0,-21.41912 0,-32.12868c0,0 0,-2.67739 2.5,-2.67739c0.4506,0 0.81999,0.08698 1.1228,0.22959l-0.1228,-0.22959c0,0 0.57462,0 1.17289,0.29504z" fill="#f6f1e0" stroke-width="0.5"/><path d="M186.30337,106.86226c-0.22918,-0.14383 0.47477,-0.96355 0.23487,-0.85154c-1.55441,0.72575 -2.52796,2.96518 -4.3352,3.73951c-1.22632,0.52543 -4.22029,1.08177 -4.82946,2.39533c-1.65245,3.56321 -1.95869,7.59708 -3.8598,11.19012c-1.5616,2.95138 -4.14849,5.59982 -5.37347,8.72673c-0.58453,1.49207 -0.74028,3.19735 -1.42512,4.63103c-0.50397,1.05504 -1.49413,1.81234 -1.78197,2.97167c-1.32308,4.62675 -4.06534,9.53308 -6.58604,13.46014c-1.59105,2.47874 -3.99202,4.24116 -5.12302,7.12818c-1.64733,4.20499 -0.48001,10.09252 -0.30348,14.63354c0.14809,3.80941 0.49079,7.67931 0.44657,11.48728c-0.00996,0.85814 0.72208,1.71871 0.4701,2.5236c-0.12194,0.38949 -1.35071,-0.33483 -1.08395,-0.05121c1.19901,1.2748 3.84744,0.8533 5.24443,0.79899c4.4966,-0.17481 8.99321,-0.34962 13.48981,-0.52442c3.99417,-0.15528 8.31174,-0.84139 12.28702,-0.33007c0.80189,0.10314 3.7562,1.5028 4.04582,1.68799c0.21177,0.13541 0.52078,0.2894 0.75128,0.47576c-0.03232,-0.83136 -0.06464,-1.66271 -0.09696,-2.49407c-0.13397,-3.44618 -0.26794,-6.89237 -0.40192,-10.33855c-0.18014,-4.6337 -1.10953,-10.31712 -0.15593,-14.81968c0.17758,-0.8385 1.284,-1.091 1.50689,-1.91457c0.72675,-2.68531 -0.29117,-7.48983 -0.40192,-10.33855c-0.17721,-4.5585 0.66551,-8.62357 0.48568,-13.24922c-0.4051,-10.42049 -0.8102,-20.84099 -1.21531,-31.26148c-0.69873,0.43152 -1.43034,0.67407 -1.98893,0.32351zM188.05624,100.46656c0,0 -0.11164,-2.87182 2.38647,-2.96894c2.49811,-0.09712 2.60976,2.77471 2.60976,2.77471c0.48379,12.44456 0.96758,24.88911 1.45137,37.33367c0.15132,3.8923 -0.30924,6.94205 -0.71255,10.71617c-0.42313,3.95965 1.5632,8.979 0.62878,12.87161c-0.44292,1.8451 -1.85231,3.2661 -2.22215,5.13319c-0.19538,0.98639 0.49686,1.97213 0.53626,2.9856c0.11164,2.87182 0.22329,5.74364 0.33493,8.61546c0.1563,4.02055 0.3126,8.0411 0.4689,12.06165c0.04466,1.14873 0.68931,2.49721 0.13397,3.44618c-0.79722,1.3623 -1.94973,2.41818 -3.07877,3.42349c-2.25448,2.00742 -4.31007,-1.03989 -6.14772,-2.18151c-0.70293,-0.43669 -2.36302,-0.25671 -3.24175,-0.18203c-3.14652,0.26739 -6.33765,0.24638 -9.49283,0.36904c-4.99623,0.19423 -9.99245,0.38846 -14.98868,0.58269c-1.39763,0.05433 -4.23466,0.08139 -5.33696,-1.09058c-4.36769,-4.64375 -3.22059,-13.09598 -3.46083,-19.27576c-0.19999,-5.14446 -1.37943,-11.64297 0.48926,-16.45981c1.50094,-3.8689 4.14902,-6.13219 6.24272,-9.42017c1.2888,-2.02396 2.29666,-4.44853 3.43393,-6.59794c0.78745,-1.48826 1.75438,-2.83749 2.03242,-4.57022c0.56226,-2.26461 2.00773,-3.33605 2.90166,-5.26366c0.32174,-0.69377 0.02674,-1.62069 0.30543,-2.33904c1.09661,-2.82668 2.79843,-4.63425 4.33354,-7.04502c1.21512,-1.90825 2.58977,-4.44313 3.43393,-6.59794c1.31468,-3.35587 0.83106,-7.45208 3.93483,-9.79503c1.60071,-1.20833 3.59135,-1.86365 5.37911,-2.62963c0.98237,-0.4209 1.4799,-1.78372 2.43623,-2.27606c1.46171,-0.75252 3.24718,-0.33334 4.73147,-1.02635c0.2502,-0.11682 -0.51943,-0.18518 -0.77915,-0.27777l0.95459,-1.18757c0,0 0.13696,0.4118 0.30626,0.98497c-0.00147,-0.03781 -0.00294,-0.07561 -0.00441,-0.11342z" data-paper-data="{&quot;origPos&quot;:null,&quot;origRot&quot;:0,&quot;index&quot;:null}" fill="#f6f1e0" stroke-width="0.5"/><path d="M189.39942,211.30001l-0.19289,1.26197l0.13308,-0.14511c0.34518,-0.59028 0.96103,-1.11686 2.05981,-1.11686c1.48852,0 2.09076,0.96638 2.33442,1.74837c0.10696,0.30347 0.16558,0.63307 0.16558,0.97761v3.27117c0,10.72217 0,21.44434 0,32.16651c0,1.22479 0.41769,3.78467 0,4.90676c-1.16419,3.12753 -4.06954,6.11747 -7.5,4.90676c-1.58882,-0.56074 -2.8947,-1.82074 -4.38675,-2.63861c-1.62241,-0.88932 -3.82582,-0.82174 -5.40382,-1.86284c-3.73208,-2.46228 -6.90282,-7.11977 -9.9772,-10.47204c-1.51015,-1.64665 -3.89936,-3.46849 -5,-5.45195c-2.48186,-4.47255 -1.73223,-10.01384 -1.73223,-15.01224c0,-1.23463 -0.6369,-5.59637 0,-6.54234c2.81526,-4.18142 5.87254,-3.81637 10,-3.81637c4.05258,0 8.49878,0.59855 12.5,0c1.66736,-0.24942 3.16879,-0.83182 4.88776,-1.02605c0.70216,-1.15473 2.11224,-1.15473 2.11224,-1.15473zM188.39942,217.84235c-2.30174,0 -3.68921,0.72142 -6,1.09039c-3.97921,0.63537 -8.4626,0 -12.5,0c-1.08964,0 -2.66902,-0.33074 -3.70943,-0.13989c-0.42956,0.0788 -0.92699,0.68566 -1.29057,0.65759c0,0.37263 0,0.74525 0,1.11788c0,1.63559 0,3.27117 0,4.90676c0,2.43637 -0.85953,7.4326 0.26777,9.52154c1.06716,1.97751 3.50459,3.82137 5,5.45195c2,2.18078 4,4.36156 6,6.54234c0.34257,0.37354 1.81996,2.48249 2.0228,2.61264c1.9392,1.24422 4.5649,1.39528 6.59618,2.49872c0.67375,0.36599 0.90493,1.44522 1.61325,1.72295c0.4705,0.18449 1.07016,-0.27851 1.5,0c0.22342,0.14476 -0.51184,0.89574 -0.26777,0.79842c0.44273,-0.17653 0.53631,-0.99777 1,-1.09039c0.2666,-0.05325 0.17468,1.11473 0.26777,0.83717c0.39996,-1.19259 0,-3.62557 0,-4.90676c0,-10.72217 0,-22.05407 0,-32.77625c-0.09554,-0.02098 -0.20036,-0.04878 -0.31038,-0.08563z" data-paper-data="{&quot;origPos&quot;:null,&quot;index&quot;:null}" fill="#f6f1e0" stroke-width="0.5"/><path d="M209.60923,211.95859l1.40353,-0.07212c8.7331,-0.44876 17.4662,-0.89752 26.1993,-1.34628c3.41347,-0.1754 7.17758,-1.02415 10.5686,-0.36382c0.73501,0.14313 1.36066,0.96458 2.09544,1.11036c3.91053,0.77585 8.03429,-1.20276 11.97213,-0.43594c0.73501,0.14313 1.35804,0.99789 2.09544,1.11036c1.78681,0.27253 3.81714,-0.19615 5.61414,-0.28849c2.06154,0.03537 2.93267,0.80248 4.71068,1.15524c3.60178,0.7146 7.27415,0.45623 10.89457,0.94177c1.09335,0.14663 2.11194,0.98072 3.20524,1.1283c5.28448,0.71331 11.06228,-0.56845 16.37456,-0.84142c4.51633,-0.23208 9.04889,-0.64553 13.56749,-0.69718c0.0711,-0.00081 3.49843,-0.29296 4.03489,0.67058c1.04862,1.88343 1.99712,4.01041 2.46744,6.35595c0.12647,0.6307 -0.58144,0.99353 -0.90345,1.44373c-0.5797,0.81047 -1.13311,1.68553 -1.79834,2.3336c-0.53857,0.52467 -1.3371,0.13524 -1.87995,0.65002c-1.22573,1.16235 -2.11115,3.11097 -3.43738,3.99438c-0.42744,0.28472 -0.99311,0.40793 -1.40353,0.07212c-0.21333,-0.17455 0.45245,-1.17112 0.22694,-1.03481c-0.84604,0.51138 -2.07773,3.32023 -2.71036,4.33118c-1.25561,1.80638 -1.8223,4.25985 -3.02457,6.18108c-1.16756,1.86576 -2.86058,2.68507 -3.92307,4.82194c-0.96063,1.93199 -1.71783,4.16721 -2.94955,5.71975c-0.59736,0.75295 -1.54014,0.54476 -2.22639,1.10428c-0.98734,0.80501 -1.8284,1.95702 -2.7426,2.93553c-2.02874,2.17145 -4.35766,5.44187 -6.76923,6.52374c-1.16283,0.52166 -2.46391,-0.62759 -3.64082,-0.1817c-2.19093,0.83005 -3.68693,3.35285 -6.11944,3.47785c-12.47586,0.64109 -24.95171,1.28217 -37.42757,1.92326c-6.39388,0.32856 -12.78775,0.65711 -19.18163,0.98567c-2.83881,0.14588 -6.07045,0.95497 -8.88905,0.45677c-3.25028,-0.5745 -5.68104,-2.60814 -5.80755,-8.08537c-0.3015,-13.05354 -0.603,-26.10709 -0.9045,-39.16063c-0.6874,-0.16999 -1.89261,-0.8231 -1.95006,-3.31034c-0.08059,-3.48911 2.25863,-3.60931 2.25863,-3.60931zM214.8836,257.79847c0.01612,0.69782 -0.12746,1.44635 0.04835,2.09347c0.09531,0.35079 -0.02524,-1.13974 0.2258,-1.0844c0.43661,0.09625 0.54845,1.14289 0.96792,1.34756c0.23126,0.11283 -0.47892,-0.81303 -0.27415,-1.00906c1.2546,-1.20106 5.4794,-0.28156 7.01767,-0.36061c7.01767,-0.36061 14.03534,-0.72122 21.05301,-1.08183c12.47586,-0.64109 24.95171,-1.28217 37.42757,-1.92326c2.14308,-0.11012 1.90822,-1.80064 4.0442,-2.63362c1.84895,-0.72105 3.86575,0.05069 5.71607,-0.66252c0.68232,-0.263 0.886,-1.67001 1.45856,-2.28286c1.3713,-1.46777 2.7426,-2.93553 4.1139,-4.4033c1.3411,-1.43545 3.56235,-1.92505 4.69457,-3.44326c0.13713,-0.18388 -0.34283,-0.44251 -0.28754,-0.70489c0.16869,-0.80056 0.55049,-1.4694 0.88734,-2.14155c1.45773,-2.90876 3.5817,-4.27642 5.17594,-6.82403c0.83646,-1.33667 1.43358,-3.76198 2.33168,-5.27256c0.6638,-1.06076 1.83306,-3.7468 2.71036,-4.33118c1.37454,-0.91559 3.04237,-0.40787 4.43754,-1.25118c0.23518,-0.14216 -0.76413,0.03764 -0.72702,-0.33679c0.03949,-0.39848 0.15403,-0.74104 0.32328,-1.03976c-3.77487,0.19398 -7.54974,0.38795 -11.3246,0.58193c-8.02634,0.41244 -15.96798,0.89318 -23.89231,-0.16957c-2.13799,-0.28673 -4.47628,-0.64901 -6.58206,-1.05907c-1.76431,-0.34357 -2.95691,-1.52419 -4.71068,-1.15524c-3.33963,0.17161 -5.95827,-0.46132 -9.1973,-1.10395c-3.35078,-0.6648 -7.08163,1.38064 -10.48441,0.71801c-1.22387,-0.23833 -2.35968,-1.1497 -3.58317,-1.39244c-2.75798,-0.54719 -6.25508,0.50069 -9.08087,0.64589c-7.79741,0.40068 -15.59482,0.80136 -23.39223,1.20203c0.30086,13.02601 0.60173,26.05202 0.90259,39.07803z" data-paper-data="{&quot;origPos&quot;:null,&quot;origRot&quot;:0,&quot;index&quot;:null}" fill="#f6f1e0" stroke-width="0.5"/><path d="M282.52467,154.80001c0,-1.38071 1.11929,-2.5 2.5,-2.5c1.38071,0 2.5,1.11929 2.5,2.5c0,1.38071 -1.11929,2.5 -2.5,2.5c-1.38071,0 -2.5,-1.11929 -2.5,-2.5z" fill="#f6f1e0" stroke-width="0.5"/><path d="M233.52467,232.80001c0,-1.38071 1.11929,-2.5 2.5,-2.5c1.38071,0 2.5,1.11929 2.5,2.5c0,1.38071 -1.11929,2.5 -2.5,2.5c-1.38071,0 -2.5,-1.11929 -2.5,-2.5z" fill="#f6f1e0" stroke-width="0.5"/><path d="M220.52467,139.80001c0,-1.38071 1.11929,-2.5 2.5,-2.5c1.38071,0 2.5,1.11929 2.5,2.5c0,1.38071 -1.11929,2.5 -2.5,2.5c-1.38071,0 -2.5,-1.11929 -2.5,-2.5z" fill="#f6f1e0" stroke-width="0.5"/><path d="M265.52467,168.80001c0,-1.38071 1.11929,-2.5 2.5,-2.5c1.38071,0 2.5,1.11929 2.5,2.5c0,1.38071 -1.11929,2.5 -2.5,2.5c-1.38071,0 -2.5,-1.11929 -2.5,-2.5z" fill="#f6f1e0" stroke-width="0.5"/><path d="M160.52467,163.80001c0,-1.38071 1.11929,-2.5 2.5,-2.5c1.38071,0 2.5,1.11929 2.5,2.5c0,1.38071 -1.11929,2.5 -2.5,2.5c-1.38071,0 -2.5,-1.11929 -2.5,-2.5z" fill="#f6f1e0" stroke-width="0.5"/><path d="M149.52467,229.80001c0,-1.38071 1.11929,-2.5 2.5,-2.5c1.38071,0 2.5,1.11929 2.5,2.5c0,1.38071 -1.11929,2.5 -2.5,2.5c-1.38071,0 -2.5,-1.11929 -2.5,-2.5z" fill="#f6f1e0" stroke-width="0.5"/><path d="M323.52467,195.80001c0,-1.38071 1.11929,-2.5 2.5,-2.5c1.38071,0 2.5,1.11929 2.5,2.5c0,1.38071 -1.11929,2.5 -2.5,2.5c-1.38071,0 -2.5,-1.11929 -2.5,-2.5z" fill="#f6f1e0" stroke-width="0.5"/><path d="M256.52467,252.80001c0,-1.38071 1.11929,-2.5 2.5,-2.5c1.38071,0 2.5,1.11929 2.5,2.5c0,1.38071 -1.11929,2.5 -2.5,2.5c-1.38071,0 -2.5,-1.11929 -2.5,-2.5z" fill="#f6f1e0" stroke-width="0.5"/><path d="M199.52467,120.80001c0,-1.38071 1.11929,-2.5 2.5,-2.5c1.38071,0 2.5,1.11929 2.5,2.5c0,1.38071 -1.11929,2.5 -2.5,2.5c-1.38071,0 -2.5,-1.11929 -2.5,-2.5z" fill="#f6f1e0" stroke-width="0.5"/><path d="M298.52467,204.80001c0,-1.38071 1.11929,-2.5 2.5,-2.5c1.38071,0 2.5,1.11929 2.5,2.5c0,1.38071 -1.11929,2.5 -2.5,2.5c-1.38071,0 -2.5,-1.11929 -2.5,-2.5z" fill="#f6f1e0" stroke-width="0.5"/><path d="M224.52467,275.80001c0,-1.38071 1.11929,-2.5 2.5,-2.5c1.38071,0 2.5,1.11929 2.5,2.5c0,1.38071 -1.11929,2.5 -2.5,2.5c-1.38071,0 -2.5,-1.11929 -2.5,-2.5z" fill="#f6f1e0" stroke-width="0.5"/><path d="M288.52467,102.80001c0,-1.38071 1.11929,-2.5 2.5,-2.5c1.38071,0 2.5,1.11929 2.5,2.5c0,1.38071 -1.11929,2.5 -2.5,2.5c-1.38071,0 -2.5,-1.11929 -2.5,-2.5z" fill="#f6f1e0" stroke-width="0.5"/><path d="M227.52467,179.80001c0,-1.38071 1.11929,-2.5 2.5,-2.5c1.38071,0 2.5,1.11929 2.5,2.5c0,1.38071 -1.11929,2.5 -2.5,2.5c-1.38071,0 -2.5,-1.11929 -2.5,-2.5z" fill="#f6f1e0" stroke-width="0.5"/><path d="M387.32407,96.36294c-0.84754,0.92774 -1.86165,2.13719 -1.86165,2.13719c-0.91946,0 -0.58409,-1.41812 -1.33837,-1.94392c-1.19471,-0.83282 -2.53663,-0.47474 -2.53663,-1.93108c0,-1.30391 1.3634,-1.09294 2.35297,-1.94203c0.81348,-0.69799 0.45015,-1.93297 1.52203,-1.93297c1.25091,0 0.87966,1.33108 1.72681,2.25146c0.76181,0.82766 2.14819,0.49865 2.14819,1.62354c0,2.14011 -1.25847,0.9115 -2.01335,1.73781z" data-paper-data="{&quot;index&quot;:null}" fill="#ffffff" stroke-width="0"/><path d="M251.49075,55.36293c-0.84754,0.92774 -1.86166,2.1372 -1.86166,2.1372c-0.91946,0 -0.58409,-1.41811 -1.33837,-1.94392c-1.1947,-0.83283 -2.53663,-0.47474 -2.53663,-1.93108c0,-1.30392 1.3634,-1.09295 2.35297,-1.94204c0.81348,-0.69799 0.45014,-1.93296 1.52203,-1.93296c1.25091,0 0.87966,1.33108 1.72681,2.25146c0.76181,0.82766 2.14819,0.49865 2.14819,1.62354c0,2.1401 -1.25847,0.91149 -2.01334,1.7378z" data-paper-data="{&quot;index&quot;:null}" fill="#ffffff" stroke-width="0"/><path d="M126.82408,66.69627c-0.84754,0.92774 -1.86166,2.1372 -1.86166,2.1372c-0.91946,0 -0.58409,-1.41811 -1.33837,-1.94392c-1.1947,-0.83283 -2.53663,-0.47474 -2.53663,-1.93108c0,-1.30392 1.36341,-1.09295 2.35298,-1.94204c0.81347,-0.69799 0.45013,-1.93296 1.52202,-1.93296c1.25091,0 0.87966,1.33108 1.72681,2.25146c0.7618,0.82766 2.14819,0.49865 2.14819,1.62354c0,2.1401 -1.25847,0.91149 -2.01334,1.7378z" data-paper-data="{&quot;index&quot;:null}" fill="#ffffff" stroke-width="0"/><path d="M113.82408,143.0296c-0.84754,0.92774 -1.86166,2.1372 -1.86166,2.1372c-0.91946,0 -0.58409,-1.41811 -1.33837,-1.94392c-1.1947,-0.83283 -2.53663,-0.47474 -2.53663,-1.93108c0,-1.30392 1.36341,-1.09295 2.35298,-1.94204c0.81347,-0.69799 0.45013,-1.93296 1.52202,-1.93296c1.25091,0 0.87966,1.33108 1.72681,2.25146c0.7618,0.82766 2.14819,0.49865 2.14819,1.62354c0,2.1401 -1.25847,0.91149 -2.01334,1.7378z" data-paper-data="{&quot;index&quot;:null}" fill="#ffffff" stroke-width="0"/><path d="M14.1574,91.02961c-0.84753,0.92774 -1.86165,2.13719 -1.86165,2.13719c-0.91947,0 -0.58409,-1.41811 -1.33837,-1.94392c-1.1947,-0.83282 -2.53663,-0.47474 -2.53663,-1.93108c0,-1.30391 1.36341,-1.09294 2.35298,-1.94203c0.81347,-0.69799 0.45013,-1.93297 1.52202,-1.93297c1.25091,0 0.87966,1.33108 1.72681,2.25146c0.76181,0.82766 2.14819,0.49865 2.14819,1.62354c0,2.14011 -1.25847,0.9115 -2.01335,1.73781z" data-paper-data="{&quot;index&quot;:null}" fill="#ffffff" stroke-width="0"/><path d="M25.15741,132.02961c-0.84754,0.92774 -1.86166,2.13719 -1.86166,2.13719c-0.91946,0 -0.58408,-1.41811 -1.33836,-1.94392c-1.19471,-0.83282 -2.53664,-0.47474 -2.53664,-1.93108c0,-1.30391 1.36341,-1.09294 2.35298,-1.94203c0.81347,-0.69799 0.45013,-1.93297 1.52202,-1.93297c1.25091,0 0.87966,1.33108 1.72681,2.25146c0.76181,0.82766 2.14819,0.49865 2.14819,1.62354c0,2.14011 -1.25846,0.9115 -2.01334,1.73781z" data-paper-data="{&quot;index&quot;:null}" fill="#ffffff" stroke-width="0"/><path d="M461.40741,137.52961c-0.84754,0.92774 -1.86166,2.13719 -1.86166,2.13719c-0.91946,0 -0.58408,-1.41811 -1.33836,-1.94392c-1.19471,-0.83282 -2.53664,-0.47474 -2.53664,-1.93108c0,-1.30391 1.36341,-1.09294 2.35298,-1.94203c0.81347,-0.69799 0.45013,-1.93297 1.52202,-1.93297c1.25091,0 0.87966,1.33108 1.72681,2.25146c0.76181,0.82766 2.14819,0.49865 2.14819,1.62354c0,2.14011 -1.25846,0.9115 -2.01334,1.73781z" data-paper-data="{&quot;index&quot;:null}" fill="#ffffff" stroke-width="0"/><path d="M448.40741,52.27961c-0.84754,0.92774 -1.86166,2.13719 -1.86166,2.13719c-0.91945,0 -0.58408,-1.41811 -1.33836,-1.94392c-1.19471,-0.83282 -2.53664,-0.47474 -2.53664,-1.93108c0,-1.30391 1.36341,-1.09294 2.35298,-1.94203c0.81347,-0.69799 0.45014,-1.93297 1.52202,-1.93297c1.25091,0 0.87966,1.33108 1.72681,2.25146c0.76181,0.82766 2.14819,0.49865 2.14819,1.62354c0,2.14011 -1.25847,0.9115 -2.01334,1.73781z" data-paper-data="{&quot;index&quot;:null}" fill="#ffffff" stroke-width="0"/><path d="M404.94183,70.39524c0,1.12489 -1.38638,0.79588 -2.14819,1.62354c-0.84715,0.92038 -0.4759,2.25146 -1.72681,2.25146c-1.07188,0 -0.70855,-1.23498 -1.52203,-1.93297c-0.98957,-0.84909 -2.35297,-0.63812 -2.35297,-1.94203c0,-1.45634 1.34192,-1.09826 2.53663,-1.93108c0.75428,-0.5258 0.41891,-1.94392 1.33837,-1.94392c0,0 1.01411,1.20945 1.86165,2.13719c0.75488,0.82631 2.01335,-0.4023 2.01335,1.73781z" data-paper-data="{&quot;index&quot;:null}" fill="#ffffff" stroke-width="0"/><path d="M318.44183,36.39523c0,1.12489 -1.38639,0.79588 -2.14819,1.62354c-0.84715,0.92038 -0.4759,2.25146 -1.72681,2.25146c-1.07189,0 -0.70855,-1.23497 -1.52202,-1.93296c-0.98957,-0.84909 -2.35298,-0.63812 -2.35298,-1.94204c0,-1.45634 1.34193,-1.09825 2.53663,-1.93108c0.75428,-0.52581 0.4189,-1.94392 1.33837,-1.94392c0,0 1.01412,1.20946 1.86165,2.1372c0.75488,0.82631 2.01335,-0.4023 2.01335,1.7378z" data-paper-data="{&quot;index&quot;:null}" fill="#ffffff" stroke-width="0"/><path d="M144.44183,100.0619c0,1.12489 -1.38639,0.79588 -2.14819,1.62354c-0.84715,0.92038 -0.4759,2.25146 -1.72681,2.25146c-1.07189,0 -0.70855,-1.23497 -1.52202,-1.93296c-0.98957,-0.84909 -2.35298,-0.63812 -2.35298,-1.94204c0,-1.45634 1.34193,-1.09825 2.53663,-1.93108c0.75428,-0.52581 0.41891,-1.94392 1.33837,-1.94392c0,0 1.01412,1.20946 1.86166,2.1372c0.75487,0.82631 2.01334,-0.4023 2.01334,1.7378z" data-paper-data="{&quot;index&quot;:null}" fill="#ffffff" stroke-width="0"/><path d="M131.44183,23.72857c0,1.12489 -1.38639,0.79588 -2.14819,1.62354c-0.84715,0.92038 -0.4759,2.25146 -1.72681,2.25146c-1.07189,0 -0.70855,-1.23497 -1.52202,-1.93296c-0.98957,-0.84909 -2.35298,-0.63812 -2.35298,-1.94204c0,-1.45634 1.34193,-1.09825 2.53663,-1.93108c0.75428,-0.52581 0.41891,-1.94392 1.33837,-1.94392c0,0 1.01412,1.20946 1.86166,2.1372c0.75487,0.82631 2.01334,-0.4023 2.01334,1.7378z" data-paper-data="{&quot;index&quot;:null}" fill="#ffffff" stroke-width="0"/><path d="M31.77516,75.72857c0,1.12489 -1.38638,0.79588 -2.14819,1.62354c-0.84715,0.92038 -0.4759,2.25146 -1.72681,2.25146c-1.07189,0 -0.70855,-1.23498 -1.52202,-1.93297c-0.98957,-0.84909 -2.35298,-0.63812 -2.35298,-1.94203c0,-1.45634 1.34193,-1.09826 2.53663,-1.93108c0.75428,-0.52581 0.4189,-1.94392 1.33837,-1.94392c0,0 1.01412,1.20945 1.86165,2.13719c0.75488,0.82631 2.01335,-0.4023 2.01335,1.73781z" data-paper-data="{&quot;index&quot;:null}" fill="#ffffff" stroke-width="0"/><path d="M42.77516,34.72857c0,1.12489 -1.38638,0.79588 -2.14819,1.62354c-0.84715,0.92038 -0.4759,2.25146 -1.72681,2.25146c-1.07189,0 -0.70855,-1.23498 -1.52202,-1.93297c-0.98957,-0.84909 -2.35298,-0.63812 -2.35298,-1.94203c0,-1.45634 1.34193,-1.09826 2.53664,-1.93108c0.75428,-0.52581 0.4189,-1.94392 1.33836,-1.94392c0,0 1.01412,1.20945 1.86166,2.13719c0.75488,0.82631 2.01334,-0.4023 2.01334,1.73781z" data-paper-data="{&quot;index&quot;:null}" fill="#ffffff" stroke-width="0"/><path d="M479.02516,29.22857c0,1.12489 -1.38638,0.79588 -2.14819,1.62354c-0.84715,0.92038 -0.4759,2.25146 -1.72681,2.25146c-1.07189,0 -0.70855,-1.23498 -1.52202,-1.93297c-0.98957,-0.84909 -2.35298,-0.63812 -2.35298,-1.94203c0,-1.45634 1.34193,-1.09826 2.53664,-1.93108c0.75428,-0.52581 0.4189,-1.94392 1.33836,-1.94392c0,0 1.01412,1.20945 1.86166,2.13719c0.75488,0.82631 2.01334,-0.4023 2.01334,1.73781z" data-paper-data="{&quot;index&quot;:null}" fill="#ffffff" stroke-width="0"/><path d="M466.02516,114.47857c0,1.12489 -1.38638,0.79588 -2.14819,1.62354c-0.84715,0.92038 -0.4759,2.25146 -1.72681,2.25146c-1.07188,0 -0.70855,-1.23498 -1.52202,-1.93297c-0.98957,-0.84909 -2.35298,-0.63812 -2.35298,-1.94203c0,-1.45634 1.34193,-1.09826 2.53664,-1.93108c0.75428,-0.52581 0.41891,-1.94392 1.33836,-1.94392c0,0 1.01412,1.20945 1.86166,2.13719c0.75487,0.82631 2.01334,-0.4023 2.01334,1.73781z" data-paper-data="{&quot;index&quot;:null}" fill="#ffffff" stroke-width="0"/><path d="M85.43447,187.69303c0,-1.12489 1.38638,-0.79588 2.14819,-1.62354c0.84715,-0.92038 0.4759,-2.25146 1.72681,-2.25146c1.07188,0 0.70855,1.23498 1.52203,1.93297c0.98957,0.84909 2.35297,0.63812 2.35297,1.94203c0,1.45634 -1.34192,1.09826 -2.53663,1.93108c-0.75428,0.5258 -0.41891,1.94392 -1.33837,1.94392c0,0 -1.01411,-1.20945 -1.86165,-2.13719c-0.75488,-0.82631 -2.01335,0.4023 -2.01335,-1.73781z" data-paper-data="{&quot;index&quot;:null}" fill="#ffffff" stroke-width="0"/><path d="M171.93447,221.69304c0,-1.12489 1.38639,-0.79588 2.14819,-1.62354c0.84715,-0.92038 0.4759,-2.25146 1.72681,-2.25146c1.07189,0 0.70855,1.23497 1.52202,1.93296c0.98957,0.84909 2.35298,0.63812 2.35298,1.94204c0,1.45634 -1.34193,1.09825 -2.53663,1.93108c-0.75428,0.52581 -0.4189,1.94392 -1.33837,1.94392c0,0 -1.01412,-1.20946 -1.86165,-2.1372c-0.75488,-0.82631 -2.01335,0.4023 -2.01335,-1.7378z" data-paper-data="{&quot;index&quot;:null}" fill="#ffffff" stroke-width="0"/><path d="M345.93447,158.02637c0,-1.12489 1.38639,-0.79588 2.14819,-1.62354c0.84715,-0.92038 0.4759,-2.25146 1.72681,-2.25146c1.07189,0 0.70855,1.23497 1.52202,1.93296c0.98957,0.84909 2.35298,0.63812 2.35298,1.94204c0,1.45634 -1.34193,1.09825 -2.53663,1.93108c-0.75428,0.52581 -0.41891,1.94392 -1.33837,1.94392c0,0 -1.01412,-1.20946 -1.86166,-2.1372c-0.75487,-0.82631 -2.01334,0.4023 -2.01334,-1.7378z" data-paper-data="{&quot;index&quot;:null}" fill="#ffffff" stroke-width="0"/><path d="M358.93447,234.3597c0,-1.12489 1.38639,-0.79588 2.14819,-1.62354c0.84715,-0.92038 0.4759,-2.25146 1.72681,-2.25146c1.07189,0 0.70855,1.23497 1.52202,1.93296c0.98957,0.84909 2.35298,0.63812 2.35298,1.94204c0,1.45634 -1.34193,1.09825 -2.53663,1.93108c-0.75428,0.52581 -0.41891,1.94392 -1.33837,1.94392c0,0 -1.01412,-1.20946 -1.86166,-2.1372c-0.75487,-0.82631 -2.01334,0.4023 -2.01334,-1.7378z" data-paper-data="{&quot;index&quot;:null}" fill="#ffffff" stroke-width="0"/><path d="M458.60114,182.3597c0,-1.12489 1.38638,-0.79588 2.14819,-1.62354c0.84715,-0.92038 0.4759,-2.25146 1.72681,-2.25146c1.07189,0 0.70855,1.23498 1.52202,1.93297c0.98957,0.84909 2.35298,0.63812 2.35298,1.94203c0,1.45634 -1.34193,1.09826 -2.53663,1.93108c-0.75428,0.52581 -0.4189,1.94392 -1.33837,1.94392c0,0 -1.01412,-1.20945 -1.86165,-2.13719c-0.75488,-0.82631 -2.01335,0.4023 -2.01335,-1.73781z" data-paper-data="{&quot;index&quot;:null}" fill="#ffffff" stroke-width="0"/><path d="M447.60114,223.3597c0,-1.12489 1.38638,-0.79588 2.14819,-1.62354c0.84715,-0.92038 0.4759,-2.25146 1.72681,-2.25146c1.07189,0 0.70855,1.23498 1.52202,1.93297c0.98957,0.84909 2.35298,0.63812 2.35298,1.94203c0,1.45634 -1.34193,1.09826 -2.53664,1.93108c-0.75428,0.52581 -0.4189,1.94392 -1.33836,1.94392c0,0 -1.01412,-1.20945 -1.86166,-2.13719c-0.75488,-0.82631 -2.01334,0.4023 -2.01334,-1.73781z" data-paper-data="{&quot;index&quot;:null}" fill="#ffffff" stroke-width="0"/><path d="M11.35114,228.8597c0,-1.12489 1.38638,-0.79588 2.14819,-1.62354c0.84715,-0.92038 0.4759,-2.25146 1.72681,-2.25146c1.07189,0 0.70855,1.23498 1.52202,1.93297c0.98957,0.84909 2.35298,0.63812 2.35298,1.94203c0,1.45634 -1.34193,1.09826 -2.53664,1.93108c-0.75428,0.52581 -0.4189,1.94392 -1.33836,1.94392c0,0 -1.01412,-1.20945 -1.86166,-2.13719c-0.75488,-0.82631 -2.01334,0.4023 -2.01334,-1.73781z" data-paper-data="{&quot;index&quot;:null}" fill="#ffffff" stroke-width="0"/><path d="M24.35114,143.6097c0,-1.12489 1.38638,-0.79588 2.14819,-1.62354c0.84715,-0.92038 0.4759,-2.25146 1.72681,-2.25146c1.07188,0 0.70855,1.23498 1.52202,1.93297c0.98957,0.84909 2.35298,0.63812 2.35298,1.94203c0,1.45634 -1.34193,1.09826 -2.53664,1.93108c-0.75428,0.52581 -0.41891,1.94392 -1.33836,1.94392c0,0 -1.01412,-1.20945 -1.86166,-2.13719c-0.75487,-0.82631 -2.01334,0.4023 -2.01334,-1.73781z" data-paper-data="{&quot;index&quot;:null}" fill="#ffffff" stroke-width="0"/><path d="M387.5471,301.32048c0,1.12489 -1.38638,0.79588 -2.14819,1.62354c-0.84715,0.92038 -0.4759,2.25146 -1.72681,2.25146c-1.07188,0 -0.70855,-1.23498 -1.52203,-1.93297c-0.98957,-0.84909 -2.35297,-0.63812 -2.35297,-1.94203c0,-1.45634 1.34192,-1.09826 2.53663,-1.93108c0.75428,-0.5258 0.41891,-1.94392 1.33837,-1.94392c0,0 1.01411,1.20945 1.86165,2.13719c0.75488,0.82631 2.01335,-0.4023 2.01335,1.73781z" data-paper-data="{&quot;index&quot;:null}" fill="#ffffff" stroke-width="0"/><path d="M303.6982,270.85528c0,1.12489 -1.38639,0.79588 -2.14819,1.62354c-0.84715,0.92038 -0.4759,2.25146 -1.72681,2.25146c-1.07189,0 -0.70855,-1.23497 -1.52202,-1.93296c-0.98957,-0.84909 -2.35298,-0.63812 -2.35298,-1.94204c0,-1.45634 1.34193,-1.09825 2.53663,-1.93108c0.75428,-0.52581 0.4189,-1.94392 1.33837,-1.94392c0,0 1.01412,1.20946 1.86165,2.1372c0.75488,0.82631 2.01335,-0.4023 2.01335,1.7378z" data-paper-data="{&quot;index&quot;:null}" fill="#ffffff" stroke-width="0"/><path d="M251.71377,342.32048c0,1.12489 -1.38638,0.79588 -2.14819,1.62354c-0.84715,0.92038 -0.4759,2.25146 -1.72681,2.25146c-1.07189,0 -0.70855,-1.23497 -1.52203,-1.93296c-0.98957,-0.84909 -2.35297,-0.63812 -2.35297,-1.94204c0,-1.45634 1.34193,-1.09825 2.53663,-1.93108c0.75428,-0.52581 0.41891,-1.94392 1.33837,-1.94392c0,0 1.01412,1.20946 1.86166,2.1372c0.75487,0.82631 2.01334,-0.4023 2.01334,1.7378z" data-paper-data="{&quot;index&quot;:null}" fill="#ffffff" stroke-width="0"/><path d="M127.0471,330.98714c0,1.12489 -1.38639,0.79588 -2.14819,1.62354c-0.84715,0.92038 -0.4759,2.25146 -1.72681,2.25146c-1.07189,0 -0.70855,-1.23497 -1.52202,-1.93296c-0.98957,-0.84909 -2.35298,-0.63812 -2.35298,-1.94204c0,-1.45634 1.34193,-1.09825 2.53663,-1.93108c0.75428,-0.52581 0.41891,-1.94392 1.33837,-1.94392c0,0 1.01412,1.20946 1.86166,2.1372c0.75487,0.82631 2.01334,-0.4023 2.01334,1.7378z" data-paper-data="{&quot;index&quot;:null}" fill="#ffffff" stroke-width="0"/><path d="M114.0471,254.65381c0,1.12489 -1.38639,0.79588 -2.14819,1.62354c-0.84715,0.92038 -0.4759,2.25146 -1.72681,2.25146c-1.07189,0 -0.70855,-1.23497 -1.52202,-1.93296c-0.98957,-0.84909 -2.35298,-0.63812 -2.35298,-1.94204c0,-1.45634 1.34193,-1.09825 2.53663,-1.93108c0.75428,-0.52581 0.41891,-1.94392 1.33837,-1.94392c0,0 1.01412,1.20946 1.86166,2.1372c0.75487,0.82631 2.01334,-0.4023 2.01334,1.7378z" data-paper-data="{&quot;index&quot;:null}" fill="#ffffff" stroke-width="0"/><path d="M14.38043,306.65381c0,1.12489 -1.38638,0.79588 -2.14819,1.62354c-0.84715,0.92038 -0.4759,2.25146 -1.72681,2.25146c-1.07189,0 -0.70855,-1.23498 -1.52202,-1.93297c-0.98957,-0.84909 -2.35298,-0.63812 -2.35298,-1.94203c0,-1.45634 1.34193,-1.09826 2.53663,-1.93108c0.75428,-0.52581 0.4189,-1.94392 1.33837,-1.94392c0,0 1.01412,1.20945 1.86165,2.13719c0.75488,0.82631 2.01335,-0.4023 2.01335,1.73781z" data-paper-data="{&quot;index&quot;:null}" fill="#ffffff" stroke-width="0"/><path d="M25.38043,265.65381c0,1.12489 -1.38638,0.79588 -2.14819,1.62354c-0.84715,0.92038 -0.4759,2.25146 -1.72681,2.25146c-1.07189,0 -0.70855,-1.23498 -1.52202,-1.93297c-0.98957,-0.84909 -2.35298,-0.63812 -2.35298,-1.94203c0,-1.45634 1.34193,-1.09826 2.53664,-1.93108c0.75428,-0.52581 0.4189,-1.94392 1.33836,-1.94392c0,0 1.01412,1.20945 1.86166,2.13719c0.75488,0.82631 2.01334,-0.4023 2.01334,1.73781z" data-paper-data="{&quot;index&quot;:null}" fill="#ffffff" stroke-width="0"/><path d="M461.63043,260.15381c0,1.12489 -1.38638,0.79588 -2.14819,1.62354c-0.84715,0.92038 -0.4759,2.25146 -1.72681,2.25146c-1.07189,0 -0.70855,-1.23498 -1.52202,-1.93297c-0.98957,-0.84909 -2.35298,-0.63812 -2.35298,-1.94203c0,-1.45634 1.34193,-1.09826 2.53664,-1.93108c0.75428,-0.52581 0.4189,-1.94392 1.33836,-1.94392c0,0 1.01412,1.20945 1.86166,2.13719c0.75488,0.82631 2.01334,-0.4023 2.01334,1.73781z" data-paper-data="{&quot;index&quot;:null}" fill="#ffffff" stroke-width="0"/><path d="M448.63043,345.40381c0,1.12489 -1.38638,0.79588 -2.14819,1.62354c-0.84715,0.92038 -0.4759,2.25146 -1.72681,2.25146c-1.07188,0 -0.70855,-1.23498 -1.52202,-1.93297c-0.98957,-0.84909 -2.35298,-0.63812 -2.35298,-1.94203c0,-1.45634 1.34193,-1.09826 2.53664,-1.93108c0.75428,-0.52581 0.41891,-1.94392 1.33836,-1.94392c0,0 1.01412,1.20945 1.86166,2.13719c0.75487,0.82631 2.01334,-0.4023 2.01334,1.73781z" data-paper-data="{&quot;index&quot;:null}" fill="#ffffff" stroke-width="0"/></g></g></svg>