<svg version="1.1" xmlns="http://www.w3.org/2000/svg" xmlns:xlink="http://www.w3.org/1999/xlink" width="690.80511" height="524.09317" viewBox="0,0,690.80511,524.09317"><defs><linearGradient x1="282.33787" y1="234.74339" x2="284.09161" y2="290.39053" gradientUnits="userSpaceOnUse" id="color-1"><stop offset="0" stop-color="#a23926"/><stop offset="1" stop-color="#e08400"/></linearGradient><linearGradient x1="283.02921" y1="234.53777" x2="283.02921" y2="291.0218" gradientUnits="userSpaceOnUse" id="color-2"><stop offset="0" stop-color="#8c5c19"/><stop offset="1" stop-color="#be8e23"/></linearGradient><linearGradient x1="244.25325" y1="242.27297" x2="244.25325" y2="290.11198" gradientUnits="userSpaceOnUse" id="color-3"><stop offset="0" stop-color="#a23926"/><stop offset="1" stop-color="#e08400"/></linearGradient><linearGradient x1="244.25325" y1="242.27297" x2="244.25325" y2="290.11198" gradientUnits="userSpaceOnUse" id="color-4"><stop offset="0" stop-color="#8c5c19"/><stop offset="1" stop-color="#be8e23"/></linearGradient><linearGradient x1="196.71105" y1="237.36848" x2="196.71105" y2="292.28185" gradientUnits="userSpaceOnUse" id="color-5"><stop offset="0" stop-color="#a23926"/><stop offset="1" stop-color="#e08400"/></linearGradient><linearGradient x1="196.71104" y1="237.36848" x2="196.71104" y2="292.28185" gradientUnits="userSpaceOnUse" id="color-6"><stop offset="0" stop-color="#8c5c19"/><stop offset="1" stop-color="#be8e23"/></linearGradient><linearGradient x1="389.81745" y1="202.01658" x2="383.10166" y2="241.73117" gradientUnits="userSpaceOnUse" id="color-7"><stop offset="0" stop-color="#a23926"/><stop offset="1" stop-color="#e08400"/></linearGradient><linearGradient x1="388.71813" y1="200.32583" x2="388.71813" y2="242.91768" gradientUnits="userSpaceOnUse" id="color-8"><stop offset="0" stop-color="#852700"/><stop offset="1" stop-color="#8c5c19"/></linearGradient><linearGradient x1="358.7006" y1="199.6521" x2="354.35824" y2="242.39368" gradientUnits="userSpaceOnUse" id="color-9"><stop offset="0" stop-color="#a23926"/><stop offset="1" stop-color="#e08400"/></linearGradient><linearGradient x1="358.40925" y1="200.3003" x2="358.40925" y2="241.43483" gradientUnits="userSpaceOnUse" id="color-10"><stop offset="0" stop-color="#852700"/><stop offset="1" stop-color="#8c5c19"/></linearGradient><linearGradient x1="258.20705" y1="198.88601" x2="258.20705" y2="241.15998" gradientUnits="userSpaceOnUse" id="color-11"><stop offset="0" stop-color="#a23926"/><stop offset="1" stop-color="#e08400"/></linearGradient><linearGradient x1="258.20705" y1="198.88601" x2="258.20705" y2="241.15998" gradientUnits="userSpaceOnUse" id="color-12"><stop offset="0" stop-color="#852700"/><stop offset="1" stop-color="#8c5c19"/></linearGradient><linearGradient x1="288.68523" y1="202.45174" x2="290.80242" y2="245.36114" gradientUnits="userSpaceOnUse" id="color-13"><stop offset="0" stop-color="#a23926"/><stop offset="1" stop-color="#e08400"/></linearGradient><linearGradient x1="290.54757" y1="202.97914" x2="290.54757" y2="244.89211" gradientUnits="userSpaceOnUse" id="color-14"><stop offset="0" stop-color="#852700"/><stop offset="1" stop-color="#8c5c19"/></linearGradient><linearGradient x1="324.9852" y1="203.52478" x2="333.3977" y2="239.75772" gradientUnits="userSpaceOnUse" id="color-15"><stop offset="0" stop-color="#a23926"/><stop offset="1" stop-color="#e08400"/></linearGradient><linearGradient x1="330.52469" y1="203.24816" x2="330.52469" y2="241.49513" gradientUnits="userSpaceOnUse" id="color-16"><stop offset="0" stop-color="#852700"/><stop offset="1" stop-color="#8c5c19"/></linearGradient><linearGradient x1="226.6866" y1="200.1186" x2="226.6866" y2="239.93953" gradientUnits="userSpaceOnUse" id="color-17"><stop offset="0" stop-color="#a23926"/><stop offset="1" stop-color="#e08400"/></linearGradient><linearGradient x1="226.6866" y1="200.1186" x2="226.6866" y2="239.93953" gradientUnits="userSpaceOnUse" id="color-18"><stop offset="0" stop-color="#852700"/><stop offset="1" stop-color="#8c5c19"/></linearGradient><linearGradient x1="205.38651" y1="200.46359" x2="209.08834" y2="240.96612" gradientUnits="userSpaceOnUse" id="color-19"><stop offset="0" stop-color="#a23926"/><stop offset="1" stop-color="#e08400"/></linearGradient><linearGradient x1="206.94053" y1="200.5498" x2="206.94053" y2="242.02997" gradientUnits="userSpaceOnUse" id="color-20"><stop offset="0" stop-color="#852700"/><stop offset="1" stop-color="#8c5c19"/></linearGradient><linearGradient x1="177.85091" y1="204.12973" x2="180.82547" y2="241.20728" gradientUnits="userSpaceOnUse" id="color-21"><stop offset="0" stop-color="#a23926"/><stop offset="1" stop-color="#e08400"/></linearGradient><linearGradient x1="179.06349" y1="205.09597" x2="179.06349" y2="240.99953" gradientUnits="userSpaceOnUse" id="color-22"><stop offset="0" stop-color="#852700"/><stop offset="1" stop-color="#8c5c19"/></linearGradient><linearGradient x1="154.43831" y1="203.15245" x2="143.48615" y2="242.15821" gradientUnits="userSpaceOnUse" id="color-23"><stop offset="0" stop-color="#a23926"/><stop offset="1" stop-color="#e08400"/></linearGradient><linearGradient x1="151.77465" y1="201.28472" x2="154.96868" y2="244.21326" gradientUnits="userSpaceOnUse" id="color-24"><stop offset="0" stop-color="#852700"/><stop offset="1" stop-color="#8c5c19"/></linearGradient><linearGradient x1="91.6897" y1="203.93023" x2="91.6897" y2="246.29397" gradientUnits="userSpaceOnUse" id="color-25"><stop offset="0" stop-color="#a23926"/><stop offset="1" stop-color="#e08400"/></linearGradient><linearGradient x1="91.68972" y1="203.93023" x2="91.68972" y2="246.294" gradientUnits="userSpaceOnUse" id="color-26"><stop offset="0" stop-color="#852700"/><stop offset="1" stop-color="#8c5c19"/></linearGradient><linearGradient x1="117.66926" y1="206.83412" x2="125.92581" y2="243.1029" gradientUnits="userSpaceOnUse" id="color-27"><stop offset="0" stop-color="#a23926"/><stop offset="1" stop-color="#e08400"/></linearGradient><linearGradient x1="123.08431" y1="206.63326" x2="123.08431" y2="244.78415" gradientUnits="userSpaceOnUse" id="color-28"><stop offset="0" stop-color="#852700"/><stop offset="1" stop-color="#8c5c19"/></linearGradient><linearGradient x1="389.31864" y1="202.51539" x2="382.60285" y2="242.22999" gradientUnits="userSpaceOnUse" id="color-29"><stop offset="0" stop-color="#ff8800"/><stop offset="1" stop-color="#ffbc00"/></linearGradient><linearGradient x1="388.21932" y1="200.82465" x2="388.21932" y2="243.41649" gradientUnits="userSpaceOnUse" id="color-30"><stop offset="0" stop-color="#c03b00"/><stop offset="1" stop-color="#be7a1c"/></linearGradient><linearGradient x1="358.20179" y1="200.15092" x2="353.85942" y2="242.8925" gradientUnits="userSpaceOnUse" id="color-31"><stop offset="0" stop-color="#ff8800"/><stop offset="1" stop-color="#ffbc00"/></linearGradient><linearGradient x1="357.91044" y1="200.79912" x2="357.91044" y2="241.93365" gradientUnits="userSpaceOnUse" id="color-32"><stop offset="0" stop-color="#c03b00"/><stop offset="1" stop-color="#be7a1c"/></linearGradient><linearGradient x1="257.70824" y1="199.38483" x2="257.70824" y2="241.6588" gradientUnits="userSpaceOnUse" id="color-33"><stop offset="0" stop-color="#ff8800"/><stop offset="1" stop-color="#ffbc00"/></linearGradient><linearGradient x1="257.70824" y1="199.38483" x2="257.70824" y2="241.6588" gradientUnits="userSpaceOnUse" id="color-34"><stop offset="0" stop-color="#c03b00"/><stop offset="1" stop-color="#be7a1c"/></linearGradient><linearGradient x1="288.18642" y1="202.95055" x2="290.30361" y2="245.85996" gradientUnits="userSpaceOnUse" id="color-35"><stop offset="0" stop-color="#ff8800"/><stop offset="1" stop-color="#ffbc00"/></linearGradient><linearGradient x1="290.04876" y1="203.47795" x2="290.04876" y2="245.39093" gradientUnits="userSpaceOnUse" id="color-36"><stop offset="0" stop-color="#c03b00"/><stop offset="1" stop-color="#be7a1c"/></linearGradient><linearGradient x1="324.48639" y1="204.0236" x2="332.89888" y2="240.25653" gradientUnits="userSpaceOnUse" id="color-37"><stop offset="0" stop-color="#ff8800"/><stop offset="1" stop-color="#ffbc00"/></linearGradient><linearGradient x1="330.02588" y1="203.74698" x2="330.02588" y2="241.99395" gradientUnits="userSpaceOnUse" id="color-38"><stop offset="0" stop-color="#c03b00"/><stop offset="1" stop-color="#be7a1c"/></linearGradient><linearGradient x1="226.18779" y1="200.61741" x2="226.18779" y2="240.43835" gradientUnits="userSpaceOnUse" id="color-39"><stop offset="0" stop-color="#ff8800"/><stop offset="1" stop-color="#ffbc00"/></linearGradient><linearGradient x1="226.18779" y1="200.61741" x2="226.18779" y2="240.43835" gradientUnits="userSpaceOnUse" id="color-40"><stop offset="0" stop-color="#c03b00"/><stop offset="1" stop-color="#be7a1c"/></linearGradient><linearGradient x1="204.88769" y1="200.9624" x2="208.58953" y2="241.46494" gradientUnits="userSpaceOnUse" id="color-41"><stop offset="0" stop-color="#ff8800"/><stop offset="1" stop-color="#ffbc00"/></linearGradient><linearGradient x1="206.44171" y1="201.04861" x2="206.44171" y2="242.52879" gradientUnits="userSpaceOnUse" id="color-42"><stop offset="0" stop-color="#c03b00"/><stop offset="1" stop-color="#be7a1c"/></linearGradient><linearGradient x1="177.35209" y1="204.62855" x2="180.32665" y2="241.70609" gradientUnits="userSpaceOnUse" id="color-43"><stop offset="0" stop-color="#ff8800"/><stop offset="1" stop-color="#ffbc00"/></linearGradient><linearGradient x1="178.56467" y1="205.59478" x2="178.56467" y2="241.49834" gradientUnits="userSpaceOnUse" id="color-44"><stop offset="0" stop-color="#c03b00"/><stop offset="1" stop-color="#be7a1c"/></linearGradient><linearGradient x1="153.93949" y1="203.65126" x2="142.98734" y2="242.65703" gradientUnits="userSpaceOnUse" id="color-45"><stop offset="0" stop-color="#ff8800"/><stop offset="1" stop-color="#ffbc00"/></linearGradient><linearGradient x1="151.27584" y1="201.78354" x2="154.46987" y2="244.71208" gradientUnits="userSpaceOnUse" id="color-46"><stop offset="0" stop-color="#c03b00"/><stop offset="1" stop-color="#be7a1c"/></linearGradient><linearGradient x1="91.19088" y1="204.42904" x2="91.19088" y2="246.79279" gradientUnits="userSpaceOnUse" id="color-47"><stop offset="0" stop-color="#ff8800"/><stop offset="1" stop-color="#ffbc00"/></linearGradient><linearGradient x1="91.19091" y1="204.42904" x2="91.19091" y2="246.79282" gradientUnits="userSpaceOnUse" id="color-48"><stop offset="0" stop-color="#c03b00"/><stop offset="1" stop-color="#be7a1c"/></linearGradient><linearGradient x1="117.17045" y1="207.33294" x2="125.427" y2="243.60171" gradientUnits="userSpaceOnUse" id="color-49"><stop offset="0" stop-color="#ff8800"/><stop offset="1" stop-color="#ffbc00"/></linearGradient><linearGradient x1="122.58549" y1="207.13207" x2="122.58549" y2="245.28297" gradientUnits="userSpaceOnUse" id="color-50"><stop offset="0" stop-color="#c03b00"/><stop offset="1" stop-color="#be7a1c"/></linearGradient><linearGradient x1="281.83905" y1="235.24221" x2="283.59279" y2="290.88935" gradientUnits="userSpaceOnUse" id="color-51"><stop offset="0" stop-color="#ff8800"/><stop offset="1" stop-color="#ffbc00"/></linearGradient><linearGradient x1="282.53039" y1="235.03659" x2="282.53039" y2="291.52061" gradientUnits="userSpaceOnUse" id="color-52"><stop offset="0" stop-color="#c03b00"/><stop offset="1" stop-color="#be7a1c"/></linearGradient><linearGradient x1="243.75444" y1="242.77179" x2="243.75444" y2="290.61079" gradientUnits="userSpaceOnUse" id="color-53"><stop offset="0" stop-color="#ff8800"/><stop offset="1" stop-color="#ffbc00"/></linearGradient><linearGradient x1="243.75444" y1="242.77179" x2="243.75444" y2="290.61079" gradientUnits="userSpaceOnUse" id="color-54"><stop offset="0" stop-color="#c03b00"/><stop offset="1" stop-color="#be7a1c"/></linearGradient><linearGradient x1="196.21223" y1="237.8673" x2="196.21223" y2="292.78066" gradientUnits="userSpaceOnUse" id="color-55"><stop offset="0" stop-color="#ff8800"/><stop offset="1" stop-color="#ffbc00"/></linearGradient><linearGradient x1="196.21222" y1="237.8673" x2="196.21222" y2="292.78066" gradientUnits="userSpaceOnUse" id="color-56"><stop offset="0" stop-color="#c03b00"/><stop offset="1" stop-color="#be7a1c"/></linearGradient><linearGradient x1="-70.41701" y1="-193.73321" x2="-70.41701" y2="-135.29277" gradientUnits="userSpaceOnUse" id="color-57"><stop offset="0" stop-color="#5276bd"/><stop offset="1" stop-color="#69d9ff"/></linearGradient><linearGradient x1="-70.41701" y1="-193.73321" x2="-70.41701" y2="-135.29277" gradientUnits="userSpaceOnUse" id="color-58"><stop offset="0" stop-color="#000000"/><stop offset="1" stop-color="#182f3a"/></linearGradient><linearGradient x1="28.68219" y1="-112.11647" x2="28.68219" y2="-56.97837" gradientUnits="userSpaceOnUse" id="color-59"><stop offset="0" stop-color="#5276bd"/><stop offset="1" stop-color="#69d9ff"/></linearGradient><linearGradient x1="28.68219" y1="-112.11647" x2="28.68219" y2="-56.97837" gradientUnits="userSpaceOnUse" id="color-60"><stop offset="0" stop-color="#182f3a"/><stop offset="1" stop-color="#2e596d"/></linearGradient><linearGradient x1="-70.89336" y1="-193.83906" x2="-70.89336" y2="-135.39861" gradientUnits="userSpaceOnUse" id="color-61"><stop offset="0" stop-color="#5276bd"/><stop offset="1" stop-color="#69d9ff"/></linearGradient><linearGradient x1="28.20584" y1="-112.22232" x2="28.20584" y2="-57.08422" gradientUnits="userSpaceOnUse" id="color-62"><stop offset="0" stop-color="#5276bd"/><stop offset="1" stop-color="#69d9ff"/></linearGradient><linearGradient x1="570.55268" y1="-183.89443" x2="570.55268" y2="-129.70161" gradientUnits="userSpaceOnUse" id="color-63"><stop offset="0" stop-color="#000000"/><stop offset="1" stop-color="#18303b"/></linearGradient><linearGradient x1="570.55269" y1="-183.89445" x2="570.55269" y2="-129.70165" gradientUnits="userSpaceOnUse" id="color-64"><stop offset="0" stop-color="#000000"/><stop offset="1" stop-color="#182f3a"/></linearGradient><linearGradient x1="191.05814" y1="-182.10163" x2="191.05814" y2="-127.81178" gradientUnits="userSpaceOnUse" id="color-65"><stop offset="0" stop-color="#000000"/><stop offset="1" stop-color="#18303b"/></linearGradient><linearGradient x1="191.05815" y1="-182.10163" x2="191.05815" y2="-127.81177" gradientUnits="userSpaceOnUse" id="color-66"><stop offset="0" stop-color="#000000"/><stop offset="1" stop-color="#182f3a"/></linearGradient><linearGradient x1="241.66968" y1="-182.2191" x2="241.66968" y2="-127.25512" gradientUnits="userSpaceOnUse" id="color-67"><stop offset="0" stop-color="#000000"/><stop offset="1" stop-color="#18303b"/></linearGradient><linearGradient x1="241.66967" y1="-182.2191" x2="241.66967" y2="-127.25512" gradientUnits="userSpaceOnUse" id="color-68"><stop offset="0" stop-color="#000000"/><stop offset="1" stop-color="#182f3a"/></linearGradient><linearGradient x1="291.78646" y1="-181.74878" x2="291.78646" y2="-126.79556" gradientUnits="userSpaceOnUse" id="color-69"><stop offset="0" stop-color="#000000"/><stop offset="1" stop-color="#18303b"/></linearGradient><linearGradient x1="291.78644" y1="-181.74878" x2="291.78644" y2="-126.79556" gradientUnits="userSpaceOnUse" id="color-70"><stop offset="0" stop-color="#000000"/><stop offset="1" stop-color="#182f3a"/></linearGradient><linearGradient x1="345.31058" y1="-181.67614" x2="345.31058" y2="-129.46271" gradientUnits="userSpaceOnUse" id="color-71"><stop offset="0" stop-color="#000000"/><stop offset="1" stop-color="#18303b"/></linearGradient><linearGradient x1="345.3106" y1="-181.67614" x2="345.3106" y2="-129.46271" gradientUnits="userSpaceOnUse" id="color-72"><stop offset="0" stop-color="#000000"/><stop offset="1" stop-color="#182f3a"/></linearGradient><linearGradient x1="397.57217" y1="-181.90797" x2="397.57217" y2="-126.44889" gradientUnits="userSpaceOnUse" id="color-73"><stop offset="0" stop-color="#000000"/><stop offset="1" stop-color="#18303b"/></linearGradient><linearGradient x1="397.57215" y1="-181.90797" x2="397.57215" y2="-126.44889" gradientUnits="userSpaceOnUse" id="color-74"><stop offset="0" stop-color="#000000"/><stop offset="1" stop-color="#182f3a"/></linearGradient><linearGradient x1="509.80592" y1="-182.83004" x2="509.80592" y2="-126.2118" gradientUnits="userSpaceOnUse" id="color-75"><stop offset="0" stop-color="#000000"/><stop offset="1" stop-color="#18303b"/></linearGradient><linearGradient x1="509.80591" y1="-182.83004" x2="509.80591" y2="-126.21178" gradientUnits="userSpaceOnUse" id="color-76"><stop offset="0" stop-color="#000000"/><stop offset="1" stop-color="#182f3a"/></linearGradient><linearGradient x1="451.47987" y1="-181.67614" x2="451.47987" y2="-129.46271" gradientUnits="userSpaceOnUse" id="color-77"><stop offset="0" stop-color="#000000"/><stop offset="1" stop-color="#18303b"/></linearGradient><linearGradient x1="451.47987" y1="-181.67614" x2="451.47987" y2="-129.46271" gradientUnits="userSpaceOnUse" id="color-78"><stop offset="0" stop-color="#000000"/><stop offset="1" stop-color="#182f3a"/></linearGradient><linearGradient x1="570.55268" y1="-183.73068" x2="570.55268" y2="-129.53786" gradientUnits="userSpaceOnUse" id="color-79"><stop offset="0" stop-color="#537dc2"/><stop offset="1" stop-color="#68d6fd"/></linearGradient><linearGradient x1="570.55269" y1="-183.7307" x2="570.55269" y2="-129.5379" gradientUnits="userSpaceOnUse" id="color-80"><stop offset="0" stop-color="#000000"/><stop offset="1" stop-color="#182f3a"/></linearGradient><linearGradient x1="191.05814" y1="-181.93787" x2="191.05814" y2="-127.64803" gradientUnits="userSpaceOnUse" id="color-81"><stop offset="0" stop-color="#537dc2"/><stop offset="1" stop-color="#68d6fd"/></linearGradient><linearGradient x1="191.05815" y1="-181.93787" x2="191.05815" y2="-127.64801" gradientUnits="userSpaceOnUse" id="color-82"><stop offset="0" stop-color="#000000"/><stop offset="1" stop-color="#182f3a"/></linearGradient><linearGradient x1="241.66968" y1="-182.05535" x2="241.66968" y2="-127.09137" gradientUnits="userSpaceOnUse" id="color-83"><stop offset="0" stop-color="#537dc2"/><stop offset="1" stop-color="#68d6fd"/></linearGradient><linearGradient x1="241.66967" y1="-182.05535" x2="241.66967" y2="-127.09137" gradientUnits="userSpaceOnUse" id="color-84"><stop offset="0" stop-color="#000000"/><stop offset="1" stop-color="#182f3a"/></linearGradient><linearGradient x1="291.78646" y1="-181.58502" x2="291.78646" y2="-126.63181" gradientUnits="userSpaceOnUse" id="color-85"><stop offset="0" stop-color="#537dc2"/><stop offset="1" stop-color="#68d6fd"/></linearGradient><linearGradient x1="291.78644" y1="-181.58502" x2="291.78644" y2="-126.63181" gradientUnits="userSpaceOnUse" id="color-86"><stop offset="0" stop-color="#000000"/><stop offset="1" stop-color="#182f3a"/></linearGradient><linearGradient x1="345.31058" y1="-181.51239" x2="345.31058" y2="-129.29895" gradientUnits="userSpaceOnUse" id="color-87"><stop offset="0" stop-color="#537dc2"/><stop offset="1" stop-color="#68d6fd"/></linearGradient><linearGradient x1="345.3106" y1="-181.51239" x2="345.3106" y2="-129.29895" gradientUnits="userSpaceOnUse" id="color-88"><stop offset="0" stop-color="#000000"/><stop offset="1" stop-color="#182f3a"/></linearGradient><linearGradient x1="397.57217" y1="-181.74422" x2="397.57217" y2="-126.28514" gradientUnits="userSpaceOnUse" id="color-89"><stop offset="0" stop-color="#537dc2"/><stop offset="1" stop-color="#68d6fd"/></linearGradient><linearGradient x1="397.57215" y1="-181.74422" x2="397.57215" y2="-126.28514" gradientUnits="userSpaceOnUse" id="color-90"><stop offset="0" stop-color="#000000"/><stop offset="1" stop-color="#182f3a"/></linearGradient><linearGradient x1="509.80592" y1="-182.66628" x2="509.80592" y2="-126.04805" gradientUnits="userSpaceOnUse" id="color-91"><stop offset="0" stop-color="#537dc2"/><stop offset="1" stop-color="#68d6fd"/></linearGradient><linearGradient x1="509.80591" y1="-182.66628" x2="509.80591" y2="-126.04803" gradientUnits="userSpaceOnUse" id="color-92"><stop offset="0" stop-color="#000000"/><stop offset="1" stop-color="#182f3a"/></linearGradient><linearGradient x1="451.47987" y1="-181.51239" x2="451.47987" y2="-129.29895" gradientUnits="userSpaceOnUse" id="color-93"><stop offset="0" stop-color="#537dc2"/><stop offset="1" stop-color="#68d6fd"/></linearGradient><linearGradient x1="451.47987" y1="-181.51239" x2="451.47987" y2="-129.29895" gradientUnits="userSpaceOnUse" id="color-94"><stop offset="0" stop-color="#000000"/><stop offset="1" stop-color="#182f3a"/></linearGradient><linearGradient x1="295.36616" y1="-113.59996" x2="295.36616" y2="-62.03379" gradientUnits="userSpaceOnUse" id="color-95"><stop offset="0" stop-color="#172f39"/><stop offset="1" stop-color="#2e596d"/></linearGradient><linearGradient x1="295.36615" y1="-113.59996" x2="295.36615" y2="-62.03378" gradientUnits="userSpaceOnUse" id="color-96"><stop offset="0" stop-color="#000000"/><stop offset="1" stop-color="#182f3a"/></linearGradient><linearGradient x1="463.8175" y1="-114.32497" x2="463.8175" y2="-59.32366" gradientUnits="userSpaceOnUse" id="color-97"><stop offset="0" stop-color="#172f39"/><stop offset="1" stop-color="#2e596d"/></linearGradient><linearGradient x1="463.8175" y1="-114.32494" x2="463.8175" y2="-59.32365" gradientUnits="userSpaceOnUse" id="color-98"><stop offset="0" stop-color="#000000"/><stop offset="1" stop-color="#182f3a"/></linearGradient><linearGradient x1="349.49645" y1="-113.57485" x2="349.49645" y2="-61.2146" gradientUnits="userSpaceOnUse" id="color-99"><stop offset="0" stop-color="#172f39"/><stop offset="1" stop-color="#2e596d"/></linearGradient><linearGradient x1="349.49643" y1="-113.57485" x2="349.49643" y2="-61.2146" gradientUnits="userSpaceOnUse" id="color-100"><stop offset="0" stop-color="#000000"/><stop offset="1" stop-color="#182f3a"/></linearGradient><linearGradient x1="402.31771" y1="-113.23093" x2="402.31771" y2="-61.01752" gradientUnits="userSpaceOnUse" id="color-101"><stop offset="0" stop-color="#172f39"/><stop offset="1" stop-color="#2e596d"/></linearGradient><linearGradient x1="402.31773" y1="-113.23095" x2="402.31773" y2="-61.01752" gradientUnits="userSpaceOnUse" id="color-102"><stop offset="0" stop-color="#000000"/><stop offset="1" stop-color="#182f3a"/></linearGradient><linearGradient x1="295.36616" y1="-114.20927" x2="295.36616" y2="-62.64311" gradientUnits="userSpaceOnUse" id="color-103"><stop offset="0" stop-color="#537dc2"/><stop offset="1" stop-color="#68d6fd"/></linearGradient><linearGradient x1="295.36615" y1="-114.20927" x2="295.36615" y2="-62.64309" gradientUnits="userSpaceOnUse" id="color-104"><stop offset="0" stop-color="#000000"/><stop offset="1" stop-color="#182f3a"/></linearGradient><linearGradient x1="463.8175" y1="-114.93428" x2="463.8175" y2="-59.93298" gradientUnits="userSpaceOnUse" id="color-105"><stop offset="0" stop-color="#537dc2"/><stop offset="1" stop-color="#68d6fd"/></linearGradient><linearGradient x1="463.8175" y1="-114.93424" x2="463.8175" y2="-59.93296" gradientUnits="userSpaceOnUse" id="color-106"><stop offset="0" stop-color="#000000"/><stop offset="1" stop-color="#182f3a"/></linearGradient><linearGradient x1="349.49645" y1="-114.18416" x2="349.49645" y2="-61.82391" gradientUnits="userSpaceOnUse" id="color-107"><stop offset="0" stop-color="#537dc2"/><stop offset="1" stop-color="#68d6fd"/></linearGradient><linearGradient x1="349.49643" y1="-114.18416" x2="349.49643" y2="-61.82391" gradientUnits="userSpaceOnUse" id="color-108"><stop offset="0" stop-color="#000000"/><stop offset="1" stop-color="#182f3a"/></linearGradient><linearGradient x1="402.31771" y1="-113.84025" x2="402.31771" y2="-61.62683" gradientUnits="userSpaceOnUse" id="color-109"><stop offset="0" stop-color="#537dc2"/><stop offset="1" stop-color="#68d6fd"/></linearGradient><linearGradient x1="402.31773" y1="-113.84026" x2="402.31773" y2="-61.62683" gradientUnits="userSpaceOnUse" id="color-110"><stop offset="0" stop-color="#000000"/><stop offset="1" stop-color="#182f3a"/></linearGradient><linearGradient x1="14.43285" y1="45.65447" x2="14.43285" y2="104.09491" gradientUnits="userSpaceOnUse" id="color-111"><stop offset="0" stop-color="#5276bd"/><stop offset="1" stop-color="#69d9ff"/></linearGradient><linearGradient x1="14.43285" y1="45.65447" x2="14.43285" y2="104.09491" gradientUnits="userSpaceOnUse" id="color-112"><stop offset="0" stop-color="#000000"/><stop offset="1" stop-color="#182f3a"/></linearGradient><linearGradient x1="113.53205" y1="127.27121" x2="113.53205" y2="182.40931" gradientUnits="userSpaceOnUse" id="color-113"><stop offset="0" stop-color="#5276bd"/><stop offset="1" stop-color="#69d9ff"/></linearGradient><linearGradient x1="113.53205" y1="127.27121" x2="113.53205" y2="182.40931" gradientUnits="userSpaceOnUse" id="color-114"><stop offset="0" stop-color="#182f3a"/><stop offset="1" stop-color="#2e596d"/></linearGradient><linearGradient x1="13.9565" y1="45.54862" x2="13.9565" y2="103.98907" gradientUnits="userSpaceOnUse" id="color-115"><stop offset="0" stop-color="#5276bd"/><stop offset="1" stop-color="#69d9ff"/></linearGradient><linearGradient x1="113.0557" y1="127.16536" x2="113.0557" y2="182.30346" gradientUnits="userSpaceOnUse" id="color-116"><stop offset="0" stop-color="#5276bd"/><stop offset="1" stop-color="#69d9ff"/></linearGradient></defs><g transform="translate(77.5861,226.85949)"><g data-paper-data="{&quot;isPaintingLayer&quot;:true}" fill-rule="nonzero" stroke-linecap="butt" stroke-linejoin="miter" stroke-miterlimit="10" stroke-dasharray="" stroke-dashoffset="0" style="mix-blend-mode: normal"><g><g stroke-width="8.5"><path d="M308.69364,247.78014l-5.67021,14.39368l7.9087,8.99566l-10.31166,17.42804l-36.55931,2.42428l-8.93486,-48.83106l33.73571,-7.65297zM277.44511,261.01629l10.66656,-2.64738l0.74532,-5.68507l-12.46293,-3.07593zM279.50533,278.6313l10.00104,-1.5873l0.47263,-7.06321l-11.4411,0.01296z" fill="url(#color-1)" stroke="url(#color-2)"/><path d="M242.01524,244.97856l-3.64068,30.78135l11.02555,-1.66325l1.35278,-24.23182l20.17717,3.01605l-4.57581,26.62689l-9.67277,10.60419l-27.66551,-0.10348l-11.43952,-9.5656l1.97373,-38.16991z" fill="url(#color-3)" stroke="url(#color-4)"/><path d="M190.2613,237.36848l2.2879,19.65971l12.27485,0.41395l-1.55976,-18.72088l20.59112,-0.62465l-0.51746,51.27269l-15.39437,0.41396l-1.66327,-18.71719l-11.54669,2.49857l1.97743,15.70485l-15.70485,3.01235l-11.43952,-51.58315z" fill="url(#color-5)" stroke="url(#color-6)"/></g><g><g stroke-width="8.5"><path d="M409.24581,205.30194l-1.32802,12.11219l-13.39726,-0.3441l-0.12672,25.84764l-15.84862,-1.95701l3.48727,-23.92159l-13.84197,-0.57586l1.20881,-16.1374z" fill="url(#color-7)" stroke="url(#color-8)"/><path d="M351.80766,200.3003l11.6448,20.55563l0.61335,-19.31025l15.69145,0.2457l-3.87786,37.39199l-12.21564,2.25147l-10.77182,-16.6528l-0.62867,15.57354l-13.06996,0.49741l-2.13205,-37.60479z" fill="url(#color-9)" stroke="url(#color-10)"/><path d="M277.28394,209.32118l-3.33151,14.64798l-8.06915,6.05116l-10.70181,-0.70166l-0.087,11.22665l-12.98082,0.61465l-2.98348,-39.02945l23.59562,-3.24451zM255.0945,221.16247l6.57881,-0.78867l1.66435,-7.80534l-8.59399,-2.36882z" fill="url(#color-11)" stroke="url(#color-12)"/><path d="M288.68887,203.32269l3.79647,11.2778l6.6063,-10.36917l9.85054,0.93586l6.85789,38.01357l-15.49182,1.71138l-1.1132,-19.31494l-7.63226,7.17416l-6.21709,-9.0227l-5.05156,19.38306l-14.99907,-5.90014l12.70135,-34.23241z" fill="url(#color-13)" stroke="url(#color-14)"/><path d="M342.595,203.24816l0.4177,11.57812l-15.43285,-0.47373l-0.08091,3.83365l11.51667,-1.37733l0.17795,8.79568l-10.47841,0.97203l1.35788,3.73874l14.11058,-4.16649l3.75593,10.23256l-27.59707,5.11372l-7.2326,-12.99531l0.10573,-22.2424z" fill="url(#color-15)" stroke="url(#color-16)"/><path d="M236.291,202.48743l10.61199,10.78881l-2.192,19.2088l-17.10379,7.4545l-17.36482,-6.84265l-3.77216,-19.03199l12.80681,-13.94631zM220.6804,215.90611l0.61185,8.94764l7.10647,2.54284l6.31499,-6.05116l-4.38681,-8.33298z" fill="url(#color-17)" stroke="url(#color-18)"/><path d="M204.4432,200.5498l2.83806,26.70387l17.37021,-6.90021l0.95148,16.48501l-28.15443,5.19151l-9.17038,-37.86078z" fill="url(#color-19)" stroke="url(#color-20)"/><path d="M195.30877,206.4543l-1.29511,11.51305l-15.19405,-2.74553l-0.64565,3.77976l11.59385,0.33693l-1.12171,8.72569l-10.50716,-0.58462l0.7914,3.89817l14.57088,-2.03901l2.2051,10.67473l-28.04954,0.98604l-5.23609,-13.92018l3.38626,-21.98338z" fill="url(#color-21)" stroke="url(#color-22)"/><path d="M148.62188,201.5193l1.57417,26.52723l9.48843,-20.05689l14.64571,7.14407l-19.65711,29.10156l-15.93869,-3.41126l-8.17963,-35.43671z" fill="url(#color-23)" stroke="url(#color-24)"/><path d="M112.12645,215.15688l-1.40333,18.85797l-10.00014,10.87582l-23.76964,1.40333l-5.70033,-37.53912l20.96297,-4.82466zM89.14546,235.50519l7.28047,-2.62984l1.92819,-10.96282l-10.78601,-3.85917z" fill="url(#color-25)" stroke="url(#color-26)"/><path d="M135.28008,206.63326l0.3679,11.57981l-15.43067,-0.54012l-0.0974,3.83327l11.52249,-1.32776l0.1401,8.79638l-10.48251,0.92694l1.34179,3.74456l14.12837,-4.10575l3.71188,10.24863l-27.61882,4.99496l-7.17663,-13.0263l0.20142,-22.24174z" fill="url(#color-27)" stroke="url(#color-28)"/></g><g stroke-width="1.5"><path d="M408.74699,205.80075l-1.32802,12.11219l-13.39725,-0.3441l-0.12673,25.84764l-15.84862,-1.95701l3.48726,-23.92159l-13.84197,-0.57586l1.20881,-16.1374z" fill="url(#color-29)" stroke="url(#color-30)"/><path d="M351.30884,200.79912l11.6448,20.55563l0.61335,-19.31025l15.69145,0.2457l-3.87786,37.39199l-12.21564,2.25147l-10.77182,-16.6528l-0.62867,15.57354l-13.06996,0.49741l-2.13205,-37.60479z" fill="url(#color-31)" stroke="url(#color-32)"/><path d="M276.78513,209.82l-3.33151,14.64798l-8.06915,6.05116l-10.70181,-0.70166l-0.087,11.22665l-12.98082,0.61465l-2.98348,-39.02945l23.59562,-3.24451zM254.59568,221.66129l6.57881,-0.78867l1.66435,-7.80534l-8.59399,-2.36882z" fill="url(#color-33)" stroke="url(#color-34)"/><path d="M288.19006,203.8215l3.79647,11.2778l6.6063,-10.36917l9.85054,0.93586l6.85789,38.01357l-15.49182,1.71138l-1.1132,-19.31494l-7.63226,7.17416l-6.21709,-9.0227l-5.05157,19.38306l-14.99907,-5.90014l12.70135,-34.23241z" fill="url(#color-35)" stroke="url(#color-36)"/><path d="M342.09618,203.74698l0.4177,11.57812l-15.43284,-0.47373l-0.08091,3.83365l11.51667,-1.37733l0.17795,8.79568l-10.47841,0.97203l1.35787,3.73874l14.11058,-4.16649l3.75593,10.23256l-27.59707,5.11372l-7.2326,-12.99531l0.10573,-22.2424z" fill="url(#color-37)" stroke="url(#color-38)"/><path d="M235.79219,202.98624l10.612,10.78881l-2.192,19.2088l-17.10379,7.4545l-17.36482,-6.84265l-3.77216,-19.03199l12.80681,-13.94631zM220.18158,216.40493l0.61185,8.94764l7.10647,2.54284l6.315,-6.05116l-4.38682,-8.33298z" fill="url(#color-39)" stroke="url(#color-40)"/><path d="M203.94438,201.04861l2.83806,26.70387l17.37021,-6.90021l0.95148,16.48501l-28.15443,5.19151l-9.17038,-37.86078z" fill="url(#color-41)" stroke="url(#color-42)"/><path d="M194.80996,206.95312l-1.29511,11.51305l-15.19405,-2.74553l-0.64565,3.77976l11.59385,0.33693l-1.12171,8.72569l-10.50716,-0.58462l0.7914,3.89817l14.57088,-2.03901l2.2051,10.67473l-28.04954,0.98604l-5.23609,-13.92018l3.38626,-21.98338z" fill="url(#color-43)" stroke="url(#color-44)"/><path d="M148.12307,202.01812l1.57416,26.52723l9.48844,-20.05689l14.6457,7.14407l-19.65711,29.10156l-15.93869,-3.41126l-8.17963,-35.43671z" fill="url(#color-45)" stroke="url(#color-46)"/><path d="M111.62763,215.6557l-1.40333,18.85797l-10.00014,10.87582l-23.76963,1.40333l-5.70034,-37.53912l20.96297,-4.82466zM88.64664,236.004l7.28048,-2.62984l1.92818,-10.96282l-10.78601,-3.85917z" fill="url(#color-47)" stroke="url(#color-48)"/><path d="M134.78126,207.13207l0.3679,11.57981l-15.43067,-0.54012l-0.0974,3.83327l11.52249,-1.32776l0.1401,8.79638l-10.4825,0.92694l1.34179,3.74456l14.12837,-4.10575l3.71188,10.24863l-27.61882,4.99496l-7.17663,-13.0263l0.20142,-22.24174z" fill="url(#color-49)" stroke="url(#color-50)"/></g></g><g stroke-width="1.5"><path d="M308.19482,248.27895l-5.67021,14.39368l7.90871,8.99566l-10.31166,17.42804l-36.55931,2.42428l-8.93486,-48.83106l33.73571,-7.65297zM276.9463,261.51511l10.66655,-2.64738l0.74532,-5.68507l-12.46292,-3.07592zM279.00652,279.13011l10.00104,-1.5873l0.47262,-7.06321l-11.44109,0.01296z" fill="url(#color-51)" stroke="url(#color-52)"/><path d="M241.51643,245.47738l-3.64068,30.78135l11.02555,-1.66325l1.35278,-24.23182l20.17717,3.01605l-4.57581,26.6269l-9.67276,10.60419l-27.66551,-0.10348l-11.43952,-9.5656l1.97373,-38.16991z" fill="url(#color-53)" stroke="url(#color-54)"/><path d="M189.76249,237.8673l2.2879,19.65971l12.27485,0.41396l-1.55976,-18.72088l20.59112,-0.62465l-0.51746,51.27269l-15.39437,0.41396l-1.66327,-18.71719l-11.54669,2.49857l1.97743,15.70485l-15.70485,3.01235l-11.43952,-51.58315z" fill="url(#color-55)" stroke="url(#color-56)"/></g></g><g><path d="M351.67751,-173.87218l13.38228,-15.54182l16.13386,11.7301l-22.57132,22.18972l1.39856,20.20145l-23.41912,-1.27057l3.81172,-22.18972l-18.04191,-25.24046l20.28602,-9.7397zM167.80912,-190.13393c0.21245,5.71764 0.50948,18.54926 0.88897,38.45145h0.25362l25.28375,-8.89192c0,0.21034 0.08458,0.29492 0.29492,0.29492l-0.84557,21.25947c0,0.38161 -13.12864,1.60889 -39.34265,3.72725c-0.59194,-2.96404 -3.38672,-20.58094 -8.34115,-52.85068c2.24412,-0.38161 9.39927,-1.1427 21.55437,-2.28752c0,0.21245 0.08458,0.29703 0.25373,0.29703zM-21.46253,-182.68163c0,0.46608 -2.11625,4.53154 -6.35298,12.23968h-0.29492c-0.3382,0 -5.21017,-2.28752 -14.61167,-6.90375l-4.78528,6.39639c8.08964,3.89409 17.95733,8.85064 29.51826,14.90659c-5.25146,9.3581 -8.97861,15.54182 -11.18156,18.63162l-23.92648,2.11837c-10.92571,-7.36982 -16.68453,-11.17944 -17.31986,-11.43529v-0.29492c0,-0.80439 2.20295,-4.40578 6.6479,-10.88452h0.55065c1.73676,1.05812 7.24196,4.06546 16.4743,9.01989l5.58967,-6.35076c-16.98155,-8.64041 -26.38305,-13.51025 -28.20438,-14.65296v-0.25362c5.37944,-10.50292 8.34338,-15.83896 8.80956,-15.96693c14.01762,-2.83606 21.85151,-4.27568 23.41912,-4.27568c10.16249,5.12348 15.37055,7.70592 15.66768,7.70592zM30.82003,-182.55377c-4.02206,8.2588 -6.05585,12.53459 -6.05585,12.8728h-0.25373c-1.82123,-0.50736 -5.75882,-2.2853 -11.89925,-5.29264l-10.07791,7.0728c0,8.76616 0.50736,13.12643 1.48091,13.12643c0.63523,0.34043 4.86986,2.03379 12.66247,5.08241c3.00733,-2.96404 6.01256,-5.8434 9.10447,-8.59711c0.55065,0.50958 3.09181,4.53164 7.58005,12.1118v0.76322c-0.29481,0 -6.51981,3.38672 -18.71619,10.12131c-15.58522,-5.20817 -23.58816,-8.00516 -24.01317,-8.34338l-7.58016,-25.02789c7.11397,-10.12131 10.75665,-15.16032 10.88452,-15.16032c0.29492,0 6.30959,-2.20295 17.9552,-6.56321c12.61906,4.91103 18.92865,7.53676 18.92865,7.83378zM82.85118,-177.08986v0.25373c-2.33082,9.65512 -3.8963,15.16032 -4.61622,16.55665l-8.93521,5.16689c10.58527,7.66474 15.92131,11.64562 16.00589,11.94265c-3.76844,1.82134 -9.52726,4.44706 -17.36104,7.87719c-9.0633,-12.40883 -13.59483,-18.71842 -13.59483,-19.01545h-0.50736c-0.21255,7.24196 -0.29713,12.23968 -0.29713,14.94998c-0.12787,1.27057 -0.38161,1.90592 -0.80439,1.90592h-12.74705c-0.59406,0 -1.48303,-7.87719 -2.7103,-23.63157c-0.55065,-3.43022 -1.39845,-11.39199 -2.45657,-23.88318c3.26107,-0.71981 13.21322,-2.49998 29.85657,-5.42051c0.63534,0.67641 6.69119,5.12348 18.16765,13.2977zM294.43831,-190.38756c9.8264,5.75882 15.11904,8.76616 15.88225,9.01979v0.50736c-2.54115,2.92287 -7.24185,7.96177 -14.06092,15.11914c13.38228,4.95443 20.87786,7.96177 22.53004,8.97861l-12.45002,15.37066c-8.42784,-7.15516 -13.80506,-11.6868 -16.13599,-13.50814c-5.67424,11.09486 -9.18895,17.61689 -10.58527,19.60738h-0.29703c-10.5442,-3.68386 -16.26174,-5.88679 -17.19411,-6.60662v-0.29703l14.56838,-19.05662c-13.51025,-5.54637 -20.74999,-8.80734 -21.72575,-9.78311c5.97137,-10.11908 9.31692,-15.49852 10.08014,-16.17505c0.08458,0.29492 6.60662,4.78538 19.56399,13.50814c4.61612,-8.46913 7.79261,-14.01762 9.52937,-16.68453zM128.82427,-186.23762c0,0.21034 5.37721,16.3875 16.17716,48.48829c-1.14482,0.42278 -7.62356,1.22718 -19.52281,2.45657c-0.80439,-2.75371 -1.73676,-7.0294 -2.7536,-12.83162c-10.16249,0.93237 -15.2449,1.73676 -15.2449,2.45657l-2.7536,9.78088h-0.29492c-11.98605,-2.20072 -17.9985,-3.5147 -17.9985,-3.98078c9.57054,-29.93903 15.07574,-46.70814 16.47419,-50.35081c15.66768,2.24412 24.30597,3.59928 25.91697,3.98088zM237.79313,-186.23762c0,0.21034 5.37944,16.3875 16.17716,48.48829c-1.1426,0.42278 -7.62134,1.22718 -19.52058,2.45657c-0.80651,-2.75371 -1.73676,-7.0294 -2.7536,-12.83162c-10.16471,0.93237 -15.2449,1.73676 -15.2449,2.45657l-2.7536,9.78088h-0.29713c-11.98383,-2.20072 -17.99627,-3.5147 -17.99627,-3.98078c9.57054,-29.93903 15.07574,-46.70814 16.47208,-50.35081c15.6698,2.24412 24.30808,3.59928 25.91687,3.98088zM52.9946,-178.19127c0,1.73454 0.08458,7.87719 0.29703,18.46246h0.25362c6.90375,-1.60879 10.33387,-2.71021 10.33387,-3.26097l2.41327,-10.84123l-13.2978,-4.614zM112.98531,-172.81406c-0.42278,2.07496 -1.05812,6.01467 -1.86252,11.89925h9.18895l-3.38894,-13.42356c-2.62573,0 -3.93748,0.50736 -3.93748,1.52431zM221.9564,-172.81406c-0.425,2.07496 -1.05812,6.01467 -1.86473,11.89925h9.19116l-3.38894,-13.42356c-2.62573,0 -3.93748,0.50736 -3.93748,1.52431z" data-paper-data="{&quot;origPos&quot;:null}" fill="url(#color-57)" stroke="url(#color-58)" stroke-width="14.33816"/><path d="M229.78588,-110.59227c3.09191,8.2588 4.95443,13.55143 5.63306,15.83896h0.25373c0.71981,-1.5676 3.55799,-5.92798 8.42784,-13.04195h0.25373c7.66474,0.46407 11.47646,1.01473 11.47646,1.56549l6.90152,47.21983c0,0.29481 -6.05595,0.97354 -18.12426,2.03157l-0.25373,-0.50736c-0.67864,-14.35582 -1.01695,-23.12198 -1.01695,-26.29847h-0.25362l-10.45962,9.18895h-0.25362c-0.34043,-0.16905 -2.7103,-3.8963 -7.15738,-11.22273h-0.25362c-5.46402,15.88013 -8.42795,24.30808 -8.93743,25.28163h-0.50747c-9.7397,-4.40367 -15.28819,-7.0294 -16.59995,-7.91847v-0.25362c12.06841,-28.41684 18.37799,-42.85735 18.88746,-43.408c8.00294,0.55065 11.98383,1.06025 11.98383,1.52421zM88.43651,-111.52242c-0.71981,10.79783 -1.27057,16.17716 -1.65218,16.17716h-0.25362c-11.64562,-0.93226 -18.16765,-1.48303 -19.48164,-1.65218v37.56249c0,0.67864 -2.66691,1.14482 -7.95954,1.35515c0,0.21245 -3.00733,0.55076 -9.022,1.10142l-0.29492,-0.55065c1.31176,-22.40228 2.11614,-35.65668 2.49775,-39.72204c-4.44697,0.71981 -11.05357,1.60879 -19.73526,2.71021c-2.58233,-9.61395 -3.85291,-14.52498 -3.85291,-14.78083c0,-0.37938 19.81984,-1.27057 59.50069,-2.75149zM139.11028,-106.52681l-4.06536,14.8654c-13.21322,-3.5147 -20.32721,-5.46391 -21.30075,-5.8434c0,0.25373 -1.43973,3.47141 -4.36249,9.61184h0.29703c5.88458,-0.38161 12.32203,-0.93025 19.22578,-1.73676l0.29481,0.59406c-1.1426,6.56321 -2.03157,11.01029 -2.6235,13.38238l-16.30514,-2.3287c0.16916,3.21767 0.25362,5.63085 0.25362,7.28303v1.48091l0.29713,0.59416c3.59928,-0.38161 10.92571,-0.97354 21.89481,-1.77794c0.37938,1.73454 1.05812,6.14043 2.03168,13.12643c-0.21255,0 -0.29713,0.08458 -0.29713,0.29703c-25.61984,-1.35505 -38.62051,-2.24412 -39.0434,-2.62573l-6.14043,-17.48892c4.6574,-21.72575 7.28313,-33.37127 7.87508,-34.98016c27.99194,3.30225 41.96827,5.16689 41.96827,5.54637zM181.73781,-107.92313c0,0.21245 5.37721,16.38972 16.17716,48.48819c-1.1426,0.425 -7.62346,1.2294 -19.52271,2.45657c-0.8045,-2.7536 -1.73676,-7.0294 -2.75371,-12.83151c-10.16249,0.93226 -15.2449,1.73665 -15.2449,2.45657l-2.75149,9.78311h-0.29703c-11.98383,-2.20295 -17.9985,-3.51692 -17.9985,-3.98088c9.57054,-29.94115 15.07574,-46.71036 16.4743,-50.35293c15.66758,2.24412 24.30797,3.59928 25.91687,3.98088zM165.89887,-94.49956c-0.42278,2.07496 -1.05812,6.01467 -1.86252,11.90137h9.18895l-3.38672,-13.42567c-2.62573,0 -3.93971,0.50958 -3.93971,1.52431z" data-paper-data="{&quot;origPos&quot;:null}" fill="url(#color-59)" stroke="url(#color-60)" stroke-width="14.33816"/><g data-paper-data="{&quot;origPos&quot;:null}" stroke="none" stroke-width="2.04831"><path d="M351.20118,-173.97804l13.38228,-15.54182l16.13386,11.7301l-22.57132,22.18972l1.39856,20.20145l-23.41912,-1.27057l3.81172,-22.18972l-18.04191,-25.24046l20.28602,-9.7397zM167.33278,-190.23979c0.21245,5.71764 0.50948,18.54926 0.88897,38.45145h0.25362l25.28375,-8.89192c0,0.21034 0.08458,0.29492 0.29492,0.29492l-0.84557,21.25947c0,0.38161 -13.12864,1.60889 -39.34265,3.72725c-0.59194,-2.96404 -3.38672,-20.58094 -8.34115,-52.85068c2.24412,-0.38161 9.39927,-1.1427 21.55437,-2.28752c0,0.21245 0.08458,0.29703 0.25373,0.29703zM-21.93888,-182.78749c0,0.46608 -2.11625,4.53154 -6.35298,12.23968h-0.29492c-0.3382,0 -5.21017,-2.28752 -14.61167,-6.90375l-4.78528,6.39639c8.08964,3.89409 17.95733,8.85064 29.51826,14.90659c-5.25146,9.3581 -8.97861,15.54182 -11.18156,18.63162l-23.92648,2.11837c-10.92571,-7.36982 -16.68453,-11.17944 -17.31986,-11.43529v-0.29492c0,-0.80439 2.20295,-4.40578 6.6479,-10.88452h0.55065c1.73676,1.05812 7.24196,4.06546 16.4743,9.01989l5.58967,-6.35076c-16.98155,-8.64041 -26.38305,-13.51025 -28.20438,-14.65296v-0.25362c5.37944,-10.50292 8.34338,-15.83896 8.80956,-15.96693c14.01762,-2.83606 21.85151,-4.27568 23.41912,-4.27568c10.16249,5.12348 15.37055,7.70592 15.66768,7.70592zM30.34369,-182.65962c-4.02206,8.2588 -6.05585,12.53459 -6.05585,12.8728h-0.25373c-1.82123,-0.50736 -5.75882,-2.2853 -11.89925,-5.29264l-10.07791,7.0728c0,8.76616 0.50736,13.12643 1.48091,13.12643c0.63523,0.34043 4.86986,2.03379 12.66247,5.08241c3.00733,-2.96404 6.01256,-5.8434 9.10447,-8.59711c0.55065,0.50958 3.09181,4.53164 7.58005,12.1118v0.76322c-0.29481,0 -6.51981,3.38672 -18.71619,10.12131c-15.58522,-5.20817 -23.58816,-8.00516 -24.01317,-8.34338l-7.58016,-25.02789c7.11397,-10.12131 10.75665,-15.16032 10.88452,-15.16032c0.29492,0 6.30959,-2.20295 17.9552,-6.56321c12.61906,4.91103 18.92865,7.53676 18.92865,7.83378zM82.37484,-177.1957v0.25373c-2.33082,9.65512 -3.8963,15.16032 -4.61622,16.55665l-8.93521,5.16689c10.58527,7.66474 15.92131,11.64562 16.00589,11.94265c-3.76844,1.82134 -9.52726,4.44706 -17.36104,7.87719c-9.0633,-12.40883 -13.59483,-18.71842 -13.59483,-19.01545h-0.50736c-0.21255,7.24196 -0.29713,12.23968 -0.29713,14.94998c-0.12787,1.27057 -0.38161,1.90592 -0.80439,1.90592h-12.74705c-0.59406,0 -1.48303,-7.87719 -2.7103,-23.63157c-0.55065,-3.43022 -1.39845,-11.39199 -2.45657,-23.88318c3.26107,-0.71981 13.21322,-2.49998 29.85657,-5.42051c0.63534,0.67641 6.69119,5.12348 18.16765,13.2977zM293.96196,-190.4934c9.8264,5.75882 15.11904,8.76616 15.88225,9.01979v0.50736c-2.54115,2.92287 -7.24185,7.96177 -14.06092,15.11914c13.38228,4.95443 20.87786,7.96177 22.53004,8.97861l-12.45002,15.37066c-8.42784,-7.15516 -13.80506,-11.6868 -16.13599,-13.50814c-5.67424,11.09486 -9.18895,17.61689 -10.58527,19.60738h-0.29703c-10.5442,-3.68386 -16.26174,-5.88679 -17.19411,-6.60662v-0.29703l14.56838,-19.05662c-13.51025,-5.54637 -20.74999,-8.80734 -21.72575,-9.78311c5.97137,-10.11908 9.31692,-15.49852 10.08014,-16.17505c0.08458,0.29492 6.60662,4.78538 19.56399,13.50814c4.61612,-8.46913 7.79261,-14.01762 9.52937,-16.68453zM128.34792,-186.34348c0,0.21034 5.37721,16.3875 16.17716,48.48829c-1.14482,0.42278 -7.62356,1.22718 -19.52281,2.45657c-0.80439,-2.75371 -1.73676,-7.0294 -2.7536,-12.83162c-10.16249,0.93237 -15.2449,1.73676 -15.2449,2.45657l-2.7536,9.78088h-0.29492c-11.98605,-2.20072 -17.9985,-3.5147 -17.9985,-3.98078c9.57054,-29.93903 15.07574,-46.70814 16.47419,-50.35081c15.66768,2.24412 24.30597,3.59928 25.91697,3.98088zM237.31679,-186.34348c0,0.21034 5.37944,16.3875 16.17716,48.48829c-1.1426,0.42278 -7.62134,1.22718 -19.52058,2.45657c-0.80651,-2.75371 -1.73676,-7.0294 -2.7536,-12.83162c-10.16471,0.93237 -15.2449,1.73676 -15.2449,2.45657l-2.7536,9.78088h-0.29713c-11.98383,-2.20072 -17.99627,-3.5147 -17.99627,-3.98078c9.57054,-29.93903 15.07574,-46.70814 16.47208,-50.35081c15.6698,2.24412 24.30808,3.59928 25.91687,3.98088zM52.51826,-178.29713c0,1.73454 0.08458,7.87719 0.29703,18.46246h0.25362c6.90375,-1.60879 10.33387,-2.71021 10.33387,-3.26097l2.41327,-10.84123l-13.2978,-4.614zM112.50897,-172.91991c-0.42278,2.07496 -1.05812,6.01467 -1.86252,11.89925h9.18895l-3.38894,-13.42356c-2.62573,0 -3.93748,0.50736 -3.93748,1.52431zM221.48006,-172.91991c-0.425,2.07496 -1.05812,6.01467 -1.86473,11.89925h9.19116l-3.38894,-13.42356c-2.62573,0 -3.93748,0.50736 -3.93748,1.52431z" fill="url(#color-61)"/><path d="M229.30951,-110.69811c3.09191,8.2588 4.95443,13.55143 5.63306,15.83896h0.25373c0.71981,-1.5676 3.55799,-5.92798 8.42784,-13.04195h0.25373c7.66474,0.46407 11.47646,1.01473 11.47646,1.56549l6.90152,47.21983c0,0.29481 -6.05595,0.97354 -18.12426,2.03157l-0.25373,-0.50736c-0.67864,-14.35582 -1.01695,-23.12198 -1.01695,-26.29847h-0.25362l-10.45962,9.18895h-0.25362c-0.34043,-0.16905 -2.7103,-3.8963 -7.15738,-11.22273h-0.25362c-5.46402,15.88013 -8.42795,24.30808 -8.93743,25.28163h-0.50747c-9.7397,-4.40367 -15.28819,-7.0294 -16.59995,-7.91847v-0.25362c12.06841,-28.41684 18.37799,-42.85735 18.88746,-43.408c8.00294,0.55065 11.98383,1.06025 11.98383,1.52421zM87.96017,-111.62826c-0.71981,10.79783 -1.27057,16.17716 -1.65218,16.17716h-0.25362c-11.64562,-0.93226 -18.16765,-1.48303 -19.48164,-1.65218v37.56249c0,0.67864 -2.66691,1.14482 -7.95954,1.35515c0,0.21245 -3.00733,0.55076 -9.022,1.10142l-0.29492,-0.55065c1.31176,-22.40228 2.11614,-35.65668 2.49775,-39.72204c-4.44697,0.71981 -11.05357,1.60879 -19.73526,2.71021c-2.58233,-9.61395 -3.85291,-14.52498 -3.85291,-14.78083c0,-0.37938 19.81984,-1.27057 59.50069,-2.75149zM138.63393,-106.63265l-4.06536,14.8654c-13.21322,-3.5147 -20.32721,-5.46391 -21.30075,-5.8434c0,0.25373 -1.43973,3.47141 -4.36249,9.61184h0.29703c5.88458,-0.38161 12.32203,-0.93025 19.22578,-1.73676l0.29481,0.59406c-1.1426,6.56321 -2.03157,11.01029 -2.6235,13.38238l-16.30514,-2.3287c0.16916,3.21767 0.25362,5.63085 0.25362,7.28303v1.48091l0.29713,0.59416c3.59928,-0.38161 10.92571,-0.97354 21.89481,-1.77794c0.37938,1.73454 1.05812,6.14043 2.03168,13.12643c-0.21255,0 -0.29713,0.08458 -0.29713,0.29703c-25.61984,-1.35505 -38.62051,-2.24412 -39.0434,-2.62573l-6.14043,-17.48892c4.6574,-21.72575 7.28313,-33.37127 7.87508,-34.98016c27.99194,3.30225 41.96827,5.16689 41.96827,5.54637zM181.26144,-108.02899c0,0.21245 5.37721,16.38972 16.17716,48.48819c-1.1426,0.425 -7.62346,1.2294 -19.52271,2.45657c-0.8045,-2.7536 -1.73676,-7.0294 -2.75371,-12.83151c-10.16249,0.93226 -15.2449,1.73665 -15.2449,2.45657l-2.75149,9.78311h-0.29703c-11.98383,-2.20295 -17.9985,-3.51692 -17.9985,-3.98088c9.57054,-29.94115 15.07574,-46.71036 16.4743,-50.35293c15.66758,2.24412 24.30797,3.59928 25.91687,3.98088zM165.42251,-94.60543c-0.42278,2.07496 -1.05812,6.01467 -1.86252,11.90137h9.18895l-3.38672,-13.42567c-2.62573,0 -3.93971,0.50958 -3.93971,1.52431z" fill="url(#color-62)"/></g></g><g><g><g stroke-width="16"><path d="M540.82603,-176.91643l22.24559,-6.97802l6.87382,22.14137l12.73795,-18.70267l17.59595,10.00709l-23.35947,24.06373l1.41931,16.68328l-20.93045,-1.1139l3.53931,-16.17303z" fill="url(#color-63)" stroke="url(#color-64)"/><path d="M188.52852,-142.26728l3.53931,-5.36107l-26.99221,-13.64702l10.30893,-17.59236l22.94985,-3.2339l15.87482,8.8932l-7.17564,13.55l-14.15727,-9.20221l-3.33449,5.66291l27.70364,13.24457l-9.91007,19.71954l-26.48914,2.42183l-15.97542,-11.42282l7.38047,-12.03007z" fill="url(#color-65)" stroke="url(#color-66)"/><path d="M245.78369,-165.5645l-9.50248,7.1521l0.68595,10.68289l11.46288,4.2098l10.8744,-8.52403l8.23156,14.01172l-19.98692,10.7769l-24.69462,-7.73708l-7.05113,-25.37709l11.85284,-16.45961l18.12751,-5.39019l18.81345,7.83807l-6.56712,14.9902z" fill="url(#color-67)" stroke="url(#color-68)"/><path d="M314.03655,-169.01503l-3.1547,15.55767l-8.05044,5.87764l13.92807,11.9677l-17.62946,8.81647l-12.62231,-18.06471v14.69064l-15.66907,0.76255l-4.0252,-48.53236l29.48921,-3.80934zM286.50772,-154.43582l8.70504,-1.741l1.52514,-8.92094l-10.77336,-3.04676z" fill="url(#color-69)" stroke="url(#color-70)"/><path d="M358.85095,-178.38133l14.03027,46.72079l-19.64005,2.19784l-2.07683,-11.83243l-13.29636,0.85102l-2.19394,10.86038l-17.93409,-4.02872l14.27231,-48.06368zM340.55379,-154.59543l8.41661,1.10088l-3.04888,-12.32432h-2.56479z" fill="url(#color-71)" stroke="url(#color-72)"/><path d="M396.2805,-181.90797l0.53963,36.61426l24.44394,-7.21417l-0.75394,22.5036l-38.8761,3.5554l-7.75378,-52.55045z" fill="url(#color-73)" stroke="url(#color-74)"/><path d="M481.39439,-166.85821l15.7742,-15.06276l12.3355,14.3585l10.1113,-15.26757l16.67969,11.42282l-13.95245,15.46877l15.87481,12.03009l-13.4458,15.06635l-12.93916,-12.63734l-10.2155,15.26756l-15.97182,-12.23489l13.64702,-15.46878z" fill="url(#color-75)" stroke="url(#color-76)"/><path d="M465.02023,-178.38133l14.03027,46.72079l-19.64005,2.19784l-2.07683,-11.83243l-13.29636,0.85102l-2.19393,10.86038l-17.9341,-4.02872l14.27231,-48.06368zM446.72306,-154.59543l8.41661,1.10088l-3.04888,-12.32432h-2.56479z" fill="url(#color-77)" stroke="url(#color-78)"/></g><g stroke-width="0"><path d="M540.82603,-176.75267l22.24559,-6.97803l6.87382,22.14137l12.73795,-18.70267l17.59595,10.0071l-23.35947,24.06373l1.41931,16.68328l-20.93045,-1.11389l3.53931,-16.17304z" fill="url(#color-79)" stroke="url(#color-80)"/><path d="M188.52852,-142.10353l3.53931,-5.36107l-26.99221,-13.64702l10.30893,-17.59235l22.94985,-3.2339l15.87482,8.8932l-7.17564,13.55l-14.15727,-9.20221l-3.33449,5.66291l27.70364,13.24457l-9.91007,19.71954l-26.48914,2.42184l-15.97542,-11.42283l7.38047,-12.03007z" fill="url(#color-81)" stroke="url(#color-82)"/><path d="M245.78369,-165.40075l-9.50248,7.15211l0.68595,10.68289l11.46288,4.2098l10.8744,-8.52404l8.23156,14.01173l-19.98692,10.7769l-24.69462,-7.73709l-7.05113,-25.37709l11.85284,-16.4596l18.12751,-5.39019l18.81345,7.83807l-6.56712,14.9902z" fill="url(#color-83)" stroke="url(#color-84)"/><path d="M314.03655,-168.85128l-3.1547,15.55767l-8.05044,5.87763l13.92807,11.9677l-17.62946,8.81647l-12.62231,-18.06471v14.69064l-15.66907,0.76256l-4.0252,-48.53236l29.48921,-3.80934zM286.50772,-154.27207l8.70504,-1.741l1.52514,-8.92094l-10.77336,-3.04676z" fill="url(#color-85)" stroke="url(#color-86)"/><path d="M358.85095,-178.21758l14.03027,46.72078l-19.64005,2.19785l-2.07683,-11.83244l-13.29636,0.85102l-2.19394,10.86038l-17.93409,-4.02873l14.27231,-48.06368zM340.55379,-154.43168l8.41661,1.10088l-3.04888,-12.32432h-2.56479z" fill="url(#color-87)" stroke="url(#color-88)"/><path d="M396.2805,-181.74422l0.53963,36.61426l24.44394,-7.21417l-0.75394,22.5036l-38.8761,3.5554l-7.75378,-52.55045z" fill="url(#color-89)" stroke="url(#color-90)"/><path d="M481.39439,-166.69446l15.7742,-15.06275l12.3355,14.3585l10.1113,-15.26757l16.67969,11.42282l-13.95245,15.46877l15.87481,12.03009l-13.4458,15.06635l-12.93916,-12.63734l-10.2155,15.26757l-15.97182,-12.2349l13.64702,-15.46877z" fill="url(#color-91)" stroke="url(#color-92)"/><path d="M465.02023,-178.21758l14.03027,46.72078l-19.64005,2.19785l-2.07683,-11.83244l-13.29636,0.85102l-2.19393,10.86038l-17.9341,-4.02873l14.27231,-48.06368zM446.72306,-154.43168l8.41661,1.10088l-3.04888,-12.32432h-2.56479z" fill="url(#color-93)" stroke="url(#color-94)"/></g></g><g><g stroke-width="16"><path d="M320.59231,-113.59996l0.90907,15.57298l-16.98512,2.42541l5.35747,32.65513l-20.4238,0.91267l-0.70428,-30.94115l-17.59595,2.2278l-1.91879,-20.62864z" fill="url(#color-95)" stroke="url(#color-96)"/><path d="M463.76719,-113.21107l4.14297,14.66031l9.10162,-12.84215l12.53672,1.81818l6.37075,49.04017l-19.91716,1.21092l-0.20481,-24.76802l-10.21192,8.69199l-7.38045,-11.92946l-7.68229,24.46617l-18.80686,-8.49075l18.40084,-42.97122z" fill="url(#color-97)" stroke="url(#color-98)"/><path d="M373.73077,-108.34792l-3.11324,16.00873l-21.01048,-5.56275l-1.33142,5.23087l16.22998,1.7779l-2.55619,12.11715l-14.67731,-2.00307l0.67166,5.55882l20.67465,-1.22081l1.89245,15.22647l-39.46872,-1.77392l-5.78005,-20.12153l7.22606,-30.4648z" fill="url(#color-99)" stroke="url(#color-100)"/><path d="M415.85809,-109.93612l14.03028,46.72077l-19.64006,2.19784l-2.07683,-11.83243l-13.29636,0.85102l-2.19394,10.86038l-17.9341,-4.02873l14.27231,-48.06367zM397.56093,-86.15023l8.4166,1.10089l-3.04888,-12.32433h-2.5648z" fill="url(#color-101)" stroke="url(#color-102)"/></g><g stroke-width="0"><path d="M320.59231,-114.20927l0.90907,15.57298l-16.98512,2.42541l5.35747,32.65513l-20.4238,0.91266l-0.70428,-30.94115l-17.59595,2.22781l-1.91879,-20.62864z" fill="url(#color-103)" stroke="url(#color-104)"/><path d="M463.76719,-113.82038l4.14297,14.6603l9.10162,-12.84214l12.53672,1.81817l6.37075,49.04017l-19.91716,1.21092l-0.20481,-24.76802l-10.21192,8.69199l-7.38045,-11.92946l-7.68229,24.46617l-18.80686,-8.49075l18.40084,-42.97121z" fill="url(#color-105)" stroke="url(#color-106)"/><path d="M373.73077,-108.95723l-3.11324,16.00874l-21.01048,-5.56274l-1.33142,5.23087l16.22998,1.77789l-2.55619,12.11716l-14.67731,-2.00307l0.67166,5.55881l20.67465,-1.22081l1.89245,15.22647l-39.46872,-1.77392l-5.78005,-20.12153l7.22606,-30.46479z" fill="url(#color-107)" stroke="url(#color-108)"/><path d="M415.85809,-110.54543l14.03028,46.72076l-19.64006,2.19785l-2.07683,-11.83243l-13.29636,0.85102l-2.19394,10.86038l-17.9341,-4.02873l14.27231,-48.06367zM397.56093,-86.75954l8.4166,1.10088l-3.04888,-12.32432h-2.5648z" fill="url(#color-109)" stroke="url(#color-110)"/></g></g></g><g><path d="M436.52737,65.5155l13.38228,-15.54182l16.13386,11.7301l-22.57132,22.18972l1.39856,20.20145l-23.41912,-1.27057l3.81172,-22.18972l-18.04191,-25.24046l20.28602,-9.7397zM252.65898,49.25375c0.21245,5.71764 0.50948,18.54926 0.88897,38.45145h0.25362l25.28375,-8.89192c0,0.21034 0.08458,0.29492 0.29492,0.29492l-0.84557,21.25947c0,0.38161 -13.12864,1.60889 -39.34265,3.72725c-0.59194,-2.96404 -3.38672,-20.58094 -8.34115,-52.85068c2.24412,-0.38161 9.39927,-1.1427 21.55437,-2.28752c0,0.21245 0.08458,0.29703 0.25373,0.29703zM63.38733,56.70605c0,0.46608 -2.11625,4.53154 -6.35298,12.23968h-0.29492c-0.3382,0 -5.21017,-2.28752 -14.61167,-6.90375l-4.78528,6.39639c8.08964,3.89409 17.95733,8.85064 29.51826,14.90659c-5.25146,9.3581 -8.97861,15.54182 -11.18156,18.63162l-23.92648,2.11837c-10.92571,-7.36982 -16.68453,-11.17944 -17.31986,-11.43529v-0.29492c0,-0.80439 2.20295,-4.40578 6.6479,-10.88452h0.55065c1.73676,1.05812 7.24196,4.06546 16.4743,9.01989l5.58967,-6.35076c-16.98155,-8.64041 -26.38305,-13.51025 -28.20438,-14.65296v-0.25362c5.37944,-10.50292 8.34338,-15.83896 8.80956,-15.96693c14.01762,-2.83606 21.85151,-4.27568 23.41912,-4.27568c10.16249,5.12348 15.37055,7.70592 15.66768,7.70592zM115.66989,56.83391c-4.02206,8.2588 -6.05585,12.53459 -6.05585,12.8728h-0.25373c-1.82123,-0.50736 -5.75882,-2.2853 -11.89925,-5.29264l-10.07791,7.0728c0,8.76616 0.50736,13.12643 1.48091,13.12643c0.63523,0.34043 4.86986,2.03379 12.66247,5.08241c3.00733,-2.96404 6.01256,-5.8434 9.10447,-8.59711c0.55065,0.50958 3.09181,4.53164 7.58005,12.1118v0.76322c-0.29481,0 -6.51981,3.38672 -18.71619,10.12131c-15.58522,-5.20817 -23.58816,-8.00516 -24.01317,-8.34338l-7.58016,-25.02789c7.11397,-10.12131 10.75665,-15.16032 10.88452,-15.16032c0.29492,0 6.30959,-2.20295 17.9552,-6.56321c12.61906,4.91103 18.92865,7.53676 18.92865,7.83378zM167.70104,62.29782v0.25373c-2.33082,9.65512 -3.8963,15.16032 -4.61622,16.55665l-8.93521,5.16689c10.58527,7.66474 15.92131,11.64562 16.00589,11.94265c-3.76844,1.82134 -9.52726,4.44706 -17.36104,7.87719c-9.0633,-12.40883 -13.59483,-18.71842 -13.59483,-19.01545h-0.50736c-0.21255,7.24196 -0.29713,12.23968 -0.29713,14.94998c-0.12787,1.27057 -0.38161,1.90592 -0.80439,1.90592h-12.74705c-0.59406,0 -1.48303,-7.87719 -2.7103,-23.63157c-0.55065,-3.43022 -1.39845,-11.39199 -2.45657,-23.88318c3.26107,-0.71981 13.21322,-2.49998 29.85657,-5.42051c0.63534,0.67641 6.69119,5.12348 18.16765,13.2977zM379.28817,49.00012c9.8264,5.75882 15.11904,8.76616 15.88225,9.01979v0.50736c-2.54115,2.92287 -7.24185,7.96177 -14.06092,15.11914c13.38228,4.95443 20.87786,7.96177 22.53004,8.97861l-12.45002,15.37066c-8.42784,-7.15516 -13.80506,-11.6868 -16.13599,-13.50814c-5.67424,11.09486 -9.18895,17.61689 -10.58527,19.60738h-0.29703c-10.5442,-3.68386 -16.26174,-5.88679 -17.19411,-6.60662v-0.29703l14.56838,-19.05662c-13.51025,-5.54637 -20.74999,-8.80734 -21.72575,-9.78311c5.97137,-10.11908 9.31692,-15.49852 10.08014,-16.17505c0.08458,0.29492 6.60662,4.78538 19.56399,13.50814c4.61612,-8.46913 7.79261,-14.01762 9.52937,-16.68453zM213.67413,53.15006c0,0.21034 5.37721,16.3875 16.17716,48.48829c-1.14482,0.42278 -7.62356,1.22718 -19.52281,2.45657c-0.80439,-2.75371 -1.73676,-7.0294 -2.7536,-12.83162c-10.16249,0.93237 -15.2449,1.73676 -15.2449,2.45657l-2.7536,9.78088h-0.29492c-11.98605,-2.20072 -17.9985,-3.5147 -17.9985,-3.98078c9.57054,-29.93903 15.07574,-46.70814 16.47419,-50.35081c15.66768,2.24412 24.30597,3.59928 25.91697,3.98088zM322.64299,53.15006c0,0.21034 5.37944,16.3875 16.17716,48.48829c-1.1426,0.42278 -7.62134,1.22718 -19.52058,2.45657c-0.80651,-2.75371 -1.73676,-7.0294 -2.7536,-12.83162c-10.16471,0.93237 -15.2449,1.73676 -15.2449,2.45657l-2.7536,9.78088h-0.29713c-11.98383,-2.20072 -17.99627,-3.5147 -17.99627,-3.98078c9.57054,-29.93903 15.07574,-46.70814 16.47208,-50.35081c15.6698,2.24412 24.30808,3.59928 25.91687,3.98088zM137.84446,61.19641c0,1.73454 0.08458,7.87719 0.29703,18.46246h0.25362c6.90375,-1.60879 10.33387,-2.71021 10.33387,-3.26097l2.41327,-10.84123l-13.2978,-4.614zM197.83517,66.57362c-0.42278,2.07496 -1.05812,6.01467 -1.86252,11.89925h9.18895l-3.38894,-13.42356c-2.62573,0 -3.93748,0.50736 -3.93748,1.52431zM306.80626,66.57362c-0.425,2.07496 -1.05812,6.01467 -1.86473,11.89925h9.19116l-3.38894,-13.42356c-2.62573,0 -3.93748,0.50736 -3.93748,1.52431z" data-paper-data="{&quot;origPos&quot;:null}" fill="url(#color-111)" stroke="url(#color-112)" stroke-width="14.33816"/><path d="M314.63574,128.79541c3.09191,8.2588 4.95443,13.55143 5.63306,15.83896h0.25373c0.71981,-1.5676 3.55799,-5.92798 8.42784,-13.04195h0.25373c7.66474,0.46407 11.47646,1.01473 11.47646,1.56549l6.90152,47.21983c0,0.29481 -6.05595,0.97354 -18.12426,2.03157l-0.25373,-0.50736c-0.67864,-14.35582 -1.01695,-23.12198 -1.01695,-26.29847h-0.25362l-10.45962,9.18895h-0.25362c-0.34043,-0.16905 -2.7103,-3.8963 -7.15738,-11.22273h-0.25362c-5.46402,15.88013 -8.42795,24.30808 -8.93743,25.28163h-0.50747c-9.7397,-4.40367 -15.28819,-7.0294 -16.59995,-7.91847v-0.25362c12.06841,-28.41684 18.37799,-42.85735 18.88746,-43.408c8.00294,0.55065 11.98383,1.06025 11.98383,1.52421zM173.28637,127.86526c-0.71981,10.79783 -1.27057,16.17716 -1.65218,16.17716h-0.25362c-11.64562,-0.93226 -18.16765,-1.48303 -19.48164,-1.65218v37.56249c0,0.67864 -2.66691,1.14482 -7.95954,1.35515c0,0.21245 -3.00733,0.55076 -9.022,1.10142l-0.29492,-0.55065c1.31176,-22.40228 2.11614,-35.65668 2.49775,-39.72204c-4.44697,0.71981 -11.05357,1.60879 -19.73526,2.71021c-2.58233,-9.61395 -3.85291,-14.52498 -3.85291,-14.78083c0,-0.37938 19.81984,-1.27057 59.50069,-2.75149zM223.96014,132.86087l-4.06536,14.8654c-13.21322,-3.5147 -20.32721,-5.46391 -21.30075,-5.8434c0,0.25373 -1.43973,3.47141 -4.36249,9.61184h0.29703c5.88458,-0.38161 12.32203,-0.93025 19.22578,-1.73676l0.29481,0.59406c-1.1426,6.56321 -2.03157,11.01029 -2.6235,13.38238l-16.30514,-2.3287c0.16916,3.21767 0.25362,5.63085 0.25362,7.28303v1.48091l0.29713,0.59416c3.59928,-0.38161 10.92571,-0.97354 21.89481,-1.77794c0.37938,1.73454 1.05812,6.14043 2.03168,13.12643c-0.21255,0 -0.29713,0.08458 -0.29713,0.29703c-25.61984,-1.35505 -38.62051,-2.24412 -39.0434,-2.62573l-6.14043,-17.48892c4.6574,-21.72575 7.28313,-33.37127 7.87508,-34.98016c27.99194,3.30225 41.96827,5.16689 41.96827,5.54637zM266.58767,131.46455c0,0.21245 5.37721,16.38972 16.17716,48.48819c-1.1426,0.425 -7.62346,1.2294 -19.52271,2.45657c-0.8045,-2.7536 -1.73676,-7.0294 -2.75371,-12.83151c-10.16249,0.93226 -15.2449,1.73665 -15.2449,2.45657l-2.75149,9.78311h-0.29703c-11.98383,-2.20295 -17.9985,-3.51692 -17.9985,-3.98088c9.57054,-29.94115 15.07574,-46.71036 16.4743,-50.35293c15.66758,2.24412 24.30797,3.59928 25.91687,3.98088zM250.74873,144.88812c-0.42278,2.07496 -1.05812,6.01467 -1.86252,11.90137h9.18895l-3.38672,-13.42567c-2.62573,0 -3.93971,0.50958 -3.93971,1.52431z" data-paper-data="{&quot;origPos&quot;:null}" fill="url(#color-113)" stroke="url(#color-114)" stroke-width="14.33816"/><g data-paper-data="{&quot;origPos&quot;:null}" stroke="none" stroke-width="2.04831"><path d="M436.05104,65.40964l13.38228,-15.54182l16.13386,11.7301l-22.57132,22.18972l1.39856,20.20145l-23.41912,-1.27057l3.81172,-22.18972l-18.04191,-25.24046l20.28602,-9.7397zM252.18264,49.14789c0.21245,5.71764 0.50948,18.54926 0.88897,38.45145h0.25362l25.28375,-8.89192c0,0.21034 0.08458,0.29492 0.29492,0.29492l-0.84557,21.25947c0,0.38161 -13.12864,1.60889 -39.34265,3.72725c-0.59194,-2.96404 -3.38672,-20.58094 -8.34115,-52.85068c2.24412,-0.38161 9.39927,-1.1427 21.55437,-2.28752c0,0.21245 0.08458,0.29703 0.25373,0.29703zM62.91098,56.60019c0,0.46608 -2.11625,4.53154 -6.35298,12.23968h-0.29492c-0.3382,0 -5.21017,-2.28752 -14.61167,-6.90375l-4.78528,6.39639c8.08964,3.89409 17.95733,8.85064 29.51826,14.90659c-5.25146,9.3581 -8.97861,15.54182 -11.18156,18.63162l-23.92648,2.11837c-10.92571,-7.36982 -16.68453,-11.17944 -17.31986,-11.43529v-0.29492c0,-0.80439 2.20295,-4.40578 6.6479,-10.88452h0.55065c1.73676,1.05812 7.24196,4.06546 16.4743,9.01989l5.58967,-6.35076c-16.98155,-8.64041 -26.38305,-13.51025 -28.20438,-14.65296v-0.25362c5.37944,-10.50292 8.34338,-15.83896 8.80956,-15.96693c14.01762,-2.83606 21.85151,-4.27568 23.41912,-4.27568c10.16249,5.12348 15.37055,7.70592 15.66768,7.70592zM115.19355,56.72806c-4.02206,8.2588 -6.05585,12.53459 -6.05585,12.8728h-0.25373c-1.82123,-0.50736 -5.75882,-2.2853 -11.89925,-5.29264l-10.07791,7.0728c0,8.76616 0.50736,13.12643 1.48091,13.12643c0.63523,0.34043 4.86986,2.03379 12.66247,5.08241c3.00733,-2.96404 6.01256,-5.8434 9.10447,-8.59711c0.55065,0.50958 3.09181,4.53164 7.58005,12.1118v0.76322c-0.29481,0 -6.51981,3.38672 -18.71619,10.12131c-15.58522,-5.20817 -23.58816,-8.00516 -24.01317,-8.34338l-7.58016,-25.02789c7.11397,-10.12131 10.75665,-15.16032 10.88452,-15.16032c0.29492,0 6.30959,-2.20295 17.9552,-6.56321c12.61906,4.91103 18.92865,7.53676 18.92865,7.83378zM167.2247,62.19198v0.25373c-2.33082,9.65512 -3.8963,15.16032 -4.61622,16.55665l-8.93521,5.16689c10.58527,7.66474 15.92131,11.64562 16.00589,11.94265c-3.76844,1.82134 -9.52726,4.44706 -17.36104,7.87719c-9.0633,-12.40883 -13.59483,-18.71842 -13.59483,-19.01545h-0.50736c-0.21255,7.24196 -0.29713,12.23968 -0.29713,14.94998c-0.12787,1.27057 -0.38161,1.90592 -0.80439,1.90592h-12.74705c-0.59406,0 -1.48303,-7.87719 -2.7103,-23.63157c-0.55065,-3.43022 -1.39845,-11.39199 -2.45657,-23.88318c3.26107,-0.71981 13.21322,-2.49998 29.85657,-5.42051c0.63534,0.67641 6.69119,5.12348 18.16765,13.2977zM378.81182,48.89428c9.8264,5.75882 15.11904,8.76616 15.88225,9.01979v0.50736c-2.54115,2.92287 -7.24185,7.96177 -14.06092,15.11914c13.38228,4.95443 20.87786,7.96177 22.53004,8.97861l-12.45002,15.37066c-8.42784,-7.15516 -13.80506,-11.6868 -16.13599,-13.50814c-5.67424,11.09486 -9.18895,17.61689 -10.58527,19.60738h-0.29703c-10.5442,-3.68386 -16.26174,-5.88679 -17.19411,-6.60662v-0.29703l14.56838,-19.05662c-13.51025,-5.54637 -20.74999,-8.80734 -21.72575,-9.78311c5.97137,-10.11908 9.31692,-15.49852 10.08014,-16.17505c0.08458,0.29492 6.60662,4.78538 19.56399,13.50814c4.61612,-8.46913 7.79261,-14.01762 9.52937,-16.68453zM213.19778,53.0442c0,0.21034 5.37721,16.3875 16.17716,48.48829c-1.14482,0.42278 -7.62356,1.22718 -19.52281,2.45657c-0.80439,-2.75371 -1.73676,-7.0294 -2.7536,-12.83162c-10.16249,0.93237 -15.2449,1.73676 -15.2449,2.45657l-2.7536,9.78088h-0.29492c-11.98605,-2.20072 -17.9985,-3.5147 -17.9985,-3.98078c9.57054,-29.93903 15.07574,-46.70814 16.47419,-50.35081c15.66768,2.24412 24.30597,3.59928 25.91697,3.98088zM322.16665,53.0442c0,0.21034 5.37944,16.3875 16.17716,48.48829c-1.1426,0.42278 -7.62134,1.22718 -19.52058,2.45657c-0.80651,-2.75371 -1.73676,-7.0294 -2.7536,-12.83162c-10.16471,0.93237 -15.2449,1.73676 -15.2449,2.45657l-2.7536,9.78088h-0.29713c-11.98383,-2.20072 -17.99627,-3.5147 -17.99627,-3.98078c9.57054,-29.93903 15.07574,-46.70814 16.47208,-50.35081c15.6698,2.24412 24.30808,3.59928 25.91687,3.98088zM137.36812,61.09055c0,1.73454 0.08458,7.87719 0.29703,18.46246h0.25362c6.90375,-1.60879 10.33387,-2.71021 10.33387,-3.26097l2.41327,-10.84123l-13.2978,-4.614zM197.35883,66.46777c-0.42278,2.07496 -1.05812,6.01467 -1.86252,11.89925h9.18895l-3.38894,-13.42356c-2.62573,0 -3.93748,0.50736 -3.93748,1.52431zM306.32992,66.46777c-0.425,2.07496 -1.05812,6.01467 -1.86473,11.89925h9.19116l-3.38894,-13.42356c-2.62573,0 -3.93748,0.50736 -3.93748,1.52431z" fill="url(#color-115)"/><path d="M314.15937,128.68957c3.09191,8.2588 4.95443,13.55143 5.63306,15.83896h0.25373c0.71981,-1.5676 3.55799,-5.92798 8.42784,-13.04195h0.25373c7.66474,0.46407 11.47646,1.01473 11.47646,1.56549l6.90152,47.21983c0,0.29481 -6.05595,0.97354 -18.12426,2.03157l-0.25373,-0.50736c-0.67864,-14.35582 -1.01695,-23.12198 -1.01695,-26.29847h-0.25362l-10.45962,9.18895h-0.25362c-0.34043,-0.16905 -2.7103,-3.8963 -7.15738,-11.22273h-0.25362c-5.46402,15.88013 -8.42795,24.30808 -8.93743,25.28163h-0.50747c-9.7397,-4.40367 -15.28819,-7.0294 -16.59995,-7.91847v-0.25362c12.06841,-28.41684 18.37799,-42.85735 18.88746,-43.408c8.00294,0.55065 11.98383,1.06025 11.98383,1.52421zM172.81003,127.75942c-0.71981,10.79783 -1.27057,16.17716 -1.65218,16.17716h-0.25362c-11.64562,-0.93226 -18.16765,-1.48303 -19.48164,-1.65218v37.56249c0,0.67864 -2.66691,1.14482 -7.95954,1.35515c0,0.21245 -3.00733,0.55076 -9.022,1.10142l-0.29492,-0.55065c1.31176,-22.40228 2.11614,-35.65668 2.49775,-39.72204c-4.44697,0.71981 -11.05357,1.60879 -19.73526,2.71021c-2.58233,-9.61395 -3.85291,-14.52498 -3.85291,-14.78083c0,-0.37938 19.81984,-1.27057 59.50069,-2.75149zM223.48379,132.75503l-4.06536,14.8654c-13.21322,-3.5147 -20.32721,-5.46391 -21.30075,-5.8434c0,0.25373 -1.43973,3.47141 -4.36249,9.61184h0.29703c5.88458,-0.38161 12.32203,-0.93025 19.22578,-1.73676l0.29481,0.59406c-1.1426,6.56321 -2.03157,11.01029 -2.6235,13.38238l-16.30514,-2.3287c0.16916,3.21767 0.25362,5.63085 0.25362,7.28303v1.48091l0.29713,0.59416c3.59928,-0.38161 10.92571,-0.97354 21.89481,-1.77794c0.37938,1.73454 1.05812,6.14043 2.03168,13.12643c-0.21255,0 -0.29713,0.08458 -0.29713,0.29703c-25.61984,-1.35505 -38.62051,-2.24412 -39.0434,-2.62573l-6.14043,-17.48892c4.6574,-21.72575 7.28313,-33.37127 7.87508,-34.98016c27.99194,3.30225 41.96827,5.16689 41.96827,5.54637zM266.1113,131.35869c0,0.21245 5.37721,16.38972 16.17716,48.48819c-1.1426,0.425 -7.62346,1.2294 -19.52271,2.45657c-0.8045,-2.7536 -1.73676,-7.0294 -2.75371,-12.83151c-10.16249,0.93226 -15.2449,1.73665 -15.2449,2.45657l-2.75149,9.78311h-0.29703c-11.98383,-2.20295 -17.9985,-3.51692 -17.9985,-3.98088c9.57054,-29.94115 15.07574,-46.71036 16.4743,-50.35293c15.66758,2.24412 24.30797,3.59928 25.91687,3.98088zM250.27237,144.78225c-0.42278,2.07496 -1.05812,6.01467 -1.86252,11.90137h9.18895l-3.38672,-13.42567c-2.62573,0 -3.93971,0.50958 -3.93971,1.52431z" fill="url(#color-116)"/></g></g></g></g></svg>