<svg version="1.1" xmlns="http://www.w3.org/2000/svg" xmlns:xlink="http://www.w3.org/1999/xlink" width="444.88136" height="238.16671" viewBox="0,0,444.88136,238.16671"><defs><radialGradient cx="34.11065" cy="110.02272" r="548.80445" gradientUnits="userSpaceOnUse" id="color-1"><stop offset="0" stop-color="#ffffff"/><stop offset="1" stop-color="#ffffff"/></radialGradient><linearGradient x1="87.89056" y1="123.45633" x2="87.89056" y2="240.30955" gradientUnits="userSpaceOnUse" id="color-2"><stop offset="0" stop-color="#2850ff"/><stop offset="1" stop-color="#5e1e9f"/></linearGradient><linearGradient x1="261.17589" y1="119.69045" x2="261.17589" y2="236.54366" gradientUnits="userSpaceOnUse" id="color-3"><stop offset="0" stop-color="#3398ff"/><stop offset="1" stop-color="#a843ff"/></linearGradient><linearGradient x1="364.08862" y1="146.59464" x2="364.08862" y2="217.97863" gradientUnits="userSpaceOnUse" id="color-4"><stop offset="0" stop-color="#79aaff"/><stop offset="1" stop-color="#aa79ff"/></linearGradient><linearGradient x1="412.05301" y1="144.14171" x2="392.14814" y2="153.899" gradientUnits="userSpaceOnUse" id="color-5"><stop offset="0" stop-color="#5480ff"/><stop offset="1" stop-color="#5480ff" stop-opacity="0"/></linearGradient><linearGradient x1="367.72411" y1="125.41034" x2="367.72411" y2="154.2169" gradientUnits="userSpaceOnUse" id="color-6"><stop offset="0" stop-color="#3a92ff"/><stop offset="1" stop-color="#76b3ff"/></linearGradient><linearGradient x1="325.24228" y1="217.79423" x2="325.15907" y2="205.76779" gradientUnits="userSpaceOnUse" id="color-7"><stop offset="0" stop-color="#964fff"/><stop offset="1" stop-color="#964fff" stop-opacity="0"/></linearGradient><linearGradient x1="385.55854" y1="192.4401" x2="385.55854" y2="235.23475" gradientUnits="userSpaceOnUse" id="color-8"><stop offset="0" stop-color="#5b53cc"/><stop offset="1" stop-color="#a544ff"/></linearGradient><linearGradient x1="40.04092" y1="204.47261" x2="40.04092" y2="228.35469" gradientUnits="userSpaceOnUse" id="color-9"><stop offset="0" stop-color="#6b25c2"/><stop offset="1" stop-color="#2e1284"/></linearGradient><linearGradient x1="38.00703" y1="202.90482" x2="38.00703" y2="226.78689" gradientUnits="userSpaceOnUse" id="color-10"><stop offset="0" stop-color="#d153ff"/><stop offset="1" stop-color="#7838fe"/></linearGradient><linearGradient x1="193.2172" y1="160.14235" x2="193.2172" y2="192.69291" gradientUnits="userSpaceOnUse" id="color-11"><stop offset="0" stop-color="#ffffff"/><stop offset="1" stop-color="#93d9ff"/></linearGradient><linearGradient x1="64.57446" y1="150.14436" x2="64.57446" y2="193.79685" gradientUnits="userSpaceOnUse" id="color-12"><stop offset="0" stop-color="#ffffff"/><stop offset="1" stop-color="#93d9ff"/></linearGradient><linearGradient x1="105.48033" y1="151.99992" x2="105.48033" y2="193.78152" gradientUnits="userSpaceOnUse" id="color-13"><stop offset="0" stop-color="#ffffff"/><stop offset="1" stop-color="#93d9ff"/></linearGradient><linearGradient x1="142.19104" y1="150.90865" x2="142.19104" y2="193.79685" gradientUnits="userSpaceOnUse" id="color-14"><stop offset="0" stop-color="#ffffff"/><stop offset="1" stop-color="#93d9ff"/></linearGradient><linearGradient x1="167.19584" y1="154.16232" x2="167.19584" y2="193.10431" gradientUnits="userSpaceOnUse" id="color-15"><stop offset="0" stop-color="#ffffff"/><stop offset="1" stop-color="#93d9ff"/></linearGradient><linearGradient x1="193.62108" y1="155.58315" x2="193.62108" y2="192.6929" gradientUnits="userSpaceOnUse" id="color-16"><stop offset="0" stop-color="#ffffff"/><stop offset="1" stop-color="#cccccc"/></linearGradient><linearGradient x1="231.75535" y1="150.16498" x2="231.75535" y2="193.05318" gradientUnits="userSpaceOnUse" id="color-17"><stop offset="0" stop-color="#ffffff"/><stop offset="1" stop-color="#93d9ff"/></linearGradient><linearGradient x1="266.56348" y1="150.86014" x2="266.56348" y2="192.64173" gradientUnits="userSpaceOnUse" id="color-18"><stop offset="0" stop-color="#ffffff"/><stop offset="1" stop-color="#93d9ff"/></linearGradient><linearGradient x1="304.59103" y1="150.14879" x2="304.59103" y2="193.03698" gradientUnits="userSpaceOnUse" id="color-19"><stop offset="0" stop-color="#ffffff"/><stop offset="1" stop-color="#93d9ff"/></linearGradient><linearGradient x1="342.46939" y1="151.11782" x2="342.46939" y2="193.85188" gradientUnits="userSpaceOnUse" id="color-20"><stop offset="0" stop-color="#ffffff"/><stop offset="1" stop-color="#93d9ff"/></linearGradient><linearGradient x1="64.78655" y1="151.84393" x2="64.78655" y2="193.79685" gradientUnits="userSpaceOnUse" id="color-21"><stop offset="0" stop-color="#ffffff"/><stop offset="1" stop-color="#cccccc"/></linearGradient><linearGradient x1="106.28814" y1="151.99992" x2="106.28814" y2="193.78153" gradientUnits="userSpaceOnUse" id="color-22"><stop offset="0" stop-color="#ffffff"/><stop offset="1" stop-color="#cccccc"/></linearGradient><linearGradient x1="143.71758" y1="150.90868" x2="143.71758" y2="193.79685" gradientUnits="userSpaceOnUse" id="color-23"><stop offset="0" stop-color="#ffffff"/><stop offset="1" stop-color="#cccccc"/></linearGradient><linearGradient x1="167.19585" y1="154.16231" x2="167.19585" y2="193.10431" gradientUnits="userSpaceOnUse" id="color-24"><stop offset="0" stop-color="#ffffff"/><stop offset="1" stop-color="#cccccc"/></linearGradient><linearGradient x1="231.75535" y1="150.16498" x2="231.75535" y2="193.05317" gradientUnits="userSpaceOnUse" id="color-25"><stop offset="0" stop-color="#ffffff"/><stop offset="1" stop-color="#cccccc"/></linearGradient><linearGradient x1="267.3713" y1="150.86014" x2="267.3713" y2="192.64172" gradientUnits="userSpaceOnUse" id="color-26"><stop offset="0" stop-color="#ffffff"/><stop offset="1" stop-color="#cccccc"/></linearGradient><linearGradient x1="306.11754" y1="150.1488" x2="306.11754" y2="193.03699" gradientUnits="userSpaceOnUse" id="color-27"><stop offset="0" stop-color="#ffffff"/><stop offset="1" stop-color="#cccccc"/></linearGradient><linearGradient x1="342.6579" y1="151.11783" x2="342.6579" y2="193.85189" gradientUnits="userSpaceOnUse" id="color-28"><stop offset="0" stop-color="#ffffff"/><stop offset="1" stop-color="#cccccc"/></linearGradient></defs><g transform="translate(-17.55932,-60.91665)"><g data-paper-data="{&quot;isPaintingLayer&quot;:true}" fill-rule="nonzero" stroke-linejoin="miter" stroke-miterlimit="10" stroke-dasharray="" stroke-dashoffset="0" style="mix-blend-mode: normal"><path d="M25.2753,73.26222c0,0 128.63774,-12.34557 210.97247,-12.34557c85.86568,0 220.02013,12.34557 220.02013,12.34557c0,0 6.17278,66.49036 6.17278,104.10895c0,45.69299 -6.17278,109.36662 -6.17278,109.36662c0,0 -132.8748,12.34557 -216.93374,12.34557c-84.14147,0 -214.05886,-12.34557 -214.05886,-12.34557c0,0 -7.71598,-67.36227 -7.71598,-112.45301c0,-38.22086 7.71598,-101.02255 7.71598,-101.02255z" fill="#ffffff" stroke="url(#color-1)" stroke-width="0" stroke-linecap="butt"/><g><g data-paper-data="{&quot;origPos&quot;:null}" stroke="none"><path d="M441.48823,145.66819c0.41778,1.75907 0.58639,3.54483 0.46761,5.34984c-0.75499,11.44314 -11.33579,18.0154 -20.42975,22.83257c-3.44521,1.82796 -6.92869,3.58312 -10.40457,5.34212c-3.66744,1.85482 -7.34259,3.6943 -11.01003,5.5376c-0.17631,0.0843 -0.35263,0.19166 -0.53267,0.2913l-19.93157,9.9102l20.47566,-8.76818c0.68603,1.42559 1.21108,2.60972 1.83186,4.06218c1.11134,2.61362 2.12306,5.26934 2.95854,7.99023c0.60163,1.96598 1.10363,3.95491 1.45617,5.98214c0.28357,1.63258 0.44837,3.27279 0.52506,4.92443c0.06134,1.2148 0.03448,2.42196 -0.06516,3.63295c-0.3372,4.26535 -1.67088,8.17036 -4.27678,11.60412c-1.3068,1.72451 -2.81672,3.24203 -4.4876,4.60246c-2.78221,2.2649 -5.86718,4.02388 -9.14367,5.45328c-2.60209,1.12669 -5.28469,1.99284 -8.01327,2.74012c-3.00446,0.82386 -6.0511,1.50608 -9.12843,2.01571c-1.95444,0.32577 -3.91653,0.57868 -5.89394,0.76653c-0.00771,0.00381 -0.02304,0.00762 -0.03448,0.00762c-0.00771,0 -0.01534,0.00381 -0.03067,0.00762c-2.70563,0.253 -5.42261,0.36025 -8.13968,0.35644c-1.90464,-0.00771 -3.81698,-0.06516 -5.71772,-0.19928c-2.50636,-0.18013 -5.00881,-0.45219 -7.49204,-0.85463c-3.38777,-0.55182 -6.73334,-1.31062 -9.99069,-2.40663c-2.14229,-0.71661 -4.22697,-1.57506 -6.2159,-2.65572c-2.79756,-1.52523 -5.2962,-3.42225 -7.3886,-5.84031c-2.2764,-2.62133 -3.87061,-5.60664 -4.72906,-8.97135c-0.45219,-1.76661 -0.66298,-3.5678 -0.64374,-5.39576c0.05744,-5.60664 2.61852,-11.07953 6.40746,-14.9496c5.85492,-5.98142 12.38979,-8.82481 21.40126,-13.77309l27.02877,-14.45722l14.24641,-7.06092l4.8286,-2.41435c2.5255,-1.27223 5.05093,-2.49855 7.56873,-3.77088c3.71345,-1.88168 7.44603,-3.73259 11.09441,-5.72923c1.82025,-0.99257 3.62524,-2.00809 5.3306,-3.18839c1.21098,-0.8393 2.35681,-1.75137 3.3149,-2.88186c2.60209,-3.06961 2.95083,-7.1357 0.76643,-10.56166c-0.90817,-1.42179 -2.16136,-2.6443 -3.51797,-3.64829c-6.39221,-4.50292 -14.67364,-4.29983 -21.72112,-1.41417c-1.79357,0.73195 -3.47587,1.66706 -4.95509,2.92405c-2.1883,1.86245 -3.60619,4.18476 -4.14656,7.01681c-1.04238,5.51082 1.5559,11.00239 3.52188,16.01112c0.60934,1.55971 2.17606,4.3238 1.79347,4.52207l-0.94274,0.45219l-17.5996,8.79885c-1.54456,0.54673 -0.89954,0.77468 -2.19965,-1.78004l-3.75373,-7.6434c-0.68575,-1.57378 -1.19565,-3.22296 -1.64402,-4.88614c-0.48285,-1.77433 -0.79329,-3.57551 -0.86997,-5.41881c-0.45219,-10.86827 8.1474,-18.34879 17.35241,-22.16187c4.54512,-1.87395 9.30474,-3.24212 14.17165,-3.93959c1.41417,-0.19928 2.83204,-0.34493 4.25383,-0.43684c5.74077,-0.37179 11.54659,0.00381 17.18001,1.16116c1.56353,0.32568 3.11943,0.70889 4.65619,1.15726c2.17669,0.64002 4.31127,1.4333 6.35764,2.41435c3.49121,1.66706 6.62217,3.84756 9.41582,6.52634c1.27614,1.22251 2.46035,2.52161 3.48358,3.96254c1.48685,2.08095 2.56372,4.35727 3.16153,6.85201M381.58259,202.79173c-0.84692,-2.49474 -1.80881,-4.98959 -2.80908,-7.42308c-0.28357,0.11498 -0.27206,0.10735 -0.4637,0.19928c-5.7905,2.78603 -11.57336,5.56064 -17.35241,8.36201c-3.97787,1.9314 -7.92507,3.91653 -11.7573,6.13541c-2.03876,1.1727 -4.0315,2.41816 -5.87488,3.88204c-2.18821,1.73221 -4.46835,3.83994 -5.11599,6.66817c-0.69746,3.00064 0,5.64485 2.09238,7.91355c2.87805,3.11562 7.34639,4.64466 11.4201,5.36898c6.48033,1.15353 13.47418,0.55572 19.28772,-2.69402c0.73958,-0.41007 1.41025,-0.87378 2.12686,-1.31453c1.70155,-1.05771 3.33794,-2.46025 4.71372,-3.91271c3.45283,-3.67515 5.46091,-8.48461 5.57969,-13.524c0.01915,-0.82777 -0.02295,-1.65554 -0.10726,-2.47179c-0.26062,-2.47179 -0.94274,-4.84394 -1.73984,-7.18932M407.5422,184.81272zM411.17704,184.81272zM320.79925,186.55647zM319.69363,178.86705zM341.29034,181.15682zM379.52467,171.04154z" data-paper-data="{&quot;origPos&quot;:null}" fill="url(#color-2)" stroke-width="0.04223" stroke-linecap="butt"/><path d="M437.72234,141.90233c0.41778,1.75907 0.58639,3.54483 0.46761,5.34984c-0.75499,11.44314 -11.33579,18.0154 -20.42975,22.83257c-3.44521,1.82796 -6.92869,3.58312 -10.40457,5.34212c-3.66744,1.85482 -7.34259,3.6943 -11.01003,5.5376c-0.17631,0.0843 -0.35263,0.19166 -0.53267,0.2913l-20.95567,10.33691l0.64126,1.04807l20.8585,-10.24297c0.68603,1.42559 1.21108,2.60972 1.83186,4.06218c1.11134,2.61362 2.12306,5.26934 2.95854,7.99023c0.60163,1.96598 1.10363,3.95491 1.45617,5.98214c0.28357,1.63258 0.44837,3.27279 0.52506,4.92443c0.06134,1.2148 0.03448,2.42196 -0.06516,3.63295c-0.3372,4.26535 -1.67088,8.17036 -4.27678,11.60412c-1.3068,1.72451 -2.81672,3.24203 -4.4876,4.60246c-2.78221,2.2649 -5.86718,4.02388 -9.14367,5.45328c-2.60209,1.12669 -5.28469,1.99284 -8.01327,2.74012c-3.00446,0.82386 -6.0511,1.50608 -9.12843,2.01571c-1.95444,0.32577 -3.91653,0.57868 -5.89394,0.76653c-0.00771,0.00381 -0.02304,0.00762 -0.03448,0.00762c-0.00771,0 -0.01534,0.00381 -0.03067,0.00762c-2.70563,0.253 -5.42261,0.36025 -8.13968,0.35644c-1.90464,-0.00771 -3.81698,-0.06516 -5.71772,-0.19928c-2.50636,-0.18013 -5.00881,-0.45219 -7.49204,-0.85463c-3.38777,-0.55182 -6.73334,-1.31062 -9.99069,-2.40663c-2.14229,-0.71661 -4.22697,-1.57506 -6.2159,-2.65572c-2.79756,-1.52523 -5.2962,-3.42225 -7.3886,-5.84031c-2.2764,-2.62133 -3.87061,-5.60664 -4.72906,-8.97135c-0.45219,-1.76661 -0.66298,-3.5678 -0.64374,-5.39576c0.05744,-5.60664 2.61852,-11.07953 6.40746,-14.9496c5.85492,-5.98142 12.38979,-8.82481 21.40126,-13.77309l27.02877,-14.45722l14.24641,-7.06092l4.8286,-2.41435c2.5255,-1.27223 5.05093,-2.49855 7.56873,-3.77088c3.71345,-1.88168 7.44603,-3.73259 11.09441,-5.72923c1.82025,-0.99257 3.62524,-2.00809 5.3306,-3.18839c1.21098,-0.8393 2.35681,-1.75137 3.3149,-2.88186c2.60209,-3.06961 2.95083,-7.1357 0.76643,-10.56166c-0.90817,-1.42179 -2.16136,-2.6443 -3.51797,-3.64829c-6.39221,-4.50292 -14.67364,-4.29983 -21.72112,-1.41417c-1.79357,0.73195 -3.47587,1.66706 -4.95509,2.92405c-2.1883,1.86245 -3.60619,4.18476 -4.14656,7.01681c-1.04238,5.51082 1.5559,11.00239 3.52188,16.01112c0.60934,1.55971 2.17606,4.3238 1.79347,4.52207l-0.94274,0.45219l-17.5996,8.79885c-1.54456,0.54673 -0.89954,0.77468 -2.19965,-1.78004l-3.75373,-7.6434c-0.68575,-1.57378 -1.19565,-3.22296 -1.64402,-4.88614c-0.48285,-1.77433 -0.79329,-3.57551 -0.86997,-5.41881c-0.45219,-10.86827 8.1474,-18.34879 17.35241,-22.16187c4.54512,-1.87395 9.30474,-3.24212 14.17165,-3.93959c1.41417,-0.19928 2.83204,-0.34493 4.25383,-0.43684c5.74077,-0.37179 11.54659,0.00381 17.18001,1.16116c1.56353,0.32568 3.11943,0.70889 4.65619,1.15726c2.17669,0.64002 4.31127,1.4333 6.35764,2.41435c3.49121,1.66706 6.62217,3.84756 9.41582,6.52634c1.27614,1.22251 2.46035,2.52161 3.48358,3.96254c1.48685,2.08095 2.56372,4.35727 3.16153,6.85201M377.81669,199.02583c-0.84692,-2.49474 -1.80881,-4.98959 -2.80908,-7.42308c-0.28357,0.11498 -0.27206,0.10735 -0.4637,0.19928c-5.7905,2.78603 -11.57336,5.56064 -17.35241,8.36201c-3.97787,1.9314 -7.92507,3.91653 -11.7573,6.13541c-2.03876,1.1727 -4.0315,2.41816 -5.87488,3.88204c-2.18821,1.73221 -4.46835,3.83994 -5.11599,6.66817c-0.69746,3.00064 0,5.64485 2.09238,7.91355c2.87805,3.11562 7.34639,4.64466 11.4201,5.36898c6.48033,1.15353 13.47418,0.55572 19.28772,-2.69402c0.73958,-0.41007 1.41025,-0.87378 2.12686,-1.31453c1.70155,-1.05771 3.33794,-2.46025 4.71372,-3.91271c3.45283,-3.67515 5.46091,-8.48461 5.57969,-13.524c0.01915,-0.82777 -0.02295,-1.65554 -0.10726,-2.47179c-0.26062,-2.47179 -0.94274,-4.84394 -1.73984,-7.18932M407.41116,181.04684zM317.03335,182.79057zM315.92774,175.10116zM337.52445,177.39091zM375.75878,167.27564z" data-paper-data="{&quot;origPos&quot;:null}" fill="url(#color-3)" stroke-width="0.04223" stroke-linecap="butt"/><path d="M318.86581,217.94201c-2.28878,0.27765 -4.67235,0.89621 -5.90076,-0.3727c-2.10873,-6.21488 -1.74205,-13.37242 2.1512,-18.65582c4.36431,-5.92266 7.98884,-8.88965 27.9985,-19.1422c22.46145,-12.325 44.41563,-23.72656 45.07357,-23.60472c0.2826,0.05234 9.95602,-4.77806 15.3138,-7.54346c1.6882,-0.65198 5.45828,-2.35577 7.36694,-1.97319c6.10594,1.22388 6.97039,7.95654 2.68656,11.49337c-1.21311,1.00156 -16.07063,7.58158 -21.47618,10.28437c-11.03538,5.51769 -45.78876,24.82737 -52.56258,27.54414c-2.7926,1.12002 -11.49462,6.28114 -13.27129,8.93071c-1.67172,2.49307 -1.28655,10.76677 -2.87002,11.67162z" data-paper-data="{&quot;origPos&quot;:null}" fill="url(#color-4)" stroke-width="0.5" stroke-linecap="butt"/><path d="M394.49733,198.92101l-0.41905,-3.81335l0.71243,-4.35818l1.50854,-3.39429l1.50864,-1.88567l2.55618,6.20192l1.6343,5.69911z" data-paper-data="{&quot;origPos&quot;:null}" fill="#5d53ce" stroke-width="0.92358" stroke-linecap="round"/><path d="M439.92243,145.11494v0h-0.41905z" data-paper-data="{&quot;origPos&quot;:null}" fill="#6159de" stroke-width="0.92358" stroke-linecap="butt"/><path d="M409.73858,145.32292l2.95208,0.72756c0,0 3.55624,4.11619 3.74309,5.90373c0.26687,2.55278 -1.37056,6.02443 -1.37056,6.02443l-16.939,8.11168l-5.82521,-11.85017z" data-paper-data="{&quot;origPos&quot;:null}" fill="url(#color-5)" stroke-width="0.92358" stroke-linecap="round"/><path d="M368.08742,138.1316c-3.9676,4.30657 -0.95185,11.3324 -5.04196,13.6696c-0.49556,0.28317 -0.1386,1.60532 -0.6372,1.51719c-4.89766,-0.86564 -5.05261,-6.86917 -4.5749,-10.49084c0.60626,-4.59628 3.65077,-9.81399 7.32398,-12.62042c2.49544,-2.09649 6.95954,-4.59952 6.95954,-4.59952c0.52409,-0.27593 2.02478,-0.16854 2.06108,-0.16752c0.59017,-0.08005 1.04114,-0.01062 1.49411,0.35528c1.28117,0.60265 2.16805,1.90505 2.16805,3.41463c0.37321,0.74649 -0.07661,1.52223 -0.68153,2.16306c-0.37401,0.53327 -0.88255,0.9653 -1.47635,1.24678c-2.74597,2.08723 -5.23433,2.94959 -7.59481,5.51176z" data-paper-data="{&quot;origPos&quot;:null}" fill="url(#color-6)" stroke-width="0.5" stroke-linecap="butt"/><path d="M323.66403,217.21779l-8.66639,1.43173l-1.91037,-0.75882l-0.40892,-0.75072l-1.12453,-5.14784l0.53112,-6.13391l15.45813,0.31625c0,0 -2.08675,7.73211 -2.14044,8.29913c-0.0179,0.18899 -1.73861,2.74418 -1.73861,2.74418z" data-paper-data="{&quot;origPos&quot;:null}" fill="url(#color-7)" stroke-width="0.92358" stroke-linecap="round"/><path d="M401.17041,194.32018c1.69466,5.21038 2.02603,11.3064 2.02603,14.52177c0,8.49615 -5.80761,15.21974 -15.40355,20.81886c-2.3434,0.70236 -7.64842,3.91731 -19.25916,5.55527c-3.53967,0.33783 6.99241,-6.08011 10.03374,-7.92233c4.27435,-2.58908 9.52113,-4.64575 12.64857,-8.0387c3.32667,-3.60909 5.2802,-9.32577 5.02975,-12.76256c-0.15122,-2.07534 -0.41062,-4.77895 -1.06417,-6.73959c-0.1433,-0.39857 -0.22138,-0.82825 -0.22138,-1.27616c0,-0.79676 0.68473,-2.17459 0.7921,-2.31272c0.14654,-0.19597 0.82768,-2.31216 1.00329,-2.46045c1.76089,-1.48685 3.59144,-1.91481 4.41477,0.6166z" data-paper-data="{&quot;origPos&quot;:null}" fill="url(#color-8)" stroke-width="0.5" stroke-linecap="butt"/></g><g data-paper-data="{&quot;origPos&quot;:null}" stroke="none" stroke-width="1.25774" stroke-linecap="butt"><path d="M63.90589,221.32621c0,0.85491 -0.11084,1.6266 -0.33255,2.31517c-0.21102,0.67788 -0.49458,1.27687 -0.84949,1.79914c-0.35492,0.52118 -0.77169,0.96568 -1.24924,1.33238c-0.47745,0.3656 -0.97102,0.66619 -1.48263,0.89856c-0.51051,0.23338 -1.03177,0.4061 -1.56466,0.51695c-0.52229,0.11084 -1.01686,0.16627 -1.48263,0.16627h-16.70447v-4.33067h16.70447c0.83246,0 1.47618,-0.24407 1.93136,-0.73228c0.46685,-0.48813 0.70025,-1.14365 0.70025,-1.96549c0,-0.39967 -0.06179,-0.76636 -0.1833,-1.09889c-0.12263,-0.33355 -0.29948,-0.62136 -0.53297,-0.86652c-0.2217,-0.24407 -0.49992,-0.43281 -0.83246,-0.56602c-0.32186,-0.13322 -0.68322,-0.19932 -1.08287,-0.19932h-9.95956c-0.69924,0 -1.4539,-0.12254 -2.265,-0.36661c-0.81008,-0.25585 -1.56576,-0.66084 -2.265,-1.21619c-0.68856,-0.55423 -1.26517,-1.28229 -1.73202,-2.18186c-0.45517,-0.89856 -0.6822,-1.99856 -0.6822,-3.29677c0,-1.29933 0.22704,-2.39287 0.6822,-3.28075c0.46685,-0.89958 1.04348,-1.62651 1.73202,-2.18186c0.69924,-0.56704 1.45492,-0.97203 2.265,-1.21619c0.8111,-0.25474 1.56576,-0.38264 2.265,-0.38264h14.73896v4.32957h-14.73896c-0.82178,0 -1.4656,0.2505 -1.93136,0.74933c-0.45517,0.49992 -0.68331,1.16076 -0.68331,1.98253c0,0.83246 0.22814,1.49329 0.68331,1.98153c0.46577,0.47745 1.10957,0.71627 1.93136,0.71627h9.95956h0.03306c0.46678,0.0106 0.96034,0.07779 1.48263,0.19932c0.52118,0.11187 1.03813,0.28881 1.54872,0.53288c0.52219,0.24518 1.01576,0.55533 1.48263,0.93262c0.46577,0.36669 0.87721,0.81118 1.23212,1.33238c0.36669,0.52229 0.65448,1.12237 0.8655,1.79924c0.21102,0.67678 0.31652,1.44312 0.31652,2.29796zM88.88796,228.35469h-15.6226c-0.39967,0 -0.83246,-0.04482 -1.29822,-0.1333c-0.45517,-0.10016 -0.91026,-0.24941 -1.36644,-0.44975c-0.44339,-0.19932 -0.87085,-0.45517 -1.28229,-0.76636c-0.41035,-0.32195 -0.77703,-0.70458 -1.09889,-1.14906c-0.31127,-0.45508 -0.56068,-0.97635 -0.74933,-1.56576c-0.18864,-0.59898 -0.28347,-1.2705 -0.28347,-2.01449v-11.72464c0,-0.39974 0.04474,-0.82712 0.13322,-1.28229c0.10016,-0.46685 0.25041,-0.92195 0.44975,-1.36644c0.20042,-0.45508 0.46152,-0.88788 0.78347,-1.29822c0.32186,-0.41144 0.70449,-0.77169 1.14899,-1.08296c0.45517,-0.32186 0.97635,-0.57771 1.56474,-0.76636c0.58942,-0.18864 1.25559,-0.28245 1.99847,-0.28245h15.6226v4.32957h-15.6226c-0.56593,0 -0.99872,0.15034 -1.29822,0.44984c-0.30059,0.29948 -0.44984,0.74398 -0.44984,1.33238v11.69158c0,0.55533 0.14923,0.98805 0.44984,1.29933c0.31017,0.29948 0.74398,0.44873 1.29822,0.44873h15.6226zM116.85011,212.49972c0,0.98813 -0.12153,1.87068 -0.36661,2.64763c-0.24416,0.77813 -0.5767,1.4656 -0.99872,2.06568c-0.41144,0.58839 -0.88788,1.09364 -1.43254,1.51568c-0.54364,0.42211 -1.11601,0.77169 -1.71499,1.0489c-0.58839,0.26644 -1.18847,0.46042 -1.79924,0.58297c-0.59898,0.12263 -1.1661,0.18339 -1.69898,0.18339l9.04397,7.81075h-6.69482l-9.02685,-7.81075h-3.11449v-4.33067h9.79219c0.54466,-0.04372 1.03813,-0.15457 1.48263,-0.33255c0.45508,-0.18864 0.84415,-0.43914 1.1661,-0.74933c0.33255,-0.31127 0.58831,-0.68322 0.76636,-1.11601c0.17695,-0.44441 0.26644,-0.94965 0.26644,-1.51568v-2.73179c0,-0.24416 -0.03407,-0.42746 -0.10016,-0.54899c-0.05543,-0.13322 -0.13322,-0.22805 -0.23347,-0.28347c-0.08848,-0.0661 -0.18864,-0.1056 -0.29948,-0.11619c-0.10016,-0.01178 -0.19399,-0.01712 -0.28356,-0.01712h-14.28913v19.5525h-4.33059v-21.70021c0,-0.30059 0.05644,-0.58305 0.16729,-0.84949c0.11084,-0.26644 0.26119,-0.49992 0.44984,-0.70025c0.19932,-0.19932 0.43271,-0.35499 0.69924,-0.46585c0.26644,-0.11084 0.55526,-0.16627 0.86542,-0.16627h16.43793c0.96576,0 1.7822,0.17695 2.44838,0.53297c0.66619,0.34423 1.20441,0.78237 1.61585,1.31525c0.42211,0.52229 0.72162,1.08831 0.89856,1.69906c0.18966,0.61067 0.28347,1.18203 0.28347,1.71499zM140.83237,218.59547h-13.67303v-4.36364h13.67303zM142.78074,228.35469h-15.62141c-0.60018,0 -1.25457,-0.1056 -1.96549,-0.31661c-0.70991,-0.21102 -1.37076,-0.55533 -1.98144,-1.03279c-0.60008,-0.48821 -1.10534,-1.11601 -1.51568,-1.88128c-0.39974,-0.77703 -0.60018,-1.72677 -0.60018,-2.84805v-15.6215c0,-0.30059 0.05654,-0.58305 0.16737,-0.84949c0.11084,-0.26644 0.26119,-0.49992 0.44984,-0.70025c0.19932,-0.19932 0.43271,-0.35499 0.69924,-0.46585c0.26644,-0.11084 0.55526,-0.16627 0.86542,-0.16627h19.50233v4.32957h-17.35353v13.47379c0,0.56593 0.15034,0.99872 0.44984,1.29933c0.29948,0.29948 0.73865,0.44873 1.31525,0.44873h15.58845zM168.89479,228.35469h-19.75175c-0.31127,0 -0.60008,-0.05543 -0.86661,-0.16627c-0.26644,-0.11084 -0.49882,-0.26119 -0.69915,-0.44984c-0.18873,-0.20042 -0.33788,-0.43281 -0.44984,-0.69924c-0.11084,-0.26644 -0.16627,-0.55533 -0.16627,-0.86652v-21.70021h4.33067v19.55141h17.60293zM195.47559,226.17282c0,0.31119 -0.05543,0.60008 -0.16737,0.86652c-0.11084,0.26644 -0.26644,0.49882 -0.46577,0.69924c-0.20033,0.18864 -0.43271,0.33898 -0.69924,0.44984c-0.26644,0.11084 -0.54991,0.16627 -0.84949,0.16627h-9.75915c-0.92204,0 -1.85466,-0.10025 -2.79797,-0.29958c-0.94433,-0.20033 -1.85992,-0.50516 -2.7489,-0.91661c-0.87611,-0.42101 -1.70322,-0.95398 -2.48135,-1.59882c-0.77703,-0.64381 -1.45915,-1.40381 -2.04856,-2.28101c-0.5767,-0.8889 -1.03177,-1.8994 -1.36542,-3.03135c-0.33255,-1.14365 -0.49992,-2.41525 -0.49992,-3.81373v-11.941h4.33067v11.941c0,1.22153 0.16627,2.2533 0.49992,3.09746c0.34423,0.84424 0.77703,1.54872 1.29822,2.11475c0.52229,0.56704 1.09466,1.01043 1.7161,1.33229c0.62136,0.32297 1.20974,0.56177 1.76508,0.71627c0.56593,0.15568 1.06051,0.25585 1.48263,0.30059c0.43271,0.03306 0.71627,0.04907 0.84949,0.04907h7.61033v-19.55141h4.33067zM211.41361,212.99963l7.2949,-8.52702h5.91135l-10.27507,11.97406l10.20896,11.90803h-5.8794l-7.26074,-8.46092l-7.22769,8.46092h-5.89643l10.19304,-11.90803l-10.22608,-11.97406h5.86237zM246.98729,218.59547h-13.67303v-4.36364h13.67303zM248.93566,228.35469h-15.62141c-0.60008,0 -1.25457,-0.1056 -1.96549,-0.31661c-0.71093,-0.21102 -1.37076,-0.55533 -1.98144,-1.03279c-0.60008,-0.48821 -1.10534,-1.11601 -1.51568,-1.88128c-0.39974,-0.77703 -0.60008,-1.72677 -0.60008,-2.84805v-15.6215c0,-0.30059 0.05543,-0.58305 0.16627,-0.84949c0.11187,-0.26644 0.2611,-0.49992 0.44975,-0.70025c0.20042,-0.19932 0.43382,-0.35499 0.70034,-0.46585c0.26644,-0.11084 0.55423,-0.16627 0.86542,-0.16627h19.50233v4.32957h-17.35353v13.47379c0,0.56593 0.14923,0.99872 0.44984,1.29933c0.29948,0.29948 0.73763,0.44873 1.31525,0.44873h15.58845z" fill="url(#color-9)"/><path d="M61.87197,219.75843c0,0.85491 -0.11084,1.6266 -0.33255,2.31517c-0.21102,0.67788 -0.49458,1.27687 -0.84949,1.79914c-0.35492,0.52118 -0.77169,0.96568 -1.24924,1.33238c-0.47745,0.3656 -0.97102,0.66619 -1.48263,0.89856c-0.51051,0.23338 -1.03177,0.4061 -1.56466,0.51695c-0.52229,0.11084 -1.01686,0.16627 -1.48263,0.16627h-16.70447v-4.33067h16.70447c0.83246,0 1.47618,-0.24407 1.93136,-0.73228c0.46685,-0.48813 0.70025,-1.14365 0.70025,-1.96549c0,-0.39967 -0.06179,-0.76636 -0.1833,-1.09889c-0.12263,-0.33355 -0.29948,-0.62136 -0.53297,-0.86652c-0.2217,-0.24407 -0.49992,-0.43281 -0.83246,-0.56602c-0.32186,-0.13322 -0.68322,-0.19932 -1.08287,-0.19932h-9.95956c-0.69924,0 -1.4539,-0.12254 -2.265,-0.36661c-0.81008,-0.25585 -1.56576,-0.66084 -2.265,-1.21619c-0.68856,-0.55423 -1.26517,-1.28229 -1.73202,-2.18186c-0.45517,-0.89856 -0.6822,-1.99856 -0.6822,-3.29677c0,-1.29933 0.22704,-2.39287 0.6822,-3.28075c0.46685,-0.89958 1.04348,-1.62651 1.73202,-2.18186c0.69924,-0.56704 1.45492,-0.97203 2.265,-1.21619c0.8111,-0.25474 1.56576,-0.38264 2.265,-0.38264h14.73896v4.32957h-14.73896c-0.82178,0 -1.4656,0.2505 -1.93136,0.74933c-0.45517,0.49992 -0.68331,1.16076 -0.68331,1.98253c0,0.83246 0.22814,1.49329 0.68331,1.98153c0.46577,0.47745 1.10957,0.71627 1.93136,0.71627h9.95956h0.03306c0.46678,0.0106 0.96034,0.07779 1.48263,0.19932c0.52118,0.11187 1.03813,0.28881 1.54872,0.53288c0.52219,0.24518 1.01576,0.55533 1.48263,0.93262c0.46577,0.36669 0.87721,0.81118 1.23212,1.33238c0.36669,0.52229 0.65448,1.12237 0.8655,1.79924c0.21102,0.67678 0.31652,1.44312 0.31652,2.29796zM86.85404,226.78689h-15.6226c-0.39967,0 -0.83246,-0.04482 -1.29822,-0.1333c-0.45517,-0.10016 -0.91026,-0.24941 -1.36644,-0.44975c-0.44339,-0.19932 -0.87085,-0.45517 -1.28229,-0.76636c-0.41035,-0.32195 -0.77703,-0.70458 -1.09889,-1.14906c-0.31127,-0.45508 -0.56068,-0.97635 -0.74933,-1.56576c-0.18864,-0.59898 -0.28347,-1.2705 -0.28347,-2.01449v-11.72464c0,-0.39974 0.04474,-0.82712 0.13322,-1.28229c0.10016,-0.46685 0.25041,-0.92195 0.44975,-1.36644c0.20042,-0.45508 0.46152,-0.88788 0.78347,-1.29822c0.32186,-0.41144 0.70449,-0.77169 1.14899,-1.08296c0.45517,-0.32186 0.97635,-0.57771 1.56474,-0.76636c0.58942,-0.18864 1.25559,-0.28245 1.99847,-0.28245h15.6226v4.32957h-15.6226c-0.56593,0 -0.99872,0.15034 -1.29822,0.44984c-0.30059,0.29948 -0.44984,0.74398 -0.44984,1.33238v11.69158c0,0.55533 0.14923,0.98805 0.44984,1.29933c0.31017,0.29948 0.74398,0.44873 1.29822,0.44873h15.6226zM114.81622,210.93193c0,0.98813 -0.12153,1.87068 -0.36661,2.64763c-0.24416,0.77813 -0.5767,1.4656 -0.99872,2.06568c-0.41144,0.58839 -0.88788,1.09364 -1.43254,1.51568c-0.54364,0.42211 -1.11601,0.77169 -1.71499,1.0489c-0.58839,0.26644 -1.18847,0.46042 -1.79924,0.58297c-0.59898,0.12263 -1.1661,0.18339 -1.69898,0.18339l9.04397,7.81075h-6.69482l-9.02685,-7.81075h-3.11449v-4.33067h9.79219c0.54466,-0.04372 1.03813,-0.15457 1.48263,-0.33255c0.45508,-0.18864 0.84415,-0.43914 1.1661,-0.74933c0.33255,-0.31127 0.58831,-0.68322 0.76636,-1.11601c0.17695,-0.44441 0.26644,-0.94965 0.26644,-1.51568v-2.73179c0,-0.24416 -0.03407,-0.42746 -0.10016,-0.54899c-0.05543,-0.13322 -0.13322,-0.22805 -0.23347,-0.28347c-0.08848,-0.0661 -0.18864,-0.1056 -0.29948,-0.11619c-0.10016,-0.01178 -0.19399,-0.01712 -0.28356,-0.01712h-14.28913v19.5525h-4.33059v-21.70021c0,-0.30059 0.05644,-0.58305 0.16729,-0.84949c0.11084,-0.26644 0.26119,-0.49992 0.44984,-0.70025c0.19932,-0.19932 0.43271,-0.35499 0.69924,-0.46585c0.26644,-0.11084 0.55526,-0.16627 0.86542,-0.16627h16.43793c0.96576,0 1.7822,0.17695 2.44838,0.53297c0.66619,0.34423 1.20441,0.78237 1.61585,1.31525c0.42211,0.52229 0.72162,1.08831 0.89856,1.69906c0.18966,0.61067 0.28347,1.18203 0.28347,1.71499zM138.79844,217.02767h-13.67303v-4.36364h13.67303zM140.74687,226.78689h-15.62141c-0.60018,0 -1.25457,-0.1056 -1.96549,-0.31661c-0.70991,-0.21102 -1.37076,-0.55533 -1.98144,-1.03279c-0.60008,-0.48821 -1.10534,-1.11601 -1.51568,-1.88128c-0.39974,-0.77703 -0.60018,-1.72677 -0.60018,-2.84805v-15.6215c0,-0.30059 0.05654,-0.58305 0.16737,-0.84949c0.11084,-0.26644 0.26119,-0.49992 0.44984,-0.70025c0.19932,-0.19932 0.43271,-0.35499 0.69924,-0.46585c0.26644,-0.11084 0.55526,-0.16627 0.86542,-0.16627h19.50233v4.32957h-17.35353v13.47379c0,0.56593 0.15034,0.99872 0.44984,1.29933c0.29948,0.29948 0.73865,0.44873 1.31525,0.44873h15.58845zM166.86088,226.78689h-19.75175c-0.31127,0 -0.60008,-0.05543 -0.86661,-0.16627c-0.26644,-0.11084 -0.49882,-0.26119 -0.69915,-0.44984c-0.18873,-0.20042 -0.33788,-0.43281 -0.44984,-0.69924c-0.11084,-0.26644 -0.16627,-0.55533 -0.16627,-0.86652v-21.70021h4.33067v19.55141h17.60293zM193.44171,224.60505c0,0.31119 -0.05543,0.60008 -0.16737,0.86652c-0.11084,0.26644 -0.26644,0.49882 -0.46577,0.69924c-0.20033,0.18864 -0.43271,0.33898 -0.69924,0.44984c-0.26644,0.11084 -0.54991,0.16627 -0.84949,0.16627h-9.75915c-0.92204,0 -1.85466,-0.10025 -2.79797,-0.29958c-0.94433,-0.20033 -1.85992,-0.50516 -2.7489,-0.91661c-0.87611,-0.42101 -1.70322,-0.95398 -2.48135,-1.59882c-0.77703,-0.64381 -1.45915,-1.40381 -2.04856,-2.28101c-0.5767,-0.8889 -1.03177,-1.8994 -1.36542,-3.03135c-0.33255,-1.14365 -0.49992,-2.41525 -0.49992,-3.81373v-11.941h4.33067v11.941c0,1.22153 0.16627,2.2533 0.49992,3.09746c0.34423,0.84424 0.77703,1.54872 1.29822,2.11475c0.52229,0.56704 1.09466,1.01043 1.7161,1.33229c0.62136,0.32297 1.20974,0.56177 1.76508,0.71627c0.56593,0.15568 1.06051,0.25585 1.48263,0.30059c0.43271,0.03306 0.71627,0.04907 0.84949,0.04907h7.61033v-19.55141h4.33067zM209.37973,211.43183l7.2949,-8.52702h5.91135l-10.27507,11.97406l10.20896,11.90803h-5.8794l-7.26074,-8.46092l-7.22769,8.46092h-5.89643l10.19304,-11.90803l-10.22608,-11.97406h5.86237zM244.9534,217.02767h-13.67303v-4.36364h13.67303zM246.90178,226.78689h-15.62141c-0.60008,0 -1.25457,-0.1056 -1.96549,-0.31661c-0.71093,-0.21102 -1.37076,-0.55533 -1.98144,-1.03279c-0.60008,-0.48821 -1.10534,-1.11601 -1.51568,-1.88128c-0.39974,-0.77703 -0.60008,-1.72677 -0.60008,-2.84805v-15.6215c0,-0.30059 0.05543,-0.58305 0.16627,-0.84949c0.11187,-0.26644 0.2611,-0.49992 0.44975,-0.70025c0.20042,-0.19932 0.43382,-0.35499 0.70034,-0.46585c0.26644,-0.11084 0.55423,-0.16627 0.86542,-0.16627h19.50233v4.32957h-17.35353v13.47379c0,0.56593 0.14923,0.99872 0.44984,1.29933c0.29948,0.29948 0.73763,0.44873 1.31525,0.44873h15.58845z" fill="url(#color-10)"/></g><path d="M175.44444,166.52609l12.49309,-10.94293l17.1133,1.54319l7.22072,14.40572l-6.03624,16.30362l-18.82891,4.85721l-12.43576,-7.92586zM197.34395,178.51204l1.00974,-7.78862l-10.90524,-2.65953l-0.71426,11.00944z" data-paper-data="{&quot;origPos&quot;:null}" fill="url(#color-11)" stroke="#2b2b2b" stroke-width="6" stroke-linecap="butt"/><path d="M39.45974,189.14052l10.52058,-37.29657l9.20318,2.04548l3.54145,8.73727l5.90954,-9.68919l9.28601,0.08042l12.19285,37.27353l-15.74947,3.50537l-5.65584,-26.09791l-6.62504,11.66056l-5.65808,-11.74615l-0.11688,24.98537z" data-paper-data="{&quot;origPos&quot;:null}" fill="url(#color-12)" stroke="#2b2b2b" stroke-width="6" stroke-linecap="butt"/><path d="M84.86714,189.44417l13.41158,-37.44424l18.04447,4.48869l11.38595,37.29288l-14.05355,-0.72834l-2.30642,-10.47282l-9.75852,-1.03924l-5.44204,10.51409zM110.95638,172.05319l-2.01949,-9.87824l-4.52548,-0.24788l-2.54273,9.55624z" data-paper-data="{&quot;origPos&quot;:null}" fill="url(#color-13)" stroke="#2b2b2b" stroke-width="6" stroke-linecap="butt"/><path d="M102.67647,171.48329l1.73493,-9.55624l4.52548,0.24788l1.6156,9.87825z" data-paper-data="{&quot;origPos&quot;:null}" fill="none" stroke="#2b2b2b" stroke-width="6" stroke-linecap="butt"/><path d="M124.61677,192.03899l3.85562,-41.13032l16.90157,1.05313l12.36972,6.76519l0.40605,15.82838l-13.1688,3.95997l17.83747,8.87203l-13.66685,6.40948l-11.42408,-10.02819l-3.53693,8.97627zM147.87923,170.53346l-2.62533,-8.54848l-7.0682,-1.32976l-0.20195,11.96787z" data-paper-data="{&quot;origPos&quot;:null}" fill="url(#color-14)" stroke="#2b2b2b" stroke-width="6" stroke-linecap="butt"/><path d="M159.59484,193.10431l2.16844,-38.942l10.14843,0.08727l2.88515,38.14729z" data-paper-data="{&quot;origPos&quot;:null,&quot;origRot&quot;:0}" fill="url(#color-15)" stroke="#2b2b2b" stroke-width="6" stroke-linecap="butt"/><path d="M175.44444,166.52609l12.49309,-10.94293l17.1133,1.54319l7.22072,14.40572l-6.03624,16.30362l-18.82891,4.85721l-12.43576,-7.92586zM197.34395,178.51204l1.00974,-7.78862l-10.90524,-2.65953l-0.71426,11.00944z" data-paper-data="{&quot;origPos&quot;:null}" fill="url(#color-16)" stroke="#2b2b2b" stroke-width="0" stroke-linecap="butt"/><path d="M212.96937,191.67525l0.81361,-41.51026l11.63371,0.6732l1.45679,16.86547l13.31913,-17.15722l10.34871,6.85561l-17.8608,16.30362l15.25929,16.35742l-9.22397,2.99009l-12.23188,-14.96732l-2.72913,13.91539z" data-paper-data="{&quot;origPos&quot;:null}" fill="url(#color-17)" stroke="#2b2b2b" stroke-width="6" stroke-linecap="butt"/><path d="M245.9503,188.30439l13.41158,-37.44424l18.04447,4.48869l11.38595,37.29287l-14.05355,-0.72834l-2.30642,-10.47282l-9.75852,-1.03925l-5.44204,10.51409zM272.03954,170.91339l-2.01949,-9.87825l-4.52548,-0.24788l-2.54273,9.55624z" data-paper-data="{&quot;origPos&quot;:null}" fill="url(#color-18)" stroke="#2b2b2b" stroke-width="6" stroke-linecap="butt"/><path d="M263.75964,170.34349l1.73493,-9.55624l4.52548,0.24788l1.6156,9.87825z" data-paper-data="{&quot;origPos&quot;:null}" fill="none" stroke="#2b2b2b" stroke-width="6" stroke-linecap="butt"/><path d="M287.01674,191.27913l3.85562,-41.13032l16.90157,1.05313l12.36972,6.76519l0.40605,15.82838l-13.1688,3.95997l17.83747,8.87203l-13.66685,6.40948l-11.42408,-10.02819l-3.53693,8.97627zM310.27919,169.77359l-2.62533,-8.54848l-7.0682,-1.32976l-0.20195,11.96787z" data-paper-data="{&quot;origPos&quot;:null}" fill="url(#color-19)" stroke="#2b2b2b" stroke-width="6" stroke-linecap="butt"/><path d="M332.65345,193.0869l1.20393,-28.09777l-13.8723,2.51859l0.77984,-16.38986l44.56582,3.50008l-4.67679,15.60217l-13.77834,-3.63085l-0.09974,27.26264z" data-paper-data="{&quot;origPos&quot;:null,&quot;origRot&quot;:0}" fill="url(#color-20)" stroke="#2b2b2b" stroke-width="6" stroke-linecap="butt"/><path d="M39.45974,189.14052l10.52058,-37.29657l9.20318,2.04548l3.54145,8.73727l5.90954,-9.68919l9.28601,0.08042l12.19285,37.27353l-15.74947,3.50537l-5.65584,-26.09791l-6.62504,11.66056l-5.65808,-11.74615l-0.11688,24.98537z" data-paper-data="{&quot;origPos&quot;:null}" fill="url(#color-21)" stroke="#2b2b2b" stroke-width="0" stroke-linecap="butt"/><path d="M84.86714,189.44417l13.41158,-37.44424l18.04447,4.48869l11.38595,37.29288l-14.05355,-0.72834l-2.30642,-10.47282l-9.75852,-1.03924l-5.44204,10.51409zM110.95638,172.05318l-2.01949,-9.87824l-4.52548,-0.24788l-2.54273,9.55624z" data-paper-data="{&quot;origPos&quot;:null}" fill="url(#color-22)" stroke="#2b2b2b" stroke-width="0" stroke-linecap="butt"/><path d="M124.61677,192.03899l3.85562,-41.13032l16.90157,1.05313l12.36972,6.76519l0.40605,15.82838l-13.1688,3.95997l17.83747,8.87203l-13.66685,6.40948l-11.42408,-10.02819l-3.53693,8.97627zM147.87923,170.53346l-2.62533,-8.54848l-7.0682,-1.32976l-0.20195,11.96787z" data-paper-data="{&quot;origPos&quot;:null}" fill="url(#color-23)" stroke="#2b2b2b" stroke-width="0" stroke-linecap="butt"/><path d="M159.59484,193.10431l2.16844,-38.942l10.14843,0.08727l2.88515,38.14729z" data-paper-data="{&quot;origPos&quot;:null,&quot;origRot&quot;:0}" fill="url(#color-24)" stroke="#2b2b2b" stroke-width="0" stroke-linecap="butt"/><path d="M212.96937,191.67525l0.81361,-41.51026l11.63371,0.6732l1.45679,16.86547l13.31913,-17.15722l10.34871,6.85561l-17.8608,16.30362l15.25929,16.35742l-9.22397,2.99009l-12.23188,-14.96732l-2.72913,13.91539z" data-paper-data="{&quot;origPos&quot;:null}" fill="url(#color-25)" stroke="#2b2b2b" stroke-width="0" stroke-linecap="butt"/><path d="M245.9503,188.30439l13.41158,-37.44424l18.04447,4.48869l11.38595,37.29287l-14.05355,-0.72834l-2.30642,-10.47282l-9.75852,-1.03925l-5.44204,10.51409zM272.03954,170.91338l-2.01949,-9.87824l-4.52548,-0.24788l-2.54273,9.55624z" data-paper-data="{&quot;origPos&quot;:null}" fill="url(#color-26)" stroke="#2b2b2b" stroke-width="0" stroke-linecap="butt"/><path d="M287.01674,191.27913l3.85562,-41.13032l16.90157,1.05313l12.36972,6.76519l0.40605,15.82838l-13.1688,3.95997l17.83747,8.87203l-13.66685,6.40948l-11.42408,-10.02819l-3.53693,8.97627zM310.27919,169.77359l-2.62533,-8.54848l-7.0682,-1.32976l-0.20195,11.96787z" data-paper-data="{&quot;origPos&quot;:null}" fill="url(#color-27)" stroke="#2b2b2b" stroke-width="0" stroke-linecap="butt"/><path d="M332.65345,193.0869l1.20393,-28.09777l-13.8723,2.51859l0.77984,-16.38986l44.56582,3.50008l-4.67679,15.60217l-13.77834,-3.63085l-0.09974,27.26264z" data-paper-data="{&quot;origPos&quot;:null,&quot;origRot&quot;:0}" fill="url(#color-28)" stroke="#2b2b2b" stroke-width="0" stroke-linecap="butt"/></g></g></g></svg>