<svg version="1.1" xmlns="http://www.w3.org/2000/svg" xmlns:xlink="http://www.w3.org/1999/xlink" width="66.32349" height="26.2205" viewBox="0,0,66.32349,26.2205"><defs><linearGradient x1="240.00001" y1="166.88975" x2="240.00001" y2="193.11025" gradientUnits="userSpaceOnUse" id="color-1"><stop offset="0" stop-color="#a7a7a7"/><stop offset="1" stop-color="#7c7c7c"/></linearGradient><linearGradient x1="230.44158" y1="181.08836" x2="230.44158" y2="191.59205" gradientUnits="userSpaceOnUse" id="color-2"><stop offset="0" stop-color="#00385b"/><stop offset="1" stop-color="#002e93"/></linearGradient><linearGradient x1="240.30161" y1="181.54332" x2="240.30161" y2="190.63755" gradientUnits="userSpaceOnUse" id="color-3"><stop offset="0" stop-color="#00385b"/><stop offset="1" stop-color="#002e93"/></linearGradient><linearGradient x1="249.74203" y1="181.1055" x2="249.74203" y2="190.95318" gradientUnits="userSpaceOnUse" id="color-4"><stop offset="0" stop-color="#00385b"/><stop offset="1" stop-color="#002e93"/></linearGradient><linearGradient x1="230.44157" y1="181.08837" x2="230.44157" y2="191.59204" gradientUnits="userSpaceOnUse" id="color-5"><stop offset="0" stop-color="#5276bd"/><stop offset="1" stop-color="#69d9ff"/></linearGradient><linearGradient x1="240.3016" y1="181.5433" x2="240.3016" y2="190.63753" gradientUnits="userSpaceOnUse" id="color-6"><stop offset="0" stop-color="#5276bd"/><stop offset="1" stop-color="#69d9ff"/></linearGradient><linearGradient x1="249.742" y1="181.1055" x2="249.742" y2="190.95316" gradientUnits="userSpaceOnUse" id="color-7"><stop offset="0" stop-color="#5276bd"/><stop offset="1" stop-color="#69d9ff"/></linearGradient><linearGradient x1="229.56703" y1="168.7467" x2="229.56703" y2="179.08296" gradientUnits="userSpaceOnUse" id="color-8"><stop offset="0" stop-color="#00395c"/><stop offset="1" stop-color="#003197"/></linearGradient><linearGradient x1="239.96195" y1="169.75976" x2="239.96195" y2="178.64127" gradientUnits="userSpaceOnUse" id="color-9"><stop offset="0" stop-color="#00395c"/><stop offset="1" stop-color="#003197"/></linearGradient><linearGradient x1="250.28377" y1="168.40796" x2="250.28377" y2="179.31719" gradientUnits="userSpaceOnUse" id="color-10"><stop offset="0" stop-color="#00395c"/><stop offset="1" stop-color="#003197"/></linearGradient><linearGradient x1="229.56701" y1="168.7467" x2="229.56701" y2="179.08296" gradientUnits="userSpaceOnUse" id="color-11"><stop offset="0" stop-color="#5276bd"/><stop offset="1" stop-color="#69d9ff"/></linearGradient><linearGradient x1="239.96195" y1="169.75976" x2="239.96195" y2="178.64127" gradientUnits="userSpaceOnUse" id="color-12"><stop offset="0" stop-color="#5276bd"/><stop offset="1" stop-color="#69d9ff"/></linearGradient><linearGradient x1="250.28377" y1="168.40795" x2="250.28377" y2="179.31718" gradientUnits="userSpaceOnUse" id="color-13"><stop offset="0" stop-color="#5276bd"/><stop offset="1" stop-color="#69d9ff"/></linearGradient></defs><g transform="translate(-206.83826,-166.88975)"><g data-paper-data="{&quot;isPaintingLayer&quot;:true}" fill-rule="nonzero" stroke-linecap="butt" stroke-linejoin="miter" stroke-miterlimit="10" stroke-dasharray="" stroke-dashoffset="0" style="mix-blend-mode: normal"><path d="M207.98857,168.24891c0,0 19.17748,-1.35916 31.45205,-1.35916c12.80097,0 32.80089,1.35916 32.80089,1.35916c0,0 0.92025,7.32013 0.92025,11.46167c0,5.03048 -0.92025,12.04051 -0.92025,12.04051c0,0 -19.80915,1.35916 -32.34076,1.35916c-12.54392,0 -31.91217,-1.35916 -31.91217,-1.35916c0,0 -1.15031,-7.41612 -1.15031,-12.3803c0,-4.20785 1.15031,-11.12188 1.15031,-11.12188z" fill="#ffffff" stroke="url(#color-1)" stroke-width="0"/><g><g><g fill="none" stroke-width="1.5"><path d="M228.78096,181.41636l3.34043,4.71214l-0.328,-4.71214l3.82283,-0.32801l-0.01922,9.19099l-2.91567,0.84952l-3.03163,-3.7844l0.23193,3.80362l-3.16682,0.44397l-1.44788,-9.09423z" stroke="url(#color-2)"/><path d="M244.51077,182.45116l-0.54073,2.78049l-3.64921,-0.96617l-0.23125,0.90854l2.81892,0.30879l-0.44397,2.10458l-2.54924,-0.3479l0.11665,0.96549l3.59089,-0.21204l0.32869,2.64462l-6.85515,-0.30811l-1.00391,-3.49482l1.25506,-5.2913z" stroke="url(#color-3)"/><path d="M254.55951,181.1055l0.17361,2.974l-3.24367,0.46319l1.02312,6.2362l-3.90037,0.1743l-0.1345,-5.90888l-3.36033,0.42544l-0.36643,-3.93948z" stroke="url(#color-4)"/></g><g stroke="none" stroke-width="1"><path d="M228.78096,181.41636l3.34043,4.71214l-0.328,-4.71214l3.82283,-0.32801l-0.01922,9.19099l-2.91567,0.84952l-3.03163,-3.7844l0.23193,3.80362l-3.16682,0.44397l-1.44788,-9.09423z" fill="url(#color-5)"/><path d="M244.51077,182.45116l-0.54073,2.78049l-3.64921,-0.96617l-0.23125,0.90854l2.81892,0.30879l-0.44397,2.10458l-2.54924,-0.3479l0.11665,0.96549l3.59089,-0.21204l0.32869,2.64462l-6.85515,-0.30811l-1.00391,-3.49482l1.25506,-5.2913z" fill="url(#color-6)"/><path d="M254.55951,181.1055l0.17361,2.974l-3.24367,0.46319l1.02312,6.2362l-3.90037,0.1743l-0.1345,-5.90888l-3.36033,0.42544l-0.36643,-3.93948z" fill="url(#color-7)"/></g></g><g><g fill="none" stroke-width="1.5"><path d="M234.38141,171.31996l-1.13635,2.63776l1.41494,1.71551l-2.01538,3.17368l-6.79819,0.23606l-1.3724,-9.11345l6.30482,-1.22281zM228.50546,173.59332l1.99479,-0.42888l0.17155,-1.05057l-2.29466,-0.64365zM228.78474,176.87407l1.86509,-0.23605l0.12901,-1.3079l-2.12311,-0.0645z" stroke="url(#color-8)"/><path d="M239.54644,170.26206l-0.67591,5.71469l2.04694,-0.30879l0.25115,-4.49873l3.74597,0.55994l-0.84951,4.9434l-1.79579,1.96871l-5.13622,-0.01922l-2.1238,-1.77588l0.36643,-7.08641z" stroke="url(#color-9)"/><path d="M250.85365,171.47802l-1.54464,1.29418l-0.03912,2.6453l1.77658,0.90716l1.79579,-0.69512l-0.23193,-0.54073l-2.00783,0.52151l-0.11529,-2.4717l4.88439,-0.36643l0.15439,4.71077l-4.90428,1.83422l-4.11241,-1.4671l-1.46779,-4.86586l2.25967,-3.53325l3.82282,-1.04303l3.55247,1.21663l-1.23585,2.87724z" stroke="url(#color-10)"/></g><g stroke="none" stroke-width="1"><path d="M234.38141,171.31996l-1.13635,2.63776l1.41494,1.71551l-2.01538,3.17368l-6.79819,0.23606l-1.3724,-9.11345l6.30482,-1.22281zM228.50546,173.59332l1.99479,-0.42888l0.17155,-1.05057l-2.29466,-0.64365zM228.78474,176.87407l1.86509,-0.23605l0.12901,-1.3079l-2.12311,-0.0645z" fill="url(#color-11)"/><path d="M239.54644,170.26206l-0.67591,5.71469l2.04694,-0.30879l0.25115,-4.49873l3.74597,0.55994l-0.84951,4.9434l-1.79579,1.96871l-5.13622,-0.01922l-2.1238,-1.77588l0.36643,-7.08641z" fill="url(#color-12)"/><path d="M250.85365,171.47802l-1.54464,1.29418l-0.03912,2.6453l1.77658,0.90716l1.79579,-0.69512l-0.23193,-0.54073l-2.00783,0.52151l-0.11529,-2.4717l4.88439,-0.36643l0.15439,4.71077l-4.90428,1.83422l-4.11241,-1.4671l-1.46779,-4.86586l2.25967,-3.53325l3.82282,-1.04303l3.55247,1.21663l-1.23585,2.87724z" fill="url(#color-13)"/></g></g></g></g></g></svg>