<svg version="1.1" xmlns="http://www.w3.org/2000/svg" xmlns:xlink="http://www.w3.org/1999/xlink" width="444.88136" height="238.16671" viewBox="0,0,444.88136,238.16671"><defs><radialGradient cx="34.11066" cy="110.02272" r="548.80445" gradientUnits="userSpaceOnUse" id="color-1"><stop offset="0" stop-color="#ffffff"/><stop offset="1" stop-color="#ffffff"/></radialGradient><linearGradient x1="38.5673" y1="194.34178" x2="38.5673" y2="268.08566" gradientUnits="userSpaceOnUse" id="color-2"><stop offset="0" stop-color="#000000"/><stop offset="1" stop-color="#000000"/></linearGradient><linearGradient x1="152.57311" y1="93.04302" x2="152.57311" y2="128.22162" gradientUnits="userSpaceOnUse" id="color-3"><stop offset="0" stop-color="#000000"/><stop offset="1" stop-color="#000000"/></linearGradient><linearGradient x1="302.34096" y1="140.7427" x2="302.34096" y2="185.99373" gradientUnits="userSpaceOnUse" id="color-4"><stop offset="0" stop-color="#000000"/><stop offset="1" stop-color="#000000"/></linearGradient><linearGradient x1="280.22406" y1="141.49021" x2="280.22406" y2="186.34899" gradientUnits="userSpaceOnUse" id="color-5"><stop offset="0" stop-color="#000000"/><stop offset="1" stop-color="#000000"/></linearGradient><linearGradient x1="234.14574" y1="140.28015" x2="234.14574" y2="186.5987" gradientUnits="userSpaceOnUse" id="color-6"><stop offset="0" stop-color="#000000"/><stop offset="1" stop-color="#000000"/></linearGradient><linearGradient x1="181.62451" y1="140.42256" x2="181.62451" y2="186.5987" gradientUnits="userSpaceOnUse" id="color-7"><stop offset="0" stop-color="#000000"/><stop offset="1" stop-color="#000000"/></linearGradient><linearGradient x1="125.05077" y1="140.24317" x2="125.05077" y2="186.5987" gradientUnits="userSpaceOnUse" id="color-8"><stop offset="0" stop-color="#000000"/><stop offset="1" stop-color="#000000"/></linearGradient><linearGradient x1="152.63162" y1="92.63346" x2="152.63162" y2="127.81206" gradientUnits="userSpaceOnUse" id="color-9"><stop offset="0" stop-color="#ffffff"/><stop offset="1" stop-color="#dae0e7"/></linearGradient><linearGradient x1="125.16778" y1="139.7751" x2="125.16778" y2="186.13063" gradientUnits="userSpaceOnUse" id="color-10"><stop offset="0" stop-color="#ff1818"/><stop offset="1" stop-color="#e11515"/></linearGradient><linearGradient x1="181.74153" y1="139.95449" x2="181.74153" y2="186.13063" gradientUnits="userSpaceOnUse" id="color-11"><stop offset="0" stop-color="#1ce11c"/><stop offset="1" stop-color="#1acf1a"/></linearGradient><linearGradient x1="234.26276" y1="139.81208" x2="234.26276" y2="186.13063" gradientUnits="userSpaceOnUse" id="color-12"><stop offset="0" stop-color="#239eff"/><stop offset="1" stop-color="#1e8be1"/></linearGradient><linearGradient x1="280.34108" y1="141.02213" x2="280.34108" y2="185.88092" gradientUnits="userSpaceOnUse" id="color-13"><stop offset="0" stop-color="#ffe530"/><stop offset="1" stop-color="#ffd628"/></linearGradient><linearGradient x1="302.45797" y1="140.27465" x2="302.45797" y2="185.52566" gradientUnits="userSpaceOnUse" id="color-14"><stop offset="0" stop-color="#a818ff"/><stop offset="1" stop-color="#9404e4"/></linearGradient><linearGradient x1="38.62582" y1="194.22477" x2="38.62582" y2="267.96866" gradientUnits="userSpaceOnUse" id="color-15"><stop offset="0" stop-color="#0160c0"/><stop offset="1" stop-color="#23f4f4"/></linearGradient><radialGradient cx="132.03921" cy="144.86754" r="17.01265" gradientUnits="userSpaceOnUse" id="color-16"><stop offset="0" stop-color="#ff7c7c"/><stop offset="1" stop-color="#ff7c7c" stop-opacity="0"/></radialGradient><radialGradient cx="342.41494" cy="177.40988" r="20.44239" gradientUnits="userSpaceOnUse" id="color-17"><stop offset="0" stop-color="#da9dff"/><stop offset="1" stop-color="#da9dff" stop-opacity="0"/></radialGradient><linearGradient x1="234.32595" y1="196.84301" x2="234.32595" y2="218.02319" gradientUnits="userSpaceOnUse" id="color-18"><stop offset="0" stop-color="#54a7dc"/><stop offset="1" stop-color="#4fa3da"/></linearGradient><linearGradient x1="91.83078" y1="227.65597" x2="94.99326" y2="248.59872" gradientUnits="userSpaceOnUse" id="color-19"><stop offset="0" stop-color="#6dbee4"/><stop offset="1" stop-color="#9ae6f6"/></linearGradient><linearGradient x1="398.45368" y1="241.31153" x2="394.23688" y2="259.61323" gradientUnits="userSpaceOnUse" id="color-20"><stop offset="0" stop-color="#94e1f4"/><stop offset="1" stop-color="#adf7fd"/></linearGradient><linearGradient x1="311.32933" y1="227.59547" x2="312.50874" y2="246.3396" gradientUnits="userSpaceOnUse" id="color-21"><stop offset="0" stop-color="#2fcce7"/><stop offset="1" stop-color="#9be6f6"/></linearGradient><radialGradient cx="287.3727" cy="91.12758" r="11.89143" gradientUnits="userSpaceOnUse" id="color-22"><stop offset="0" stop-color="#ffffff"/><stop offset="1" stop-color="#ffffff" stop-opacity="0"/></radialGradient></defs><g transform="translate(-17.55933,-60.91665)"><g data-paper-data="{&quot;isPaintingLayer&quot;:true}" fill-rule="nonzero" stroke-linejoin="miter" stroke-miterlimit="10" stroke-dasharray="" stroke-dashoffset="0" style="mix-blend-mode: normal"><path d="M25.27531,73.26222c0,0 128.63774,-12.34557 210.97247,-12.34557c85.86568,0 220.02013,12.34557 220.02013,12.34557c0,0 6.17278,66.49036 6.17278,104.10895c0,45.69299 -6.17278,109.36662 -6.17278,109.36662c0,0 -132.8748,12.34557 -216.93374,12.34557c-84.14147,0 -214.05886,-12.34557 -214.05886,-12.34557c0,0 -7.71598,-67.36227 -7.71598,-112.45301c0,-38.22086 7.71598,-101.02255 7.71598,-101.02255z" fill="#ffffff" stroke="url(#color-1)" stroke-width="0" stroke-linecap="butt"/><g><g stroke-linecap="butt"><path d="M218.22369,197.51047l15.88788,45.24668l-17.78027,2.74637l-2.80734,-12.00856l-13.87099,2.64761l-2.29153,9.26313l-0.27031,0.00679l-16.53405,-3.34538l13.89919,-47.72532zM251.00522,195.0378l0.83163,34.06121h0.23778l23.65835,-7.87613l0.27721,0.26095l-0.79302,18.8333l-36.81437,3.29998l-7.80744,-46.81564l20.17127,-2.02543zM319.36951,201.78449l10.72981,46.75807l-18.04028,0.71228l-1.44269,-12.2488l-14.13276,1.05993l-3.33251,8.94461l-0.26949,-0.02235l-16.11104,-5.19669l19.25386,-45.84487v-0.00164zM176.3259,209.77565l0.01884,0.23087l-2.81331,15.3282l-7.37659,5.29709l14.73691,9.72569l-14.4872,8.33437l-13.15427,-16.30411l-0.44033,0.03522l0.81794,13.57143l-0.56133,1.78345l-11.0516,0.8754l-4.0483,-21.23553l-3.84586,-21.48278l25.49761,-6.96633zM357.516,218.73312l10.65421,-14.16108l0.26352,0.04213l12.8822,10.65597l-0.06869,0.47286l-14.46309,12.05747l18.781,11.56565l-13.07025,12.52531l-12.51325,-14.86832l-11.97849,16.729l-0.26258,-0.04213l-14.36621,-8.59871l0.03862,-0.27557l15.43562,-15.64917l-17.95966,-12.2l11.07477,-13.61087zM129.31892,208.90188l-4.09721,12.70118l-0.23263,0.02832l-11.53301,-3.61065l-8.4529,7.73454l2.85625,12.09433l12.20936,3.32747l7.38431,-9.04852l8.34221,10.46289l0.08753,0.7124l-16.04141,11.54763l-23.00528,-5.10051l-9.81322,-22.52552l8.26919,-15.37805l15.74711,-8.14129zM413.35594,229.02693l16.51088,-10.23284l11.50738,15.07076l-26.74114,13.64l-4.29298,18.56299l-21.04503,-7.70096l9.59943,-18.8952l-9.52395,-27.75474l21.21926,-3.08104zM204.06098,210.48968l-1.42982,11.23438l8.39533,-0.20513l-3.4012,-12.55175zM150.36057,210.8261l1.58265,16.71952l0.22139,-0.0172l8.72485,-3.66553l1.31398,-9.99436l-11.86089,-3.2699zM303.78038,213.07726l-2.69746,11.00012l8.39533,0.7475l-1.97301,-12.85564l-0.84544,-0.05149l-0.64967,-0.00164zM78.72203,216.59091l-2.39193,12.78871l-0.26949,0.08332l-15.22358,-2.09845l-2.58676,7.09423l31.02558,5.10402l-5.01649,19.89405l-21.20803,8.6289l-18.95172,-5.40955l-0.08238,-0.2661l3.03903,-11.65318l0.50118,-0.15458l17.50821,3.47679l3.33087,-7.28134l-29.75888,-5.24561l-0.07033,-0.22748l3.59603,-16.8301l20.14646,-10.42767z" fill="#3bb2ff" stroke="url(#color-2)" stroke-width="11.00161"/><path d="M184.5333,97.96507l-4.14706,7.81259h-0.19308l-9.53765,-4.40707l-3.12492,4.08352l19.27012,9.51799l-7.29842,11.89775l-15.62097,1.35177l-11.30822,-7.30018v-0.18968l4.34189,-6.95006h0.35877l10.75461,5.75966l3.64927,-4.05438l-18.41193,-9.35744v-0.16218l5.74936,-10.1934l15.2897,-2.73093zM256.37778,101.74996l-3.15148,11.11339l-6.63506,5.46103l-9.23469,-0.51241l-0.35877,9.73341l-9.78736,0.67624l-1.05057,-5.81372l-1.90783,-25.95854l20.0718,-3.40634zM289.92237,96.58498l-2.65463,9.49131l-13.9061,-3.73165l-2.84853,6.13902h0.19483l12.55187,-1.10967l0.19226,0.37855l-1.71312,8.54383l-10.64392,-1.48657l0.16558,4.65175v0.94491l0.19319,0.37855l14.29319,-1.13471l1.32767,8.38164l-0.19308,0.18968l-25.49071,-1.67696l-4.0098,-11.16663l5.14345,-22.33501zM321.53233,101.5336v0.1623l-3.01411,10.57265l-5.8335,3.29822l10.4499,7.6256l-11.33478,5.02924l-8.87428,-12.14161h-0.33209l-0.19401,9.5463l-0.52517,1.21697h-8.32079l-1.77046,-15.0896l-1.60406,-15.25015l19.49152,-3.46052zM203.75627,94.01542l-1.713,20.14564l7.71207,1.02729l2.26836,-17.81889l11.55629,2.51468l-2.488,18.44024l-8.54383,9.81661l-16.89118,-2.92061l-6.60849,-7.13893l1.21697,-24.47197zM302.04068,100.82986l0.19226,11.79056h0.16651l6.74669,-2.08207l1.57574,-6.92257l-8.6812,-2.94729zM236.8322,111.99825l6.80063,-1.37927l1.57574,-6.65132l-8.37638,-3.2451z" fill="#ececec" stroke="url(#color-3)" stroke-width="11.00161"/><g stroke-width="11.00161"><path d="M319.31615,140.7427l16.97532,5.62579l9.88179,15.45013l-6.51582,19.43921l-19.83484,4.73588l-16.68605,-10.96665l-0.54319,-20.22205l-0.2524,-0.81783l16.72209,-13.24449zM318.26652,157.36943l-0.76119,12.06953l9.30338,2.06499l3.32911,-11.07395l-11.8713,-3.31027z" fill="#9404e4" stroke="url(#color-4)"/><path d="M298.39306,144.62367l-6.47884,41.72531l-11.69016,-1.0308l2.60467,-43.82798z" fill="#fbc211" stroke="url(#color-5)"/><path d="M275.19037,151.45871v0.21285l-3.94614,13.92166l-7.63672,4.34353l13.68131,10.04058l-14.83989,6.62137l-11.61808,-15.98477h-0.43425l-0.25322,12.56638l-0.68747,1.60242h-10.89539l-2.31645,-19.86667l-2.09834,-20.07953l25.51727,-4.55638zM249.67217,150.53358l0.25322,15.52221h0.218l8.83215,-2.74204l2.06241,-9.1137l-11.36579,-3.88108z" fill="#0492d0" stroke="url(#color-6)"/><path d="M217.85532,143.76805l13.82547,40.76484l-16.68512,2.06581l-2.35156,-10.78726l-13.02988,2.06405l-2.35331,8.22543h-0.25322l-15.38319,-3.34795l14.08127,-42.3304zM204.31993,155.05486l-1.59283,10.0036h7.85378l-2.89487,-11.28587z" fill="#10d004" stroke="url(#color-7)"/><path d="M151.43665,141.52543l4.813,13.31657h0.218l7.20247,-10.96665h0.21625l9.80971,1.31819l5.90043,39.69648l-15.49214,1.70867l-0.218,-0.42734l-0.86768,-22.10847h-0.21625l-8.94121,7.72424h-0.21636l-6.11667,-9.43385h-0.218l-7.63754,21.25449h-0.43331l-14.18857,-6.65741v-0.21367l16.14275,-36.49352z" fill="#e10404" stroke="url(#color-8)"/></g><g stroke="none"><g><path d="M184.59181,97.55551l-4.14706,7.81259h-0.19308l-9.53765,-4.40707l-3.12492,4.08352l19.27012,9.51799l-7.29842,11.89775l-15.62097,1.35177l-11.30822,-7.30018v-0.18968l4.34189,-6.95006h0.35877l10.75461,5.75966l3.64927,-4.05438l-18.41193,-9.35744v-0.16218l5.74936,-10.1934l15.2897,-2.73093zM256.43629,101.34041l-3.15148,11.11339l-6.63506,5.46103l-9.23469,-0.51241l-0.35877,9.73341l-9.78736,0.67624l-1.05057,-5.81372l-1.90783,-25.95854l20.0718,-3.40634zM289.98088,96.17542l-2.65463,9.49131l-13.9061,-3.73165l-2.84853,6.13902h0.19483l12.55187,-1.10967l0.19226,0.37855l-1.71312,8.54383l-10.64392,-1.48657l0.16558,4.65175v0.94491l0.19319,0.37855l14.29319,-1.13471l1.32767,8.38164l-0.19308,0.18968l-25.49071,-1.67696l-4.0098,-11.16663l5.14345,-22.33501zM321.59083,101.12404v0.1623l-3.01411,10.57265l-5.8335,3.29822l10.4499,7.6256l-11.33478,5.02924l-8.87428,-12.14161h-0.33209l-0.19401,9.5463l-0.52517,1.21697h-8.32079l-1.77046,-15.0896l-1.60406,-15.25015l19.49152,-3.46052zM203.81477,93.60586l-1.713,20.14564l7.71207,1.02729l2.26836,-17.81889l11.55629,2.51468l-2.488,18.44024l-8.54383,9.81661l-16.89118,-2.92061l-6.60849,-7.13893l1.21697,-24.47197zM302.0992,100.42031l0.19226,11.79056h0.16651l6.74669,-2.08207l1.57574,-6.92257l-8.6812,-2.94729zM236.89071,111.58869l6.80063,-1.37927l1.57574,-6.65132l-8.37638,-3.2451z" fill="url(#color-9)" stroke-width="1.19633"/><path d="M151.55367,141.05737l4.813,13.31657h0.218l7.20247,-10.96665h0.21625l9.80971,1.31819l5.90043,39.69648l-15.49214,1.70867l-0.218,-0.42734l-0.86768,-22.10847h-0.21625l-8.94121,7.72424h-0.21636l-6.11667,-9.43385h-0.218l-7.63754,21.25449h-0.43331l-14.18857,-6.65741v-0.21367l16.14275,-36.49352z" fill="url(#color-10)" stroke-width="1.57068"/><path d="M217.97234,143.29999l13.82547,40.76484l-16.68512,2.06581l-2.35156,-10.78726l-13.02988,2.06405l-2.35331,8.22543h-0.25322l-15.38319,-3.34795l14.08127,-42.3304zM204.43695,154.58679l-1.59283,10.0036h7.85378l-2.89487,-11.28587z" fill="url(#color-11)" stroke-width="1.57068"/><path d="M275.30737,150.99063v0.21285l-3.94614,13.92166l-7.63672,4.34353l13.68131,10.04058l-14.83989,6.62137l-11.61808,-15.98477h-0.43425l-0.25322,12.56638l-0.68747,1.60242h-10.89539l-2.31645,-19.86667l-2.09834,-20.07953l25.51727,-4.55638zM249.78918,150.06552l0.25322,15.52221h0.218l8.83215,-2.74204l2.06241,-9.1137l-11.36579,-3.88108z" fill="url(#color-12)" stroke-width="1.57068"/><path d="M298.51007,144.15561l-6.47884,41.72531l-11.69016,-1.0308l2.60467,-43.82798z" fill="url(#color-13)" stroke-width="1.57068"/><path d="M319.43316,140.27465l16.97532,5.62579l9.88179,15.45013l-6.51582,19.43921l-19.83484,4.73588l-16.68605,-10.96665l-0.54319,-20.22205l-0.2524,-0.81783l16.72209,-13.24449zM318.38354,156.90137l-0.76119,12.06953l9.30338,2.06499l3.32911,-11.07395l-11.8713,-3.31027z" fill="url(#color-14)" stroke-width="1.57068"/><path d="M218.2822,197.39345l15.88788,45.24668l-17.78027,2.74637l-2.80734,-12.00856l-13.87099,2.64761l-2.29153,9.26313l-0.27031,0.00679l-16.53405,-3.34538l13.89919,-47.72532zM251.06372,194.92078l0.83163,34.06121h0.23778l23.65835,-7.87613l0.27721,0.26095l-0.79302,18.8333l-36.81437,3.29998l-7.80744,-46.81564l20.17127,-2.02543zM319.42801,201.66747l10.72981,46.75807l-18.04028,0.71228l-1.44269,-12.2488l-14.13276,1.05993l-3.33251,8.94461l-0.26949,-0.02235l-16.11104,-5.19669l19.25386,-45.84487v-0.00164zM176.3844,209.65863l0.01884,0.23087l-2.81331,15.3282l-7.37659,5.29709l14.73691,9.72569l-14.4872,8.33437l-13.15427,-16.30411l-0.44033,0.03522l0.81794,13.57143l-0.56133,1.78345l-11.0516,0.8754l-4.0483,-21.23553l-3.84586,-21.48278l25.49761,-6.96633zM357.57451,218.61611l10.65421,-14.16108l0.26352,0.04213l12.8822,10.65597l-0.06869,0.47286l-14.46309,12.05747l18.781,11.56565l-13.07025,12.52531l-12.51325,-14.86832l-11.97849,16.729l-0.26258,-0.04213l-14.36621,-8.59871l0.03862,-0.27557l15.43562,-15.64917l-17.95966,-12.2l11.07477,-13.61087zM129.37744,208.78487l-4.09721,12.70118l-0.23263,0.02832l-11.53301,-3.61065l-8.4529,7.73454l2.85625,12.09433l12.20936,3.32747l7.38431,-9.04852l8.34221,10.46289l0.08753,0.7124l-16.04141,11.54763l-23.00528,-5.10051l-9.81322,-22.52552l8.26919,-15.37805l15.74711,-8.14129zM413.41445,228.90991l16.51088,-10.23284l11.50738,15.07076l-26.74114,13.64l-4.29298,18.56299l-21.04503,-7.70096l9.59943,-18.8952l-9.52395,-27.75474l21.21926,-3.08104zM204.11948,210.37266l-1.42982,11.23438l8.39533,-0.20513l-3.4012,-12.55175zM150.41908,210.70908l1.58265,16.71952l0.22139,-0.0172l8.72485,-3.66553l1.31398,-9.99436l-11.86089,-3.2699zM303.83887,212.96024l-2.69746,11.00012l8.39533,0.7475l-1.97301,-12.85564l-0.84544,-0.05149l-0.64967,-0.00164zM78.78054,216.47389l-2.39193,12.78871l-0.26949,0.08332l-15.22358,-2.09845l-2.58676,7.09423l31.02558,5.10402l-5.01649,19.89405l-21.20803,8.6289l-18.95172,-5.40955l-0.08238,-0.2661l3.03903,-11.65318l0.50118,-0.15458l17.50821,3.47679l3.33087,-7.28134l-29.75888,-5.24561l-0.07033,-0.22748l3.59603,-16.8301l20.14646,-10.42767z" fill="url(#color-15)" stroke-width="1.73862"/></g></g></g><path d="M131.00362,135.88758l0.8816,-6.10544l1.19275,6.45766l1.81492,3.63979l1.65941,2.34828l5.8081,1.05677l-5.54879,2.17206l-2.43722,3.52242l-0.93344,3.69853l-1.14091,4.22674l-1.14079,-4.10938l-1.71136,-4.10949l-2.33354,-3.05272l-4.66719,-1.64373l4.77087,-1.64384l2.59285,-2.75913z" fill="url(#color-16)" stroke="none" stroke-width="0.94667" stroke-linecap="round"/><path d="M339.97831,167.19249l1.12008,-7.75759l1.51548,8.20506l2.30604,4.62472l2.10852,2.98368l7.37963,1.34264l-7.05023,2.75983l-3.09672,4.47552l-1.18608,4.69926l-1.44948,5.37058l-1.4496,-5.22138l-2.1744,-5.22138l-2.96496,-3.87874l-5.93003,-2.08862l6.06179,-2.08851l3.29448,-3.50581z" fill="url(#color-17)" stroke="none" stroke-width="1.20282" stroke-linecap="round"/><path d="M197.99509,199.83874l-0.35105,-0.35105" fill="none" stroke="#4fa3da" stroke-width="2" stroke-linecap="round"/><path d="M214.90394,206.21613l0.35105,0.35105" fill="none" stroke="#4fa3da" stroke-width="2" stroke-linecap="round"/><path d="M196.82492,210.66275l-0.35105,-0.35105" fill="none" stroke="#4fa3da" stroke-width="2" stroke-linecap="round"/><path d="M199.10674,219.96554l0.35105,0.35105" fill="none" stroke="#54a7dc" stroke-width="2" stroke-linecap="round"/><path d="M190.68157,225.28978l-0.35105,-0.35105" fill="none" stroke="#72c2e7" stroke-width="2" stroke-linecap="round"/><path d="M193.25593,235.4702l0.35105,0.35105" fill="none" stroke="#88d6f0" stroke-width="2" stroke-linecap="round"/><path d="M185.06479,239.27323l0.35105,0.35105" fill="none" stroke="#94e1f4" stroke-width="2" stroke-linecap="round"/><path d="M205.83518,226.98652l0.35105,0.35105" fill="none" stroke="#72c2e7" stroke-width="2" stroke-linecap="round"/><path d="M215.48902,215.28489l0.35105,0.35105" fill="none" stroke="#54a7dc" stroke-width="2" stroke-linecap="round"/><path d="M222.86105,224.7047l-0.35105,-0.35105" fill="none" stroke="#72c2e7" stroke-width="2" stroke-linecap="round"/><path d="M216.13261,231.43313l-0.35105,-0.35105" fill="none" stroke="#88d6f0" stroke-width="2" stroke-linecap="round"/><path d="M221.04729,240.44339l0.35105,0.35105" fill="none" stroke="#94e1f4" stroke-width="2" stroke-linecap="round"/><path d="M226.66408,235.82125l-0.35105,-0.35105" fill="none" stroke="#94e1f4" stroke-width="2" stroke-linecap="round"/><path d="M220.75475,235.17766l0.35105,0.35105" fill="none" stroke="#88d6f0" stroke-width="2" stroke-linecap="round"/><path d="M196.18133,239.56577l0.35105,0.35105" fill="none" stroke="#94e1f4" stroke-width="2" stroke-linecap="round"/><path d="M166.92727,242.19863l0.35105,0.35105" fill="none" stroke="#94e1f4" stroke-width="2" stroke-linecap="round"/><path d="M173.36316,239.85831l0.35105,0.35105" fill="none" stroke="#94e1f4" stroke-width="2" stroke-linecap="round"/><path d="M164.06036,236.99141l-0.35105,-0.35105" fill="none" stroke="#88d6f0" stroke-width="2" stroke-linecap="round"/><path d="M157.8585,233.42241l0.35105,0.35105" fill="none" stroke="#88d6f0" stroke-width="2" stroke-linecap="round"/><path d="M165.23053,227.63011l-0.35105,-0.35105" fill="none" stroke="#72c2e7" stroke-width="2" stroke-linecap="round"/><path d="M147.09301,232.01822l-0.35105,-0.35105" fill="none" stroke="#88d6f0" stroke-width="2" stroke-linecap="round"/><path d="M142.64639,237.51798l0.35105,0.35105" fill="none" stroke="#88d6f0" stroke-width="2" stroke-linecap="round"/><path d="M149.72587,241.9646l-0.35105,-0.35105" fill="none" stroke="#94e1f4" stroke-width="2" stroke-linecap="round"/><path d="M144.10909,244.24642l0.35105,0.35105" fill="none" stroke="#94e1f4" stroke-width="2" stroke-linecap="round"/><path d="M113.45083,242.84222l-0.35105,-0.35105" fill="none" stroke="#8ad8f0" stroke-width="2" stroke-linecap="round"/><path d="M110.17437,247.17182l0.35105,0.35105" fill="none" stroke="#9ae6f6" stroke-width="2" stroke-linecap="round"/><path d="M122.51959,242.84222l-0.35105,-0.35105" fill="none" stroke="#8ad8f0" stroke-width="2" stroke-linecap="round"/><path d="M131.82238,240.73593l0.35105,0.35105" fill="none" stroke="#8ad8f0" stroke-width="2" stroke-linecap="round"/><path d="M126.9077,244.89001l-0.35105,-0.35105" fill="none" stroke="#9ae6f6" stroke-width="2" stroke-linecap="round"/><path d="M122.22705,248.69304l-0.35105,-0.35105" fill="none" stroke="#9ae6f6" stroke-width="2" stroke-linecap="round"/><path d="M61.90516,242.78371l0.35105,0.35105" fill="none" stroke="#7ccbeb" stroke-width="2" stroke-linecap="round"/><path d="M74.4844,240.44339l0.35105,0.35105" fill="none" stroke="#8ad8f0" stroke-width="2" stroke-linecap="round"/><path d="M69.56972,244.59747l-0.35105,-0.35105" fill="none" stroke="#8ad8f0" stroke-width="2" stroke-linecap="round"/><path d="M74.77695,247.46436l0.35105,0.35105" fill="none" stroke="#93e0f4" stroke-width="2" stroke-linecap="round"/><path d="M70.38884,252.14502l0.35105,0.35105" fill="none" stroke="#9ae6f6" stroke-width="2" stroke-linecap="round"/><path d="M75.65457,256.53313l0.35105,0.35105" fill="none" stroke="#b0faff" stroke-width="2" stroke-linecap="round"/><path d="M68.69209,259.51704l-0.35105,-0.35105" fill="none" stroke="#b0faff" stroke-width="2" stroke-linecap="round"/><path d="M61.67112,258.63942l-0.35105,-0.35105" fill="none" stroke="#b0faff" stroke-width="2" stroke-linecap="round"/><path d="M61.02753,263.5541l0.35105,0.35105" fill="none" stroke="#b0faff" stroke-width="2" stroke-linecap="round"/><path d="M54.35761,261.85737l-0.35105,-0.35105" fill="none" stroke="#b0faff" stroke-width="2" stroke-linecap="round"/><path d="M49.32591,255.6555l0.35105,0.35105" fill="none" stroke="#b0faff" stroke-width="2" stroke-linecap="round"/><path d="M55.82031,254.83639l-0.35105,-0.35105" fill="none" stroke="#b0faff" stroke-width="2" stroke-linecap="round"/><path d="M80.39373,254.25131l-0.35105,-0.35105" fill="none" stroke="#b0faff" stroke-width="2" stroke-linecap="round"/><path d="M83.31914,243.4273l-0.35105,-0.35105" fill="none" stroke="#8ad8f0" stroke-width="2" stroke-linecap="round"/><path d="M80.04268,248.04945l0.35105,0.35105" fill="none" stroke="#93e0f4" stroke-width="2" stroke-linecap="round"/><path d="M238.95078,229.09281l-0.35105,-0.35105" fill="none" stroke="#72c2e7" stroke-width="2" stroke-linecap="round"/><path d="M248.60463,228.50773l-0.35105,-0.35105" fill="none" stroke="#72c2e7" stroke-width="2" stroke-linecap="round"/><path d="M242.40276,239.27322l0.35105,0.35105" fill="none" stroke="#94e1f4" stroke-width="2" stroke-linecap="round"/><path d="M248.31209,235.5287l-0.35105,-0.35105" fill="none" stroke="#88d6f0" stroke-width="2" stroke-linecap="round"/><path d="M255.6256,237.86903l-0.35105,-0.35105" fill="none" stroke="#94e1f4" stroke-width="2" stroke-linecap="round"/><path d="M260.01371,229.97043l-0.35105,-0.35105" fill="none" stroke="#72c2e7" stroke-width="2" stroke-linecap="round"/><path d="M270.54517,226.75248l-0.35105,-0.35105" fill="none" stroke="#72c2e7" stroke-width="2" stroke-linecap="round"/><path d="M270.48667,234.00749l0.35105,0.35105" fill="none" stroke="#88d6f0" stroke-width="2" stroke-linecap="round"/><path d="M265.80602,238.10306l0.35105,0.35105" fill="none" stroke="#94e1f4" stroke-width="2" stroke-linecap="round"/><path d="M284.29459,239.91682l-0.35105,-0.35105" fill="none" stroke="#94e1f4" stroke-width="2" stroke-linecap="round"/><path d="M283.651,231.66717l0.35105,0.35105" fill="none" stroke="#88d6f0" stroke-width="2" stroke-linecap="round"/><path d="M289.50181,224.35365l0.35105,0.35105" fill="none" stroke="#72c2e7" stroke-width="2" stroke-linecap="round"/><path d="M289.50181,241.90609l0.35105,0.35105" fill="none" stroke="#94e1f4" stroke-width="2" stroke-linecap="round"/><path d="M301.78852,230.20446l0.35105,0.35105" fill="none" stroke="#88d6f0" stroke-width="2" stroke-linecap="round"/><path d="M296.87384,232.6033l-0.35105,-0.35105" fill="none" stroke="#88d6f0" stroke-width="2" stroke-linecap="round"/><path d="M340.69644,245.12404l0.35105,0.35105" fill="none" stroke="#9be7f7" stroke-width="2" stroke-linecap="round"/><path d="M346.25471,239.56577l0.35105,0.35105" fill="none" stroke="#94e1f4" stroke-width="2" stroke-linecap="round"/><path d="M346.54725,246.00166l0.35105,0.35105" fill="none" stroke="#9be7f7" stroke-width="2" stroke-linecap="round"/><path d="M350.35028,234.59257l0.35105,0.35105" fill="none" stroke="#88d6f0" stroke-width="2" stroke-linecap="round"/><path d="M357.42976,234.94362l-0.35105,-0.35105" fill="none" stroke="#88d6f0" stroke-width="2" stroke-linecap="round"/><path d="M366.14748,236.05528l0.35105,0.35105" fill="none" stroke="#94e1f4" stroke-width="2" stroke-linecap="round"/><path d="M361.23279,231.72568l-0.35105,-0.35105" fill="none" stroke="#88d6f0" stroke-width="2" stroke-linecap="round"/><path d="M369.36542,243.66134l0.35105,0.35105" fill="none" stroke="#9be7f7" stroke-width="2" stroke-linecap="round"/><path d="M375.56729,242.54968l-0.35105,-0.35105" fill="none" stroke="#9be7f7" stroke-width="2" stroke-linecap="round"/><path d="M374.10458,237.28395l-0.35105,-0.35105" fill="none" stroke="#94e1f4" stroke-width="2" stroke-linecap="round"/><path d="M409.4435,242.49117l0.35105,0.35105" fill="none" stroke="#94e1f4" stroke-width="2" stroke-linecap="round"/><path d="M401.5449,239.27323l0.35105,0.35105" fill="none" stroke="#94e1f4" stroke-width="2" stroke-linecap="round"/><path d="M401.25236,230.78955l0.35105,0.35105" fill="none" stroke="#72c2e7" stroke-width="2" stroke-linecap="round"/><path d="M408.56588,227.86414l0.35105,0.35105" fill="none" stroke="#72c2e7" stroke-width="2" stroke-linecap="round"/><path d="M414.18266,237.28395l-0.35105,-0.35105" fill="none" stroke="#94e1f4" stroke-width="2" stroke-linecap="round"/><path d="M424.65561,229.32684l0.35105,0.35105" fill="none" stroke="#72c2e7" stroke-width="2" stroke-linecap="round"/><path d="M431.09151,224.06111l0.35105,0.35105" fill="none" stroke="#72c2e7" stroke-width="2" stroke-linecap="round"/><path d="M432.84675,231.08208l0.35105,0.35105" fill="none" stroke="#72c2e7" stroke-width="2" stroke-linecap="round"/><path d="M423.77799,236.05528l0.35105,0.35105" fill="none" stroke="#94e1f4" stroke-width="2" stroke-linecap="round"/><path d="M404.17777,217.04013l0.35105,0.35105" fill="none" stroke="#54a7dc" stroke-width="2" stroke-linecap="round"/><path d="M393.35376,213.82219l0.35105,0.35105" fill="none" stroke="#54a7dc" stroke-width="2" stroke-linecap="round"/><path d="M338.94119,216.45505l0.35105,0.35105" fill="none" stroke="#54a7dc" stroke-width="2" stroke-linecap="round"/><path d="M342.74422,209.43407l0.35105,0.35105" fill="none" stroke="#4fa3da" stroke-width="2" stroke-linecap="round"/><path d="M350.05774,220.55062l0.35105,0.35105" fill="none" stroke="#72c2e7" stroke-width="2" stroke-linecap="round"/><path d="M355.90855,226.69397l0.35105,0.35105" fill="none" stroke="#72c2e7" stroke-width="2" stroke-linecap="round"/><path d="M363.51461,218.79538l0.35105,0.35105" fill="none" stroke="#54a7dc" stroke-width="2" stroke-linecap="round"/><path d="M370.5941,211.54037l-0.35105,-0.35105" fill="none" stroke="#54a7dc" stroke-width="2" stroke-linecap="round"/><path d="M372.64188,218.2688l-0.35105,-0.35105" fill="none" stroke="#54a7dc" stroke-width="2" stroke-linecap="round"/><path d="M311.73491,220.25808l0.35105,0.35105" fill="none" stroke="#72c2e7" stroke-width="2" stroke-linecap="round"/><path d="M316.41556,208.26391l0.35105,0.35105" fill="none" stroke="#4fa3da" stroke-width="2" stroke-linecap="round"/><path d="M309.45309,203.93431l-0.35105,-0.35105" fill="none" stroke="#4fa3da" stroke-width="2" stroke-linecap="round"/><path d="M317.64423,216.8061l-0.35105,-0.35105" fill="none" stroke="#54a7dc" stroke-width="2" stroke-linecap="round"/><path d="M298.27804,219.673l0.35105,0.35105" fill="none" stroke="#72c2e7" stroke-width="2" stroke-linecap="round"/><path d="M292.42722,214.11473l0.35105,0.35105" fill="none" stroke="#54a7dc" stroke-width="2" stroke-linecap="round"/><path d="M298.33655,211.24783l-0.35105,-0.35105" fill="none" stroke="#4fa3da" stroke-width="2" stroke-linecap="round"/><path d="M296.81532,200.36531l0.35105,0.35105" fill="none" stroke="#4fa3da" stroke-width="2" stroke-linecap="round"/><path d="M237.72211,219.08792l0.35105,0.35105" fill="none" stroke="#54a7dc" stroke-width="2" stroke-linecap="round"/><path d="M249.18971,218.85388l-0.35105,-0.35105" fill="none" stroke="#54a7dc" stroke-width="2" stroke-linecap="round"/><path d="M164.87948,207.38629l0.35105,0.35105" fill="none" stroke="#4fa3da" stroke-width="2" stroke-linecap="round"/><path d="M171.37388,215.92848l-0.35105,-0.35105" fill="none" stroke="#54a7dc" stroke-width="2" stroke-linecap="round"/><path d="M150.60349,204.81193l-0.35105,-0.35105" fill="none" stroke="#4fa3da" stroke-width="2" stroke-linecap="round"/><path d="M138.31679,208.61496l-0.35105,-0.35105" fill="none" stroke="#4fa3da" stroke-width="2" stroke-linecap="round"/><path d="M146.15688,214.40727l0.35105,0.35105" fill="none" stroke="#54a7dc" stroke-width="2" stroke-linecap="round"/><path d="M141.24219,225.87486l-0.35105,-0.35105" fill="none" stroke="#72c2e7" stroke-width="2" stroke-linecap="round"/><path d="M101.69069,222.59841l0.35105,0.35105" fill="none" stroke="#6dbee5" stroke-width="2" stroke-linecap="round"/><path d="M103.79698,212.71053l-0.35105,-0.35105" fill="none" stroke="#4fa3da" stroke-width="2" stroke-linecap="round"/><path d="M116.08369,210.66275l-0.35105,-0.35105" fill="none" stroke="#4fa3da" stroke-width="2" stroke-linecap="round"/><path d="M94.08463,222.59841l0.35105,0.35105" fill="none" stroke="#6dbee5" stroke-width="2" stroke-linecap="round"/><path d="M49.09186,238.45411l-0.35105,-0.35105" fill="none" stroke="#7ccbeb" stroke-width="2" stroke-linecap="round"/><path d="M56.63941,237.81052l0.35105,0.35105" fill="none" stroke="#7ccbeb" stroke-width="2" stroke-linecap="round"/><path d="M44.06017,231.08209l0.35105,0.35105" fill="none" stroke="#6dbee5" stroke-width="2" stroke-linecap="round"/><path d="M53.77253,223.82708l-0.35105,-0.35105" fill="none" stroke="#6dbee5" stroke-width="2" stroke-linecap="round"/><path d="M55.17672,229.91192l0.35105,0.35105" fill="none" stroke="#6dbee5" stroke-width="2" stroke-linecap="round"/><path d="M64.88907,219.73151l-0.35105,-0.35105" fill="none" stroke="#6dbee5" stroke-width="2" stroke-linecap="round"/><path d="M74.25037,224.11962l-0.35105,-0.35105" fill="none" stroke="#6dbee5" stroke-width="2" stroke-linecap="round"/><path d="M241.00793,201.61095l0.68841,-4.76783l0.93145,5.04293l1.4173,2.84233l1.29596,1.83376l4.53543,0.8252l-4.333,1.69615l-1.90327,2.7507l-0.72901,2.8882l-0.89084,3.30068l-0.89096,-3.20905l-1.33633,-3.20905l-1.82229,-2.38386l-3.64459,-1.28367l3.72556,-1.28367l2.02485,-2.15462z" fill="url(#color-18)" stroke="none" stroke-width="0.73926" stroke-linecap="round"/><path d="M98.1066,231.53026l-0.13866,-4.80083l1.52847,4.86916l1.60453,2.63228l1.35283,1.65028l3.8998,0.24562l-3.35462,2.22202l-1.17414,2.95911l-0.17576,2.94752l-0.24889,3.3758l-1.22106,-3.06115l-1.59189,-3.0051l-1.87331,-2.12806l-3.22637,-0.81092l2.91055,-1.73769l1.36418,-2.38514z" fill="url(#color-19)" stroke="none" stroke-width="0.69053" stroke-linecap="round"/><path d="M404.01582,246.93171l1.62009,-3.96521l-0.0963,4.56656l0.81525,2.77434l0.89763,1.87554l4.25541,1.73126l-4.56012,0.49287l-2.40223,1.94961l-1.28531,2.33202l-1.52542,2.65217l-0.22923,-2.97303l-0.66325,-3.07308l-1.30122,-2.46904l-3.296,-1.92749l3.88599,-0.27265l2.40211,-1.40724z" fill="url(#color-20)" stroke="none" stroke-width="0.69347" stroke-linecap="round"/><path d="M317.71619,231.42986l0.36287,-4.25892l1.13599,4.40906l1.45744,2.43359l1.28964,1.54824l4.19995,0.46888l-3.873,1.7508l-1.58873,2.54382l-0.50539,2.598l-0.63072,2.97233l-0.99593,-2.7885l-1.40396,-2.76299l-1.80252,-2.00461l-3.40974,-0.92595l3.33976,-1.3506l1.73348,-2.02356z" fill="url(#color-21)" stroke="none" stroke-width="0.66563" stroke-linecap="round"/><path d="M286.76352,85.99232l0.64827,-4.48956l0.87704,4.74852l1.33469,2.67651l1.22025,1.72669l4.27074,0.77711l-4.08012,1.59727l-1.79222,2.59004l-0.68642,2.71969l-0.83889,3.10807l-0.83889,-3.02171l-1.25839,-3.02183l-1.71593,-2.24484l-3.43197,-1.20866l3.50826,-1.20878l1.90655,-2.02895z" fill="url(#color-22)" stroke="none" stroke-width="0.69612" stroke-linecap="round"/></g></g></g></svg>