<svg version="1.1" xmlns="http://www.w3.org/2000/svg" xmlns:xlink="http://www.w3.org/1999/xlink" width="474.92015" height="356.46689" viewBox="0,0,474.92015,356.46689"><g transform="translate(-2.83159,-2.25001)"><g data-paper-data="{&quot;isPaintingLayer&quot;:true}" stroke-linejoin="miter" stroke-miterlimit="10" stroke-dasharray="" stroke-dashoffset="0" style="mix-blend-mode: normal"><text transform="translate(7.60003,26.00001) scale(0.5,0.5)" font-size="40" xml:space="preserve" fill="#000000" fill-rule="nonzero" stroke="none" stroke-width="1" stroke-linecap="butt" stroke-linejoin="miter" stroke-miterlimit="10" stroke-dasharray="" stroke-dashoffset="0" font-family="Sans Serif" font-weight="normal" text-anchor="start" style="mix-blend-mode: normal"><tspan x="0" dy="0">Other</tspan></text><text transform="translate(6.00002,24.00001) scale(0.5,0.5)" font-size="40" xml:space="preserve" data-paper-data="{&quot;origPos&quot;:null}" fill="#ffffff" fill-rule="nonzero" stroke="none" stroke-width="1" stroke-linecap="butt" stroke-linejoin="miter" stroke-miterlimit="10" stroke-dasharray="" stroke-dashoffset="0" font-family="Sans Serif" font-weight="normal" text-anchor="start" style="mix-blend-mode: normal"><tspan x="0" dy="0">Other</tspan></text><text transform="translate(3,43.79889) scale(0.33681,0.3064)" font-size="40" xml:space="preserve" data-paper-data="{&quot;origPos&quot;:null}" fill="#ffffff" fill-rule="nonzero" stroke="none" stroke-width="1" stroke-linecap="butt" stroke-linejoin="miter" stroke-miterlimit="10" stroke-dasharray="" stroke-dashoffset="0" font-family="Sans Serif" font-weight="normal" text-anchor="start" style="mix-blend-mode: normal"><tspan x="0" dy="0">-</tspan><tspan x="0" dy="46.150000000000006px">-</tspan><tspan x="0" dy="46.150000000000006px">-</tspan><tspan x="0" dy="46.150000000000006px">-</tspan><tspan x="0" dy="46.150000000000006px">-</tspan><tspan x="0" dy="46.150000000000006px">-</tspan><tspan x="0" dy="46.150000000000006px">-</tspan><tspan x="0" dy="46.150000000000006px">-</tspan><tspan x="0" dy="46.150000000000006px">-</tspan><tspan x="0" dy="46.150000000000006px">-</tspan><tspan x="0" dy="46.150000000000006px">-</tspan><tspan x="0" dy="46.150000000000006px">-</tspan><tspan x="0" dy="46.150000000000006px">-</tspan><tspan x="0" dy="46.150000000000006px">-</tspan><tspan x="0" dy="46.150000000000006px">-</tspan><tspan x="0" dy="46.150000000000006px">-</tspan><tspan x="0" dy="46.150000000000006px">-</tspan><tspan x="0" dy="46.150000000000006px">-</tspan><tspan x="0" dy="46.150000000000006px">-</tspan><tspan x="0" dy="46.150000000000006px">-</tspan><tspan x="0" dy="46.150000000000006px">-</tspan><tspan x="0" dy="46.150000000000006px">-</tspan><tspan x="0" dy="46.150000000000006px">-</tspan></text><g fill="#ffffff"><path d="M331.06164,33.76602c1.13885,2.633 2.68041,3.90235 4.31476,3.90235c1.08072,0 1.79442,-0.69329 1.79442,-1.69246c0,-2.79357 -6.8514,-2.63045 -6.8514,-7.21845c0.01166,-0.9677 0.4113,-1.89021 1.10927,-2.56061c0.52711,-0.52915 1.2255,-0.95941 2.0595,-1.24335c0.77337,-0.25576 1.58346,-0.38285 2.39799,-0.37622c0.26316,-0.00012 0.52621,0.00975 0.78862,0.02957c1.29582,0.10534 2.55867,0.46238 3.71781,1.05116l-0.32626,4.38408h-1.18268c-0.01154,-0.09835 -0.02411,-0.19657 -0.03773,-0.29464c-0.23654,-1.70062 -0.87784,-3.86513 -2.91899,-3.86513c-0.11268,-0.00024 -0.22523,0.0069 -0.33696,0.0214c-0.63467,0.0836 -1.09245,0.41853 -1.2719,1.04964c-0.05833,0.21581 -0.08646,0.43867 -0.0836,0.66221c0,2.95671 6.85141,2.77319 6.85141,7.15727c0.03784,1.18273 -0.48671,2.31351 -1.41413,3.04847c-1.04811,0.8391 -2.62331,1.27445 -4.54008,1.27445c-1.4391,0 -3.06682,-0.41139 -4.69453,-1.24946c-0.14949,-0.07692 -0.29752,-0.15662 -0.44402,-0.23908c-0.00898,-0.04925 -0.01781,-0.09853 -0.0265,-0.14784c-0.1667,-0.94716 -0.29721,-1.97641 -0.391,-2.98321c-0.05678,-0.60702 -0.10113,-1.21514 -0.13305,-1.82399l1.1419,-0.14273c0.1409,0.42554 0.3001,0.84479 0.47715,1.2566z" fill-rule="evenodd" stroke="#000000" stroke-width="0" stroke-linecap="round"/><path d="M354.03914,35.65835c-0.19691,0.8843 -0.44373,1.76822 -0.78169,2.70839c-0.92591,0.34311 -1.72821,0.57053 -2.62678,0.67076c-0.36446,0.03981 -0.73084,0.05925 -1.09746,0.05824c-0.11809,0.00004 -0.23617,-0.0018 -0.3542,-0.00554c-2.49604,-0.08043 -4.99167,-1.01506 -6.05426,-3.12123c-0.36389,-0.74278 -0.54651,-1.56124 -0.53289,-2.38826c-0.00005,-0.01334 -0.00005,-0.02668 0,-0.04002c0.01941,-2.56021 1.91045,-5.72859 6.67193,-5.72859c1.458,0 2.916,0.28526 4.27891,0.77654v3.70839h-0.88748c-0.22386,-1.01427 -0.76545,-2.74009 -2.25237,-3.29397c-0.32933,-0.12011 -0.67759,-0.17997 -1.02812,-0.1767c-1.67987,0 -3.10617,1.52139 -3.10617,4.58002c-0.00032,0.23583 0.00801,0.47159 0.02497,0.70681c0.11172,1.51782 0.59667,2.71829 1.49841,3.34111c0.47677,0.31939 1.04082,0.48314 1.61449,0.4687c1.15134,0 2.41204,-0.57091 3.54832,-2.77535c0.17442,-0.34074 0.33358,-0.68908 0.47702,-1.04398l0.87163,0.22187c-0.07808,0.44619 -0.1662,0.89057 -0.26426,1.3328z" fill-rule="evenodd" stroke="#000000" stroke-width="0" stroke-linecap="round"/><path d="M357.06489,36.05059c0.00892,-0.25796 0.01288,-0.51606 0.01189,-0.77417v-3.6133c0.00007,-0.13035 -0.00072,-0.2607 -0.00238,-0.39104c-0.02496,-1.87757 -0.27971,-2.10459 -1.93898,-2.48256c-0.0871,-0.01972 -0.17426,-0.03913 -0.26149,-0.05825v-0.6656c1.61647,-0.06339 3.23296,-0.12678 4.84943,-0.12678c0.60053,-0.00192 1.20099,0.01288 1.80071,0.04437c1.39144,0.07845 2.46157,0.26664 3.22266,0.62163c0.91275,0.36176 1.48874,1.27013 1.42669,2.24999c0.00043,0.15857 -0.01416,0.31684 -0.04359,0.47266c-0.24167,1.26307 -1.43066,1.82329 -2.11172,2.07884c0.04607,0.08693 0.09269,0.17357 0.13985,0.2599c0.82448,1.50514 2.17551,3.55506 4.36092,4.82724l-0.11093,0.66561c-3.88271,-0.22187 -5.0079,-0.55468 -6.54514,-3.34389c-0.02297,-0.04174 -0.04596,-0.08346 -0.06894,-0.1252c-0.62718,-1.14104 -0.77377,-1.38906 -1.25475,-1.47503c-0.08651,-0.01457 -0.17363,-0.02528 -0.2611,-0.0321v1.0935c-0.00007,0.13035 0.00072,0.26071 0.00238,0.39105c0.02496,1.87756 0.27971,2.10459 1.93898,2.48256c0.0871,0.01971 0.17426,0.03913 0.26149,0.05824v0.6656c-1.26783,0 -2.53566,-0.0317 -3.80348,-0.0317c-1.26783,0 -2.53565,0.0317 -3.80347,0.0317v-0.6656c1.76386,-0.38867 2.12797,-0.54635 2.19096,-2.15769zM361.10964,33.03316c0.9065,-0.25277 1.51387,-0.85935 1.51387,-2.0832c0.00056,-0.1379 -0.01046,-0.27558 -0.03289,-0.41165c-0.21949,-1.29873 -1.4897,-1.52734 -2.31259,-1.58518v4.21553c0.28104,-0.01725 0.55964,-0.06265 0.83161,-0.1355z" fill-rule="evenodd" stroke="#000000" stroke-width="0" stroke-linecap="round"/><path d="M372.24313,29.14332c0.1786,-0.08195 0.35325,-0.17225 0.52337,-0.2706c0.59469,-0.34389 1.07765,-0.75792 1.35776,-1.16046c0.05547,-0.07901 0.10474,-0.1622 0.14738,-0.24881h0.90332l3.13787,8.54197c0.39224,1.07171 0.6656,1.71235 1.53208,2.07289c0.20673,0.08364 0.42064,0.14836 0.63906,0.19335v0.60222c-1.0935,0 -2.17115,-0.0317 -3.26465,-0.0317c-1.0935,0 -2.17115,0.0317 -3.26465,0.0317v-0.60222c0.02722,-0.00603 0.05442,-0.01211 0.08162,-0.01823c1.0725,-0.24168 1.32883,-0.37203 1.32883,-0.77417c-0.00256,-0.12498 -0.01863,-0.24932 -0.04793,-0.37083c-0.09627,-0.43225 -0.32211,-1.01584 -0.54913,-1.85974c-0.00171,-0.00661 -0.00344,-0.0132 -0.00515,-0.01981h-3.16956c-0.07885,0.24485 -0.16204,0.51348 -0.22544,0.8019c-0.06916,0.30371 -0.10518,0.61402 -0.10737,0.92551c0.00002,0.02405 0.00067,0.0481 0.00198,0.07211c0.03962,0.73891 0.69889,1.02615 1.80467,1.17987v0.66561c-0.91918,0 -1.83835,-0.0317 -2.75752,-0.0317c-0.93502,0 -1.85419,0.0317 -2.75752,0.0317v-0.66561c1.15729,-0.22266 1.64778,-0.98693 2.187,-2.16322c0.0374,-0.08169 0.07439,-0.16357 0.11093,-0.24564l2.66244,-5.95878zM373.11476,30.82319h-0.0317l-0.99841,2.916h2.12361z" fill-rule="evenodd" stroke="#000000" stroke-width="0" stroke-linecap="round"/><path d="M381.28193,38.15954c2.00515,-0.40888 2.18146,-0.62559 2.18146,-2.88311v-6.1965c-0.03171,0.00068 -0.06342,0.00187 -0.09509,0.00357c-2.07369,0.11292 -3.03089,2.37202 -3.2805,3.30863l-0.85578,-0.17433l0.41204,-4.65926l0.83994,-0.06339c0.26466,0.41759 0.4069,0.54199 1.21157,0.56577c0.12438,0.00342 0.24879,0.00501 0.37321,0.00476h5.99047c0.01849,0.00003 0.03698,0.00003 0.05547,0c1.01427,-0.00317 1.20879,-0.08954 1.46948,-0.47821c0.02034,-0.03051 0.04029,-0.06128 0.05982,-0.09231l0.83994,0.06339l0.41204,4.65926l-0.85578,0.17433c-0.20047,-0.75158 -0.85578,-2.35379 -2.17789,-3.01663c-0.37205,-0.18698 -0.78136,-0.288 -1.1977,-0.29556v6.1965c0.00006,0.04252 0.0002,0.08505 0.0004,0.12758c0.00714,2.12123 0.21077,2.35102 2.1343,2.74602c0.09661,0.01973 0.19328,0.03914 0.29002,0.05824v0.6656c-0.35975,-0.00004 -0.7195,-0.00162 -1.07923,-0.00475c-1.04437,-0.00912 -1.99523,-0.02695 -2.94611,-0.02695c-0.95087,0 -1.90174,0.01783 -2.94611,0.02695c-0.35974,0.00313 -0.71948,0.00471 -1.07923,0.00475v-0.6656c0.08113,-0.01604 0.16222,-0.03229 0.24326,-0.04874z" fill-rule="evenodd" stroke="#000000" stroke-width="0" stroke-linecap="round"/><path d="M402.14077,35.65835c-0.19691,0.8843 -0.44373,1.76822 -0.78169,2.70839c-0.92591,0.34311 -1.72821,0.57053 -2.62678,0.67076c-0.36446,0.03981 -0.73084,0.05925 -1.09746,0.05824c-0.11809,0.00004 -0.23617,-0.0018 -0.3542,-0.00554c-2.49604,-0.08043 -4.99167,-1.01506 -6.05426,-3.12123c-0.36389,-0.74278 -0.54651,-1.56124 -0.53289,-2.38826c-0.00005,-0.01334 -0.00005,-0.02668 0,-0.04002c0.01941,-2.56021 1.91045,-5.72859 6.67193,-5.72859c1.458,0 2.916,0.28526 4.27891,0.77654v3.70839h-0.88748c-0.22386,-1.01427 -0.76545,-2.74009 -2.25238,-3.29397c-0.32933,-0.12011 -0.67759,-0.17997 -1.02812,-0.1767c-1.67987,0 -3.10617,1.52139 -3.10617,4.58002c-0.00032,0.23583 0.00802,0.47159 0.02497,0.70681c0.11172,1.51782 0.59667,2.71829 1.49841,3.34111c0.47677,0.31939 1.04082,0.48314 1.61449,0.4687c1.15134,0 2.41204,-0.57091 3.54832,-2.77535c0.17442,-0.34074 0.33358,-0.68908 0.47702,-1.04398l0.87163,0.22187c-0.07808,0.44619 -0.1662,0.89057 -0.26426,1.3328z" fill-rule="evenodd" stroke="#000000" stroke-width="0" stroke-linecap="round"/><path d="M405.11937,36.05059c0.00862,-0.25796 0.01244,-0.51606 0.01149,-0.77417v-3.645c0,-2.23969 -0.17354,-2.47067 -1.80348,-2.87361c-0.08022,-0.0197 -0.16053,-0.03911 -0.24088,-0.05824v-0.6656c0.14105,-0.00003 0.28209,0.00037 0.42314,0.00119c1.00317,0.00634 2.11251,0.03051 3.22186,0.03051c0.95087,0 1.90173,-0.01782 2.75236,-0.02694c0.27112,-0.00299 0.54225,-0.00458 0.81339,-0.00476v0.6656c-1.77495,0.44374 -1.96513,0.58637 -1.96513,2.93185v0.77654h4.40569v-0.77654c0.00007,-0.11292 -0.00045,-0.22584 -0.00158,-0.33875c-0.0206,-1.90966 -0.2504,-2.14935 -1.69651,-2.52534c-0.08891,-0.02299 -0.17791,-0.04558 -0.26703,-0.06776v-0.6656c0.27114,0.00031 0.54227,0.00202 0.81339,0.00515c0.85063,0.00871 1.80151,0.02655 2.75237,0.02655c0.95087,0 1.90173,-0.01782 2.78564,-0.02694c0.28644,-0.00302 0.5729,-0.00461 0.85935,-0.00476v0.6656c-1.6248,0.38867 -1.97186,0.54636 -2.03287,2.15769c-0.00862,0.25796 -0.01245,0.51607 -0.0115,0.77417v3.645c0,2.23969 0.17354,2.47068 1.80349,2.8736c0.08022,0.01971 0.16053,0.03911 0.24088,0.05824v0.6656c-0.14105,0.00003 -0.28208,-0.00036 -0.42313,-0.00118c-1.00317,-0.00634 -2.11251,-0.03051 -3.22186,-0.03051c-0.95087,0 -1.90174,0.01783 -2.75237,0.02694c-0.27112,0.00299 -0.54225,0.00457 -0.81339,0.00475v-0.6656c1.77495,-0.44373 1.96513,-0.58636 1.96513,-2.93184v-1.31537h-4.40569v1.31537c-0.00007,0.11292 0.00046,0.22584 0.00159,0.33875c0.0206,1.90966 0.2504,2.14936 1.69651,2.52535c0.08891,0.02299 0.17791,0.04557 0.26703,0.06775v0.6656c-0.27114,-0.00018 -0.54227,-0.00176 -0.81339,-0.00475c-0.85063,-0.00912 -1.80151,-0.02694 -2.75236,-0.02694c-0.95087,0 -1.90174,0.01783 -2.78565,0.02694c-0.28644,0.00302 -0.57289,0.0046 -0.85934,0.00475v-0.6656c1.6248,-0.38867 1.97186,-0.54635 2.03287,-2.15768z" fill-rule="evenodd" stroke="#000000" stroke-width="0" stroke-linecap="round"/><path d="M424.3142,36.05059c0.00892,-0.25796 0.01288,-0.51606 0.01189,-0.77417v-3.6133c0.00007,-0.13035 -0.00072,-0.2607 -0.00237,-0.39104c-0.02496,-1.87757 -0.27972,-2.10459 -1.93899,-2.48256c-0.0871,-0.01972 -0.17425,-0.03913 -0.26148,-0.05825v-0.6656c1.74326,-0.06339 3.48651,-0.12678 5.22978,-0.12678c2.20641,0 3.67947,0.28644 4.582,0.80744c0.73788,0.37345 1.19392,1.13925 1.17075,1.96593c0.00004,0.05023 -0.00155,0.10043 -0.00475,0.15056c-0.04477,0.69215 -0.39936,1.18343 -0.92036,1.52971c-0.40274,0.25252 -0.84554,0.4346 -1.30942,0.53843v0.0317c0.11122,0.02902 0.22156,0.06139 0.33083,0.09707c1.12599,0.36648 2.53763,1.21276 2.53763,2.88232c0,0.82646 -0.26822,1.56101 -0.84707,2.08637c-0.27581,0.24544 -0.59619,0.43563 -0.94374,0.56022c-0.72899,0.26743 -1.68146,0.32964 -2.53644,0.3443c-0.248,0.00359 -0.49604,0.00503 -0.74406,0.00436c-0.36993,-0.00234 -0.73978,-0.01172 -1.10935,-0.02813c-0.18486,-0.00735 -0.36975,-0.01382 -0.55467,-0.01941c-0.18493,-0.00559 -0.36982,-0.01206 -0.55468,-0.01942c-0.36966,-0.01387 -0.73969,-0.02813 -1.10935,-0.02813c-1.07765,0 -2.13945,0.01584 -3.21711,0.03169v-0.6656c1.76386,-0.38867 2.12796,-0.54635 2.19096,-2.15768zM427.52853,36.48403c0.01981,0.73811 0.26387,1.23335 0.79239,1.41996c0.17325,0.05772 0.35505,0.08559 0.53763,0.08241c0.41345,0.01311 0.80446,-0.18787 1.03447,-0.5317c0.10262,-0.15174 0.18185,-0.33676 0.23296,-0.55626c0.04423,-0.19951 0.06563,-0.40342 0.06378,-0.60777c0,-1.64817 -1.34707,-2.48811 -2.66244,-2.50395v2.59904c-0.00004,0.03276 0.00036,0.06551 0.00119,0.09826zM427.58836,32.77286c1.20522,0 2.09429,-0.4683 2.09429,-1.90213c0.00054,-0.14071 -0.00979,-0.28124 -0.03091,-0.42036c-0.14937,-0.95879 -0.8431,-1.49722 -2.1244,-1.49722v3.81932c0.02034,0.00026 0.04068,0.00039 0.06101,0.00039z" fill-rule="evenodd" stroke="#000000" stroke-width="0" stroke-linecap="round"/><path d="M436.69134,36.05059c0.00892,-0.25796 0.01288,-0.51606 0.01189,-0.77417v-3.6133c0.00007,-0.13035 -0.00072,-0.2607 -0.00238,-0.39104c-0.02496,-1.87757 -0.27972,-2.10459 -1.93898,-2.48256c-0.0871,-0.01972 -0.17426,-0.03913 -0.26148,-0.05825v-0.6656c1.61647,-0.06339 3.23296,-0.12678 4.84943,-0.12678c0.60053,-0.00192 1.201,0.01288 1.80071,0.04437c1.39144,0.07845 2.46156,0.26664 3.22265,0.62163c0.91275,0.36176 1.48874,1.27013 1.42669,2.24999c0.00043,0.15857 -0.01416,0.31684 -0.04358,0.47266c-0.24167,1.26307 -1.43066,1.82329 -2.11172,2.07884c0.04607,0.08693 0.09269,0.17357 0.13986,0.2599c0.82448,1.50514 2.17551,3.55506 4.36092,4.82724l-0.11094,0.66561c-3.88271,-0.22187 -5.00791,-0.55468 -6.54515,-3.34389c-0.02297,-0.04174 -0.04595,-0.08346 -0.06894,-0.1252c-0.62718,-1.14104 -0.77377,-1.38906 -1.25475,-1.47503c-0.08651,-0.01457 -0.17363,-0.02528 -0.26109,-0.0321v1.0935c-0.00007,0.13035 0.00072,0.26071 0.00237,0.39105c0.02496,1.87756 0.27972,2.10459 1.93898,2.48256c0.0871,0.01971 0.17426,0.03913 0.26148,0.05824v0.6656c-1.26783,0 -2.53565,-0.0317 -3.80347,-0.0317c-1.26783,0 -2.53565,0.0317 -3.80348,0.0317v-0.6656c1.76386,-0.38867 2.12797,-0.54635 2.19096,-2.15769zM440.7361,33.03316c0.9065,-0.25277 1.51387,-0.85935 1.51387,-2.0832c0.00056,-0.1379 -0.01046,-0.27558 -0.03289,-0.41165c-0.21949,-1.29873 -1.48969,-1.52734 -2.31258,-1.58518v4.21553c0.28104,-0.01725 0.55964,-0.06265 0.83161,-0.1355z" fill-rule="evenodd" stroke="#000000" stroke-width="0" stroke-linecap="round"/><path d="M476.0338,39.09416c-0.88504,-0.03128 -1.58457,-0.76102 -1.57844,-1.64659c0.00006,-0.02325 0.00059,-0.04651 0.00158,-0.06974c0.03129,-0.88504 0.76102,-1.58457 1.64659,-1.57844c0.02326,0.00006 0.04651,0.00059 0.06974,0.00159c0.88504,0.03128 1.58457,0.76102 1.57844,1.64659c-0.00006,0.02325 -0.00059,0.04651 -0.00159,0.06974c-0.03129,0.88504 -0.76102,1.58457 -1.64659,1.57844c-0.02326,-0.00006 -0.0465,-0.00059 -0.06973,-0.00159z" fill-rule="evenodd" stroke="#000000" stroke-width="0" stroke-linecap="round"/><g fill-rule="evenodd" stroke="#000000" stroke-width="0" stroke-linecap="round"><path d="M375.83042,15.22443c1.15697,2.67491 2.72307,3.96444 4.38343,3.96444c1.09793,0 1.82297,-0.70433 1.82297,-1.7194c0,-2.83804 -6.96045,-2.67231 -6.96045,-7.33332c0.01185,-0.98311 0.41785,-1.9203 1.12693,-2.60137c0.5355,-0.53757 1.245,-0.97466 2.09227,-1.26314c0.78568,-0.25983 1.60867,-0.38895 2.43616,-0.38221c0.26734,-0.00012 0.5346,0.00991 0.80118,0.03005c1.31644,0.10701 2.59938,0.46975 3.77697,1.0679l-0.33144,4.45386h-1.2015c-0.01172,-0.09991 -0.0245,-0.19971 -0.03832,-0.29934c-0.2403,-1.72768 -0.8918,-3.92664 -2.96544,-3.92664c-0.11446,-0.00025 -0.22883,0.00701 -0.34233,0.02175c-0.64477,0.08493 -1.10983,0.42518 -1.29214,1.06634c-0.05926,0.21926 -0.08783,0.44565 -0.08493,0.67273c0,3.00376 6.96045,2.81733 6.96045,7.27119c0.03844,1.20155 -0.49445,2.35033 -1.43663,3.09699c-1.06478,0.85244 -2.66507,1.29473 -4.61232,1.29473c-1.462,0 -3.11563,-0.41793 -4.76925,-1.26935c-0.15186,-0.07814 -0.30225,-0.15912 -0.45109,-0.24289c-0.00912,-0.05004 -0.0181,-0.1001 -0.02693,-0.15019c-0.16935,-0.96224 -0.30192,-2.00786 -0.39722,-3.0307c-0.05768,-0.61668 -0.10275,-1.23449 -0.13517,-1.85302l1.16008,-0.14501c0.14315,0.43231 0.30489,0.85824 0.48474,1.27661z"/><path d="M386.41756,10.30105c-0.08022,-0.01971 -0.16053,-0.03911 -0.24088,-0.05824v-0.66561c0.14105,-0.00003 0.28209,0.00037 0.42314,0.00119c1.00317,0.00634 2.11251,0.03051 3.22186,0.03051c0.95087,0 1.90174,-0.01783 2.78565,-0.02694c0.28644,-0.00302 0.57289,-0.00461 0.85934,-0.00476v0.66561c-1.6248,0.38867 -1.97186,0.54635 -2.03287,2.15768c-0.00862,0.25797 -0.01245,0.51606 -0.0115,0.77417v3.77178c0,1.07646 0.50752,1.87321 1.67392,2.13866c0.3091,0.06689 0.62473,0.09905 0.94097,0.09587c1.46513,0 2.23532,-0.6137 2.4881,-1.88984c0.06739,-0.36452 0.09923,-0.73472 0.09509,-1.10539c0,-0.78288 -0.00753,-1.44294 -0.01228,-2.103c-0.00223,-0.29212 -0.00341,-0.58425 -0.00356,-0.87638c0.0014,-0.27162 -0.0072,-0.54319 -0.02576,-0.81418c-0.09073,-1.21711 -0.44254,-1.68779 -1.37995,-1.96751c-0.26731,-0.07606 -0.53875,-0.13678 -0.813,-0.18185v-0.66561c0.93502,0 1.87004,0.0317 2.78922,0.0317c0.93502,0 1.87005,-0.0317 2.78922,-0.0317v0.66561c-0.16754,0.0223 -0.33388,0.05284 -0.49842,0.09152c-0.66402,0.16363 -1.00436,0.49565 -1.13392,1.55666c-0.01799,0.14414 -0.03542,0.28836 -0.0523,0.43264c-0.12599,1.07567 -0.26585,2.50197 -0.32211,3.53129c-0.00952,0.16828 -0.01678,0.33667 -0.02179,0.50515c-0.0084,0.36491 -0.04762,0.72846 -0.11728,1.08676c-0.31934,1.59509 -1.28011,2.61647 -2.96394,3.0095c-0.58052,0.12806 -1.17377,0.18934 -1.76822,0.18264c-0.64453,0.00734 -1.28773,-0.05994 -1.91679,-0.20048c-1.7599,-0.41759 -2.94849,-1.53208 -2.94849,-3.74563v-3.51821c0,-2.23968 -0.17354,-2.47067 -1.80349,-2.8736z"/><path d="M401.35051,17.59382c0.00892,-0.25795 0.01288,-0.51606 0.01189,-0.77417v-3.6133c0.00007,-0.13035 -0.00072,-0.2607 -0.00237,-0.39105c-0.02496,-1.87757 -0.27972,-2.10459 -1.93898,-2.48256c-0.0871,-0.01971 -0.17426,-0.03913 -0.26148,-0.05824v-0.6656c1.55309,-0.06339 3.09032,-0.12678 4.64341,-0.12678c2.70997,0 4.97423,0.3122 5.93698,1.61806c0.34301,0.48489 0.51767,1.06884 0.49722,1.66244c0.00002,0.01901 -0.00011,0.03804 -0.00039,0.05705c-0.03922,2.39778 -2.55388,3.28882 -4.89658,3.55625l-0.19017,-0.64976c0.3435,-0.18542 0.61608,-0.395 0.83003,-0.62361c0.48894,-0.54462 0.7431,-1.26025 0.7072,-1.99127c-0.00005,-0.028 -0.00045,-0.056 -0.00119,-0.08399c-0.02576,-1.06536 -0.54754,-2.40728 -2.12242,-2.53089v6.32327c-0.00122,0.26116 0.00327,0.52231 0.01347,0.78327c0.07171,1.60261 0.49842,1.76029 2.74405,2.14857v0.66561c-1.09191,0 -2.09112,-0.01863 -3.25356,-0.02734c-0.37347,-0.00286 -0.74696,-0.00432 -1.12044,-0.00436c-1.26783,0 -2.53565,0.0317 -3.78763,0.0317v-0.66561c1.76386,-0.38867 2.12797,-0.54635 2.19096,-2.15768z"/><path d="M412.05131,17.59382c0.00892,-0.25795 0.01288,-0.51606 0.01189,-0.77417v-3.64499c0.00007,-0.13035 -0.00072,-0.2607 -0.00238,-0.39105c-0.02496,-1.87757 -0.27971,-2.10459 -1.93898,-2.48256c-0.0871,-0.01971 -0.17426,-0.03913 -0.26148,-0.05824v-0.66561c1.26783,0 2.53564,0.0317 3.80347,0.0317c2.25039,0 4.50078,-0.01585 6.75116,-0.0317l-0.19017,3.32805h-0.74485c-0.50714,-1.83676 -0.93145,-2.22702 -3.07764,-2.29912c-0.37919,-0.01111 -0.75853,-0.016 -1.13787,-0.01466v3.48652h0.68145c0.01717,0.00002 0.03434,0.00002 0.05151,0c1.35856,-0.00277 1.85895,-0.11965 2.16957,-0.91324c0.0704,-0.188 0.12785,-0.38061 0.17195,-0.57647h0.63391c-0.01585,0.77654 -0.0317,1.55308 -0.0317,2.32963c0,0.77654 0.01585,1.55309 0.0317,2.32963h-0.63391c-0.01642,-0.08001 -0.03398,-0.1598 -0.05269,-0.23931c-0.2599,-1.09905 -0.60974,-1.38906 -1.64222,-1.45482c-0.23246,-0.01308 -0.46528,-0.01889 -0.6981,-0.01743h-0.68145v2.93184c0,0.58637 0.3328,0.93502 1.458,0.93502c0.1257,0.00021 0.25136,-0.00389 0.37678,-0.01228c1.68818,-0.11609 2.49088,-1.0618 3.14144,-3.44254h0.82409v0.42789c0,1.36292 -0.19018,2.74167 -0.58637,4.04119c-2.28208,-0.01584 -4.54833,-0.0317 -6.81456,-0.0317c-1.26783,0 -2.53564,0.0317 -3.80347,0.0317v-0.6656c1.76386,-0.38867 2.12797,-0.54635 2.19096,-2.15768z"/><path d="M423.03737,17.59382c0.00892,-0.25795 0.01288,-0.51606 0.01189,-0.77417v-3.6133c0.00007,-0.13035 -0.00072,-0.2607 -0.00238,-0.39105c-0.02496,-1.87757 -0.27972,-2.10459 -1.93898,-2.48256c-0.0871,-0.01971 -0.17426,-0.03913 -0.26148,-0.05824v-0.6656c1.61647,-0.06339 3.23296,-0.12678 4.84943,-0.12678c0.60053,-0.00192 1.201,0.01288 1.80071,0.04437c1.39144,0.07845 2.46156,0.26664 3.22265,0.62163c0.91275,0.36176 1.48874,1.27012 1.42669,2.24999c0.00043,0.15858 -0.01416,0.31684 -0.04359,0.47266c-0.24167,1.26307 -1.43066,1.8233 -2.11172,2.07884c0.04607,0.08693 0.09269,0.17356 0.13986,0.2599c0.82448,1.50514 2.17551,3.55506 4.36092,4.82724l-0.11093,0.6656c-3.88271,-0.22187 -5.00791,-0.55468 -6.54515,-3.34389c-0.02297,-0.04173 -0.04595,-0.08347 -0.06894,-0.1252c-0.62718,-1.14104 -0.77377,-1.38907 -1.25475,-1.47504c-0.08651,-0.01457 -0.17363,-0.02528 -0.26109,-0.03209v1.0935c-0.00007,0.13035 0.00072,0.26071 0.00238,0.39105c0.02496,1.87757 0.27971,2.10459 1.93898,2.48256c0.0871,0.01972 0.17426,0.03913 0.26148,0.05824v0.6656c-1.26783,0 -2.53565,-0.0317 -3.80348,-0.0317c-1.26783,0 -2.53565,0.0317 -3.80347,0.0317v-0.6656c1.76386,-0.38867 2.12797,-0.54636 2.19096,-2.15769zM427.08212,14.57639c0.9065,-0.25277 1.51387,-0.85934 1.51387,-2.08319c0.00056,-0.1379 -0.01046,-0.27559 -0.03289,-0.41165c-0.21949,-1.29873 -1.48969,-1.52733 -2.31258,-1.58517v4.21552c0.28104,-0.01725 0.55963,-0.06265 0.83161,-0.1355z"/></g><path d="M463.64107,33.83344c1.13885,2.633 2.68041,3.90235 4.31476,3.90235c1.08072,0 1.79442,-0.69329 1.79442,-1.69246c0,-2.79357 -6.85141,-2.63045 -6.85141,-7.21845c0.01166,-0.9677 0.4113,-1.89021 1.10927,-2.56061c0.52711,-0.52915 1.2255,-0.95941 2.0595,-1.24336c0.77337,-0.25576 1.58346,-0.38285 2.39799,-0.37622c0.26316,-0.00012 0.52622,0.00974 0.78862,0.02956c1.29582,0.10534 2.55867,0.46239 3.7178,1.05117l-0.32625,4.38408h-1.18269c-0.01154,-0.09835 -0.02411,-0.19657 -0.03773,-0.29464c-0.23654,-1.70062 -0.87784,-3.86514 -2.91899,-3.86514c-0.11268,-0.00024 -0.22523,0.00691 -0.33696,0.02141c-0.63467,0.0836 -1.09245,0.41853 -1.2719,1.04964c-0.05833,0.21581 -0.08646,0.43866 -0.0836,0.6622c0,2.95671 6.85141,2.77319 6.85141,7.15727c0.03784,1.18273 -0.4867,2.31351 -1.41412,3.04847c-1.04811,0.8391 -2.62332,1.27445 -4.54008,1.27445c-1.4391,0 -3.06682,-0.41139 -4.69453,-1.24946c-0.14949,-0.07692 -0.29751,-0.15663 -0.44402,-0.23908c-0.00898,-0.04925 -0.01781,-0.09853 -0.02651,-0.14784c-0.1667,-0.94716 -0.2972,-1.9764 -0.391,-2.98321c-0.05678,-0.60702 -0.10113,-1.21514 -0.13306,-1.82399l1.14191,-0.14274c0.1409,0.42554 0.3001,0.84479 0.47715,1.25661z" fill-rule="evenodd" stroke="#000000" stroke-width="0" stroke-linecap="round"/><path d="M403.48746,42.60281c26.58065,0 50.37124,1.38289 66.29568,3.56139c-16.98532,-1.83278 -40.41673,-2.84557 -66.29568,-2.84557c-25.87896,0 -49.31036,1.01833 -66.2929,2.84557c15.92165,-2.1785 39.71225,-3.56139 66.2929,-3.56139z" fill-rule="nonzero" stroke="#ffffff" stroke-width="1.5" stroke-linecap="butt"/><text transform="translate(357.30175,52.39412) scale(0.4261,0.4261)" font-size="16.9333" xml:space="preserve" fill="#ffffff" fill-rule="nonzero" stroke="none" stroke-width="1" stroke-linecap="butt" stroke-linejoin="miter" stroke-miterlimit="10" stroke-dasharray="" stroke-dashoffset="0" font-family="SerpentineDBol" font-weight="400" text-anchor="start" style="mix-blend-mode: normal"><tspan x="0" dy="0">S  C  R  U  L  T  I  M  A  T  E</tspan></text><path d="M454.22791,27.92263c1.73944,0 3.16783,0.46874 4.28518,1.40623c0.72477,0.57733 1.23512,1.18644 1.53107,1.82732c0.40466,0.81038 0.60699,1.56779 0.60699,2.27224v0.29397c-0.02416,0.6197 -0.07247,0.95338 -0.14495,1.00105h-6.69502c-0.0302,0 -0.0453,-0.01324 -0.0453,-0.03973v-6.69752c0,-0.04237 0.15402,-0.06356 0.46204,-0.06356zM450.6403,29.17792l0.01811,0.03972v0.3178c0,0.11652 0.00906,0.25159 0.02717,0.40519l-0.02717,0.04766c0.03623,0.06356 0.05435,0.1536 0.05435,0.27013v0.53231c0,0.01589 -0.00905,0.02383 -0.02717,0.02383l0.02717,0.03972c0,0.03178 -0.00905,0.06091 -0.02717,0.08739c0.01812,0.02648 0.02717,0.05562 0.02717,0.0874l-0.02717,0.03972l0.02717,0.03972c0,0.01059 -0.00905,0.03972 -0.02717,0.0874l0.02717,0.03972l-0.02717,0.04768l0.02717,0.07944c-0.01812,0.03178 -0.02717,0.05297 -0.02717,0.06356l0.02717,0.04767l-0.02717,0.03973l0.02717,0.0874c0,0.01589 -0.00905,0.02382 -0.02717,0.02382l0.02717,0.10328v2.95548c0,0.02648 -0.01813,0.03974 -0.05435,0.03974h-2.10182c-0.07852,-0.07944 -0.1359,-0.46081 -0.17213,-1.14406c0.06644,-0.9216 0.13891,-1.3824 0.21744,-1.3824c0.04228,-0.45021 0.37446,-1.12287 0.99654,-2.018c0.21744,-0.27542 0.56471,-0.60911 1.04185,-1.00105zM449.01864,35.82776h1.69414c0.0302,0.00529 0.04529,0.02119 0.04529,0.04767v2.09743c0,0.03178 -0.0151,0.04767 -0.04529,0.04767c-0.61606,-0.47669 -1.05393,-0.92426 -1.31364,-1.34268c-0.2899,-0.40255 -0.43487,-0.66472 -0.43487,-0.78655v-0.01589c0.00604,-0.03178 0.02416,-0.04767 0.05435,-0.04767zM453.81118,35.82776h6.30548c0.0302,0 0.0453,0.02118 0.0453,0.06355c-0.23555,0.58263 -0.73684,1.23411 -1.50389,1.95444c-1.06903,0.79448 -2.11692,1.25529 -3.14367,1.3824c-0.18724,0.04237 -0.52848,0.07151 -1.02374,0.0874c-0.48318,-0.01059 -0.72476,-0.03972 -0.72476,-0.0874v-3.35273c0.00604,-0.03178 0.02113,-0.04767 0.04529,-0.04767z" fill-rule="nonzero" stroke="none" stroke-width="0.26459" stroke-linecap="butt"/></g></g></g></svg>