<svg version="1.1" xmlns="http://www.w3.org/2000/svg" xmlns:xlink="http://www.w3.org/1999/xlink" width="465.8707" height="555.11906" viewBox="0,0,465.8707,555.11906"><defs><radialGradient cx="170.73696" cy="218.73917" r="12.02019" gradientUnits="userSpaceOnUse" id="color-1"><stop offset="0" stop-color="#ffc36a"/><stop offset="1" stop-color="#ffa41c"/></radialGradient><linearGradient x1="365.54637" y1="227.71312" x2="367.37099" y2="228.41355" gradientUnits="userSpaceOnUse" id="color-2"><stop offset="0" stop-color="#cedee8"/><stop offset="1" stop-color="#edf3f8"/></linearGradient><linearGradient x1="366.13" y1="226.07515" x2="368.05322" y2="226.81348" gradientUnits="userSpaceOnUse" id="color-3"><stop offset="0" stop-color="#e2524b"/><stop offset="1" stop-color="#ff6767"/></linearGradient><linearGradient x1="363.93595" y1="230.27195" x2="363.57627" y2="231.2089" gradientUnits="userSpaceOnUse" id="color-4"><stop offset="0" stop-color="#ff6767"/><stop offset="1" stop-color="#e2524b"/></linearGradient><linearGradient x1="363.69431" y1="230.35777" x2="366.85042" y2="231.56934" gradientUnits="userSpaceOnUse" id="color-5"><stop offset="0" stop-color="#cedee8"/><stop offset="1" stop-color="#edf3f8"/></linearGradient><linearGradient x1="363.04629" y1="231.41035" x2="361.94836" y2="234.27054" gradientUnits="userSpaceOnUse" id="color-6"><stop offset="0" stop-color="#ff6767"/><stop offset="1" stop-color="#e2524b"/></linearGradient><linearGradient x1="359.1756" y1="232.64037" x2="358.66445" y2="233.9718" gradientUnits="userSpaceOnUse" id="color-7"><stop offset="0" stop-color="#ff6767"/><stop offset="1" stop-color="#e2524b"/></linearGradient><linearGradient x1="357.74609" y1="233.61926" x2="355.70158" y2="238.94513" gradientUnits="userSpaceOnUse" id="color-8"><stop offset="0" stop-color="#edf3f8"/><stop offset="1" stop-color="#cedee8"/></linearGradient><linearGradient x1="358.40901" y1="231.83684" x2="360.33226" y2="232.5751" gradientUnits="userSpaceOnUse" id="color-9"><stop offset="0" stop-color="#e2524b"/><stop offset="1" stop-color="#ff6767"/></linearGradient><linearGradient x1="367.30449" y1="235.2516" x2="369.22775" y2="235.98993" gradientUnits="userSpaceOnUse" id="color-10"><stop offset="0" stop-color="#ff6767"/><stop offset="1" stop-color="#e2524b"/></linearGradient><linearGradient x1="363.2062" y1="232.18938" x2="361.75613" y2="235.9668" gradientUnits="userSpaceOnUse" id="color-11"><stop offset="0" stop-color="#edf3f8"/><stop offset="1" stop-color="#cedee8"/></linearGradient><radialGradient cx="239.99994" cy="399.30593" r="223.06683" gradientUnits="userSpaceOnUse" id="color-12"><stop offset="0" stop-color="#4d8fc9"/><stop offset="1" stop-color="#4d8fc9" stop-opacity="0"/></radialGradient><radialGradient cx="239.59597" cy="399.30477" r="201.5" gradientUnits="userSpaceOnUse" id="color-13"><stop offset="0" stop-color="#69beff"/><stop offset="1" stop-color="#69beff" stop-opacity="0"/></radialGradient><radialGradient cx="239.99995" cy="399.30598" r="180.5" gradientUnits="userSpaceOnUse" id="color-14"><stop offset="0" stop-color="#2a437d"/><stop offset="1" stop-color="#61d4dd"/></radialGradient><radialGradient cx="239.99996" cy="399.30598" r="180.5" gradientUnits="userSpaceOnUse" id="color-15"><stop offset="0" stop-color="#2a437d"/><stop offset="1" stop-color="#2a437d" stop-opacity="0"/></radialGradient><radialGradient cx="239.99996" cy="399.30598" r="180.5" gradientUnits="userSpaceOnUse" id="color-16"><stop offset="0" stop-color="#2a437d"/><stop offset="1" stop-color="#2a437d" stop-opacity="0"/></radialGradient><radialGradient cx="239.99998" cy="399.30597" r="180.5" gradientUnits="userSpaceOnUse" id="color-17"><stop offset="0" stop-color="#2a437d"/><stop offset="1" stop-color="#2a437d" stop-opacity="0"/></radialGradient><radialGradient cx="239.99998" cy="399.30598" r="180.5" gradientUnits="userSpaceOnUse" id="color-18"><stop offset="0" stop-color="#2a437d"/><stop offset="1" stop-color="#2a437d" stop-opacity="0"/></radialGradient><radialGradient cx="239.99998" cy="399.30598" r="180.5" gradientUnits="userSpaceOnUse" id="color-19"><stop offset="0" stop-color="#2a437d"/><stop offset="1" stop-color="#2a437d" stop-opacity="0"/></radialGradient><radialGradient cx="241.69793" cy="227.33571" r="36.26008" gradientUnits="userSpaceOnUse" id="color-20"><stop offset="0" stop-color="#d0edff"/><stop offset="1" stop-color="#d0edff" stop-opacity="0"/></radialGradient><radialGradient cx="135.34709" cy="265.64256" r="36.26008" gradientUnits="userSpaceOnUse" id="color-21"><stop offset="0" stop-color="#d0edff"/><stop offset="1" stop-color="#d0edff" stop-opacity="0"/></radialGradient><radialGradient cx="308.23102" cy="249.65899" r="29.15309" gradientUnits="userSpaceOnUse" id="color-22"><stop offset="0" stop-color="#d0edff"/><stop offset="1" stop-color="#d0edff" stop-opacity="0"/></radialGradient><radialGradient cx="400.04755" cy="455.81365" r="36.26007" gradientUnits="userSpaceOnUse" id="color-23"><stop offset="0" stop-color="#d0edff"/><stop offset="1" stop-color="#d0edff" stop-opacity="0"/></radialGradient><radialGradient cx="398.19285" cy="345.06768" r="36.26008" gradientUnits="userSpaceOnUse" id="color-24"><stop offset="0" stop-color="#d0edff"/><stop offset="1" stop-color="#d0edff" stop-opacity="0"/></radialGradient><radialGradient cx="76.38462" cy="349.49021" r="29.1531" gradientUnits="userSpaceOnUse" id="color-25"><stop offset="0" stop-color="#d0edff"/><stop offset="1" stop-color="#d0edff" stop-opacity="0"/></radialGradient><radialGradient cx="74.53655" cy="448.34631" r="36.26008" gradientUnits="userSpaceOnUse" id="color-26"><stop offset="0" stop-color="#d0edff"/><stop offset="1" stop-color="#d0edff" stop-opacity="0"/></radialGradient><radialGradient cx="192.11279" cy="253.86403" r="36.26008" gradientUnits="userSpaceOnUse" id="color-27"><stop offset="0" stop-color="#d0edff"/><stop offset="1" stop-color="#d0edff" stop-opacity="0"/></radialGradient><radialGradient cx="364.99354" cy="287.46585" r="29.1531" gradientUnits="userSpaceOnUse" id="color-28"><stop offset="0" stop-color="#d0edff"/><stop offset="1" stop-color="#d0edff" stop-opacity="0"/></radialGradient><radialGradient cx="114.94348" cy="316.19611" r="29.15309" gradientUnits="userSpaceOnUse" id="color-29"><stop offset="0" stop-color="#d0edff"/><stop offset="1" stop-color="#d0edff" stop-opacity="0"/></radialGradient><radialGradient cx="388.19281" cy="400.38708" r="36.26008" gradientUnits="userSpaceOnUse" id="color-30"><stop offset="0" stop-color="#d0edff"/><stop offset="1" stop-color="#d0edff" stop-opacity="0"/></radialGradient><radialGradient cx="84.43127" cy="397.77767" r="36.26008" gradientUnits="userSpaceOnUse" id="color-31"><stop offset="0" stop-color="#d0edff"/><stop offset="1" stop-color="#d0edff" stop-opacity="0"/></radialGradient><radialGradient cx="329.50504" cy="284.94419" r="29.15309" gradientUnits="userSpaceOnUse" id="color-32"><stop offset="0" stop-color="#d0edff"/><stop offset="1" stop-color="#d0edff" stop-opacity="0"/></radialGradient><radialGradient cx="225.4994" cy="392.51136" r="214.21686" gradientUnits="userSpaceOnUse" id="color-33"><stop offset="0" stop-color="#4d8fc9"/><stop offset="1" stop-color="#4d8fc9" stop-opacity="0"/></radialGradient><linearGradient x1="386.58329" y1="56.86073" x2="386.3984" y2="64.83617" gradientUnits="userSpaceOnUse" id="color-34"><stop offset="0" stop-color="#eb8b58"/><stop offset="1" stop-color="#c56235"/></linearGradient><linearGradient x1="394.02076" y1="56.09628" x2="393.79791" y2="65.70772" gradientUnits="userSpaceOnUse" id="color-35"><stop offset="0" stop-color="#eb8b58"/><stop offset="1" stop-color="#c56235"/></linearGradient><linearGradient x1="395.7939" y1="52.07756" x2="395.57105" y2="61.68895" gradientUnits="userSpaceOnUse" id="color-36"><stop offset="0" stop-color="#eb8b58"/><stop offset="1" stop-color="#c56235"/></linearGradient><linearGradient x1="400.58254" y1="57.50838" x2="400.40189" y2="65.30085" gradientUnits="userSpaceOnUse" id="color-37"><stop offset="0" stop-color="#eb8b58"/><stop offset="1" stop-color="#c56235"/></linearGradient><linearGradient x1="390.23584" y1="72.20489" x2="390.10605" y2="77.8017" gradientUnits="userSpaceOnUse" id="color-38"><stop offset="0" stop-color="#eb8b58"/><stop offset="1" stop-color="#c56235"/></linearGradient><linearGradient x1="403.97718" y1="71.26352" x2="403.8474" y2="76.86033" gradientUnits="userSpaceOnUse" id="color-39"><stop offset="0" stop-color="#eb8b58"/><stop offset="1" stop-color="#c56235"/></linearGradient><linearGradient x1="398.45497" y1="67.9156" x2="398.32521" y2="73.51242" gradientUnits="userSpaceOnUse" id="color-40"><stop offset="0" stop-color="#eb8b58"/><stop offset="1" stop-color="#c56235"/></linearGradient><linearGradient x1="383.44138" y1="69.38744" x2="383.31161" y2="74.98422" gradientUnits="userSpaceOnUse" id="color-41"><stop offset="0" stop-color="#eb8b58"/><stop offset="1" stop-color="#c56235"/></linearGradient></defs><g transform="translate(2.80392,-52.07506)"><g data-paper-data="{&quot;isPaintingLayer&quot;:true}" fill-rule="nonzero" stroke-linejoin="miter" stroke-miterlimit="10" stroke-dasharray="" stroke-dashoffset="0" style="mix-blend-mode: normal"><g><path d="M186.98694,225.39188c-1.12363,6.48619 -12.89214,9.86339 -26.2857,7.54318c-13.39356,-2.32022 -23.34033,-9.45923 -22.21668,-15.94543c1.12363,-6.48619 12.89214,-9.86337 26.2857,-7.54315c13.39356,2.32022 23.34032,9.45922 22.21669,15.9454z" data-paper-data="{&quot;origPos&quot;:null}" fill="#334355" stroke="none" stroke-width="0" stroke-linecap="butt"/><path d="M187.5154,222.3414c-1.12363,6.48619 -12.89213,9.86339 -26.2857,7.54315c-13.39356,-2.32022 -23.34032,-9.45922 -22.21669,-15.9454c1.12363,-6.48619 12.89213,-9.86339 26.28571,-7.54316c13.39356,2.32022 23.34032,9.45922 22.2167,15.94542z" data-paper-data="{&quot;origPos&quot;:null}" fill="#49617a" stroke="none" stroke-width="0" stroke-linecap="butt"/><g fill="#2934a8" stroke="none" stroke-width="0" stroke-linecap="butt"><path d="M151.98942,207.30803l1.53248,-8.84635l8.84637,1.53248l-1.53249,8.84636c0,0 -1.45951,0.99611 -4.74503,0.42696c-3.19827,-0.55405 -4.10131,-1.95943 -4.10131,-1.95943z" data-paper-data="{&quot;origPos&quot;:null}"/><path d="M151.82842,199.3849l0.42276,-2.44039l11.59178,2.00809l-0.42275,2.44037z"/></g><path d="M183.31263,220.97667c-0.69449,3.7511 -6.57902,5.80669 -13.14343,4.59132c-6.56441,-1.21537 -11.32292,-5.24149 -10.62843,-8.99259c0.69449,-3.7511 6.57902,-5.80669 13.14343,-4.59132c6.56441,1.21537 11.32293,5.2415 10.62841,8.9926z" data-paper-data="{&quot;origPos&quot;:null,&quot;origRot&quot;:0}" fill="url(#color-1)" stroke="none" stroke-width="0" stroke-linecap="butt"/><g data-paper-data="{&quot;origPos&quot;:null}" fill="none" stroke-width="0.5" stroke-linecap="round"><path d="M152.91383,215.71183l8.04273,-1.64552l6.91598,0.02361l5.49961,0.63967l7.1319,2.45617l4.31761,3.34341" data-paper-data="{&quot;origPos&quot;:null}" stroke="#8a8a8a"/><path d="M182.49932,222.38145l1.13728,-1.8662" data-paper-data="{&quot;origPos&quot;:null}" stroke="#8a5f00"/><path d="M179.20245,220.27839l1.29298,-2.00609" data-paper-data="{&quot;origPos&quot;:null}" stroke="#8a5f00"/><path d="M176.73939,216.44114l-1.30878,2.30171" data-paper-data="{&quot;origPos&quot;:null}" stroke="#8a5f00"/><path d="M172.64822,215.33326l-1.30878,2.30171" data-paper-data="{&quot;origPos&quot;:null}" stroke="#8a5f00"/><path d="M168.08997,214.64506l-1.47237,2.58942" data-paper-data="{&quot;origPos&quot;:null}" stroke="#8a5f00"/><path d="M163.48428,214.84368l-1.15307,2.1618" data-paper-data="{&quot;origPos&quot;:null}" stroke="#8a5f00"/><path d="M158.16901,217.22781l1.15307,-2.1618" data-paper-data="{&quot;origPos&quot;:null}" stroke="#8a5f00"/><path d="M154.83268,215.86377l-1.31667,2.44951" data-paper-data="{&quot;origPos&quot;:null}" stroke="#8a5f00"/><path d="M151.69498,219.10539l8.04273,-1.64552l6.91597,0.0236l5.49963,0.63966l7.1319,2.45617l4.31758,3.34341" data-paper-data="{&quot;origPos&quot;:null}" stroke="#8a8a8a"/></g><g data-paper-data="{&quot;origPos&quot;:null}"><path d="M150.23495,215.9146l-5.58499,-0.89126l-0.19864,-4.60563l7.34287,1.28162z" data-paper-data="{&quot;origPos&quot;:null}" fill="#898989" stroke="#898989" stroke-width="1" stroke-linecap="round"/><path d="M146.38018,215.93103c-0.02399,0.44896 -0.3743,0.79527 -0.78244,0.77346c-0.40814,-0.02181 -0.71957,-0.40344 -0.69559,-0.85242c0.02399,-0.44896 0.37429,-0.79526 0.78243,-0.77345c0.40814,0.02181 0.71959,0.40343 0.69561,0.85241z" data-paper-data="{&quot;origPos&quot;:null}" fill="#000000" stroke="none" stroke-width="0" stroke-linecap="butt"/><path d="M149.90382,216.56391c-0.02399,0.44896 -0.3743,0.79527 -0.78244,0.77346c-0.40814,-0.02181 -0.71957,-0.40344 -0.69559,-0.85242c0.02399,-0.44896 0.3743,-0.79524 0.78245,-0.77344c0.40814,0.02181 0.71957,0.40344 0.69559,0.8524z" data-paper-data="{&quot;origPos&quot;:null}" fill="#000000" stroke="none" stroke-width="0" stroke-linecap="butt"/></g></g><g data-paper-data="{&quot;origRot&quot;:0}" stroke="none" stroke-linecap="butt"><path d="M42.01121,134.76621c0.32065,5.97189 -9.41617,11.3498 -21.74776,12.01189c-12.33158,0.66207 -22.58824,-3.64238 -22.90884,-9.6143c-0.32065,-5.97189 9.41621,-11.34979 21.74779,-12.01186c12.33158,-0.66205 22.58823,3.6424 22.90884,9.61432z" data-paper-data="{&quot;origPos&quot;:null}" fill="#579e2e" stroke-width="0"/><path d="M41.86039,131.95758c0.32065,5.97189 -9.41617,11.34978 -21.74777,12.01185c-12.33158,0.66207 -22.58824,-3.6424 -22.90884,-9.6143c-0.32065,-5.97189 9.41615,-11.34979 21.74776,-12.01187c12.33158,-0.66205 22.58825,3.64242 22.90884,9.61432z" data-paper-data="{&quot;origPos&quot;:null}" fill="#76d63e" stroke-width="0"/><path d="M4.38362,136.92716c-0.06663,-1.24092 0.88534,-2.30086 2.12626,-2.36749c1.24092,-0.06663 2.3009,0.88534 2.36751,2.12625c0.06663,1.24092 -0.88534,2.30086 -2.12625,2.36751c-1.24092,0.06663 -2.30088,-0.88535 -2.36752,-2.12627z" data-paper-data="{&quot;origPos&quot;:null}" fill="#822626" stroke-width="0"/><path d="M15.43788,130.39579c-0.04997,-0.93071 0.66399,-1.72564 1.59469,-1.77562c0.93071,-0.04997 1.72566,0.66398 1.77562,1.59469c0.04997,0.93071 -0.66399,1.72564 -1.59469,1.77562c-0.93071,0.04997 -1.72564,-0.66399 -1.77559,-1.5947z" data-paper-data="{&quot;origPos&quot;:null}" fill="#822626" stroke-width="0"/><path d="M25.65917,139.72833c-0.06663,-1.24092 0.88535,-2.30086 2.12627,-2.36752c1.24092,-0.06663 2.30088,0.88535 2.36749,2.12626c0.06663,1.24092 -0.88534,2.30086 -2.12625,2.36751c-1.24092,0.06663 -2.30088,-0.88533 -2.36751,-2.12625z" data-paper-data="{&quot;origPos&quot;:null}" fill="#822626" stroke-width="0"/><path d="M30.52805,130.73521c-0.04163,-0.77556 0.55333,-1.43806 1.32889,-1.47969c0.77558,-0.04164 1.43807,0.55335 1.4797,1.32891c0.04164,0.77558 -0.55333,1.43806 -1.32891,1.4797c-0.77558,0.04164 -1.43806,-0.55333 -1.4797,-1.32891z" data-paper-data="{&quot;origPos&quot;:null}" fill="#822626" stroke-width="0"/><g data-paper-data="{&quot;origPos&quot;:null}"><path d="M8.84719,104.01827c1.74598,-0.09375 3.36292,0.4701 4.56482,1.4567c1.20194,0.98665 1.9888,2.39602 2.07455,3.99343c0.08575,1.59741 -0.54567,3.08297 -1.63504,4.1926c-1.08935,1.10959 -2.63664,1.84332 -4.38261,1.93711c-1.74598,0.09375 -3.36294,-0.47012 -4.56482,-1.4567c-1.20194,-0.98665 -1.98878,-2.39605 -2.07452,-3.99346c-0.08575,-1.59741 0.54567,-3.08293 1.63503,-4.19258c1.08936,-1.10956 2.63662,-1.84335 4.38261,-1.93711z" data-paper-data="{&quot;origPos&quot;:null}" fill="#f1ffa1" stroke-width="0.55092"/><path d="M2.84607,110.37938l12.657,-0.67954l0.94943,17.68394c0,0 -1.67582,1.83214 -6.42138,2.02419c-4.80647,0.1945 -6.23566,-1.34466 -6.23566,-1.34466z" data-paper-data="{&quot;origPos&quot;:null}" fill="#f1ffa1" stroke-width="1.16723"/><path d="M7.77949,108.54976c0.13624,0.36345 0.23565,0.86998 0.2659,1.43342c0.03024,0.56342 -0.01433,1.07772 -0.11091,1.45366c-0.09641,0.37593 -0.24481,0.61351 -0.4222,0.62303c-0.17739,0.00953 -0.35035,-0.21081 -0.48647,-0.57422c-0.13624,-0.36345 -0.23562,-0.87001 -0.2659,-1.43343c-0.03024,-0.56342 0.01433,-1.07773 0.11089,-1.45365c0.09641,-0.37593 0.24481,-0.61351 0.42218,-0.62302c0.17739,-0.00953 0.35038,0.2108 0.48651,0.57424z" data-paper-data="{&quot;origPos&quot;:null}" fill="#000000" stroke-width="1"/><path d="M10.64492,108.39591c0.13624,0.36345 0.23562,0.87001 0.26589,1.43344c0.03024,0.56342 -0.01432,1.07771 -0.11087,1.45367c-0.09641,0.37593 -0.24481,0.61351 -0.4222,0.62303c-0.17739,0.00953 -0.35036,-0.2108 -0.48649,-0.57425c-0.13624,-0.36345 -0.23562,-0.87001 -0.2659,-1.43342c-0.03024,-0.56342 0.01431,-1.07773 0.11089,-1.45365c0.09641,-0.37593 0.24483,-0.6135 0.4222,-0.62301c0.17739,-0.00953 0.35036,0.21078 0.48649,0.57423z" data-paper-data="{&quot;origPos&quot;:null}" fill="#000000" stroke-width="1"/></g><g data-paper-data="{&quot;origPos&quot;:null}" fill="#4e8226" stroke-width="0"><path d="M21.52811,133.56061l-0.43726,-8.14491l8.14489,-0.43727l0.43728,8.14491c0,0 -1.09043,1.17816 -4.11545,1.34061c-2.94468,0.15809 -4.02945,-0.90331 -4.02945,-0.90331z" data-paper-data="{&quot;origPos&quot;:null}"/><path d="M20.02771,126.5995l-0.12063,-2.24688l10.67264,-0.57301l0.12063,2.24688z" data-paper-data="{&quot;origPos&quot;:null}"/></g></g><g><g data-paper-data="{&quot;origPos&quot;:null}" stroke-width="0.75"><path d="M347.76331,238.03516c1.03388,0.78096 2.31098,1.18139 3.44831,1.80144c0.2844,0.15504 0.31628,0.26696 0.50184,0.35186c0.54009,0.24713 1.11994,0.40411 1.66529,0.63929c0.56992,0.24583 1.15109,0.4823 1.68142,0.80469c0.18928,0.11501 0.26837,0.36191 0.44856,0.49064c0.38737,0.27672 0.80382,0.52004 1.23847,0.71426c0.83619,0.37354 1.69511,0.70676 2.56735,0.98555c0.78371,0.25052 1.61328,0.34923 2.39635,0.60147c1.7912,0.5768 3.52255,1.35096 5.32671,1.8856c1.53363,0.45468 3.09229,0.8906 4.68053,1.08024c0.64916,0.07756 1.29455,-0.19917 1.94219,-0.2894c0.41689,-0.05809 1.12953,-0.52589 1.2539,-0.15555c0.22849,0.68068 -0.31867,1.51865 -0.54819,2.25757c-0.22027,0.70903 -0.46814,1.417 -0.79909,2.08161c-0.48066,0.9651 -1.01474,1.91258 -1.63107,2.79721c-0.51003,0.73218 -1.14799,1.37034 -1.7383,2.03953c-0.16121,0.18269 -0.35061,0.68605 -0.51727,0.51795c-0.40734,-0.41049 -0.50782,-1.09201 -0.63076,-1.67516c-0.08732,-0.41377 0.27606,-0.94143 0.00986,-1.27001c-0.31203,-0.38503 -0.95848,-0.65805 -1.4144,-0.46335c-1.8074,0.77199 -3.2479,2.23481 -4.96593,3.18888c-0.42948,0.2386 -1.02492,0.63993 -1.30719,0.29434c-0.56466,-0.69094 -0.39677,-1.74295 -0.58865,-2.61434c-0.12709,-0.57646 -0.29648,-1.14815 -0.36931,-1.73402c-0.03182,-0.25647 0.25866,-0.71276 0.05821,-0.77378c-0.29858,-0.09073 -0.7438,0.24532 -1.05627,0.47026c-0.39568,0.28501 -0.62073,0.77914 -1.03457,1.03587c-0.88203,0.54732 -1.85385,0.9618 -2.85409,1.21314c-1.12824,0.34834 -2.31521,0.82482 -3.48414,0.57322c-0.39925,-0.08735 -0.08032,-0.81774 -0.08616,-1.22727c-0.0128,-0.92395 -0.01705,-1.85197 0.03026,-2.77484c0.01409,-0.27641 0.12292,-0.54165 0.15425,-0.81654c0.05884,-0.51335 0.08249,-1.03197 0.11639,-1.54756c0.0154,-0.23421 0.24127,-0.71976 0.03158,-0.70439c-0.48664,0.03579 -0.94662,0.54391 -1.42428,0.80667c-1.16903,0.64286 -2.37038,1.23645 -3.52066,1.91261c-0.59789,0.35134 -1.05854,0.97062 -1.72285,1.16972c-0.20115,0.06033 -0.21788,-0.27694 -0.25651,-0.57616c-0.15492,-1.19663 -0.24817,-2.40626 -0.28514,-3.61241c-0.01401,-0.46204 0.10909,-0.92047 0.13249,-1.38217c0.04142,-0.81302 -0.02475,-1.63453 0.06246,-2.44401c0.14094,-1.3079 0.3701,-2.60997 0.62185,-3.90116c0.1047,-0.5365 0.31056,-1.05045 0.44721,-1.5798c0.08151,-0.31519 0.15519,-0.63401 0.20752,-0.9553c0.04513,-0.2785 -0.0855,-0.70058 0.2769,-0.92865c0,0 0.19359,0.26954 0.30972,0.43737c0,0 0.24797,0.98994 0.6252,1.27487z" data-paper-data="{&quot;origPos&quot;:null}" fill="#c06520" stroke="#763e13" stroke-linecap="round"/><path d="M361.69141,239.0828c3.80964,1.46243 7.15712,3.05957 9.48797,4.45874c2.33082,1.39921 3.64507,2.60047 3.38786,3.27048c-0.25717,0.66999 -2.03766,0.68329 -4.70606,0.16335c-2.66838,-0.51993 -6.22469,-1.57306 -10.03433,-3.03548c-3.80964,-1.46243 -7.15713,-3.05959 -9.488,-4.45877c-2.33082,-1.39921 -3.64507,-2.60047 -3.38786,-3.27046c0.25717,-0.66999 2.03766,-0.68329 4.70606,-0.16335c2.66838,0.51993 6.22469,1.57306 10.03434,3.0355z" data-paper-data="{&quot;origPos&quot;:null}" fill="#78de56" stroke="#006521" stroke-linecap="butt"/><g data-paper-data="{&quot;origPos&quot;:null}" stroke="none"><g><path d="M365.54637,227.71312l1.82458,0.70045l-2.63134,6.8546l-1.82458,-0.70044z" fill="url(#color-2)" stroke-linecap="butt"/><path d="M365.44849,227.85047l1.61845,-1.41561l0.30477,2.1539z" fill="url(#color-3)" stroke-linecap="round"/></g><path d="M363.93595,230.27195l2.95884,1.13586l-0.35968,0.93693l-2.95884,-1.13586z" fill="url(#color-4)" stroke-linecap="butt"/><path d="M363.66443,231.02526l0.96687,-0.30783l1.52873,0.58686l0.37602,0.9365l-1.10545,3.02704l-3.15608,-1.21153z" fill="url(#color-5)" stroke-linecap="round"/><path d="M363.93395,231.75109l1.97256,0.75722l-0.45692,3.10628l-3.50127,-1.34404z" fill="url(#color-6)" stroke-linecap="round"/><g><path d="M359.1875,233.49363l2.10855,-0.03926l1.23285,0.47328l2.46567,0.94653l1.16461,0.50366l1.52922,1.32255l-0.04885,0.71681l-8.97507,-3.44537z" fill="url(#color-7)" stroke-linecap="round"/><path d="M357.74609,233.61926l10.79966,4.14579l-2.04452,5.32589l-10.79966,-4.14579z" fill="url(#color-8)" stroke-linecap="butt"/><path d="M357.72752,233.6121l1.61845,-1.41561l0.30477,2.1539z" fill="url(#color-9)" stroke-linecap="round"/><path d="M366.623,237.02695l1.61845,-1.41561l0.30477,2.1539z" fill="url(#color-10)" stroke-linecap="round"/><path d="M360.70561,238.82917c0.22735,-0.59221 1.04711,-1.13744 1.586,-0.94204c0.52574,0.19068 0.57954,1.12167 0.56189,1.72576l-0.67447,1.8633l-2.15615,-0.86854z" fill="#000000" stroke-linecap="round"/></g><path d="M362.72898,233.43258l1.83337,-0.72258l0.87886,1.76377l-0.97285,2.53421l-2.71225,-1.04116z" fill="url(#color-11)" stroke-linecap="round"/></g><path d="M360.74023,241.38776c0,0 -1.08856,0.83974 -1.66593,0.67966c-1.49265,-0.41834 -2.08328,-1.57553 -3.30267,-1.95864c-0.91897,-0.28963 -2.83866,0.18653 -2.83866,0.18653" data-paper-data="{&quot;origPos&quot;:null,&quot;origRot&quot;:0}" fill="none" stroke="#bd8247" stroke-linecap="round"/><g data-paper-data="{&quot;origPos&quot;:null}"><path d="M368.55157,244.02506l0.71386,-1.85962z" fill="none" stroke="#763e13" stroke-linecap="round"/><path d="M369.5302,241.45505c0.25842,0.09917 0.45237,0.29402 0.55685,0.52874c0.1045,0.23469 0.11949,0.5092 0.02029,0.7676c-0.09917,0.25842 -0.29402,0.45239 -0.52874,0.55685c-0.23469,0.1045 -0.50918,0.11948 -0.76759,0.02027c-0.25842,-0.09917 -0.45239,-0.29402 -0.55685,-0.52874c-0.1045,-0.23469 -0.11948,-0.50918 -0.02027,-0.76759c0.09917,-0.25842 0.29402,-0.45237 0.52874,-0.55685c0.23469,-0.1045 0.5092,-0.11949 0.7676,-0.02029z" fill="#006521" stroke="none" stroke-linecap="butt"/><path d="M369.90072,240.63556c0.17548,0.06735 0.30719,0.19968 0.37816,0.35905c0.07096,0.15937 0.08113,0.34581 0.01375,0.52126c-0.06737,0.17549 -0.19968,0.30719 -0.35907,0.37817c-0.15937,0.07096 -0.34581,0.08113 -0.52126,0.01375c-0.17549,-0.06737 -0.30719,-0.19968 -0.37817,-0.35907c-0.07096,-0.15938 -0.08113,-0.34581 -0.01376,-0.5213c0.06735,-0.17548 0.19968,-0.30719 0.35905,-0.37816c0.15938,-0.07096 0.34581,-0.08113 0.5213,-0.01376z" fill="#006521" stroke="none" stroke-linecap="butt"/><path d="M370.1754,240.12079c0.10109,0.0388 0.17695,0.11505 0.21788,0.20684c0.04089,0.09183 0.04672,0.19921 0.00792,0.30032c-0.0388,0.10109 -0.11505,0.17695 -0.20685,0.21787c-0.09183,0.04089 -0.19924,0.04673 -0.30032,0.00792c-0.10109,-0.0388 -0.17695,-0.11505 -0.21784,-0.20684c-0.0409,-0.09185 -0.04678,-0.19926 -0.00796,-0.30032c0.0388,-0.10109 0.11505,-0.17695 0.20687,-0.21787c0.09181,-0.04089 0.1992,-0.04672 0.3003,-0.00795z" fill="#006521" stroke="none" stroke-linecap="butt"/></g><g data-paper-data="{&quot;origPos&quot;:null}"><path d="M365.82403,242.83467l-0.71386,1.8596z" fill="none" stroke="#763e13" stroke-linecap="round"/><path d="M366.08879,242.1243c0.25842,0.09917 0.45237,0.29402 0.55685,0.52874c0.1045,0.23469 0.11949,0.5092 0.02029,0.7676c-0.09917,0.25842 -0.29402,0.45239 -0.52874,0.55685c-0.23469,0.1045 -0.50918,0.11948 -0.76759,0.02027c-0.25842,-0.09917 -0.45239,-0.29402 -0.55685,-0.52874c-0.1045,-0.23469 -0.11948,-0.50918 -0.02027,-0.76759c0.09917,-0.25842 0.29402,-0.45239 0.52874,-0.55685c0.23469,-0.1045 0.50918,-0.11948 0.76759,-0.02027z" fill="#006521" stroke="none" stroke-linecap="butt"/><path d="M366.4593,241.30479c0.17548,0.06735 0.30719,0.19969 0.37816,0.35905c0.07096,0.15937 0.08113,0.34581 0.01375,0.52126c-0.06737,0.17549 -0.19968,0.30719 -0.35907,0.37817c-0.15937,0.07096 -0.34581,0.08113 -0.52126,0.01375c-0.17549,-0.06737 -0.30719,-0.19968 -0.37817,-0.35907c-0.07096,-0.15938 -0.08113,-0.34581 -0.01376,-0.5213c0.06735,-0.17548 0.19968,-0.30719 0.35905,-0.37816c0.15938,-0.07096 0.34581,-0.08113 0.5213,-0.01376z" fill="#006521" stroke="none" stroke-linecap="butt"/><path d="M366.73398,240.79004c0.10109,0.0388 0.17695,0.11505 0.21788,0.20684c0.04089,0.09183 0.04673,0.19924 0.00792,0.30032c-0.0388,0.10109 -0.11505,0.17695 -0.20685,0.21787c-0.09183,0.04089 -0.19921,0.04672 -0.3003,0.00791c-0.10109,-0.0388 -0.17696,-0.11503 -0.21784,-0.20684c-0.0409,-0.09185 -0.04675,-0.19927 -0.00796,-0.30032c0.0388,-0.10109 0.11505,-0.17695 0.20687,-0.21787c0.09181,-0.04089 0.1992,-0.04672 0.3003,-0.00795z" fill="#006521" stroke="none" stroke-linecap="butt"/></g><g data-paper-data="{&quot;origPos&quot;:null}"><path d="M354.13045,238.12287l0.71386,-1.85962z" fill="none" stroke="#763e13" stroke-linecap="round"/><path d="M355.10909,235.55285c0.25842,0.09917 0.45237,0.29402 0.55685,0.52874c0.1045,0.23469 0.11949,0.5092 0.02029,0.7676c-0.09917,0.25842 -0.29402,0.45237 -0.52874,0.55685c-0.23469,0.1045 -0.50918,0.11948 -0.76759,0.02027c-0.25842,-0.09917 -0.45237,-0.29402 -0.55685,-0.52874c-0.1045,-0.23469 -0.11949,-0.5092 -0.02029,-0.7676c0.09917,-0.25842 0.29402,-0.45237 0.52874,-0.55685c0.23469,-0.1045 0.5092,-0.11949 0.7676,-0.02029z" fill="#006521" stroke="none" stroke-linecap="butt"/><path d="M355.47961,234.73334c0.17548,0.06735 0.30719,0.19968 0.37816,0.35905c0.07096,0.15937 0.08113,0.34581 0.01375,0.52126c-0.06737,0.17549 -0.19968,0.30719 -0.35907,0.37817c-0.15937,0.07096 -0.34581,0.08113 -0.52126,0.01375c-0.17549,-0.06737 -0.30719,-0.19968 -0.37817,-0.35907c-0.07096,-0.15938 -0.08113,-0.34581 -0.01376,-0.5213c0.06735,-0.17548 0.19968,-0.30719 0.35905,-0.37816c0.15938,-0.07096 0.34581,-0.08113 0.5213,-0.01376z" fill="#006521" stroke="none" stroke-linecap="butt"/><path d="M355.75429,234.21859c0.10109,0.0388 0.17695,0.11505 0.21787,0.20687c0.04089,0.09183 0.04672,0.19921 0.00791,0.3003c-0.0388,0.10109 -0.11505,0.17695 -0.20685,0.21787c-0.09183,0.04089 -0.19921,0.04672 -0.3003,0.00791c-0.10109,-0.0388 -0.17696,-0.11503 -0.21784,-0.20684c-0.0409,-0.09185 -0.04678,-0.19926 -0.00796,-0.30032c0.0388,-0.10109 0.11505,-0.17695 0.20687,-0.21787c0.09181,-0.04089 0.1992,-0.04672 0.3003,-0.00795z" fill="#006521" stroke="none" stroke-linecap="butt"/></g><g data-paper-data="{&quot;origPos&quot;:null}"><path d="M350.27234,238.01114l0.71386,-1.85962z" fill="none" stroke="#763e13" stroke-linecap="round"/><path d="M351.25094,235.44113c0.25842,0.09917 0.45237,0.29402 0.55685,0.52874c0.1045,0.23469 0.11949,0.5092 0.02029,0.7676c-0.09917,0.25842 -0.29402,0.45237 -0.52874,0.55685c-0.23469,0.1045 -0.50918,0.11948 -0.76759,0.02027c-0.25842,-0.09917 -0.45237,-0.29402 -0.55685,-0.52874c-0.1045,-0.23469 -0.11949,-0.5092 -0.02029,-0.7676c0.09917,-0.25842 0.29402,-0.45237 0.52874,-0.55685c0.23469,-0.1045 0.5092,-0.11949 0.7676,-0.02029z" fill="#006521" stroke="none" stroke-linecap="butt"/><path d="M351.61613,234.6355c0.17548,0.06735 0.30719,0.19969 0.37816,0.35905c0.07096,0.15937 0.08113,0.34581 0.01375,0.52126c-0.06737,0.17549 -0.19968,0.30719 -0.35907,0.37817c-0.15937,0.07096 -0.34581,0.08113 -0.52126,0.01375c-0.17549,-0.06737 -0.30719,-0.19968 -0.37817,-0.35907c-0.07096,-0.15938 -0.08113,-0.34581 -0.01379,-0.52132c0.06735,-0.17548 0.19969,-0.30719 0.35905,-0.37816c0.15938,-0.07096 0.34581,-0.08113 0.52129,-0.01378z" fill="#006521" stroke="none" stroke-linecap="butt"/><path d="M351.89081,234.12077c0.10109,0.0388 0.17695,0.11505 0.21787,0.20685c0.04089,0.09183 0.04673,0.19924 0.00792,0.30032c-0.0388,0.10109 -0.11505,0.17695 -0.20687,0.21787c-0.09183,0.04089 -0.19921,0.04672 -0.3003,0.00791c-0.10109,-0.0388 -0.17696,-0.11503 -0.21784,-0.20684c-0.0409,-0.09185 -0.04675,-0.19927 -0.00796,-0.30032c0.0388,-0.10109 0.11505,-0.17695 0.20687,-0.21787c0.09181,-0.04089 0.1992,-0.04672 0.3003,-0.00795z" fill="#006521" stroke="none" stroke-linecap="butt"/></g><g data-paper-data="{&quot;origPos&quot;:null}"><path d="M370.63072,244.24998l-0.71386,1.8596z" fill="none" stroke="#763e13" stroke-linecap="round"/><path d="M370.89545,243.53956c0.25842,0.09917 0.45237,0.29402 0.55685,0.52874c0.1045,0.23469 0.11949,0.5092 0.02029,0.7676c-0.09917,0.25842 -0.29402,0.45237 -0.52874,0.55685c-0.23469,0.1045 -0.5092,0.11949 -0.7676,0.02029c-0.25842,-0.09917 -0.45237,-0.29402 -0.55685,-0.52874c-0.1045,-0.23469 -0.11948,-0.50918 -0.02027,-0.76759c0.09917,-0.25842 0.29402,-0.45239 0.52874,-0.55685c0.23469,-0.1045 0.50918,-0.11948 0.76759,-0.02027z" fill="#006521" stroke="none" stroke-linecap="butt"/><path d="M371.26066,242.73391c0.17548,0.06735 0.30719,0.19968 0.37816,0.35905c0.07096,0.15937 0.08113,0.34581 0.01375,0.52126c-0.06737,0.17549 -0.19968,0.30719 -0.35907,0.37817c-0.15937,0.07096 -0.34581,0.08113 -0.52126,0.01375c-0.17549,-0.06737 -0.30719,-0.19968 -0.37817,-0.35907c-0.07096,-0.15938 -0.08113,-0.34581 -0.01376,-0.5213c0.06735,-0.17548 0.19968,-0.30719 0.35905,-0.37816c0.15938,-0.07096 0.34581,-0.08113 0.5213,-0.01376z" fill="#006521" stroke="none" stroke-linecap="butt"/><path d="M371.54922,242.22451c0.10109,0.0388 0.17695,0.11505 0.21787,0.20685c0.04089,0.09183 0.04673,0.19924 0.00792,0.30032c-0.0388,0.10109 -0.11505,0.17695 -0.20685,0.21787c-0.09183,0.04089 -0.19921,0.04672 -0.3003,0.00791c-0.10109,-0.0388 -0.17696,-0.11503 -0.21784,-0.20684c-0.0409,-0.09185 -0.04675,-0.19927 -0.00796,-0.30032c0.0388,-0.10109 0.11505,-0.17695 0.20687,-0.21787c0.09181,-0.04089 0.1992,-0.04672 0.3003,-0.00795z" fill="#006521" stroke="none" stroke-linecap="butt"/></g><path d="M347.90313,243.44596l0.17433,3.63152" data-paper-data="{&quot;origPos&quot;:null}" fill="none" stroke="#763e13" stroke-linecap="round"/><path d="M356.25936,248.79249l-0.41288,-3.01019" data-paper-data="{&quot;origPos&quot;:null}" fill="none" stroke="#763e13" stroke-linecap="round"/><path d="M362.78685,248.87433l0.49947,3.89893" data-paper-data="{&quot;origPos&quot;:null}" fill="none" stroke="#763e13" stroke-linecap="round"/><path d="M361.4575,247.50853l-2.34992,1.66441" data-paper-data="{&quot;origPos&quot;:null}" fill="none" stroke="#763e13" stroke-linecap="round"/><path d="M368.88496,250.07457l1.34932,2.79935" data-paper-data="{&quot;origPos&quot;:null}" fill="none" stroke="#763e13" stroke-linecap="round"/><path d="M351.04764,243.79753l1.3281,-0.48825" data-paper-data="{&quot;origPos&quot;:null}" fill="none" stroke="#763e13" stroke-linecap="round"/><path d="M350.1665,240.89281l-2.28458,-0.73444" data-paper-data="{&quot;origPos&quot;:null}" fill="none" stroke="#763e13" stroke-linecap="round"/><path d="M366.26524,248.35602l1.52894,-0.26857" data-paper-data="{&quot;origPos&quot;:null}" fill="none" stroke="#763e13" stroke-linecap="round"/></g><g data-paper-data="{&quot;origPos&quot;:null}" fill="none" stroke="none" stroke-width="1" stroke-linecap="butt" font-family="sans-serif" font-weight="normal" font-size="12" text-anchor="start"><g data-paper-data="{&quot;origPos&quot;:null}"/></g></g><g stroke-linecap="butt"><path d="M22.14229,358.68352v-8.46492l0.18466,-1.84658l-0.01475,-0.23349l0.1203,-0.82207l0.08267,-0.8267l0.07094,-0.22294l0.20733,-1.41674v-1.79411l0.18466,-1.84657l-0.01475,-0.23349l0.12031,-0.82207l0.08267,-0.8267l0.07094,-0.22294l0.25765,-1.76057l0.13434,-1.3434l-0.01474,-0.2335l0.1203,-0.82207l0.08267,-0.8267l0.07094,-0.22294l0.26871,-1.83623l0.21121,-0.84483l0.10029,-1.00289l0.53768,-1.68986l0.27481,-1.75192l1.04786,-2.75064l0.2937,-0.88111l0.33289,-0.7426l0.12323,-0.3873l0.10476,-0.1213l0.13142,-0.29315l0.6025,-1.58156l2.60459,-5.20918l2.00111,-3.16842l0.05799,-0.0596l0.0382,-0.07386l2.37302,-2.90036l0.9447,-0.9447l1.12145,-1.36523l0.00679,-0.01629l0.03286,-0.03198l0.312,-0.37982l1.48909,-1.82001l1.3023,-1.3023l2.90036,-2.37302l0.07387,-0.03821l0.0596,-0.05799l3.16842,-2.00111l1.27569,-0.63784l0.71722,-0.47815l2.04995,-1.08903l0.22153,-0.16146l0.52747,-0.23645l0.51048,-0.2712l0.26345,-0.07574l2.11817,-0.94953l1.95345,-0.65115l0.89502,-0.2021l0.8636,-0.31001l0.91927,-0.22982l0.53661,-0.19263l1.06839,-0.407l0.11618,-0.01823l1.26644,-0.45462l2.60459,-0.65115l1.83623,-0.26872l0.22294,-0.07093l0.82671,-0.08267l0.82207,-0.12031l0.2335,0.01475l0.20587,-0.02059l3.01532,-0.75383l1.83623,-0.26872l0.22294,-0.07093l0.8267,-0.08267l0.82207,-0.12031l0.23349,0.01475l0.37871,-0.03787l0.2379,-0.0854l0.82916,-0.20729l0.17442,-0.09266l1.22835,-1.00502l0.07387,-0.03821l0.0596,-0.05799l0.882,-0.55706l0.83431,-0.68261l0.27226,-0.33145l1.4891,-1.82001l0.63817,-0.63817l0.14836,-0.2349l0.05799,-0.0596l0.03821,-0.07387l0.85497,-1.04496l0.03393,-0.11804l0.27119,-0.51048l0.23646,-0.52747l0.16145,-0.22153l1.08903,-2.04994l1.3023,-1.95345l0.57616,-0.70141l0.1268,-0.28286l0.16146,-0.22153l0.89593,-1.68647l0.31267,-0.69749l0.07574,-0.26345l0.27119,-0.51048l0.23645,-0.52747l0.16146,-0.22153l1.08903,-2.04994l1.21023,-1.81535l0.21164,-0.47211l0.07574,-0.26345l0.27119,-0.51048l0.23646,-0.52747l0.16146,-0.22153l1.08903,-2.04995l0.47814,-0.71722l0.63785,-1.27569l0.79241,-1.25464l0.69619,-1.31048l0.9873,-1.48094l1.66127,-2.76879l0.34006,-0.45665l0.26712,-0.50281l1.3023,-1.95344l0.42137,-0.51298l0.34349,-0.56808l1.95344,-2.60459l1.14515,-1.24619l0.29942,-0.36596l0.7022,-1.11182l1.10897,-1.83406l5.86033,-7.81378l1.14514,-1.24618l1.07171,-1.30987l0.29355,-0.29355l1.4731,-1.79334l1.4891,-1.82l2.89814,-2.89814l2.35911,-2.87196l0.74692,-0.59754l0.59753,-0.74692l2.12181,-1.74292l1.74292,-2.12181l0.74692,-0.59753l0.59753,-0.74692l2.89575,-2.37864l0.42963,-0.28642l1.009,-0.82554l1.81711,-1.49263l1.4023,-0.93487l2.07468,-1.55601l0.56808,-0.34349l0.51298,-0.42137l1.4023,-0.93487l2.07468,-1.55601l0.56808,-0.34349l0.51298,-0.42138l1.95345,-1.30229l1.31047,-0.69619l1.25465,-0.79241l1.27569,-0.63785l0.71722,-0.47815l1.31048,-0.69619l1.25464,-0.7924l2.60459,-1.3023l1.25742,-0.47902l0.10007,-0.06177l1.07606,-0.38628l1.06839,-0.40701l0.11618,-0.01822l1.26644,-0.45462l0.06314,-0.01579l0.26149,-0.13074l1.25741,-0.47902l0.10007,-0.06177l1.07605,-0.38628l1.06839,-0.407l0.11618,-0.01823l1.26644,-0.45462l2.60459,-0.65114l0.56336,-0.08244l0.54442,-0.16666l1.79884,-0.35977l0.54393,-0.18131l1.82128,-0.41126l1.80204,-0.48869l3.90689,-0.65115l1.96443,-0.12881l1.95888,-0.19589h3.45808l1.11561,-0.25192l0.08315,-0.00114l0.07924,-0.02521l3.72884,-0.37289h5.89424l0.58547,-0.14869l0.9479,0.14869h0.38617l3.72884,0.37289l1.68986,0.53768l1.75192,0.27481l1.51495,0.57712l1.00932,0.25233l0.74077,0.26591l0.45581,0.04559l1.68986,0.53768l1.75192,0.27481l3.50194,1.33407l0.3454,0.1727l0.91432,0.29092l0.69224,0.59784l0.60497,0.38209l1.31048,0.69619l0.17034,0.11356l0.89216,0.39993l0.83027,0.3163l4.788,1.596l2.11817,0.94952l0.26345,0.07574l0.51048,0.27119l0.52747,0.23645l0.22153,0.16146l0.42729,0.227l0.68446,0.17112l3.52706,1.26613l0.28796,0.17775l0.32523,0.0935l1.54456,0.82054l0.39489,0.14176l1.5534,0.44809l1.2214,0.48856l1.10724,0.22144l2.08638,0.63869l2.09647,0.60475l0.59961,0.23985l6.28409,0.89772l0.27043,0.06663l0.27792,0.01823l3.42668,0.57111l3.25183,0.40648h29.76935l1.47656,0.14766l1.48347,0.03663l3.7349,0.46687h2.42114l1.68403,0.1684l1.69092,0.07145l4.55804,0.65115l0.27043,0.06662l0.27792,0.01823l3.63321,0.60554l4.28337,0.61191l0.64458,0.15881l0.66069,0.06477l3.25574,0.65115l0.54443,0.16666l0.56336,0.08244l1.67998,0.42l2.96679,0.49446l1.24031,0.33636l0.09884,0.00717l1.13627,0.32777l1.14139,0.30953l0.08821,0.04516l1.23476,0.35618l8.26342,3.30537l1.03332,0.25833l1.26644,0.45462l0.11618,0.01822l1.06839,0.407l1.07606,0.38628l0.10007,0.06177l1.25741,0.47902l2.60459,1.3023l1.25464,0.79241l0.947,0.5031l0.6975,0.31267l0.26345,0.07574l0.51048,0.27119l0.52747,0.23645l0.22153,0.16146l2.04994,1.08903l0.81698,0.54466l1.12828,0.71259l1.31048,0.69619l1.95344,1.3023l1.81712,1.49263l1.82,1.48909l2.6046,2.6046l1.48909,1.82001l1.49263,1.81711l1.3023,1.95344l1.08903,2.04995l0.16145,0.22153l0.21949,0.48962l0.11595,0.22417l0.17221,0.32416l0.00568,0.01976l0.81177,1.56941l1.40724,2.27975l0.51731,1.44105l0.79964,1.54597l0.02734,0.37364l3.11705,2.59755l0.75887,0.77267l0.8382,0.6858l6.51148,6.51148l0.58104,0.71016l0.6635,0.63379l7.81377,9.11607l0.59472,0.85281l0.01049,0.00988l0.76798,1.10641l0.7704,1.10471l0.00562,0.01327l0.59285,0.85412l2.78666,5.01599l3.10106,4.65159l4.92284,6.76891l1.18099,2.01966l1.18694,2.01617l3.90688,8.46492l0.02264,0.0655l0.03481,0.05992l3.25574,7.16263l0.03235,0.09539l0.04986,0.08751l2.6046,5.86034l0.26005,0.78854l0.36,0.74823l1.69756,4.6683l1.30604,1.63255l11.84208,11.24997l1.06145,1.23152l1.13693,1.1622l5.20919,6.51148l1.13691,1.7541l1.17858,1.72638l7.81378,14.32526l0.54066,1.27993l0.07216,0.10863l0.4115,1.03635l0.43389,1.02717l0.02479,0.12804l0.51275,1.29137l2.60459,9.11607l0.34144,1.89106l0.41332,1.87667l1.3023,11.06952l0.02185,1.25279l0.01866,0.08689l0.00385,1.20368l0.02099,1.2035l-0.01686,0.08727l0.00401,1.25297l-1.95344,20.18559l-0.03312,0.16671l-0.00187,0.16996l-0.65115,5.86033l-0.03427,0.16054l-0.00405,0.1641l-0.65115,5.20919l-0.04669,0.20493l-0.00887,0.20999l-0.57988,4.05915l-0.48257,4.82567v30.06484l-0.1684,1.68404l-0.07145,1.69092l-0.41129,2.87908v11.97811l-0.14766,1.47656l-0.03662,1.48347l-0.65115,5.20918l-0.04669,0.20493l-0.00887,0.20999l-1.95344,13.67411l-0.51272,2.08104l-0.47208,2.09064l-0.83246,2.49737l-0.35977,1.79884l-0.67947,2.21959l-0.04248,0.27081l-0.20578,0.54018l-0.1692,0.55272l-0.13273,0.23985l-0.82636,2.16919l-0.85838,1.71675l-0.93364,2.3341l-1.03749,1.99198l-0.08956,0.25688l-0.31912,0.52778l-0.2849,0.54701l-0.17287,0.21006l-1.1621,1.92194l-1.95345,2.60459l-0.2531,0.27544l-0.20346,0.3139l-2.60459,3.25574l-1.40902,1.44033l-0.14799,0.20763l-0.54549,0.50126l-0.51806,0.52956l-0.21215,0.14144l-1.48365,1.36335l-2.60459,1.95344l-1.83407,1.10897l-1.81211,1.14449l-0.34328,0.17165l-1.28153,1.02522l-0.3139,0.20345l-0.27544,0.25311l-2.6046,1.95345l-1.83407,1.10897l-1.81212,1.14449l-6.51148,3.25574l-0.92837,0.35367l-0.88111,0.45891l-3.25574,1.3023l-0.6752,0.19476l-0.64124,0.28746l-3.90689,1.3023l-0.89502,0.2021l-0.86361,0.31001l-5.20918,1.3023l-0.56336,0.08244l-0.54442,0.16666l-2.3086,0.46172l-3.6293,1.03694l-1.60125,0.28911l-1.5799,0.38925l-3.33932,0.47704l-1.41026,0.35256l-0.56336,0.08245l-0.54442,0.16666l-3.25574,0.65115l-2.34034,0.22944l-2.33989,0.23399h-0.6295l-1.57909,0.26319l-2.8784,0.57568l-0.66069,0.06477l-0.64458,0.15881l-1.72605,0.24658l-0.5996,0.23985l-1.17266,0.33826l-1.13432,0.45039l-4.05944,1.15984l-3.41494,1.13832l-0.50724,0.11453l-0.4833,0.1919l-3.63428,1.03836l-4.30963,1.61611l-0.42838,0.11355l-0.40439,0.18128l-5.86034,1.95344l-0.89502,0.20211l-0.86361,0.31001l-6.2425,1.56062l-5.00769,2.00308l-0.3651,0.10532l-0.34242,0.16475l-7.16263,2.6046l-0.31362,0.07978l-0.2953,0.13237l-9.76722,3.25574l-0.27168,0.06135l-0.25673,0.10799l-15.99406,4.92124l-5.60242,2.24097l-1.31038,0.37799l-1.27352,0.48798l-13.6862,3.7326l-7.18537,2.39513l-1.44749,0.32685l-1.41893,0.43437l-5.95462,1.19092l-4.65826,1.16456l-1.58552,0.23203l-1.56709,0.33454l-5.86033,0.65115l-1.32094,0.01451l-1.31446,0.13145h-17.581l-1.84658,-0.18466l-0.23349,0.01475l-0.82207,-0.12031l-0.8267,-0.08267l-0.22295,-0.07093l-1.83623,-0.26871l-9.86744,-2.46686l-5.95462,-1.19093l-0.24368,-0.0746l-0.25304,-0.03026l-5.61253,-1.24723l-5.40757,-1.08151l-4.34399,-0.543l-1.09837,-0.25026l-1.11855,-0.13374l-10.4613,-2.32473l-4.57814,-0.50868l-1.56709,-0.33455l-1.58551,-0.23203l-4.90461,-1.22615l-11.41419,-2.53649l-1.16903,-0.38525l-1.20065,-0.27112l-7.99087,-2.66362l-2.05991,-0.34332l-3.0728,-0.8333l-0.17452,-0.02738l-0.18176,-0.06925l-0.18773,-0.05091l-0.15724,-0.08051l-2.97521,-1.13341l-1.71675,-0.85838l-0.29976,-0.11991l-1.10723,-0.22144l-3.5833,-1.09693l-0.79333,-0.43902l-0.87141,-0.25053l-3.30942,-1.75813l-1.48094,-0.98729l-1.98288,-1.18973l-3.08714,-1.54357l-1.57864,-0.99704l-1.6198,-0.92868l-4.55804,-3.25574l-1.5679,-1.37493l-0.22077,-0.14089l-0.50096,-0.49201l-0.52792,-0.46295l-0.15692,-0.20967l-1.4878,-1.46123l-3.14965,-3.77958l-3.20258,-3.73634l-2.60767,-2.60767l-1.17515,-1.4363l-0.17553,-0.15467l-0.49622,-0.66636l-0.52611,-0.64303l-0.10748,-0.2078l-1.1084,-1.48842l-1.32006,-2.20009l-1.21479,-1.61972l-0.34349,-0.56808l-0.42137,-0.51298l-2.6046,-3.90689l-0.26712,-0.50281l-0.34006,-0.45665l-1.12759,-1.87932l-1.60184,-2.0023l-1.00902,-1.55678l-1.07613,-1.51117l-2.371,-4.14924l-2.61619,-4.18592l-2.66676,-3.73346l-3.74041,-4.98722l-0.34349,-0.56808l-0.42137,-0.51298l-3.90689,-5.86034l-0.26712,-0.50281l-0.34006,-0.45665l-3.61471,-6.02452l-3.22445,-4.83668l-3.50945,-4.67927l-1.10897,-1.83407l-1.14449,-1.81212l-3.25574,-6.51148l-0.15776,-0.41413l-0.22262,-0.3832l-3.07292,-6.76044l-3.05817,-6.11634l-0.48815,-1.28137l-0.5945,-1.23564l-5.07977,-13.96935l-2.46394,-6.15986l-0.37799,-1.31037l-0.48799,-1.27352l-5.86033,-21.48788l-0.32925,-1.9582l-0.3932,-1.94637l-0.65115,-6.51148v-1.19027l-0.11843,-1.18435v-19.53445l0.23399,-2.33989l0.22944,-2.34033l1.1313,-5.65649l0.543,-4.34399l0.25026,-1.09836l0.13374,-1.11855l0.73401,-3.30305v-1.28722l0.23399,-2.33989l0.22944,-2.34034l0.65115,-3.25574l0.97414,-3.18217c-0.08941,-0.83974 -0.13528,-1.6925 -0.13528,-2.55597zM382.65694,349.12467l-2.75934,-2.53561l-0.17046,-0.23915l-0.22933,-0.18346l-2.35911,-2.87197l-7.45618,-7.45618l-1.07171,-1.30988l-1.14515,-1.24618l-5.86033,-7.81377l-0.34349,-0.56809l-0.42138,-0.51298l-0.93487,-1.40229l-5.4629,-7.28387l-0.63688,-1.0533l-0.73516,-0.98722l-1.66127,-2.76879l-0.61986,-0.92979l-1.55601,-2.07467l-0.63688,-1.0533l-0.73516,-0.98722l-3.90688,-6.51148l-0.39145,-0.82987l-0.48998,-0.77579l-1.30229,-2.60459l-0.35367,-0.92838l-0.45891,-0.88111l-0.93364,-2.3341l-0.85838,-1.71676l-0.35366,-0.92837l-0.45891,-0.88111l-1.3023,-3.25574l-0.4481,-1.55341l-0.26575,-0.7403l-0.11032,-0.07445l-1.3075,-0.74963l-2.45886,-1.75633l-2.18693,-0.93726l-0.61516,-0.33971l-0.65669,-0.25017l-7.99574,-3.99787l-4.03637,-1.51364l-1.94108,-0.95794l-1.95772,-0.92345l-1.0094,-0.60563l-8.74349,-2.9145l-7.31788,-2.09082l-2.57369,-0.42894l-0.37265,-0.10106l-0.38427,-0.03767l-3.25574,-0.65115l-0.54442,-0.16666l-0.56336,-0.08244l-2.58121,-0.64531l-1.78444,-0.17844l-2.34034,-0.22945l-0.93857,-0.18771h-4.14842l-1.95888,-0.19589l-1.96443,-0.12882l-1.95866,-0.32644h-34.14771l-6.62804,0.55234l-4.58693,0.45869l-3.5241,0.88103l-3.70794,0.54263l-8.59158,-0.54263l-9.67683,-4.88363l-6.9637,-12.4804l0.11747,-6.18682l-1.70906,0.17091h-4.53639l-0.1117,0.01862l-0.17709,0.05903l-1.44748,0.32685l-1.41893,0.43437l-2.2924,0.45848l-0.18019,0.09009l-1.25742,0.47902l-0.10007,0.06177l-1.07606,0.38628l-1.06839,0.407l-0.11618,0.01823l-0.77376,0.27776l-0.20563,0.13708l-1.31048,0.69619l-1.25464,0.7924l-1.2757,0.63785l-0.16607,0.11072l-2.07468,1.556l-0.56808,0.34349l-0.51298,0.42138l-1.4023,0.93487l-2.07468,1.556l-0.56808,0.3435l-0.51298,0.42138l-0.42963,0.28641l-0.97966,0.80153l-1.46508,1.79066l-1.95345,1.95345l-1.79065,1.46509l-1.46509,1.79066l-2.89814,2.89814l-1.47309,1.79333l-1.4891,1.82001l-0.75419,0.75419l-3.55161,4.73548l-0.33996,0.6799l-2.00111,3.16842l-0.05799,0.0596l-0.03821,0.07387l-2.37302,2.90035l-0.75419,0.75419l-0.53841,0.71787l-0.61986,0.92979l-1.66127,2.76879l-0.34006,0.45665l-0.26711,0.50281l-0.47815,0.71722l-0.63784,1.27569l-0.79241,1.25465l-0.5031,0.947l-0.31267,0.6975l-0.07574,0.26345l-0.2712,0.51048l-0.23645,0.52747l-0.16146,0.22153l-1.08903,2.04994l-1.21024,1.81535l-0.21164,0.47211l-0.07574,0.26345l-0.2712,0.51048l-0.23645,0.52747l-0.16146,0.22153l-0.89593,1.68646l-0.89606,1.99889l-1.04447,1.43312l-0.81471,1.57512l-0.85497,1.04496l-0.03393,0.11804l-0.27119,0.51048l-0.23645,0.52747l-0.16146,0.22153l-1.08903,2.04994l-1.3023,1.95344l-1.49263,1.81712l-0.41627,0.50878l-0.55705,0.882l-0.05799,0.0596l-0.03821,0.07386l-2.37302,2.90036l-0.9447,0.9447l-1.12145,1.36523l-0.00679,0.0163l-0.03286,0.03197l-0.312,0.37983l-1.4891,1.82l-1.3023,1.3023l-2.90036,2.37302l-0.07386,0.03821l-0.0596,0.05799l-0.882,0.55705l-1.58913,1.3002l-0.07386,0.03821l-0.0596,0.05799l-0.882,0.55705l-1.58912,1.3002l-0.07386,0.03821l-0.05961,0.05799l-3.04205,1.9213l-0.81698,0.54466l-2.04994,1.08903l-0.22153,0.16146l-0.52747,0.23645l-0.51048,0.27119l-0.26345,0.07575l-2.11817,0.94952l-0.88111,0.29371l-0.50612,0.1928l-0.10007,0.06177l-1.07606,0.38628l-1.06839,0.407l-0.11618,0.01823l-1.26644,0.45462l-1.71545,0.42886l-1.08396,0.36132l-3.65541,0.82541l-0.08315,0.00114l-0.07925,0.02522l-3.17339,0.31734l-2.58122,0.6453l-1.83623,0.26872l-0.22294,0.07094l-0.8267,0.08267l-0.82207,0.12031l-0.01445,-0.00092l-0.75532,0.28774l-0.11617,0.01823l-1.13825,0.4086l-0.59002,0.72114l-0.15243,0.30486l-0.11482,0.34448l-0.02262,0.05045l-0.10534,0.71985l-0.13434,1.3434l0.01475,0.23349l-0.1203,0.82207l-0.08267,0.82671l-0.07094,0.22294l-0.20732,1.41674v1.79411l-0.18466,1.84658l0.01475,0.23349l-0.12031,0.82207l-0.08267,0.82671l-0.07094,0.22294l-0.20733,1.41674v5.701c0,2.94353 -0.53292,5.76261 -1.50754,8.36598l0.20524,2.05239v8.97261l0.55817,8.37252l1.0533,8.95306l2.58453,10.33813l4.78557,13.1603l0.11529,0.45321l0.18613,0.429l5.0307,15.72096l3.70127,9.87005l0.30038,1.13327l0.41331,1.09714l2.33334,8.75003l2.20405,6.06114l1.91155,5.09746l0.42118,1.58899l0.08151,0.17659l0.21244,0.9324l0.24502,0.92437l0.00986,0.19424l0.36519,1.60278l0.30261,2.42089l0.96679,2.5781l0.24639,0.92955l0.35488,0.89376l0.96697,3.38438l1.94684,4.8671l2.63042,5.78692l2.13278,3.83901l2.30888,3.23242l2.29903,3.06537l2.8264,2.51236l3.678,2.452l4.17616,2.32009l5.14772,2.33987l7.70944,2.56982l8.71502,2.17875l9.85786,1.73963l8.72888,1.24698l0.44117,0.10869l0.4529,0.0364l7.16263,1.30229l0.53994,0.15499l0.55721,0.07122l7.919,1.82746l5.66953,1.03082l5.3627,0.53627l14.44181,1.20348h14.49146l27.82062,-1.8547l9.01158,-1.12645l9.70282,-1.81928l1.216,-0.10444l1.20013,-0.22188l7.81378,-0.65114l0.99332,0.01641l0.98852,-0.09885h4.68648l6.13334,-0.94359l9.24358,-1.84871l1.43269,-0.14046l1.41721,-0.25268l14.61244,-1.12403l8.89699,-2.47138l6.14563,-2.04854l4.80758,-2.1367l0.42879,-0.14141l0.40045,-0.20857l2.3341,-0.93364l6.92594,-3.46296l0.65669,-0.25017l0.61516,-0.33971l4.41181,-1.89078l3.85926,-1.71523l2.21722,-1.47815l0.50281,-0.26712l0.45666,-0.34006l8.71157,-5.22694l1.61972,-1.21479l1.92194,-1.16211l0.21006,-0.17287l0.54701,-0.2849l0.52778,-0.31912l0.25689,-0.08956l0.3738,-0.19468l3.24974,-3.24974l0.44193,-0.73655l0.56979,-0.76515l0.4745,-0.82763l1.75633,-2.45886l0.34144,-0.79667l1.9237,-6.73298l4.84876,-24.24379l1.77486,-14.19887l1.21799,-15.83383l0.59806,-18.53984l-1.83919,-30.04007l-1.20872,-9.66974l-0.01405,-0.56919l-0.09994,-0.56052l-0.59152,-7.68984l-0.67997,-4.75977z" fill="url(#color-12)" stroke="none" stroke-width="0.5"/><g fill="url(#color-13)" stroke="#c0e7f0" stroke-width="0"><path d="M38.09595,399.30477c0,-111.28538 90.21462,-201.5 201.5,-201.5c111.28538,0 201.5,90.21462 201.5,201.5c0,111.28538 -90.21462,201.5 -201.5,201.5c-111.28538,0 -201.5,-90.21462 -201.5,-201.5z"/><path d="M38.09595,399.30477c0,-111.28538 90.21462,-201.5 201.5,-201.5c111.28538,0 201.5,90.21462 201.5,201.5c0,111.28538 -90.21462,201.5 -201.5,201.5c-111.28538,0 -201.5,-90.21462 -201.5,-201.5z"/><path d="M38.09595,399.30477c0,-111.28538 90.21462,-201.5 201.5,-201.5c111.28538,0 201.5,90.21462 201.5,201.5c0,111.28538 -90.21462,201.5 -201.5,201.5c-111.28538,0 -201.5,-90.21462 -201.5,-201.5z"/><path d="M38.09595,399.30477c0,-111.28538 90.21462,-201.5 201.5,-201.5c111.28538,0 201.5,90.21462 201.5,201.5c0,111.28538 -90.21462,201.5 -201.5,201.5c-111.28538,0 -201.5,-90.21462 -201.5,-201.5z"/><path d="M38.09595,399.30477c0,-111.28538 90.21462,-201.5 201.5,-201.5c111.28538,0 201.5,90.21462 201.5,201.5c0,111.28538 -90.21462,201.5 -201.5,201.5c-111.28538,0 -201.5,-90.21462 -201.5,-201.5z"/><path d="M38.09595,399.30477c0,-111.28538 90.21462,-201.5 201.5,-201.5c111.28538,0 201.5,90.21462 201.5,201.5c0,111.28538 -90.21462,201.5 -201.5,201.5c-111.28538,0 -201.5,-90.21462 -201.5,-201.5z"/></g><path d="M59.09594,399.30492c0,-99.6874 80.8126,-180.5 180.5,-180.5c99.6874,0 180.5,80.8126 180.5,180.5c0,99.6874 -80.8126,180.5 -180.5,180.5c-99.6874,0 -180.5,-80.8126 -180.5,-180.5z" fill="none" stroke="#c0e7f0" stroke-width="1"/><path d="M59.49995,399.30598c0,-99.6874 80.8126,-180.5 180.5,-180.5c99.6874,0 180.5,80.8126 180.5,180.5c0,99.6874 -80.8126,180.5 -180.5,180.5c-99.6874,0 -180.5,-80.8126 -180.5,-180.5z" fill="url(#color-14)" stroke="#c0e7f0" stroke-width="1"/><path d="M59.49995,399.30598c0,-99.6874 80.8126,-180.5 180.5,-180.5c99.6874,0 180.5,80.8126 180.5,180.5c0,99.6874 -80.8126,180.5 -180.5,180.5c-99.6874,0 -180.5,-80.8126 -180.5,-180.5z" fill="url(#color-15)" stroke="#c0e7f0" stroke-width="0"/><path d="M59.49995,399.30598c0,-99.6874 80.8126,-180.5 180.5,-180.5c99.6874,0 180.5,80.8126 180.5,180.5c0,99.6874 -80.8126,180.5 -180.5,180.5c-99.6874,0 -180.5,-80.8126 -180.5,-180.5z" fill="url(#color-16)" stroke="#c0e7f0" stroke-width="0"/><path d="M59.49996,399.30597c0,-99.6874 80.8126,-180.5 180.5,-180.5c99.6874,0 180.5,80.8126 180.5,180.5c0,99.6874 -80.8126,180.5 -180.5,180.5c-99.6874,0 -180.5,-80.8126 -180.5,-180.5z" fill="url(#color-17)" stroke="#c0e7f0" stroke-width="0"/><path d="M59.49996,399.30598c0,-99.6874 80.8126,-180.5 180.5,-180.5c99.6874,0 180.5,80.8126 180.5,180.5c0,99.6874 -80.8126,180.5 -180.5,180.5c-99.6874,0 -180.5,-80.8126 -180.5,-180.5z" fill="url(#color-18)" stroke="#c0e7f0" stroke-width="0"/><path d="M59.49996,399.30598c0,-99.6874 80.8126,-180.5 180.5,-180.5c99.6874,0 180.5,80.8126 180.5,180.5c0,99.6874 -80.8126,180.5 -180.5,180.5c-99.6874,0 -180.5,-80.8126 -180.5,-180.5z" fill="url(#color-19)" stroke="#c0e7f0" stroke-width="0"/><path d="M241.23986,222.71636c8.53874,0 16.27616,0.69014 21.87884,1.80525c5.60298,1.1148 9.07088,2.65459 9.07088,4.3539c0,1.69931 -3.46791,3.2391 -9.07088,4.3539c-5.60267,1.11511 -13.3401,1.80525 -21.87884,1.80525c-8.53874,0 -16.27616,-0.69014 -21.87884,-1.80525c-5.60297,-1.11481 -9.07089,-2.65459 -9.07089,-4.3539c0,-1.69931 3.46791,-3.23909 9.07089,-4.3539c5.60267,-1.11511 13.3401,-1.80525 21.87884,-1.80525z" fill="url(#color-20)" stroke="none" stroke-width="1"/><path d="M135.12124,260.00622c6.7907,-5.17654 13.36252,-9.31843 18.49423,-11.82817c5.13178,-2.51017 8.82323,-3.38799 9.85342,-2.03657c1.03019,1.35142 -0.79429,4.67838 -4.57439,8.96172c-3.77967,4.28339 -9.51471,9.52298 -16.3054,14.69953c-6.79069,5.17654 -13.36252,9.31843 -18.49423,11.82818c-5.13178,2.51017 -8.82322,3.38799 -9.85341,2.03657c-1.0302,-1.35143 0.79429,-4.67837 4.57439,-8.96171c3.77967,-4.28339 9.5147,-9.523 16.3054,-14.69954z" data-paper-data="{&quot;origRot&quot;:0}" fill="url(#color-21)" stroke="none" stroke-width="1"/><path d="M311.08667,244.19969c7.66318,3.7664 14.30279,7.79872 18.83908,11.27081c4.5367,3.47196 6.96983,6.38352 6.22027,7.90859c-0.74956,1.52506 -4.54106,1.37728 -10.06124,-0.09369c-5.52004,-1.47055 -12.7685,-4.26413 -20.43166,-8.03053c-7.66318,-3.7664 -14.30279,-7.79872 -18.83907,-11.27081c-4.5367,-3.47196 -6.96984,-6.38353 -6.22027,-7.90859c0.74956,-1.52506 4.54106,-1.37728 10.06124,0.09369c5.52004,1.47056 12.7685,4.26413 20.43166,8.03054z" data-paper-data="{&quot;origRot&quot;:0}" fill="url(#color-22)" stroke="none" stroke-width="1"/><path d="M404.57213,456.85123c-2.7205,8.09376 -5.83985,15.20808 -8.68189,20.1635c-2.84184,4.9558 -5.40628,7.75241 -7.01704,7.211c-1.61075,-0.5414 -1.9654,-4.31919 -1.23698,-9.98535c0.72805,-5.66599 2.53906,-13.22008 5.25955,-21.31383c2.7205,-8.09376 5.83985,-15.20809 8.68189,-20.16351c2.84184,-4.9558 5.40629,-7.7524 7.01704,-7.211c1.61075,0.5414 1.96539,4.31919 1.23697,9.98535c-0.72805,5.66599 -2.53905,13.22008 -5.25955,21.31383z" data-paper-data="{&quot;origRot&quot;:0}" fill="url(#color-23)" stroke="none" stroke-width="1"/><path d="M403.63394,346.55553c2.8826,8.03745 4.84507,15.55362 5.68684,21.20382c0.84216,5.65039 0.5635,9.43453 -1.03605,10.0082c-1.59955,0.57368 -4.21967,-2.17083 -7.16054,-7.06852c-2.94106,-4.8973 -6.20276,-11.94749 -9.08537,-19.98495c-2.8826,-8.03745 -4.84506,-15.55363 -5.68683,-21.20383c-0.84216,-5.65039 -0.5635,-9.43453 1.03604,-10.0082c1.59955,-0.57367 4.21967,2.17083 7.16055,7.06852c2.94106,4.8973 6.20276,11.9475 9.08536,19.98496z" data-paper-data="{&quot;origRot&quot;:0}" fill="url(#color-24)" stroke="none" stroke-width="1"/><path d="M78.31973,327.41881c2.64641,-5.06287 5.09984,-7.95735 6.73048,-7.47917c1.63065,0.47818 2.13234,4.23926 1.62545,9.92953c-0.50652,5.69006 -2.02156,13.30903 -4.42434,21.50273c-2.40277,8.19369 -5.24231,15.42426 -7.88894,20.48675c-2.64641,5.06287 -5.09983,7.95734 -6.73048,7.47916c-1.63065,-0.47818 -2.13234,-4.23925 -1.62545,-9.92952c0.50652,-5.69006 2.02156,-13.30903 4.42434,-21.50273c2.40277,-8.19369 5.24231,-15.42426 7.88893,-20.48675z" data-paper-data="{&quot;origRot&quot;:0,&quot;index&quot;:null}" fill="url(#color-25)" stroke="none" stroke-width="1"/><path d="M65.43539,431.8359c-0.89641,-5.64204 -0.65412,-9.42868 0.93984,-10.01769c1.59396,-0.58901 4.24033,2.13019 7.22812,6.9994c2.98797,4.86882 6.31727,11.88736 9.27695,19.89675c2.95969,8.00939 4.99427,15.50636 5.89028,21.14821c0.89641,5.64204 0.65413,9.42868 -0.93984,10.01769c-1.59396,0.58901 -4.24034,-2.13019 -7.22813,-6.9994c-2.98797,-4.86882 -6.31727,-11.88735 -9.27695,-19.89674c-2.95969,-8.00939 -4.99427,-15.50637 -5.89028,-21.14822z" data-paper-data="{&quot;origRot&quot;:0,&quot;index&quot;:null}" fill="url(#color-26)" stroke="none" stroke-width="1"/><path d="M193.54752,248.40872c8.00897,-2.96082 15.50565,-4.99646 21.14737,-5.89327c5.64191,-0.8972 9.42858,-0.65545 10.01782,0.93843c0.58924,1.59388 -2.12959,4.24063 -6.99838,7.22911c-4.86839,2.98866 -11.88646,6.31894 -19.89543,9.27976c-8.00897,2.96082 -15.50565,4.99646 -21.14738,5.89327c-5.64191,0.8972 -9.42858,0.65545 -10.01782,-0.93843c-0.58924,-1.59388 2.12959,-4.24064 6.99838,-7.22912c4.86839,-2.98866 11.88647,-6.31894 19.89544,-9.27977z" data-paper-data="{&quot;origRot&quot;:0}" fill="url(#color-27)" stroke="none" stroke-width="1"/><path d="M369.48457,283.24809c5.99999,6.07538 10.94587,12.06556 14.08933,16.83547c3.14389,4.76991 4.48515,8.31933 3.27607,9.5134c-1.20908,1.19407 -4.74146,-0.19139 -9.47174,-3.39462c-4.73028,-3.20278 -10.65825,-8.22309 -16.65822,-14.29846c-5.99999,-6.07538 -10.94587,-12.06556 -14.08932,-16.83547c-3.14389,-4.76991 -4.48516,-8.31934 -3.27608,-9.5134c1.20908,-1.19407 4.74147,0.1914 9.47174,3.39462c4.73028,3.20278 10.65824,8.22309 16.65821,14.29846z" data-paper-data="{&quot;origRot&quot;:0}" fill="url(#color-28)" stroke="none" stroke-width="1"/><path d="M123.29562,295.67455c4.02061,-4.05842 7.21793,-6.10157 8.63531,-5.16418c1.41737,0.93739 0.78868,4.67934 -1.37224,9.96768c-2.1605,5.28825 -5.85308,12.12264 -10.56331,19.24469c-4.71022,7.12206 -9.55407,13.19506 -13.57478,17.25305c-4.02061,4.05842 -7.21793,6.10156 -8.63532,5.16417c-1.41738,-0.93739 -0.78869,-4.67933 1.37224,-9.96767c2.1605,-5.28825 5.85308,-12.12264 10.56331,-19.2447c4.71022,-7.12206 9.55407,-13.19506 13.57478,-17.25304z" data-paper-data="{&quot;origRot&quot;:0,&quot;index&quot;:null}" fill="url(#color-29)" stroke="none" stroke-width="1"/><path d="M392.90259,403.49144c0.24341,8.53527 -0.2259,16.28922 -1.18085,21.9214c-0.95464,5.63248 -2.39494,9.14287 -4.09356,9.19131c-1.69862,0.04844 -3.33663,-3.37417 -4.6107,-8.94309c-1.27437,-5.5686 -2.18478,-13.28321 -2.42819,-21.81848c-0.24341,-8.53527 0.2259,-16.28923 1.18084,-21.92141c0.95464,-5.63248 2.39494,-9.14287 4.09355,-9.19131c1.69862,-0.04844 3.33664,3.37417 4.61071,8.9431c1.27437,5.5686 2.18478,13.28322 2.42819,21.81849z" data-paper-data="{&quot;origRot&quot;:0}" fill="url(#color-30)" stroke="none" stroke-width="1"/><path d="M80.75805,379.28624c0.85449,-5.64854 2.23226,-9.18395 3.92976,-9.26253c1.69749,-0.07858 3.396,3.31441 4.76872,8.85983c1.37301,5.54511 2.42024,13.24234 2.81512,21.77194c0.39488,8.5296 0.0633,16.29067 -0.79151,21.93891c-0.85449,5.64854 -2.23226,9.18395 -3.92975,9.26253c-1.69749,0.07858 -3.39601,-3.3144 -4.76873,-8.85983c-1.37301,-5.54511 -2.42025,-13.24233 -2.81512,-21.77194c-0.39488,-8.5296 -0.0633,-16.29067 0.79152,-21.93891z" data-paper-data="{&quot;origRot&quot;:0,&quot;index&quot;:null}" fill="url(#color-31)" stroke="none" stroke-width="1"/><path d="M309.19333,276.09398c-3.95915,-4.11841 -5.9237,-7.36462 -4.95202,-8.75871c0.97168,-1.39409 4.69718,-0.67431 9.93124,1.61497c5.23398,2.28885 11.97627,6.14702 18.98133,11.02956c7.00505,4.88254 12.95809,9.87308 16.91682,13.99157c3.95915,4.11841 5.92368,7.36461 4.952,8.75871c-0.97168,1.39409 -4.69716,0.67432 -9.93123,-1.61495c-5.23398,-2.28885 -11.97629,-6.14702 -18.98133,-11.02957c-7.00505,-4.88254 -12.95809,-9.87307 -16.9168,-13.99156z" data-paper-data="{&quot;origRot&quot;:0,&quot;index&quot;:null}" fill="url(#color-32)" stroke="none" stroke-width="1"/><path d="M42.88834,501.80769l-5.38263,-6.09175l-1.0413,-1.4463l-0.15908,-0.15865l-0.43616,-0.66809l-0.46619,-0.6475l-0.09071,-0.20555l-0.75167,-1.15138l-1.14083,-1.29112l-1.0413,-1.4463l-0.15909,-0.15865l-0.43616,-0.6681l-0.46619,-0.6475l-0.09071,-0.20554l-0.93409,-1.43082l-0.75756,-1.0522l-0.15908,-0.15866l-0.43616,-0.66809l-0.46618,-0.6475l-0.09071,-0.20555l-0.97423,-1.4923l-0.38521,-0.74227l-0.56554,-0.7855l-0.6876,-1.558l-0.91624,-1.43551l-0.99497,-2.6458l-0.34891,-0.82085l-0.23264,-0.74609l-0.15759,-0.35708l-0.00174,-0.15391l-0.09183,-0.29453l-0.57209,-1.52128l-1.438,-5.40496l-0.57463,-3.55259l0.00383,-0.07977l-0.01947,-0.07745l-0.13653,-3.59617l0.07914,-1.28056l-0.06107,-1.69558l-0.00548,-0.01604l0.00332,-0.04391l-0.01699,-0.47173l-0.08567,-2.25664l0.1091,-1.76529l0.57829,-3.552l0.02886,-0.07446l0.00601,-0.07963l1.00769,-3.4548l0.51246,-1.2702l0.2121,-0.80016l0.78275,-2.08722l0.05676,-0.25706l0.22924,-0.50556l0.19492,-0.51977l0.14143,-0.22203l0.92055,-2.03021l0.99174,-1.71074l0.51559,-0.71456l0.42436,-0.77225l0.51542,-0.74993l0.26368,-0.47984l0.51006,-0.97226l0.07202,-0.08699l0.62231,-1.13246l1.46033,-2.12479l1.15057,-1.36099l0.11533,-0.19281l0.54237,-0.58517l0.5151,-0.60931l0.17741,-0.13786l0.13506,-0.14573l1.69062,-2.45985l1.15057,-1.36099l0.11533,-0.19281l0.54237,-0.58517l0.5151,-0.60931l0.17741,-0.13786l0.24845,-0.26806l0.1169,-0.21273l0.46489,-0.67641l0.0666,-0.17759l0.24491,-1.50434l0.02886,-0.07446l0.00602,-0.07963l0.28051,-0.96172l0.16635,-1.02175l-0.01483,-0.41164l-0.08567,-2.25664l0.05346,-0.86505l-0.0426,-0.26338l0.00384,-0.07977l-0.01947,-0.07745l-0.04919,-1.29565l-0.05064,-0.10653l-0.12944,-0.53981l-0.16524,-0.52995l-0.02467,-0.26209l-0.51979,-2.16772l-0.30495,-2.23388l-0.03138,-0.87114l-0.08861,-0.28418l-0.02467,-0.26209l-0.42763,-1.78336l-0.21851,-0.70077l-0.11301,-0.23775l-0.12944,-0.53981l-0.16524,-0.52995l-0.02467,-0.26209l-0.51979,-2.16772l-0.28339,-2.07596l-0.1479,-0.47433l-0.11301,-0.23775l-0.12944,-0.53981l-0.16524,-0.52995l-0.02467,-0.26209l-0.51979,-2.16772l-0.11197,-0.82018l-0.35215,-1.32364l-0.22755,-1.40677l-0.33229,-1.38577l-0.23119,-1.69354l-0.56507,-3.0489l-0.04565,-0.54487l-0.1275,-0.5317l-0.30495,-2.23389l-0.02295,-0.6371l-0.11404,-0.62724l-0.2504,-3.11653l0.03168,-1.62498l-0.01723,-0.45375l-0.20164,-1.24663l-0.36817,-2.02504l-0.75122,-9.34959l0.03168,-1.62498l-0.06166,-1.62412l0.02459,-0.39791l-0.08023,-2.22727l-0.08567,-2.25664l0.24278,-3.92849l-0.12848,-3.56689l0.15756,-0.90496l-0.04493,-0.91747l0.41868,-2.60349l-0.09492,-2.63523l0.15756,-0.90496l-0.04494,-0.91747l0.57139,-3.55311l0.12705,-0.47931l0.20118,-1.2357l0.35855,-2.22961l0.4147,-1.56446l0.50361,-2.439l0.1904,-0.60842l0.10122,-0.62943l0.4147,-1.56446l0.50361,-2.43901l0.1904,-0.60842l0.10122,-0.62943l0.57769,-2.17934l0.50039,-1.33431l0.39903,-1.36805l0.51246,-1.27021l0.2121,-0.80016l0.50039,-1.33431l0.39903,-1.36804l1.04629,-2.59339l0.6003,-1.14428l0.03274,-0.10808l0.52876,-0.96222l0.51006,-0.97226l0.07202,-0.08699l0.6223,-1.13246l0.0354,-0.05151l0.10504,-0.26036l0.6003,-1.14428l0.03274,-0.10808l0.52875,-0.96222l0.51006,-0.97226l0.07202,-0.08699l0.6223,-1.13246l1.46034,-2.12479l0.35299,-0.41756l0.28581,-0.46612l1.06576,-1.40274l0.27614,-0.47635l1.04917,-1.45407l0.98609,-1.49756l2.39753,-2.95289l1.33178,-1.34183l1.28514,-1.38657l2.4886,-2.19891l0.64265,-0.89067l0.05912,-0.05369l0.04099,-0.06854l2.44634,-2.63942l4.24176,-3.748l0.32678,-0.47929l0.7767,-0.49574l0.27791,-0.24556l2.92055,-2.10273l1.558,-0.6876l1.43551,-0.91623l1.4572,-0.54799l0.88681,-0.46022l0.70218,-0.27967l0.35701,-0.25703l1.558,-0.6876l1.43551,-0.91623l3.36845,-1.26673l0.35838,-0.09535l0.84298,-0.37204l0.87832,-0.00994l0.67833,-0.10972l1.38577,-0.33229l0.19479,-0.02659l0.89635,-0.27949l0.79862,-0.30033l4.46052,-1.89601l2.12811,-0.66357l0.23775,-0.11302l0.53981,-0.12944l0.52995,-0.16524l0.26209,-0.02467l0.45184,-0.10835l0.60138,-0.31209l3.34334,-1.3316l0.32026,-0.05519l0.2935,-0.13952l1.6333,-0.39164l0.37433,-0.14909l1.40283,-0.6653l1.18963,-0.42506l0.93763,-0.5447l1.90758,-0.86704l1.89326,-0.89789l0.58402,-0.20867l5.09315,-3.34984l0.23698,-0.12401l0.21159,-0.16361l2.82915,-1.76794l2.59864,-1.77523l21.42339,-18.92957l1.15649,-0.83265l1.09087,-0.91694l2.98467,-2.03895l1.74236,-1.53954l1.31899,-0.94965l1.2623,-1.0238l3.69422,-2.42974l0.23698,-0.12401l0.21159,-0.16361l2.99966,-1.87449l3.47161,-2.28333l0.56485,-0.29558l0.51664,-0.3735l2.75703,-1.60164l0.49777,-0.22625l0.45784,-0.2989l1.47606,-0.76601l2.44946,-1.53067l1.10646,-0.54662l0.07569,-0.05769l1.02614,-0.48665l1.01821,-0.50303l0.09219,-0.02359l1.11508,-0.52883l8.04854,-2.8758l0.90789,-0.47115l1.20047,-0.47813l0.0952,-0.06076l1.02767,-0.38646l1.02,-0.40626l0.1113,-0.01918l1.20949,-0.45484l2.70248,-0.719l1.40677,-0.22755l1.00141,-0.24012l0.70077,-0.21851l0.23775,-0.11302l0.53981,-0.12944l0.52994,-0.16524l0.26209,-0.02467l2.16772,-0.51979l0.93427,-0.12753l1.26508,-0.20463l1.38577,-0.33229l2.23388,-0.30495l2.2568,-0.0813l2.25664,-0.08567l3.53058,0.21819l2.22892,0.36288l2.22962,0.35856l2.17934,0.57769l2.08722,0.78275l0.25706,0.05676l0.46929,0.21279l0.22599,0.0876l0.33005,0.12377l0.01666,0.01061l1.58214,0.61324l2.46235,0.74578l1.28861,0.70811l1.5585,0.60408l0.25726,0.2515l3.89488,-0.11274l1.03744,0.0735l1.03929,-0.03946l8.82644,0.54548l0.86971,0.14159l0.8805,0.0342l11.41982,1.59176l0.97027,0.23555l0.01383,0.00044l1.2562,0.30788l1.25687,0.30513l0.01248,0.00598l0.96975,0.23768l5.19494,1.83777l5.18949,1.37561l7.84688,1.74091l2.13414,0.70248l2.1362,0.69618l8.1942,3.60746l0.05794,0.03274l0.06315,0.02099l6.89751,3.08431l0.08394,0.04808l0.09153,0.03127l5.60082,2.56117l0.68856,0.40211l0.73485,0.30955l4.19009,2.28008l1.97798,0.34438l15.67567,0.56592l1.54696,0.21131l1.5572,0.11342l7.88925,1.37357l1.93356,0.5394l1.94592,0.49295l14.73221,5.34053l1.20296,0.57731l0.12101,0.03229l0.95512,0.48415l0.9654,0.4633l0.09926,0.07638l1.19014,0.60328l7.67106,4.90415l1.4482,1.14378l1.49077,1.08772l7.97601,7.13804l0.81234,0.88767l0.06869,0.05067l0.76816,0.86378l0.78038,0.85275l0.04335,0.07352l0.79961,0.89915l11.42971,15.76862l0.08217,0.14104l0.10673,0.1235l3.25784,4.63141l0.07741,0.13732l0.10143,0.12067l2.84379,4.16282l0.09671,0.17717l0.12714,0.15677l2.1638,3.28987l2.72124,3.77963l19.11746,21.63604l0.94965,1.31899l1.0238,1.2623l1.53474,2.33345l7.61657,8.61999l0.83264,1.15649l0.91695,1.09087l2.84379,4.16282l0.09671,0.17717l0.12715,0.15676l7.28923,11.08266l0.9543,1.82364l0.98965,1.8047l0.98894,2.32656l0.88493,1.52329l0.9224,2.02938l0.14163,0.2219l0.19539,0.51958l0.2297,0.50536l0.05699,0.257l0.78465,2.08651l0.47391,1.78127l0.8123,2.2734l0.52002,2.09323l0.0989,0.24181l0.10595,0.58274l0.1428,0.57482l0.00917,0.26109l0.38581,2.12207l0.2504,3.11653l-0.007,0.35916l0.05319,0.35527l0.19586,3.99917l-0.09813,1.93249l0.02553,0.24353l-0.07382,0.7076l-0.03608,0.71052l-0.06274,0.23669l-0.20078,1.92454l-0.63224,3.06198l-0.61471,1.96431l-0.57633,1.9759l-0.1379,0.34181l-0.27034,1.55269l-0.09652,0.34602l-0.03727,0.35729l-0.63224,3.06198l-0.61472,1.9643l-0.57633,1.97591l-2.61572,6.48346l-0.44321,0.84484l-0.34228,0.89053l-1.51488,3.00744l-0.36206,0.5695l-0.27868,0.61462l-1.98348,3.42148l-0.51559,0.71457l-0.42436,0.77224l-2.92067,4.24958l-0.35299,0.41756l-0.28581,0.46612l-1.36778,1.80025l-1.95245,3.05401l-0.96849,1.22625l-0.88945,1.28474l-2.09979,2.46669l-0.7907,1.15047l-0.35299,0.41756l-0.28581,0.46612l-1.92893,2.53884l-1.53832,1.65328l-1.53511,1.65626l-0.45302,0.40028l-0.96903,1.1935l-1.70537,2.24459l-0.43427,0.46672l-0.36289,0.52416l-1.08535,1.275l-0.27899,0.55388l-0.6288,0.98909l-0.52992,1.04541l-2.18385,3.41597l-1.73372,2.99066l-0.2922,0.40496l-0.22578,0.44542l-1.95512,3.0582l-2.07376,3.90341l-0.23607,0.35411l-0.17575,0.3876l-2.97522,5.13222l-0.51559,0.71457l-0.42436,0.77224l-3.50003,5.09254l-2.33006,4.62577l-0.19578,0.30795l-0.14166,0.3363l-3.49836,6.42892l-0.17496,0.25683l-0.12834,0.28303l-4.9587,8.5537l-0.1565,0.2169l-0.11609,0.24096l-8.38076,13.71176l-2.60679,5.17514l-0.70265,1.10526l-0.60619,1.16097l-7.47575,11.38885l-3.64793,6.29264l-0.83384,1.15563l-0.74493,1.21485l-3.52794,4.64344l-2.61178,3.80014l-0.99347,1.17517l-0.91502,1.23723l-3.80332,4.19503l-0.94138,0.8504l-0.86236,0.93043l-12.65209,11.17931l-1.4463,1.0413l-0.15865,0.15908l-0.6681,0.43616l-0.6475,0.46619l-0.20555,0.09072l-1.4923,0.97423l-8.66967,4.49919l-5.0425,2.92935l-0.2228,0.10127l-0.20134,0.13913l-4.83211,2.6713l-4.57924,2.66022l-3.47141,2.37146l-0.94957,0.51832l-0.89,0.61501l-9.00667,4.97909l-3.6181,2.54505l-1.34048,0.75572l-1.28855,0.84121l-4.30925,2.23632l-9.82706,5.43262l-1.08626,0.46611l-1.03644,0.56836l-7.44432,3.16432l-1.70072,1.06278l-2.7412,1.35423l-0.143,0.09127l-0.17484,0.06575l-0.16746,0.08274l-0.16435,0.04205l-2.8618,1.0762l-1.78127,0.47391l-0.29196,0.10432l-0.93762,0.5447l-3.27622,1.48913l-0.85008,0.18852l-0.78641,0.37381l-3.49956,0.83914l-1.69354,0.23119l-2.18349,0.40468l-3.20316,0.85221l-1.77005,0.2863l-1.75621,0.36167l-5.35041,0.55536l-2.00262,0.00752l-0.24846,0.03899l-0.67336,-0.03552l-0.67429,0.00253l-0.24625,-0.0511l-1.99985,-0.10551l-4.66997,-0.71718l-4.68057,-0.65241l-3.53475,-0.21845l-1.75899,-0.28638l-0.22468,0.00031l-0.78083,-0.16401l-0.7875,-0.12821l-0.20949,-0.0812l-1.7441,-0.36634l-2.34895,-0.7439l-1.90416,-0.39317l-0.60842,-0.1904l-0.62943,-0.10122l-4.35868,-1.15538l-0.51195,-0.19199l-0.53509,-0.11239l-2.00647,-0.63544l-2.42597,-0.42238l-1.71605,-0.47872l-1.73534,-0.40322l-4.34467,-1.47832l-4.54445,-1.3488l-4.29314,-0.99105l-5.86302,-1.2106l-0.60842,-0.1904l-0.62943,-0.10122l-6.53801,-1.73307l-0.51196,-0.19199l-0.53509,-0.11239l-6.43215,-2.03702l-5.39598,-1.43035l-5.50099,-1.13584l-1.9643,-0.61472l-1.97591,-0.57633l-6.48346,-2.61572l-0.37687,-0.19771l-0.40387,-0.13421l-6.51021,-2.91113l-6.09002,-2.45699l-1.16608,-0.61174l-1.21354,-0.51119l-12.53838,-6.82289l-5.69006,-2.86616l-1.10525,-0.70265l-1.16097,-0.60619l-17.88096,-11.73723l-1.48212,-1.19985l-1.52061,-1.15067l-4.60908,-4.27191l-0.75686,-0.85657l-0.83833,-0.777l-12.42145,-14.05788l-1.31949,-1.83268l-1.32304,-1.83011l-2.78268,-4.79003l-2.37147,-3.47141l-0.51832,-0.94957l-0.61501,-0.89l-1.5721,-2.84376l-0.81851,-0.92634l-1.31949,-1.83268l-1.32304,-1.83011l-1.60164,-2.75703l-1.32243,-2.90946c-0.59832,-0.54746 -1.17357,-1.13198 -1.72263,-1.75337zM296.25291,265.68672l-3.59808,-0.07015l-0.27475,-0.06371l-0.2817,0.0138l-3.52393,-0.5667l-10.107,-0.62461l-1.60417,-0.26117l-1.61652,-0.16864l-9.18594,-1.89672l-0.60843,-0.1904l-0.62943,-0.10122l-1.56445,-0.4147l-8.56297,-1.76809l-1.12809,-0.35303l-1.15681,-0.24298l-2.95612,-0.93619l-1.03731,-0.27497l-2.43901,-0.5036l-1.1281,-0.35303l-1.1568,-0.24297l-6.95206,-2.20167l-0.8094,-0.3483l-0.84591,-0.24673l-2.59338,-1.04629l-0.84484,-0.44321l-0.89052,-0.34227l-2.15608,-1.08605l-1.70937,-0.68964l-0.84484,-0.44321l-0.89053,-0.34227l-3.00743,-1.51488l-1.31024,-0.83297l-0.66198,-0.36377l-0.12674,0.01658l-1.41761,0.29194l-2.88631,0.29959l-2.16979,0.71612l-0.65871,0.14669l-0.63166,0.23754l-8.29624,2.20724l-3.86724,1.47734l-2.00602,0.54491l-1.99607,0.58031l-1.11151,0.20601l-8.14547,3.46235l-6.59579,3.1486l-2.1249,1.32785l-0.33244,0.16423l-0.30049,0.21724l-2.75703,1.60164l-0.49777,0.22625l-0.45784,0.2989l-2.26789,1.17694l-1.39763,1.00626l-1.83011,1.32304l-0.7948,0.46172l-2.98539,2.63787l-1.53426,1.10463l-1.49561,1.15643l-1.61712,1.01054l-24.57425,21.71365l-4.41862,4.61209l-3.0093,3.2468l-1.97588,2.87492l-2.32337,2.74828l-6.52793,5.07266l-10.06927,2.63876l-12.94736,-4.55342l-3.8495,-4.52701l-1.12124,1.20974l-3.26459,2.88457l-0.06855,0.08442l-0.0899,0.15508l-0.83384,1.15563l-0.74492,1.21485l-1.35818,1.78762l-0.07238,0.17941l-0.6003,1.14428l-0.03274,0.10808l-0.52876,0.96222l-0.51006,0.97226l-0.07202,0.08699l-0.38022,0.69191l-0.06081,0.22941l-0.50039,1.33431l-0.39903,1.36804l-0.51246,1.2702l-0.04911,0.18528l-0.50361,2.439l-0.1904,0.60842l-0.10122,0.62943l-0.4147,1.56446l-0.50361,2.43901l-0.1904,0.60842l-0.10122,0.62943l-0.12705,0.4793l-0.19533,1.19976l0.08429,2.22024l-0.16364,2.64793l-0.35703,2.19297l0.08429,2.22025l-0.24278,3.92849l0.08023,2.22726l0.08567,2.25664l-0.06318,1.02232l0.45527,5.66624l0.18769,0.70546l0.57463,3.55259l-0.00383,0.07977l0.01947,0.07745l0.13653,3.59617l-0.06318,1.02232l0.06902,0.85897l0.14515,1.06327l0.56507,3.04891l0.04565,0.54486l0.1275,0.5317l0.11197,0.82019l0.35216,1.32363l0.22755,1.40677l0.24012,1.00141l0.21851,0.70077l0.11302,0.23775l0.12944,0.53981l0.16524,0.52994l0.02467,0.26209l0.51979,2.16772l0.28339,2.07597l0.1479,0.47433l0.11302,0.23776l0.12944,0.53981l0.16524,0.52994l0.02467,0.26209l0.42762,1.78336l0.6262,2.00827l0.15963,1.69549l0.41527,1.65158l0.04919,1.29565l0.05064,0.10653l0.12944,0.53981l0.16524,0.52994l0.02467,0.26209l0.51979,2.16772l0.30495,2.23388l0.0813,2.2568l0.02395,0.63084l0.15996,0.98894l-0.00383,0.07977l0.01947,0.07745l0.13653,3.59617l-0.07914,1.28056l0.06107,1.69558l0.00548,0.01605l-0.00332,0.0439l0.01699,0.47174l0.08567,2.25664l-0.1091,1.76529l-0.57829,3.552l-0.02886,0.07446l-0.00602,0.07963l-0.28051,0.96172l-0.31685,1.94617l-0.02886,0.07446l-0.00602,0.07963l-0.28051,0.96172l-0.31684,1.94617l-0.02886,0.07446l-0.00602,0.07963l-0.9675,3.31701l-0.24161,0.91146l-0.78274,2.08722l-0.05676,0.25706l-0.22924,0.50556l-0.19492,0.51976l-0.14143,0.22203l-0.92056,2.03021l-0.44733,0.77164l-0.24163,0.46058l-0.03273,0.10809l-0.52876,0.96222l-0.51006,0.97226l-0.07202,0.08699l-0.62231,1.13246l-0.96181,1.39943l-0.55031,0.94928l-2.10574,2.91838l-0.05911,0.05369l-0.04099,0.06854l-2.08193,2.24625l-1.44723,2.10572l-1.15056,1.36099l-0.11534,0.19281l-0.54236,0.58517l-0.5151,0.60931l-0.01098,0.00853l-0.3606,0.68736l-0.07202,0.08699l-0.55932,1.01783l0.03395,0.89414l0.08416,0.31632l0.13641,0.32091l0.01581,0.05069l0.38192,0.58502l0.75756,1.0522l0.15908,0.15865l0.43616,0.66809l0.46619,0.6475l0.09071,0.20555l0.75166,1.15138l1.14083,1.29112l1.0413,1.4463l0.15909,0.15865l0.43616,0.6681l0.46619,0.6475l0.09071,0.20554l0.75166,1.15139l3.62512,4.1027c1.87172,2.1183 3.28078,4.4859 4.23482,6.97914l1.45276,1.34649l5.70545,6.4571l5.72555,5.67032l6.45103,5.77326l8.4337,5.79636l11.8122,6.42773l0.37115,0.25284l0.40674,0.19037l13.61688,8.11462l8.93971,4.74939l0.93679,0.62455l0.99507,0.52674l7.2431,4.81321l5.44026,2.96037l4.61698,2.45286l1.31349,0.8757l0.17094,0.07526l0.74577,0.53591l0.76411,0.50942l0.13061,0.13352l1.28197,0.92122l1.75715,1.54976l2.3351,1.24057l0.76838,0.51227l0.82371,0.41754l2.84791,1.82068l4.4959,2.26465l5.57273,2.49192l3.97597,1.40655l3.71698,0.85804l3.60367,0.74409l3.63156,0.01077l4.20602,-0.57417l4.48064,-0.98587l5.1924,-1.58943l7.18215,-3.05288l7.65713,-3.97373l8.20035,-5.01645l7.07463,-4.65309l0.3866,-0.20231l0.34907,-0.2618l5.98265,-3.61734l0.48712,-0.2318l0.44628,-0.30306l6.86092,-3.72036l4.73553,-2.86328l4.20024,-3.02408l11.15825,-8.3171l10.42872,-9.21475l18.84163,-19.02515l5.76887,-6.54088l5.82576,-7.47901l0.80867,-0.84838l0.72258,-0.9228l5.2091,-5.43717l0.72528,-0.61981l0.64853,-0.69971l3.3726,-2.98001l3.81383,-4.57908l5.47655,-7.20817l0.94171,-1.01209l0.85922,-1.08301l9.80103,-10.10058l4.83119,-7.43589l3.12006,-5.38207l2.10108,-4.59468l0.21866,-0.37442l0.15556,-0.40473l1.08605,-2.15608l2.78221,-6.89613l0.31351,-0.59761l0.22668,-0.63563l1.97264,-4.16604l1.68663,-3.68836l0.6557,-2.47362l0.19199,-0.51196l0.11239,-0.5351l2.94557,-9.30101l0.39317,-1.90416l0.64416,-2.05842l0.04125,-0.25798l0.21249,-0.55286l0.17689,-0.56526l0.12792,-0.22779l0.1452,-0.37779l0.27224,-4.40509l-0.15032,-0.81106l-0.07649,-0.91295l-0.18479,-0.89733l-0.29959,-2.88631l-0.26087,-0.79043l-2.89694,-6.06859l-11.92661,-20.53014l-7.75143,-11.34674l-9.1918,-12.16924l-11.35862,-13.72241l-20.42527,-20.44871l-7.01859,-6.1902l-0.37205,-0.40068l-0.42834,-0.33983l-5.31546,-5.15783l-3.51595,-2.99297z" fill="url(#color-33)" stroke="none" stroke-width="0.5"/></g><g data-paper-data="{&quot;origRot&quot;:0}" stroke="none" stroke-width="0" stroke-linecap="butt"><path d="M162.11126,67.41672c-0.34466,4.33442 -7.87971,7.27122 -16.83,6.55953c-8.9503,-0.7117 -15.92654,-4.8024 -15.58189,-9.13682c0.34466,-4.33442 7.87972,-7.2712 16.83002,-6.5595c8.9503,0.7117 15.92655,4.80238 15.58189,9.13682z" data-paper-data="{&quot;origPos&quot;:null}" fill="#196949"/><path d="M162.27336,65.37819c-0.34466,4.33442 -7.87971,7.27122 -16.83001,6.55951c-8.9503,-0.7117 -15.92654,-4.80239 -15.58188,-9.13681c0.34466,-4.33442 7.87971,-7.27122 16.83001,-6.55951c8.9503,0.7117 15.92655,4.80238 15.5819,9.1368z" data-paper-data="{&quot;origPos&quot;:null}" fill="#28a874"/><path d="M151.26908,59.16487l0.37811,-1.85497l5.71951,1.1658l-0.37811,1.85497z" data-paper-data="{&quot;origPos&quot;:null}" fill="#d83434"/><path d="M146.99689,68.27625l0.3781,-1.85499l5.71951,1.1658l-0.37811,1.85497z" data-paper-data="{&quot;origPos&quot;:null}" fill="#d83434"/><path d="M152.42495,64.55254l0.3781,-1.85499l5.71949,1.16581l-0.37811,1.85497z" data-paper-data="{&quot;origPos&quot;:null}" fill="#3443d9"/><path d="M140.26825,55.47351l0.3781,-1.85499l5.71949,1.16581l-0.3781,1.85499z" data-paper-data="{&quot;origPos&quot;:null}" fill="#3443d9"/><path d="M132.61491,66.9548l0.3781,-1.85499l5.71949,1.16581l-0.37808,1.85498z" data-paper-data="{&quot;origPos&quot;:null}" fill="#3443d9"/><path d="M137.64818,61.21862l0.3781,-1.85499l5.71949,1.16581l-0.3781,1.85499z" data-paper-data="{&quot;origPos&quot;:null}" fill="#d83434"/></g><g><path d="M412.04934,77.31178c0.2685,4.80672 -7.5601,9.1528 -17.48566,9.70723c-9.92552,0.55443 -18.18949,-2.89274 -18.45796,-7.69947c-0.26851,-4.80671 7.56013,-9.15274 17.48564,-9.70718c9.92552,-0.55443 18.18945,2.89273 18.45795,7.69945z" data-paper-data="{&quot;origPos&quot;:null}" fill="#825c26" stroke="none" stroke-width="2" stroke-linecap="butt"/><path d="M411.92304,75.05118c0.2685,4.80672 -7.56007,9.15277 -17.48564,9.70719c-9.92552,0.55443 -18.18946,-2.89271 -18.45797,-7.69946c-0.26851,-4.80671 7.56008,-9.15275 17.48564,-9.70718c9.92552,-0.55443 18.18947,2.89273 18.45795,7.69945z" data-paper-data="{&quot;origPos&quot;:null}" fill="#eaa544" stroke="none" stroke-width="2" stroke-linecap="butt"/><path d="M393.24802,65.27497l0.44004,11.20982" data-paper-data="{&quot;origPos&quot;:null}" fill="none" stroke="#825c26" stroke-width="3" stroke-linecap="round"/><path d="M402.1254,74.86046l-0.05837,2.51855" data-paper-data="{&quot;origPos&quot;:null}" fill="none" stroke="#825c26" stroke-width="1.5" stroke-linecap="round"/><path d="M392.1323,71.12889l-4.47462,-6.26352" data-paper-data="{&quot;origPos&quot;:null}" fill="none" stroke="#825c26" stroke-width="1.5" stroke-linecap="round"/><path d="M398.01824,64.8256l-2.86651,2.87345" data-paper-data="{&quot;origPos&quot;:null}" fill="none" stroke="#825c26" stroke-width="1.5" stroke-linecap="round"/><path d="M383.51725,74.37851l-0.05192,2.23876" fill="none" stroke="#825c26" stroke-width="1.5" stroke-linecap="round"/><path d="M391.94772,60.97498c-0.05106,2.20235 -2.53558,3.93104 -5.54935,3.86118c-3.01374,-0.06987 -5.41547,-1.91191 -5.36441,-4.11422c0.05106,-2.20235 2.53559,-3.93106 5.54934,-3.8612c3.01374,0.06987 5.41548,1.91191 5.36442,4.11426z" data-paper-data="{&quot;origPos&quot;:null}" fill="url(#color-34)" stroke="none" stroke-width="0" stroke-linecap="butt"/><path d="M400.48557,61.05449c-0.06152,2.65413 -3.05573,4.73744 -6.68766,4.65323c-3.63194,-0.08422 -6.52634,-2.30404 -6.46481,-4.95817c0.06152,-2.65413 3.0557,-4.73742 6.68766,-4.65323c3.63194,0.08422 6.52634,2.30404 6.46481,4.95817z" data-paper-data="{&quot;origPos&quot;:null}" fill="url(#color-35)" stroke="none" stroke-width="0" stroke-linecap="butt"/><path d="M402.25868,57.03572c-0.06152,2.65413 -3.05573,4.73744 -6.68764,4.65323c-3.63194,-0.08422 -6.52633,-2.30406 -6.4648,-4.9582c0.06152,-2.65413 3.0557,-4.73742 6.68766,-4.65323c3.63194,0.08422 6.52634,2.30404 6.46481,4.95819z" data-paper-data="{&quot;origPos&quot;:null}" fill="url(#color-36)" stroke="none" stroke-width="0" stroke-linecap="butt"/><path d="M405.82386,61.52823c-0.04987,2.15182 -2.47741,3.84091 -5.42203,3.77264c-2.94462,-0.06827 -5.29125,-1.868 -5.24133,-4.01984c0.04987,-2.15182 2.4774,-3.8409 5.42202,-3.77263c2.94462,0.06827 5.29124,1.86802 5.24134,4.01982z" data-paper-data="{&quot;origPos&quot;:null}" fill="url(#color-37)" stroke="none" stroke-width="0" stroke-linecap="butt"/><path d="M394.00035,75.09206c-0.03583,1.54551 -1.77935,2.75864 -3.89428,2.7096c-2.11491,-0.04903 -3.80035,-1.34167 -3.76452,-2.8872c0.03583,-1.54551 1.77935,-2.75864 3.89428,-2.7096c2.11491,0.04903 3.80034,1.34167 3.76451,2.88718z" data-paper-data="{&quot;origPos&quot;:null}" fill="url(#color-38)" stroke="none" stroke-width="0" stroke-linecap="butt"/><path d="M407.74165,74.15074c-0.03583,1.54551 -1.77935,2.75864 -3.89428,2.7096c-2.11491,-0.04903 -3.80034,-1.34167 -3.76451,-2.88718c0.03583,-1.54551 1.77937,-2.75863 3.89428,-2.7096c2.11491,0.04903 3.80034,1.34165 3.76451,2.88718z" data-paper-data="{&quot;origPos&quot;:null}" fill="url(#color-39)" stroke="none" stroke-width="0" stroke-linecap="butt"/><path d="M402.21948,70.8028c-0.03583,1.54551 -1.77934,2.75864 -3.89426,2.70961c-2.11491,-0.04903 -3.80035,-1.34167 -3.76453,-2.88718c0.03583,-1.54551 1.77935,-2.75864 3.89428,-2.7096c2.11491,0.04903 3.80035,1.34167 3.76452,2.8872z" data-paper-data="{&quot;origPos&quot;:null}" fill="url(#color-40)" stroke="none" stroke-width="0" stroke-linecap="butt"/><path d="M387.20588,72.27463c-0.03583,1.54551 -1.77936,2.75861 -3.89428,2.7096c-2.11491,-0.04903 -3.80034,-1.34167 -3.76451,-2.88718c0.03583,-1.54551 1.77935,-2.75864 3.89426,-2.70961c2.11491,0.04903 3.80034,1.34167 3.76451,2.88718z" data-paper-data="{&quot;origPos&quot;:null}" fill="url(#color-41)" stroke="none" stroke-width="0" stroke-linecap="butt"/></g></g></g></svg>