<svg version="1.1" xmlns="http://www.w3.org/2000/svg" xmlns:xlink="http://www.w3.org/1999/xlink" width="652.93943" height="340.85419" viewBox="0,0,652.93943,340.85419"><defs><linearGradient x1="402.87886" y1="238.51909" x2="417.98786" y2="349.56869" gradientUnits="userSpaceOnUse" id="color-1"><stop offset="0" stop-color="#aaecee"/><stop offset="1" stop-color="#d4f7f8"/></linearGradient><linearGradient x1="454.3697" y1="8.75457" x2="460.94742" y2="16.68031" gradientUnits="userSpaceOnUse" id="color-2"><stop offset="0" stop-color="#fe7ccc"/><stop offset="1" stop-color="#fe7ccc" stop-opacity="0"/></linearGradient><linearGradient x1="452.12896" y1="10.40394" x2="459.20692" y2="19.13593" gradientUnits="userSpaceOnUse" id="color-3"><stop offset="0" stop-color="#fe7ccc"/><stop offset="1" stop-color="#fe7ccc" stop-opacity="0"/></linearGradient><linearGradient x1="203.61803" y1="267.62149" x2="198.61212" y2="281.52182" gradientUnits="userSpaceOnUse" id="color-4"><stop offset="0" stop-color="#ffffff"/><stop offset="1" stop-color="#e6e6e6"/></linearGradient><linearGradient x1="206.5566" y1="271.8831" x2="205.00252" y2="276.19844" gradientUnits="userSpaceOnUse" id="color-5"><stop offset="0" stop-color="#27003e"/><stop offset="1" stop-color="#110042"/></linearGradient><linearGradient x1="201.86962" y1="270.10068" x2="200.31554" y2="274.41602" gradientUnits="userSpaceOnUse" id="color-6"><stop offset="0" stop-color="#27003e"/><stop offset="1" stop-color="#110042"/></linearGradient><linearGradient x1="192.47864" y1="274.54392" x2="193.79237" y2="270.89595" gradientUnits="userSpaceOnUse" id="color-7"><stop offset="0" stop-color="#ffffff"/><stop offset="1" stop-color="#e6e6e6"/></linearGradient></defs><g transform="translate(86.46973,-7.0438)"><g data-paper-data="{&quot;isPaintingLayer&quot;:true}" fill-rule="nonzero" stroke-miterlimit="10" stroke-dasharray="" stroke-dashoffset="0" style="mix-blend-mode: normal"><g stroke-linejoin="miter"><path d="M6.42534,153.32286l-29.44858,-1.25506l4.10762,-8.33697l32.09149,0.72407z" fill="#bb4146" stroke="#bb4146" stroke-width="6" stroke-linecap="round"/><path d="M81.64803,158.81005l27.71351,11.52476l2.27161,11.16551l-28.54308,-12.83211z" fill="#bb4146" stroke="#bb4146" stroke-width="6" stroke-linecap="round"/><path d="M8.3145,158.77514l3.64285,-16.29386l71.40811,15.96484l-3.64285,16.29386z" fill="#ffffff" stroke="none" stroke-width="0" stroke-linecap="butt"/><g fill="none" stroke="#bab887" stroke-width="20" stroke-linecap="round"><path d="M75.73426,180.25865l-72.18126,-15.76374l-13.61771,-8.50423"/><path d="M75.76173,180.20669l27.72955,3.65667"/></g><path d="M13.75761,143.22738l1.8143,-8.11505l69.9835,15.64633l-1.8143,8.11505z" fill="#9e7c61" stroke="#000000" stroke-width="0" stroke-linecap="butt"/><g><path d="M-86.28534,176.07356l3.10538,-13.88986l239.39397,53.52173l-3.10538,13.88986z" fill="#8d8a8a" stroke="none" stroke-width="0" stroke-linecap="butt"/><g fill="none" stroke="#363535" stroke-width="1.5" stroke-linecap="round"><path d="M-82.91836,162.67487l-2.80136,12.53002"/><path d="M-72.20188,165.37673l-2.83393,12.67571"/><path d="M-64.01075,180.05838l2.83393,-12.67572"/><path d="M-53.21372,183.08423l2.83393,-12.67571"/><path d="M-41.91466,172.70052l-2.65749,11.88652"/><path d="M-32.53255,174.18618l-2.89908,12.9671"/><path d="M-20.65047,177.14862l-2.83393,12.67571"/></g><g fill="none" stroke="#363535" stroke-width="1.5" stroke-linecap="round"><path d="M-10.1049,179.25987l-2.80136,12.53002"/><path d="M0.61159,181.96171l-2.83393,12.67571"/><path d="M11.63666,183.96767l-2.83393,12.67572"/><path d="M19.59975,199.66922l2.83393,-12.67571"/><path d="M28.24133,201.17203l2.65749,-11.88652"/><path d="M40.28093,190.77117l-2.89908,12.9671"/><path d="M49.32906,206.40932l2.83393,-12.67571"/></g><g fill="none" stroke="#363535" stroke-width="1.5" stroke-linecap="round"><path d="M62.15748,208.68062l2.80136,-12.53002"/><path d="M72.8414,211.52816l2.83393,-12.67571"/><path d="M86.7004,200.85841l-2.83393,12.67572"/><path d="M94.66351,216.55996l2.83393,-12.67571"/><path d="M105.96255,206.17626l-2.65749,11.88652"/><path d="M115.34467,207.66191l-2.89908,12.9671"/><path d="M124.3928,223.30007l2.83393,-12.67571"/></g><path d="M142.13885,212.87689l-2.8665,12.82141" fill="none" stroke="#363535" stroke-width="1.5" stroke-linecap="round"/></g><path d="M43.54123,84.38251c-2.17216,-1.88181 -0.29036,-4.05396 -0.29036,-4.05396c2.32907,-2.64619 5.2556,-4.08731 7.18423,-6.97669c7.8944,-11.82683 12.21851,-25.33708 18.28417,-38.19521l2.42802,-5.14698c0.54586,-1.22257 1.89339,-1.93343 3.25055,-1.63001c1.23906,0.27702 2.11083,1.31556 2.23282,2.5129l0.38378,3.05511l-0.70363,0.08839c0.96844,3.94932 0.92158,7.62708 1.31255,12.4453c0.80007,9.8598 1.22917,19.86487 1.86176,29.80028c0.16145,2.53586 0.60092,5.47922 0.59449,8.20319c1.17195,-0.04646 2.24541,0.34343 3.13762,1.55903c5.29202,7.21017 -2.93536,9.00248 -6.8907,6.91469c-0.11857,-0.06259 -0.23057,-0.14553 -0.33636,-0.24662c-1.10066,0.46017 -2.48072,0.71148 -4.20415,0.6985c-1.26073,-0.00949 -2.38097,-0.83005 -3.57146,-1.24507c-4.23418,-0.9372 -8.1525,-2.39163 -12.18425,-3.97031l-0.08025,-0.07905l-0.01667,0.03481l-2.29301,-1.09848c-1.49199,-0.01414 -3.05624,0.06441 -4.17776,-0.42882l-1.82463,-0.26305c-0.08256,-0.01107 -0.16535,-0.02581 -0.24816,-0.04432c-0.73902,-0.16522 -1.34739,-0.60137 -1.74393,-1.18052c-0.62064,0.06733 -1.3449,-0.0949 -2.10469,-0.75313z" fill="#ed5256" stroke="none" stroke-width="0.5" stroke-linecap="butt"/><path d="M35.28869,144.01298l14.92315,-54.0473l23.05604,5.25986l-12.19624,54.55178z" fill="#f8e1c2" stroke="none" stroke-width="0" stroke-linecap="butt"/><path d="M47.00667,121.90692l2.22529,-9.95334l13.73291,3.07029l-2.22529,9.95334z" fill="#917e4c" stroke="none" stroke-width="0" stroke-linecap="butt"/><path d="M61.90642,97.55818c1.22582,2.10999 2.36839,4.45896 1.35543,5.14468c-2.32288,1.57249 -9.13518,-0.98754 -9.58973,-2.46117c-0.25439,-0.82473 2.07494,-2.84603 3.63493,-4.43061c1.24604,-1.26568 1.83873,-2.81432 3.1628,-2.59458c0.50272,-0.18684 -0.78712,0.5665 -0.22472,0.69223c0.95661,0.21387 1.08312,0.89694 1.42585,1.74126c0.4943,0.4015 -0.13648,0.59114 0.18016,1.13616z" fill="#959993" stroke="none" stroke-width="0.5" stroke-linecap="butt"/><g><path d="M-3.58565,195.67314c0.38145,-1.70616 1.77363,-2.92483 3.40546,-3.16667l0.04827,-0.03798l0.1187,0.01675c0.43326,-0.04602 0.88127,-0.02332 1.33003,0.07702c0.25042,0.05599 0.49033,0.13374 0.7182,0.23084l2.96999,1.20386l1.49255,0.56495l0.82469,0.18438l0.6229,-0.01559l0.49324,0.11027l0.50525,-0.01265l1.07413,0.24014l0.04302,-0.0166l0.10675,0.05009l0.11164,0.02496l0.84322,0.42297l0.18743,0.08792l0.1807,0.0404l1.32311,0.07259l0.32785,0.10133l0.34304,-0.00859l1.60836,0.35958l0.04302,-0.0166l0.10675,0.05009l0.11164,0.02496l0.84322,0.42297l0.18743,0.08792l0.25088,0.05609l0.04302,-0.0166l0.10675,0.05009l0.11164,0.02496l0.84322,0.42297l0.18743,0.08792l5.85456,1.30891l0.58993,0.29591l0.63113,0.19296l0.17075,0.10275l0.15682,0.03506l0.04302,-0.0166l0.10675,0.05009l0.11164,0.02496l0.84322,0.42297l0.18743,0.08792l0.51231,0.11454l0.18634,0.09347l0.2079,0.01555l2.41701,0.79996l6.48367,1.44957l0.04302,-0.0166l0.10675,0.05009l0.11164,0.02496l0.84322,0.42297l0.18743,0.08792l3.69575,0.82627l0.20703,0.00026l0.94306,-0.02361l0.11164,0.02496l0.11792,0.00014l0.00753,0.00788l0.88924,0.02006l0.39437,0.10809l0.4088,-0.01023l0.68537,0.15323l0.19825,-0.02025l0.65322,0.09418l0.65978,-0.01651l4.42494,0.98929l0.19825,-0.02025l0.65322,0.09418l0.65978,-0.01651l2.00727,0.44877l2.38414,0.05379l0.39437,0.10809l0.4088,-0.01023l3.47814,0.77761l0.04302,-0.0166l0.10675,0.05009l0.11164,0.02496l0.84322,0.42297l0.18743,0.08792l2.80036,0.62608l0.19825,-0.02025l0.25678,0.03701l0.25305,-0.05723l1.39528,0.03147l0.39437,0.10809l0.4088,-0.01023l1.84787,0.41313l0.20703,0.00026l0.94306,-0.02361l0.11164,0.02496l0.11792,0.00014l0.03185,0.03334l0.69106,0.1545l0.19825,-0.02025l2.09433,0.30194l0.49503,0.69204l0.8188,0.23143l0.99336,1.86832l0.08304,0.33399l0.03408,0.03106l0.00296,0.11788l0.0276,0.11103l-0.00122,0.94335l0.02361,0.94306l-0.02496,0.11164l-0.00014,0.11792l-0.0006,0.00059l0.10014,0.98032l-0.09418,0.65322l0.01651,0.65978l-0.04536,0.20287l0.74143,9.66151l-0.10212,0.60076l0.01526,0.60918l-0.75042,3.3565l0.02025,0.19825l-0.09418,0.65322l0.01651,0.65978l-0.05482,0.24519l-0.00026,0.20703l0.02361,0.94306l-0.00664,0.02971l0.10924,0.6745l-0.06558,0.7748l0.01947,0.77732l-0.41313,1.84787l-0.00026,0.20703l0.02161,0.86288l0.14054,0.22147l0.20789,0.62638l0.30983,0.58274l0.23368,0.93983l0.26311,0.68229l0.05271,0.4262l0.16943,0.39463l0.23563,1.45499l-0.17844,2.10845l-0.75232,0.608l-0.26308,0.93083l-1.86832,0.99336l-0.59394,0.14768l-0.39029,-0.00049l-0.17988,0.13234l-0.76714,-0.13356l-0.77867,-0.001l-0.1543,-0.16143l-0.38451,-0.06695l-0.9042,-0.40093l-3.61564,-0.80835l-0.04302,0.0166l-0.10675,-0.05009l-0.11164,-0.02496l-0.84322,-0.42297l-0.18743,-0.08792l-1.4648,-0.32749l-0.19825,0.02025l-0.53397,-0.07698l-0.02078,0.00517l-0.94335,-0.00122l-0.94306,0.02361l-0.11164,-0.02496l-0.11792,-0.00014l-0.03185,-0.03334l-0.25088,-0.05609l-0.20703,-0.00026l-0.94306,0.02361l-0.11164,-0.02496l-0.11792,-0.00014l-0.03185,-0.03334l-0.31377,-0.07015l-0.6229,0.01559l-0.49324,-0.11027l-0.50525,0.01265l-3.87706,-0.8668l-0.98885,-0.02231l-0.39437,-0.10809l-0.4088,0.01023l-2.1369,-0.47775l-0.20665,-0.10365l-0.23034,-0.01978l-2.12921,-0.73077l-1.11365,-0.24898l-0.45176,-0.22661l-0.49324,-0.11027l-0.55696,-0.27937l-5.09848,-1.13988l-1.63861,-0.12817l-0.28023,-0.09381l-0.29541,0.00739l-7.21204,-1.61241l-0.45176,-0.22661l-0.49324,-0.11027l-0.55696,-0.27937l-0.5752,-0.1286l-0.36552,-0.18334l-0.40286,-0.07014l-0.9042,-0.40093l-1.20593,-0.26961l-0.45176,-0.22661l-0.49324,-0.11027l-0.3071,-0.15404l-0.61101,0.67038l-0.75647,0.01895l-0.23887,0.1588l-0.61472,-0.13743l-0.50525,0.01265l-4.80803,-1.07494l-0.36552,-0.18334l-0.40286,-0.07014l-1.27584,-0.56571l-0.07894,-0.06157l-0.0977,-0.02184l-0.55696,-0.27937l-2.97921,-0.66607l-0.58993,-0.29591l-0.63113,-0.19296l-0.17075,-0.10275l-4.15784,-0.92957l-0.03253,-0.01633l-0.0364,0.00028l-15.39841,-3.7225l-1.03959,-0.23242l-0.04302,0.0166l-0.10675,-0.05009l-0.11164,-0.02496l-0.84322,-0.42297l-0.18743,-0.08792l-0.25088,-0.05609l-0.04302,0.0166l-0.10675,-0.05009l-0.11164,-0.02496l-0.37827,-0.18975l-0.11788,0.00296l-0.40798,0.10145l-0.40077,-0.00051l-0.02191,0.00602l-0.01014,-0.00605l-0.16652,-0.0002l-0.15304,0.01893l-0.02352,-0.01916l-0.63477,-0.00082l-0.25735,0.09925l-0.21284,-0.09986l-0.2351,-0.00029l-0.19059,-0.19939l-1.27712,-0.5991l-0.4745,-0.38655l-0.03324,-0.04444l-0.16086,-0.08069l-0.07053,-0.22866l-1.00278,-1.34064l0.20613,-1.24212l-0.35236,-1.14235l0.66257,-0.72695l0.16103,-0.97032l0.68857,-0.26554l0.2358,-0.58173l0.19189,-0.26313l0.09523,-0.31143l0.89253,-1.48324l0.08741,-0.08718l0.04298,-0.11574l0.76465,-1.11658l0.74904,-1.24476l0.20868,-0.41603l0.00916,-0.04098l0.42297,-0.84322l0.40063,-0.85405l0.07225,-0.0887l0.05288,-0.1054l0.04406,-0.01359l0.03307,-0.0406l0.21453,-0.35651l0.43529,-0.86779l0.29468,-0.34291l0.19203,-0.40934l0.10191,-0.1251l0.8099,-1.61463l0.10492,-0.12209l0.04707,-0.15395l0.31448,-0.5226l0.29731,-0.67054l0.09046,-0.40459l0.22661,-0.45176l0.11027,-0.49324l0.50599,-1.00874l0.10492,-0.12209l0.04707,-0.15395l1.33881,-2.22486l0.15522,-0.15483l0.0857,-0.2018l1.96559,-2.60403l2.2202,-3.07826l0.35849,-0.71469l0.01637,-0.01904c-0.27876,-0.72788 -0.35365,-1.54307 -0.17085,-2.36072z" fill="#8d8a8a" stroke="none" stroke-width="0.5" stroke-linecap="butt"/><g fill="none" stroke="#363535" stroke-width="1" stroke-linecap="round"><path d="M9.03964,206.05646l-6.88956,-3.05481l-7.08566,-2.93038l3.33952,-6.65763"/><path d="M3.20557,213.33433l2.91344,-7.76256"/><path d="M-2.06963,201.55341l-2.73623,8.47529"/><path d="M15.90235,234.20144l-0.41109,1.08604l-11.69121,-1.66231l-19.98003,-4.46697l-2.87918,-2.79582l13.60695,-26.23832"/><path d="M12.41991,216.06753l-4.78158,-0.73247l-16.59227,-7.07513"/><path d="M-2.40381,212.08023l-2.69845,6.80095l-8.19059,-2.5043"/><path d="M-13.53451,224.23195l2.94732,-6.40876"/><path d="M-7.76681,227.03597l-0.89383,2.49262"/><path d="M2.66673,202.94889l3.39424,-7.65507"/><path d="M0.39012,220.95052l-2.67201,7.14342l-14.02993,-4.98776"/><path d="M-1.49005,228.60754l5.37744,1.5388l-0.53747,2.40401"/><path d="M11.18197,195.26075l-4.16811,27.67547l-11.66175,-4.29002"/><path d="M62.48647,205.88962l1.20074,8.17754l-24.95012,23.53403l-31.65158,-14.98549"/><path d="M53.93953,203.47393l3.33699,9.15998l-17.55309,19.80289l-27.02466,-11.59514l2.07879,-23.59906"/><path d="M10.11619,206.80198l3.40145,0.59219"/><path d="M12.42713,224.31479l2.2118,-2.36623"/><path d="M24.0511,230.27915l2.44374,-2.65094"/><path d="M32.27557,234.13725l1.50102,-3.70309"/><path d="M40.66421,235.00304l-0.54857,-2.8151"/><path d="M46.70939,229.7917l-2.27763,-1.85544"/><path d="M62.60117,213.65607l-5.253,-1.3427"/><path d="M52.34543,224.15233l-3.63143,-1.82156"/><path d="M21.52574,199.42441l-2.39875,9.22386l-4.41583,-1.32381"/><path d="M13.75676,215.35674l5.32466,1.02217l0.59803,-7.94366l6.999,1.05995l-0.54331,6.94623l-6.28626,-1.23715"/><path d="M18.11202,222.22021l1.2541,-5.60937"/><path d="M25.21464,225.82749l0.59998,-9.45773l11.29234,0.67358l2.51151,0.05667l1.7199,-7.69285l6.87456,0.86384l-1.36354,7.60424"/><path d="M31.49565,217.30332l-0.72052,6.23349l-4.68359,-0.87884"/><path d="M30.16405,227.77543l0.82412,-3.68615l14.40909,1.03384"/><path d="M38.73573,224.81174l-0.68468,6.07323"/><path d="M38.14938,223.67095l1.27299,-6.44654l11.43372,1.54658"/><path d="M43.77764,224.08789l1.23715,-6.28626"/><path d="M56.24326,212.73947l-7.60424,-1.36354"/><path d="M35.41624,202.0251l-1.86128,6.81984l-6.46542,-0.43581l0.5622,-7.7834"/><path d="M33.99994,209.11272l6.48237,1.11272"/><path d="M35.41566,216.32865l0.47165,-6.62569"/><path d="M43.57296,203.17561l-1.09383,5.6452"/><path d="M17.78057,228.05846l-1.77073,5.66214l-12.00118,-3.52452"/><path d="M39.01863,237.6868l-0.02084,2.35124l-22.08109,-5.10499"/><path d="M39.01064,239.00509l1.95904,0.26971l24.96785,4.23588"/><path d="M53.50639,241.90936l-0.51858,1.56684"/><path d="M66.12644,235.13895l-19.85624,-3.76618"/><path d="M60.8187,234.7937l-1.64824,7.37231"/><path d="M49.81302,232.838l-1.45214,7.24787"/><path d="M53.70696,224.45323l14.21104,2.67235l-1.73684,7.01594l10.32879,1.97267"/><path d="M59.85185,224.81739l1.81046,-8.85055l13.92634,2.44042"/><path d="M68.61376,226.27147l7.51563,1.00717"/><path d="M73.25899,243.1282l-2.32399,-21.21783l-0.77855,-4.04447l0.72441,-9.26164"/><path d="M66.71801,246.04104l0.36026,-3.11675l9.65188,1.98961"/><path d="M75.85908,208.29604l1.64067,40.08052l-4.34258,0.41831l-5.4604,-1.66954l-12.28848,-1.73768l-31.56808,-6.60898l-12.93954,-3.34166"/></g></g><path d="M30.57634,98.24394l57.06328,13.0996" fill="none" stroke="#ffd27c" stroke-width="11" stroke-linecap="round"/><path d="M26.38465,102.6917l61.06195,13.65173" fill="none" stroke="#ed5256" stroke-width="12.5" stroke-linecap="round"/><g fill="none" stroke-width="7" stroke-linecap="round"><path d="M110.68752,185.51233l-35.54766,2.53828l-70.3174,-15.72098l-28.34575,-16.22367" stroke="#74634a"/><path d="M110.02484,189.81419l-35.40457,1.9709l-69.71639,-15.58661l-29.87762,-15.93511" stroke="#8d7552"/></g><g fill="none" stroke-width="7" stroke-linecap="round"><path d="M107.8495,193.50208l-35.54766,2.53828l-70.16384,-16.40784l-28.49931,-15.53681" stroke="#74634a"/><path d="M107.18682,197.80393l-35.40457,1.9709l-69.71639,-15.58661l-29.87762,-15.93511" stroke="#8d7552"/></g><g fill="none" stroke-width="7" stroke-linecap="round"><path d="M105.45693,201.38109l-35.54766,2.53828l-70.3174,-15.72098l-28.34575,-16.22367" stroke="#74634a"/><path d="M104.79425,205.68297l-35.40457,1.9709l-69.71639,-15.58661l-29.87762,-15.93511" stroke="#8d7552"/></g><path d="M-11.59444,141.4679l4.68505,-22.03075" fill="none" stroke="#e6cbba" stroke-width="6" stroke-linecap="round"/><path d="M22.78756,118.86462l-34.52917,-1.46941" fill="none" stroke="#e6cbba" stroke-width="6" stroke-linecap="round"/><path d="M13.80355,139.69382l4.07082,-19.2833" fill="none" stroke="#e6cbba" stroke-width="6" stroke-linecap="round"/><path d="M1.4103,140.2886l4.60688,-20.60583" fill="none" stroke="#e6cbba" stroke-width="6" stroke-linecap="round"/><path d="M115.96328,145.61066l-34.53668,-15.41416" fill="none" stroke="#e6cbba" stroke-width="6" stroke-linecap="round"/><path d="M104.25605,166.79262l5.70324,-22.2839" fill="none" stroke="#e6cbba" stroke-width="6" stroke-linecap="round"/><path d="M98.00528,139.91297l-4.96241,20.04555" fill="none" stroke="#e6cbba" stroke-width="6" stroke-linecap="round"/><path d="M83.99267,153.12721l3.53473,-17.96076" fill="none" stroke="#e6cbba" stroke-width="6" stroke-linecap="round"/><g fill="none" stroke-width="6" stroke-linecap="round"><path d="M75.49719,150.26626l-0.4095,1.83162" stroke="#f2f0b8"/><path d="M79.50141,130.86578l-3.75175,16.78096" stroke="#53d373"/><path d="M70.98838,142.82073l12.70867,-7.2554" stroke="#53d373"/><path d="M73.03287,133.67604l9.03782,11.82034" stroke="#53d373"/><path d="M73.03906,145.15998l1.66934,-2.59641" stroke="#36513f"/><path d="M83.11457,140.38447l-3.29962,-0.7377" stroke="#36513f"/><path d="M74.21057,138.59176l-2.42011,-0.24411" stroke="#36513f"/><path d="M76.00866,133.64845l0.39703,0.88066" stroke="#36513f"/><path d="M80.05137,135.04723l1.71035,-1.89434" stroke="#36513f"/></g><g fill="none" stroke-width="6" stroke-linecap="round"><path d="M23.34857,140.22233l0.4095,-1.83162" stroke="#f2f0b8"/><path d="M27.7623,118.99025l-3.75175,16.78096" stroke="#53d373"/><path d="M19.24926,130.94519l12.70867,-7.2554" stroke="#53d373"/><path d="M30.33157,133.62086l-9.03782,-11.82034" stroke="#53d373"/><path d="M21.29995,133.28443l1.66934,-2.59639" stroke="#36513f"/><path d="M28.07583,127.77123l3.29962,0.7377" stroke="#36513f"/><path d="M22.47144,126.71622l-2.42011,-0.24411" stroke="#36513f"/><path d="M24.26955,121.77292l0.39703,0.88066" stroke="#36513f"/><path d="M30.02262,121.27735l-1.71036,1.89434" stroke="#36513f"/></g><path d="M49.98475,120.09805l0.96955,-4.33665l4.33665,0.96955l-0.96955,4.33665z" fill="#959993" stroke="none" stroke-width="2" stroke-linecap="butt"/><path d="M55.26416,121.27838l0.9274,-4.14809l4.14809,0.9274l-0.9274,4.14809z" fill="#959993" stroke="none" stroke-width="0" stroke-linecap="butt"/><path d="M51.08077,115.19575l0.61124,-2.73398l4.33665,0.96955l-0.61124,2.73398z" fill="#959993" stroke="none" stroke-width="0" stroke-linecap="butt"/><path d="M56.36004,116.47503l0.63231,-2.82824l3.93861,0.88056l-0.63231,2.82824z" fill="#959993" stroke="none" stroke-width="0" stroke-linecap="butt"/><path d="M48.49811,147.41017c-0.66378,-0.1484 -2.10693,0.19756 -2.44692,-0.7992c-0.90985,-2.66743 0.32875,-8.31997 2.14585,-8.76324c0.64781,-0.60626 1.65496,-0.88496 2.68434,-0.65481c1.54898,0.34631 2.56174,1.71366 2.26207,3.05406c-0.08888,0.39756 -0.28325,0.74811 -0.55311,1.03551c0.29086,2.31416 0.04973,5.41407 -1.50549,6.38365c-0.6163,0.38421 -1.58511,-0.03203 -2.58674,-0.25597z" fill="#959993" stroke="#cecdcd" stroke-width="1.5" stroke-linecap="butt"/><path d="M48.54212,146.32786l1.74786,-8.2607" fill="none" stroke="#cecdcd" stroke-width="1" stroke-linecap="round"/><path d="M68.88763,115.5444l-7.61973,35.04912l-25.63101,-6.25624l8.78935,-34.53052" fill="none" stroke="#b29e7b" stroke-width="1" stroke-linecap="round"/><path d="M42.91842,117.88377l4.42975,0.88519" fill="none" stroke="#b29e7b" stroke-width="1" stroke-linecap="round"/><path d="M54.37803,123.54836l-0.61587,2.75468l-9.59366,-2.25005l0.88641,-5.37605" fill="none" stroke="#b29e7b" stroke-width="1" stroke-linecap="round"/><path d="M65.52651,128.72287l-11.54162,-2.4752" fill="none" stroke="#b29e7b" stroke-width="1" stroke-linecap="round"/><path d="M47.18861,130.30244l1.19956,-5.02563" fill="none" stroke="#b29e7b" stroke-width="1" stroke-linecap="round"/><path d="M57.76154,132.8766l1.23813,-5.19816" fill="none" stroke="#b29e7b" stroke-width="1" stroke-linecap="round"/><path d="M63.18567,139.6635l-21.75868,-4.75945l2.4292,-10.395" fill="none" stroke="#b29e7b" stroke-width="1" stroke-linecap="round"/><path d="M41.17127,134.63653l-2.42074,-0.54121" fill="none" stroke="#b29e7b" stroke-width="1" stroke-linecap="round"/><path d="M64.42796,134.57736l-24.82967,-6.07708" fill="none" stroke="#b29e7b" stroke-width="1" stroke-linecap="round"/><path d="M52.65944,132.04552l-1.09443,5.02584" fill="none" stroke="#b29e7b" stroke-width="1" stroke-linecap="round"/><path d="M46.12304,136.47982l-1.23048,4.5629l-5.28647,-1.28708l-0.98536,4.40736" fill="none" stroke="#b29e7b" stroke-width="1" stroke-linecap="round"/><path d="M37.4024,139.26297l1.82541,0.30293" fill="none" stroke="#b29e7b" stroke-width="1" stroke-linecap="round"/><path d="M62.32703,145.15093l-6.66121,-1.48926l0.97834,-5.18618" fill="none" stroke="#b29e7b" stroke-width="1" stroke-linecap="round"/><path d="M58.04136,149.03078l1.01835,-4.08446" fill="none" stroke="#b29e7b" stroke-width="1" stroke-linecap="round"/><path d="M55.5383,143.76163l-1.12536,4.56311" fill="none" stroke="#b29e7b" stroke-width="1" stroke-linecap="round"/><path d="M61.00389,122.13752l5.45382,1.00897" fill="none" stroke="#b29e7b" stroke-width="1" stroke-linecap="round"/><path d="M43.4913,113.91006l4.38496,1.08553" fill="none" stroke="#b29e7b" stroke-width="1" stroke-linecap="round"/><path d="M62.47798,118.07898l5.45412,1.29536" fill="none" stroke="#b29e7b" stroke-width="1" stroke-linecap="round"/><path d="M47.31648,98.81294l2.9,-9.44262" fill="none" stroke="#b29e7b" stroke-width="1" stroke-linecap="round"/><path d="M66.85283,102.56211l0.56306,-2.51847" fill="none" stroke="#b29e7b" stroke-width="1" stroke-linecap="round"/><path d="M55.37747,96.86382l-7.03507,-1.33329" fill="none" stroke="#b29e7b" stroke-width="1" stroke-linecap="round"/><path d="M50.89469,99.61293l0.53125,-3.31703" fill="none" stroke="#b29e7b" stroke-width="1" stroke-linecap="round"/><path d="M72.44597,95.42113l-9.33795,-1.98253" fill="none" stroke="#b29e7b" stroke-width="1" stroke-linecap="round"/><path d="M70.9086,100.54649c0,0 -2.49011,-0.41451 -3.54058,-0.63042c-0.85144,-0.175 -2.29151,-0.56829 -2.29151,-0.56829l1.10393,-5.19895" fill="none" stroke="#b29e7b" stroke-width="1" stroke-linecap="round"/><path d="M49.92014,89.85915l5.98764,1.44384l-1.35447,5.24811" fill="none" stroke="#b29e7b" stroke-width="1" stroke-linecap="round"/><path d="M58.93519,91.87465l-3.12758,-0.59406" fill="none" stroke="#b29e7b" stroke-width="1" stroke-linecap="round"/><path d="M53.3106,99.33909l6.8596,-6.87281l3.85751,9.56029" fill="none" stroke="#917e4c" stroke-width="1.5" stroke-linecap="round"/><path d="M58.27841,100.90144l1.64606,-7.36255" fill="none" stroke="#917e4c" stroke-width="1" stroke-linecap="round"/><path d="M56.29527,97.27937c0,0 1.2255,0.27399 1.85108,0.41385c1.06549,0.23821 4.32038,0.96592 4.32038,0.96592" fill="none" stroke="#917e4c" stroke-width="1" stroke-linecap="round"/><path d="M79.65938,146.5411l-1.3896,-3.08233" fill="none" stroke="#36513f" stroke-width="6" stroke-linecap="round"/><path d="M28.16777,135.23938l-1.3896,-3.08233" fill="none" stroke="#36513f" stroke-width="6" stroke-linecap="round"/><path d="M71.41173,93.32681l1.64827,0.75916l-22.79729,-6.75119l-9.8202,-5.00017l10.31092,-7.23053l26.19519,-54.44328l1.52481,60.92114l6.45745,11.25996l-12.67697,0.25089" fill="none" stroke="#ed5256" stroke-width="6.5" stroke-linecap="round"/><path d="M83.38057,89.26998l-12.0909,0.45204l-19.47723,-4.14421l-8.20885,-5.62153" fill="none" stroke="#b8514c" stroke-width="1.5" stroke-linecap="round"/><path d="M81.18176,84.99212l-9.95319,0.29892l-18.98698,-4.4553l-5.58332,-4.19314" fill="none" stroke="#b8514c" stroke-width="1.5" stroke-linecap="round"/><path d="M78.98294,80.71425l-8.01582,0.10103l-17.33952,-4.29732l-3.57998,-3.74525" fill="none" stroke="#b8514c" stroke-width="1.5" stroke-linecap="round"/><path d="M78.85586,75.6375l-7.86026,0.34615l-14.57963,-3.46994l-4.07022,-3.43416" fill="none" stroke="#b8514c" stroke-width="1.5" stroke-linecap="round"/><path d="M78.50486,71.56241l-6.52389,0.01388l-15.64727,-4.33968l-2.09049,-1.93981" fill="none" stroke="#b8514c" stroke-width="1.5" stroke-linecap="round"/><path d="M78.71006,67.82203l-1.93738,0.1979l-18.98698,-4.4553l-1.62142,-3.09703" fill="none" stroke="#b8514c" stroke-width="1.5" stroke-linecap="round"/><path d="M78.45106,61.45367l-4.81046,0.81765l-13.62274,-3.04566l-2.15645,-2.5856" fill="none" stroke="#b8514c" stroke-width="1.5" stroke-linecap="round"/><path d="M78.5219,58.31429l-5.03197,-0.07327l-11.77494,-2.84289l-2.00091,-2.34048" fill="none" stroke="#b8514c" stroke-width="1.5" stroke-linecap="round"/><path d="M79.0854,52.97121l-3.67442,0.44059l-11.32949,-2.95365l-1.84537,-2.09535" fill="none" stroke="#b8514c" stroke-width="1.5" stroke-linecap="round"/><path d="M78.28893,49.00689l-2.67275,0.66454l-9.39211,-3.15155l-1.66621,-2.89669" fill="none" stroke="#b8514c" stroke-width="1.5" stroke-linecap="round"/><path d="M78.38338,44.82105l-2.7835,0.21908l-7.96859,-1.9919l-1.95612,-2.54082" fill="none" stroke="#b8514c" stroke-width="1.5" stroke-linecap="round"/><path d="M78.45664,39.78907l-2.67275,0.66454l-6.01003,-1.34367l-2.00091,-2.34048" fill="none" stroke="#b8514c" stroke-width="1.5" stroke-linecap="round"/><path d="M78.29136,34.88326l-2.11654,0.99924l-4.80803,-1.07494l-1.33151,-3.45291" fill="none" stroke="#b8514c" stroke-width="1.5" stroke-linecap="round"/><path d="M77.49733,29.02632l-3.94072,-0.24999l-1.57907,-1.40478" fill="none" stroke="#b8514c" stroke-width="1.5" stroke-linecap="round"/><path d="M26.49654,99.69178c-0.44789,2.00335 -2.45124,1.55545 -2.45124,1.55545l-0.80134,-0.17916c-16.4253,-3.67223 -32.79843,-7.20799 -48.5397,-13.21046c-11.91269,-5.69551 -23.13371,-12.59793 -35.038,-18.2846c0,0 -1.85133,-0.88688 -0.96443,-2.73822c0.88688,-1.85133 2.73823,-0.96443 2.73823,-0.96443c11.84547,5.68937 23.03174,12.52462 34.88308,18.2143c15.50318,5.89643 31.643,9.36078 47.81659,12.97673l0.80134,0.17916c0,0 2.00335,0.44789 1.55545,2.45124z" fill="#ab6b3d" stroke="none" stroke-width="0.5" stroke-linecap="butt"/><path d="M22.7846,101.25578l-36.07714,-8.73895l-12.3556,-4.94998l-25.91492,-13.88147l-10.98291,-5.82104l-14.77987,-17.43975" fill="none" stroke="#ab6b3d" stroke-width="5" stroke-linecap="round"/><path d="M26.66475,97.53944l-26.30895,-6.18842l-16.34729,-3.65479l-9.79132,-4.37668l-14.24103,-7.0543l-19.34876,-10.55214l-13.55245,-16.15566" fill="none" stroke="#ab6b3d" stroke-width="5" stroke-linecap="round"/><path d="M87.2122,114.8356c0.44789,-2.00335 2.45124,-1.55545 2.45124,-1.55545l0.80134,0.17916c16.4253,3.67223 32.79843,7.20799 48.5397,13.21046c11.91269,5.69551 23.13371,12.59793 35.038,18.2846c0,0 1.85133,0.88688 0.96443,2.73822c-0.88688,1.85133 -2.73823,0.96443 -2.73823,0.96443c-11.84547,-5.68937 -23.03174,-12.52462 -34.88308,-18.2143c-15.50318,-5.89643 -31.643,-9.36078 -47.81659,-12.97673l-0.80134,-0.17916c0,0 -2.00335,-0.44789 -1.55545,-2.45124z" fill="#ab6b3d" stroke="none" stroke-width="0.5" stroke-linecap="butt"/><path d="M90.92415,113.27161l36.07714,8.73895l12.3556,4.94998l25.91492,13.88147l10.98291,5.82104l14.77987,17.43975" fill="none" stroke="#ab6b3d" stroke-width="5" stroke-linecap="round"/><path d="M87.04399,116.98796l26.30895,6.18842l16.34729,3.65479l9.79132,4.37668l14.24103,7.0543l19.34876,10.55214l13.55245,16.15566" fill="none" stroke="#ab6b3d" stroke-width="5" stroke-linecap="round"/><g fill="#000000" stroke="none" stroke-width="0" stroke-linecap="butt"><path d="M59.28118,156.6141l0.47775,-2.13691l10.68451,2.38875l-0.47775,2.13691z"/><path d="M46.5937,157.33008l0.67681,-3.02728l11.75295,2.62763l-0.67681,3.02728z"/><path d="M33.76798,157.82817l0.83607,-3.73959l12.28718,2.74707l-0.83607,3.73959z"/><path d="M22.69182,152.17326l0.79625,-3.5615l12.10909,2.70725l-0.79625,3.5615z"/><path d="M9.80747,152.09733l0.91569,-4.09572l12.10911,2.70726l-0.91569,4.09572z"/><path d="M13.67296,147.35226l0.91569,-4.09572l10.6845,2.38875l-0.91569,4.09572z"/><path d="M35.1216,151.77362l0.71663,-3.20535l12.28718,2.74707l-0.71663,3.20535z"/><path d="M57.49176,162.94517l0.75644,-3.38342l11.93104,2.66744l-0.75644,3.38342z"/><path d="M69.92154,162.54552l0.87588,-3.91766l11.3968,2.548l-0.87588,3.91766z"/></g><path d="M20.40927,159.41136l1.21826,-5.4491l12.66114,2.83067l-1.21826,5.4491z" fill="#000000" stroke="none" stroke-width="0" stroke-linecap="butt"/><path d="M44.76994,164.85772l1.11077,-4.96829l12.18034,2.72318l-1.11077,4.96829z" fill="#000000" stroke="none" stroke-width="0" stroke-linecap="butt"/><path d="M68.52536,170.00049l1.00328,-4.48749l12.34061,2.75901l-1.00328,4.48749z" fill="#000000" stroke="none" stroke-width="0" stroke-linecap="butt"/><path d="M73.19861,95.21801l-1.70654,8.50684" fill="none" stroke="#b29e7b" stroke-width="1" stroke-linecap="round"/></g><g stroke="none" stroke-linecap="butt" stroke-linejoin="miter"><path d="M400.18957,175.58708l-8.38329,-58.28889l4.97912,-48.26709l82.66165,-2.61475l12.41632,10.99907l8.6643,-13.26347l8.0967,1.73052l11.20078,-3.80337l15.8999,97.67776z" data-paper-data="{&quot;origPos&quot;:null}" fill="#9ba3a1" stroke-width="0"/><path d="M449.47706,83.75092l2.6838,0.56108c-0.823,-0.33489 -1.67377,-1.06523 -1.80357,-2.64557c-0.15551,-1.89313 0.90876,-2.75168 1.79542,-3.13649c0.34279,-0.16511 0.7211,-0.27124 1.12297,-0.30425c3.69282,-0.30333 9.7767,-2.00539 13.35421,-1.09693c7.49696,1.90373 14.17396,6.05234 20.67968,10.14511c2.25268,1.41716 5.79043,3.55087 7.5748,5.52098c1.12466,1.24174 1.56161,2.98764 2.60584,4.29772c1.81586,2.27819 4.79716,4.40372 6.57,7.05121c3.16514,4.72668 4.53425,10.34238 5.14748,15.9024c0.277,3.37218 -2.87193,5.03743 -5.96738,5.29172c-6.8676,0.56412 -14.21134,0.47809 -20.98516,1.72377c-3.76902,0.6931 -7.12569,1.86572 -11.02403,2.18595c-2.56318,0.21056 -4.79656,0.72055 -7.2782,1.1759c-1.25127,0.2296 -2.8279,1.19702 -3.79807,0.37415c-1.46204,-1.24009 -2.57647,-2.8694 -3.57134,-4.50818c-1.82127,-3.00007 0.4006,-8.49155 -0.96636,-11.76441c-0.27341,-0.6546 -1.2667,-0.78844 -1.58143,-1.42421c-1.48453,-2.99881 -1.6089,-6.23954 -1.87634,-9.49535c-0.50221,-6.11393 -2.26035,-11.92994 -2.76053,-18.01908l0.02846,0.00019c-0.22028,-0.95829 0.04971,-1.83564 0.04971,-1.83564zM457.61354,84.27141c-1.27182,0.10447 -2.54365,0.20892 -3.81547,0.3134c-0.09413,0.00773 -0.18763,0.01129 -0.28035,0.01085l2.24032,0.46835c0.49901,6.07489 2.25775,11.89811 2.76053,18.01908c0.14442,1.75819 -0.09596,4.72 0.70136,6.29804c0.8089,1.60096 2.11409,2.94677 2.75641,4.62152c0.65751,1.71436 0.37109,4.5177 0.52237,6.35914c0.10172,1.23848 0.20346,2.47697 0.3052,3.71545c0.32013,-0.06995 0.63808,-0.15051 0.95338,-0.23555c2.32054,-0.62573 4.56661,-0.75739 6.95152,-0.95329c3.89334,-0.3198 7.20956,-1.48605 11.02403,-2.18594c4.93321,-0.90519 10.2569,-0.84251 15.26194,-1.25366c1.90773,-0.15671 3.81547,-0.3134 5.72322,-0.47013c0.01444,-0.00119 0.02925,-0.0028 0.04439,-0.00481c-0.74588,-8.17378 -5.99948,-12.72678 -10.98245,-19.03466c-0.39439,-0.49927 -0.02119,-1.39191 -0.46017,-1.85247c-1.8493,-1.94026 -5.08876,-3.95332 -7.40778,-5.41221c-3.12133,-1.96364 -6.35637,-4.83392 -9.83423,-6.0786c-1.53032,-0.54769 -3.19936,-0.66373 -4.70866,-1.26697c-0.89196,-0.3565 -1.30518,-1.5386 -2.21685,-1.8411c-1.00931,-0.3349 -2.11971,0.17411 -3.17956,0.26116c-2.11971,0.17411 -4.23942,0.34824 -6.35913,0.52237z" data-paper-data="{&quot;origPos&quot;:null,&quot;index&quot;:null,&quot;origRot&quot;:0}" fill="#5a5f5e" stroke-width="0.5"/><path d="M431.70487,94.20842c-0.87888,2.48831 -0.54336,6.24605 -0.77414,8.89919c-0.42349,4.86822 -1.23299,10.56196 0.25737,15.24239c0.55163,1.73236 2.09182,6.97966 3.52814,7.50322c0.59947,0.21851 1.32141,-0.08758 1.90697,0.16589c0.19518,0.0845 -0.26532,0.66917 -0.0553,0.63566c0.52508,-0.08376 0.90107,-1.12101 1.35425,-0.84289c0.13735,-1.57898 0.32814,-3.77229 0.33178,-3.81394c0.54421,-1.75254 -0.42716,-3.11552 -0.79378,-4.88498c-0.5323,-2.56903 -0.5055,-5.36257 -0.62499,-7.97077c-0.33136,-7.23186 0.54553,-14.44798 1.21329,-21.65293c-2.30783,1.96991 -5.33726,3.87009 -6.34358,6.71921zM441.65468,82.9051c1.89238,0.16462 2.55998,1.35795 2.79045,2.29663c0.10518,0.36564 0.14628,0.75643 0.11135,1.15813l-0.27648,3.17828l-0.03643,-0.00317c-0.52215,4.85709 -1.19447,9.78734 -1.23539,14.62323c-0.05274,6.23089 1.7243,12.32908 1.60233,18.39264c-0.08672,0.99697 0.09746,4.47836 -0.47001,5.40306c-3.11448,5.07507 -10.43287,6.42103 -14.5854,1.47719c-6.22206,-7.40773 -5.76009,-17.91952 -4.98092,-26.8765c0.54335,-6.24609 0.88444,-12.48023 5.79152,-17.15541c1.1529,-1.09843 3.13437,-1.75374 3.97896,-3.13l1.06406,-1.18836c0,0 -0.00627,0.00783 -0.0178,0.0222c1.28465,-1.40083 2.90144,0.77695 3.88462,2.4932c0.51394,-0.46325 1.26977,-0.78764 2.37914,-0.69114z" data-paper-data="{&quot;origPos&quot;:null,&quot;index&quot;:null,&quot;origRot&quot;:0}" fill="#5a5f5e" stroke-width="0.5"/><path d="M463.41205,139.32489c0.53703,-0.04412 1.07404,-0.08821 1.61107,-0.13235c6.68643,-0.54924 13.32398,-1.74323 19.92435,-2.2854c3.4409,-0.28265 8.15227,0.14532 11.38862,-0.70346c2.0714,-0.54327 3.65908,-1.83011 5.90508,-2.01462c1.6993,0.94171 3.61626,1.56845 5.09789,2.82513c0.41091,0.34856 0.13873,1.07228 0.13234,1.61107c-0.03822,3.22252 -0.66835,5.06791 -2.61337,7.6756c-4.39016,5.88582 -11.75961,11.17192 -19.02445,13.24069c-2.37486,0.67629 -4.99441,0.17875 -7.40211,0.86942c-2.05624,0.52911 -4.2458,0.23036 -6.18906,0.66376c-6.19963,1.38269 -9.3092,4.48785 -15.51396,-0.43997c-0.44485,-0.35329 -0.3451,-4.20123 -0.39701,-4.83321c-0.2382,-2.89992 -0.47642,-5.79985 -0.71462,-8.69978c-0.08821,-1.07404 -0.17644,-2.14808 -0.26465,-3.22212c-0.03345,-0.40726 0.01009,-0.80305 0.11849,-1.17308c0.23812,-0.95011 0.92051,-2.15615 2.83898,-2.31375c1.9185,-0.15761 2.78852,0.92093 3.17848,1.81947c0.00444,0.0092 0.00883,0.01842 0.01317,0.02767l0.71955,1.44337l0.19357,-0.70818l-1.52706,-2.79405c0,0 1.16151,-0.09541 2.14708,0.52569zM462.05477,146.49612l0.00625,0.07627c0.2382,2.89992 0.47642,5.79985 0.71462,8.69978c0.02985,0.36347 0.05972,0.72699 0.08958,1.09046c0.83378,0.06189 1.9035,0.36775 2.62048,0.30887c1.36593,-0.1122 2.54155,-1.05381 3.8718,-1.38356c2.40334,-0.59579 4.9722,-0.26903 7.29099,-1.09232c2.81514,-0.80753 5.90493,-0.29676 8.65568,-1.09837c3.32006,-0.96753 8.9125,-4.45525 11.38357,-6.96055c1.03993,-1.05433 2.90072,-3.32566 3.88017,-4.67365c0.09414,-0.12958 0.18073,-0.27195 0.25654,-0.42271c-1.48599,0.47419 -2.86342,1.20047 -4.7146,1.43768c-10.17264,1.30349 -20.3201,2.31791 -30.55739,3.15883c-0.53703,0.04412 -1.07404,0.08821 -1.61107,0.13234l-0.18298,-0.3348c-0.50161,0.61516 -1.20019,0.91659 -1.70363,1.06177z" data-paper-data="{&quot;origPos&quot;:null,&quot;index&quot;:null,&quot;origRot&quot;:0}" fill="#5a5f5e" stroke-width="0.5"/><path d="M367.68245,320.73599c-3.14101,-0.76569 -2.37532,-3.9067 -2.37532,-3.9067l0.9375,-2.75648c1.30941,-5.23091 4.35032,-9.47629 3.6069,-14.94033c0,0 -0.43585,-3.20349 2.76763,-3.63934c3.20349,-0.43585 3.63934,2.76763 3.63934,2.76763c0.89205,6.55645 -2.22901,11.34029 -3.74142,17.38214l-0.92791,2.71774c0,0 -0.76569,3.14102 -3.9067,2.37532z" data-paper-data="{&quot;origPos&quot;:null}" fill="#5acc62" stroke-width="0.5"/><path d="M307.34751,186.26115c2.74415,20.16925 -19.70031,39.87603 -50.13109,44.01633c-30.43079,4.1403 -57.32439,-8.85372 -60.06855,-29.02297c-2.15004,-15.80257 1.19094,-23.40964 14.6589,-31.95121c10.07639,-6.39059 32.87692,9.75931 23.22033,8.94962c-5.08187,-0.42611 21.84452,-22.66243 32.37496,-21.79495c0,0 27.15176,19.17721 14.68363,15.59974c-7.97486,-2.28822 22.5177,-5.96582 25.26186,14.20345z" data-paper-data="{&quot;origPos&quot;:null}" fill="#5acc62" stroke-width="0"/><path d="M350.39866,346.80551l-35.76581,-80.61864l178.58408,-39.95884l-1.27688,81.7432l-36.0842,-13.37928l-20.87034,52.66411l-33.6361,-58.14332l-18.40178,37.42373l-18.5521,-31.42334z" data-paper-data="{&quot;origPos&quot;:null}" fill="url(#color-1)" stroke-width="0"/><path d="M221.81907,241.09704l-46.17375,-42.00691l390.82439,-53.17414l-52.35739,62.3737l-12.46601,31.93075l-184.01397,44.58269c0,0 -26.26559,-22.70543 -34.56033,-28.24275c-1.6279,-1.08675 -61.25286,-15.46334 -61.25286,-15.46334z" data-paper-data="{&quot;origPos&quot;:null,&quot;index&quot;:null}" fill="#bbc6d1" stroke-width="0"/><path d="M316.60504,244.71049c9.84072,10.106 3.77068,20.0425 -15.51394,22.66629c-17.64557,2.40079 -27.40319,-11.95995 -27.53034,-12.8945c-1.56119,-11.47455 11.56018,-17.56044 12.92067,-17.74555c19.28464,-2.6238 24.05526,1.74185 30.12362,7.97377z" data-paper-data="{&quot;origPos&quot;:null}" fill="#5acc62" stroke-width="0"/><path d="M281.6726,231.81918c7.69257,7.89993 4.54715,22.62784 -10.52778,24.67888c-13.79367,1.87672 -30.9707,-17.1857 -31.0701,-17.91624c-1.22039,-8.96972 14.07507,-15.06519 15.13857,-15.20988c15.07493,-2.05104 21.71566,3.57573 26.45931,8.44727z" data-paper-data="{&quot;origPos&quot;:null}" fill="#5acc62" stroke-width="0"/><path d="M356.00623,338.02354c-0.64341,0.33225 -1.2171,0.44597 -1.72007,0.4224c-3.19786,0.43676 -5.84217,1.04897 -9.11226,-0.06535c-0.73559,-0.25066 -0.92433,-1.27734 -1.54292,-1.74773c-2.84649,-2.16469 -6.30671,-3.64094 -9.16861,-5.79954c-1.82421,-1.37593 -3.00522,-2.90035 -4.98148,-4.08366c-5.97245,-3.87158 -9.85371,-9.7041 -14.6005,-14.83696c-2.35569,-2.5473 -4.56128,-4.35683 -5.69015,-7.78962c-1.44703,-4.40034 -0.70591,-9.01042 0.37669,-13.33528c0.58133,-1.96013 1.32648,-3.97964 2.08936,-5.95481c-0.18568,-0.19771 -0.38371,-0.37926 -0.59629,-0.54094c-4.50778,-3.42806 -10.0759,-6.23307 -12.0178,-12.0559c-0.94746,-2.84096 2.0125,-7.2734 2.71432,-10.07695c0,0 0.78505,-3.13622 3.92128,-2.35117c3.13622,0.78505 2.35117,3.9213 2.35117,3.9213c-0.63551,2.53875 -3.5223,6.53624 -2.53326,8.90856c0.11407,0.27359 0.20312,-0.86999 0.47494,-0.7518c0.57625,0.25057 0.73006,1.03127 1.17896,1.47099c2.11718,2.07376 4.76217,3.54107 7.05723,5.28639c0.05223,0.03972 0.10391,0.07964 0.15509,0.11982c0.26137,-0.42033 0.51227,-0.75035 0.71877,-0.89128c0.19903,-0.13585 0.36284,0.83388 0.40751,0.59712c0.25075,-1.32869 -0.51716,-3.80105 -0.69737,-5.12556c-0.52303,-3.84419 -1.04605,-7.68834 -1.56907,-11.53251c0,0 -0.43585,-3.20349 2.76763,-3.63934c3.20349,-0.43585 3.63934,2.76763 3.63934,2.76763c0.52303,3.84419 1.04605,7.68834 1.56907,11.53251c0.18021,1.32451 0.94811,3.79687 0.69737,5.12556c-0.46631,2.47098 -1.72903,4.77207 -2.98828,7.06885c0.47903,0.87895 0.95201,1.78169 1.47284,2.69275c2.36318,4.16853 0.73289,9.50012 2.73151,13.56495c0.10632,0.21625 0.0051,-0.76201 0.23316,-0.68429c1.25726,0.42844 1.69406,1.88032 3.23181,2.17051c0.2368,0.04468 -0.60655,-0.46128 -0.40751,-0.59712c1.49204,-1.0183 7.45434,-1.35081 9.29008,-1.26397c3.31707,0.15687 7.08123,1.29655 10.30615,2.09391c4.72267,1.18218 15.87785,3.73704 15.51834,10.71904c-0.24942,4.84334 -3.29604,7.86425 -5.50524,11.8298l-0.10914,-0.3754c-0.07871,0.68082 -0.42453,1.41702 -1.29031,2.08688c-2.55702,1.97837 -4.53539,-0.57863 -4.53539,-0.57863l0.28624,-4.27965c1.03334,-1.85486 2.76762,-5.86073 4.38371,-7.16928c0.23037,-0.18652 0.62171,0.89171 0.65853,0.59759c0.52523,-4.19542 -7.32102,-5.64276 -10.97687,-6.55788c-2.29238,-0.58261 -5.65585,-1.87256 -7.86435,-1.95943c-6.02103,-0.23682 -10.96219,3.15162 -16.45324,-1.02422c-4.47518,-3.40327 -3.09935,-8.53408 -4.18747,-12.96607c-0.85348,3.53399 -1.27378,6.59507 -0.09255,10.28561c0.48592,1.51818 2.68834,2.83769 3.74163,3.97825c4.0938,4.433 7.91216,11.23271 13.46378,13.97251c2.28723,1.36953 3.93556,3.25302 6.02369,4.85992c2.40505,1.85078 5.51828,3.07186 7.9515,4.92226c0.53604,0.40767 1.26298,1.09726 1.86686,1.69654c0.16929,-0.28049 4.3793,-0.58871 4.80161,-0.64617l3.94913,1.63291c0,0 1.4834,2.87258 -1.3892,4.35599z" data-paper-data="{&quot;origPos&quot;:null}" fill="#5acc62" stroke-width="0.5"/><path d="M370.78076,315.85636c-0.0373,3.22346 -0.0027,0.10385 -0.0027,0.10385l-0.06627,1.64041c-0.31312,3.05757 -1.49007,8.43904 -2.88014,10.93835c-1.60511,2.88592 -8.08173,2.63803 -10.79663,3.00741c-2.86881,0.39032 -5.99304,1.22015 -8.89712,0.55794c-0.14883,-0.03393 -2.00315,-1.31447 -2.26698,-1.46162c-6.0639,-3.38228 -9.58151,-8.25067 -14.11625,-13.50835l-1.82821,-0.15856l0.10932,-2.70635c-0.12645,-0.77599 0.00287,-1.7044 0.80801,-2.61845c0.02524,-0.029 0.05098,-0.05748 0.07725,-0.08538c1.18853,-1.27903 2.38632,-0.9843 3.16181,-0.53557c0.33005,0.17409 0.63023,0.41535 0.88429,0.70978l2.02992,2.30365l-0.03672,0.04073c3.41524,4.12078 6.38469,8.03877 11.08742,10.66673c0.95807,0.53537 1.76124,1.5263 2.80309,1.76388c0.21123,0.04816 -0.54629,-0.46949 -0.37135,-0.60204c1.08957,-0.82567 4.33672,-0.59004 5.68383,-0.77332c1.89461,-0.25777 3.7892,-0.51554 5.68383,-0.77332c0.5757,-0.07833 1.16877,-0.24515 1.65088,-0.59448c-0.33269,-0.29301 0.03074,-1.093 0.13383,-1.59332c0.2377,-1.15356 1.66917,-3.75573 1.33554,-5.07589l0.06625,-1.64041c0,0 5.78439,-2.82912 5.7471,0.39436z" data-paper-data="{&quot;origPos&quot;:null}" fill="#5acc62" stroke-width="0.5"/><path d="M541.07484,185.01505c-0.09672,3.23155 -3.32828,3.13482 -3.32828,3.13482l-1.56383,-1.04794c-5.96294,0.8113 -11.99662,0.97965 -18.02666,1.80008c-7.81608,1.06343 -16.66439,3.2251 -24.52079,2.03108c-0.61464,-0.09342 -0.85445,-0.99844 -1.45175,-1.17095c-2.88103,-0.83215 -6.27831,0.04403 -9.23524,-0.6378c-0.6786,-0.15648 -1.04193,-1.00751 -1.71188,-1.19774c-2.27846,-0.647 -4.6123,-0.68606 -6.89862,-1.38306c-0.06822,0.06701 -0.13426,0.13066 -0.19796,0.19017c-1.93073,1.80388 -4.06747,2.95686 -6.3707,4.22246c-0.37507,0.2061 -3.75106,1.29875 -3.95452,1.42395c-1.31688,0.81034 -2.20157,2.21165 -3.51641,3.02529c-4.18408,2.58919 -11.47354,2.27696 -16.22967,2.92406c-9.93354,1.35152 -20.88389,0.0406 -30.02777,-4.70083c-0.28377,-0.14716 -0.50395,-0.38435 -0.71193,-0.63858c-1.20129,0.52153 -2.40302,1.0185 -3.58139,1.49299c-0.94114,0.37898 -2.09859,-0.00034 -3.01143,0.44254c-1.39114,0.67493 -2.20157,2.21165 -3.51641,3.02529c-1.36049,0.8419 -3.57984,1.22189 -5.09388,1.69086c-3.36833,0.83106 -6.4856,2.93593 -9.90244,3.95751c-5.07618,1.51768 -10.60912,1.81412 -15.85383,2.52769c-4.09558,0.55723 -8.40673,1.57246 -12.53318,1.31558c-4.50104,-0.33528 -8.27421,-2.30065 -12.40251,-3.18776c-1.66956,-0.35877 -3.44052,-0.01452 -5.10905,-0.37801c-2.76221,-0.6018 -6.21006,-2.34569 -8.50635,-3.00894c-3.91638,-1.13119 -7.85562,-1.57189 -11.58052,-3.44403c-6.77489,1.20926 -13.89933,2.72212 -20.45442,2.41214c-3.04961,-0.14423 -6.55906,-1.62716 -9.46609,-1.74148c-1.72211,-0.06774 -3.73019,0.50752 -5.44592,0.74095c-3.64393,0.19451 -8.14797,-0.59793 -11.64803,-1.678c-0.59406,-0.18333 -0.85445,-0.99844 -1.45175,-1.17095c-1.50595,-0.435 -3.15832,-0.16856 -4.66318,-0.6073c-0.59688,-0.17401 -0.85445,-0.99844 -1.45175,-1.17095c-5.50957,-1.59138 -10.78376,-1.58501 -16.0933,-4.16803c0,0 -2.90722,-1.41431 -1.49292,-4.32153c1.41431,-2.90722 4.32154,-1.49292 4.32154,-1.49292c4.4592,2.16932 8.96752,2.15903 13.6664,3.529c1.48443,0.43279 2.71133,1.54679 4.19685,1.97585c1.56949,0.45333 2.43275,-0.07718 4.70278,0.99154c1.51609,0.71377 7.81201,2.62715 9.04167,1.70633c6.20526,-0.84426 11.29436,0.89672 17.35381,1.13503c2.0173,0.07935 5.01205,-0.9153 7.10812,-1.20049c0.79532,-0.10821 1.59065,-0.21642 2.38599,-0.32463c-6.55273,-3.78721 -13.29638,-7.67794 -20.32111,-11.5914c0,0 -2.82429,-1.5734 -1.2509,-4.39769c1.57339,-2.82429 4.39768,-1.2509 4.39768,-1.2509c9.45962,5.26993 18.42293,10.76493 27.58537,15.82349c1.18023,-0.16058 2.36048,-0.32116 3.5407,-0.48174c5.17961,-0.70472 10.22184,-3.16619 14.55423,-5.83217c2.22894,-1.37159 4.76871,-4.45828 7.82076,-5.46194c4.03962,-1.3284 8.8016,-1.4309 13.01141,-2.00367c5.33585,-0.72598 11.49872,-2.38305 16.88235,-1.61161c8.74228,1.25271 16.47584,4.74747 24.93558,6.953c3.34858,0.92553 6.28401,2.31447 9.19676,3.81857c0.50346,-0.19233 1.00153,-0.39076 1.49202,-0.59811c6.43261,-2.71928 11.88736,-6.4131 18.72388,-7.81235c4.48486,-0.61019 8.96975,-1.22039 13.4546,-1.83058c1.59741,-0.21734 3.86602,-0.95117 5.44592,-0.74095c1.80183,0.23977 3.39812,1.33663 5.17528,1.71851c0.89861,0.1931 1.84646,-0.29025 2.75362,-0.14267c4.25574,0.69229 8.66365,1.57104 12.87041,2.78849c0.95975,-0.76852 2.0071,-1.47058 3.34792,-2.03963c1.05503,-0.36447 1.63351,-1.58099 2.6443,-2.05451c5.91504,-2.77104 15.96773,-3.38874 22.42037,-2.98705l0.47923,1.19078c0,0 3.23017,-0.13492 3.36511,3.09523c0.13493,3.23017 -3.09523,3.36512 -3.09523,3.36512l-1.15085,-1.19764c-4.64542,-0.28919 -9.24991,0.66933 -13.8661,1.29739c-1.17461,0.15981 -2.35897,0.69927 -3.52382,0.47944c-0.2118,-0.03997 0.11298,-0.72069 -0.08717,-0.6407c-0.77144,0.30831 -1.42912,0.86971 -2.0903,1.46823c0.19933,0.04906 0.39888,0.10368 0.5987,0.16535c1.39917,0.43178 2.49644,1.68513 3.93672,1.94908c1.71295,0.3139 4.47633,-0.75424 6.49014,-0.16712c1.48441,0.4328 2.6536,1.87979 4.19685,1.97585c0.24049,0.01497 0.00943,-0.59485 0.23316,-0.68429c0.70051,-0.27997 1.48932,-0.2615 2.24244,-0.3051c6.06371,-0.35088 11.97551,-0.97678 18.02666,-1.80007c6.02146,-0.81926 12.08043,-0.99106 18.02665,-1.80008l2.62901,0.9918c0,0 3.23155,0.09672 3.13484,3.32827zM454.94333,182.68132c-0.70243,-0.15304 -1.04165,-1.16252 -1.7547,-1.25396c-1.58826,-0.20368 -3.84174,0.52269 -5.44592,0.74095c-4.48486,0.61019 -8.96975,1.22039 -13.4546,1.83058c-1.98519,-0.15732 -3.38874,1.37598 -5.27157,2.02236c-3.01346,1.03452 -5.65117,1.83675 -8.59394,3.48209c3.41846,1.15014 7.31785,1.5633 10.55176,2.1689c1.73327,0.32459 3.30053,1.36364 5.05176,1.57042c1.57272,0.18569 5.30036,-1.0656 7.17074,-1.32007c4.40658,-0.59954 11.10535,-0.2382 14.99009,-2.62869c0.5295,-0.32582 0.55749,-1.1891 1.08614,-1.51624c2.14863,-1.32959 4.57384,-2.14314 6.85815,-3.2506c-3.71446,-0.62896 -7.4486,-1.03107 -11.18787,-1.84574zM344.8736,197.93436c0.89861,0.1931 1.8556,-0.33833 2.75364,-0.14266c4.35204,0.94815 8.01743,3.00359 12.61078,3.19736c3.68112,0.22914 7.59665,-0.77065 11.25975,-1.26904c4.42106,-0.60151 9.10838,-0.82531 13.4546,-1.83058c4.02891,-0.9319 7.41528,-3.11371 11.26023,-4.42413c1.4273,-0.44211 3.60645,-0.8326 4.89575,-1.62595c0.5295,-0.32582 0.53967,-1.21977 1.08614,-1.51625c0.81003,-0.43943 1.65042,-0.83523 2.51012,-1.20208c-0.83993,-0.25687 -1.65729,-0.49315 -2.42346,-0.7049c-7.84479,-2.25488 -15.1428,-5.54175 -23.25612,-6.71947c-5.0972,-0.73991 -10.92255,0.86633 -15.96748,1.55272c-3.24283,0.44121 -7.68609,0.25883 -10.69431,1.22164c-3.52774,1.12911 -5.89222,4.08835 -8.89833,5.94856c-2.60524,1.61216 -5.4668,3.09788 -8.47554,4.22877c3.40507,1.07755 6.17487,2.48891 9.88421,3.28599z" data-paper-data="{&quot;origPos&quot;:null}" fill="#5acc62" stroke-width="0.5"/><path d="M444.30264,149.49815c-0.1193,1.78588 -0.22703,3.5382 -0.24126,5.32916c-0.27923,4.49877 -0.29844,5.66456 -5.34256,8.13671c-1.04367,0.5115 -4.33272,-1.7496 -5.1952,-2.39281c-5.1608,-3.84867 -7.85695,-9.72626 -4.06727,-15.67495c0.57902,-0.90889 2.05009,-0.66531 3.07511,-0.99795c1.02504,-0.33266 2.05009,-0.66532 3.0751,-0.99795c1.02504,-0.33266 2.05009,-0.66532 3.0751,-0.99795c0.38867,-0.12614 0.78389,-0.17469 1.16892,-0.15424c0.97941,0.01342 2.30996,0.40044 2.90416,2.23139c0.29196,0.89964 0.23531,1.62148 0.00904,2.19259l0.58974,-0.34752c0,0 0.64459,1.98627 -0.69865,3.28416zM437.85206,148.96959l-0.24952,0.08098c-1.02504,0.33266 -2.05009,0.66532 -3.0751,0.99795c-0.15281,0.04959 -0.30561,0.09917 -0.45842,0.14876c-0.03268,0.24732 -0.05957,0.49383 -0.02061,0.67328c0.37926,1.74597 1.22092,2.86313 2.49938,4.05789c0.26287,0.24566 0.57075,0.46145 0.90077,0.64929c0.10906,-0.28703 0.18333,-0.56649 0.14706,-0.80184c0.01521,-1.91367 0.12792,-3.79998 0.25543,-5.70876l0.05488,-0.03233c-0.01835,-0.02172 -0.03629,-0.04349 -0.05383,-0.06525z" data-paper-data="{&quot;origPos&quot;:null,&quot;index&quot;:null,&quot;origRot&quot;:0}" fill="#5a5f5e" stroke-width="0.5"/><g stroke-width="0"><path d="M312.29382,65.23337l-16.6448,-20.82948l19.87707,-1.50345l92.7048,-13.81403l-4.65747,16.52214l-14.15627,-5.10263l-19.30627,10.49695l-8.63482,-8.29051l-21.07908,13.08756l-17.42172,1.87164z" data-paper-data="{&quot;origPos&quot;:null}" fill="#9ba3a1"/><path d="M217.7609,144.79665l-16.6448,-20.82947l19.87707,-1.50345l92.7048,-13.81403l-4.65747,16.52213l-14.15627,-5.10263l-19.30627,10.49695l-8.63482,-8.29049l-21.07908,13.08756l-17.42172,1.87164z" data-paper-data="{&quot;origPos&quot;:null}" fill="#9ba3a1"/><g data-paper-data="{&quot;origPos&quot;:null}"><path d="M428.35045,118.79751l-16.64481,-20.82948l19.87707,-1.50345l92.7048,-13.81403l-4.65747,16.52214l-14.15628,-5.10263l-19.30627,10.49695l-8.63482,-8.29049l-21.0791,13.08757l-17.42172,1.87164z" data-paper-data="{&quot;origPos&quot;:null}" fill="#3f4241"/><path d="M424.69782,117.02057l-16.64481,-20.82947l19.87707,-1.50345l92.7048,-13.81403l-4.65747,16.52213l-14.15628,-5.10263l-19.30627,10.49695l-8.63482,-8.29049l-21.0791,13.08757l-17.42172,1.87164z" data-paper-data="{&quot;origPos&quot;:null}" fill="#8e9593"/></g></g></g><g stroke-linejoin="miter"><g stroke="none" stroke-width="0" stroke-linecap="butt"><path d="M287.16013,133.68142c3.19567,-0.60729 -0.25309,6.87999 -0.61873,8.36341c-4.13948,-0.50937 -2.92893,-0.16274 -5.89264,0.31781c-3.27118,0.53043 -3.89017,-22.00217 3.39749,-19.5018c7.28766,2.50032 20.13835,-0.09587 17.87454,9.06969c-1.75821,5.66621 -15.63821,1.91767 -14.76064,1.75092z" data-paper-data="{&quot;origPos&quot;:null,&quot;origRot&quot;:0}" fill="#ff0021"/><g data-paper-data="{&quot;origPos&quot;:null,&quot;origRot&quot;:0}" fill="#ffffff"><path d="M274.55654,145.54257c0.72397,-3.84265 0.42388,-6.7972 8.90032,-6.31499c7.23984,0.41187 7.00262,3.75778 6.27865,7.60038c-0.40721,2.16123 -1.62501,4.90363 -3.65102,5.76864c-1.12126,0.47874 -3.70078,-1.15792 -2.53069,-1.2065c1.66426,-0.06905 -1.73287,1.60071 -2.56333,1.53041c0,0 -3.06263,-1.32342 -2.26446,-1.30134c0.77556,0.02145 -1.60534,1.00779 -2.44474,0.30128c-1.83607,-1.5454 -2.4487,-2.53521 -1.72476,-6.37789z" data-paper-data="{&quot;origPos&quot;:null,&quot;origRot&quot;:0}"/><path d="M276.27627,151.461c0.22927,-1.21681 1.41447,-2.11867 2.64729,-2.01424c1.23282,0.10443 2.04635,1.17548 1.81713,2.39231c-0.22927,1.21681 -1.41447,2.11865 -2.64729,2.01424c-1.23282,-0.10443 -2.04635,-1.17545 -1.81713,-2.39231z" data-paper-data="{&quot;origPos&quot;:null,&quot;origRot&quot;:0}"/></g></g><path d="M308.91415,137.74705c1.51082,15.50074 -2.7872,20.22503 -13.33415,21.20954c-10.54692,0.98451 -13.68744,-0.27175 -15.44572,-17.29801c-1.53653,-14.87886 1.31713,-20.08778 11.86407,-21.07229c10.54692,-0.9845 15.25534,0.12483 16.9158,17.16078z" data-paper-data="{&quot;origPos&quot;:null,&quot;origRot&quot;:0}" fill="#ff0021" stroke="none" stroke-width="NaN" stroke-linecap="butt"/><path d="M309.63849,136.6849c1.51082,15.50074 6.00322,18.60495 -14.06248,22.46871c-5.57875,1.0742 -13.36776,1.53949 -14.68864,-3.32163c-2.26956,-9.13787 -0.6701,-7.61999 -1.45627,-15.23284c-0.51483,-4.98519 4.95556,-2.58634 9.47346,-2.12183c-0.26933,-5.39465 -0.75543,-13.83019 -1.02633,-17.67977c2.69972,-0.58853 3.83051,-2.99079 4.15071,-0.28005c0.58758,4.97419 2.18841,9.36409 3.12396,17.43736c0,0 3.78368,-0.36426 6.79031,-0.87246c-0.3299,-4.53258 -0.93656,-13.18297 -1.15706,-16.51456c0,0 2.76542,-2.59714 3.7127,0.45516c0.3673,3.61061 1.83267,10.92935 2.55363,15.80886z" data-paper-data="{&quot;origPos&quot;:null,&quot;origRot&quot;:0}" fill="#0052ef" stroke="none" stroke-width="NaN" stroke-linecap="butt"/><path d="M285.91781,140.99496c-0.11962,-1.28138 0.94819,-2.42884 2.38501,-2.56296c1.43682,-0.13412 2.69857,0.79591 2.81818,2.07729c0.11962,1.28138 -0.94822,2.42883 -2.38504,2.56296c-1.43682,0.13412 -2.69854,-0.79589 -2.81816,-2.07727z" data-paper-data="{&quot;origPos&quot;:null,&quot;origRot&quot;:0}" fill="#fded47" stroke="none" stroke-width="0" stroke-linecap="butt"/><path d="M299.82969,140.25061c-0.11962,-1.28138 0.94819,-2.42884 2.38502,-2.56295c1.43682,-0.13412 2.69856,0.79591 2.81818,2.07729c0.11962,1.28138 -0.94822,2.42882 -2.38504,2.56295c-1.43682,0.13412 -2.69854,-0.79588 -2.81815,-2.07726z" data-paper-data="{&quot;origPos&quot;:null,&quot;origRot&quot;:0}" fill="#ffe84f" stroke="none" stroke-width="0" stroke-linecap="butt"/><g data-paper-data="{&quot;origPos&quot;:null,&quot;origRot&quot;:0}" stroke="none" stroke-width="0" stroke-linecap="butt"><path d="M328.42777,158.89953c1.68531,1.84509 2.63515,4.01296 -9.333,13.48565c-4.14746,3.69583 -4.80387,2.95433 -6.60079,1.21414c-3.65936,-3.54379 2.4179,-5.41843 6.51996,-9.16527c4.10206,-3.74684 6.34806,-8.891 9.41383,-5.53453z" data-paper-data="{&quot;origPos&quot;:null}" fill="#8e4108"/><path d="M318.54104,159.17558c4.05277,4.43704 6.39902,0.77657 -2.3607,8.28444c-8.22805,7.05215 -4.07647,3.39962 -8.12928,-1.03742c-4.05282,-4.43706 -11.28402,-8.43855 -4.54233,-14.39204c2.70081,-7.79348 10.97952,2.70794 15.03234,7.145z" data-paper-data="{&quot;origPos&quot;:null}" fill="#0052ef"/><path d="M330.47549,161.29531c0.35951,0.40116 -5.65789,7.25529 -6.70376,8.06462c-1.04227,0.80651 -7.26685,6.11738 -7.84086,5.80948c-0.58188,-0.31211 -2.00046,-0.12503 -1.07607,-0.80259c0,0 3.21033,-1.82618 7.94601,-6.26045c0,0 4.84067,-4.66772 6.58786,-7.27757c0.42487,-0.33346 0.20508,-0.51755 1.08686,0.46649z" data-paper-data="{&quot;origPos&quot;:null,&quot;origRot&quot;:0}" fill="#f9c869"/></g><path d="M268.24586,173.3195c-2.13305,-1.24886 -3.66595,-3.01821 4.86239,-15.47574c2.83429,-4.70735 3.67175,-4.19933 5.87944,-3.08235c4.4959,2.27472 -0.69535,5.82751 -3.4718,10.56972c-2.77643,4.74219 -3.38982,10.26021 -7.27003,7.98842z" data-paper-data="{&quot;origPos&quot;:null,&quot;origRot&quot;:0}" fill="#8e4108" stroke="none" stroke-width="0" stroke-linecap="butt"/><path d="M275.33095,170.42183c-0.81592,-2.69932 -2.73545,-2.2331 1.50763,-7.65493c1.96073,-10.1756 9.94458,-1.2674 8.81257,-0.73727c-1.16309,0.19714 -1.28175,-16.33353 5.47969,-11.84522c11.61551,-0.99883 2.49224,16.93926 0.08406,22.11338z" data-paper-data="{&quot;origPos&quot;:null,&quot;origRot&quot;:0}" fill="#0052ef" stroke="none" stroke-width="0" stroke-linecap="butt"/><path d="M266.13988,171.35475c-0.46228,-0.27658 3.25289,-8.60644 4.01182,-9.68938c0.75634,-1.07922 5.12682,-7.99657 5.76632,-7.87267c0.64823,0.12556 1.94761,-0.47362 1.26563,0.44749c0,0 -2.52473,2.69577 -5.73308,8.33456c0,0 -3.23937,5.89286 -4.13441,8.90333c-0.30694,0.4444 -0.04246,0.55506 -1.17633,-0.12334z" data-paper-data="{&quot;origPos&quot;:null,&quot;origRot&quot;:0}" fill="#f9c869" stroke="none" stroke-width="0" stroke-linecap="butt"/><g data-paper-data="{&quot;origRot&quot;:0,&quot;origPos&quot;:null}"><path d="M278.63737,116.19297c-0.40963,1.27824 -1.54682,1.92952 -3.23174,1.38957c-1.68492,-0.53996 -2.98859,-3.54081 -2.57898,-4.81903c0.40963,-1.27824 1.25574,-0.4554 2.94069,0.08458c1.68492,0.53996 3.27961,2.06667 2.86997,3.34489z" data-paper-data="{&quot;origRot&quot;:0,&quot;origPos&quot;:null}" fill="#5a2c0a" stroke="none" stroke-width="0" stroke-linecap="butt"/><path d="M307.23678,96.06567c0.75629,7.2763 3.64455,9.40445 2.57745,17.5712c-2.46623,6.60248 -6.53504,10.95726 -18.52808,11.46381c-0.23693,0.01978 -16.26801,-4.44935 -17.23079,-13.71205c-1.05368,-10.13716 -1.76555,-16.67345 8.54539,-17.74516c10.31094,-1.0717 23.58238,-7.71495 24.63604,2.42219z" data-paper-data="{&quot;origPos&quot;:null}" fill="#ffdebd" stroke="none" stroke-width="0" stroke-linecap="butt"/><path d="M286.07105,106.91661c0.62022,1.86575 2.28479,1.5735 1.73433,3.461c-0.25856,0.88663 -3.38718,1.13591 -2.33677,0.52825c0.55435,-0.3207 -0.59716,1.5202 -1.20491,1.72223c-2.05532,0.68322 -2.67187,-0.5879 -2.69176,-3.76534c-0.02314,-3.69118 -4.34942,-8.15605 -2.29409,-8.83933c0,0 2.76876,-2.22025 3.96211,-0.93071c1.53469,1.65838 1.66668,4.32115 2.83109,7.82387z" data-paper-data="{&quot;origRot&quot;:0,&quot;origPos&quot;:null}" fill="#5a2c0a" stroke="none" stroke-width="0" stroke-linecap="butt"/><g data-paper-data="{&quot;origPos&quot;:null,&quot;origRot&quot;:0}" stroke="none" stroke-width="0" stroke-linecap="butt"><path d="M308.32327,89.70174c1.26889,4.45861 -8.61824,5.72155 -18.15087,8.43449c-0.47785,0.136 -19.76618,7.28276 -19.49085,-0.38736c-4.9563,-8.63966 11.07414,-9.14917 10.30391,-5.03881c-5.9458,0.96071 2.77705,-13.55421 16.29553,-17.7658c14.13018,-0.22961 11.89826,7.7365 10.2376,12.46858z" data-paper-data="{&quot;origPos&quot;:null}" fill="#ff0021"/><path d="M313.45531,90.04134c0.57149,2.00804 -12.68782,5.88632 -20.28661,8.0489c-7.59879,2.16255 -7.74358,0.23725 -8.31507,-1.7708c-0.57149,-2.00804 7.66431,-5.49093 15.2631,-7.65351c7.59879,-2.16255 12.76711,-0.63261 13.33856,1.37543z" data-paper-data="{&quot;origPos&quot;:null}" fill="#bc041a"/><path d="M292.22189,88.67244c-0.7715,-2.71083 0.31813,-5.39649 2.43377,-5.99859c2.11564,-0.60207 4.45611,1.10738 5.22756,3.81821c0.7715,2.71083 -0.31815,5.39652 -2.43379,5.99862c-2.11564,0.60207 -4.45608,-1.10738 -5.22755,-3.81821z" data-paper-data="{&quot;origPos&quot;:null}" fill="#ffffff"/><path d="M298.89436,86.4011c-0.7715,-2.71083 0.03898,-5.31701 1.81024,-5.82111c1.77123,-0.50408 3.83249,1.28484 4.60401,3.99564c0.7715,2.71083 -0.03896,5.31706 -1.81019,5.82116c-1.77123,0.50408 -3.83251,-1.28489 -4.60401,-3.99572z" data-paper-data="{&quot;origPos&quot;:null}" fill="#ffffff"/><path d="M299.24412,86.95322c0.46017,1.617 0.07544,3.14348 -0.8594,3.40953c-0.93482,0.26602 -2.06566,-0.82906 -2.52586,-2.44608c-0.46017,-1.617 -0.07545,-3.14348 0.85938,-3.40953c0.93482,-0.26602 2.06569,0.82911 2.52586,2.44611z" data-paper-data="{&quot;origPos&quot;:null}" fill="#000000"/><path d="M303.71262,85.49536c0.46017,1.617 0.22077,3.10213 -0.53469,3.31712c-0.75549,0.21497 -1.74092,-0.9215 -2.2011,-2.53852c-0.46017,-1.617 -0.22079,-3.10215 0.53464,-3.31714c0.75549,-0.21497 1.74095,0.92153 2.20112,2.53854z" data-paper-data="{&quot;origPos&quot;:null}" fill="#000000"/></g><path d="M280.64387,105.51407c0.21715,2.0891 0.90059,3.33641 0.26864,5.12919c-0.43449,1.23263 -2.8984,1.60128 -4.19836,1.73637c-2.53705,0.26369 -4.89099,-2.38262 -5.2577,-5.91066c-0.36671,-3.52807 1.39269,-6.60187 3.92974,-6.86556c2.53705,-0.26369 4.89099,2.38256 5.25768,5.91061z" data-paper-data="{&quot;origPos&quot;:null}" fill="#ffdec6" stroke="none" stroke-width="0" stroke-linecap="butt"/><path d="M277.57906,109.53283c0,0 -1.05564,0.47526 -1.68715,0.31051c-0.76545,-0.19969 -1.89244,-1.24438 -1.89244,-1.24438" data-paper-data="{&quot;origPos&quot;:null}" fill="none" stroke="#f6b09a" stroke-width="0.5" stroke-linecap="round"/><path d="M307.12808,95.58191c1.1506,-0.37195 1.81499,1.99479 2.09196,4.65935c0.27697,2.6646 -0.46191,4.92478 -1.65036,5.04829c-1.1884,0.12354 -2.37633,-1.93642 -2.65329,-4.60099c-0.27697,-2.6646 0.07356,-4.41552 2.21168,-5.10667z" data-paper-data="{&quot;origPos&quot;:null,&quot;index&quot;:null}" fill="#ffffff" stroke="none" stroke-width="0" stroke-linecap="butt"/><path d="M307.40314,97.48848c0.75781,-0.07875 1.5538,1.60468 1.77785,3.7601c0.22405,2.15543 -0.20873,3.96648 -0.96654,4.04528c-0.75781,0.07875 -1.55379,-1.6046 -1.77782,-3.76003c-0.22405,-2.15543 0.2087,-3.96658 0.96651,-4.04535z" data-paper-data="{&quot;origPos&quot;:null,&quot;index&quot;:null}" fill="#000000" stroke="none" stroke-width="NaN" stroke-linecap="butt"/><path d="M303.02507,103.08307c0.31889,3.06797 -0.96854,5.71572 -2.87553,5.91396c-1.90701,0.19822 -3.71142,-2.12817 -4.03031,-5.19614c-0.31889,-3.06797 0.05701,-5.9115 1.97476,-5.82031c3.56385,0.16947 4.61221,2.03454 4.93113,5.10251z" data-paper-data="{&quot;origPos&quot;:null}" fill="#ffffff" stroke="none" stroke-width="0" stroke-linecap="butt"/><path d="M303.20837,111.63047c-0.47087,-4.53019 0.11558,-7.54372 4.68171,-8.77782c4.32266,-1.16828 6.58828,-1.96742 7.28514,4.73692c0.13374,1.28657 0.19302,4.79275 -0.22406,6.01718c-1.25124,3.67323 -3.98063,8.10534 -14.18084,9.16556c-3.05646,0.31769 2.90895,-6.61166 2.43808,-11.14182z" data-paper-data="{&quot;origPos&quot;:null}" fill="#ffdebd" stroke="none" stroke-width="0" stroke-linecap="butt"/><path d="M302.99198,103.90276c0.21739,2.09152 -0.45668,3.87539 -1.50558,3.98443c-1.0489,0.10901 -2.07546,-1.49811 -2.29282,-3.58963c-0.21739,-2.09152 0.45668,-3.87542 1.50558,-3.98445c1.0489,-0.10901 2.07546,1.49811 2.29282,3.58963z" data-paper-data="{&quot;origPos&quot;:null}" fill="#000000" stroke="none" stroke-width="NaN" stroke-linecap="butt"/><path d="M315.48435,111.87786c2.13278,2.19595 3.15681,2.75843 0.96137,4.52323c-1.39982,1.12525 -6.59954,1.17068 -3.94126,0.3339c1.42541,-0.44871 -2.21123,2.48359 -3.63121,2.95596c-1.03859,0.34553 -4.90177,-1.03951 -3.88709,-1.10021c0.8438,-0.05049 -2.20421,2.33881 -3.03097,2.52437c-1.03145,0.23149 -4.2607,-2.01228 -3.19103,-2.03091c0.77079,-0.01342 -1.33327,1.39789 -2.09997,1.46652c-1.7086,0.15292 -3.0043,-4.92334 -3.16121,-7.85254c0,0 3.84972,0.69796 7.99436,1.59579c2.75077,0.59588 7.37337,-0.10081 9.53925,0.92392z" data-paper-data="{&quot;origPos&quot;:null,&quot;origRot&quot;:0}" fill="#5a2c0a" stroke="none" stroke-width="0" stroke-linecap="butt"/><path d="M302.09903,97.06136c0.14748,1.41909 -1.6512,-1.02708 -3.77984,-0.80585c-2.12864,0.22123 -3.43966,4.38919 -3.58716,2.9701c-0.14748,-1.41909 -1.77238,-5.15113 2.68601,-5.87324c4.89432,-0.7927 4.53347,2.28991 4.68095,3.709z" data-paper-data="{&quot;origPos&quot;:null}" fill="#000001" stroke="none" stroke-width="0" stroke-linecap="butt"/><path d="M309.82647,95.18165c0.14748,1.41909 -1.21945,-1.07197 -2.74663,-0.91322c-1.52713,0.15872 -2.35059,4.27599 -2.49807,2.85692c-0.14748,-1.41909 -1.42658,-5.18706 1.7645,-5.77748c3.50312,-0.64811 3.3327,2.41469 3.4802,3.83379z" data-paper-data="{&quot;origPos&quot;:null}" fill="#000001" stroke="none" stroke-width="0" stroke-linecap="butt"/></g><path d="M293.42753,129.42812c-3.14157,-0.14596 1.32619,-6.81154 1.53715,-8.78621c2.67232,0.05069 3.15286,0.75898 6.05368,0.97175c3.20174,0.23485 0.32141,21.49141 -6.24448,17.51733c-6.56583,-3.97412 -19.2227,-4.41642 -15.65168,-12.50001c2.54978,-4.9171 16.38155,4.01694 15.51884,3.97686z" data-paper-data="{&quot;origRot&quot;:0}" fill="#ff0021" stroke="none" stroke-width="0" stroke-linecap="butt"/><g data-paper-data="{&quot;origRot&quot;:0}" fill="#ffffff" stroke="none" stroke-width="0" stroke-linecap="butt"><path d="M306.0207,117.74711c-0.04219,3.44051 0.71537,6.09206 -7.17961,5.5991c-6.74323,-0.421 -7.06902,-3.41962 -7.02683,-6.86015c0.02373,-1.93505 0.70039,-4.38547 2.42784,-5.14668c0.95601,-0.42127 3.60111,1.06479 2.53005,1.09991c-1.52346,0.05003 1.33743,-1.42298 2.11471,-1.35403c0,0 3.03954,1.20858 2.29998,1.18314c-0.71868,-0.02475 1.31628,-0.89222 2.20535,-0.25268c1.94465,1.39887 2.6707,2.29082 2.62849,5.73135z" data-paper-data="{&quot;origPos&quot;:null,&quot;origRot&quot;:0}"/><path d="M303.47157,112.42777c-0.01335,1.08951 -0.95953,1.88965 -2.11334,1.78727c-1.1538,-0.10241 -2.0784,-1.06867 -2.06502,-2.15815c0.01335,-1.08951 0.95955,-1.8897 2.11338,-1.78727c1.1538,0.10241 2.07835,1.06866 2.06498,2.15817z" data-paper-data="{&quot;origPos&quot;:null,&quot;origRot&quot;:0}"/></g></g><g stroke="none" stroke-linecap="butt" stroke-linejoin="miter"><path d="M179.18292,321.80701l12.44482,-13.17163l40.25549,16.00976l-21.02242,-2.89633l1.11872,6.09362l-15.1848,-8.03154l12.94515,24.54268l-18.84965,-15.06384l1.68438,18.60826z" fill="#3ba4e3" stroke-width="0"/><g stroke-width="0"><path d="M176.82576,284.29703l25.51572,-27.96595l12.56999,11.46867l-0.98237,1.63247l1.17575,3.09972l-23.24739,25.4798z" fill="#cd2225"/><path d="M185.16972,291.15888l24.76206,-27.13992l3.90999,3.56741l-0.52879,2.88923l0.66568,2.50393l-22.13896,24.26493z" fill="#a21b1e"/></g><g stroke-width="0"><path d="M180.82374,301.0322l25.51572,-27.96595l12.56999,11.46867l-0.98237,1.63246l1.17574,3.09972l-23.24739,25.4798z" fill="#cd2225"/><path d="M189.1677,307.89405l24.76206,-27.13992l3.90999,3.56742l-0.52879,2.88923l0.66568,2.50393l-22.13896,24.26493z" fill="#a21b1e"/></g><path d="M97.74284,316.31262l-20.25578,-51.3951l154.59004,28.00501l-16.93011,20.28882l-21.64913,9.6823l-13.33485,13.81543l-38.24082,-2.07658l-11.60632,-18.68521l-9.20138,7.1425z" fill="#cd2225" stroke-width="0"/><path d="M221.61145,291.19977c4.18502,1.50393 -7.20338,2.31375 -17.04558,10.47491c-12.22409,10.13622 -19.32032,34.13327 -22.68895,33.52302c-6.19466,-1.1222 3.32132,-34.54241 10.13609,-41.51231c10.09093,-10.32063 3.30703,-6.1274 16.93473,-4.77974c6.28727,-0.32148 7.4009,0.40288 12.66371,2.29411z" fill="#5dd1ea" stroke-width="0"/><path d="M216.66532,291.40885c3.3146,1.19114 -10.87032,-0.59795 -18.66551,5.86584c-9.68169,8.02806 -16.35077,32.82326 -16.48603,32.79876c-4.90628,-0.8888 6.31166,-31.17565 11.70907,-36.69593c7.99219,-8.17412 2.75032,-5.57665 13.54369,-4.50927c4.97963,-0.25462 5.73055,1.04272 9.89878,2.54062z" fill="#36b3cf" stroke-width="0"/><path d="M130.09286,318.05449c-1.67002,0.48825 -2.15827,-1.18177 -2.15827,-1.18177l0.00937,-0.28614c-2.32064,-3.3617 -3.49848,-6.10738 -3.13617,-10.2676c0.1947,-2.23569 1.17925,-5.9949 -0.79105,-7.7816c-1.91667,-1.73806 -4.39612,-1.99912 -6.80661,-2.4358c0,0 -0.17927,-0.03248 -0.41127,-0.13441c-1.14001,1.30784 -2.21539,2.26177 -3.77749,3.34202c-0.84343,0.58327 -2.33565,0.97847 -3.08612,1.77985c-1.14372,1.2213 -2.02671,2.63515 -3.17605,3.89441c0.11,0.44833 0.25721,0.87751 0.52366,1.24892c1.84329,2.56944 4.92442,3.71166 6.96562,5.96674c1.60417,1.77225 2.05466,4.23219 2.12734,6.47266l-0.34996,1.97931c0,0 -0.31015,1.71206 -2.02222,1.40191c-1.71206,-0.31015 -1.40191,-2.02222 -1.40191,-2.02222l0.3055,-1.63889c0.03456,-4.27764 -4.50874,-5.86409 -7.07901,-8.63701c-1.39604,-1.50612 -1.75586,-2.69415 -2.32837,-4.2441c-0.31105,-0.37421 -0.41715,-0.73792 -0.41389,-1.06318c-0.01714,-0.04121 -0.03454,-0.0827 -0.05224,-0.12448c-0.50781,-1.19914 -1.58706,-2.07253 -2.25271,-3.19177c-0.33381,-0.56128 -0.41907,-1.28329 -0.87065,-1.75503c-1.23734,-1.29254 -3.68428,-1.72464 -5.87003,-2.00269c-0.14318,1.4269 -0.47312,2.85344 -0.72003,4.21642l-0.13109,0.72364c0,0 -0.31015,1.71206 -2.02222,1.40191c-1.71206,-0.31015 -1.40191,-2.02222 -1.40191,-2.02222l0.13109,-0.72364c0.22802,-1.25869 0.66734,-2.75005 0.76636,-4.19115c-0.45965,-0.25691 -0.98704,-0.77919 -0.80309,-1.7946c0.07196,-0.39725 0.2194,-0.68563 0.40342,-0.89426c-0.54133,-1.12187 -1.89351,-1.75595 -2.36961,-2.91234c-0.3964,-0.9628 -0.47068,-2.04257 -0.49975,-3.08337c-0.04502,-1.61169 0.4218,-3.85654 1.12879,-5.7825c-1.36813,-0.24606 -3.7358,-0.6815 -3.97934,-0.81352c-2.80034,-1.51795 -3.85471,-6.34926 -5.1983,-9.03215l-0.60637,-0.44691c0,0 -1.25249,-1.20774 -0.04474,-2.46023c1.20774,-1.25249 2.46023,-0.04474 2.46023,-0.04474l1.30237,1.39364c0.89406,1.78526 1.6672,3.53888 2.44235,5.37476c0.10009,0.23705 0.83964,1.95236 1.31574,2.16337c1.17733,0.52179 2.5492,0.37107 3.81636,0.60062c0,0 0.09461,0.01714 0.23532,0.0656c0.63278,-0.64603 1.43202,-1.17824 1.74385,-2.01014c0.80545,-2.1488 0.95996,-5.00952 0.61861,-7.21565c0,0 -0.24717,-1.72229 1.47512,-1.96945c1.72229,-0.24717 1.96945,1.47512 1.96945,1.47512c0.36816,2.73283 0.26251,6.32078 -0.81814,8.96662c-0.52659,1.28931 -1.78636,2.14145 -2.58518,3.28229c-1.08446,1.54876 -1.71091,4.63341 -1.79683,6.51708c-0.10062,2.206 1.78075,2.67503 2.6265,4.64367c0.15488,0.3605 0.27568,0.72586 0.36753,1.09487c2.99552,0.4437 6.41578,0.95786 8.51087,3.02602c0.65282,0.64442 0.88358,1.60886 1.36845,2.38754c0.18836,0.3025 0.86807,1.24996 1.4716,2.11085c0.71888,-0.93331 1.37565,-1.89672 2.20041,-2.73454c1.77581,-1.80392 4.63293,-2.49514 6.43328,-4.16849c0.42465,-0.39469 0.51212,-1.05236 0.88104,-1.49957c0.32206,-0.3904 0.90923,-0.53871 1.16208,-0.97712c0.86725,-1.50369 0.36706,-3.75549 1.3861,-5.43277c2.09255,-3.4442 5.19046,-6.49026 8.82804,-8.18108c0.44704,-0.76018 0.69815,-1.63883 0.83727,-2.50966l0.19664,-1.08546c0,0 0.31015,-1.71206 2.02222,-1.40191c1.71206,0.31015 1.40191,2.02222 1.40191,2.02222l-0.19664,1.08546c-0.31185,1.5898 -1.0444,3.10207 -1.92094,4.46456c-3.4269,1.81529 -6.06565,4.15402 -8.19843,7.41918c-0.86784,1.32862 -0.58902,3.04085 -0.99915,4.51245c1.1979,0.21752 2.73169,0.49969 2.82915,0.53621c0.82889,0.31059 1.57642,0.80777 2.33954,1.25627c0.68435,0.40221 1.43763,0.73281 1.99931,1.29373c2.28952,2.28643 2.41775,5.76164 2.18208,8.79746c-0.12952,1.66842 -0.78387,3.67756 -0.36984,5.3646c0.36236,1.47655 1.7283,3.21043 2.57202,4.42168l0.47083,1.29224c0,0 0.48825,1.67002 -1.18177,2.15827z" fill="#ffe342" stroke-width="0.5"/></g><g data-paper-data="{&quot;index&quot;:null}" stroke-linejoin="miter"><path d="M222.17577,289.82611c-0.11188,-0.57181 -0.54421,-1.74759 0.90128,-1.91285c1.31675,-0.15053 1.26721,1.47375 1.37909,2.04557c0.11187,0.57181 -0.70142,-0.93778 -1.31678,-0.81738c-0.61536,0.12039 -0.85171,1.25649 -0.96359,0.68467z" data-paper-data="{&quot;origPos&quot;:null}" fill="#000001" stroke="none" stroke-width="0" stroke-linecap="butt"/><path d="M234.27086,293.75104c0.15218,1.3197 -1.4596,-3.68935 -2.0529,-3.88245c0.33072,-1.67084 2.59232,-1.38333 2.48485,-2.60477c-0.11863,-1.34813 4.58102,3.56367 3.34559,6.45749c-0.54337,2.97126 0.54649,6.9816 -3.11923,5.78659c-2.25548,-0.88486 -0.51244,-6.42405 -0.47066,-6.06162z" data-paper-data="{&quot;origPos&quot;:null,&quot;origRot&quot;:0,&quot;index&quot;:null}" fill="#1fff00" stroke="none" stroke-width="0" stroke-linecap="butt"/><g data-paper-data="{&quot;origPos&quot;:null,&quot;origRot&quot;:0,&quot;index&quot;:null}" fill="#ffffff" stroke="none" stroke-width="0" stroke-linecap="butt"><path d="M230.26689,288.53058c-0.80641,-1.37832 -0.70682,-1.84318 -0.21305,-2.68979c0.22575,-0.38704 1.27689,-0.33485 0.98158,-0.22004c-0.30391,0.11817 0.69205,-0.81161 0.69205,-0.81161c0.30971,-0.14113 1.84561,0.03426 1.19608,0.23636c-0.45667,0.1421 0.31047,-0.84177 0.80746,-0.81172c0.898,0.05427 1.74317,0.94161 2.19673,1.71682c0.80641,1.37833 1.35739,2.63248 -1.37031,3.78567c-3.19361,1.35015 -3.48418,0.17265 -4.29059,-1.20566z" data-paper-data="{&quot;origPos&quot;:null,&quot;origRot&quot;:0}"/><path d="M230.115,286.01824c-0.25536,-0.43647 -0.08966,-0.96016 0.37011,-1.16971c0.45978,-0.20956 1.03949,-0.02558 1.29485,0.41087c0.25535,0.43646 0.08967,0.96015 -0.3701,1.1697c-0.45977,0.20955 -1.0395,0.02556 -1.29486,-0.41089z" data-paper-data="{&quot;origPos&quot;:null,&quot;origRot&quot;:0}"/></g><path d="M224.21127,295.20574c-0.16002,-0.31432 5.49124,3.33033 4.09027,5.10627c-2.40756,2.6886 -4.70109,-1.94712 -7.28441,-3.72208c-2.58332,-1.77498 -0.98201,-8.42477 -0.35607,-7.27278c0.5671,1.04373 1.51863,-1.75226 1.987,-0.76632c-0.69937,0.41065 2.78907,8.05262 2.20633,6.90807z" data-paper-data="{&quot;origPos&quot;:null,&quot;origRot&quot;:0}" fill="#1fff00" stroke="none" stroke-width="0" stroke-linecap="butt"/><g data-paper-data="{&quot;origPos&quot;:null,&quot;origRot&quot;:0}" fill="#ffffff" stroke="none" stroke-width="0" stroke-linecap="butt"><path d="M218.52864,288.5959c-0.23117,-1.38601 0.00635,-1.79122 0.70418,-2.47687c0.31904,-0.31345 1.19439,-0.08998 0.90586,-0.03526c-0.29691,0.05632 0.85466,-0.62069 0.85466,-0.62069c0.30941,-0.07621 1.55579,0.34027 0.93779,0.41489c-0.43448,0.05247 0.54063,-0.71195 0.95272,-0.60143c0.7446,0.19972 1.17024,1.14663 1.30026,1.92618c0.23115,1.38603 0.2863,2.61658 -2.40917,3.20622c-3.15587,0.69035 -3.01514,-0.42701 -3.24632,-1.81303z" data-paper-data="{&quot;origPos&quot;:null,&quot;origRot&quot;:0}"/><path d="M219.32174,286.03433c-0.07322,-0.43894 0.23981,-0.88646 0.69913,-0.99962c0.45932,-0.11316 0.89103,0.15092 0.96423,0.58983c0.07322,0.43891 -0.23982,0.88643 -0.69914,0.99959c-0.45932,0.11316 -0.89103,-0.15092 -0.96423,-0.58983z" data-paper-data="{&quot;origPos&quot;:null,&quot;origRot&quot;:0}"/></g><path d="M232.62467,285.97391c4.15479,-0.81286 4.65737,1.82481 5.45653,5.90956c0.73022,3.73238 -4.99674,7.39228 -5.09163,7.41285c-4.74421,1.23447 -6.8533,0.01971 -8.60496,-2.26426c-1.39207,-3.06197 -0.51827,-4.23802 -1.09189,-7.16999c-0.79916,-4.08475 5.17717,-3.0753 9.33195,-3.88816z" data-paper-data="{&quot;origPos&quot;:null}" fill="#ffdebd" stroke="none" stroke-width="0" stroke-linecap="butt"/><path d="M220.14472,288.25203c-0.01664,-0.85245 1.81905,-2.06718 5.04491,-2.13013c3.22586,-0.06293 6.85817,0.31368 6.8748,1.16614c0.01663,0.85245 0.19001,1.62164 -3.03585,1.68459c-3.22585,0.06293 -8.86725,0.13185 -8.88388,-0.72061z" data-paper-data="{&quot;origPos&quot;:null}" fill="#18cd00" stroke="none" stroke-width="0" stroke-linecap="butt"/><path d="M226.55001,306.05633c-0.61794,-6.96287 1.18824,-7.76311 5.49566,-8.16312c4.30743,-0.40003 5.84552,1.47553 6.35056,7.56327c0.57794,6.96635 -0.58785,7.70735 -4.89527,8.10736c-4.30742,0.40002 -6.38869,-1.17213 -6.95094,-7.50753z" data-paper-data="{&quot;origPos&quot;:null,&quot;origRot&quot;:0}" fill="#1fff00" stroke="none" stroke-width="NaN" stroke-linecap="butt"/><path d="M238.60858,304.19342c1.1496,6.25554 3.08478,7.36374 -4.9472,9.62831c-2.23308,0.62959 -5.38659,1.08768 -6.09181,-0.84488c-1.23882,-3.64015 -0.53558,-3.07765 -1.11815,-6.14842c-0.38149,-2.01086 1.92732,-1.22344 3.78181,-1.19029c-0.29572,-2.18594 -0.78457,-5.60183 -1.02762,-7.15897c1.07829,-0.33264 1.45556,-1.34919 1.67937,-0.25717c0.41073,2.00388 1.2136,3.73501 1.87285,6.98796c0,0 1.52712,-0.27876 2.73306,-0.58931c-0.29064,-1.83305 -0.83595,-5.3322 -1.04062,-6.68032c0,0 1.03571,-1.15226 1.5265,0.05712c0.27403,1.45659 1.12285,4.38422 1.58457,6.34496z" data-paper-data="{&quot;origPos&quot;:null,&quot;origRot&quot;:0,&quot;index&quot;:null}" fill="#003aa6" stroke="none" stroke-width="NaN" stroke-linecap="butt"/><g data-paper-data="{&quot;origPos&quot;:null,&quot;origRot&quot;:0}" stroke="none" stroke-width="0" stroke-linecap="butt"><g data-paper-data="{&quot;origPos&quot;:null}"><path d="M235.68378,322.38989c-1.0364,-1.51583 1.19402,-1.92341 3.04657,-3.19004c1.85256,-1.26662 3.15154,-3.483 4.20673,-1.71645c0.51814,0.86743 0.74903,1.19409 -1.08766,2.48329c-4.83129,3.83038 -5.5959,3.25647 -6.16564,2.42318z" data-paper-data="{&quot;origPos&quot;:null}" fill="#8e4108"/><path d="M236.36249,318.02479c-1.37007,-2.00384 -3.17877,-4.70646 -0.01779,-6.94643c2.96427,-2.10058 2.70413,2.16914 4.0742,4.17298c1.37006,2.00384 3.35187,0.38759 -0.18183,2.97104c-3.76207,2.75039 -2.50452,1.80625 -3.87459,-0.19759z" data-paper-data="{&quot;origPos&quot;:null}" fill="#003aa6"/></g><path d="M236.54436,323.19167c-0.30879,-0.44254 -0.25614,-0.33797 -0.08386,-0.4757c1.20086,-0.45066 3.50893,-1.93878 3.50893,-1.93878c2.20546,-1.46819 3.23152,-2.57377 3.23152,-2.57377c0.35576,-0.30416 0.1488,0.24232 0.21848,0.50281c0.06875,0.257 -2.62436,2.23516 -3.0424,2.57414c-0.41949,0.34014 -3.70675,2.09172 -3.83264,1.9113z" data-paper-data="{&quot;origPos&quot;:null,&quot;origRot&quot;:0}" fill="#f9c869"/></g><g data-paper-data="{&quot;origPos&quot;:null,&quot;origRot&quot;:0}" stroke="none" stroke-width="0" stroke-linecap="butt"><path d="M228.31726,322.43424c-0.65693,-1.73634 1.63163,-1.60512 3.75371,-2.40798c2.12208,-0.80284 3.92668,-2.67082 4.54229,-0.68363c0.30228,0.97581 0.45129,1.35179 -1.6606,2.18059c-5.65984,2.61167 -6.27429,1.86553 -6.63541,0.91102z" data-paper-data="{&quot;origPos&quot;:null}" fill="#8e4108"/><path d="M230.24257,318.88338c-0.86841,-2.29538 -3.16612,-7.24954 0.17153,-6.79503c3.41315,-1.35717 3.53626,2.01569 4.40468,4.31108c0.86841,2.29538 2.96525,1.4571 -1.12247,3.15298c-4.35188,1.80548 -2.58532,1.62637 -3.45374,-0.66901z" data-paper-data="{&quot;origPos&quot;:null}" fill="#003aa6"/><path d="M228.84275,323.14035c1.27324,-0.15482 3.86713,-1.05677 3.86713,-1.05677c2.48946,-0.90678 3.74726,-1.73927 3.74726,-1.73927c0.41744,-0.21171 0.08747,0.27056 0.09376,0.54015c0.00622,0.26593 -3.07739,1.55334 -3.56357,1.78419c-0.48787,0.23165 -4.09543,1.15875 -4.17524,0.95373c-0.19573,-0.50284 -0.16923,-0.3888 0.03066,-0.48203z" data-paper-data="{&quot;origPos&quot;:null,&quot;origRot&quot;:0}" fill="#f9c869"/></g><g><path d="M226.72478,295.45959c0.35713,1.82543 3.51439,3.81914 2.28279,4.0601c-4.11015,0.80413 -5.70539,-0.60079 -6.63273,-1.88589c-0.30911,-0.42837 -0.7047,-1.80475 -0.80612,-2.32317c-0.52852,-2.70149 0.45171,-2.65999 2.27939,-2.71997c1.93062,-0.06337 2.51954,1.04349 2.87668,2.86892z" data-paper-data="{&quot;origPos&quot;:null}" fill="#ffdebd" stroke="none" stroke-width="0" stroke-linecap="butt"/><path d="M238.65875,294.63227c-0.59354,0.41209 -10.25413,4.02491 -12.02591,3.37012c-1.03714,-0.38329 0.71821,-5.33119 -0.55981,-3.80458c1.08832,1.05605 -1.84066,-1.273 -2.15259,-3.64709c-0.88514,-6.73693 7.22442,-2.15341 7.42333,-2.49734c0.4771,-0.82492 4.74673,-1.53581 5.49835,-0.94999c1.77274,1.38169 -0.73626,7.00496 1.10996,5.72311c0.59354,-0.4121 0.82571,-0.8345 1.13834,-0.38423c0.31262,0.45028 0.16188,1.7779 -0.43166,2.19z" data-paper-data="{&quot;origRot&quot;:0,&quot;origPos&quot;:null}" fill="#594537" stroke="none" stroke-width="0" stroke-linecap="butt"/><path d="M222.14926,286.51649c-1.21367,-1.64972 -3.03668,-4.4942 2.50906,-6.09206c5.7824,0.03029 10.92246,4.65715 8.48568,4.99204c-0.79168,-1.51325 5.52961,-3.22874 4.62582,0.73727c1.02354,2.96258 -7.36274,2.47505 -7.5656,2.47901c-4.04682,0.07896 -8.05893,0.76652 -8.09585,-1.12626z" data-paper-data="{&quot;origPos&quot;:null}" fill="#1fff00" stroke="none" stroke-width="0" stroke-linecap="butt"/><path d="M223.80329,289.07673c1.02229,-0.2 2.0765,0.7903 2.35463,2.21193c0.27812,1.42161 -0.32514,2.73621 -1.34743,2.93622c-0.52381,0.10248 -1.53007,0.25278 -1.84697,-0.17672c-0.4609,-0.62469 -0.34296,-1.19342 -0.50765,-2.03522c-0.27814,-1.42162 0.32513,-2.7362 1.34742,-2.93621z" data-paper-data="{&quot;origPos&quot;:null}" fill="#ffdec6" stroke="none" stroke-width="0" stroke-linecap="butt"/><path d="M225.41914,292.42417c0,0 -0.31536,0.54258 -0.59045,0.71199c-0.22695,0.13975 -0.69597,0.08022 -0.69597,0.08022" data-paper-data="{&quot;origPos&quot;:null}" fill="none" stroke="#f6b09a" stroke-width="0.5" stroke-linecap="round"/></g></g><g><path d="M424.72867,41.86071c-1.88284,-0.29546 -4.05469,-1.35181 -4.79281,-3.1322c-0.51603,-1.32348 0.91234,-2.91325 1.95521,-3.89112c1.88144,-1.76242 4.16854,-2.98273 6.60136,-4.04623c2.16048,-0.94109 4.50624,-1.74291 6.87108,-1.69617c1.3367,0.02705 2.55005,1.02328 3.37688,2.17859c0.96891,1.37582 1.91921,3.48872 1.08534,4.95643c-1.31366,2.3109 -3.87752,3.87263 -6.32419,4.8538c-2.77823,0.9676 -5.92609,1.2254 -8.77289,0.7769z" data-paper-data="{&quot;index&quot;:null}" fill="#d73a54" stroke="none" stroke-width="1" stroke-linecap="round" stroke-linejoin="miter"/><path d="M430.2016,37.00086c-5.00611,2.30544 -9.65456,2.89282 -10.38259,1.31194c-0.72804,-1.58087 2.74003,-4.73136 7.74614,-7.03681c5.00611,-2.30544 9.65456,-2.89282 10.38259,-1.31194c0.72804,1.58087 -2.74003,4.73136 -7.74614,7.03681z" fill="#e3566e" stroke="none" stroke-width="0" stroke-linecap="butt" stroke-linejoin="miter"/><path d="M426.97774,27.66111c-1.72094,-0.3173 -3.51654,-1.07583 -4.68942,-2.37163c-0.82846,-0.9141 -1.0253,-2.43583 -0.73243,-3.63499c0.29364,-1.20164 1.17135,-2.34232 2.23985,-2.96664c1.22295,-0.71428 2.75439,-0.9893 4.17716,-0.92139c2.10557,0.10065 4.57481,0.05668 6.21157,1.37828c1.10502,0.8802 0.71742,2.74347 0.6544,4.13556c-0.06524,1.41867 0.20764,3.45254 -1.05582,4.14247c-1.96606,1.10986 -4.56643,0.65111 -6.80535,0.23832z" data-paper-data="{&quot;index&quot;:null}" fill="#f3b6ee" stroke="none" stroke-width="1" stroke-linecap="round" stroke-linejoin="miter"/><path d="M437.23931,8.70504c4.19784,-2.02125 8.82911,-2.13446 12.92022,-0.68468c4.0911,1.44978 7.64201,4.46258 9.67911,8.69334c2.03711,4.23077 2.17808,8.88544 0.76028,12.98776c-1.41778,4.10229 -4.3943,7.6522 -8.59214,9.67345c-4.19783,2.02123 -8.82911,2.13446 -12.92022,0.68468c-4.09109,-1.44979 -7.64201,-4.46258 -9.67911,-8.69334c-2.03711,-4.23077 -2.17806,-8.88545 -0.76027,-12.98776c1.41778,-4.10229 4.3943,-7.65222 8.59214,-9.67345z" data-paper-data="{&quot;index&quot;:null}" fill="#ffc0fa" stroke="none" stroke-width="0.98039" stroke-linecap="butt" stroke-linejoin="miter"/><path d="M459.89738,20.22455c0.2057,-0.09904 0.43802,-0.09335 0.64732,-0.00399c0.20924,0.08923 0.39531,0.26202 0.50849,0.4971c0.11318,0.23505 0.13225,0.48827 0.07151,0.70748c-0.06067,0.21934 -0.20108,0.40453 -0.40681,0.50358c-0.2057,0.09904 -0.43802,0.09336 -0.64734,0.004c-0.20924,-0.08923 -0.39533,-0.26202 -0.50849,-0.49709c-0.11318,-0.23505 -0.13223,-0.48827 -0.07151,-0.70751c0.06068,-0.21934 0.20109,-0.40451 0.40681,-0.50356z" data-paper-data="{&quot;index&quot;:null}" fill="#1a0006" stroke="none" stroke-width="1" stroke-linecap="butt" stroke-linejoin="miter"/><path d="M451.38244,21.65101c0.64562,-0.31598 1.30522,-0.44498 1.8493,-0.39838c0.54412,0.04675 0.97275,0.26924 1.15642,0.65643c0.18369,0.38718 0.08794,0.86631 -0.21511,1.32768c-0.30312,0.46125 -0.81348,0.90484 -1.4591,1.22082c-0.64562,0.31598 -1.30522,0.44498 -1.84928,0.39838c-0.54412,-0.04672 -0.97275,-0.26924 -1.15644,-0.6564c-0.18369,-0.38718 -0.08794,-0.86631 0.21512,-1.32768c0.30311,-0.46124 0.81347,-0.90483 1.45908,-1.22082z" data-paper-data="{&quot;index&quot;:null}" fill="#ec65a4" stroke="none" stroke-width="1" stroke-linecap="butt" stroke-linejoin="miter"/><path d="M455.15752,10.11988c0.88388,0.73799 1.74983,1.66807 2.54617,2.6562c0.79625,0.99164 1.50298,2.12784 2.16271,3.24786c0.27471,0.46095 0.60631,1.05952 0.56399,1.46684c-0.03465,0.33116 -0.44092,0.45023 -0.71947,0.21706c-1.07257,-0.99154 -2.00913,-2.37072 -2.93253,-3.52746c-0.7695,-0.96269 -1.68128,-2.14793 -2.20661,-2.97834c-0.52529,-0.83025 -0.83188,-1.35688 -0.69523,-1.60826c0.1433,-0.26371 0.85075,0.17124 1.28097,0.52611z" data-paper-data="{&quot;index&quot;:null}" fill="#0d101a" stroke="url(#color-2)" stroke-width="0" stroke-linecap="round" stroke-linejoin="round"/><path d="M454.84272,10.07677c0.27605,0.20803 0.62385,0.55113 0.97777,0.9798c0.35392,0.42869 0.64757,0.86255 0.83612,1.21726c0.18844,0.35462 0.27177,0.63009 0.20509,0.74185c-0.06668,0.11176 -0.2709,0.03895 -0.54685,-0.16897c-0.27607,-0.20803 -0.62387,-0.55113 -0.97779,-0.97982c-0.3539,-0.42867 -0.64757,-0.86255 -0.83612,-1.21726c-0.18844,-0.35462 -0.27176,-0.63008 -0.20509,-0.74184c0.06668,-0.11176 0.2709,-0.03895 0.54686,0.16897z" data-paper-data="{&quot;index&quot;:null}" fill="#ffffff" stroke="none" stroke-width="1.01342" stroke-linecap="butt" stroke-linejoin="miter"/><path d="M452.69238,12.06766c0.9333,0.55317 1.99925,1.49781 2.97557,2.70227c0.97634,1.20449 1.67988,2.44287 2.0279,3.47045c0.3479,1.02767 0.34032,1.84454 -0.10575,2.2061c-0.44607,0.36156 -1.2468,0.19992 -2.18022,-0.35318c-0.9333,-0.55316 -1.99925,-1.49781 -2.97557,-2.70227c-0.97634,-1.20449 -1.67986,-2.44285 -2.0279,-3.47045c-0.34792,-1.02768 -0.34032,-1.84454 0.10573,-2.2061c0.44607,-0.36155 1.2468,-0.19992 2.18022,0.35318z" data-paper-data="{&quot;index&quot;:null}" fill="#0d101a" stroke="url(#color-3)" stroke-width="0" stroke-linecap="round" stroke-linejoin="round"/><path d="M451.05169,12.17026c0.20508,-0.18139 0.54768,-0.16857 0.93543,-0.00147c0.38784,0.16723 0.82072,0.48883 1.20657,0.92511c0.38586,0.43624 0.65219,0.90518 0.77078,1.31052c0.11849,0.40527 0.08935,0.74686 -0.11573,0.92825c-0.20508,0.18139 -0.54768,0.16859 -0.93543,0.00148c-0.38786,-0.16721 -0.82072,-0.48883 -1.20657,-0.92511c-0.38586,-0.43626 -0.65219,-0.90518 -0.77078,-1.31055c-0.11849,-0.40525 -0.08935,-0.74684 0.11573,-0.92823z" data-paper-data="{&quot;index&quot;:null}" fill="#ffffff" stroke="none" stroke-width="1.06713" stroke-linecap="butt" stroke-linejoin="miter"/><path d="M453.48521,43.87098c-0.53683,2.89251 -1.87333,5.7542 -3.67402,8.0043c-1.18993,1.48877 -3.18397,2.85137 -5.09609,2.60987c-1.40525,-0.20788 -2.07788,-2.23647 -2.41022,-3.62692c-0.59802,-2.50767 -0.52411,-5.09888 -0.2418,-7.73897c0.25361,-2.34286 0.72006,-4.77761 1.93289,-6.80828c0.68609,-1.1475 2.15277,-1.70745 3.56603,-1.85285c1.67518,-0.15949 3.98127,0.06255 4.84263,1.51431c1.35581,2.28643 1.44126,5.28727 1.08057,7.89854z" data-paper-data="{&quot;index&quot;:null}" fill="#e33e59" stroke="none" stroke-width="1" stroke-linecap="round" stroke-linejoin="miter"/><path d="M456.69229,23.61384c0.97146,-1.4956 2.98773,-2.05091 4.70023,-2.57085c1.21192,-0.36749 2.61033,-0.35054 3.80367,0.10695c1.38892,0.53314 2.83994,1.488 3.45558,2.83857c0.55553,1.24043 0.27909,2.84252 -0.27191,4.0999c-0.56834,1.17692 -1.68823,2.14482 -2.86302,2.72608c-1.44893,0.71704 -3.23708,1.55877 -4.73844,0.96565c-1.73394,-0.63433 -2.84791,-2.50795 -3.65788,-4.1513c-0.59455,-1.20584 -1.15925,-2.88608 -0.42823,-4.015z" data-paper-data="{&quot;index&quot;:null}" fill="#ffc2fa" stroke="none" stroke-width="1" stroke-linecap="round" stroke-linejoin="miter"/><path d="M447.86671,45.24332c0,5.05563 -1.34374,9.15402 -3.00132,9.15402c-1.65758,0 -3.00132,-4.09839 -3.00132,-9.15402c0,-5.05563 1.34374,-9.15402 3.00132,-9.15402c1.65758,0 3.00132,4.09839 3.00132,9.15402z" fill="#ef5a73" stroke="none" stroke-width="0" stroke-linecap="butt" stroke-linejoin="miter"/></g><g stroke-linejoin="miter"><g><g><g stroke="none" stroke-linecap="butt"><path d="M208.2197,277.13021c-1.38234,3.83849 -5.6838,5.80466 -9.60756,4.39161c-3.92377,-1.41307 -5.984,-5.67028 -4.60167,-9.50873c1.38234,-3.83849 5.6838,-5.80466 9.60756,-4.39161c3.92377,1.41307 5.984,5.67028 4.60167,9.50873z" fill="url(#color-4)" stroke-width="0"/><g><g stroke-width="0"><path d="M204.50507,279.63101c-0.43005,1.19419 -2.29997,1.61442 -4.17656,0.93861c-1.87658,-0.67581 -3.04924,-2.19174 -2.61917,-3.38593c0.43005,-1.19419 2.29997,-1.61442 4.17656,-0.93861c1.87658,0.67581 3.04924,2.19174 2.61917,3.38593z" fill="#000000"/><path d="M205.28141,277.72666c-0.11739,0.32599 -0.42126,1.68253 -0.42126,1.68253c0,0 -1.49071,-1.50628 -1.95822,-1.7502c-0.56988,-0.29735 -1.66312,0.2664 -1.66312,0.2664c0,0 -0.56707,-1.059 -1.33492,-1.28937c-0.47918,-0.14377 -2.40241,0.01989 -2.40241,0.01989c0,0 0.63347,-1.1385 0.74963,-1.46108c0.29131,-0.8089 2.10124,-0.89788 4.04261,-0.19874c1.94137,0.69913 3.27899,1.92164 2.98769,2.73055z" data-paper-data="{&quot;index&quot;:null}" fill="#ffffff"/><path d="M202.26387,280.59328c-0.12288,0.34119 -0.98313,0.34386 -1.9214,0.00595c-0.93829,-0.33791 -1.59933,-0.88842 -1.47644,-1.22963c0.12288,-0.34119 0.98313,-0.34386 1.9214,-0.00595c0.93829,0.33791 1.59933,0.88842 1.47644,1.22963z" fill="#e49292"/></g><g><path d="M206.50409,274.32966c-0.4476,1.1849 -1.13485,2.01611 -1.53498,1.85657c-0.40016,-0.15956 -0.3617,-1.24946 0.08588,-2.43436c0.4476,-1.1849 1.13484,-2.01614 1.53501,-1.85659c0.40016,0.15956 0.3617,1.24946 -0.08588,2.43436z" fill="url(#color-5)" stroke-width="NaN"/><path d="M201.81714,272.54727c-0.4476,1.1849 -1.13485,2.01611 -1.53498,1.85657c-0.40016,-0.15956 -0.3617,-1.24946 0.08588,-2.43436c0.4476,-1.1849 1.13484,-2.01614 1.53501,-1.85659c0.40016,0.15956 0.3617,1.24946 -0.08588,2.43436z" fill="url(#color-6)" stroke-width="NaN"/></g></g></g><path d="M202.7704,270.82925l-1.92691,-1.83569" fill="none" stroke="#000000" stroke-width="0.5" stroke-linecap="round"/><path d="M207.83762,271.72683l-2.65485,0.18567" data-paper-data="{&quot;index&quot;:null}" fill="none" stroke="#000000" stroke-width="0.5" stroke-linecap="round"/></g><g stroke="none" stroke-width="0" stroke-linecap="butt"><path d="M200.81619,267.80262l1.29699,-3.60147l1.04398,1.72557l2.12883,-1.17346l0.92464,2.22634l1.84152,-0.63964l-1.29699,3.60147z" fill="#f1c827"/><path d="M204.88299,267.446c-0.19384,0.53824 -0.59024,0.88841 -0.88543,0.78211c-0.29516,-0.1063 -0.37731,-0.6288 -0.18347,-1.16704c0.19384,-0.53824 0.59024,-0.88841 0.88543,-0.78211c0.29516,0.1063 0.37731,0.6288 0.18347,1.16704z" fill="#8920c5"/></g></g><path d="M195.75149,271.60147c0.50938,0.98564 -1.31373,3.64797 -1.31373,3.64797c0,0 -3.17201,0.03279 -3.91821,-1.41106c-0.7462,-1.44385 1.8073,-0.54411 2.70862,-0.92946c0.83807,-0.35833 2.01396,-2.29311 2.52334,-1.30748z" data-paper-data="{&quot;index&quot;:null}" fill="url(#color-7)" stroke="none" stroke-width="NaN" stroke-linecap="butt"/></g></g></g></svg>