<svg version="1.1" xmlns="http://www.w3.org/2000/svg" xmlns:xlink="http://www.w3.org/1999/xlink" width="474.99366" height="364.75459" viewBox="0,0,474.99366,364.75459"><defs><linearGradient x1="369.5574" y1="5.37899" x2="369.5574" y2="40.41686" gradientUnits="userSpaceOnUse" id="color-1"><stop offset="0" stop-color="#2850ff"/><stop offset="1" stop-color="#5e1e9f"/></linearGradient><linearGradient x1="421.51618" y1="4.24981" x2="421.51618" y2="39.28768" gradientUnits="userSpaceOnUse" id="color-2"><stop offset="0" stop-color="#3398ff"/><stop offset="1" stop-color="#a843ff"/></linearGradient><linearGradient x1="452.37406" y1="12.3169" x2="452.37406" y2="33.72104" gradientUnits="userSpaceOnUse" id="color-3"><stop offset="0" stop-color="#79aaff"/><stop offset="1" stop-color="#aa79ff"/></linearGradient><linearGradient x1="466.75594" y1="11.5814" x2="460.78757" y2="14.50708" gradientUnits="userSpaceOnUse" id="color-4"><stop offset="0" stop-color="#5480ff"/><stop offset="1" stop-color="#5480ff" stop-opacity="0"/></linearGradient><linearGradient x1="453.46414" y1="5.96489" x2="453.46414" y2="14.6024" gradientUnits="userSpaceOnUse" id="color-5"><stop offset="0" stop-color="#3a92ff"/><stop offset="1" stop-color="#76b3ff"/></linearGradient><linearGradient x1="440.72617" y1="33.66575" x2="440.7012" y2="30.05969" gradientUnits="userSpaceOnUse" id="color-6"><stop offset="0" stop-color="#964fff"/><stop offset="1" stop-color="#964fff" stop-opacity="0"/></linearGradient><linearGradient x1="458.8117" y1="26.06344" x2="458.8117" y2="38.89521" gradientUnits="userSpaceOnUse" id="color-7"><stop offset="0" stop-color="#5b53cc"/><stop offset="1" stop-color="#a544ff"/></linearGradient><linearGradient x1="355.20993" y1="29.67133" x2="355.20993" y2="36.83226" gradientUnits="userSpaceOnUse" id="color-8"><stop offset="0" stop-color="#6b25c2"/><stop offset="1" stop-color="#2e1284"/></linearGradient><linearGradient x1="354.60008" y1="29.20124" x2="354.60008" y2="36.36216" gradientUnits="userSpaceOnUse" id="color-9"><stop offset="0" stop-color="#d153ff"/><stop offset="1" stop-color="#7838fe"/></linearGradient><linearGradient x1="401.1391" y1="16.37912" x2="401.1391" y2="26.13925" gradientUnits="userSpaceOnUse" id="color-10"><stop offset="0" stop-color="#ffffff"/><stop offset="1" stop-color="#93d9ff"/></linearGradient><linearGradient x1="362.5662" y1="13.38127" x2="362.5662" y2="26.47026" gradientUnits="userSpaceOnUse" id="color-11"><stop offset="0" stop-color="#ffffff"/><stop offset="1" stop-color="#93d9ff"/></linearGradient><linearGradient x1="374.83162" y1="13.93765" x2="374.83162" y2="26.46566" gradientUnits="userSpaceOnUse" id="color-12"><stop offset="0" stop-color="#ffffff"/><stop offset="1" stop-color="#93d9ff"/></linearGradient><linearGradient x1="385.83915" y1="13.61044" x2="385.83915" y2="26.47026" gradientUnits="userSpaceOnUse" id="color-13"><stop offset="0" stop-color="#ffffff"/><stop offset="1" stop-color="#93d9ff"/></linearGradient><linearGradient x1="393.33672" y1="14.58604" x2="393.33672" y2="26.2626" gradientUnits="userSpaceOnUse" id="color-14"><stop offset="0" stop-color="#ffffff"/><stop offset="1" stop-color="#93d9ff"/></linearGradient><linearGradient x1="400.92686" y1="15.01207" x2="400.92686" y2="26.13924" gradientUnits="userSpaceOnUse" id="color-15"><stop offset="0" stop-color="#ffffff"/><stop offset="1" stop-color="#cccccc"/></linearGradient><linearGradient x1="412.69457" y1="13.38745" x2="412.69457" y2="26.24727" gradientUnits="userSpaceOnUse" id="color-16"><stop offset="0" stop-color="#ffffff"/><stop offset="1" stop-color="#93d9ff"/></linearGradient><linearGradient x1="423.13162" y1="13.59589" x2="423.13162" y2="26.1239" gradientUnits="userSpaceOnUse" id="color-17"><stop offset="0" stop-color="#ffffff"/><stop offset="1" stop-color="#93d9ff"/></linearGradient><linearGradient x1="434.534" y1="13.3826" x2="434.534" y2="26.24241" gradientUnits="userSpaceOnUse" id="color-18"><stop offset="0" stop-color="#ffffff"/><stop offset="1" stop-color="#93d9ff"/></linearGradient><linearGradient x1="445.89164" y1="13.67316" x2="445.89164" y2="26.48676" gradientUnits="userSpaceOnUse" id="color-19"><stop offset="0" stop-color="#ffffff"/><stop offset="1" stop-color="#93d9ff"/></linearGradient><linearGradient x1="362.62979" y1="13.89088" x2="362.62979" y2="26.47026" gradientUnits="userSpaceOnUse" id="color-20"><stop offset="0" stop-color="#ffffff"/><stop offset="1" stop-color="#cccccc"/></linearGradient><linearGradient x1="375.07384" y1="13.93765" x2="375.07384" y2="26.46566" gradientUnits="userSpaceOnUse" id="color-21"><stop offset="0" stop-color="#ffffff"/><stop offset="1" stop-color="#cccccc"/></linearGradient><linearGradient x1="386.29687" y1="13.61045" x2="386.29687" y2="26.47026" gradientUnits="userSpaceOnUse" id="color-22"><stop offset="0" stop-color="#ffffff"/><stop offset="1" stop-color="#cccccc"/></linearGradient><linearGradient x1="393.00338" y1="14.58603" x2="393.00338" y2="26.2626" gradientUnits="userSpaceOnUse" id="color-23"><stop offset="0" stop-color="#ffffff"/><stop offset="1" stop-color="#cccccc"/></linearGradient><linearGradient x1="412.36123" y1="13.38745" x2="412.36123" y2="26.24727" gradientUnits="userSpaceOnUse" id="color-24"><stop offset="0" stop-color="#ffffff"/><stop offset="1" stop-color="#cccccc"/></linearGradient><linearGradient x1="423.0405" y1="13.59589" x2="423.0405" y2="26.1239" gradientUnits="userSpaceOnUse" id="color-25"><stop offset="0" stop-color="#ffffff"/><stop offset="1" stop-color="#cccccc"/></linearGradient><linearGradient x1="434.65837" y1="13.3826" x2="434.65837" y2="26.24242" gradientUnits="userSpaceOnUse" id="color-26"><stop offset="0" stop-color="#ffffff"/><stop offset="1" stop-color="#cccccc"/></linearGradient><linearGradient x1="445.61482" y1="13.67316" x2="445.61482" y2="26.48676" gradientUnits="userSpaceOnUse" id="color-27"><stop offset="0" stop-color="#ffffff"/><stop offset="1" stop-color="#cccccc"/></linearGradient></defs><g transform="translate(-2.64944,-2.25)"><g data-paper-data="{&quot;isPaintingLayer&quot;:true}" fill-rule="nonzero" stroke-linejoin="miter" stroke-miterlimit="10" stroke-dasharray="" stroke-dashoffset="0" style="mix-blend-mode: normal"><g><g data-paper-data="{&quot;origPos&quot;:null}" stroke="none"><path d="M475.58194,12.03912c0.12527,0.52745 0.17583,1.0629 0.14021,1.60412c-0.22638,3.43117 -3.39898,5.40183 -6.12576,6.84623c-1.03303,0.5481 -2.07753,1.07438 -3.11976,1.60181c-1.09966,0.55616 -2.20164,1.10772 -3.3013,1.66042c-0.05287,0.02528 -0.10573,0.05747 -0.15972,0.08734l-5.97638,2.97153l6.13953,-2.6291c0.2057,0.42746 0.36314,0.78251 0.54927,1.21802c0.33323,0.78368 0.63659,1.57999 0.8871,2.39583c0.1804,0.58949 0.33092,1.18586 0.43663,1.79372c0.08503,0.48952 0.13444,0.98133 0.15744,1.47657c0.01839,0.36425 0.01034,0.72621 -0.01954,1.08932c-0.10111,1.27895 -0.50101,2.44984 -1.28237,3.47944c-0.39184,0.51709 -0.84458,0.97211 -1.34558,1.38002c-0.83423,0.67912 -1.75925,1.20654 -2.74169,1.63514c-0.78023,0.33783 -1.58459,0.59754 -2.40274,0.82161c-0.90087,0.24703 -1.81439,0.45159 -2.73712,0.6044c-0.58603,0.09768 -1.17435,0.17351 -1.76727,0.22984c-0.00231,0.00114 -0.00691,0.00229 -0.01034,0.00229c-0.00231,0 -0.0046,0.00114 -0.00919,0.00229c-0.81127,0.07586 -1.62594,0.10802 -2.44064,0.10688c-0.5711,-0.00231 -1.1445,-0.01954 -1.71443,-0.05975c-0.75152,-0.05401 -1.50187,-0.13559 -2.24645,-0.25626c-1.01581,-0.16546 -2.01896,-0.39298 -2.99566,-0.72162c-0.64236,-0.21487 -1.26744,-0.47227 -1.86381,-0.79631c-0.83883,-0.45733 -1.58804,-1.02615 -2.21543,-1.75119c-0.68257,-0.78599 -1.16058,-1.68112 -1.41798,-2.69002c-0.13559,-0.52971 -0.19879,-1.06979 -0.19302,-1.61789c0.01722,-1.68112 0.78515,-3.32214 1.92125,-4.48257c1.75557,-1.7935 3.71502,-2.64608 6.41706,-4.12979l8.10444,-4.33493l4.27172,-2.11718l1.44783,-0.72393c0.75726,-0.38147 1.5145,-0.74918 2.26945,-1.13068c1.11346,-0.56421 2.23266,-1.1192 3.32661,-1.71788c0.54579,-0.29762 1.08701,-0.60211 1.59835,-0.95602c0.36311,-0.25166 0.70668,-0.52514 0.99396,-0.86411c0.78023,-0.92041 0.88479,-2.1396 0.22981,-3.16686c-0.27231,-0.42632 -0.64807,-0.79288 -1.05485,-1.09392c-1.91667,-1.35018 -4.39982,-1.28928 -6.51297,-0.42403c-0.53779,0.21947 -1.04222,0.49986 -1.48576,0.87676c-0.65615,0.55845 -1.0813,1.25478 -1.24333,2.10396c-0.31255,1.65239 0.46653,3.29901 1.05602,4.80086c0.18271,0.46767 0.65248,1.29647 0.53776,1.35592l-0.28268,0.13559l-5.27715,2.63829c-0.46313,0.16394 -0.26972,0.23228 -0.65956,-0.53374l-1.12554,-2.29184c-0.20562,-0.47189 -0.35851,-0.96639 -0.49295,-1.46509c-0.14478,-0.53202 -0.23786,-1.0721 -0.26086,-1.6248c-0.13559,-3.2588 2.44296,-5.50179 5.20303,-6.64513c1.36283,-0.5619 2.78998,-0.97213 4.2493,-1.18127c0.42403,-0.05975 0.84917,-0.10342 1.27549,-0.13099c1.72134,-0.11148 3.46219,0.00114 5.15134,0.34817c0.46882,0.09765 0.93535,0.21256 1.39614,0.347c0.65267,0.19191 1.29271,0.42977 1.90631,0.72393c1.04682,0.49986 1.98563,1.15367 2.82329,1.95689c0.38264,0.36656 0.73772,0.75609 1.04453,1.18815c0.44582,0.62396 0.76872,1.30651 0.94797,2.05454M457.61954,29.16733c-0.25394,-0.74804 -0.54236,-1.4961 -0.84229,-2.22577c-0.08503,0.03448 -0.08158,0.03219 -0.13904,0.05975c-1.73625,0.83538 -3.47022,1.66733 -5.20303,2.50731c-1.19275,0.57912 -2.37629,1.17435 -3.52537,1.83967c-0.61131,0.35163 -1.20883,0.72507 -1.76155,1.16401c-0.65613,0.51939 -1.33981,1.15139 -1.534,1.99942c-0.20913,0.89973 0,1.69258 0.62739,2.37284c0.86297,0.9342 2.20278,1.39268 3.42426,1.60986c1.94309,0.34588 4.04017,0.16663 5.78333,-0.80779c0.22176,-0.12296 0.42286,-0.262 0.63773,-0.39415c0.5102,-0.31715 1.00087,-0.73769 1.41339,-1.17321c1.03531,-1.10198 1.63743,-2.54407 1.67304,-4.0551c0.00574,-0.2482 -0.00688,-0.4964 -0.03216,-0.74115c-0.07815,-0.74115 -0.28268,-1.45243 -0.52168,-2.15568M465.40339,23.77641zM466.49329,23.77641zM439.39395,24.29926zM439.06242,21.99363zM445.53811,22.6802zM457.00248,19.64719z" data-paper-data="{&quot;origPos&quot;:null}" fill="url(#color-1)" stroke-width="0.04223" stroke-linecap="butt"/><path d="M474.45277,10.90994c0.12527,0.52745 0.17583,1.0629 0.14021,1.60412c-0.22638,3.43117 -3.39898,5.40183 -6.12576,6.84623c-1.03303,0.5481 -2.07753,1.07438 -3.11976,1.60181c-1.09966,0.55616 -2.20164,1.10772 -3.3013,1.66042c-0.05287,0.02528 -0.10573,0.05747 -0.15972,0.08734l-6.28346,3.09947l0.19228,0.31426l6.25432,-3.0713c0.2057,0.42746 0.36314,0.78251 0.54927,1.21802c0.33323,0.78368 0.63659,1.57999 0.8871,2.39583c0.1804,0.58949 0.33092,1.18586 0.43663,1.79372c0.08503,0.48952 0.13444,0.98133 0.15744,1.47657c0.01839,0.36425 0.01034,0.72621 -0.01954,1.08932c-0.10111,1.27895 -0.50101,2.44984 -1.28237,3.47944c-0.39184,0.51709 -0.84458,0.97211 -1.34558,1.38002c-0.83423,0.67912 -1.75925,1.20654 -2.74169,1.63514c-0.78023,0.33783 -1.58459,0.59754 -2.40274,0.82161c-0.90087,0.24703 -1.81439,0.45159 -2.73712,0.6044c-0.58603,0.09768 -1.17435,0.17351 -1.76727,0.22984c-0.00231,0.00114 -0.00691,0.00229 -0.01034,0.00229c-0.00231,0 -0.0046,0.00114 -0.00919,0.00229c-0.81127,0.07586 -1.62594,0.10802 -2.44064,0.10688c-0.5711,-0.00231 -1.1445,-0.01954 -1.71443,-0.05975c-0.75152,-0.05401 -1.50187,-0.13559 -2.24645,-0.25626c-1.01581,-0.16546 -2.01896,-0.39298 -2.99566,-0.72162c-0.64236,-0.21487 -1.26744,-0.47227 -1.86381,-0.79631c-0.83883,-0.45733 -1.58804,-1.02615 -2.21543,-1.75119c-0.68257,-0.78599 -1.16058,-1.68112 -1.41798,-2.69002c-0.13559,-0.52971 -0.19879,-1.06979 -0.19302,-1.61789c0.01722,-1.68112 0.78515,-3.32214 1.92125,-4.48257c1.75557,-1.7935 3.71502,-2.64608 6.41706,-4.12979l8.10444,-4.33493l4.27172,-2.11718l1.44783,-0.72393c0.75726,-0.38147 1.5145,-0.74918 2.26945,-1.13068c1.11346,-0.56421 2.23266,-1.1192 3.32661,-1.71788c0.54579,-0.29762 1.08701,-0.60211 1.59835,-0.95602c0.36311,-0.25166 0.70668,-0.52514 0.99396,-0.86411c0.78023,-0.92041 0.88479,-2.1396 0.22981,-3.16686c-0.27231,-0.42632 -0.64807,-0.79288 -1.05485,-1.09392c-1.91667,-1.35018 -4.39982,-1.28928 -6.51297,-0.42403c-0.53779,0.21947 -1.04222,0.49986 -1.48576,0.87676c-0.65615,0.55845 -1.0813,1.25478 -1.24333,2.10396c-0.31255,1.65239 0.46653,3.29901 1.05602,4.80086c0.18271,0.46767 0.65248,1.29647 0.53776,1.35592l-0.28268,0.13559l-5.27715,2.63829c-0.46313,0.16394 -0.26972,0.23228 -0.65956,-0.53374l-1.12554,-2.29184c-0.20562,-0.47189 -0.35851,-0.96639 -0.49295,-1.46509c-0.14478,-0.53202 -0.23786,-1.0721 -0.26086,-1.6248c-0.13559,-3.2588 2.44296,-5.50179 5.20303,-6.64513c1.36283,-0.5619 2.78998,-0.97213 4.2493,-1.18127c0.42403,-0.05975 0.84917,-0.10342 1.27549,-0.13099c1.72134,-0.11148 3.46219,0.00114 5.15134,0.34817c0.46882,0.09765 0.93535,0.21256 1.39614,0.347c0.65267,0.19191 1.29271,0.42977 1.90631,0.72393c1.04682,0.49986 1.98563,1.15367 2.82329,1.95689c0.38264,0.36656 0.73772,0.75609 1.04453,1.18815c0.44582,0.62396 0.76872,1.30651 0.94797,2.05454M456.49033,28.03814c-0.25394,-0.74804 -0.54236,-1.4961 -0.84229,-2.22577c-0.08503,0.03448 -0.08158,0.03219 -0.13904,0.05975c-1.73625,0.83538 -3.47022,1.66733 -5.20303,2.50731c-1.19275,0.57912 -2.37629,1.17435 -3.52537,1.83967c-0.61131,0.35163 -1.20883,0.72507 -1.76155,1.16401c-0.65613,0.51939 -1.33981,1.15139 -1.534,1.99942c-0.20913,0.89973 0,1.69258 0.62739,2.37284c0.86297,0.9342 2.20278,1.39268 3.42426,1.60986c1.94309,0.34588 4.04017,0.16663 5.78333,-0.80779c0.22176,-0.12296 0.42286,-0.262 0.63773,-0.39415c0.5102,-0.31715 1.00087,-0.73769 1.41339,-1.17321c1.03531,-1.10198 1.63743,-2.54407 1.67304,-4.0551c0.00574,-0.2482 -0.00688,-0.4964 -0.03216,-0.74115c-0.07815,-0.74115 -0.28268,-1.45243 -0.52168,-2.15568M465.3641,22.64723zM438.26477,23.17008zM437.93325,20.86445zM444.40892,21.55102zM455.8733,18.518z" data-paper-data="{&quot;origPos&quot;:null}" fill="url(#color-2)" stroke-width="0.04223" stroke-linecap="butt"/><path d="M438.81421,33.71007c-0.68628,0.08325 -1.40098,0.26872 -1.76932,-0.11175c-0.63229,-1.8635 -0.52235,-4.00966 0.64503,-5.59386c1.30862,-1.77588 2.39541,-2.66552 8.39521,-5.73969c6.73496,-3.69559 13.31781,-7.11429 13.51509,-7.07776c0.08474,0.01569 2.98526,-1.43268 4.59177,-2.26187c0.5062,-0.19549 1.63664,-0.70637 2.20894,-0.59165c1.83084,0.36698 2.09004,2.38573 0.80555,3.44623c-0.36375,0.30031 -4.8187,2.2733 -6.43953,3.08372c-3.3089,1.65445 -13.72954,7.44437 -15.76063,8.25898c-0.83735,0.33583 -3.44661,1.88337 -3.97933,2.67783c-0.50126,0.74753 -0.38576,3.22836 -0.86056,3.49968z" data-paper-data="{&quot;origPos&quot;:null}" fill="url(#color-3)" stroke-width="0.5" stroke-linecap="butt"/><path d="M461.49195,28.00671l-0.12565,-1.14342l0.21362,-1.30678l0.45233,-1.01776l0.45236,-0.56541l0.76646,1.85962l0.49004,1.70885z" data-paper-data="{&quot;origPos&quot;:null}" fill="#5d53ce" stroke-width="0.92358" stroke-linecap="round"/><path d="M474.98681,11.87322h0.12565v0z" data-paper-data="{&quot;origPos&quot;:null}" fill="#6159de" stroke-width="0.92358" stroke-linecap="butt"/><path d="M466.06197,11.93559l0.88517,0.21816c0,0 1.06632,1.23422 1.12235,1.7702c0.08002,0.76544 -0.41096,1.8064 -0.41096,1.8064l-5.07908,2.43225l-1.74666,-3.55321z" data-paper-data="{&quot;origPos&quot;:null}" fill="url(#color-4)" stroke-width="0.92358" stroke-linecap="round"/><path d="M453.57307,9.7793c-1.18967,1.2913 -0.28541,3.39796 -1.51181,4.09876c-0.14859,0.08491 -0.04156,0.48135 -0.19106,0.45492c-1.46854,-0.25956 -1.515,-2.05969 -1.37176,-3.14563c0.18178,-1.37817 1.09467,-2.94268 2.19606,-3.78417c0.74825,-0.62862 2.08678,-1.37914 2.08678,-1.37914c0.15715,-0.08274 0.60712,-0.05053 0.61801,-0.05023c0.17696,-0.024 0.31218,-0.00318 0.448,0.10653c0.38415,0.1807 0.65008,0.57122 0.65008,1.02386c0.1119,0.22383 -0.02297,0.45643 -0.20435,0.64858c-0.11214,0.1599 -0.26463,0.28944 -0.44268,0.37384c-0.82336,0.62585 -1.56949,0.88442 -2.27727,1.65267z" data-paper-data="{&quot;origPos&quot;:null}" fill="url(#color-5)" stroke-width="0.5" stroke-linecap="butt"/><path d="M440.25294,33.49291l-2.59857,0.4293l-0.57281,-0.22753l-0.12261,-0.2251l-0.33719,-1.54355l0.15926,-1.83922l4.63504,0.09483c0,0 -0.6257,2.31844 -0.6418,2.48845c-0.00537,0.05667 -0.52131,0.82283 -0.52131,0.82283z" data-paper-data="{&quot;origPos&quot;:null}" fill="url(#color-6)" stroke-width="0.92358" stroke-linecap="round"/><path d="M463.49285,26.62717c0.50813,1.56231 0.60749,3.39017 0.60749,4.35428c0,2.54753 -1.74138,4.56357 -4.61868,6.24243c-0.70266,0.2106 -2.29334,1.17459 -5.77477,1.66572c-1.06135,0.1013 2.09664,-1.82309 3.00857,-2.37547c1.28164,-0.77632 2.85486,-1.393 3.79261,-2.41036c0.99749,-1.08217 1.58324,-2.79629 1.50815,-3.82679c-0.04534,-0.62228 -0.12312,-1.43294 -0.31909,-2.02083c-0.04297,-0.11951 -0.06638,-0.24835 -0.06638,-0.38265c0,-0.2389 0.20531,-0.65204 0.23751,-0.69346c0.04394,-0.05876 0.24818,-0.69329 0.30083,-0.73775c0.52799,-0.44582 1.07688,-0.57415 1.32375,0.18488z" data-paper-data="{&quot;origPos&quot;:null}" fill="url(#color-7)" stroke-width="0.5" stroke-linecap="butt"/></g><g data-paper-data="{&quot;origPos&quot;:null}" stroke="none" stroke-width="1.25774" stroke-linecap="butt"><path d="M362.36573,34.7248c0,0.25634 -0.03324,0.48773 -0.09971,0.69419c-0.06327,0.20326 -0.1483,0.38286 -0.25472,0.53946c-0.10642,0.15627 -0.23139,0.28956 -0.37458,0.39951c-0.14316,0.10962 -0.29116,0.19975 -0.44456,0.26943c-0.15307,0.06998 -0.30937,0.12177 -0.46916,0.155c-0.15661,0.03324 -0.3049,0.04986 -0.44456,0.04986h-5.00875v-1.29853h5.00875c0.24961,0 0.44263,-0.07318 0.57911,-0.21957c0.13998,-0.14636 0.20997,-0.34292 0.20997,-0.58934c0,-0.11984 -0.01853,-0.22979 -0.05496,-0.3295c-0.03677,-0.10001 -0.0898,-0.18631 -0.15981,-0.25982c-0.06648,-0.07318 -0.1499,-0.12977 -0.24961,-0.16972c-0.09651,-0.03995 -0.20486,-0.05977 -0.32469,-0.05977h-2.98633c-0.20966,0 -0.43594,-0.03674 -0.67915,-0.10992c-0.2429,-0.07672 -0.46949,-0.19815 -0.67915,-0.36467c-0.20646,-0.16618 -0.37935,-0.38449 -0.51934,-0.65422c-0.13648,-0.26943 -0.20455,-0.59926 -0.20455,-0.98852c0,-0.3896 0.06808,-0.71749 0.20455,-0.98372c0.13998,-0.26974 0.31288,-0.4877 0.51934,-0.65422c0.20966,-0.17002 0.43625,-0.29146 0.67915,-0.36467c0.24321,-0.07638 0.46949,-0.11473 0.67915,-0.11473h4.41941v1.2982h-4.41941c-0.24641,0 -0.43945,0.07511 -0.57911,0.22468c-0.13648,0.1499 -0.20489,0.34805 -0.20489,0.59445c0,0.24961 0.06841,0.44776 0.20489,0.59415c0.13966,0.14316 0.3327,0.21477 0.57911,0.21477h2.98633h0.00991c0.13996,0.00318 0.28795,0.02333 0.44456,0.05977c0.15627,0.03354 0.31128,0.0866 0.46438,0.15978c0.15658,0.07351 0.30457,0.16651 0.44456,0.27964c0.13966,0.10995 0.26303,0.24323 0.36944,0.39951c0.10995,0.15661 0.19624,0.33654 0.25952,0.53949c0.06327,0.20293 0.09491,0.43271 0.09491,0.68903zM369.85648,36.83226h-4.68436c-0.11984,0 -0.24961,-0.01344 -0.38926,-0.03997c-0.13648,-0.03003 -0.27294,-0.07479 -0.40972,-0.13485c-0.13295,-0.05977 -0.26112,-0.13648 -0.38449,-0.22979c-0.12304,-0.09654 -0.23299,-0.21126 -0.3295,-0.34454c-0.09333,-0.13645 -0.16812,-0.29275 -0.22468,-0.46949c-0.05656,-0.1796 -0.085,-0.38095 -0.085,-0.60403v-3.51558c0,-0.11986 0.01342,-0.24801 0.03995,-0.38449c0.03003,-0.13998 0.07509,-0.27644 0.13485,-0.40972c0.0601,-0.13645 0.13838,-0.26623 0.23492,-0.38926c0.09651,-0.12337 0.21124,-0.23139 0.34452,-0.32472c0.13648,-0.09651 0.29275,-0.17322 0.46918,-0.22979c0.17673,-0.05656 0.37648,-0.08469 0.59923,-0.08469h4.68436v1.2982h-4.68436c-0.16969,0 -0.29946,0.04508 -0.38926,0.13488c-0.09013,0.0898 -0.13488,0.22308 -0.13488,0.39951v3.50566c0,0.16651 0.04475,0.29626 0.13488,0.3896c0.093,0.0898 0.22308,0.13455 0.38926,0.13455h4.68436zM378.2408,32.07822c0,0.29629 -0.03644,0.56091 -0.10992,0.79388c-0.07321,0.23332 -0.17292,0.43945 -0.29946,0.61938c-0.12337,0.17643 -0.26623,0.32792 -0.42954,0.45447c-0.16301,0.12657 -0.33463,0.23139 -0.51423,0.31451c-0.17643,0.07989 -0.35636,0.13805 -0.53949,0.1748c-0.1796,0.03677 -0.34965,0.05499 -0.50943,0.05499l2.71179,2.34202h-2.00741l-2.70666,-2.34202h-0.93386v-1.29853h2.93614c0.16331,-0.01311 0.31128,-0.04635 0.44456,-0.09971c0.13645,-0.05656 0.25312,-0.13167 0.34965,-0.22468c0.09971,-0.09333 0.1764,-0.20486 0.22979,-0.33463c0.05306,-0.13325 0.07989,-0.28475 0.07989,-0.45447v-0.81911c0,-0.07321 -0.01022,-0.12817 -0.03003,-0.16461c-0.01662,-0.03995 -0.03995,-0.06838 -0.07001,-0.085c-0.02653,-0.01982 -0.05656,-0.03166 -0.0898,-0.03484c-0.03003,-0.00353 -0.05817,-0.00513 -0.08503,-0.00513h-4.28452v5.86272h-1.29851v-6.5067c0,-0.09013 0.01692,-0.17482 0.05016,-0.25472c0.03324,-0.07989 0.07832,-0.1499 0.13488,-0.20997c0.05977,-0.05977 0.12974,-0.10644 0.20966,-0.13968c0.07989,-0.03324 0.16649,-0.04986 0.25949,-0.04986h4.92883c0.28958,0 0.53438,0.05306 0.73413,0.15981c0.19975,0.10321 0.36114,0.23459 0.48451,0.39437c0.12657,0.15661 0.21637,0.32632 0.26943,0.50945c0.05687,0.18311 0.085,0.35442 0.085,0.51423zM385.43176,33.906h-4.09979v-1.30842h4.09979zM386.01597,36.83226h-4.68401c-0.17996,0 -0.37618,-0.03166 -0.58934,-0.09494c-0.21286,-0.06327 -0.41102,-0.16651 -0.59412,-0.30968c-0.17993,-0.14639 -0.33143,-0.33463 -0.45447,-0.56409c-0.11986,-0.23299 -0.17996,-0.51776 -0.17996,-0.85397v-4.68403c0,-0.09013 0.01695,-0.17482 0.05019,-0.25472c0.03324,-0.07989 0.07832,-0.1499 0.13488,-0.20997c0.05977,-0.05977 0.12974,-0.10644 0.20966,-0.13968c0.07989,-0.03324 0.16649,-0.04986 0.25949,-0.04986h5.84768v1.2982h-5.20337v4.04005c0,0.16969 0.04508,0.29946 0.13488,0.3896c0.0898,0.0898 0.22148,0.13455 0.39437,0.13455h4.67412zM393.84614,36.83226h-5.92247c-0.09333,0 -0.17993,-0.01662 -0.25985,-0.04986c-0.07989,-0.03324 -0.14957,-0.07832 -0.20964,-0.13488c-0.05659,-0.0601 -0.10131,-0.12977 -0.13488,-0.20966c-0.03324,-0.07989 -0.04986,-0.16651 -0.04986,-0.25982v-6.5067h1.29853v5.8624h5.27815zM401.81626,36.17804c0,0.09331 -0.01662,0.17993 -0.05019,0.25982c-0.03324,0.07989 -0.07989,0.14957 -0.13966,0.20966c-0.06007,0.05656 -0.12974,0.10164 -0.20966,0.13488c-0.07989,0.03324 -0.16489,0.04986 -0.25472,0.04986h-2.92623c-0.27647,0 -0.55611,-0.03006 -0.83896,-0.08983c-0.28315,-0.06007 -0.55769,-0.15147 -0.82424,-0.27484c-0.2627,-0.12624 -0.5107,-0.28605 -0.74402,-0.4794c-0.23299,-0.19304 -0.43752,-0.42093 -0.61425,-0.68395c-0.17292,-0.26653 -0.30937,-0.56953 -0.40941,-0.90894c-0.09971,-0.34292 -0.1499,-0.7242 -0.1499,-1.14353v-3.58045h1.29853v3.58045c0,0.36627 0.04986,0.67564 0.1499,0.92876c0.10321,0.25314 0.23299,0.46438 0.38926,0.6341c0.15661,0.17002 0.32823,0.30297 0.51456,0.39948c0.18631,0.09684 0.36273,0.16844 0.52925,0.21477c0.16969,0.04668 0.31799,0.07672 0.44456,0.09013c0.12974,0.00991 0.21477,0.01471 0.25472,0.01471h2.28192v-5.8624h1.29853zM406.5952,32.22812l2.18734,-2.55679h1.77249l-3.08093,3.59036l3.06111,3.57057h-1.76291l-2.1771,-2.53697l-2.16719,2.53697h-1.76801l3.05633,-3.57057l-3.06624,-3.59036h1.7578zM417.26179,33.906h-4.09979v-1.30842h4.09979zM417.84601,36.83226h-4.68401c-0.17993,0 -0.37618,-0.03166 -0.58934,-0.09494c-0.21317,-0.06327 -0.41102,-0.16651 -0.59412,-0.30968c-0.17993,-0.14639 -0.33143,-0.33463 -0.45447,-0.56409c-0.11986,-0.23299 -0.17993,-0.51776 -0.17993,-0.85397v-4.68403c0,-0.09013 0.01662,-0.17482 0.04986,-0.25472c0.03354,-0.07989 0.07829,-0.1499 0.13485,-0.20997c0.0601,-0.05977 0.13008,-0.10644 0.20999,-0.13968c0.07989,-0.03324 0.16618,-0.04986 0.25949,-0.04986h5.84768v1.2982h-5.20337v4.04005c0,0.16969 0.04475,0.29946 0.13488,0.3896c0.0898,0.0898 0.22117,0.13455 0.39437,0.13455h4.67412z" fill="url(#color-8)"/><path d="M361.75587,34.25471c0,0.25634 -0.03324,0.48773 -0.09971,0.69419c-0.06327,0.20326 -0.1483,0.38286 -0.25472,0.53946c-0.10642,0.15627 -0.23139,0.28956 -0.37458,0.39951c-0.14316,0.10962 -0.29116,0.19975 -0.44456,0.26943c-0.15307,0.06998 -0.30937,0.12177 -0.46916,0.155c-0.15661,0.03324 -0.3049,0.04986 -0.44456,0.04986h-5.00875v-1.29853h5.00875c0.24961,0 0.44263,-0.07318 0.57911,-0.21957c0.13998,-0.14636 0.20997,-0.34292 0.20997,-0.58934c0,-0.11984 -0.01853,-0.22979 -0.05496,-0.3295c-0.03677,-0.10001 -0.0898,-0.18631 -0.15981,-0.25982c-0.06648,-0.07318 -0.1499,-0.12977 -0.24961,-0.16972c-0.09651,-0.03995 -0.20486,-0.05977 -0.32469,-0.05977h-2.98633c-0.20966,0 -0.43594,-0.03674 -0.67915,-0.10992c-0.2429,-0.07672 -0.46949,-0.19815 -0.67915,-0.36467c-0.20646,-0.16618 -0.37935,-0.38449 -0.51934,-0.65422c-0.13648,-0.26943 -0.20455,-0.59926 -0.20455,-0.98852c0,-0.3896 0.06808,-0.71749 0.20455,-0.98372c0.13998,-0.26974 0.31288,-0.4877 0.51934,-0.65422c0.20966,-0.17002 0.43625,-0.29146 0.67915,-0.36467c0.24321,-0.07638 0.46949,-0.11473 0.67915,-0.11473h4.41941v1.2982h-4.41941c-0.24641,0 -0.43945,0.07511 -0.57911,0.22468c-0.13648,0.1499 -0.20489,0.34805 -0.20489,0.59445c0,0.24961 0.06841,0.44776 0.20489,0.59415c0.13966,0.14316 0.3327,0.21477 0.57911,0.21477h2.98633h0.00991c0.13996,0.00318 0.28795,0.02333 0.44456,0.05977c0.15627,0.03354 0.31128,0.0866 0.46438,0.15978c0.15658,0.07351 0.30457,0.16651 0.44456,0.27964c0.13966,0.10995 0.26303,0.24323 0.36944,0.39951c0.10995,0.15661 0.19624,0.33654 0.25952,0.53949c0.06327,0.20293 0.09491,0.43271 0.09491,0.68903zM369.24662,36.36216h-4.68436c-0.11984,0 -0.24961,-0.01344 -0.38926,-0.03997c-0.13648,-0.03003 -0.27294,-0.07479 -0.40972,-0.13485c-0.13295,-0.05977 -0.26112,-0.13648 -0.38449,-0.22979c-0.12304,-0.09654 -0.23299,-0.21126 -0.3295,-0.34454c-0.09333,-0.13645 -0.16812,-0.29275 -0.22468,-0.46949c-0.05656,-0.1796 -0.085,-0.38095 -0.085,-0.60403v-3.51558c0,-0.11986 0.01342,-0.24801 0.03995,-0.38449c0.03003,-0.13998 0.07509,-0.27644 0.13485,-0.40972c0.0601,-0.13645 0.13838,-0.26623 0.23492,-0.38926c0.09651,-0.12337 0.21124,-0.23139 0.34452,-0.32472c0.13648,-0.09651 0.29275,-0.17322 0.46918,-0.22979c0.17673,-0.05656 0.37648,-0.08469 0.59923,-0.08469h4.68436v1.2982h-4.68436c-0.16969,0 -0.29946,0.04508 -0.38926,0.13488c-0.09013,0.0898 -0.13488,0.22308 -0.13488,0.39951v3.50566c0,0.16651 0.04475,0.29626 0.13488,0.3896c0.093,0.0898 0.22308,0.13455 0.38926,0.13455h4.68436zM377.63094,31.60813c0,0.29629 -0.03644,0.56091 -0.10992,0.79388c-0.07321,0.23332 -0.17292,0.43945 -0.29946,0.61938c-0.12337,0.17643 -0.26623,0.32792 -0.42954,0.45447c-0.16301,0.12657 -0.33463,0.23139 -0.51423,0.31451c-0.17643,0.07989 -0.35636,0.13805 -0.53949,0.1748c-0.1796,0.03677 -0.34965,0.05499 -0.50943,0.05499l2.71179,2.34202h-2.00741l-2.70666,-2.34202h-0.93386v-1.29853h2.93614c0.16331,-0.01311 0.31128,-0.04635 0.44456,-0.09971c0.13645,-0.05656 0.25312,-0.13167 0.34965,-0.22468c0.09971,-0.09333 0.1764,-0.20486 0.22979,-0.33463c0.05306,-0.13325 0.07989,-0.28475 0.07989,-0.45447v-0.81911c0,-0.07321 -0.01022,-0.12817 -0.03003,-0.16461c-0.01662,-0.03995 -0.03995,-0.06838 -0.07001,-0.085c-0.02653,-0.01982 -0.05656,-0.03166 -0.0898,-0.03484c-0.03003,-0.00353 -0.05817,-0.00513 -0.08503,-0.00513h-4.28452v5.86272h-1.29851v-6.5067c0,-0.09013 0.01692,-0.17482 0.05016,-0.25472c0.03324,-0.07989 0.07832,-0.1499 0.13488,-0.20997c0.05977,-0.05977 0.12974,-0.10644 0.20966,-0.13968c0.07989,-0.03324 0.16649,-0.04986 0.25949,-0.04986h4.92883c0.28958,0 0.53438,0.05306 0.73413,0.15981c0.19975,0.10321 0.36114,0.23459 0.48451,0.39437c0.12657,0.15661 0.21637,0.32632 0.26943,0.50945c0.05687,0.18311 0.085,0.35442 0.085,0.51423zM384.8219,33.4359h-4.09979v-1.30842h4.09979zM385.40612,36.36216h-4.68401c-0.17996,0 -0.37618,-0.03166 -0.58934,-0.09494c-0.21286,-0.06327 -0.41102,-0.16651 -0.59412,-0.30968c-0.17993,-0.14639 -0.33143,-0.33463 -0.45447,-0.56409c-0.11986,-0.23299 -0.17996,-0.51776 -0.17996,-0.85397v-4.68403c0,-0.09013 0.01695,-0.17482 0.05019,-0.25472c0.03324,-0.07989 0.07832,-0.1499 0.13488,-0.20997c0.05977,-0.05977 0.12974,-0.10644 0.20966,-0.13968c0.07989,-0.03324 0.16649,-0.04986 0.25949,-0.04986h5.84768v1.2982h-5.20337v4.04005c0,0.16969 0.04508,0.29946 0.13488,0.3896c0.0898,0.0898 0.22148,0.13455 0.39437,0.13455h4.67412zM393.23628,36.36216h-5.92247c-0.09333,0 -0.17993,-0.01662 -0.25985,-0.04986c-0.07989,-0.03324 -0.14957,-0.07832 -0.20964,-0.13488c-0.05659,-0.0601 -0.10131,-0.12977 -0.13488,-0.20966c-0.03324,-0.07989 -0.04986,-0.16651 -0.04986,-0.25982v-6.5067h1.29853v5.8624h5.27815zM401.2064,35.70794c0,0.09331 -0.01662,0.17993 -0.05019,0.25982c-0.03324,0.07989 -0.07989,0.14957 -0.13966,0.20966c-0.06007,0.05656 -0.12974,0.10164 -0.20966,0.13488c-0.07989,0.03324 -0.16489,0.04986 -0.25472,0.04986h-2.92623c-0.27647,0 -0.55611,-0.03006 -0.83896,-0.08983c-0.28315,-0.06007 -0.55769,-0.15147 -0.82424,-0.27484c-0.2627,-0.12624 -0.5107,-0.28605 -0.74402,-0.4794c-0.23299,-0.19304 -0.43752,-0.42093 -0.61425,-0.68395c-0.17292,-0.26653 -0.30937,-0.56953 -0.40941,-0.90894c-0.09971,-0.34292 -0.1499,-0.7242 -0.1499,-1.14353v-3.58045h1.29853v3.58045c0,0.36627 0.04986,0.67564 0.1499,0.92876c0.10321,0.25314 0.23299,0.46438 0.38926,0.6341c0.15661,0.17002 0.32823,0.30297 0.51456,0.39948c0.18631,0.09684 0.36273,0.16844 0.52925,0.21477c0.16969,0.04668 0.31799,0.07672 0.44456,0.09013c0.12974,0.00991 0.21477,0.01471 0.25472,0.01471h2.28192v-5.8624h1.29853zM405.98535,31.75802l2.18734,-2.55679h1.77249l-3.08093,3.59036l3.06111,3.57057h-1.76291l-2.1771,-2.53697l-2.16719,2.53697h-1.76801l3.05633,-3.57057l-3.06624,-3.59036h1.7578zM416.65194,33.4359h-4.09979v-1.30842h4.09979zM417.23616,36.36216h-4.68401c-0.17993,0 -0.37618,-0.03166 -0.58934,-0.09494c-0.21317,-0.06327 -0.41102,-0.16651 -0.59412,-0.30968c-0.17993,-0.14639 -0.33143,-0.33463 -0.45447,-0.56409c-0.11986,-0.23299 -0.17993,-0.51776 -0.17993,-0.85397v-4.68403c0,-0.09013 0.01662,-0.17482 0.04986,-0.25472c0.03354,-0.07989 0.07829,-0.1499 0.13485,-0.20997c0.0601,-0.05977 0.13008,-0.10644 0.20999,-0.13968c0.07989,-0.03324 0.16618,-0.04986 0.25949,-0.04986h5.84768v1.2982h-5.20337v4.04005c0,0.16969 0.04475,0.29946 0.13488,0.3896c0.0898,0.0898 0.22117,0.13455 0.39437,0.13455h4.67412z" fill="url(#color-9)"/></g><path d="M395.81002,18.29325l3.74599,-3.28118l5.13134,0.46272l2.1651,4.31948l-1.80994,4.88856l-5.64576,1.45641l-3.7288,-2.37653zM402.37648,21.88718l0.30277,-2.33538l-3.26988,-0.79745l-0.21417,3.30113z" data-paper-data="{&quot;origPos&quot;:null}" fill="url(#color-10)" stroke="#2b2b2b" stroke-width="1.5" stroke-linecap="butt"/><path d="M355.03567,25.07408l3.15455,-11.1832l2.75953,0.61333l1.06189,2.61983l1.77195,-2.90526l2.78437,0.02411l3.65597,11.17629l-4.7224,1.05107l-1.69588,-7.82533l-1.98649,3.49636l-1.69655,-3.52203l-0.03505,7.49174z" data-paper-data="{&quot;origPos&quot;:null}" fill="url(#color-11)" stroke="#2b2b2b" stroke-width="1.5" stroke-linecap="butt"/><path d="M368.65086,25.16513l4.0214,-11.22747l5.41055,1.34591l3.41402,11.18209l-4.21389,-0.21839l-0.69157,-3.14022l-2.92604,-0.31161l-1.63177,3.1526zM376.47359,19.95053l-0.60553,-2.96194l-1.35694,-0.07433l-0.76242,2.86539z" data-paper-data="{&quot;origPos&quot;:null}" fill="url(#color-12)" stroke="#2b2b2b" stroke-width="1.5" stroke-linecap="butt"/><path d="M373.9909,19.77965l0.52021,-2.86539l1.35694,0.07433l0.48443,2.96194z" data-paper-data="{&quot;origPos&quot;:null}" fill="none" stroke="#2b2b2b" stroke-width="1.5" stroke-linecap="butt"/><path d="M380.56958,25.94317l1.15609,-12.33273l5.06785,0.31578l3.709,2.02851l0.12175,4.74606l-3.9486,1.18738l5.34848,2.66023l-4.09794,1.92185l-3.42546,-3.0069l-1.06053,2.69149zM387.54473,19.49484l-0.78719,-2.56322l-2.11937,-0.39872l-0.06055,3.58851z" data-paper-data="{&quot;origPos&quot;:null}" fill="url(#color-13)" stroke="#2b2b2b" stroke-width="1.5" stroke-linecap="butt"/><path d="M391.05758,26.2626l0.6502,-11.67657l3.04296,0.02617l0.8651,11.43828z" data-paper-data="{&quot;origPos&quot;:null,&quot;origRot&quot;:0}" fill="url(#color-14)" stroke="#2b2b2b" stroke-width="1.5" stroke-linecap="butt"/><path d="M395.47668,18.29325l3.74599,-3.28118l5.13134,0.46272l2.1651,4.31948l-1.80994,4.88856l-5.64576,1.45641l-3.7288,-2.37653zM402.04314,21.88718l0.30277,-2.33538l-3.26988,-0.79745l-0.21417,3.30113z" data-paper-data="{&quot;origPos&quot;:null}" fill="url(#color-15)" stroke="#2b2b2b" stroke-width="0" stroke-linecap="butt"/><path d="M407.06169,25.8341l0.24396,-12.44665l3.48831,0.20186l0.43681,5.05703l3.99368,-5.14451l3.10301,2.05562l-5.35547,4.88856l4.57542,4.90469l-2.76576,0.89656l-3.66767,-4.48788l-0.81831,4.17246z" data-paper-data="{&quot;origPos&quot;:null}" fill="url(#color-16)" stroke="#2b2b2b" stroke-width="1.5" stroke-linecap="butt"/><path d="M416.95086,24.82337l4.0214,-11.22747l5.41055,1.34591l3.41402,11.18209l-4.21389,-0.21839l-0.69157,-3.14022l-2.92604,-0.31161l-1.63177,3.1526zM424.77359,19.60876l-0.60553,-2.96194l-1.35694,-0.07433l-0.76242,2.86539z" data-paper-data="{&quot;origPos&quot;:null}" fill="url(#color-17)" stroke="#2b2b2b" stroke-width="1.5" stroke-linecap="butt"/><path d="M422.2909,19.43788l0.52021,-2.86539l1.35694,0.07433l0.48443,2.96194z" data-paper-data="{&quot;origPos&quot;:null}" fill="none" stroke="#2b2b2b" stroke-width="1.5" stroke-linecap="butt"/><path d="M429.26442,25.71533l1.15609,-12.33273l5.06785,0.31578l3.709,2.02851l0.12175,4.74606l-3.9486,1.18738l5.34848,2.66023l-4.09794,1.92185l-3.42546,-3.0069l-1.06053,2.69149zM436.23957,19.267l-0.78719,-2.56322l-2.11937,-0.39872l-0.06055,3.58851z" data-paper-data="{&quot;origPos&quot;:null}" fill="url(#color-18)" stroke="#2b2b2b" stroke-width="1.5" stroke-linecap="butt"/><path d="M442.94838,26.25738l0.36099,-8.42498l-4.15954,0.75519l0.23383,-4.91442l13.36284,1.04948l-1.40231,4.67823l-4.13137,-1.08869l-0.02991,8.17457z" data-paper-data="{&quot;origPos&quot;:null,&quot;origRot&quot;:0}" fill="url(#color-19)" stroke="#2b2b2b" stroke-width="1.5" stroke-linecap="butt"/><path d="M355.03567,25.07408l3.15455,-11.1832l2.75953,0.61333l1.06189,2.61983l1.77195,-2.90526l2.78437,0.02411l3.65597,11.17629l-4.7224,1.05107l-1.69588,-7.82533l-1.98649,3.49636l-1.69655,-3.52203l-0.03505,7.49174z" data-paper-data="{&quot;origPos&quot;:null}" fill="url(#color-20)" stroke="#2b2b2b" stroke-width="0" stroke-linecap="butt"/><path d="M368.65086,25.16513l4.0214,-11.22747l5.41055,1.34591l3.41402,11.18209l-4.21389,-0.21839l-0.69157,-3.14022l-2.92604,-0.31161l-1.63177,3.1526zM376.47359,19.95052l-0.60553,-2.96194l-1.35694,-0.07433l-0.76242,2.86539z" data-paper-data="{&quot;origPos&quot;:null}" fill="url(#color-21)" stroke="#2b2b2b" stroke-width="0" stroke-linecap="butt"/><path d="M380.56958,25.94317l1.15609,-12.33273l5.06785,0.31578l3.709,2.02851l0.12175,4.74606l-3.9486,1.18738l5.34848,2.66023l-4.09794,1.92185l-3.42546,-3.0069l-1.06053,2.69149zM387.54473,19.49484l-0.78719,-2.56322l-2.11937,-0.39872l-0.06055,3.58851z" data-paper-data="{&quot;origPos&quot;:null}" fill="url(#color-22)" stroke="#2b2b2b" stroke-width="0" stroke-linecap="butt"/><path d="M390.72425,26.2626l0.6502,-11.67657l3.04296,0.02617l0.8651,11.43828z" data-paper-data="{&quot;origPos&quot;:null,&quot;origRot&quot;:0}" fill="url(#color-23)" stroke="#2b2b2b" stroke-width="0" stroke-linecap="butt"/><path d="M406.72835,25.8341l0.24396,-12.44665l3.48831,0.20186l0.43681,5.05703l3.99368,-5.14451l3.10301,2.05562l-5.35547,4.88856l4.57542,4.90469l-2.76576,0.89656l-3.66767,-4.48788l-0.81831,4.17246z" data-paper-data="{&quot;origPos&quot;:null}" fill="url(#color-24)" stroke="#2b2b2b" stroke-width="0" stroke-linecap="butt"/><path d="M416.61752,24.82337l4.0214,-11.22747l5.41055,1.34591l3.41402,11.18209l-4.21389,-0.21839l-0.69157,-3.14022l-2.92604,-0.31161l-1.63177,3.1526zM424.44025,19.60876l-0.60553,-2.96194l-1.35694,-0.07433l-0.76242,2.86539z" data-paper-data="{&quot;origPos&quot;:null}" fill="url(#color-25)" stroke="#2b2b2b" stroke-width="0" stroke-linecap="butt"/><path d="M428.93109,25.71533l1.15609,-12.33273l5.06785,0.31578l3.709,2.02851l0.12175,4.74606l-3.9486,1.18738l5.34848,2.66023l-4.09794,1.92185l-3.42546,-3.0069l-1.06053,2.69149zM435.90623,19.267l-0.78719,-2.56322l-2.11937,-0.39872l-0.06055,3.58851z" data-paper-data="{&quot;origPos&quot;:null}" fill="url(#color-26)" stroke="#2b2b2b" stroke-width="0" stroke-linecap="butt"/><path d="M442.61504,26.25738l0.36099,-8.42498l-4.15954,0.75519l0.23383,-4.91442l13.36284,1.04948l-1.40231,4.67823l-4.13137,-1.08869l-0.02991,8.17457z" data-paper-data="{&quot;origPos&quot;:null,&quot;origRot&quot;:0}" fill="url(#color-27)" stroke="#2b2b2b" stroke-width="0" stroke-linecap="butt"/></g><text transform="translate(7.50003,26) scale(0.5,0.5)" font-size="40" xml:space="preserve" fill="#000000" fill-rule="nonzero" stroke="none" stroke-width="1" stroke-linecap="butt" stroke-linejoin="miter" stroke-miterlimit="10" stroke-dasharray="" stroke-dashoffset="0" font-family="Sans Serif" font-weight="normal" text-anchor="start" style="mix-blend-mode: normal"><tspan x="0" dy="0">Bug Tracker</tspan></text><text transform="translate(6.00002,24) scale(0.5,0.5)" font-size="40" xml:space="preserve" data-paper-data="{&quot;origPos&quot;:null}" fill="#ffffff" fill-rule="nonzero" stroke="none" stroke-width="1" stroke-linecap="butt" stroke-linejoin="miter" stroke-miterlimit="10" stroke-dasharray="" stroke-dashoffset="0" font-family="Sans Serif" font-weight="normal" text-anchor="start" style="mix-blend-mode: normal"><tspan x="0" dy="0">Bug Tracker</tspan></text><text transform="translate(3.00001,40.55247) scale(0.23371,0.21261)" font-size="40" xml:space="preserve" data-paper-data="{&quot;origPos&quot;:null}" fill="#ffffff" fill-rule="nonzero" stroke="none" stroke-width="1" stroke-linecap="butt" stroke-linejoin="miter" stroke-miterlimit="10" stroke-dasharray="" stroke-dashoffset="0" font-family="Sans Serif" font-weight="normal" text-anchor="start" style="mix-blend-mode: normal"><tspan x="0" dy="0">- MK8S-001 |Wall Clipping - it has a serious effect on the game, especially as</tspan><tspan x="0" dy="46.150000000000006px">you play through the Cherry Cup, Crossover Cup, Delfino Square/Plaza and Coconut Mall.</tspan><tspan x="0" dy="46.150000000000006px">(Reported by: RedsLab_) (Status: Broken)</tspan><tspan x="0" dy="46.150000000000006px"> </tspan><tspan x="0" dy="46.150000000000006px">- MK8S-002 | Mud and tracks being moved by a few pixels and not returning to normal (Ruins Gameplay)</tspan><tspan x="0" dy="46.150000000000006px">and not being able to remove checkpoints from levels which can break entire systems and tracks.</tspan><tspan x="0" dy="46.150000000000006px">(Reported by: RedsLab_) (Status: Broken)</tspan><tspan x="0" dy="46.150000000000006px"> </tspan><tspan x="0" dy="46.150000000000006px">- MK8S-003 | It sometimes says you're in 1st or 2nd even though you're not and you sometimes end up</tspan><tspan x="0" dy="46.150000000000006px">losing the race because of that.</tspan><tspan x="0" dy="46.150000000000006px">(Reported by: Nour250508) (Status: Broken)</tspan><tspan x="0" dy="46.150000000000006px"> </tspan><tspan x="0" dy="46.150000000000006px">- MK8S-004 | 3DS Neo Bowser City currently does not allow you to pass under or drive on top of the bridge</tspan><tspan x="0" dy="46.150000000000006px">that overlaps the beginning of the track.</tspan><tspan x="0" dy="46.150000000000006px">(Reported by --FlamingGames--) (Status: Broken)</tspan><tspan x="0" dy="46.150000000000006px"> </tspan><tspan x="0" dy="46.150000000000006px">-</tspan><tspan x="0" dy="46.150000000000006px">-</tspan><tspan x="0" dy="46.150000000000006px">-</tspan><tspan x="0" dy="46.150000000000006px">-</tspan><tspan x="0" dy="46.150000000000006px">-</tspan><tspan x="0" dy="46.150000000000006px">-</tspan><tspan x="0" dy="46.150000000000006px">-</tspan><tspan x="0" dy="46.150000000000006px">-</tspan><tspan x="0" dy="46.150000000000006px">-</tspan><tspan x="0" dy="46.150000000000006px">-</tspan><tspan x="0" dy="46.150000000000006px">-</tspan><tspan x="0" dy="46.150000000000006px">-</tspan><tspan x="0" dy="46.150000000000006px">-</tspan><tspan x="0" dy="46.150000000000006px">-</tspan><tspan x="0" dy="46.150000000000006px">-</tspan><tspan x="0" dy="46.150000000000006px">-</tspan><tspan x="0" dy="46.150000000000006px">-</tspan><tspan x="0" dy="46.150000000000006px">-</tspan></text></g></g></svg>