<svg version="1.1" xmlns="http://www.w3.org/2000/svg" xmlns:xlink="http://www.w3.org/1999/xlink" width="536.10589" height="542.01189" viewBox="0,0,536.10589,542.01189"><defs><linearGradient x1="110.15608" y1="180.9321" x2="154.17566" y2="192.85785" gradientUnits="userSpaceOnUse" id="color-1"><stop offset="0" stop-color="#f5c826"/><stop offset="1" stop-color="#deb433"/></linearGradient><linearGradient x1="145.37427" y1="231.05122" x2="151.66635" y2="221.86316" gradientUnits="userSpaceOnUse" id="color-2"><stop offset="0" stop-color="#d6ad38"/><stop offset="1" stop-color="#f5c826"/></linearGradient><linearGradient x1="160.57403" y1="246.87625" x2="172.72713" y2="229.12963" gradientUnits="userSpaceOnUse" id="color-3"><stop offset="0" stop-color="#d2c997"/><stop offset="1" stop-color="#f1e9c0"/></linearGradient><linearGradient x1="154.01699" y1="240.2803" x2="163.70735" y2="226.12988" gradientUnits="userSpaceOnUse" id="color-4"><stop offset="0" stop-color="#d2c997"/><stop offset="1" stop-color="#f1e9c0"/></linearGradient><linearGradient x1="136.50302" y1="214.3204" x2="113.02603" y2="202.27261" gradientUnits="userSpaceOnUse" id="color-5"><stop offset="0" stop-color="#d6ad38"/><stop offset="1" stop-color="#f5c826"/></linearGradient><linearGradient x1="124.51108" y1="207.60237" x2="115.339" y2="202.89544" gradientUnits="userSpaceOnUse" id="color-6"><stop offset="0" stop-color="#f6efca" stop-opacity="0"/><stop offset="1" stop-color="#f6efca"/></linearGradient><linearGradient x1="119.16762" y1="194.18625" x2="108.89371" y2="214.20655" gradientUnits="userSpaceOnUse" id="color-7"><stop offset="0" stop-color="#d2ceb4"/><stop offset="1" stop-color="#d2ceb4" stop-opacity="0"/></linearGradient><radialGradient cx="154.24147" cy="226.81403" r="16.22471" gradientUnits="userSpaceOnUse" id="color-8"><stop offset="0" stop-color="#ffe538"/><stop offset="1" stop-color="#f5c826"/></radialGradient><linearGradient x1="156.23001" y1="219.61845" x2="133.77416" y2="214.62995" gradientUnits="userSpaceOnUse" id="color-9"><stop offset="0" stop-color="#eae3c0"/><stop offset="1" stop-color="#fcf4ca"/></linearGradient><linearGradient x1="135.41698" y1="203.91127" x2="116.02554" y2="186.56601" gradientUnits="userSpaceOnUse" id="color-10"><stop offset="0" stop-color="#f5c826"/><stop offset="1" stop-color="#ffe538"/></linearGradient><linearGradient x1="126.20378" y1="194.69128" x2="118.77023" y2="188.04208" gradientUnits="userSpaceOnUse" id="color-11"><stop offset="0" stop-color="#fff7d1" stop-opacity="0"/><stop offset="1" stop-color="#fff7d1"/></linearGradient><linearGradient x1="124.01216" y1="180.29532" x2="109.01002" y2="197.06733" gradientUnits="userSpaceOnUse" id="color-12"><stop offset="0" stop-color="#d2ceb4"/><stop offset="1" stop-color="#d2ceb4" stop-opacity="0"/></linearGradient><linearGradient x1="183.28293" y1="196.11124" x2="167.31609" y2="231.44351" gradientUnits="userSpaceOnUse" id="color-13"><stop offset="0" stop-color="#ffe538"/><stop offset="1" stop-color="#fffeeb"/></linearGradient><linearGradient x1="172.17897" y1="218.1061" x2="166.34918" y2="231.00656" gradientUnits="userSpaceOnUse" id="color-14"><stop offset="0" stop-color="#ffe538" stop-opacity="0"/><stop offset="1" stop-color="#ffe538"/></linearGradient><linearGradient x1="176.2901" y1="203.97632" x2="163.70709" y2="231.8207" gradientUnits="userSpaceOnUse" id="color-15"><stop offset="0" stop-color="#ffead6"/><stop offset="1" stop-color="#f5b677"/></linearGradient><linearGradient x1="175.02255" y1="203.59151" x2="170.27891" y2="214.0885" gradientUnits="userSpaceOnUse" id="color-16"><stop offset="0" stop-color="#f5b477"/><stop offset="1" stop-color="#f5b477" stop-opacity="0"/></linearGradient><linearGradient x1="164.59264" y1="206.12912" x2="170.79107" y2="208.93023" gradientUnits="userSpaceOnUse" id="color-17"><stop offset="0" stop-color="#5a2c0a"/><stop offset="1" stop-color="#82491d"/></linearGradient><radialGradient cx="188.53093" cy="223.38503" r="7.63082" gradientUnits="userSpaceOnUse" id="color-18"><stop offset="0" stop-color="#ffead6"/><stop offset="1" stop-color="#f7c594"/></radialGradient><linearGradient x1="151.89047" y1="212.13901" x2="156.49452" y2="198.99606" gradientUnits="userSpaceOnUse" id="color-19"><stop offset="0" stop-color="#f9d62e"/><stop offset="1" stop-color="#ffdd63"/></linearGradient><linearGradient x1="167.19849" y1="227.12554" x2="174.00261" y2="207.70221" gradientUnits="userSpaceOnUse" id="color-20"><stop offset="0" stop-color="#d1cdb3"/><stop offset="1" stop-color="#fcf4ca"/></linearGradient><linearGradient x1="161.02586" y1="220.07284" x2="166.49864" y2="204.45021" gradientUnits="userSpaceOnUse" id="color-21"><stop offset="0" stop-color="#d1cdb3"/><stop offset="1" stop-color="#fcf4ca"/></linearGradient><radialGradient cx="385.89538" cy="253.16184" r="41.7074" gradientUnits="userSpaceOnUse" id="color-22"><stop offset="0" stop-color="#002bff"/><stop offset="1" stop-color="#002bff" stop-opacity="0"/></radialGradient><linearGradient x1="357.95211" y1="225.45294" x2="357.95211" y2="276.16123" gradientUnits="userSpaceOnUse" id="color-23"><stop offset="0" stop-color="#7b85ff"/><stop offset="1" stop-color="#1a0099"/></linearGradient><linearGradient x1="386.52979" y1="244.42053" x2="386.52979" y2="255.41534" gradientUnits="userSpaceOnUse" id="color-24"><stop offset="0" stop-color="#000000"/><stop offset="1" stop-color="#674205"/></linearGradient><linearGradient x1="377.27979" y1="244.37054" x2="377.27979" y2="255.36534" gradientUnits="userSpaceOnUse" id="color-25"><stop offset="0" stop-color="#000000"/><stop offset="1" stop-color="#674205"/></linearGradient><linearGradient x1="447.24827" y1="124.61459" x2="447.24827" y2="160.96117" gradientUnits="userSpaceOnUse" id="color-26"><stop offset="0" stop-color="#ff0000"/><stop offset="1" stop-color="#d90000"/></linearGradient><linearGradient x1="446.55915" y1="128.41909" x2="446.55915" y2="146.13137" gradientUnits="userSpaceOnUse" id="color-27"><stop offset="0" stop-color="#ffffff"/><stop offset="1" stop-color="#f3f3f3"/></linearGradient><linearGradient x1="468.00008" y1="137.53397" x2="468.00008" y2="155.24627" gradientUnits="userSpaceOnUse" id="color-28"><stop offset="0" stop-color="#ffffff"/><stop offset="1" stop-color="#f3f3f3"/></linearGradient><linearGradient x1="426.57412" y1="137.39655" x2="426.57412" y2="155.10883" gradientUnits="userSpaceOnUse" id="color-29"><stop offset="0" stop-color="#ffffff"/><stop offset="1" stop-color="#f3f3f3"/></linearGradient><linearGradient x1="453.77835" y1="125.09077" x2="453.77835" y2="156.90976" gradientUnits="userSpaceOnUse" id="color-30"><stop offset="0" stop-color="#ffd7d7"/><stop offset="1" stop-color="#ffd7d7" stop-opacity="0"/></linearGradient><radialGradient cx="446.95244" cy="156.17674" r="14.06074" gradientUnits="userSpaceOnUse" id="color-31"><stop offset="0" stop-color="#ffdab5"/><stop offset="1" stop-color="#f1a961"/></radialGradient><linearGradient x1="447.07843" y1="149.86436" x2="447.07843" y2="159.3342" gradientUnits="userSpaceOnUse" id="color-32"><stop offset="0" stop-color="#b57b42"/><stop offset="1" stop-color="#b57b42" stop-opacity="0"/></linearGradient><radialGradient cx="414.14055" cy="49.41677" r="41.7074" gradientUnits="userSpaceOnUse" id="color-33"><stop offset="0" stop-color="#00ff55"/><stop offset="1" stop-color="#00ff55" stop-opacity="0"/></radialGradient><linearGradient x1="395.0071" y1="15.02895" x2="380.90272" y2="63.73622" gradientUnits="userSpaceOnUse" id="color-34"><stop offset="0" stop-color="#00ff55"/><stop offset="1" stop-color="#009933"/></linearGradient><linearGradient x1="417.18127" y1="41.19688" x2="414.1231" y2="51.75781" gradientUnits="userSpaceOnUse" id="color-35"><stop offset="0" stop-color="#000000"/><stop offset="1" stop-color="#674205"/></linearGradient><linearGradient x1="408.31023" y1="38.57599" x2="405.25204" y2="49.13692" gradientUnits="userSpaceOnUse" id="color-36"><stop offset="0" stop-color="#000000"/><stop offset="1" stop-color="#674205"/></linearGradient><linearGradient x1="226.12869" y1="368.61843" x2="239.06794" y2="381.55767" gradientUnits="userSpaceOnUse" id="color-37"><stop offset="0" stop-color="#804900"/><stop offset="1" stop-color="#b87200"/></linearGradient><linearGradient x1="300.90333" y1="365.89059" x2="313.84254" y2="378.82983" gradientUnits="userSpaceOnUse" id="color-38"><stop offset="0" stop-color="#804900"/><stop offset="1" stop-color="#b87200"/></linearGradient><linearGradient x1="131.45289" y1="299.09269" x2="131.45289" y2="551.52807" gradientUnits="userSpaceOnUse" id="color-39"><stop offset="0" stop-color="#ffd210"/><stop offset="1" stop-color="#b2930b"/></linearGradient><linearGradient x1="131.18337" y1="290.2462" x2="131.18337" y2="308.54507" gradientUnits="userSpaceOnUse" id="color-40"><stop offset="0" stop-color="#28b700"/><stop offset="1" stop-color="#37ff00"/></linearGradient><linearGradient x1="399.23484" y1="289.083" x2="399.23484" y2="307.38185" gradientUnits="userSpaceOnUse" id="color-41"><stop offset="0" stop-color="#804900"/><stop offset="1" stop-color="#b87200"/></linearGradient></defs><g transform="translate(30.13293,-9.51619)"><g data-paper-data="{&quot;isPaintingLayer&quot;:true}" fill-rule="nonzero" stroke-linejoin="miter" stroke-miterlimit="10" stroke-dasharray="" stroke-dashoffset="0" style="mix-blend-mode: normal"><g><path d="M150.73369,205.49418c-0.06625,0.17795 -0.15261,0.33789 -0.25616,0.48247c-0.93168,1.74813 -2.97677,2.68648 -4.96993,2.14649c-0.90917,-0.24631 -1.6724,-0.7636 -2.22624,-1.44128c-1.04639,-0.40044 -1.32632,-4.438 -1.60259,-5.43155c-1.42883,-5.13856 -3.27299,-10.80874 -5.76219,-15.50602c-2.98699,-5.63665 -5.04392,-9.05072 -12.08432,-9.5562c-2.80649,-0.2015 -7.61024,1.51349 -9.87311,-0.98481c-0.33301,-0.36766 -1.17556,-3.94484 -1.10281,-4.23794c0.15523,-0.62542 2.43176,-2.78544 3.09126,-3.10168c2.44782,-1.1738 9.24296,-0.43791 11.97881,0.28154c3.40837,0.89629 6.26622,1.57564 9.0308,3.67806c2.18871,1.66448 3.49384,4.70697 4.81647,6.92519c2.49356,4.18201 4.2135,8.23355 5.71793,12.80107c1.14968,3.49051 4.60308,10.28928 3.24209,13.94466z" data-paper-data="{&quot;origPos&quot;:null,&quot;origRot&quot;:0,&quot;index&quot;:null}" fill="url(#color-1)" stroke="none" stroke-width="0.5" stroke-linecap="butt"/><g data-paper-data="{&quot;origRot&quot;:0,&quot;origPos&quot;:null}" stroke-linecap="butt"><path d="M139.25992,220.39905c1.77508,-2.51676 7.85988,-1.74194 12.4685,1.50852c4.60861,3.25048 8.50398,7.02851 8.50398,7.02851l-5.24021,7.6137c0,0 -7.82883,-4.20102 -11.53558,-6.81541c-4.60861,-3.25048 -5.97176,-6.81858 -4.19669,-9.33533z" data-paper-data="{&quot;origRot&quot;:0,&quot;origPos&quot;:null}" fill="url(#color-2)" stroke="none" stroke-width="0"/><g data-paper-data="{&quot;origPos&quot;:null}" stroke="#b3b092" stroke-width="1.5"><path d="M159.81562,234.86108c2.92821,-4.58418 6.80553,-10.09353 11.44906,-6.72983c3.17528,2.30011 4.86258,3.52443 4.95493,7.49968c0.09236,3.97525 -5.17632,0.78821 -5.21293,1.02674c-0.03104,0.2023 3.22008,0.1351 3.60053,1.53261c0.38045,1.39752 -0.31427,3.56684 -1.86183,4.07684c-1.54757,0.50999 -3.85644,-1.53879 -3.97994,-1.4114c-0.04515,0.04657 3.36578,1.0399 3.15176,2.68066c-0.21402,1.64075 -1.14276,2.42759 -2.96015,2.69371c-1.81739,0.26611 -3.44055,-1.85461 -3.60316,-1.72448c-0.12543,0.10039 3.7311,1.7861 2.49581,2.38759c-1.23529,0.60149 -5.02358,1.9074 -7.45566,-0.23082c-4.51544,-3.96987 -3.50664,-7.2171 -0.57843,-11.80129z" data-paper-data="{&quot;origRot&quot;:0}" fill="url(#color-3)"/><path d="M156.39611,231.79822c2.2654,-3.53628 4.16036,-8.01282 6.73463,-6.05852c2.87982,2.18626 2.10901,2.99047 -1.73577,8.67781c-4.37993,6.47894 -3.86982,8.26656 -7.14283,6.02388c-1.91121,-1.30956 -0.12142,-5.10687 2.14398,-8.64316z" data-paper-data="{&quot;origRot&quot;:0}" fill="url(#color-4)"/></g><path d="M162.39261,234.84785c1.30084,-1.89956 3.60039,-2.58685 5.13621,-1.53512c1.53582,1.05174 1.7263,3.44425 0.42546,5.3438c-1.30084,1.89956 -3.60041,2.58685 -5.13623,1.53512c-1.53582,-1.05174 -1.72629,-3.44425 -0.42546,-5.34381z" fill="#e29392" stroke="#bf6d6c" stroke-width="1.5"/></g><g data-paper-data="{&quot;origRot&quot;:0,&quot;origPos&quot;:null}"><path d="M119.001,213.22816c-2.41788,-1.07799 -4.70434,1.10922 -5.19023,0.75532c-1.96587,-1.43185 -2.95104,-3.22031 -2.13872,-7.28006c1.00625,-5.02891 3.06767,-8.3274 7.39705,-11.07671c2.9487,-1.87252 3.09907,1.18127 5.51223,3.70673c0.86589,0.90621 2.10484,1.88409 4.76294,3.57377c3.32332,2.11253 8.71471,7.25071 8.71471,7.25071c0,0 -0.99229,2.96327 -2.34366,5.69718c-1.36515,2.68981 -3.83635,4.79571 -3.83635,4.79571c0,0 -7.28875,-4.93073 -12.87795,-7.42263z" data-paper-data="{&quot;origPos&quot;:null}" fill="url(#color-5)" stroke="none" stroke-width="0" stroke-linecap="butt"/><path d="M107.68973,213.31686c-1.99068,-1.91144 -2.46389,-5.1284 -0.21776,-9.50534c2.24613,-4.37694 7.18756,-7.75641 7.18756,-7.75641c0,0 1.4593,-3.25434 2.30518,-2.90124c1.75076,0.73081 4.51185,2.10945 4.27479,2.7924c-0.87518,2.52126 -0.96567,1.91393 -1.88607,5.32579c-0.59593,2.20901 -0.40563,6.50812 -1.45023,8.54371c-2.24613,4.37694 -6.93576,6.64833 -10.21347,3.5011z" data-paper-data="{&quot;origPos&quot;:null}" fill="#fff6cb" stroke="#b3b092" stroke-width="1.5" stroke-linecap="butt"/><path d="M119.00103,213.22816c-2.41788,-1.07799 -3.27368,0.54824 -3.75956,0.19434c-1.96587,-1.43185 1.03602,-6.48892 1.03602,-6.48892c0,0 0.77283,-3.41019 2.69882,-11.12597c2.9487,-1.87252 3.19192,1.00036 5.60505,3.52581c0.63949,0.66926 1.48247,1.37764 2.95034,2.38296c-0.78368,1.42497 -1.54893,2.86545 -2.25393,4.34561c-1.26379,2.65331 -3.40945,5.17164 -4.17584,8.03354c-1.2021,-0.64679 -0.9638,-0.36042 -2.10089,-0.86739z" data-paper-data="{&quot;origPos&quot;:null}" fill="url(#color-6)" stroke="none" stroke-width="0" stroke-linecap="butt"/><path d="M107.68973,213.31686c-1.99068,-1.91144 -2.46389,-5.1284 -0.21776,-9.50534c2.24613,-4.37694 7.18756,-7.75641 7.18756,-7.75641c0,0 1.4593,-3.25434 2.30518,-2.90124c1.75076,0.73081 4.51185,2.10945 4.27479,2.7924c-0.87518,2.52126 -0.96567,1.91393 -1.88607,5.32579c-0.59593,2.20901 -0.40563,6.50812 -1.45023,8.54371c-2.24613,4.37694 -6.93576,6.64833 -10.21347,3.5011z" data-paper-data="{&quot;origPos&quot;:null}" fill="url(#color-7)" stroke="#b3b092" stroke-width="0" stroke-linecap="butt"/><path d="M111.58829,206.56867l-0.81186,0.82066l-1.01126,0.06713l-1.05873,-0.34794l-1.1842,-0.73793l-0.77318,-0.39679" fill="none" stroke="#b3b092" stroke-width="1.5" stroke-linecap="round"/><path d="M111.26199,210.50381l-0.81186,0.82066l-1.01126,0.06713l-1.05873,-0.34794l-1.1842,-0.73794l-0.77318,-0.39678" fill="none" stroke="#b3b092" stroke-width="1.5" stroke-linecap="round"/><path d="M112.29359,213.44261l-0.81186,0.82066l-1.01125,0.06713l-1.05873,-0.34796l-1.1842,-0.73793l-0.77318,-0.39679" fill="none" stroke="#b3b092" stroke-width="1.5" stroke-linecap="round"/></g><g data-paper-data="{&quot;origRot&quot;:0,&quot;origPos&quot;:null}" stroke-linecap="butt"><path d="M143.50034,228.67251c-12.02453,-2.43879 -13.73634,-10.83345 -11.82812,-19.42339c1.90823,-8.58994 9.15755,-14.40538 14.90501,-13.1286c6.23502,1.38509 11.03274,3.23342 13.93289,8.92404c2.16069,4.23969 -0.36879,9.09662 -1.40072,13.7419c-1.90823,8.58994 -3.82233,12.27661 -15.60907,9.88605z" data-paper-data="{&quot;origPos&quot;:null}" fill="url(#color-8)" stroke="#ddb335" stroke-width="1.5"/><path d="M143.80854,226.73956c-9.46865,-1.96522 -11.14639,-7.10378 -10.01163,-12.2119c1.13476,-5.10812 6.54462,-8.32221 11.07498,-7.31581c4.91468,1.09178 8.72848,2.40435 11.22128,5.959c1.85721,2.64832 0.08543,5.47712 -0.52822,8.2395c-1.13476,5.10812 -2.47502,7.25556 -11.75641,5.32922z" fill="url(#color-9)" stroke="#d2ceb4" stroke-width="0"/></g><g data-paper-data="{&quot;origRot&quot;:0,&quot;origPos&quot;:null}"><path d="M119.03631,198.67635c-2.06674,-1.65432 -4.83194,-0.11632 -5.21255,-0.58157c-1.53994,-1.88241 -2.04092,-3.86183 -0.22846,-7.58427c2.24511,-4.61105 5.07356,-7.28114 9.95744,-8.84644c3.32635,-1.0661 2.6997,1.92649 4.39587,4.98004c0.60863,1.09571 1.56005,2.35507 3.70455,4.66195c2.68119,2.8842 9.05326,8.87679 9.05326,8.87679c0,0 -3.5318,4.21151 -4.23916,6.37806c-0.70736,2.16656 -2.12466,5.79952 -2.12466,5.79952c0,0 -10.52878,-9.8599 -15.30628,-13.68406z" data-paper-data="{&quot;origPos&quot;:null}" fill="url(#color-10)" stroke="none" stroke-width="0" stroke-linecap="butt"/><path d="M108.07011,195.90211c-1.4427,-2.35269 -1.08713,-5.58474 2.19273,-9.25153c3.27986,-3.66678 8.91522,-5.68699 8.91522,-5.68699c0,0 2.23473,-2.77962 2.96385,-2.2241c1.50909,1.14974 3.83186,3.18173 3.42982,3.78254c-1.48422,2.21805 -1.41822,1.60758 -3.17141,4.67583c-1.1351,1.98655 -2.03801,6.19407 -3.56337,7.8994c-3.27986,3.66678 -8.39143,4.67859 -10.76684,0.80486z" data-paper-data="{&quot;origPos&quot;:null}" fill="#fff6cb" stroke="#b3b092" stroke-width="1.5" stroke-linecap="butt"/><path d="M118.95137,198.7713c-2.06674,-1.65432 -3.1166,-0.45606 -3.49721,-0.92132c-1.53994,-1.88241 2.70791,-7.67507 2.70791,-7.67507c0,0 6.14791,-9.02234 6.88081,-8.83912c1.62958,0.40736 2.00512,3.93487 2.82078,5.40326c0.45754,0.8237 1.10881,1.73992 2.31506,3.12412c-2.75536,3.84371 -6.1736,7.08062 -9.40744,10.54988c-0.58185,-0.58315 -1.19025,-1.13775 -1.81989,-1.64175z" fill="url(#color-11)" stroke="none" stroke-width="0" stroke-linecap="butt"/><path d="M108.07011,195.90211c-1.4427,-2.35269 -1.08713,-5.58474 2.19273,-9.25153c3.27986,-3.66678 8.91522,-5.68699 8.91522,-5.68699c0,0 2.23473,-2.77962 2.96385,-2.2241c1.50909,1.14974 3.83186,3.18173 3.42982,3.78254c-1.48422,2.21805 -1.41822,1.60758 -3.17141,4.67583c-1.1351,1.98655 -2.03801,6.19407 -3.56337,7.8994c-3.27986,3.66678 -8.39143,4.67859 -10.76684,0.80486z" data-paper-data="{&quot;origPos&quot;:null}" fill="url(#color-12)" stroke="#b3b092" stroke-width="0" stroke-linecap="butt"/><path d="M113.52669,190.33963l-0.99298,0.58871l-0.99537,-0.19075l-0.93634,-0.60434l-0.95913,-1.01339l-0.64774,-0.57939" fill="none" stroke="#b3b092" stroke-width="1.5" stroke-linecap="round"/><path d="M112.21604,194.0644l-0.99298,0.58871l-0.99537,-0.19075l-0.93634,-0.60434l-0.95913,-1.01339l-0.64774,-0.57939" fill="none" stroke="#b3b092" stroke-width="1.5" stroke-linecap="round"/><path d="M112.47099,197.16855l-0.99298,0.58871l-0.99537,-0.19075l-0.93634,-0.60434l-0.95912,-1.01338l-0.64774,-0.57939" fill="none" stroke="#b3b092" stroke-width="1.5" stroke-linecap="round"/></g><g data-paper-data="{&quot;origRot&quot;:0,&quot;origPos&quot;:null}"><path d="M190.50177,231.39839c-8.48762,7.98014 -14.09456,4.10778 -24.68133,-0.67644c-10.58677,-4.78422 -16.11269,-11.73494 -15.17212,-18.18529c0.70962,-4.86657 3.17281,-4.78616 7.12538,-7.71262c0.22546,-0.16693 5.62562,-11.96157 10.84359,-14.29445c3.79234,-1.69549 15.86416,4.65227 19.64966,6.36295c0,0 7.09159,3.10663 8.54588,7.45738c0,0 -4.15153,14.10006 -4.17355,14.47741c-0.19042,3.26371 3.1692,2.35321 1.08263,8.72807z" fill="url(#color-13)" stroke="none" stroke-width="0" stroke-linecap="butt"/><path d="M165.82045,230.72195c-10.58677,-4.78422 -16.11269,-11.73494 -15.17212,-18.18529c0.24143,-1.65575 0.68585,-2.73885 1.32285,-3.56256c1.27945,1.93713 6.37434,9.00666 8.00684,10.12415c6.71673,4.59778 10.6594,5.84077 17.72513,9.12429c7.06574,3.28353 7.44897,3.0458 11.39621,4.40873c-7.72986,6.30996 -13.28595,2.60654 -23.2789,-1.90932z" fill="url(#color-14)" stroke="none" stroke-width="0" stroke-linecap="butt"/><path d="M180.9501,205.6767c4.41773,1.6228 8.88683,4.48764 9.81688,5.42237c2.79018,2.80419 0.22906,5.10553 -1.72539,10.39569c-1.98192,5.36452 0.57383,9.37029 -3.45374,13.43041c-1.55286,1.56541 -3.57739,1.83696 -5.71766,2.36712c-1.21416,0.30076 -4.02268,-0.14326 -9.77138,-2.60006c-8.12614,-3.47283 -9.81986,-5.80808 -11.99598,-9.83807c-0.56783,-1.05156 -0.20723,-4.54419 0.84176,-7.18936c1.04899,-2.64517 2.91099,-5.15132 5.23585,-8.13615c2.32486,-2.98484 2.603,-5.31911 5.81983,-6.05801c3.21683,-0.7389 6.53209,0.58325 10.94982,2.20606z" data-paper-data="{&quot;origPos&quot;:null}" fill="url(#color-15)" stroke="none" stroke-width="0" stroke-linecap="butt"/><path d="M189.64843,209.99089c4.27357,2.22464 1.38932,6.84535 -0.35534,11.29501c-0.77966,-0.21486 -15.1178,-6.30324 -25.91628,-10.80849c0.49115,-0.2809 0.37923,-0.73557 0.80362,-0.94876c2.32734,-1.16913 2.52355,-5.11729 5.63436,-5.94255c3.11081,-0.82525 6.80244,0.15673 10.83221,1.57425c4.02978,1.41752 6.6872,3.62584 9.00142,4.83054z" data-paper-data="{&quot;origPos&quot;:null}" fill="url(#color-16)" stroke="none" stroke-width="0" stroke-linecap="butt"/><path d="M190.48503,215.96429c-0.98039,2.66519 -3.1141,4.33322 -4.76577,3.72565c-1.65167,-0.60757 -2.19583,-3.26066 -1.21544,-5.92584c0.98039,-2.66519 3.1141,-4.33321 4.76576,-3.72564c0.26763,0.09845 0.4952,0.2009 0.71387,0.4478c0.21867,0.2469 0.67657,0.63953 0.72585,1.17781c0.04929,0.53828 0.35636,2.72177 -0.22428,4.30022z" data-paper-data="{&quot;origPos&quot;:null,&quot;origRot&quot;:0}" fill="#ffffff" stroke="none" stroke-width="0" stroke-linecap="butt"/><path d="M169.9757,208.48703c-0.62236,1.37718 0.08186,4.1212 -1.42883,4.16364c-1.75741,0.04937 -2.05687,-1.25346 -2.05687,-1.25346c0,0 -0.06854,0.97084 -2.16079,0.45998c-0.67172,-0.16401 -0.60769,-1.36243 -0.60769,-1.36243c0,0 1.64029,-2.65976 2.73115,-4.22905c1.18866,-1.70998 2.42208,-2.14947 4.31581,-3.01589c2.51994,1.86121 0.06769,3.3331 -0.79279,5.23721z" fill="url(#color-17)" stroke="#5c3822" stroke-width="1" stroke-linecap="butt"/><path d="M182.41525,215.4994c-0.86005,2.70642 -2.91691,4.46833 -4.59413,3.93534c-1.67722,-0.53298 -2.33967,-3.15905 -1.47962,-5.86547c0.86005,-2.70642 2.91691,-4.46833 4.59413,-3.93534c1.67722,0.53298 2.33967,3.15905 1.47962,5.86547z" data-paper-data="{&quot;origPos&quot;:null,&quot;origRot&quot;:0}" fill="#ffffff" stroke="none" stroke-width="0" stroke-linecap="butt"/><path d="M181.71729,212.86445c0.50262,0.22714 0.7919,0.79973 0.85419,1.54122c0.06175,0.74125 -0.10374,1.65192 -0.51196,2.55527c-0.40822,0.90334 -0.98235,1.62934 -1.5795,2.07284c-0.59767,0.44326 -1.2186,0.60453 -1.72121,0.37739c-0.50262,-0.22714 -0.7919,-0.79973 -0.85418,-1.54122c-0.06175,-0.74125 0.10374,-1.65192 0.51196,-2.55526c0.40822,-0.90334 0.98236,-1.62934 1.5795,-2.07284c0.59767,-0.44326 1.21859,-0.60452 1.72121,-0.37739z" data-paper-data="{&quot;origPos&quot;:null}" fill="#000000" stroke="#00aaff" stroke-width="1.5" stroke-linecap="butt"/><path d="M189.66634,213.56386c0.50262,0.22714 0.7919,0.79973 0.85418,1.54122c0.06175,0.74125 -0.28369,1.7181 -0.51196,2.55527c-0.08478,0.30437 -0.19264,0.75408 -0.50866,0.91454c-0.39267,0.1894 -0.87983,0.14472 -1.31837,0.10358c-0.72515,-0.1624 -1.69825,-0.10814 -2.12809,-0.70738c-0.37163,-0.53669 0.04021,-1.34113 0.31217,-1.957c0.35126,-0.79557 0.98236,-1.62934 1.5795,-2.07284c0.59767,-0.44326 1.2186,-0.60452 1.72121,-0.37739z" data-paper-data="{&quot;origPos&quot;:null}" fill="#000000" stroke="#00aaff" stroke-width="1.5" stroke-linecap="round"/><path d="M185.171,234.95388c-0.80394,1.2569 -2.12508,1.47215 -2.98185,1.33421c-2.61487,-0.421 -5.96625,-2.04633 -7.96243,-3.78704c-1.14725,-1.00042 -0.78256,-1.87029 -0.85651,-2.04835c-0.07815,-0.18813 -1.94174,0.11871 -3.66805,-0.66141c-2.77005,-1.2518 -3.80351,-4.06951 -2.56818,-6.80312c1.35463,-2.99759 2.36751,-4.54576 2.85737,-4.42825c2.06899,0.88063 3.18874,3.95375 4.11524,5.35397c0,0 5.74447,5.27103 8.97827,6.51617c0,0 6.16519,-0.08194 7.69535,0.73529c0.75888,0.40531 0.02317,2.04696 -0.59779,2.76342c0,0 -0.94165,2.29774 -2.30799,2.40423c-3.23071,0.25179 -2.47076,-1.74287 -2.70342,-1.37912z" data-paper-data="{&quot;origPos&quot;:null}" fill="#291e16" stroke="#321f12" stroke-width="0" stroke-linecap="butt"/><path d="M191.88276,227.81448c-1.84296,3.37476 -1.94956,6.10121 -9.48062,2.53894c-3.471,-1.64182 -5.80957,-5.0821 -4.40953,-8.18019c1.40004,-3.09808 6.503,-5.3965 10.11425,-4.09182c5.26184,1.90102 6.72435,4.33395 3.7759,9.73307z" data-paper-data="{&quot;origPos&quot;:null}" fill="url(#color-18)" stroke="#c79260" stroke-width="1.5" stroke-linecap="butt"/><path d="M182.10312,213.33155c0.20594,0.06306 0.33768,0.29891 0.38453,0.62887c0.04662,0.32989 0.00827,0.75415 -0.12648,1.19418c-0.13475,0.44002 -0.34055,0.813 -0.5639,1.06022c-0.22357,0.24715 -0.46479,0.36877 -0.67073,0.3057c-0.20594,-0.06306 -0.33768,-0.29891 -0.38453,-0.62887c-0.04662,-0.32989 -0.00828,-0.75415 0.12648,-1.19418c0.13475,-0.44002 0.34055,-0.813 0.5639,-1.06021c0.22357,-0.24715 0.46479,-0.36877 0.67073,-0.3057z" data-paper-data="{&quot;origPos&quot;:null,&quot;origRot&quot;:0}" fill="#ffffff" stroke="#00aaff" stroke-width="0" stroke-linecap="butt"/><path d="M190.04198,214.19855c0.20595,0.06307 0.33769,0.29891 0.38453,0.62887c0.04662,0.32989 0.00827,0.75415 -0.12649,1.19418c-0.13475,0.44002 -0.34055,0.81301 -0.5639,1.06022c-0.22357,0.24714 -0.46479,0.36877 -0.67073,0.3057c-0.20595,-0.06307 -0.33769,-0.29891 -0.38453,-0.62887c-0.04662,-0.32989 -0.00827,-0.75415 0.12649,-1.19418c0.13475,-0.44002 0.34055,-0.81301 0.5639,-1.06022c0.22357,-0.24714 0.46479,-0.36877 0.67074,-0.30571z" data-paper-data="{&quot;origPos&quot;:null,&quot;origRot&quot;:0}" fill="#ffffff" stroke="#00aaff" stroke-width="0" stroke-linecap="butt"/><path d="M179.2917,207.04555c-0.82423,-0.11163 -0.83622,0.00652 -1.49201,0.51815c-0.67653,0.52782 -1.84895,1.07148 -1.84895,1.07148c0,0 0.09543,-2.26289 0.73781,-3.68436c0.43617,-0.96517 1.72083,-2.4104 3.36094,-2.07552c5.10862,2.10459 1.47017,6.16447 1.47017,6.16447c0,0 -1.35317,-1.89782 -2.22795,-1.99421z" fill="#291e16" stroke="none" stroke-width="0" stroke-linecap="butt"/><path d="M189.0742,209.6823c-0.82187,-0.31472 -2.89367,0.75319 -2.89367,0.75319c0,0 -1.37653,-5.27504 4.12884,-4.80777c1.61149,0.453 2.09213,2.32599 2.03811,3.38375c-0.07955,1.55786 -1.03052,3.61344 -1.03052,3.61344c0,0 -0.79352,-1.02003 -1.15342,-1.79898c-0.34886,-0.75506 -0.30543,-0.8656 -1.08933,-1.14364z" data-paper-data="{&quot;index&quot;:null,&quot;origRot&quot;:0}" fill="#291e16" stroke="none" stroke-width="0" stroke-linecap="butt"/><g stroke="none" stroke-width="0" stroke-linecap="butt"><path d="M179.17708,191.36699c0.28295,6.84412 -9.14048,4.14207 -11.66075,3.00315c-2.52027,-1.13892 -0.77317,-4.02314 1.74803,-5.95335c2.31061,-1.76898 1.47212,-1.42659 2.67105,-1.89993c0.90184,-0.35605 3.24488,-2.58704 4.12304,-2.1902c2.52027,1.13892 2.9826,3.7498 3.11863,7.04033z" data-paper-data="{&quot;origPos&quot;:null}" fill="#ffe538"/><path d="M177.51644,193.23802c-0.99748,2.20729 -6.00016,-0.03772 -7.29261,-0.62178c-1.29244,-0.58406 -0.28368,-2.00614 1.55421,-3.5757c2.5814,-2.20451 4.15709,-4.34045 4.50569,-2.95493c0.55663,2.21232 2.23019,4.94513 1.2327,7.15242z" data-paper-data="{&quot;origPos&quot;:null}" fill="#fffeeb"/><path d="M176.94956,192.5021c-0.69991,1.54879 -4.21016,-0.02647 -5.11703,-0.43628c-0.90687,-0.40982 -0.4325,-1.51315 0.85711,-2.61447c1.8113,-1.54685 2.91692,-3.04557 3.16152,-2.0734c0.39057,1.55233 1.79831,3.57537 1.0984,5.12415z" data-paper-data="{&quot;origPos&quot;:null}" fill="#ffbdbd"/></g><g stroke="none" stroke-width="0" stroke-linecap="butt"><path d="M197.85621,193.18893c0.7684,0.34724 0.00651,4.43965 0.13011,7.09226c0.13488,2.89438 -1.11963,5.71861 -3.32493,4.72203c-2.2053,-0.99659 -9.40083,-5.68501 -4.6213,-9.72473c2.29791,-1.94223 7.81612,-2.08956 7.81612,-2.08956z" data-paper-data="{&quot;index&quot;:null}" fill="#ffe538"/><path d="M196.36155,194.69551c1.22811,-0.67299 0.21912,1.08326 0.2019,4.44653c-0.01227,2.39458 -0.67606,3.97255 -1.90122,3.41889c-1.22517,-0.55366 -5.95595,-2.70727 -4.95847,-4.91455c0.99748,-2.20728 4.69681,-1.87628 6.65779,-2.95088z" data-paper-data="{&quot;origPos&quot;:null,&quot;index&quot;:null}" fill="#fffeeb"/><path d="M195.85564,196.06561c0.86173,-0.47222 -0.05131,0.68968 -0.06339,3.0496c-0.0086,1.68022 -0.76942,2.6541 -1.62909,2.26561c-0.85967,-0.38849 -4.17912,-1.89962 -3.47922,-3.44841c0.69991,-1.54879 3.79573,-1.11279 5.17171,-1.8668z" data-paper-data="{&quot;origPos&quot;:null,&quot;index&quot;:null}" fill="#ffbdbd"/></g></g><g data-paper-data="{&quot;origRot&quot;:0,&quot;index&quot;:null,&quot;origPos&quot;:null}"><path d="M155.01753,199.10189c3.76215,2.53403 10.47372,8.35588 10.47372,8.35588l-5.25108,7.60621c0,0 -4.91678,-2.29628 -9.59426,-5.44682c-4.67748,-3.15055 -7.56653,-8.56153 -5.84601,-11.11589c1.72052,-2.55437 5.54015,-2.54992 10.21763,0.60063z" data-paper-data="{&quot;origRot&quot;:0,&quot;origPos&quot;:null}" fill="url(#color-19)" stroke="none" stroke-width="0" stroke-linecap="butt"/><path d="M176.76895,208.84216c5.69397,3.00678 2.69462,7.46942 0.30639,12.90362c-2.18858,4.97989 -10.27811,6.129 -13.75723,3.84894c-4.79572,-3.14292 -1.02641,-8.7267 2.21597,-13.09431c3.2424,-4.36762 5.91822,-6.46577 11.23487,-3.65823z" data-paper-data="{&quot;origRot&quot;:0,&quot;origPos&quot;:null}" fill="url(#color-20)" stroke="#b3b092" stroke-width="1.5" stroke-linecap="butt"/><path d="M168.76977,205.31556c3.26046,2.26091 1.4083,2.42021 -3.08834,8.8187c-3.94724,5.61672 -4.42459,6.62319 -7.4924,4.70969c-2.74232,-1.71048 0.76708,-5.07417 3.26595,-8.44951c2.49887,-3.37535 5.41091,-6.39908 7.31478,-5.07885z" data-paper-data="{&quot;origRot&quot;:0,&quot;origPos&quot;:null}" fill="url(#color-21)" stroke="#b3b092" stroke-width="1.5" stroke-linecap="butt"/><path d="M176.87489,221.28372l-0.7502,-0.43872l-1.27983,-0.56593l-0.83091,-0.75972l-0.39223,-1.05081l0.45562,-1.46768" data-paper-data="{&quot;index&quot;:null,&quot;origRot&quot;:0}" fill="none" stroke="#b3b092" stroke-width="1.5" stroke-linecap="round"/><path d="M173.06884,224.80791l-0.75018,-0.43871l-1.27983,-0.56593l-0.83092,-0.75974l-0.39223,-1.05081l0.45562,-1.46768" data-paper-data="{&quot;index&quot;:null,&quot;origRot&quot;:0}" fill="none" stroke="#b3b092" stroke-width="1.5" stroke-linecap="round"/><path d="M169.64675,226.18362l-0.75019,-0.43872l-1.27985,-0.56594l-0.83089,-0.75974l-0.39223,-1.0508l0.45562,-1.46768" data-paper-data="{&quot;index&quot;:null,&quot;origRot&quot;:0}" fill="none" stroke="#b3b092" stroke-width="1.5" stroke-linecap="round"/></g></g><g stroke="none" stroke-linecap="butt"><path d="M224.95286,278.66558c0,-3.39995 5.56253,-6.15616 12.42426,-6.15616c6.86173,0 12.42426,2.75621 12.42426,6.15616c0,3.39995 -5.56253,6.15617 -12.42426,6.15617c-6.86173,0 -12.42426,-2.75622 -12.42426,-6.15617z" data-paper-data="{&quot;index&quot;:null}" fill="#5a2c0a" stroke-width="0"/><g data-paper-data="{&quot;index&quot;:null}"><path d="M235.355,272.9538c0,-7.29445 6.56479,-13.20778 14.66286,-13.20778c8.09807,0 14.66287,5.91333 14.66287,13.20778c0,7.29445 -6.56479,13.20776 -14.66287,13.20776c-8.09807,0 -14.66286,-5.91332 -14.66286,-13.20776z" data-paper-data="{&quot;origPos&quot;:null}" fill="#fcdda0" stroke-width="0"/><path d="M227.74373,260.75337c-0.57468,-11.2046 14.29844,-29.4866 23.05764,-28.98995c9.92145,0.56256 24.96323,17.38276 25.52009,25.8559c-4.92494,13.5235 -13.62775,5.93231 -25.74396,5.93231c-12.11621,0 -16.89001,6.84086 -22.83378,-2.79826z" data-paper-data="{&quot;origPos&quot;:null}" fill="#8e4108" stroke-width="0"/><path d="M243.53709,240.89697c2.8722,0 5.20056,3.27081 5.20056,7.30555c0,4.03474 -2.32837,7.30555 -5.20056,7.30555c-2.8722,0 -5.20056,-3.27081 -5.20056,-7.30555c0,-4.03475 2.32836,-7.30555 5.20056,-7.30555z" data-paper-data="{&quot;origPos&quot;:null}" fill="#ffffff" stroke-width="0"/><path d="M241.2873,242.12036c0.64875,0 1.23639,0.4419 1.6615,1.15647c0.42578,0.71389 0.68904,1.70044 0.68904,2.78907c0,1.08864 -0.26326,2.07519 -0.68904,2.78908c-0.42511,0.71456 -1.01274,1.15647 -1.6615,1.15647c-0.64875,0 -1.23639,-0.4419 -1.6615,-1.15647c-0.42578,-0.71389 -0.68904,-1.70044 -0.68904,-2.78908c0,-1.08864 0.26326,-2.07519 0.68904,-2.78907c0.42511,-0.71456 1.01274,-1.15647 1.6615,-1.15647z" data-paper-data="{&quot;origPos&quot;:null}" fill="#000000" stroke-width="1"/><path d="M256.30553,240.75846c2.87219,0 5.20056,3.2708 5.20056,7.30554c0,4.03475 -2.32837,7.30556 -5.20056,7.30556c-2.87219,0 -5.20056,-3.27082 -5.20056,-7.30556c0,-4.03474 2.32837,-7.30554 5.20056,-7.30554z" data-paper-data="{&quot;origPos&quot;:null}" fill="#ffffff" stroke-width="0"/><path d="M254.21521,242.38899c0.64875,0 1.23638,0.4419 1.6615,1.15647c0.42579,0.71389 0.68905,1.70044 0.68905,2.78908c0,1.08864 -0.26326,2.07519 -0.68905,2.78908c-0.42511,0.71456 -1.01274,1.15646 -1.6615,1.15646c-0.64875,0 -1.23638,-0.4419 -1.66149,-1.15646c-0.42579,-0.71389 -0.68904,-1.70044 -0.68904,-2.78908c0,-1.08864 0.26326,-2.07519 0.68904,-2.78908c0.42511,-0.71456 1.01274,-1.15647 1.66149,-1.15647z" data-paper-data="{&quot;origPos&quot;:null}" fill="#000000" stroke-width="1"/><path d="M264.60167,235.55789c3.29435,-0.13355 6.06732,2.84956 6.06732,5.44821c0,4.68974 -0.47933,3.9592 -0.47933,3.9592c0,0 -1.29964,-3.59239 -6.08329,-4.4545c-4.78365,-0.86211 -11.76317,3.83688 -11.76317,1.23823c0,-2.59865 8.96411,-6.05759 12.25846,-6.19114z" data-paper-data="{&quot;origPos&quot;:null}" fill="#000000" stroke-width="0"/><path d="M234.49803,235.20111c3.29434,0.13356 12.25847,3.5925 12.25847,6.19115c0,2.59865 -6.97951,-2.10034 -11.76317,-1.23823c-4.78366,0.86211 -6.0833,4.4545 -6.0833,4.4545c0,0 -0.47932,0.73054 -0.47932,-3.9592c0,-2.59865 2.77298,-5.58177 6.06732,-5.44821z" data-paper-data="{&quot;origPos&quot;:null,&quot;index&quot;:null}" fill="#000000" stroke-width="0"/><path d="M245.54098,236.72506c0.07285,-0.32779 0.40064,-0.25495 0.40064,-0.25495l0.40548,0.47015c0.0009,1.72594 0.32471,4.17664 1.61201,5.46393c1.14387,1.20103 2.61065,2.13012 3.75906,0.4075c0.88752,-1.33129 0.94763,-2.95856 1.53545,-4.42813c0,0 0.12471,-0.31178 0.43648,-0.18707c0.31178,0.12471 0.18706,0.43648 0.18706,0.43648c-0.60629,1.51572 -0.6729,3.16028 -1.6002,4.55124c-1.45628,2.18443 -3.28817,1.06146 -4.79273,-0.30514c-1.38344,-1.38344 -1.78912,-3.91233 -1.80801,-5.80555c-0.08511,-0.05416 -0.17745,-0.15849 -0.13523,-0.34846z" fill="#5a2c0a" stroke-width="0.5"/><path d="M235.45937,261.09443l-0.15455,-0.1167c2.20503,-0.73501 4.10843,-1.90888 6.40308,-2.36781c2.79381,-0.55876 5.35487,-0.7937 8.19883,-0.7937c1.55919,0 3.22666,-0.16036 4.77854,0.01505c1.45515,0.16447 2.87879,0.69761 4.36753,0.69761c2.38887,0 5.06651,1.04303 7.04957,2.36507c0,0 0.41908,0.27939 0.1397,0.69849c-0.2794,0.4191 -0.69849,0.1397 -0.69849,0.1397c-1.83008,-1.22006 -4.29943,-2.19589 -6.49078,-2.19589c-1.5804,0 -3.06818,-0.56052 -4.61185,-0.72769c-1.46259,-0.15839 -3.06273,0.01504 -4.53421,0.01504c-2.78551,0 -5.26491,0.22686 -8.00127,0.77414c-2.30049,0.4601 -4.0232,1.58272 -6.28208,2.33568l-0.15455,0.16835c0,0 -0.50367,0.00473 -0.5084,-0.49894c-0.00473,-0.50366 0.49893,-0.50839 0.49893,-0.50839z" data-paper-data="{&quot;origPos&quot;:null}" fill="#5a2c0a" stroke-width="0.5"/><path d="M259.26658,258.46245l7.98167,-5.55867l-1.4253,7.41155z" data-paper-data="{&quot;origPos&quot;:null}" fill="#ffffff" stroke-width="0"/><path d="M236.23957,260.68012l-1.4253,-7.41156l7.98168,5.55867z" data-paper-data="{&quot;origPos&quot;:null,&quot;index&quot;:null}" fill="#ffffff" stroke-width="0"/><path d="M253.5996,244.97458c-0.55636,0 -1.00738,-0.45101 -1.00738,-1.00737c0,-0.55636 0.45102,-1.00737 1.00738,-1.00737c0.55636,0 1.00737,0.45101 1.00737,1.00737c0,0.55636 -0.45101,1.00737 -1.00737,1.00737z" data-paper-data="{&quot;origPos&quot;:null}" fill="#ffffff" stroke-width="0"/><path d="M239.60835,243.63142c0,-0.61818 0.50114,-1.1193 1.1193,-1.1193c0.61818,0 1.1193,0.50114 1.1193,1.1193c0,0 -0.32545,1.09149 -0.87024,1.09149c-0.54478,0 -1.36837,-0.47332 -1.36837,-1.09149z" data-paper-data="{&quot;origPos&quot;:null}" fill="#ffffff" stroke-width="0"/></g><path d="M262.00173,277.65486c7.109,0 12.87198,2.60587 12.87198,5.82038c0,3.2145 -5.76298,5.82037 -12.87198,5.82037c-7.109,0 -12.87198,-2.60586 -12.87198,-5.82037c0,-3.2145 5.76298,-5.82038 12.87198,-5.82038z" data-paper-data="{&quot;index&quot;:null}" fill="#5a2c0a" stroke-width="0"/></g><g stroke="none"><path d="M355.59651,245.11994l-1.067,-1.3772l0.9248,-2.827l1.6361,-0.7248h16.8589l7.3981,-17.0342l1.6361,-1.3772l1.6361,0.0724l1.9917,1.5222l7.9671,16.5993l17.0724,-0.2899l1.7073,1.0148l1.3515,1.6672l-1.3515,2.9719l-9.7455,11.5253l2.8454,17.4691l0.1422,2.7544l-1.7783,0.9423l-3.13,-0.5798l-16.361,-11.5978l-13.9424,13.0475l-3.1299,0.5799l-2.2764,-1.2323l-0.7824,-3.4068l1.6361,-16.2369z" fill="url(#color-22)" stroke-width="1.43627" stroke-linecap="round"/><path d="M358.90756,245.96554l-0.9555,-1.2103l0.8281,-2.4845l1.4652,-0.637h15.0978l6.6252,-14.9704l1.4652,-1.2104l1.4652,0.0637l1.7837,1.3378l7.1348,14.5882l15.289,-0.2548l1.5289,0.8918l1.2103,1.4652l-1.2103,2.6119l-8.7275,10.1289l2.5482,15.3526l0.1274,2.4208l-1.5926,0.8281l-2.803,-0.5096l-14.6519,-10.1926l-12.4859,11.4667l-2.803,0.5096l-2.0385,-1.083l-0.7007,-2.9941l1.4651,-14.2696z" fill="url(#color-23)" stroke-width="1.27408" stroke-linecap="round"/><g stroke-width="2.7674"><path d="M388.7788,244.42154c0.7022,-0.0271 1.402,0.5542 1.6968,1.2711c0.5348,1.3011 0.5923,2.8523 0.5523,4.3011c-0.0275,1.3373 -0.2399,2.7198 -0.7497,3.9156c-0.2924,0.7018 -0.8196,1.512 -1.4994,1.506c-0.6547,-0.006 -1.212,-0.5121 -1.5718,-1.4217c-0.4598,-1.1506 -0.6772,-2.5301 -0.6772,-4.1505c0,-1.6205 0.1674,-2.9457 0.6772,-4.1505c0.3348,-0.7952 0.9746,-1.2982 1.5718,-1.2711z" fill="url(#color-24)" stroke-linecap="round"/><path d="M388.88795,245.27333c0.3624,0 0.6897,0.1777 0.9271,0.4638c0.2374,0.2862 0.3849,0.6808 0.3849,1.1175c0,0.4367 -0.1475,0.8313 -0.3849,1.1174c-0.2374,0.2862 -0.5647,0.4639 -0.9271,0.4639c-0.3623,0 -0.6897,-0.1777 -0.9271,-0.4639c-0.2374,-0.2861 -0.3848,-0.6807 -0.3848,-1.1174c0,-0.4367 0.1474,-0.8313 0.3848,-1.1175c0.2374,-0.2861 0.5648,-0.4638 0.9271,-0.4638z" fill="#ffffff" stroke-linecap="butt"/></g><g stroke-width="2.7674"><path d="M379.5288,244.37154c0.7022,-0.0271 1.402,0.5542 1.6968,1.2711c0.5348,1.3011 0.5923,2.8523 0.5523,4.3011c-0.0275,1.3373 -0.2399,2.7198 -0.7497,3.9156c-0.2924,0.7018 -0.8196,1.512 -1.4994,1.506c-0.6547,-0.006 -1.212,-0.5121 -1.5718,-1.4217c-0.4598,-1.1506 -0.6772,-2.5301 -0.6772,-4.1505c0,-1.6205 0.1674,-2.9457 0.6772,-4.1505c0.3348,-0.7952 0.9746,-1.2982 1.5718,-1.2711z" fill="url(#color-25)" stroke-linecap="round"/><path d="M379.688,245.17334c0.3624,0 0.6897,0.1777 0.9271,0.4638c0.2374,0.2862 0.3849,0.6808 0.3849,1.1175c0,0.4367 -0.1475,0.8313 -0.3849,1.1174c-0.2374,0.2862 -0.5647,0.4639 -0.9271,0.4639c-0.3623,0 -0.6897,-0.1777 -0.9271,-0.4639c-0.2374,-0.2861 -0.3848,-0.6807 -0.3848,-1.1174c0,-0.4367 0.1474,-0.8313 0.3848,-1.1175c0.2374,-0.2861 0.5648,-0.4638 0.9271,-0.4638z" fill="#ffffff" stroke-linecap="butt"/></g></g><g stroke-linecap="butt"><g><g><path d="M473.57407,147.06393c0,10.03683 -11.78646,13.89722 -26.3258,13.89722c-14.53934,0 -26.32579,-3.86039 -26.32579,-13.89722c0,-10.03683 11.78646,-22.44935 26.32579,-22.44935c14.53933,0 26.3258,12.41252 26.3258,22.44935z" data-paper-data="{&quot;origPos&quot;:null}" fill="url(#color-26)" stroke="#cb0000" stroke-width="2"/><path d="M437.70305,137.27522c0,-4.89111 3.96503,-8.85613 8.85614,-8.85613c4.89112,0 8.85613,3.96503 8.85613,8.85613c0,4.89112 -3.96503,8.85614 -8.85613,8.85614c-4.89111,0 -8.85614,-3.96503 -8.85614,-8.85614z" data-paper-data="{&quot;origPos&quot;:null}" fill="url(#color-27)" stroke="#000000" stroke-width="0"/><path d="M462.9047,146.39013c0,-4.89111 2.28125,-8.85613 5.09532,-8.85613c2.81407,0 5.09531,3.96503 5.09531,8.85613c0,4.89112 -2.28125,8.85614 -5.09531,8.85614c-2.81407,0 -5.09532,-3.96503 -5.09532,-8.85614z" data-paper-data="{&quot;origPos&quot;:null}" fill="url(#color-28)" stroke="#000000" stroke-width="0"/><path d="M421.47875,146.25269c0,-4.89111 2.28125,-8.85613 5.09531,-8.85613c2.81407,0 5.09531,3.96503 5.09531,8.85613c0,4.89112 -2.28125,8.85614 -5.09531,8.85614c-2.81407,0 -5.09531,-3.96503 -5.09531,-8.85614z" data-paper-data="{&quot;origPos&quot;:null}" fill="url(#color-29)" stroke="#000000" stroke-width="0"/><path d="M470.38427,153.71275c0,0 -36.17186,-12.97552 -39.90532,-21.89942c-0.63579,-0.69553 4.21071,-3.86005 8.66469,-5.51969c3.40795,-1.26987 7.34373,-1.2029 9.3647,-1.2029c1.90366,0 7.1137,1.01214 9.61202,2.22786c5.47385,2.66368 7.75914,4.66594 11.57602,9.4768c1.57528,1.98551 3.3248,5.35706 3.4842,9.21325c0.15939,3.85619 -2.7963,7.70409 -2.7963,7.70409z" data-paper-data="{&quot;origPos&quot;:null}" fill="url(#color-30)" stroke="none" stroke-width="0"/><path d="M446.87526,171.62503c-8.87856,0.0014 -12.17341,-4.04505 -12.67767,-6.05456c-1.12727,-2.06329 -1.17989,-4.88809 -1.17989,-7.03762c0,-6.00904 6.29521,-8.66848 14.06074,-8.66848c7.76553,0 14.06074,2.86262 14.06074,8.87165c0,2.36483 -0.42998,4.58595 -1.20868,6.62036c-1.36406,2.34174 -3.56716,6.26713 -13.05522,6.26863z" data-paper-data="{&quot;index&quot;:null,&quot;origPos&quot;:null}" fill="url(#color-31)" stroke="#b57b42" stroke-width="2"/><path d="M433.01769,158.53285c0,-6.00904 6.29521,-8.66848 14.06074,-8.66848c7.76553,0 14.06074,2.86262 14.06074,8.87165c0,1.07241 -28.12148,0.51354 -28.12148,-0.20317z" data-paper-data="{&quot;index&quot;:null,&quot;origPos&quot;:null}" fill="url(#color-32)" stroke="none" stroke-width="0"/><path d="M473.57407,147.06393c0,6.48462 -4.89057,10.4849 -12.32353,12.34392c-0.74494,0.18632 2.33786,-9.66494 -14.35565,-9.63761c-16.09824,0.02635 -13.69706,9.62511 -13.92222,9.5643c-7.25573,-1.95947 -12.05018,-5.86614 -12.05018,-12.27062c0,-10.03683 11.78646,-22.44935 26.32579,-22.44935c14.53933,0 26.3258,12.41252 26.3258,22.44935z" data-paper-data="{&quot;origPos&quot;:null}" fill="none" stroke="#cb0000" stroke-width="2"/><g data-paper-data="{&quot;origPos&quot;:null}" stroke="none" stroke-width="0"><path d="M444.12474,160.30323c0,2.43737 -0.67263,4.41323 -1.50237,4.41323c-0.82975,0 -1.50238,-1.97587 -1.50238,-4.41323c0,-2.43737 0.67264,-4.41324 1.50238,-4.41324c0.82975,0 1.50237,1.97587 1.50237,4.41324z" data-paper-data="{&quot;origPos&quot;:null}" fill="#000000"/><path d="M441.91812,157.69756c0,-0.38894 0.3153,-0.70424 0.70424,-0.70424c0.38894,0 0.70424,0.3153 0.70424,0.70424c0,0.38894 -0.3153,0.70424 -0.70424,0.70424c-0.38894,0 -0.70424,-0.3153 -0.70424,-0.70424z" fill="#ffffff"/><path d="M453.19016,160.44408c0,2.43737 -0.67264,4.41323 -1.50237,4.41323c-0.82975,0 -1.50238,-1.97587 -1.50238,-4.41323c0,-2.43737 0.67263,-4.41324 1.50238,-4.41324c0.82975,0 1.50237,1.97587 1.50237,4.41324z" data-paper-data="{&quot;origPos&quot;:null}" fill="#000000"/><path d="M450.98356,157.83839c0,-0.38894 0.3153,-0.70424 0.70424,-0.70424c0.38894,0 0.70424,0.3153 0.70424,0.70424c0,0.38894 -0.3153,0.70424 -0.70424,0.70424c-0.38894,0 -0.70424,-0.3153 -0.70424,-0.70424z" fill="#ffffff"/></g></g><path d="M425.91757,162.77825h43.65v43.65h-43.65z" fill="#ffd600" stroke="none" stroke-width="0.90186"/><path d="M444.97959,196.22622h7.7345v5.9899h-7.7345z" fill="#dbb600" stroke="none" stroke-width="0.83793"/><path d="M434.50113,181.29403l0.1745,-8.6476l3.2566,-3.0795l23.3198,-0.0421l3.2566,2.7841l0.4071,10.5037l-2.8495,2.278l-7.153,0.0843l-1.9772,2.1514l0.0581,4.3028h-7.7345l0.1163,-8.2681l2.8496,-2.7841l8.316,-0.1265l-0.1163,-5.3152l-14.2477,-0.1265l-0.2327,6.3697z" fill="#dbb600" stroke="none" stroke-width="1.01601"/><path d="M433.04247,179.83535l0.1745,-8.6476l3.2566,-3.0795l23.3198,-0.0421l3.2566,2.7841l0.4071,10.5037l-2.8495,2.278l-7.153,0.0843l-1.9772,2.1514l0.0581,4.3028h-7.7345l0.1163,-8.2681l2.8496,-2.7841l8.316,-0.1265l-0.1163,-5.3152l-14.2477,-0.1265l-0.2327,6.3697z" fill="#ffffff" stroke="none" stroke-width="1.01601"/><path d="M443.70096,194.92765h7.7345v5.9899h-7.7345z" fill="#ffffff" stroke="none" stroke-width="0.83793"/></g><path d="M428.23125,203.04095c0.331,0 0.631,0.134 0.848,0.352c0.218,0.217 0.352,0.517 0.352,0.848c0,0.331 -0.134,0.631 -0.352,0.848c-0.217,0.218 -0.517,0.352 -0.848,0.352c-0.331,0 -0.631,-0.134 -0.848,-0.352c-0.218,-0.217 -0.352,-0.517 -0.352,-0.848c0,-0.331 0.134,-0.631 0.352,-0.848c0.217,-0.218 0.517,-0.352 0.848,-0.352z" fill="#a88801" stroke="none" stroke-width="1"/><path d="M467.23125,203.34095c0.331,0 0.631,0.134 0.848,0.352c0.218,0.217 0.352,0.517 0.352,0.848c0,0.331 -0.134,0.631 -0.352,0.848c-0.217,0.218 -0.517,0.352 -0.848,0.352c-0.331,0 -0.631,-0.134 -0.848,-0.352c-0.218,-0.217 -0.352,-0.517 -0.352,-0.848c0,-0.331 0.134,-0.631 0.352,-0.848c0.217,-0.218 0.517,-0.352 0.848,-0.352z" fill="#a88801" stroke="none" stroke-width="1"/><path d="M467.63124,163.64095c0.331,0 0.631,0.134 0.848,0.352c0.218,0.217 0.352,0.517 0.352,0.848c0,0.331 -0.134,0.631 -0.352,0.848c-0.217,0.218 -0.517,0.352 -0.848,0.352c-0.331,0 -0.631,-0.134 -0.848,-0.352c-0.218,-0.217 -0.352,-0.517 -0.352,-0.848c0,-0.331 0.134,-0.631 0.352,-0.848c0.217,-0.218 0.517,-0.352 0.848,-0.352z" fill="#a88801" stroke="none" stroke-width="1"/><path d="M428.13124,163.64095c0.331,0 0.631,0.134 0.848,0.352c0.218,0.217 0.352,0.517 0.352,0.848c0,0.331 -0.134,0.631 -0.352,0.848c-0.217,0.218 -0.517,0.352 -0.848,0.352c-0.331,0 -0.631,-0.134 -0.848,-0.352c-0.218,-0.217 -0.352,-0.517 -0.352,-0.848c0,-0.331 0.134,-0.631 0.352,-0.848c0.217,-0.218 0.517,-0.352 0.848,-0.352z" fill="#a88801" stroke="none" stroke-width="1"/></g><g stroke="none"><path d="M387.27411,33.26465l-0.64183,-1.61964l1.67463,-2.45821l1.77314,-0.24112l16.19362,4.68926l11.84418,-14.30424l1.9546,-0.86778l1.5514,0.52462l1.48971,2.01612l3.03565,18.16029l16.47933,4.47019l1.35766,1.44964l0.83444,1.97733l-2.12479,2.47871l-12.56666,8.35981l-2.12587,17.57118l-0.62954,2.68526l-1.97022,0.41049l-2.84522,-1.42752l-12.48947,-15.6909l-17.02134,8.65458l-3.16769,-0.31356l-1.84381,-1.81685l0.19607,-3.48998l6.08779,-15.14109z" data-paper-data="{&quot;origRot&quot;:0}" fill="url(#color-33)" stroke-width="1.43627" stroke-linecap="round"/><path d="M390.21934,34.99786l-0.58115,-1.42831l1.48648,-2.15612l1.58456,-0.20432l14.50202,4.19942l10.52774,-12.53686l1.74405,-0.75509l1.38966,0.46873l1.34121,1.78114l2.79558,15.99705l14.75654,4.00785l1.22052,1.28187l0.755,1.74402l-1.88903,2.17219l-11.20043,7.30166l-1.82264,15.45554l-0.55097,2.36071l-1.76009,0.35244l-2.55065,-1.26914l-11.23867,-13.86577l-15.18262,7.54128l-2.83413,-0.29016l-1.65682,-1.60727l0.15975,-3.07085l5.37634,-13.29898z" data-paper-data="{&quot;origRot&quot;:0}" fill="url(#color-34)" stroke-width="1.27408" stroke-linecap="round"/><g data-paper-data="{&quot;origPos&quot;:null,&quot;origRot&quot;:0}" stroke-width="2.7674"><path d="M419.34122,41.8234c0.68203,0.16928 1.19253,0.92229 1.27629,1.6929c0.1518,1.39851 -0.22443,2.90449 -0.66583,4.28499c-0.39838,1.27688 -0.98694,2.54574 -1.80923,3.55256c-0.47607,0.59278 -1.20782,1.22436 -1.85912,1.02952c-0.6272,-0.18787 -1.02173,-0.82901 -1.11433,-1.80279c-0.12162,-1.23309 0.05326,-2.61862 0.50397,-4.17508c0.45074,-1.55655 0.98013,-2.7829 1.80493,-3.79835c0.54277,-0.6707 1.29723,-0.97589 1.86333,-0.78375z" fill="url(#color-35)" stroke-linecap="round"/><path d="M419.20924,42.67196c0.3481,0.1008 0.61306,0.36253 0.76151,0.70337c0.14843,0.34094 0.18035,0.76099 0.05888,1.18046c-0.12147,0.41947 -0.3729,0.75747 -0.68051,0.96625c-0.30764,0.20887 -0.67145,0.28852 -1.01955,0.18772c-0.348,-0.10077 -0.61306,-0.36253 -0.76148,-0.70346c-0.14845,-0.34084 -0.18028,-0.76087 -0.05881,-1.18034c0.12147,-0.41947 0.37281,-0.7575 0.68045,-0.96637c0.30761,-0.20878 0.67152,-0.2884 1.01952,-0.18763z" fill="#ffffff" stroke-linecap="butt"/></g><g data-paper-data="{&quot;origPos&quot;:null,&quot;origRot&quot;:0}" stroke-width="2.7674"><path d="M410.47016,39.20251c0.68203,0.16928 1.19253,0.92229 1.27629,1.6929c0.1518,1.39851 -0.22443,2.90449 -0.66583,4.28499c-0.39838,1.27688 -0.98694,2.54574 -1.80923,3.55256c-0.47607,0.59278 -1.20782,1.22436 -1.85912,1.02952c-0.6272,-0.18787 -1.02173,-0.82901 -1.11433,-1.80279c-0.12162,-1.23309 0.05326,-2.61862 0.50397,-4.17508c0.45074,-1.55655 0.98013,-2.7829 1.80493,-3.79835c0.54277,-0.6707 1.29723,-0.97589 1.86333,-0.78375z" fill="url(#color-36)" stroke-linecap="round"/><path d="M410.40005,40.01694c0.3481,0.1008 0.61306,0.36253 0.76151,0.70337c0.14843,0.34094 0.18035,0.76099 0.05888,1.18046c-0.12147,0.41947 -0.3729,0.75747 -0.68051,0.96625c-0.30764,0.20887 -0.67145,0.28852 -1.01955,0.18772c-0.348,-0.10077 -0.61306,-0.36253 -0.76148,-0.70346c-0.14845,-0.34084 -0.18028,-0.76087 -0.05881,-1.18034c0.12147,-0.41947 0.37281,-0.7575 0.68045,-0.96637c0.30761,-0.20878 0.67152,-0.2884 1.01952,-0.18763z" fill="#ffffff" stroke-linecap="butt"/></g></g><g><path d="M34.34275,56.8066c0.46274,-0.96159 1.03715,-1.9172 1.81675,-2.64626c0.69132,-0.64636 1.5672,-1.61473 2.47883,-1.37197c1.24102,0.32992 2.70248,1.45457 2.7506,2.75535c0.05376,1.51945 -1.27578,2.93991 -2.51239,3.83168c-1.0894,0.78549 -2.58966,0.63572 -3.88888,0.8256c-0.3714,0.05539 -0.82458,0.14456 -1.08815,-0.09685c-0.22518,-0.20665 -0.12056,-0.62699 -0.08092,-0.9383c0.12021,-0.79333 0.19481,-1.62407 0.52416,-2.35925z" data-paper-data="{&quot;index&quot;:null,&quot;origRot&quot;:0,&quot;origPos&quot;:null}" fill="#e1c60e" stroke="none" stroke-width="0.88905" stroke-linecap="round"/><path d="M32.71942,51.48191l3.97547,2.7711l-3.78857,2.41966l-0.57387,-0.60753z" data-paper-data="{&quot;index&quot;:null,&quot;origRot&quot;:0,&quot;origPos&quot;:null}" fill="#efd071" stroke="none" stroke-width="0.88905" stroke-linecap="round"/><path d="M25.66745,34.06684l-1.37723,5.6395l-2.98687,-4.32833l0.26437,-0.48845z" data-paper-data="{&quot;index&quot;:null,&quot;origRot&quot;:0,&quot;origPos&quot;:null}" fill="#efd071" stroke="none" stroke-width="0.88905" stroke-linecap="round"/><path d="M23.88469,42.67695l2.46984,4.31032l-4.10843,0.1641l-0.52098,-0.76654z" data-paper-data="{&quot;index&quot;:null,&quot;origRot&quot;:0,&quot;origPos&quot;:null}" fill="#efd071" stroke="none" stroke-width="0.88905" stroke-linecap="round"/><path d="M25.57161,34.04132c0.51285,-0.71953 0.72912,2.50278 1.35912,3.58202c1.72991,2.96354 3.51005,5.93636 5.67975,8.56846c2.10443,2.6733 4.87665,4.75202 7.10688,7.30332c0.55769,0.63772 0.36677,0.91373 -0.10165,0.96443c-1.69734,0.14653 -3.47238,-0.10078 -4.93859,-0.79946c-2.43816,-1.16158 -4.80237,-2.66712 -6.66919,-4.59693c-1.81277,-2.0125 -3.73139,-4.26448 -4.1863,-7.03367c-0.42018,-2.55775 0.75085,-6.56497 1.74998,-7.98816z" data-paper-data="{&quot;index&quot;:null,&quot;origRot&quot;:0,&quot;origPos&quot;:null}" fill="#2a952a" stroke="none" stroke-width="0.84221" stroke-linecap="round"/><path d="M25.56601,33.77258c0.73548,-0.36111 2.73248,4.08497 3.97229,6.15386c1.18968,1.98456 1.94318,4.25254 3.35847,6.08271c1.2928,1.67106 3.34902,2.66581 4.80407,4.22428c0.53593,0.64811 1.54755,1.90812 1.08158,2.29915c-0.62807,0.5261 -1.86384,0.39585 -3.40647,-0.39413c-1.54285,-0.78977 -3.64975,-2.38102 -5.11521,-3.96868c-1.7065,-1.84964 -3.54377,-3.91917 -4.33574,-6.35589c-0.82075,-2.52614 -1.06557,-7.64913 -0.35897,-8.04131z" data-paper-data="{&quot;index&quot;:null,&quot;origRot&quot;:0,&quot;origPos&quot;:null}" fill="#ffffff" stroke="none" stroke-width="0.88905" stroke-linecap="round"/><g data-paper-data="{&quot;index&quot;:null,&quot;origRot&quot;:0,&quot;origPos&quot;:null}" stroke="none" stroke-width="0.88905" stroke-linecap="round"><path d="M51.04434,38.25286c0.5352,-1.87766 2.29046,-3.31292 3.92589,-4.39815c1.32829,-0.88161 3.0512,-1.25035 4.6433,-1.16676c1.6347,0.08551 3.62727,0.336 4.71118,1.58714c1.03201,1.19118 1.44893,3.26339 0.80256,4.72035c-0.73023,1.64443 -2.87236,2.1904 -4.38933,3.16176c-1.90615,1.20993 -3.46025,2.46801 -5.45568,3.18238c-1.06572,0.35332 -2.81629,0.91261 -3.43137,-0.08193c-1.23308,-1.99641 -1.40739,-4.72952 -0.80655,-7.00478z" fill="#f0d20c"/><path d="M54.75598,45.27379c0.75504,-1.798 2.65948,-2.90275 4.25467,-4.02463c2.13478,-1.50132 4.45521,-2.73583 6.80613,-3.84928c0.60191,-0.25797 0.8572,-0.09821 1.14592,0.15622c0.28523,0.25127 0.38153,0.71462 0.3367,1.08236c-0.18956,1.18529 -0.87907,2.26631 -1.01927,3.44199c-0.05029,0.42385 0.65301,0.87673 0.41694,1.21232c-0.8369,1.18609 -2.06394,2.0611 -3.238,2.91972c-1.17176,0.81156 -2.37755,1.66132 -3.76307,2.06325c-1.17682,0.34126 -2.63028,0.64057 -3.69247,0.01407c-0.91251,-0.57335 -1.66694,-2.01751 -1.24753,-3.01602z" fill="#f0d20c"/><path d="M65.9736,42.21685l0.33719,-1.53007l1.06696,-0.06744l1.50377,0.54768l0.11297,0.30611l-0.99792,1.01731l-1.58547,1.14987z" fill="#f3f3f3"/><path d="M66.46133,40.09502l0.25021,-1.16807l1.07725,0.03809l1.50377,0.54768l0.11297,0.30611l-0.99792,1.01731l-1.58547,1.14992z" fill="#f3f3f3"/><path d="M66.84752,38.58217l0.21173,-0.92258l1.24313,-0.10019l1.50377,0.54768l0.11297,0.30611l-0.99792,1.01731l-1.58547,1.14987z" fill="#f3f3f3"/></g><g data-paper-data="{&quot;index&quot;:null,&quot;origRot&quot;:0,&quot;origPos&quot;:null}" stroke="none"><g fill="#fdde09" stroke-linecap="round"><path d="M44.80966,29.53476c-1.18726,-0.57223 -2.20798,-1.90629 -2.26774,-3.21133c-0.0549,-1.22647 0.91395,-2.56946 1.99971,-3.24984c1.56531,-0.97383 3.56953,-1.15436 5.42111,-1.35308c2.01725,-0.21593 4.0842,-0.17458 6.10006,-0.03536c1.93059,0.2002 4.65144,-0.51914 5.70207,1.05001c1.04979,1.56919 0.14606,4.52139 -1.44391,5.48318c-2.91535,1.75978 -6.80802,1.48305 -10.1169,1.7458c-1.79679,0.14185 -3.77688,0.34985 -5.3944,-0.4294z" stroke-width="1.07059"/><path d="M58.95748,20.66778c1.05164,-1.13973 2.73508,-1.82021 4.28631,-1.82597c1.09685,-0.00403 2.19027,0.87932 2.81605,1.79925c0.56809,0.83452 0.24818,2.07192 0.52124,3.07227c0.13661,0.50583 0.70317,0.84648 0.75952,1.36265c0.07622,0.72037 0.02798,1.62665 -0.46489,2.2203c-0.46416,0.55967 -1.49337,0.30986 -2.07028,0.83282c-0.48697,0.43956 -0.25382,1.42181 -0.82841,1.78636c-0.64307,0.40675 -1.55931,0.32909 -2.28384,0.09757c-1.0176,-0.32519 -2.00211,-0.89681 -2.67577,-1.77159c-0.7701,-1.00225 -1.25331,-2.29282 -1.30627,-3.56559c-0.05783,-1.39475 0.29951,-2.97907 1.24634,-4.00807z" stroke-width="1.26146"/></g><path d="M55.20248,20.34264l3.65651,-0.29876l0.77777,9.88929l-3.65653,0.29873z" fill="#211c1b" stroke-width="0.86311" stroke-linecap="butt"/></g><g data-paper-data="{&quot;index&quot;:null,&quot;origRot&quot;:0,&quot;origPos&quot;:null}" stroke="none" stroke-width="0.88905" stroke-linecap="round"><path d="M38.10619,50.5787c1.12941,-1.60524 2.612,-3.32069 4.50353,-3.80453c2.29082,-0.53856 5.01817,-0.28981 6.98022,0.99723c0.97738,0.64194 0.37057,2.37661 -0.01166,3.4323c-0.7685,1.97521 -2.06846,3.49447 -3.32992,5.36689c-1.01229,1.48992 -1.61651,3.61637 -3.28024,4.30151c-1.47404,0.60641 -3.53407,0.13319 -4.69669,-0.93091c-1.22116,-1.11763 -1.41718,-3.1163 -1.45814,-4.75271c-0.04013,-1.59377 0.37544,-3.30599 1.29291,-4.60977z" fill="#f0d20c"/><path d="M45.38773,54.81918c1.16494,-1.56401 2.32123,-3.4376 4.13915,-4.14335c1.00956,-0.39206 2.43263,0.40149 2.98089,1.32929c0.59729,1.07885 0.25847,2.52361 -0.11472,3.69072c-0.43955,1.374 -1.32186,2.55623 -2.16507,3.70543c-0.89032,1.15023 -1.79847,2.35292 -3.00693,3.15718c-0.34187,0.2268 -0.77542,-0.48853 -1.2005,-0.44984c-1.17904,0.10813 -2.27846,0.76791 -3.4685,0.92506c-0.3688,0.03482 -0.82935,-0.07408 -1.07278,-0.36608c-0.24644,-0.29552 -0.39918,-0.55508 -0.12492,-1.14975c1.17714,-2.31967 2.47443,-4.6056 4.03338,-6.69867z" fill="#f0d20c"/><path d="M47.57628,62.28215l-1.19266,1.55354l-1.04413,0.96982l-0.30294,-0.1213l-0.50646,-1.51811l0.09653,-1.06475l1.53866,-0.29532z" fill="#f3f3f3"/><path d="M45.92883,62.66581l-1.19269,1.55355l-1.04413,0.96982l-0.30294,-0.1213l-0.50646,-1.51811l-0.00873,-1.07791l1.17446,-0.21828z" fill="#f3f3f3"/><path d="M44.50969,63.1409l-1.19266,1.55354l-1.04413,0.96982l-0.30294,-0.1213l-0.50646,-1.51811l0.13405,-1.23994l0.92801,-0.1865z" fill="#f3f3f3"/></g><g data-paper-data="{&quot;index&quot;:null,&quot;origRot&quot;:0,&quot;origPos&quot;:null}" stroke-linecap="round"><path d="M34.65325,27.65732c3.17885,-2.74662 7.56908,-5.15849 11.42722,-4.87888c4.04734,0.29199 7.0765,3.7161 9.41366,6.73092c1.72835,2.22959 2.82353,5.184 2.34518,8.37979c-0.47832,3.19576 -2.55184,6.68315 -4.98739,9.27371c-2.03955,2.16913 -4.89878,3.99726 -7.69526,4.36776c-3.54109,0.40209 -7.65168,0.03853 -10.02371,-2.20777c-3.16265,-2.99557 -5.12644,-7.61592 -5.17655,-12.24091c-0.03802,-3.24252 2.06269,-7.01479 4.69687,-9.42462z" fill="#f0d20c" stroke="none" stroke-width="0.9567"/><path d="M39.28378,32.63523c2.39886,-2.13612 4.98177,-4.18328 7.87845,-5.57125c0.93398,-0.39999 2.2421,-0.12439 3.09186,0.45017c1.55607,1.07268 2.87863,2.62332 3.75858,4.27473c1.06027,1.99078 2.14979,3.98565 1.76101,6.45661c-0.38912,2.47062 -1.72303,5.06373 -3.90933,7.19123c-2.18631,2.12749 -4.81482,3.39022 -7.29512,3.71184c-2.48064,0.32127 -4.58642,-0.5876 -6.40621,-1.93637c-1.66866,-1.23782 -2.6514,-3.25617 -3.45473,-5.13579c-0.46655,-1.09718 -0.81976,-2.4064 -0.37191,-3.36303c1.16992,-2.3817 3.00016,-4.34428 4.94739,-6.07815z" fill="#edce73" stroke="none" stroke-width="1.2339"/><path d="M55.56557,37.0337c0,0 -1.27146,2.21083 -2.15139,3.13371c-2.48059,2.46332 -5.07511,4.8281 -7.88557,6.98001c-1.12892,0.86414 -3.83298,1.88069 -3.83298,1.88069" fill="none" stroke="#938047" stroke-width="1.77809"/><path d="M54.21376,32.66224c0,0 -2.03342,3.07391 -3.16533,4.4671c-1.17434,1.42985 -2.41802,2.83974 -3.74458,3.99058c-1.60021,1.38796 -3.35634,2.54301 -5.14694,3.73717c-1.23139,0.81826 -3.83777,2.23208 -3.83777,2.23208" fill="none" stroke="#938047" stroke-width="1.77809"/><path d="M52.32327,29.65723c0,0 -1.3603,2.36941 -2.21394,3.42571c-1.38646,1.70834 -2.86995,3.30126 -4.51633,4.74153c-1.249,1.184 -2.61144,2.19868 -4.14253,3.10657c-1.72758,1.01906 -5.42461,2.62046 -5.42461,2.62046" fill="none" stroke="#938047" stroke-width="1.77809"/></g><g data-paper-data="{&quot;index&quot;:null,&quot;origRot&quot;:0,&quot;origPos&quot;:null}" stroke="none"><g fill="#fdde09" stroke-linecap="round"><path d="M30.90775,36.83409c1.27788,0.27153 2.42788,1.49589 2.79912,2.76048c0.50538,1.72285 -0.02233,3.64262 -0.45493,5.3923c-0.79817,3.22189 -1.15911,7.1077 -3.37027,9.69747c-1.20789,1.4121 -4.26785,1.82293 -5.6451,0.53158c-1.37708,-1.29214 -0.2242,-3.85952 -0.1073,-5.79694c0.19095,-2.0116 0.48684,-4.0577 1.02839,-6.01285c0.49765,-1.79453 1.00218,-3.74256 2.21796,-5.12837c0.84814,-0.96042 2.33098,-1.69759 3.53212,-1.44368z" stroke-width="1.07059"/><path d="M22.68047,52.05704c1.16947,-0.76658 2.79084,-0.86112 4.15752,-0.5769c1.24713,0.25954 2.4418,0.94651 3.30524,1.86956c0.75336,0.80716 1.15698,1.87161 1.31213,2.92856c0.11039,0.75259 0.03781,1.66924 -0.46826,2.23746c-0.45325,0.50756 -1.38442,0.11755 -1.89743,0.5264c-0.60994,0.48402 -0.53107,1.54018 -1.1589,1.90698c-0.66598,0.38962 -1.56799,0.2896 -2.26636,0.0971c-0.50011,-0.13967 -0.74394,-0.75419 -1.22075,-0.97134c-0.94253,-0.43235 -2.2155,-0.31825 -2.94634,-1.01468c-0.80575,-0.76727 -1.49918,-1.98992 -1.31657,-3.07147c0.2583,-1.52959 1.2039,-3.07972 2.49971,-3.93171z" stroke-width="1.26146"/></g><path d="M32.61882,50.67503l-0.89029,3.55899l-9.63059,-2.37801l0.89029,-3.55905z" fill="#211c1b" stroke-width="0.86311" stroke-linecap="butt"/></g><path d="M54.89929,26.10091c1.301,1.87805 2.58909,3.8944 3.07942,6.13373c0.41695,2.29264 -0.46422,4.69697 -0.44719,7.02285c0.00731,0.94291 0.2528,1.85652 0.31304,2.81583c0.04794,0.79796 0.40374,1.6995 0.02584,2.4019c-0.37308,0.67556 -0.6288,1.06266 -1.71512,1.20671c-4.61541,0.52983 -9.34344,1.17718 -13.8322,0.63146c-3.2455,-0.39499 -6.47267,-1.61774 -9.20833,-3.40572c-1.56752,-1.02508 -3.03505,-2.68472 -3.33602,-4.49712c-0.12237,-1.19801 1.39793,-1.98303 2.32153,-2.72136c2.71753,-2.1595 5.34363,-4.41819 8.05564,-6.5677c2.96988,-2.10778 5.97329,-4.14928 8.98791,-6.20351c0.75347,-0.51361 1.58666,-0.84038 2.29117,-0.49595c1.44141,0.84225 2.4981,2.28544 3.46432,3.67887z" data-paper-data="{&quot;index&quot;:null,&quot;origRot&quot;:0,&quot;origPos&quot;:null}" fill="#ffffff" stroke="none" stroke-width="0.88905" stroke-linecap="round"/><g data-paper-data="{&quot;index&quot;:null,&quot;origRot&quot;:0,&quot;origPos&quot;:null}" fill="none" stroke-linecap="round"><path d="M45.93931,31.97676c1.66612,-1.71928 2.44159,-4.89589 4.79419,-5.35864c1.82185,-0.35822 3.37795,2.00525 4.19658,3.67125c0.91533,1.8632 1.286,4.26701 0.62328,6.27012c-0.39657,1.22911 -2.43622,1.06427 -3.343,2.02797c-1.3468,1.43215 -1.38625,3.99883 -3.24199,4.93466c-1.97363,0.836 -4.62688,0.40924 -6.38525,-0.81341c-1.55595,-1.04835 -2.84492,-3.34682 -2.28479,-5.12711c0.79471,-2.52591 3.83022,-3.67124 5.64097,-5.60483z" stroke="#cb3530" stroke-width="6.22333"/><path d="M51.86255,28.87108l1.38316,1.65896l0.84092,2.76446l-3.14494,-2.18671l1.29609,4.60991l-3.98372,-1.67098l1.44111,4.28388l-4.79461,-1.48286l1.75464,4.48729l-3.48118,-1.58209l0.32671,0.95335" stroke="#000000" stroke-width="1"/></g><g data-paper-data="{&quot;index&quot;:null,&quot;origRot&quot;:0,&quot;origPos&quot;:null}" stroke-linecap="round"><path d="M24.41561,28.78978c0.75473,0.23498 1.77895,0.79578 1.78235,1.59409c0.00356,0.99372 -0.93722,1.87685 -1.76668,2.41262c-0.90249,0.58187 -2.05488,0.6257 -3.13798,0.74212c-1.08992,0.11657 -2.19027,-0.01511 -3.29018,-0.12687c-0.36586,-0.04152 -0.91636,0.01797 -1.08495,-0.33109c-0.15761,-0.33158 0.21847,-0.73034 0.50599,-1.02402c1.19844,-1.15184 2.31783,-2.50372 3.82744,-3.19285c0.95413,-0.43566 2.15776,-0.38739 3.16403,-0.07401z" fill="#ffffff" stroke="none" stroke-width="0.88905"/><path d="M24.13627,31.23437c0,0 -0.57717,0.10951 -0.8571,0.14064c-0.31533,0.0313 -0.66969,0.20921 -0.92612,0.04593c-0.19093,-0.12209 -0.25717,-0.48663 -0.14314,-0.66971c0.23008,-0.30942 0.66731,-0.39884 0.99151,-0.5488c0.34909,-0.15339 0.71814,-0.25731 1.0827,-0.36012c0.33639,-0.09756 0.94022,-0.22147 0.94022,-0.22147" fill="none" stroke="#e5e5e5" stroke-width="1.77809"/></g><g data-paper-data="{&quot;index&quot;:null,&quot;origRot&quot;:0,&quot;origPos&quot;:null}"><g><path d="M24.64326,16.38679c0.02078,0.17857 -0.02719,0.27563 -0.13505,0.45506c-0.42745,0.7109 -0.82174,1.43065 -1.37493,2.03135c-0.53862,0.58425 -1.22575,0.9903 -1.8014,1.52181c-0.51485,0.4372 -0.93313,0.9917 -1.47154,1.38574c-0.68205,0.4996 -1.43884,0.89486 -2.21923,1.23494c-0.59531,0.23861 -1.24289,0.37457 -1.88107,0.48984c-0.388,0.06874 -0.81497,0.05612 -1.18315,-0.00445c-0.38971,-0.06271 -1.29508,-0.07764 -1.10713,-0.42511c0.70953,-1.31084 3.2358,-3.01747 3.09002,-3.23803c-0.14576,-0.22059 -2.74963,1.0937 -4.06562,1.76041c-0.75283,0.38122 -1.62722,1.75588 -2.12745,1.37676c-0.60136,-0.45595 -0.32055,-2.06197 -0.07563,-3.04691c0.28733,-1.15563 0.92732,-2.24858 1.57925,-3.27036c0.50465,-0.71899 1.18501,-1.31912 1.85338,-1.89599c0.58487,-0.50444 1.17869,-0.95792 1.82194,-1.31067c0.48509,-0.26259 1.34953,-0.13625 1.53,-0.51803c0.13757,-0.29381 -0.49424,-0.62809 -0.8318,-0.8548c-0.29137,-0.19683 -0.63639,-0.25493 -0.95438,-0.4582c-0.27082,-0.1733 -0.9245,-0.39987 -0.74132,-0.61924c0.38442,-0.45774 1.15834,-0.63251 1.77836,-0.69039c1.33563,-0.14579 2.71407,-0.26992 3.99355,0.0896c1.13157,0.31812 2.13603,1.03637 3.02139,1.79844c0.53333,0.49249 0.89228,1.18011 1.12261,1.86627c0.24137,0.71978 0.18455,1.53549 0.1792,2.32198z" fill="#fa6e1b" stroke="#fa6e1b" stroke-width="1.77809" stroke-linecap="round"/><path d="M31.72298,15.69794l-1.21802,-0.92236l1.65905,-3.46996l3.10878,1.91823l-0.04674,1.51065l-1.79875,0.96238z" fill="#efd071" stroke="none" stroke-width="0.88905" stroke-linecap="round"/><path d="M26.83632,17.07272l-3.0322,4.15259l-1.67004,-1.24111l0.53065,-1.9726l1.13267,-1.44889l1.12626,-0.98043z" fill="#3e3c2d" stroke="none" stroke-width="0.88905" stroke-linecap="round"/><g stroke="none"><path d="M26.26897,16.58469c1.78315,-1.78188 4.30976,-2.92761 6.7819,-3.36343c2.21774,-0.40324 4.65482,-0.03613 6.66443,0.95774c1.29237,0.63967 2.7915,2.09331 2.49488,3.4665c-0.79545,3.55797 -3.10572,6.69418 -5.36602,9.49791c-1.90261,2.35945 -4.01938,5.15576 -6.96821,5.85618c-1.92114,0.45625 -4.00047,-1.30239 -5.1384,-2.90504c-1.35561,-1.90905 -2.06631,-4.49979 -1.8161,-6.85457c0.29471,-2.45259 1.5888,-4.89765 3.34751,-6.65528z" fill="#76ba14" stroke-width="0.88905" stroke-linecap="round"/><path d="M38.00156,15.04434c0.25451,0.00344 0.50748,0.1038 0.69882,0.30042c0.19131,0.1966 0.28473,0.45222 0.28127,0.70674c-0.00347,0.25448 -0.10382,0.50745 -0.30042,0.69876c-0.19663,0.19134 -0.45224,0.28475 -0.70672,0.28129c-0.25453,-0.00348 -0.50751,-0.10383 -0.69882,-0.30042c-0.19134,-0.19663 -0.28475,-0.45224 -0.28127,-0.70674c0.00347,-0.25447 0.1038,-0.50748 0.30042,-0.69882c0.1966,-0.19131 0.45223,-0.2847 0.70672,-0.28123z" fill="#000000" stroke-width="0.71124" stroke-linecap="butt"/><path d="M31.92266,22.54742c0.31814,0.00433 0.63436,0.12977 0.87352,0.37553c0.23913,0.24574 0.35593,0.56529 0.35156,0.88341c-0.00431,0.31811 -0.12977,0.63436 -0.37553,0.87352c-0.24574,0.23913 -0.56529,0.35593 -0.88341,0.35156c-0.31811,-0.00431 -0.63436,-0.12977 -0.87349,-0.37552c-0.23915,-0.24577 -0.35592,-0.56529 -0.35159,-0.88343c0.00434,-0.31808 0.1298,-0.63433 0.37554,-0.87347c0.24577,-0.23915 0.56532,-0.35595 0.8834,-0.35162z" fill="#000000" stroke-width="0.88905" stroke-linecap="butt"/><path d="M28.41169,23.5374l-3.95539,-0.31164l1.14296,-1.34335l-0.79914,-1.53386l3.62519,0.47119l4.6636,-0.07703l-0.2201,0.67646z" fill="#f6341d" stroke-width="0.88905" stroke-linecap="round"/><path d="M36.28698,18.07464l-0.6487,0.29191l-0.42737,-4.64461l-0.86011,-3.55308l1.61119,0.62874l1.21198,-1.28141l0.73723,3.89854z" fill="#f6341d" stroke-width="0.88905" stroke-linecap="round"/></g><path d="M25.00102,25.37701l-0.41381,1.9976l-1.43566,0.47245l-2.71976,-2.43863l2.85837,-2.57349l1.2294,0.90712z" fill="#efd071" stroke="none" stroke-width="0.88905" stroke-linecap="round"/></g><g stroke-linecap="round"><g fill="#fbda7a" stroke="none"><path d="M44.54019,13.09943c2.21399,-0.29419 4.29248,0.25151 5.70945,1.70763c1.41696,1.45613 1.90576,3.5487 1.55133,5.75386c-0.35484,2.20478 -1.55256,4.52179 -3.50976,6.42635c-1.95723,1.90458 -4.30603,3.0387 -6.51966,3.3333c-2.214,0.29418 -4.29246,-0.25148 -5.70942,-1.70761c-1.41696,-1.45612 -1.90579,-3.54873 -1.55136,-5.75388c0.35484,-2.20478 1.55256,-4.52179 3.50979,-6.42637c1.9572,-1.90456 4.30601,-3.03867 6.51964,-3.33328z" stroke-width="1.37588"/><path d="M28.23348,27.35017c1.15467,-1.25273 2.84418,-1.77825 4.37847,-2.28984c1.36395,-0.42181 3.22778,-1.37861 4.17725,-0.46594c2.77534,2.67262 5.4012,6.19734 5.88254,9.98542c0.21998,1.73912 -2.46992,2.68172 -4.0192,3.56836c-1.82937,0.96613 -3.87457,1.87718 -5.90618,1.8747c-1.87832,-0.00195 -3.8186,-0.59316 -5.19712,-2.00979c-1.37849,-1.4166 -1.99111,-3.31974 -1.86734,-5.24995c0.12409,-1.93052 1.19466,-3.9389 2.55159,-5.41298z" stroke-width="1.11666"/><path d="M41.78277,28.06165c2.29915,-2.16473 4.81447,-4.34917 7.84865,-5.59274c0.75651,-0.31049 1.00907,1.15383 1.14263,1.76806c0.23546,1.4781 0.39761,3.03621 -0.08149,4.24892c-0.76853,1.94477 -1.88062,3.39151 -3.58385,5.04893c-1.70321,1.65739 -3.54485,2.85281 -5.14475,3.44489c-1.59958,0.59234 -2.95718,0.5811 -3.69186,-0.17388c-0.73471,-0.75502 -0.7089,-2.11239 -0.07318,-3.69523c0.63547,-1.58316 2.09168,-3.64357 3.58384,-5.04895z" stroke-width="1.00434"/></g><path d="M41.55125,35.04484l-2.60512,-1.39445l2.91427,-1.51833z" fill="#ffffff" stroke="none" stroke-width="0.88905"/><path d="M50.4172,24.03655c0,0 -0.59635,1.10456 -1.06429,1.59044c-1.73173,1.8072 -3.47058,3.65459 -5.50558,5.12635c-1.44399,1.08151 -3.20951,1.69004 -4.8608,2.51101c-0.70722,0.31839 -2.16855,0.95449 -2.16855,0.95449c-1.49129,-1.46128 -0.42808,-0.54775 -0.10587,0.03371c0.22712,0.43864 0.19134,1.4318 0.19134,1.4318" fill="none" stroke="#000000" stroke-width="2"/><path d="M41.40565,21.66442c0,0 -0.56813,0.16823 -0.809,0.04756c-0.21175,-0.10693 -0.49043,-0.42468 -0.3668,-0.59074c0.20446,-0.26879 0.6818,-0.25709 1.02299,-0.27892c0.43289,-0.02735 1.29899,0.09972 1.29899,0.09972" fill="none" stroke="#000000" stroke-width="1.77809"/><path d="M44.24246,18.94648c0,0 -0.42765,-0.76382 -0.55648,-1.17799c-0.10133,-0.32653 -0.28248,-0.76832 -0.10432,-1.05521c0.11106,-0.17474 0.50731,-0.02771 0.68274,0.13199c0.19863,0.18199 0.24413,0.77273 0.24413,0.77273" fill="none" stroke="#000000" stroke-width="1.77809"/></g></g><path d="M63.65227,32.16207c2.30693,-2.07754 3.51143,-2.38297 5.01328,-1.81202c6.03078,2.28404 12.2092,4.74034 15.86769,9.55742c3.45203,4.67031 6.13404,10.72355 5.13909,18.77902c-0.72158,5.27823 -4.20378,13.17127 -10.01752,18.76452c-5.91341,5.6877 -14.1571,8.95493 -19.68718,9.39667c-7.74023,0.61821 -13.23213,-2.56063 -17.6412,-6.27485c-4.64876,-4.08339 -7.58869,-10.00707 -9.10355,-16.74883c-0.37683,-1.68721 2.13653,-2.80894 4.31064,-5.02733c8.57432,-8.96873 16.89121,-18.32417 26.11874,-26.63461z" data-paper-data="{&quot;index&quot;:null,&quot;origRot&quot;:0}" fill="#f8f8f8" stroke="none" stroke-width="0.69753" stroke-linecap="round"/><path d="M69.88849,30.79796l-35.79086,34.82813l-4.19984,-4.31594l35.79086,-34.82813z" data-paper-data="{&quot;index&quot;:null,&quot;origRot&quot;:0,&quot;origPos&quot;:null}" fill="#6ece06" stroke="none" stroke-width="0.40087" stroke-linecap="butt"/><g data-paper-data="{&quot;index&quot;:null,&quot;origRot&quot;:0,&quot;origPos&quot;:null}" stroke="none" stroke-linecap="butt"><path d="M62.67372,47.97682c0.99639,-0.00515 1.98078,0.36907 2.71567,1.12427c0.73489,0.7552 1.08213,1.74942 1.04987,2.74535c-0.0326,0.99616 -0.4445,1.99422 -1.22876,2.75739c-0.78421,0.76312 -1.79313,1.14766 -2.78981,1.15309c-0.99648,0.00515 -1.98082,-0.36911 -2.71571,-1.12432c-0.73489,-0.7552 -1.08218,-1.74938 -1.04982,-2.74531c0.03255,-0.99621 0.44445,-1.99428 1.22866,-2.75739c0.78426,-0.76316 1.79318,-1.14771 2.78991,-1.15309z" fill="#000000" stroke-width="0.45751"/><path d="M73.82478,35.83676c0.80746,0.00241 1.7575,0.27748 2.65792,0.82485c0.90042,0.54737 1.58193,1.26419 1.95581,1.97984c0.37372,0.71588 0.44009,1.43077 0.10954,1.97445c-0.3305,0.54373 -0.99566,0.81389 -1.80322,0.81167c-0.80745,-0.0025 -1.7575,-0.27758 -2.65792,-0.82495c-0.90042,-0.54737 -1.58198,-1.26415 -1.95581,-1.97984c-0.37378,-0.71583 -0.44009,-1.43077 -0.10954,-1.97445c0.3305,-0.54373 0.99566,-0.81389 1.80322,-0.81158z" fill="#000000" stroke-width="0.36515"/><path d="M67.22624,46.41439c0.27358,-0.06211 0.52043,-0.02071 0.67592,0.13908c0.15549,0.1598 0.19015,0.40767 0.12061,0.67946c-0.06935,0.27169 -0.2431,0.567 -0.50458,0.82145c-0.26148,0.25445 -0.56141,0.42008 -0.83484,0.48196c-0.27363,0.06216 -0.52047,0.02076 -0.67597,-0.13904c-0.15549,-0.1598 -0.19015,-0.40767 -0.12056,-0.67951c0.06935,-0.2716 0.2431,-0.5669 0.50458,-0.82135c0.26148,-0.25445 0.56141,-0.42008 0.83485,-0.48205z" fill="#d34c4d" stroke-width="0.43479"/><path d="M58.073,55.41569c0.27358,-0.06211 0.52043,-0.02071 0.67592,0.13908c0.15549,0.1598 0.19015,0.40767 0.12061,0.67946c-0.06935,0.27169 -0.2431,0.567 -0.50458,0.82145c-0.26148,0.25445 -0.56141,0.42008 -0.83484,0.48196c-0.27363,0.06216 -0.52047,0.02076 -0.67597,-0.13904c-0.15549,-0.1598 -0.19015,-0.40767 -0.12056,-0.67951c0.06935,-0.2716 0.2431,-0.5669 0.50458,-0.82135c0.26148,-0.25445 0.56141,-0.42008 0.83485,-0.48205z" fill="#d34c4d" stroke-width="0.43479"/><path d="M72.57608,40.67521c0.22654,-0.08817 0.46137,-0.08411 0.65094,0.0332c0.18967,0.11731 0.29811,0.32563 0.32032,0.5677c0.02236,0.24193 -0.04174,0.51747 -0.19745,0.76921c-0.15571,0.25164 -0.3737,0.432 -0.60014,0.51998c-0.22658,0.08812 -0.46137,0.08411 -0.65099,-0.03324c-0.18962,-0.11726 -0.29806,-0.32558 -0.32032,-0.5677c-0.02236,-0.24193 0.04174,-0.51747 0.1975,-0.76915c0.15566,-0.25169 0.37366,-0.43205 0.60014,-0.51998z" fill="#d34c4d" stroke-width="0.39586"/><path d="M77.07026,34.93724c0.20557,-0.0542 0.42736,-0.02915 0.61703,0.08815c0.18957,0.11731 0.31106,0.30464 0.35423,0.51283c0.04337,0.208 0.00824,0.43668 -0.11547,0.63663c-0.12376,0.2 -0.31268,0.3335 -0.51821,0.38756c-0.20557,0.0543 -0.42741,0.0292 -0.61703,-0.08807c-0.18957,-0.11731 -0.31101,-0.30469 -0.35423,-0.51283c-0.04337,-0.208 -0.00823,-0.43678 0.11547,-0.63672c0.1237,-0.19995 0.31273,-0.33345 0.51821,-0.38756z" fill="#d34c4d" stroke-width="0.36575"/></g><path d="M79.29215,52.99295c1.20133,-1.3059 1.64441,-3.22417 2.86484,-4.42742c0.72735,-0.71721 1.80367,-1.54199 2.82099,-1.20795c1.53251,0.50491 2.91016,1.86881 3.43301,3.4226c0.69002,2.05188 0.70299,4.48309 -0.0807,6.50117c-0.95383,2.45582 -2.86514,4.49116 -4.76817,6.31265c-1.80811,1.73081 -3.8215,3.55844 -6.23935,4.32948c-1.70783,0.50522 -3.94123,0.37898 -5.33913,-0.74793c-1.31141,-1.05701 -1.49031,-3.18693 -1.44003,-4.84967c0.08269,-1.23553 0.9741,-2.30216 1.80939,-3.19532c2.13597,-2.28384 4.84798,-3.8953 6.93913,-6.13761z" data-paper-data="{&quot;index&quot;:null,&quot;origRot&quot;:0,&quot;origPos&quot;:null}" fill="#fe8e3f" stroke="none" stroke-width="0.43479" stroke-linecap="round"/><path d="M86.04956,52.56569c0,0 -1.48064,2.94886 -2.56015,4.17185c-1.51425,1.78341 -3.34799,3.27764 -5.15466,4.77014c-0.61397,0.50723 -2.03228,1.26027 -2.03228,1.26027" data-paper-data="{&quot;index&quot;:null,&quot;origRot&quot;:0,&quot;origPos&quot;:null}" fill="none" stroke="#793312" stroke-width="2.6087" stroke-linecap="round"/><g data-paper-data="{&quot;index&quot;:null,&quot;origRot&quot;:0}" fill="#5fa905" stroke="none"><path d="M84.31491,78.23255l-3.8949,3.79014l-3.07306,-3.158l3.8949,-3.79014z" stroke-width="0.42378" stroke-linecap="butt"/><path d="M82.99514,77.45991c0.65066,-0.0197 1.21952,0.56333 1.64102,1.07312c0.40204,0.4862 0.6788,1.13401 0.63491,1.7946c-0.04364,0.66025 -0.33941,1.33027 -0.87681,1.85321c-0.53735,0.52289 -1.21517,0.80029 -1.87642,0.82596c-0.66154,0.02586 -1.3136,-0.25485 -1.77657,-0.68364c-0.48025,-0.4445 -0.95814,-1.06949 -0.92744,-1.7196c0.06171,-0.74496 0.65079,-1.41351 1.16934,-1.92811c0.55614,-0.55221 1.2297,-1.17937 2.01199,-1.21554z" stroke-width="0.51782" stroke-linecap="round"/><path d="M75.47233,81.5082c1.4202,-0.50231 3.73534,-1.54213 4.52495,-0.60543c0.80107,0.95129 -0.62732,3.10263 -1.3466,4.44817c-0.83475,1.56131 -2.00887,2.94304 -3.28399,4.18386c-1.41443,1.30237 -2.86683,2.78255 -4.71684,3.38144c-1.26657,0.41004 -3.10728,0.34146 -3.93733,-0.69919c-0.77234,-0.98329 -0.21343,-2.51631 0.3069,-3.5999c0.78942,-1.63958 1.9602,-3.02154 3.32093,-4.15569c1.50551,-1.2545 3.27797,-2.24892 5.13199,-2.95326z" stroke-width="0.43479" stroke-linecap="round"/><path d="M86.83616,68.64506c1.17083,-1.3293 2.58419,-2.46197 4.24467,-3.20641c1.09738,-0.49061 2.64506,-1.00752 3.60693,-0.20865c1.01764,0.85811 1.03601,2.70001 0.5916,3.95493c-0.6491,1.833 -2.16832,3.24451 -3.50877,4.62291c-1.27512,1.24082 -2.68833,2.37684 -4.27183,3.16872c-1.36465,0.68234 -3.55413,2.05155 -4.48322,1.22485c-0.91483,-0.81485 0.18772,-3.10079 0.72855,-4.50676c0.75462,-1.83414 1.79699,-3.57882 3.09206,-5.04958z" stroke-width="0.43479" stroke-linecap="round"/></g></g><g stroke-linecap="butt"><path d="M163.59258,457.03301l-12.93925,-12.93925l150.95067,-150.95068l12.93925,12.93923z" fill="url(#color-37)" stroke="#12a22d" stroke-width="0"/><path d="M238.36726,454.30517l-12.93925,-12.93925l150.95068,-150.95068l12.93925,12.93925z" fill="url(#color-38)" stroke="#12a22d" stroke-width="0"/><path d="M-29.7646,551.52807v-252.43541h322.43501v252.43541z" fill="url(#color-39)" stroke="none" stroke-width="0"/><g stroke-width="1"><path d="M-28.94873,344.42643v-23.45606c0,0 18.72797,-5.21246 36.74899,-5.21246c13.5349,0 40.49096,6.46118 72.63413,7.01594c20.73997,0.35796 44.51447,-7.37633 67.36166,-7.45531c25.03736,-0.08656 50.34609,6.63441 72.21119,7.51173c18.92067,0.75918 35.50065,-2.15659 47.98083,-2.72275c15.08431,-0.68427 24.17943,0.86283 24.17943,0.86283v23.45606c0,0 -10.95111,-1.77682 -28.12989,-1.36571c-14.40385,0.34469 -33.05601,3.00154 -54.56292,2.0226c-19.20848,-0.87431 -41.07501,-7.64212 -62.11515,-7.84302c-24.36684,-0.23265 -49.1872,6.35518 -70.85908,5.80301c-28.80046,-0.7338 -52.81314,-6.43558 -65.63776,-6.43558c-19.2857,0 -39.81142,7.81869 -39.81142,7.81869z" fill="#dab40d" stroke="#f1c70e"/><path d="M-29.24839,390.7388v-23.45607c0,0 18.72797,-5.21246 36.74899,-5.21246c13.5349,0 40.49096,6.46118 72.63413,7.01594c20.73997,0.35795 44.51447,-7.37633 67.36166,-7.45531c25.03736,-0.08656 50.34609,6.63439 72.21119,7.51173c18.92067,0.75918 35.50064,-2.1566 47.98083,-2.72275c15.08431,-0.68427 24.17943,0.86283 24.17943,0.86283v23.45607c0,0 -10.95111,-1.77683 -28.12989,-1.36573c-14.40385,0.34469 -33.05601,3.00156 -54.56292,2.02261c-19.2085,-0.87431 -41.07501,-7.64213 -62.11517,-7.84302c-24.36684,-0.23265 -49.18719,6.35518 -70.85907,5.80301c-28.80046,-0.7338 -52.81314,-6.43556 -65.63776,-6.43556c-19.2857,0 -39.81142,7.81869 -39.81142,7.81869z" fill="#cca90c" stroke="#e6be0e"/><path d="M-29.24839,437.85318v-23.45606c0,0 18.72797,-5.21246 36.74899,-5.21246c13.5349,0 40.49096,6.46118 72.63413,7.01594c20.73997,0.35795 44.51447,-7.37633 67.36166,-7.4553c25.03736,-0.08656 50.34609,6.63439 72.21119,7.51173c18.92067,0.75918 35.50064,-2.1566 47.98083,-2.72275c15.08431,-0.68427 24.17943,0.86283 24.17943,0.86283v23.45606c0,0 -10.9511,-1.77682 -28.12989,-1.36573c-14.40385,0.34469 -33.05601,3.00154 -54.56292,2.0226c-19.2085,-0.87431 -41.07501,-7.64212 -62.11515,-7.84301c-24.36684,-0.23265 -49.18719,6.35518 -70.85907,5.80301c-28.80046,-0.7338 -52.81314,-6.43556 -65.63776,-6.43556c-19.28572,0 -39.81142,7.81869 -39.81142,7.81869z" fill="#c09f0c" stroke="#d8b20d"/><path d="M-29.12538,489.45296v-23.45606c0,0 18.72797,-5.21246 36.74899,-5.21246c13.5349,0 40.49096,6.46118 72.63413,7.01594c20.73997,0.35795 44.51447,-7.37633 67.36166,-7.4553c25.03736,-0.08656 50.34609,6.63439 72.21119,7.51173c18.92067,0.75918 35.50064,-2.1566 47.98083,-2.72275c15.08431,-0.68427 24.17943,0.86283 24.17943,0.86283v23.45606c0,0 -10.9511,-1.77682 -28.12989,-1.36573c-14.40385,0.34469 -33.05601,3.00154 -54.56292,2.0226c-19.2085,-0.87431 -41.07501,-7.64212 -62.11515,-7.84301c-24.36684,-0.23265 -49.18719,6.35518 -70.85907,5.80301c-28.80046,-0.7338 -52.81314,-6.43556 -65.63776,-6.43556c-19.28572,0 -39.81142,7.81869 -39.81142,7.81869z" data-paper-data="{&quot;index&quot;:null}" fill="#b3940b" stroke="#cca90c"/></g><path d="M-30.13292,308.54507v-18.29885h322.63259v18.29885z" fill="url(#color-40)" stroke="#12a22d" stroke-width="0"/><path d="M292.49647,307.38185v-18.29885h213.4765v18.29885z" fill="url(#color-41)" stroke="#12a22d" stroke-width="0"/></g></g></g></svg>