<svg version="1.1" xmlns="http://www.w3.org/2000/svg" xmlns:xlink="http://www.w3.org/1999/xlink" width="479.65457" height="363.48648" viewBox="0,0,479.65457,363.48648"><defs><linearGradient x1="20.13502" y1="16.18277" x2="20.13502" y2="54.79826" gradientUnits="userSpaceOnUse" id="color-1"><stop offset="0" stop-color="#2850ff"/><stop offset="1" stop-color="#5e1e9f"/></linearGradient><linearGradient x1="77.39915" y1="14.93829" x2="77.39915" y2="53.55378" gradientUnits="userSpaceOnUse" id="color-2"><stop offset="0" stop-color="#3398ff"/><stop offset="1" stop-color="#a843ff"/></linearGradient><linearGradient x1="111.40785" y1="23.82909" x2="111.40785" y2="47.41875" gradientUnits="userSpaceOnUse" id="color-3"><stop offset="0" stop-color="#79aaff"/><stop offset="1" stop-color="#aa79ff"/></linearGradient><linearGradient x1="127.25822" y1="23.01849" x2="120.68044" y2="26.2429" gradientUnits="userSpaceOnUse" id="color-4"><stop offset="0" stop-color="#5480ff"/><stop offset="1" stop-color="#5480ff" stop-opacity="0"/></linearGradient><linearGradient x1="112.60923" y1="16.82849" x2="112.60923" y2="26.34796" gradientUnits="userSpaceOnUse" id="color-5"><stop offset="0" stop-color="#3a92ff"/><stop offset="1" stop-color="#76b3ff"/></linearGradient><linearGradient x1="98.57062" y1="47.35781" x2="98.54311" y2="43.38355" gradientUnits="userSpaceOnUse" id="color-6"><stop offset="0" stop-color="#964fff"/><stop offset="1" stop-color="#964fff" stop-opacity="0"/></linearGradient><linearGradient x1="118.50283" y1="38.97925" x2="118.50283" y2="53.12124" gradientUnits="userSpaceOnUse" id="color-7"><stop offset="0" stop-color="#5b53cc"/><stop offset="1" stop-color="#a544ff"/></linearGradient><linearGradient x1="4.32256" y1="42.95553" x2="4.32256" y2="50.84765" gradientUnits="userSpaceOnUse" id="color-8"><stop offset="0" stop-color="#6b25c2"/><stop offset="1" stop-color="#2e1284"/></linearGradient><linearGradient x1="3.65044" y1="42.43744" x2="3.65044" y2="50.32954" gradientUnits="userSpaceOnUse" id="color-9"><stop offset="0" stop-color="#d153ff"/><stop offset="1" stop-color="#7838fe"/></linearGradient><linearGradient x1="54.94143" y1="28.30609" x2="54.94143" y2="39.0628" gradientUnits="userSpaceOnUse" id="color-10"><stop offset="0" stop-color="#ffffff"/><stop offset="1" stop-color="#93d9ff"/></linearGradient><linearGradient x1="12.42995" y1="25.00214" x2="12.42995" y2="39.42761" gradientUnits="userSpaceOnUse" id="color-11"><stop offset="0" stop-color="#ffffff"/><stop offset="1" stop-color="#93d9ff"/></linearGradient><linearGradient x1="25.94776" y1="25.61533" x2="25.94776" y2="39.42254" gradientUnits="userSpaceOnUse" id="color-12"><stop offset="0" stop-color="#ffffff"/><stop offset="1" stop-color="#93d9ff"/></linearGradient><linearGradient x1="38.07924" y1="25.25471" x2="38.07924" y2="39.42761" gradientUnits="userSpaceOnUse" id="color-13"><stop offset="0" stop-color="#ffffff"/><stop offset="1" stop-color="#93d9ff"/></linearGradient><linearGradient x1="46.34237" y1="26.32993" x2="46.34237" y2="39.19875" gradientUnits="userSpaceOnUse" id="color-14"><stop offset="0" stop-color="#ffffff"/><stop offset="1" stop-color="#93d9ff"/></linearGradient><linearGradient x1="54.70752" y1="26.79946" x2="54.70752" y2="39.06279" gradientUnits="userSpaceOnUse" id="color-15"><stop offset="0" stop-color="#ffffff"/><stop offset="1" stop-color="#cccccc"/></linearGradient><linearGradient x1="67.67679" y1="25.00895" x2="67.67679" y2="39.18185" gradientUnits="userSpaceOnUse" id="color-16"><stop offset="0" stop-color="#ffffff"/><stop offset="1" stop-color="#93d9ff"/></linearGradient><linearGradient x1="79.17954" y1="25.23867" x2="79.17954" y2="39.04588" gradientUnits="userSpaceOnUse" id="color-17"><stop offset="0" stop-color="#ffffff"/><stop offset="1" stop-color="#93d9ff"/></linearGradient><linearGradient x1="91.74619" y1="25.00361" x2="91.74619" y2="39.1765" gradientUnits="userSpaceOnUse" id="color-18"><stop offset="0" stop-color="#ffffff"/><stop offset="1" stop-color="#93d9ff"/></linearGradient><linearGradient x1="104.26353" y1="25.32383" x2="104.26353" y2="39.44579" gradientUnits="userSpaceOnUse" id="color-19"><stop offset="0" stop-color="#ffffff"/><stop offset="1" stop-color="#93d9ff"/></linearGradient><linearGradient x1="12.50004" y1="25.56378" x2="12.50004" y2="39.42761" gradientUnits="userSpaceOnUse" id="color-20"><stop offset="0" stop-color="#ffffff"/><stop offset="1" stop-color="#cccccc"/></linearGradient><linearGradient x1="26.21471" y1="25.61533" x2="26.21471" y2="39.42254" gradientUnits="userSpaceOnUse" id="color-21"><stop offset="0" stop-color="#ffffff"/><stop offset="1" stop-color="#cccccc"/></linearGradient><linearGradient x1="38.5837" y1="25.25472" x2="38.5837" y2="39.42761" gradientUnits="userSpaceOnUse" id="color-22"><stop offset="0" stop-color="#ffffff"/><stop offset="1" stop-color="#cccccc"/></linearGradient><linearGradient x1="45.97499" y1="26.32991" x2="45.97499" y2="39.19875" gradientUnits="userSpaceOnUse" id="color-23"><stop offset="0" stop-color="#ffffff"/><stop offset="1" stop-color="#cccccc"/></linearGradient><linearGradient x1="67.30942" y1="25.00895" x2="67.30942" y2="39.18185" gradientUnits="userSpaceOnUse" id="color-24"><stop offset="0" stop-color="#ffffff"/><stop offset="1" stop-color="#cccccc"/></linearGradient><linearGradient x1="79.07912" y1="25.23867" x2="79.07912" y2="39.04588" gradientUnits="userSpaceOnUse" id="color-25"><stop offset="0" stop-color="#ffffff"/><stop offset="1" stop-color="#cccccc"/></linearGradient><linearGradient x1="91.88326" y1="25.00361" x2="91.88326" y2="39.17651" gradientUnits="userSpaceOnUse" id="color-26"><stop offset="0" stop-color="#ffffff"/><stop offset="1" stop-color="#cccccc"/></linearGradient><linearGradient x1="103.95844" y1="25.32383" x2="103.95844" y2="39.44579" gradientUnits="userSpaceOnUse" id="color-27"><stop offset="0" stop-color="#ffffff"/><stop offset="1" stop-color="#cccccc"/></linearGradient></defs><g transform="translate(-0.79334,3.41019)"><g data-paper-data="{&quot;isPaintingLayer&quot;:true}" fill-rule="nonzero" stroke-linejoin="miter" stroke-miterlimit="10" stroke-dasharray="" stroke-dashoffset="0" style="mix-blend-mode: normal"><text transform="translate(1,87.85714) scale(0.41333,0.41333)" font-size="40" xml:space="preserve" fill="#000000" fill-rule="nonzero" stroke="none" stroke-width="1" stroke-linecap="butt" stroke-linejoin="miter" stroke-miterlimit="10" stroke-dasharray="" stroke-dashoffset="0" font-family="Sans Serif" font-weight="normal" text-anchor="start" style="mix-blend-mode: normal"><tspan x="0" dy="0"> </tspan><tspan x="0" dy="46.150000000000006px"> </tspan><tspan x="0" dy="46.150000000000006px"> </tspan><tspan x="0" dy="46.150000000000006px"> </tspan><tspan x="0" dy="46.150000000000006px"> </tspan><tspan x="0" dy="46.150000000000006px">0.9.1 -</tspan><tspan x="0" dy="46.150000000000006px">0.9.2 -</tspan><tspan x="0" dy="46.150000000000006px">0.9.3 -</tspan><tspan x="0" dy="46.150000000000006px">0.9.4 -</tspan><tspan x="0" dy="46.150000000000006px">0.9.5 -</tspan><tspan x="0" dy="46.150000000000006px">0.9.6 -</tspan><tspan x="0" dy="46.150000000000006px">0.9.7 -</tspan><tspan x="0" dy="46.150000000000006px">0.9.8 -</tspan><tspan x="0" dy="46.150000000000006px">0.9.9 -</tspan><tspan x="0" dy="46.150000000000006px">1.0.0 - ScralaxyTeam</tspan></text><path d="M141.57278,4.63208v62.5" fill="none" stroke="#000000" stroke-width="2.5" stroke-linecap="round"/><text transform="translate(146,32.00708) scale(0.81419,0.81419)" font-size="40" xml:space="preserve" fill="#000000" fill-rule="nonzero" stroke="none" stroke-width="1" stroke-linecap="butt" stroke-linejoin="miter" stroke-miterlimit="10" stroke-dasharray="" stroke-dashoffset="0" font-family="Sans Serif" font-weight="normal" text-anchor="start" style="mix-blend-mode: normal"><tspan x="0" dy="0">Dibs List</tspan></text><text transform="translate(149,49.50708) scale(0.42416,0.42416)" font-size="40" xml:space="preserve" fill="#000000" fill-rule="nonzero" stroke="none" stroke-width="1" stroke-linecap="butt" stroke-linejoin="miter" stroke-miterlimit="10" stroke-dasharray="" stroke-dashoffset="0" font-family="Sans Serif" font-weight="normal" text-anchor="start" style="mix-blend-mode: normal"><tspan x="0" dy="0">You must be a team member to call dibs.</tspan></text><g><g data-paper-data="{&quot;origPos&quot;:null}" stroke="none"><path d="M136.98543,23.52295c0.13806,0.58131 0.19378,1.17143 0.15452,1.76791c-0.24949,3.78151 -3.74604,5.95339 -6.75124,7.54528c-1.13851,0.60406 -2.28966,1.18408 -3.43831,1.76537c-1.21194,0.61295 -2.42644,1.22083 -3.63838,1.82997c-0.05827,0.02786 -0.11652,0.06334 -0.17603,0.09625l-6.58661,3.27494l6.76642,-2.89755c0.2267,0.47111 0.40022,0.86241 0.60536,1.34239c0.36726,0.8637 0.70159,1.74132 0.97768,2.64046c0.19882,0.64968 0.3647,1.30695 0.48121,1.97687c0.09371,0.5395 0.14817,1.08152 0.17352,1.62734c0.02027,0.40145 0.01139,0.80036 -0.02154,1.20055c-0.11144,1.40954 -0.55217,2.69998 -1.41331,3.83471c-0.43185,0.56989 -0.93081,1.07137 -1.48297,1.52093c-0.91941,0.74847 -1.93888,1.32973 -3.02164,1.8021c-0.85989,0.37233 -1.74638,0.65855 -2.64807,0.9055c-0.99286,0.27226 -1.99965,0.4977 -3.0166,0.66612c-0.64587,0.10766 -1.29426,0.19123 -1.94772,0.25331c-0.00254,0.00126 -0.00762,0.00252 -0.0114,0.00252c-0.00254,0 -0.00507,0.00126 -0.01013,0.00252c-0.8941,0.0836 -1.79196,0.11905 -2.68985,0.1178c-0.62941,-0.00254 -1.26136,-0.02154 -1.88948,-0.06585c-0.82825,-0.05953 -1.65523,-0.14944 -2.47583,-0.28243c-1.11953,-0.18236 -2.22511,-0.43311 -3.30154,-0.7953c-0.70795,-0.23681 -1.39686,-0.52049 -2.05412,-0.87762c-0.92448,-0.50402 -1.75019,-1.13093 -2.44164,-1.93c-0.75226,-0.86624 -1.27908,-1.85277 -1.56276,-2.96469c-0.14943,-0.5838 -0.21909,-1.17902 -0.21273,-1.78308c0.01898,-1.85278 0.86532,-3.66136 2.11742,-4.94027c1.93483,-1.97663 4.09434,-2.91626 7.07228,-4.55147l8.93197,-4.77756l4.70789,-2.33336l1.59566,-0.79784c0.83458,-0.42042 1.66914,-0.82568 2.50118,-1.24613c1.22715,-0.62182 2.46063,-1.23348 3.66628,-1.89329c0.60152,-0.32801 1.198,-0.66359 1.76156,-1.05363c0.40018,-0.27735 0.77883,-0.57877 1.09545,-0.95235c0.85989,-1.01439 0.97513,-2.35807 0.25328,-3.49022c-0.30012,-0.46985 -0.71425,-0.87384 -1.16256,-1.20562c-2.11237,-1.48804 -4.84907,-1.42093 -7.17799,-0.46732c-0.5927,0.24188 -1.14864,0.5509 -1.63747,0.96628c-0.72315,0.61547 -1.19171,1.38291 -1.37028,2.31879c-0.34446,1.82111 0.51416,3.63586 1.16384,5.29107c0.20136,0.51542 0.7191,1.42885 0.59267,1.49437l-0.31154,0.14944l-5.81599,2.90767c-0.51042,0.18068 -0.29726,0.256 -0.72691,-0.58824l-1.24047,-2.52585c-0.22661,-0.52007 -0.39512,-1.06506 -0.54328,-1.61468c-0.15957,-0.58635 -0.26215,-1.18157 -0.2875,-1.7907c-0.14943,-3.59154 2.69241,-6.06356 5.7343,-7.32365c1.50199,-0.61927 3.07486,-1.07139 4.68318,-1.30189c0.46733,-0.06585 0.93588,-0.11398 1.40573,-0.14436c1.8971,-0.12287 3.81571,0.00126 5.67733,0.38372c0.51669,0.10762 1.03086,0.23427 1.53869,0.38243c0.71931,0.2115 1.4247,0.47365 2.10096,0.79785c1.15371,0.5509 2.18838,1.27147 3.11157,2.1567c0.42171,0.40399 0.81304,0.83329 1.15118,1.30947c0.49134,0.68767 0.84721,1.43991 1.04477,2.26432M117.18893,42.40007c-0.27987,-0.82442 -0.59774,-1.64887 -0.92829,-2.45304c-0.09371,0.038 -0.08991,0.03548 -0.15324,0.06585c-1.91353,0.92068 -3.82456,1.83757 -5.7343,2.76332c-1.31454,0.63825 -2.61893,1.29426 -3.88533,2.02752c-0.67373,0.38753 -1.33226,0.79911 -1.94142,1.28287c-0.72312,0.57243 -1.47661,1.26895 -1.69063,2.20358c-0.23049,0.9916 0,1.8654 0.69145,2.61512c0.95109,1.02959 2.4277,1.53488 3.7739,1.77423c2.1415,0.38119 4.4527,0.18365 6.37385,-0.89027c0.24441,-0.13551 0.46604,-0.28875 0.70285,-0.4344c0.5623,-0.34954 1.10307,-0.81301 1.5577,-1.29301c1.14102,-1.2145 1.80463,-2.80384 1.84387,-4.46916c0.00633,-0.27354 -0.00758,-0.54709 -0.03544,-0.81683c-0.08613,-0.81683 -0.31154,-1.60073 -0.57494,-2.37579M125.76757,36.4587zM126.96875,36.4587zM97.10237,37.03493zM96.737,34.49388zM103.8739,35.25056zM116.50886,31.90786z" data-paper-data="{&quot;origPos&quot;:null}" fill="url(#color-1)" stroke-width="0.04223" stroke-linecap="butt"/><path d="M135.74095,22.27847c0.13806,0.58131 0.19378,1.17143 0.15453,1.76791c-0.24949,3.78151 -3.74604,5.9534 -6.75124,7.54528c-1.13851,0.60407 -2.28966,1.18408 -3.43831,1.76536c-1.21194,0.61295 -2.42644,1.22082 -3.63839,1.82996c-0.05827,0.02786 -0.11652,0.06334 -0.17603,0.09626l-6.92505,3.41595l0.21192,0.34635l6.89293,-3.3849c0.2267,0.47111 0.40022,0.86241 0.60536,1.34239c0.36726,0.8637 0.70159,1.74132 0.97768,2.64046c0.19882,0.64968 0.36471,1.30694 0.48121,1.97687c0.09371,0.5395 0.14817,1.08153 0.17352,1.62734c0.02027,0.40145 0.01139,0.80036 -0.02154,1.20054c-0.11144,1.40954 -0.55217,2.69999 -1.41331,3.83472c-0.43185,0.56989 -0.93082,1.07137 -1.48297,1.52093c-0.91941,0.74847 -1.93888,1.32973 -3.02164,1.8021c-0.85989,0.37232 -1.74639,0.65855 -2.64808,0.9055c-0.99286,0.27226 -1.99965,0.4977 -3.0166,0.66612c-0.64587,0.10766 -1.29426,0.19122 -1.94772,0.2533c-0.00254,0.00126 -0.00762,0.00252 -0.0114,0.00252c-0.00254,0 -0.00507,0.00126 -0.01013,0.00253c-0.8941,0.0836 -1.79196,0.11904 -2.68985,0.11779c-0.62941,-0.00254 -1.26136,-0.02154 -1.88948,-0.06585c-0.82825,-0.05953 -1.65523,-0.14943 -2.47583,-0.28242c-1.11953,-0.18236 -2.22511,-0.43311 -3.30154,-0.7953c-0.70795,-0.23681 -1.39685,-0.52049 -2.05411,-0.87762c-0.92448,-0.50402 -1.7502,-1.13093 -2.44165,-1.93c-0.75226,-0.86624 -1.27908,-1.85277 -1.56276,-2.96469c-0.14943,-0.5838 -0.21909,-1.17903 -0.21273,-1.78309c0.01898,-1.85278 0.86532,-3.66135 2.11742,-4.94027c1.93483,-1.97663 4.09435,-2.91626 7.07229,-4.55147l8.93196,-4.77756l4.70789,-2.33336l1.59567,-0.79785c0.83458,-0.42042 1.66914,-0.82568 2.50117,-1.24613c1.22715,-0.62182 2.46063,-1.23348 3.66628,-1.89329c0.60152,-0.32801 1.198,-0.66359 1.76156,-1.05363c0.40018,-0.27735 0.77884,-0.57876 1.09545,-0.95234c0.8599,-1.01439 0.97514,-2.35807 0.25328,-3.49022c-0.30012,-0.46985 -0.71424,-0.87384 -1.16255,-1.20562c-2.11237,-1.48804 -4.84907,-1.42093 -7.17799,-0.46732c-0.5927,0.24188 -1.14864,0.5509 -1.63747,0.96628c-0.72315,0.61547 -1.19171,1.38291 -1.37028,2.31879c-0.34446,1.82111 0.51417,3.63586 1.16385,5.29106c0.20136,0.51542 0.7191,1.42885 0.59267,1.49437l-0.31154,0.14944l-5.81598,2.90768c-0.51042,0.18068 -0.29726,0.25599 -0.72691,-0.58824l-1.24047,-2.52585c-0.22661,-0.52007 -0.39511,-1.06506 -0.54328,-1.61468c-0.15957,-0.58635 -0.26215,-1.18157 -0.2875,-1.79071c-0.14943,-3.59154 2.6924,-6.06356 5.7343,-7.32364c1.50199,-0.61927 3.07486,-1.07139 4.68318,-1.30188c0.46733,-0.06585 0.93588,-0.11398 1.40573,-0.14437c1.8971,-0.12287 3.8157,0.00126 5.67733,0.38372c0.51669,0.10762 1.03085,0.23426 1.53869,0.38243c0.71931,0.21151 1.42471,0.47366 2.10096,0.79785c1.15371,0.5509 2.18838,1.27146 3.11157,2.1567c0.42171,0.40399 0.81304,0.83329 1.15118,1.30947c0.49134,0.68767 0.84721,1.43992 1.04476,2.26433M115.94443,41.15558c-0.27987,-0.82442 -0.59773,-1.64887 -0.92829,-2.45304c-0.09371,0.038 -0.08992,0.03548 -0.15324,0.06585c-1.91353,0.92068 -3.82455,1.83758 -5.73429,2.76333c-1.31454,0.63825 -2.61893,1.29425 -3.88534,2.02751c-0.67373,0.38753 -1.33226,0.79911 -1.94142,1.28287c-0.72312,0.57243 -1.47661,1.26895 -1.69063,2.20358c-0.23049,0.9916 0,1.8654 0.69145,2.61512c0.95109,1.02959 2.4277,1.53488 3.7739,1.77424c2.1415,0.38119 4.4527,0.18364 6.37385,-0.89028c0.24441,-0.13551 0.46604,-0.28875 0.70285,-0.43439c0.5623,-0.34954 1.10307,-0.81301 1.5577,-1.293c1.14102,-1.2145 1.80463,-2.80384 1.84387,-4.46916c0.00633,-0.27354 -0.00758,-0.54709 -0.03544,-0.81683c-0.08613,-0.81683 -0.31154,-1.60074 -0.57494,-2.37579M125.72426,35.21422zM95.8579,35.79046zM95.49253,33.24941zM102.62941,34.00608zM115.26439,30.66337z" data-paper-data="{&quot;origPos&quot;:null}" fill="url(#color-2)" stroke-width="0.04223" stroke-linecap="butt"/><path d="M96.46344,47.40666c-0.75635,0.09175 -1.54403,0.29616 -1.94998,-0.12316c-0.69685,-2.05378 -0.57568,-4.41908 0.7109,-6.16504c1.44224,-1.95721 2.63999,-2.93769 9.25242,-6.32576c7.42265,-4.07294 14.67765,-7.84071 14.89508,-7.80045c0.0934,0.01729 3.29008,-1.57897 5.06062,-2.49282c0.55788,-0.21545 1.80376,-0.7785 2.43449,-0.65206c2.01778,0.40445 2.30345,2.62933 0.88781,3.79811c-0.40089,0.33097 -5.31073,2.50542 -7.09706,3.39859c-3.64677,1.82338 -15.13142,8.2045 -17.3699,9.10229c-0.92285,0.37012 -3.79854,2.07567 -4.38565,2.95125c-0.55244,0.82386 -0.42515,3.558 -0.94843,3.85702z" data-paper-data="{&quot;origPos&quot;:null}" fill="url(#color-3)" stroke-width="0.5" stroke-linecap="butt"/><path d="M121.45675,41.12094l-0.13848,-1.26017l0.23543,-1.44022l0.49851,-1.12168l0.49855,-0.62314l0.84472,2.0495l0.54008,1.88334z" data-paper-data="{&quot;origPos&quot;:null}" fill="#5d53ce" stroke-width="0.92358" stroke-linecap="round"/><path d="M136.468,23.34011v0h-0.13848z" data-paper-data="{&quot;origPos&quot;:null}" fill="#6159de" stroke-width="0.92358" stroke-linecap="butt"/><path d="M126.4934,23.40885l0.97556,0.24044c0,0 1.1752,1.36024 1.23695,1.95095c0.08819,0.8436 -0.45292,1.99085 -0.45292,1.99085l-5.59769,2.6806l-1.925,-3.91602z" data-paper-data="{&quot;origPos&quot;:null}" fill="url(#color-4)" stroke-width="0.92358" stroke-linecap="round"/><path d="M112.7293,21.03238c-1.31114,1.42315 -0.31455,3.74492 -1.66618,4.51728c-0.16376,0.09358 -0.0458,0.5305 -0.21057,0.50137c-1.61849,-0.28607 -1.66969,-2.27001 -1.51183,-3.46682c0.20034,-1.51889 1.20645,-3.24315 2.42029,-4.17056c0.82465,-0.6928 2.29985,-1.51996 2.29985,-1.51996c0.1732,-0.09119 0.66912,-0.05569 0.68112,-0.05536c0.19503,-0.02645 0.34405,-0.0035 0.49375,0.11741c0.42337,0.19915 0.71645,0.62955 0.71645,1.12841c0.12332,0.24668 -0.02532,0.50303 -0.22522,0.7148c-0.12359,0.17622 -0.29165,0.319 -0.48788,0.41202c-0.90743,0.68976 -1.72975,0.97472 -2.5098,1.82142z" data-paper-data="{&quot;origPos&quot;:null}" fill="url(#color-5)" stroke-width="0.5" stroke-linecap="butt"/><path d="M98.04907,47.16732l-2.8639,0.47314l-0.6313,-0.25076l-0.13513,-0.24809l-0.37162,-1.70116l0.17552,-2.02701l5.10831,0.10451c0,0 -0.68959,2.55517 -0.70734,2.74254c-0.00592,0.06245 -0.57454,0.90684 -0.57454,0.90684z" data-paper-data="{&quot;origPos&quot;:null}" fill="url(#color-6)" stroke-width="0.92358" stroke-linecap="round"/><path d="M123.66195,39.60054c0.56002,1.72183 0.66952,3.73633 0.66952,4.79888c0,2.80765 -1.91919,5.02954 -5.09028,6.87982c-0.77441,0.2321 -2.5275,1.29452 -6.36441,1.8358c-1.16972,0.11165 2.31073,-2.00924 3.31577,-2.61802c1.4125,-0.85559 3.14636,-1.53523 4.17986,-2.65648c1.09934,-1.19266 1.7449,-3.08182 1.66215,-4.21754c-0.04997,-0.68582 -0.13569,-1.57925 -0.35167,-2.22717c-0.04736,-0.13171 -0.07316,-0.2737 -0.07316,-0.42172c0,-0.26329 0.22627,-0.71862 0.26176,-0.76427c0.04842,-0.06476 0.27352,-0.76408 0.33155,-0.81308c0.5819,-0.49134 1.18684,-0.63277 1.45892,0.20376z" data-paper-data="{&quot;origPos&quot;:null}" fill="url(#color-7)" stroke-width="0.5" stroke-linecap="butt"/></g><g data-paper-data="{&quot;origPos&quot;:null}" stroke="none" stroke-width="1.25774" stroke-linecap="butt"><path d="M12.20901,48.525c0,0.28251 -0.03664,0.53754 -0.10989,0.76508c-0.06973,0.22402 -0.16344,0.42195 -0.28073,0.59454c-0.11729,0.17222 -0.25502,0.31913 -0.41283,0.4403c-0.15778,0.12082 -0.32089,0.22015 -0.48996,0.29694c-0.1687,0.07713 -0.34096,0.1342 -0.51706,0.17083c-0.1726,0.03663 -0.33603,0.05495 -0.48995,0.05495h-5.52018v-1.43112h5.52018c0.2751,0 0.48782,-0.08065 0.63824,-0.24199c0.15428,-0.1613 0.23141,-0.37794 0.23141,-0.64952c0,-0.13208 -0.02042,-0.25325 -0.06057,-0.36314c-0.04053,-0.11022 -0.09897,-0.20533 -0.17613,-0.28635c-0.07327,-0.08065 -0.1652,-0.14302 -0.27509,-0.18705c-0.10637,-0.04403 -0.22578,-0.06587 -0.35785,-0.06587h-3.29125c-0.23107,0 -0.48045,-0.0405 -0.7485,-0.12115c-0.2677,-0.08456 -0.51743,-0.21838 -0.7485,-0.4019c-0.22754,-0.18315 -0.41808,-0.42375 -0.57236,-0.72102c-0.15041,-0.29694 -0.22544,-0.66045 -0.22544,-1.08946c0,-0.42938 0.07503,-0.79075 0.22544,-1.08416c0.15428,-0.29728 0.34482,-0.53749 0.57236,-0.72102c0.23107,-0.18738 0.4808,-0.32122 0.7485,-0.4019c0.26804,-0.08418 0.51743,-0.12644 0.7485,-0.12644h4.87067v1.43075h-4.87067c-0.27157,0 -0.48432,0.08278 -0.63824,0.24762c-0.15041,0.16521 -0.22581,0.38359 -0.22581,0.65515c0,0.2751 0.0754,0.49348 0.22581,0.65481c0.15392,0.15778 0.36667,0.2367 0.63824,0.2367h3.29125h0.01093c0.15425,0.0035 0.31735,0.02571 0.48995,0.06587c0.17222,0.03697 0.34306,0.09544 0.51179,0.17609c0.17257,0.08102 0.33567,0.18351 0.48996,0.30819c0.15392,0.12118 0.28989,0.26807 0.40716,0.44031c0.12117,0.1726 0.21628,0.3709 0.28602,0.59457c0.06973,0.22365 0.1046,0.47689 0.1046,0.75938zM20.46462,50.84765h-5.16267c-0.13208,0 -0.2751,-0.01481 -0.42901,-0.04406c-0.15042,-0.0331 -0.30081,-0.08242 -0.45155,-0.14861c-0.14653,-0.06587 -0.28778,-0.15042 -0.42375,-0.25326c-0.1356,-0.10639 -0.25678,-0.23283 -0.36315,-0.37972c-0.10286,-0.15038 -0.18529,-0.32264 -0.24762,-0.51743c-0.06233,-0.19794 -0.09368,-0.41985 -0.09368,-0.66571v-3.87454c0,-0.1321 0.01479,-0.27333 0.04403,-0.42375c0.03309,-0.15427 0.08275,-0.30466 0.14861,-0.45155c0.06624,-0.15038 0.15252,-0.29342 0.25891,-0.42901c0.10637,-0.13596 0.2328,-0.25502 0.37969,-0.35788c0.15042,-0.10636 0.32265,-0.19091 0.51709,-0.25325c0.19477,-0.06233 0.41492,-0.09334 0.66041,-0.09334h5.16267v1.43075h-5.16267c-0.18702,0 -0.33004,0.04969 -0.42901,0.14866c-0.09933,0.09897 -0.14865,0.24585 -0.14865,0.4403v3.86361c0,0.18351 0.04932,0.32651 0.14865,0.42938c0.10249,0.09897 0.24586,0.14829 0.42901,0.14829h5.16267zM29.70504,45.60818c0,0.32655 -0.04016,0.61818 -0.12114,0.87494c-0.08068,0.25715 -0.19058,0.48432 -0.33004,0.68263c-0.13596,0.19445 -0.29341,0.3614 -0.4734,0.50088c-0.17966,0.13949 -0.3688,0.25502 -0.56674,0.34662c-0.19445,0.08805 -0.39274,0.15214 -0.59457,0.19264c-0.19794,0.04053 -0.38535,0.06061 -0.56145,0.06061l2.98868,2.58116h-2.21238l-2.98303,-2.58116h-1.02921v-1.43112h3.23594c0.17998,-0.01445 0.34306,-0.05108 0.48995,-0.10989c0.15039,-0.06233 0.27897,-0.14511 0.38536,-0.24762c0.10989,-0.10286 0.19441,-0.22578 0.25325,-0.3688c0.05848,-0.14686 0.08805,-0.31383 0.08805,-0.50088v-0.90275c0,-0.08069 -0.01127,-0.14126 -0.0331,-0.18142c-0.01832,-0.04403 -0.04402,-0.07536 -0.07715,-0.09368c-0.02924,-0.02184 -0.06234,-0.03489 -0.09897,-0.0384c-0.03309,-0.00389 -0.06411,-0.00566 -0.09371,-0.00566h-4.722v6.46135h-1.43109v-7.17108c0,-0.09934 0.01864,-0.19267 0.05528,-0.28073c0.03664,-0.08805 0.08632,-0.16521 0.14866,-0.23141c0.06587,-0.06587 0.14298,-0.11731 0.23106,-0.15395c0.08805,-0.03663 0.18349,-0.05495 0.28599,-0.05495h5.4321c0.31915,0 0.58894,0.05848 0.80909,0.17613c0.22014,0.11375 0.39802,0.25854 0.53399,0.43464c0.1395,0.1726 0.23846,0.35964 0.29694,0.56147c0.06267,0.20181 0.09368,0.39061 0.09368,0.56674zM37.63025,47.62259h-4.5184v-1.44202h4.5184zM38.27412,50.84765h-5.16229c-0.19834,0 -0.41459,-0.03489 -0.64952,-0.10464c-0.23459,-0.06973 -0.45299,-0.18351 -0.65478,-0.3413c-0.1983,-0.16134 -0.36527,-0.3688 -0.50088,-0.62169c-0.1321,-0.25678 -0.19834,-0.57062 -0.19834,-0.94116v-5.16231c0,-0.09934 0.01868,-0.19267 0.05532,-0.28073c0.03664,-0.08805 0.08632,-0.1652 0.14866,-0.23141c0.06587,-0.06587 0.14298,-0.11731 0.23106,-0.15395c0.08805,-0.03663 0.1835,-0.05495 0.28599,-0.05495h6.44477v1.43075h-5.73468v4.45257c0,0.18702 0.04968,0.33004 0.14865,0.42938c0.09897,0.09897 0.24409,0.14829 0.43464,0.14829h5.15139zM46.9038,50.84765h-6.52719c-0.10286,0 -0.1983,-0.01832 -0.28638,-0.05495c-0.08805,-0.03663 -0.16484,-0.08632 -0.23105,-0.14865c-0.06237,-0.06623 -0.11165,-0.14302 -0.14865,-0.23107c-0.03663,-0.08805 -0.05495,-0.18351 -0.05495,-0.28635v-7.17108h1.43112v6.461h5.81709zM55.68773,50.12662c0,0.10284 -0.01832,0.1983 -0.05532,0.28635c-0.03663,0.08805 -0.08805,0.16484 -0.15392,0.23107c-0.0662,0.06233 -0.14299,0.11202 -0.23107,0.14865c-0.08805,0.03663 -0.18173,0.05495 -0.28073,0.05495h-3.22502c-0.3047,0 -0.6129,-0.03313 -0.92462,-0.099c-0.31206,-0.0662 -0.61463,-0.16694 -0.9084,-0.3029c-0.28952,-0.13913 -0.56285,-0.31526 -0.81999,-0.52835c-0.25678,-0.21275 -0.48219,-0.46391 -0.67697,-0.75379c-0.19058,-0.29375 -0.34096,-0.62768 -0.45121,-1.00175c-0.10989,-0.37794 -0.16521,-0.79814 -0.16521,-1.26029v-3.94604h1.43112v3.94604c0,0.40367 0.05495,0.74462 0.16521,1.02359c0.11375,0.27898 0.25678,0.5118 0.42901,0.69885c0.1726,0.18738 0.36174,0.33391 0.5671,0.44027c0.20533,0.10673 0.39977,0.18564 0.58329,0.2367c0.18702,0.05145 0.35046,0.08455 0.48995,0.09933c0.14299,0.01092 0.2367,0.01621 0.28073,0.01621h2.51492v-6.46099h1.43112zM60.95463,45.77339l2.41069,-2.81785h1.95348l-3.39552,3.95696l3.37367,3.93516h-1.94291l-2.3994,-2.79601l-2.38847,2.79601h-1.94853l3.3684,-3.93516l-3.37933,-3.95696h1.93728zM72.71036,47.62259h-4.51841v-1.44202h4.51841zM73.35423,50.84765h-5.16228c-0.1983,0 -0.41459,-0.03489 -0.64952,-0.10464c-0.23493,-0.06973 -0.45299,-0.18351 -0.65479,-0.3413c-0.1983,-0.16134 -0.36527,-0.3688 -0.50087,-0.62169c-0.1321,-0.25678 -0.1983,-0.57062 -0.1983,-0.94116v-5.16231c0,-0.09934 0.01832,-0.19267 0.05495,-0.28073c0.03696,-0.08805 0.08628,-0.1652 0.14862,-0.23141c0.06624,-0.06587 0.14336,-0.11731 0.23143,-0.15395c0.08804,-0.03663 0.18314,-0.05495 0.28598,-0.05495h6.44477v1.43075h-5.73467v4.45257c0,0.18702 0.04931,0.33004 0.14865,0.42938c0.09897,0.09897 0.24376,0.14829 0.43464,0.14829h5.15138z" fill="url(#color-8)"/><path d="M11.53688,48.00691c0,0.28251 -0.03664,0.53753 -0.10989,0.76507c-0.06973,0.22402 -0.16344,0.42195 -0.28073,0.59454c-0.11729,0.17222 -0.25502,0.31913 -0.41282,0.44031c-0.15778,0.12082 -0.32089,0.22015 -0.48996,0.29694c-0.1687,0.07713 -0.34096,0.1342 -0.51707,0.17083c-0.1726,0.03663 -0.33603,0.05495 -0.48995,0.05495h-5.52018v-1.43111h5.52018c0.2751,0 0.48782,-0.08066 0.63824,-0.24199c0.15428,-0.1613 0.23141,-0.37794 0.23141,-0.64952c0,-0.13208 -0.02042,-0.25326 -0.06057,-0.36315c-0.04053,-0.11022 -0.09897,-0.20533 -0.17613,-0.28635c-0.07327,-0.08065 -0.16521,-0.14302 -0.2751,-0.18705c-0.10637,-0.04403 -0.22578,-0.06587 -0.35784,-0.06587h-3.29126c-0.23107,0 -0.48045,-0.04049 -0.7485,-0.12114c-0.2677,-0.08456 -0.51743,-0.21838 -0.7485,-0.40191c-0.22754,-0.18315 -0.41808,-0.42375 -0.57236,-0.72102c-0.15042,-0.29694 -0.22544,-0.66045 -0.22544,-1.08946c0,-0.42938 0.07503,-0.79075 0.22544,-1.08416c0.15427,-0.29728 0.34482,-0.53749 0.57237,-0.72102c0.23107,-0.18738 0.4808,-0.32122 0.7485,-0.4019c0.26804,-0.08418 0.51743,-0.12644 0.7485,-0.12644h4.87066v1.43075h-4.87066c-0.27157,0 -0.48432,0.08279 -0.63824,0.24762c-0.15041,0.16521 -0.22581,0.38358 -0.22581,0.65514c0,0.2751 0.0754,0.49348 0.22581,0.65482c0.15392,0.15778 0.36667,0.2367 0.63824,0.2367h3.29126h0.01092c0.15425,0.0035 0.31736,0.02571 0.48996,0.06587c0.17222,0.03697 0.34306,0.09544 0.5118,0.17609c0.17257,0.08102 0.33567,0.18352 0.48996,0.3082c0.15392,0.12118 0.28988,0.26807 0.40716,0.4403c0.12117,0.1726 0.21628,0.3709 0.28602,0.59457c0.06973,0.22365 0.1046,0.47689 0.1046,0.75939zM19.79249,50.32954h-5.16267c-0.13208,0 -0.2751,-0.01481 -0.42901,-0.04405c-0.15042,-0.0331 -0.30081,-0.08243 -0.45156,-0.14862c-0.14653,-0.06587 -0.28778,-0.15041 -0.42375,-0.25325c-0.1356,-0.10639 -0.25678,-0.23283 -0.36314,-0.37972c-0.10286,-0.15038 -0.18529,-0.32265 -0.24762,-0.51743c-0.06233,-0.19794 -0.09368,-0.41984 -0.09368,-0.6657v-3.87455c0,-0.1321 0.01479,-0.27333 0.04403,-0.42375c0.03309,-0.15427 0.08276,-0.30466 0.14862,-0.45155c0.06624,-0.15038 0.15252,-0.29341 0.25891,-0.429c0.10637,-0.13596 0.2328,-0.25502 0.37969,-0.35788c0.15042,-0.10636 0.32264,-0.19091 0.51709,-0.25325c0.19477,-0.06233 0.41492,-0.09334 0.66042,-0.09334h5.16267v1.43075h-5.16267c-0.18702,0 -0.33004,0.04968 -0.42901,0.14865c-0.09933,0.09897 -0.14865,0.24585 -0.14865,0.4403v3.86362c0,0.18351 0.04932,0.32651 0.14865,0.42938c0.10249,0.09897 0.24586,0.14829 0.42901,0.14829h5.16267zM29.03291,45.09009c0,0.32655 -0.04016,0.61818 -0.12115,0.87494c-0.08068,0.25715 -0.19057,0.48432 -0.33003,0.68263c-0.13596,0.19445 -0.29342,0.3614 -0.4734,0.50088c-0.17966,0.13949 -0.36879,0.25502 -0.56673,0.34662c-0.19445,0.08805 -0.39275,0.15215 -0.59458,0.19265c-0.19794,0.04053 -0.38535,0.0606 -0.56145,0.0606l2.98869,2.58116h-2.21238l-2.98303,-2.58116h-1.02922v-1.43111h3.23594c0.17998,-0.01445 0.34306,-0.05109 0.48995,-0.1099c0.15039,-0.06233 0.27896,-0.14511 0.38535,-0.24762c0.10989,-0.10286 0.19442,-0.22578 0.25326,-0.3688c0.05848,-0.14686 0.08804,-0.31382 0.08804,-0.50087v-0.90275c0,-0.08069 -0.01126,-0.14125 -0.03309,-0.18141c-0.01832,-0.04403 -0.04403,-0.07536 -0.07716,-0.09368c-0.02924,-0.02184 -0.06233,-0.0349 -0.09896,-0.0384c-0.03309,-0.00389 -0.06411,-0.00565 -0.09371,-0.00565h-4.722v6.46135h-1.43109v-7.17108c0,-0.09934 0.01864,-0.19267 0.05528,-0.28073c0.03664,-0.08805 0.08631,-0.16521 0.14865,-0.23141c0.06587,-0.06587 0.14299,-0.11731 0.23107,-0.15395c0.08805,-0.03663 0.18349,-0.05495 0.28599,-0.05495h5.4321c0.31915,0 0.58894,0.05848 0.80909,0.17613c0.22014,0.11375 0.39802,0.25854 0.53398,0.43464c0.1395,0.1726 0.23847,0.35964 0.29695,0.56147c0.06267,0.20181 0.09368,0.3906 0.09368,0.56673zM36.95812,47.10449h-4.51841v-1.44202h4.51841zM37.602,50.32954h-5.16229c-0.19834,0 -0.41459,-0.03489 -0.64951,-0.10463c-0.23459,-0.06973 -0.45299,-0.18351 -0.65479,-0.3413c-0.1983,-0.16134 -0.36527,-0.3688 -0.50088,-0.62169c-0.1321,-0.25678 -0.19834,-0.57063 -0.19834,-0.94117v-5.1623c0,-0.09934 0.01868,-0.19267 0.05532,-0.28073c0.03664,-0.08805 0.08632,-0.16521 0.14866,-0.23141c0.06587,-0.06587 0.14298,-0.11731 0.23106,-0.15394c0.08805,-0.03663 0.18349,-0.05495 0.28599,-0.05495h6.44478v1.43075h-5.73468v4.45257c0,0.18702 0.04968,0.33003 0.14865,0.42938c0.09897,0.09897 0.24409,0.14829 0.43464,0.14829h5.15139zM46.23167,50.32954h-6.5272c-0.10286,0 -0.1983,-0.01832 -0.28638,-0.05495c-0.08805,-0.03663 -0.16484,-0.08632 -0.23105,-0.14865c-0.06237,-0.06623 -0.11165,-0.14303 -0.14865,-0.23107c-0.03663,-0.08805 -0.05495,-0.18351 -0.05495,-0.28635v-7.17108h1.43112v6.46099h5.81708zM55.01561,49.60852c0,0.10284 -0.01832,0.1983 -0.05532,0.28635c-0.03663,0.08805 -0.08805,0.16484 -0.15392,0.23107c-0.0662,0.06233 -0.14299,0.11202 -0.23107,0.14865c-0.08805,0.03663 -0.18173,0.05495 -0.28073,0.05495h-3.22502c-0.3047,0 -0.6129,-0.03313 -0.92462,-0.099c-0.31206,-0.0662 -0.61463,-0.16694 -0.9084,-0.3029c-0.28952,-0.13913 -0.56285,-0.31526 -0.81999,-0.52835c-0.25678,-0.21275 -0.48219,-0.46391 -0.67697,-0.75379c-0.19058,-0.29375 -0.34096,-0.62768 -0.45121,-1.00175c-0.10989,-0.37794 -0.16521,-0.79814 -0.16521,-1.26029v-3.94604h1.43112v3.94604c0,0.40367 0.05495,0.74462 0.16521,1.02359c0.11375,0.27898 0.25678,0.5118 0.42901,0.69885c0.1726,0.18738 0.36174,0.33391 0.5671,0.44027c0.20533,0.10673 0.39977,0.18564 0.58329,0.2367c0.18702,0.05145 0.35046,0.08455 0.48995,0.09933c0.14299,0.01092 0.2367,0.01621 0.28073,0.01621h2.51492v-6.46099h1.43112zM60.28251,45.25529l2.41069,-2.81786h1.95347l-3.39552,3.95696l3.37367,3.93515h-1.94291l-2.3994,-2.79601l-2.38847,2.79601h-1.94853l3.3684,-3.93515l-3.37932,-3.95696h1.93728zM72.03824,47.10449h-4.51841v-1.44202h4.51841zM72.68211,50.32954h-5.16228c-0.1983,0 -0.41459,-0.03489 -0.64951,-0.10463c-0.23493,-0.06973 -0.45299,-0.18351 -0.65479,-0.3413c-0.1983,-0.16134 -0.36527,-0.3688 -0.50088,-0.62169c-0.1321,-0.25678 -0.1983,-0.57063 -0.1983,-0.94117v-5.1623c0,-0.09934 0.01831,-0.19267 0.05495,-0.28073c0.03696,-0.08805 0.08629,-0.16521 0.14862,-0.23141c0.06624,-0.06587 0.14336,-0.11731 0.23143,-0.15394c0.08804,-0.03663 0.18314,-0.05495 0.28598,-0.05495h6.44477v1.43075h-5.73467v4.45257c0,0.18702 0.04932,0.33003 0.14865,0.42938c0.09897,0.09897 0.24376,0.14829 0.43464,0.14829h5.15138z" fill="url(#color-9)"/></g><path d="M49.06821,30.41567l4.12848,-3.61621l5.65529,0.50997l2.38617,4.76053l-1.99475,5.38772l-6.22223,1.60512l-4.10954,-2.61919zM56.30515,34.37656l0.33369,-2.57383l-3.60376,-0.87888l-0.23604,3.6382z" data-paper-data="{&quot;origPos&quot;:null}" fill="url(#color-10)" stroke="#2b2b2b" stroke-width="1.5" stroke-linecap="butt"/><path d="M4.1305,37.88887l3.47665,-12.32509l3.0413,0.67595l1.17032,2.88734l1.95288,-3.2019l3.06867,0.02657l4.02927,12.31747l-5.20459,1.15839l-1.86904,-8.62435l-2.18932,3.85336l-1.86978,-3.88165l-0.03863,8.2567z" data-paper-data="{&quot;origPos&quot;:null}" fill="url(#color-11)" stroke="#2b2b2b" stroke-width="1.5" stroke-linecap="butt"/><path d="M19.1359,37.98922l4.43202,-12.37388l5.963,1.48334l3.76262,12.32386l-4.64416,-0.24069l-0.76218,-3.46086l-3.22481,-0.34343l-1.79838,3.47451zM27.75739,32.24217l-0.66736,-3.26438l-1.49549,-0.08192l-0.84027,3.15797z" data-paper-data="{&quot;origPos&quot;:null}" fill="url(#color-12)" stroke="#2b2b2b" stroke-width="1.5" stroke-linecap="butt"/><path d="M25.0212,32.05384l0.57333,-3.15797l1.49549,0.08192l0.53389,3.26438z" data-paper-data="{&quot;origPos&quot;:null}" fill="none" stroke="#2b2b2b" stroke-width="1.5" stroke-linecap="butt"/><path d="M32.27162,38.8467l1.27414,-13.59199l5.58532,0.34802l4.08771,2.23563l0.13418,5.23067l-4.35178,1.30862l5.8946,2.93186l-4.51637,2.11808l-3.77522,-3.31392l-1.16882,2.96631zM39.95897,31.73995l-0.86756,-2.82494l-2.33578,-0.43943l-0.06673,3.95492z" data-paper-data="{&quot;origPos&quot;:null}" fill="url(#color-13)" stroke="#2b2b2b" stroke-width="1.5" stroke-linecap="butt"/><path d="M43.83052,39.19875l0.71659,-12.86883l3.35366,0.02884l0.95343,12.60621z" data-paper-data="{&quot;origPos&quot;:null,&quot;origRot&quot;:0}" fill="url(#color-14)" stroke="#2b2b2b" stroke-width="1.5" stroke-linecap="butt"/><path d="M48.70083,30.41567l4.12848,-3.61621l5.65528,0.50997l2.38617,4.76053l-1.99475,5.38772l-6.22223,1.60512l-4.10954,-2.61919zM55.93778,34.37656l0.33368,-2.57383l-3.60376,-0.87888l-0.23604,3.6382z" data-paper-data="{&quot;origPos&quot;:null}" fill="url(#color-15)" stroke="#2b2b2b" stroke-width="0" stroke-linecap="butt"/><path d="M61.46876,38.72649l0.26887,-13.71754l3.84449,0.22247l0.48141,5.57339l4.40147,-5.6698l3.41985,2.26552l-5.9023,5.38772l5.0426,5.40549l-3.04816,0.98811l-4.04216,-4.94613l-0.90187,4.5985z" data-paper-data="{&quot;origPos&quot;:null}" fill="url(#color-16)" stroke="#2b2b2b" stroke-width="1.5" stroke-linecap="butt"/><path d="M72.36768,37.61256l4.43202,-12.37388l5.963,1.48334l3.76262,12.32386l-4.64416,-0.24068l-0.76218,-3.46086l-3.22481,-0.34343l-1.79838,3.4745zM80.98917,31.8655l-0.66736,-3.26438l-1.4955,-0.08192l-0.84027,3.15797z" data-paper-data="{&quot;origPos&quot;:null}" fill="url(#color-17)" stroke="#2b2b2b" stroke-width="1.5" stroke-linecap="butt"/><path d="M78.25298,31.67717l0.57333,-3.15797l1.49549,0.08192l0.5339,3.26438z" data-paper-data="{&quot;origPos&quot;:null}" fill="none" stroke="#2b2b2b" stroke-width="1.5" stroke-linecap="butt"/><path d="M85.93856,38.5956l1.27414,-13.59199l5.58532,0.34802l4.08772,2.23564l0.13418,5.23067l-4.35178,1.30862l5.8946,2.93186l-4.51637,2.11809l-3.77523,-3.31393l-1.16882,2.96631zM93.62591,31.48885l-0.86756,-2.82494l-2.33577,-0.43944l-0.06673,3.95492z" data-paper-data="{&quot;origPos&quot;:null}" fill="url(#color-18)" stroke="#2b2b2b" stroke-width="1.5" stroke-linecap="butt"/><path d="M101.01974,39.19299l0.39785,-9.28523l-4.58426,0.8323l0.25771,-5.41622l14.72728,1.15664l-1.5455,5.15592l-4.55321,-1.19985l-0.03297,9.00925z" data-paper-data="{&quot;origPos&quot;:null,&quot;origRot&quot;:0}" fill="url(#color-19)" stroke="#2b2b2b" stroke-width="1.5" stroke-linecap="butt"/><path d="M4.1305,37.88887l3.47665,-12.32509l3.0413,0.67595l1.17032,2.88734l1.95288,-3.2019l3.06867,0.02657l4.02927,12.31747l-5.20459,1.15839l-1.86904,-8.62435l-2.18932,3.85336l-1.86978,-3.88165l-0.03863,8.2567z" data-paper-data="{&quot;origPos&quot;:null}" fill="url(#color-20)" stroke="#2b2b2b" stroke-width="0" stroke-linecap="butt"/><path d="M19.1359,37.98922l4.43202,-12.37388l5.963,1.48334l3.76262,12.32386l-4.64416,-0.24069l-0.76218,-3.46086l-3.22481,-0.34343l-1.79838,3.47451zM27.75739,32.24215l-0.66736,-3.26437l-1.49549,-0.08192l-0.84027,3.15797z" data-paper-data="{&quot;origPos&quot;:null}" fill="url(#color-21)" stroke="#2b2b2b" stroke-width="0" stroke-linecap="butt"/><path d="M32.27162,38.8467l1.27414,-13.59199l5.58532,0.34802l4.08771,2.23563l0.13418,5.23067l-4.35178,1.30862l5.8946,2.93186l-4.51637,2.11808l-3.77522,-3.31392l-1.16882,2.96631zM39.95897,31.73995l-0.86756,-2.82494l-2.33578,-0.43943l-0.06673,3.95492z" data-paper-data="{&quot;origPos&quot;:null}" fill="url(#color-22)" stroke="#2b2b2b" stroke-width="0" stroke-linecap="butt"/><path d="M43.46315,39.19875l0.71659,-12.86883l3.35366,0.02884l0.95343,12.60621z" data-paper-data="{&quot;origPos&quot;:null,&quot;origRot&quot;:0}" fill="url(#color-23)" stroke="#2b2b2b" stroke-width="0" stroke-linecap="butt"/><path d="M61.10138,38.72649l0.26887,-13.71754l3.8445,0.22247l0.48141,5.57339l4.40147,-5.6698l3.41985,2.26552l-5.9023,5.38772l5.0426,5.40549l-3.04816,0.98811l-4.04216,-4.94613l-0.90187,4.5985z" data-paper-data="{&quot;origPos&quot;:null}" fill="url(#color-24)" stroke="#2b2b2b" stroke-width="0" stroke-linecap="butt"/><path d="M72.00031,37.61256l4.43201,-12.37388l5.96301,1.48334l3.76261,12.32386l-4.64416,-0.24068l-0.76219,-3.46086l-3.22481,-0.34343l-1.79839,3.4745zM80.62179,31.8655l-0.66736,-3.26438l-1.49549,-0.08192l-0.84027,3.15797z" data-paper-data="{&quot;origPos&quot;:null}" fill="url(#color-25)" stroke="#2b2b2b" stroke-width="0" stroke-linecap="butt"/><path d="M85.57118,38.5956l1.27414,-13.59199l5.58531,0.34802l4.08772,2.23564l0.13418,5.23067l-4.35178,1.30862l5.89459,2.93186l-4.51637,2.11809l-3.77522,-3.31393l-1.16882,2.96631zM93.25853,31.48885l-0.86757,-2.82494l-2.33577,-0.43944l-0.06673,3.95492z" data-paper-data="{&quot;origPos&quot;:null}" fill="url(#color-26)" stroke="#2b2b2b" stroke-width="0" stroke-linecap="butt"/><path d="M100.65236,39.19299l0.39785,-9.28523l-4.58426,0.8323l0.2577,-5.41622l14.72728,1.15664l-1.5455,5.15592l-4.55321,-1.19985l-0.03297,9.00925z" data-paper-data="{&quot;origPos&quot;:null,&quot;origRot&quot;:0}" fill="url(#color-27)" stroke="#2b2b2b" stroke-width="0" stroke-linecap="butt"/></g><text transform="translate(150.40551,65.85437) scale(0.30573,0.32548)" font-size="40" xml:space="preserve" fill="#000000" fill-rule="nonzero" stroke="none" stroke-width="1" stroke-linecap="butt" stroke-linejoin="miter" stroke-miterlimit="10" stroke-dasharray="" stroke-dashoffset="0" font-family="Sans Serif" font-weight="normal" text-anchor="start" style="mix-blend-mode: normal"><tspan x="0" dy="0">Sub-versions (e.g. 0.1.0.5) will not be added to this list.</tspan></text></g></g></svg>