<svg version="1.1" xmlns="http://www.w3.org/2000/svg" xmlns:xlink="http://www.w3.org/1999/xlink" width="479.68769" height="363.48648" viewBox="0,0,479.68769,363.48648"><g transform="translate(-0.79333,3.41019)"><g data-paper-data="{&quot;isPaintingLayer&quot;:true}" stroke-linejoin="miter" stroke-miterlimit="10" stroke-dasharray="" stroke-dashoffset="0" style="mix-blend-mode: normal"><text transform="translate(1,87.85714) scale(0.41333,0.41333)" font-size="40" xml:space="preserve" fill="#000000" fill-rule="nonzero" stroke="none" stroke-width="1" stroke-linecap="butt" stroke-linejoin="miter" stroke-miterlimit="10" stroke-dasharray="" stroke-dashoffset="0" font-family="Sans Serif" font-weight="normal" text-anchor="start" style="mix-blend-mode: normal"><tspan x="0" dy="0"> </tspan><tspan x="0" dy="46.150000000000006px">0.0.2 -</tspan><tspan x="0" dy="46.150000000000006px">0.0.3 -</tspan><tspan x="0" dy="46.150000000000006px">0.0.4 -</tspan><tspan x="0" dy="46.150000000000006px">0.0.5 -</tspan><tspan x="0" dy="46.150000000000006px">0.0.6 -</tspan><tspan x="0" dy="46.150000000000006px">0.0.7 -</tspan><tspan x="0" dy="46.150000000000006px">0.0.8 -</tspan><tspan x="0" dy="46.150000000000006px">0.0.9 -</tspan><tspan x="0" dy="46.150000000000006px">0.1.0 -</tspan><tspan x="0" dy="46.150000000000006px">0.1.1 -</tspan><tspan x="0" dy="46.150000000000006px">0.1.2 -</tspan><tspan x="0" dy="46.150000000000006px">0.1.3 -</tspan><tspan x="0" dy="46.150000000000006px">0.1.4 -</tspan><tspan x="0" dy="46.150000000000006px">0.1.5 -</tspan></text><text transform="translate(235.99675,87.85714) scale(0.41333,0.41333)" font-size="40" xml:space="preserve" fill="#000000" fill-rule="nonzero" stroke="none" stroke-width="1" stroke-linecap="butt" stroke-linejoin="miter" stroke-miterlimit="10" stroke-dasharray="" stroke-dashoffset="0" font-family="Sans Serif" font-weight="normal" text-anchor="start" style="mix-blend-mode: normal"><tspan x="0" dy="0">0.1.6 -</tspan><tspan x="0" dy="46.150000000000006px">0.1.7 -</tspan><tspan x="0" dy="46.150000000000006px">0.1.8 -</tspan><tspan x="0" dy="46.150000000000006px">0.1.9 -</tspan><tspan x="0" dy="46.150000000000006px">0.2.0 -</tspan><tspan x="0" dy="46.150000000000006px">0.2.1 -</tspan><tspan x="0" dy="46.150000000000006px">0.2.2 -</tspan><tspan x="0" dy="46.150000000000006px">0.2.3 -</tspan><tspan x="0" dy="46.150000000000006px">0.2.4 -</tspan><tspan x="0" dy="46.150000000000006px">0.2.5 -</tspan><tspan x="0" dy="46.150000000000006px">0.2.6 -</tspan><tspan x="0" dy="46.150000000000006px">0.2.7 -</tspan><tspan x="0" dy="46.150000000000006px">0.2.8 -</tspan><tspan x="0" dy="46.150000000000006px">0.2.9 -</tspan><tspan x="0" dy="46.150000000000006px">0.3.0 -</tspan></text><path d="M141.57278,4.63208v62.5" fill="none" fill-rule="nonzero" stroke="#000000" stroke-width="2.5" stroke-linecap="round"/><text transform="translate(145.99999,32.00708) scale(0.81419,0.81419)" font-size="40" xml:space="preserve" fill="#000000" fill-rule="nonzero" stroke="none" stroke-width="1" stroke-linecap="butt" stroke-linejoin="miter" stroke-miterlimit="10" stroke-dasharray="" stroke-dashoffset="0" font-family="Sans Serif" font-weight="normal" text-anchor="start" style="mix-blend-mode: normal"><tspan x="0" dy="0">Dibs List</tspan></text><text transform="translate(148.99999,49.50708) scale(0.42416,0.42416)" font-size="40" xml:space="preserve" fill="#000000" fill-rule="nonzero" stroke="none" stroke-width="1" stroke-linecap="butt" stroke-linejoin="miter" stroke-miterlimit="10" stroke-dasharray="" stroke-dashoffset="0" font-family="Sans Serif" font-weight="normal" text-anchor="start" style="mix-blend-mode: normal"><tspan x="0" dy="0">You must be a team member to call dibs.</tspan></text><path d="M40.83454,143.24345l0.1449,0.1449" fill="none" fill-rule="nonzero" stroke="#6dbee5" stroke-width="0.5" stroke-linecap="round"/><path d="M112.32884,135.23743l0.10395,0.10395" fill="none" fill-rule="nonzero" stroke="#b0faff" stroke-width="0.5" stroke-linecap="round"/><path d="M110.35389,134.73503l-0.10395,-0.10395" fill="none" fill-rule="nonzero" stroke="#b0faff" stroke-width="0.5" stroke-linecap="round"/><g fill="#000000"><path d="M3.69423,40.21314c1.04478,2.41553 2.45903,3.58004 3.95839,3.58004c0.99146,0 1.64621,-0.63603 1.64621,-1.55267c0,-2.56284 -6.28552,-2.41319 -6.28552,-6.62225c0.0107,-0.88778 0.37733,-1.7341 1.01766,-2.34912c0.48357,-0.48545 1.12428,-0.88016 1.88939,-1.14066c0.70949,-0.23463 1.45268,-0.35123 2.19993,-0.34515c0.24142,-0.00011 0.48275,0.00894 0.72349,0.02712c1.18879,0.09664 2.34734,0.42419 3.41074,0.96434l-0.29931,4.02198h-1.085c-0.01059,-0.09023 -0.02212,-0.18034 -0.03461,-0.27031c-0.217,-1.56016 -0.80533,-3.54589 -2.6779,-3.54589c-0.10337,-0.00022 -0.20663,0.00633 -0.30913,0.01964c-0.58225,0.0767 -1.00222,0.38396 -1.16685,0.96294c-0.05351,0.19799 -0.07932,0.40243 -0.0767,0.60751c0,2.7125 6.28553,2.54414 6.28553,6.56612c0.03471,1.08504 -0.44651,2.12243 -1.29733,2.79669c-0.96154,0.76979 -2.40665,1.16918 -4.16509,1.16918c-1.32024,0 -2.81352,-0.37741 -4.3068,-1.14626c-0.13714,-0.07057 -0.27295,-0.14369 -0.40735,-0.21933c-0.00823,-0.04518 -0.01633,-0.0904 -0.02432,-0.13562c-0.15293,-0.86894 -0.27266,-1.81317 -0.35871,-2.73682c-0.05209,-0.55688 -0.09278,-1.11478 -0.12206,-1.67334l1.04759,-0.13094c0.12927,0.39039 0.27531,0.77501 0.43774,1.15281z" fill-rule="evenodd" stroke="#000000" stroke-width="0" stroke-linecap="round"/><path d="M24.77393,41.94917c-0.18065,0.81127 -0.40709,1.62218 -0.71713,2.48469c-0.84944,0.31477 -1.58547,0.5234 -2.40982,0.61536c-0.33435,0.03652 -0.67048,0.05436 -1.00682,0.05343c-0.10834,0.00004 -0.21666,-0.00165 -0.32494,-0.00509c-2.28988,-0.07379 -4.57939,-0.93122 -5.55422,-2.86343c-0.33384,-0.68143 -0.50137,-1.4323 -0.48887,-2.191c-0.00005,-0.01224 -0.00005,-0.02448 0,-0.03671c0.01781,-2.34876 1.75266,-5.25545 6.12087,-5.25545c1.33758,0 2.67516,0.2617 3.9255,0.7124v3.4021h-0.81418c-0.20537,-0.93049 -0.70223,-2.51377 -2.06634,-3.02191c-0.30213,-0.11019 -0.62163,-0.16511 -0.94321,-0.16211c-1.54112,0 -2.84962,1.39573 -2.84962,4.20174c-0.00029,0.21635 0.00735,0.43264 0.0229,0.64843c0.1025,1.39246 0.54739,2.49378 1.37465,3.06516c0.43739,0.29301 0.95485,0.44323 1.48114,0.42998c1.05625,0 2.21282,-0.52376 3.25525,-2.54612c0.16001,-0.3126 0.30603,-0.63216 0.43763,-0.95775l0.79964,0.20354c-0.07164,0.40934 -0.15247,0.81701 -0.24243,1.22272z" fill-rule="evenodd" stroke="#000000" stroke-width="0" stroke-linecap="round"/><path d="M27.54977,42.30901c0.00818,-0.23665 0.01182,-0.47344 0.01091,-0.71023v-3.31486c0.00007,-0.11958 -0.00067,-0.23917 -0.00218,-0.35875c-0.0229,-1.72249 -0.25661,-1.93076 -1.77883,-2.27752c-0.07991,-0.01809 -0.15986,-0.0359 -0.23989,-0.05343v-0.61063c1.48296,-0.05815 2.96593,-0.11631 4.4489,-0.11631c0.55093,-0.00176 1.1018,0.01182 1.65198,0.04071c1.27652,0.07197 2.25826,0.24462 2.95648,0.57029c0.83736,0.33188 1.36578,1.16522 1.30886,2.06416c0.00039,0.14548 -0.013,0.29067 -0.03999,0.43362c-0.22171,1.15875 -1.31249,1.6727 -1.93731,1.90714c0.04227,0.07975 0.08503,0.15923 0.1283,0.23843c0.75638,1.38083 1.99583,3.26143 4.00074,4.42855l-0.10177,0.61063c-3.56202,-0.20354 -4.59428,-0.50887 -6.00456,-3.06771c-0.02108,-0.03829 -0.04216,-0.07657 -0.06325,-0.11486c-0.57538,-1.0468 -0.70986,-1.27434 -1.15111,-1.35321c-0.07936,-0.01337 -0.15929,-0.02319 -0.23953,-0.02944v1.00318c-0.00007,0.11958 0.00066,0.23917 0.00218,0.35875c0.0229,1.72249 0.25661,1.93076 1.77883,2.27751c0.07991,0.01809 0.15987,0.0359 0.23989,0.05343v0.61063c-1.16312,0 -2.32623,-0.02908 -3.48934,-0.02908c-1.16312,0 -2.32622,0.02908 -3.48933,0.02908v-0.61063c1.61818,-0.35657 1.95221,-0.50123 2.01,-1.97947zM31.26045,39.54081c0.83162,-0.23189 1.38883,-0.78837 1.38883,-1.91114c0.00051,-0.12651 -0.00959,-0.25282 -0.03017,-0.37765c-0.20136,-1.19146 -1.36666,-1.40119 -2.12158,-1.45425v3.86735c0.25783,-0.01583 0.51341,-0.05748 0.76292,-0.12431z" fill-rule="evenodd" stroke="#000000" stroke-width="0" stroke-linecap="round"/><path d="M41.47438,35.97224c0.16385,-0.07518 0.32407,-0.15802 0.48014,-0.24825c0.54557,-0.31549 0.98865,-0.69532 1.24562,-1.06461c0.05088,-0.07248 0.09609,-0.1488 0.13521,-0.22826h0.82872l2.8787,7.83646c0.35984,0.98319 0.61063,1.57093 1.40554,1.90169c0.18966,0.07674 0.38589,0.1361 0.58628,0.17738v0.55248c-1.00318,0 -1.99182,-0.02908 -2.99501,-0.02908c-1.00318,0 -1.99183,0.02908 -2.99501,0.02908v-0.55248c0.02497,-0.00553 0.04993,-0.01111 0.07488,-0.01672c0.98391,-0.22171 1.21908,-0.3413 1.21908,-0.71023c-0.00235,-0.11466 -0.01709,-0.22872 -0.04398,-0.34021c-0.08832,-0.39655 -0.29551,-0.93194 -0.50378,-1.70613c-0.00157,-0.00606 -0.00316,-0.01211 -0.00472,-0.01817h-2.90777c-0.07233,0.22463 -0.14866,0.47107 -0.20682,0.73567c-0.06345,0.27863 -0.09649,0.56331 -0.0985,0.84907c0.00001,0.02206 0.00061,0.04412 0.00182,0.06615c0.03635,0.67788 0.64116,0.9414 1.65561,1.08242v0.61063c-0.84326,0 -1.68651,-0.02908 -2.52977,-0.02908c-0.85779,0 -1.70105,0.02908 -2.52977,0.02908v-0.61063c1.06171,-0.20427 1.51168,-0.90542 2.00636,-1.98456c0.03431,-0.07494 0.06824,-0.15006 0.10177,-0.22535l2.44254,-5.46662zM42.27402,37.51336h-0.02908l-0.91595,2.67516h1.94821z" fill-rule="evenodd" stroke="#000000" stroke-width="0" stroke-linecap="round"/><path d="M49.76664,44.24377c1.83953,-0.3751 2.00129,-0.57392 2.00129,-2.64499v-5.6847c-0.02909,0.00062 -0.05818,0.00171 -0.08724,0.00327c-1.90241,0.10359 -2.78056,2.17611 -3.00955,3.03536l-0.7851,-0.15993l0.37801,-4.27443l0.77056,-0.05815c0.2428,0.3831 0.37329,0.49723 1.1115,0.51904c0.11411,0.00313 0.22824,0.0046 0.34239,0.00437h5.4957c0.01697,0.00002 0.03392,0.00002 0.05088,0c0.93049,-0.00291 1.10895,-0.08214 1.34811,-0.43871c0.01866,-0.02799 0.03696,-0.05622 0.05488,-0.08469l0.77056,0.05815l0.37801,4.27443l-0.7851,0.15993c-0.18392,-0.68951 -0.7851,-2.15939 -1.99801,-2.76748c-0.34133,-0.17154 -0.71683,-0.26421 -1.09878,-0.27115v5.6847c0.00006,0.03901 0.00018,0.07803 0.00037,0.11704c0.00655,1.94603 0.19336,2.15685 1.95803,2.51922c0.08863,0.0181 0.17732,0.03591 0.26607,0.05343v0.61063c-0.33004,-0.00004 -0.66008,-0.00149 -0.9901,-0.00436c-0.95811,-0.00836 -1.83044,-0.02472 -2.70278,-0.02472c-0.87233,0 -1.74466,0.01636 -2.70278,0.02472c-0.33003,0.00287 -0.66006,0.00433 -0.9901,0.00436v-0.61063c0.07443,-0.01472 0.14882,-0.02962 0.22317,-0.04471z" fill-rule="evenodd" stroke="#000000" stroke-width="0" stroke-linecap="round"/><path d="M68.90267,41.94917c-0.18065,0.81127 -0.40709,1.62218 -0.71713,2.48469c-0.84944,0.31477 -1.58547,0.5234 -2.40982,0.61536c-0.33435,0.03652 -0.67048,0.05436 -1.00682,0.05343c-0.10834,0.00004 -0.21666,-0.00165 -0.32494,-0.00509c-2.28988,-0.07379 -4.57939,-0.93122 -5.55422,-2.86343c-0.33384,-0.68143 -0.50137,-1.4323 -0.48887,-2.191c-0.00005,-0.01224 -0.00005,-0.02448 0,-0.03671c0.01781,-2.34876 1.75266,-5.25545 6.12087,-5.25545c1.33758,0 2.67516,0.2617 3.9255,0.7124v3.4021h-0.81418c-0.20537,-0.93049 -0.70223,-2.51377 -2.06634,-3.02191c-0.30213,-0.11019 -0.62163,-0.16511 -0.94321,-0.16211c-1.54112,0 -2.84962,1.39573 -2.84962,4.20174c-0.00029,0.21635 0.00735,0.43264 0.0229,0.64843c0.1025,1.39246 0.54739,2.49378 1.37465,3.06516c0.43739,0.29301 0.95485,0.44323 1.48114,0.42998c1.05625,0 2.21282,-0.52376 3.25525,-2.54612c0.16001,-0.3126 0.30603,-0.63216 0.43763,-0.95775l0.79964,0.20354c-0.07164,0.40934 -0.15247,0.81701 -0.24243,1.22272z" fill-rule="evenodd" stroke="#000000" stroke-width="0" stroke-linecap="round"/><path d="M71.63526,42.30901c0.00791,-0.23666 0.01142,-0.47344 0.01054,-0.71023v-3.34394c0,-2.0547 -0.15921,-2.26661 -1.65453,-2.63626c-0.0736,-0.01808 -0.14727,-0.03588 -0.22099,-0.05343v-0.61063c0.1294,-0.00003 0.25879,0.00033 0.38819,0.00109c0.92031,0.00582 1.93803,0.02799 2.95575,0.02799c0.87233,0 1.74466,-0.01635 2.52504,-0.02471c0.24873,-0.00274 0.49746,-0.0042 0.74621,-0.00437v0.61063c-1.62836,0.40709 -1.80282,0.53794 -1.80282,2.6897v0.7124h4.04181v-0.7124c0.00007,-0.10359 -0.00042,-0.20719 -0.00145,-0.31077c-0.0189,-1.75193 -0.22972,-1.97183 -1.55639,-2.31677c-0.08156,-0.02109 -0.16322,-0.04182 -0.24498,-0.06216v-0.61063c0.24874,0.00028 0.49748,0.00186 0.74621,0.00473c0.78037,0.008 1.65272,0.02435 2.52504,0.02435c0.87233,0 1.74466,-0.01635 2.55556,-0.02471c0.26278,-0.00277 0.52558,-0.00423 0.78837,-0.00437v0.61063c-1.4906,0.35657 -1.80899,0.50123 -1.86497,1.97947c-0.00791,0.23666 -0.01142,0.47344 -0.01055,0.71023v3.34394c0,2.0547 0.15921,2.26661 1.65453,2.63626c0.0736,0.01808 0.14727,0.03588 0.22099,0.05343v0.61063c-0.1294,0.00003 -0.25879,-0.00033 -0.38818,-0.00109c-0.92031,-0.00582 -1.93803,-0.02799 -2.95575,-0.02799c-0.87233,0 -1.74467,0.01635 -2.52504,0.02471c-0.24873,0.00274 -0.49746,0.0042 -0.74621,0.00436v-0.61063c1.62836,-0.40709 1.80282,-0.53793 1.80282,-2.68969v-1.20673h-4.04181v1.20673c-0.00007,0.10359 0.00042,0.20719 0.00145,0.31077c0.0189,1.75193 0.22972,1.97183 1.55639,2.31677c0.08156,0.02109 0.16322,0.04181 0.24498,0.06215v0.61063c-0.24874,-0.00017 -0.49748,-0.00162 -0.74621,-0.00436c-0.78037,-0.00836 -1.65271,-0.02471 -2.52504,-0.02471c-0.87233,0 -1.74466,0.01635 -2.55557,0.02471c-0.26278,0.00277 -0.52557,0.00422 -0.78837,0.00436v-0.61063c1.4906,-0.35657 1.80899,-0.50122 1.86497,-1.97947z" fill-rule="evenodd" stroke="#000000" stroke-width="0" stroke-linecap="round"/><path d="M89.24472,42.30901c0.00818,-0.23665 0.01182,-0.47344 0.01091,-0.71023v-3.31486c0.00007,-0.11958 -0.00066,-0.23917 -0.00218,-0.35875c-0.0229,-1.72249 -0.25662,-1.93076 -1.77884,-2.27752c-0.07991,-0.01809 -0.15986,-0.0359 -0.23988,-0.05343v-0.61063c1.59928,-0.05815 3.19855,-0.11631 4.79783,-0.11631c2.02418,0 3.37557,0.26279 4.20356,0.74076c0.67694,0.34261 1.09531,1.04515 1.07406,1.80355c0.00003,0.04608 -0.00142,0.09214 -0.00436,0.13812c-0.04107,0.63499 -0.36638,1.08569 -0.84434,1.40337c-0.36948,0.23166 -0.77571,0.3987 -1.20127,0.49396v0.02908c0.10204,0.02663 0.20326,0.05632 0.3035,0.08905c1.03299,0.33621 2.32804,1.11259 2.32804,2.64426c0,0.7582 -0.24607,1.43208 -0.77711,1.91404c-0.25303,0.22517 -0.54695,0.39965 -0.86579,0.51395c-0.66878,0.24535 -1.54258,0.30241 -2.32695,0.31586c-0.22752,0.00329 -0.45507,0.00462 -0.6826,0.004c-0.33937,-0.00215 -0.67867,-0.01075 -1.01772,-0.02581c-0.16959,-0.00674 -0.33921,-0.01267 -0.50886,-0.01781c-0.16965,-0.00513 -0.33928,-0.01107 -0.50886,-0.01781c-0.33912,-0.01272 -0.6786,-0.02581 -1.01772,-0.02581c-0.98864,0 -1.96275,0.01454 -2.95139,0.02908v-0.61063c1.61818,-0.35657 1.95221,-0.50122 2.01,-1.97947zM92.19356,42.70665c0.01817,0.67715 0.24207,1.13148 0.72694,1.30268c0.15894,0.05295 0.32573,0.07852 0.49323,0.0756c0.37931,0.01202 0.73802,-0.17235 0.94903,-0.48778c0.09414,-0.13921 0.16683,-0.30895 0.21372,-0.51032c0.04058,-0.18304 0.0602,-0.3701 0.05852,-0.55757c0,-1.51204 -1.23581,-2.28261 -2.44253,-2.29714v2.38438c-0.00004,0.03005 0.00033,0.0601 0.00109,0.09014zM92.24845,39.302c1.10568,0 1.92131,-0.42962 1.92131,-1.74503c0.0005,-0.12909 -0.00898,-0.25802 -0.02835,-0.38564c-0.13703,-0.8796 -0.77347,-1.37356 -1.94894,-1.37356v3.50387c0.01866,0.00024 0.03732,0.00036 0.05597,0.00036z" fill-rule="evenodd" stroke="#000000" stroke-width="0" stroke-linecap="round"/><path d="M100.59959,42.30901c0.00818,-0.23665 0.01182,-0.47344 0.01091,-0.71023v-3.31486c0.00007,-0.11958 -0.00067,-0.23917 -0.00218,-0.35875c-0.0229,-1.72249 -0.25661,-1.93076 -1.77883,-2.27752c-0.07991,-0.01809 -0.15986,-0.0359 -0.23989,-0.05343v-0.61063c1.48296,-0.05815 2.96593,-0.11631 4.4489,-0.11631c0.55093,-0.00176 1.1018,0.01182 1.65198,0.04071c1.27652,0.07197 2.25825,0.24462 2.95648,0.57029c0.83736,0.33188 1.36578,1.16522 1.30886,2.06416c0.00039,0.14548 -0.01299,0.29067 -0.03998,0.43362c-0.22171,1.15875 -1.3125,1.6727 -1.93731,1.90714c0.04227,0.07975 0.08504,0.15923 0.12831,0.23843c0.75638,1.38083 1.99583,3.26143 4.00074,4.42855l-0.10177,0.61063c-3.56202,-0.20354 -4.59429,-0.50887 -6.00456,-3.06771c-0.02108,-0.03829 -0.04215,-0.07657 -0.06324,-0.11486c-0.57538,-1.0468 -0.70986,-1.27434 -1.15112,-1.35321c-0.07936,-0.01337 -0.15929,-0.02319 -0.23953,-0.02944v1.00318c-0.00007,0.11958 0.00066,0.23917 0.00218,0.35875c0.0229,1.72249 0.25661,1.93076 1.77883,2.27751c0.07991,0.01809 0.15986,0.0359 0.23989,0.05343v0.61063c-1.16312,0 -2.32622,-0.02908 -3.48933,-0.02908c-1.16312,0 -2.32622,0.02908 -3.48934,0.02908v-0.61063c1.61818,-0.35657 1.95221,-0.50123 2.01,-1.97947zM104.31027,39.54081c0.83162,-0.23189 1.38883,-0.78837 1.38883,-1.91114c0.00051,-0.12651 -0.00959,-0.25282 -0.03017,-0.37765c-0.20136,-1.19146 -1.36666,-1.40119 -2.12158,-1.45425v3.86735c0.25783,-0.01583 0.51342,-0.05748 0.76293,-0.12431z" fill-rule="evenodd" stroke="#000000" stroke-width="0" stroke-linecap="round"/><path d="M136.69261,45.10121c-0.81195,-0.0287 -1.45369,-0.69816 -1.44807,-1.51059c0.00006,-0.02133 0.00054,-0.04266 0.00145,-0.06398c0.0287,-0.81195 0.69816,-1.45369 1.51059,-1.44807c0.02133,0.00006 0.04266,0.00055 0.06398,0.00146c0.81195,0.0287 1.45369,0.69816 1.44807,1.51059c-0.00006,0.02133 -0.00054,0.04266 -0.00145,0.06398c-0.0287,0.81195 -0.69816,1.45369 -1.51059,1.44807c-0.02133,-0.00006 -0.04266,-0.00054 -0.06397,-0.00145z" fill-rule="evenodd" stroke="#000000" stroke-width="0" stroke-linecap="round"/><g fill-rule="evenodd" stroke="#000000" stroke-width="0" stroke-linecap="round"><path d="M44.76539,23.20296c1.06141,2.45397 2.49816,3.63701 4.02139,3.63701c1.00725,0 1.67241,-0.64616 1.67241,-1.57739c0,-2.60364 -6.38556,-2.45159 -6.38556,-6.72764c0.01087,-0.90191 0.38334,-1.7617 1.03385,-2.38651c0.49127,-0.49317 1.14218,-0.89416 1.91947,-1.15881c0.72078,-0.23837 1.4758,-0.35683 2.23494,-0.35064c0.24526,-0.00011 0.49044,0.00909 0.735,0.02756c1.20772,0.09817 2.38469,0.43095 3.46502,0.97969l-0.30407,4.086h-1.10227c-0.01075,-0.09166 -0.02248,-0.18321 -0.03516,-0.27462c-0.22045,-1.58499 -0.81814,-3.60233 -2.72051,-3.60233c-0.10501,-0.00023 -0.20993,0.00644 -0.31406,0.01995c-0.59152,0.07792 -1.01817,0.39007 -1.18542,0.97827c-0.05436,0.20115 -0.08058,0.40884 -0.07792,0.61717c0,2.75567 6.38556,2.58463 6.38556,6.67063c0.03527,1.10231 -0.45362,2.1562 -1.31797,2.84119c-0.97684,0.78204 -2.44495,1.18779 -4.23138,1.18779c-1.34125,0 -2.8583,-0.38342 -4.37534,-1.16451c-0.13932,-0.07169 -0.27729,-0.14598 -0.41383,-0.22283c-0.00836,-0.04591 -0.0166,-0.09183 -0.0247,-0.13778c-0.15537,-0.88277 -0.27699,-1.84203 -0.36441,-2.78038c-0.05292,-0.56575 -0.09426,-1.13252 -0.12401,-1.69997l1.06426,-0.13303c0.13133,0.3966 0.2797,0.78735 0.4447,1.17117z"/><path d="M54.4781,18.68622c-0.0736,-0.01808 -0.14727,-0.03588 -0.22099,-0.05343v-0.61063c0.1294,-0.00003 0.25879,0.00033 0.38819,0.00109c0.92031,0.00582 1.93803,0.02799 2.95575,0.02799c0.87233,0 1.74466,-0.01635 2.55557,-0.02471c0.26278,-0.00277 0.52557,-0.00423 0.78837,-0.00437v0.61063c-1.4906,0.35657 -1.80899,0.50123 -1.86497,1.97947c-0.00791,0.23666 -0.01142,0.47344 -0.01055,0.71023v3.46025c0,0.98755 0.46561,1.71849 1.53567,1.96202c0.28357,0.06137 0.57313,0.09087 0.86325,0.08796c1.34412,0 2.0507,-0.56301 2.2826,-1.73376c0.06182,-0.33441 0.09103,-0.67403 0.08723,-1.01409c0,-0.71822 -0.00691,-1.32377 -0.01127,-1.92931c-0.00205,-0.26799 -0.00313,-0.53599 -0.00327,-0.804c0.00128,-0.24919 -0.00661,-0.49833 -0.02363,-0.74693c-0.08324,-1.11659 -0.40599,-1.54839 -1.26597,-1.805c-0.24523,-0.06978 -0.49425,-0.12549 -0.74585,-0.16683v-0.61063c0.85779,0 1.71559,0.02908 2.55884,0.02908c0.85779,0 1.71559,-0.02908 2.55884,-0.02908v0.61063c-0.1537,0.02046 -0.3063,0.04848 -0.45725,0.08396c-0.60918,0.15012 -0.92141,0.45471 -1.04026,1.42809c-0.0165,0.13224 -0.03249,0.26455 -0.04798,0.39691c-0.11559,0.98683 -0.24389,2.29532 -0.29551,3.23962c-0.00873,0.15438 -0.0154,0.30887 -0.01999,0.46343c-0.0077,0.33478 -0.04369,0.6683 -0.10759,0.99701c-0.29296,1.46334 -1.17438,2.40037 -2.71914,2.76093c-0.53257,0.11749 -1.07683,0.17371 -1.62218,0.16756c-0.5913,0.00673 -1.18138,-0.05499 -1.75848,-0.18392c-1.61454,-0.3831 -2.70496,-1.40554 -2.70496,-3.43626v-3.22763c0,-2.0547 -0.1592,-2.26661 -1.65453,-2.63626z"/><path d="M68.17768,25.37666c0.00818,-0.23665 0.01182,-0.47344 0.01091,-0.71023v-3.31487c0.00007,-0.11958 -0.00066,-0.23917 -0.00218,-0.35875c-0.0229,-1.72249 -0.25661,-1.93076 -1.77883,-2.27752c-0.07991,-0.01809 -0.15986,-0.03589 -0.23989,-0.05343v-0.61063c1.42481,-0.05815 2.83508,-0.11631 4.25989,-0.11631c2.48615,0 4.56339,0.28641 5.44662,1.48442c0.31468,0.44484 0.47491,0.98056 0.45616,1.52513c0.00002,0.01744 -0.0001,0.0349 -0.00036,0.05234c-0.03598,2.19973 -2.34294,3.01718 -4.49215,3.26252l-0.17447,-0.59609c0.31513,-0.17011 0.5652,-0.36238 0.76147,-0.5721c0.44856,-0.49964 0.68172,-1.15617 0.64879,-1.82681c-0.00005,-0.02569 -0.00042,-0.05138 -0.00109,-0.07706c-0.02363,-0.97737 -0.50232,-2.20845 -1.94712,-2.32186v5.80101c-0.00112,0.23959 0.003,0.47918 0.01236,0.71858c0.06579,1.47024 0.45725,1.61491 2.51741,1.97111v0.61063c-1.00173,0 -1.91841,-0.01709 -2.98484,-0.02508c-0.34262,-0.00263 -0.68527,-0.00396 -1.0279,-0.004c-1.16312,0 -2.32622,0.02908 -3.47479,0.02908v-0.61063c1.61818,-0.35657 1.95221,-0.50123 2.01,-1.97947z"/><path d="M77.99466,25.37666c0.00818,-0.23665 0.01182,-0.47344 0.01091,-0.71023v-3.34394c0.00007,-0.11958 -0.00066,-0.23917 -0.00218,-0.35875c-0.0229,-1.72249 -0.25661,-1.93076 -1.77883,-2.27752c-0.07991,-0.01809 -0.15986,-0.0359 -0.23989,-0.05343v-0.61063c1.16312,0 2.32622,0.02908 3.48933,0.02908c2.06452,0 4.12904,-0.01454 6.19356,-0.02908l-0.17447,3.05317h-0.68333c-0.46525,-1.68506 -0.85452,-2.04308 -2.82345,-2.10923c-0.34787,-0.01019 -0.69588,-0.01467 -1.04389,-0.01345v3.19856h0.62517c0.01575,0.00002 0.0315,0.00002 0.04726,0c1.24635,-0.00255 1.70541,-0.10977 1.99037,-0.83781c0.06459,-0.17247 0.11729,-0.34917 0.15775,-0.52885h0.58155c-0.01454,0.7124 -0.02908,1.42481 -0.02908,2.13721c0,0.7124 0.01454,1.42481 0.02908,2.13721h-0.58155c-0.01506,-0.07341 -0.03117,-0.1466 -0.04834,-0.21954c-0.23843,-1.00827 -0.55938,-1.27433 -1.50659,-1.33467c-0.21326,-0.012 -0.42685,-0.01733 -0.64044,-0.01599h-0.62517v2.68969c0,0.53793 0.30531,0.8578 1.33757,0.8578c0.11531,0.00019 0.2306,-0.00357 0.34566,-0.01127c1.54875,-0.1065 2.28515,-0.9741 2.88197,-3.15821h0.75602v0.39255c0,1.25035 -0.17447,2.51523 -0.53793,3.70741c-2.09359,-0.01454 -4.17266,-0.02908 -6.25172,-0.02908c-1.16312,0 -2.32622,0.02908 -3.48933,0.02908v-0.61063c1.61818,-0.35657 1.95221,-0.50122 2.01,-1.97947z"/><path d="M88.07334,25.37666c0.00818,-0.23665 0.01182,-0.47344 0.01091,-0.71023v-3.31487c0.00007,-0.11958 -0.00067,-0.23917 -0.00218,-0.35875c-0.0229,-1.72249 -0.25661,-1.93076 -1.77883,-2.27752c-0.07991,-0.01809 -0.15986,-0.03589 -0.23989,-0.05343v-0.61063c1.48296,-0.05815 2.96593,-0.11631 4.4489,-0.11631c0.55093,-0.00176 1.1018,0.01182 1.65198,0.04071c1.27652,0.07197 2.25826,0.24462 2.95648,0.57029c0.83736,0.33188 1.36578,1.16522 1.30886,2.06416c0.00039,0.14548 -0.013,0.29067 -0.03999,0.43362c-0.22171,1.15875 -1.31249,1.6727 -1.93731,1.90714c0.04227,0.07975 0.08504,0.15923 0.12831,0.23843c0.75638,1.38083 1.99583,3.26143 4.00074,4.42855l-0.10177,0.61063c-3.56202,-0.20354 -4.59429,-0.50887 -6.00456,-3.06771c-0.02108,-0.03829 -0.04216,-0.07657 -0.06324,-0.11486c-0.57538,-1.0468 -0.70986,-1.27434 -1.15112,-1.35321c-0.07936,-0.01337 -0.15929,-0.02319 -0.23953,-0.02944v1.00318c-0.00007,0.11958 0.00067,0.23917 0.00218,0.35875c0.0229,1.72249 0.25661,1.93076 1.77883,2.27751c0.07991,0.01809 0.15986,0.0359 0.23989,0.05343v0.61063c-1.16312,0 -2.32622,-0.02908 -3.48934,-0.02908c-1.16312,0 -2.32622,0.02908 -3.48933,0.02908v-0.61063c1.61818,-0.35657 1.95221,-0.50123 2.01,-1.97947zM91.78403,22.60845c0.83162,-0.23189 1.38883,-0.78837 1.38883,-1.91114c0.00051,-0.12651 -0.00959,-0.25283 -0.03017,-0.37765c-0.20136,-1.19146 -1.36666,-1.40118 -2.12158,-1.45425v3.86734c0.25783,-0.01583 0.51341,-0.05748 0.76292,-0.12431z"/></g><path d="M125.32344,40.27499c1.04478,2.41553 2.45903,3.58004 3.95839,3.58004c0.99146,0 1.64621,-0.63603 1.64621,-1.55267c0,-2.56284 -6.28553,-2.41319 -6.28553,-6.62225c0.0107,-0.88778 0.37733,-1.7341 1.01766,-2.34912c0.48357,-0.48545 1.12429,-0.88017 1.8894,-1.14066c0.70949,-0.23463 1.45268,-0.35122 2.19994,-0.34514c0.24142,-0.00011 0.48275,0.00894 0.72349,0.02712c1.18879,0.09664 2.34734,0.4242 3.41074,0.96435l-0.2993,4.02198h-1.08501c-0.01059,-0.09023 -0.02212,-0.18034 -0.03461,-0.27031c-0.217,-1.56016 -0.80533,-3.5459 -2.6779,-3.5459c-0.10337,-0.00022 -0.20663,0.00634 -0.30913,0.01964c-0.58225,0.0767 -1.00222,0.38396 -1.16684,0.96294c-0.05351,0.19799 -0.07932,0.40243 -0.0767,0.60751c0,2.7125 6.28553,2.54414 6.28553,6.56613c0.03471,1.08504 -0.44651,2.12243 -1.29732,2.79669c-0.96154,0.76979 -2.40665,1.16918 -4.1651,1.16918c-1.32024,0 -2.81352,-0.37741 -4.30679,-1.14626c-0.13714,-0.07057 -0.27294,-0.14369 -0.40735,-0.21934c-0.00823,-0.04518 -0.01633,-0.0904 -0.02432,-0.13562c-0.15293,-0.86894 -0.27266,-1.81317 -0.35871,-2.73682c-0.05209,-0.55688 -0.09278,-1.11478 -0.12207,-1.67334l1.04759,-0.13095c0.12927,0.39039 0.27532,0.77502 0.43774,1.15282z" fill-rule="evenodd" stroke="#000000" stroke-width="0" stroke-linecap="round"/><path d="M70.13813,48.32006c24.38525,0 46.2109,1.26867 60.82008,3.26724c-15.58245,-1.6814 -37.07857,-2.61054 -60.82008,-2.61054c-23.74152,0 -45.23763,0.93422 -60.81753,2.61054c14.60663,-1.99857 36.43227,-3.26724 60.81753,-3.26724z" fill-rule="nonzero" stroke="#000000" stroke-width="1.5" stroke-linecap="butt"/><text transform="translate(27.76707,57.30267) scale(0.3909,0.3909)" font-size="16.9333" xml:space="preserve" fill="#000000" fill-rule="nonzero" stroke="none" stroke-width="1" stroke-linecap="butt" stroke-linejoin="miter" stroke-miterlimit="10" stroke-dasharray="" stroke-dashoffset="0" font-family="SerpentineDBol" font-weight="400" text-anchor="start" style="mix-blend-mode: normal"><tspan x="0" dy="0">S  C  R  U  L  T  I  M  A  T  E</tspan></text><path d="M116.68775,34.85237c1.59577,0 2.90619,0.43003 3.93125,1.29008c0.66491,0.52965 1.13311,1.08845 1.40461,1.6764c0.37124,0.74345 0.55686,1.4383 0.55686,2.08456v0.26969c-0.02216,0.56852 -0.06649,0.87464 -0.13298,0.91837h-6.14206c-0.02771,0 -0.04155,-0.01215 -0.04155,-0.03645v-6.14435c0,-0.03887 0.1413,-0.05831 0.42388,-0.05831zM113.39645,36.00398l0.01662,0.03644v0.29155c0,0.1069 0.00831,0.23081 0.02493,0.37172l-0.02493,0.04373c0.03324,0.05831 0.04987,0.14092 0.04987,0.24781v0.48834c0,0.01458 -0.00831,0.02186 -0.02493,0.02186l0.02493,0.03644c0,0.02916 -0.00831,0.05588 -0.02493,0.08018c0.01662,0.02429 0.02493,0.05103 0.02493,0.08018l-0.02493,0.03644l0.02493,0.03644c0,0.00972 -0.00831,0.03644 -0.02493,0.08018l0.02493,0.03644l-0.02493,0.04374l0.02493,0.07288c-0.01662,0.02916 -0.02493,0.04859 -0.02493,0.05831l0.02493,0.04373l-0.02493,0.03644l0.02493,0.08018c0,0.01458 -0.00831,0.02186 -0.02493,0.02186l0.02493,0.09475v2.71138c0,0.02429 -0.01663,0.03645 -0.04987,0.03645h-1.92823c-0.07203,-0.07288 -0.12467,-0.42275 -0.15791,-1.04957c0.06095,-0.84548 0.12744,-1.26822 0.19948,-1.26822c0.03878,-0.41303 0.34353,-1.03013 0.91424,-1.85132c0.19948,-0.25268 0.51807,-0.5588 0.9558,-0.91837zM111.90873,42.10458h1.55421c0.02771,0.00486 0.04155,0.01944 0.04155,0.04373v1.9242c0,0.02916 -0.01386,0.04373 -0.04155,0.04373c-0.56518,-0.43732 -0.96688,-0.84792 -1.20514,-1.23178c-0.26596,-0.3693 -0.39895,-0.60982 -0.39895,-0.72159v-0.01458c0.00554,-0.02916 0.02216,-0.04373 0.04987,-0.04373zM116.30543,42.10458h5.78468c0.02771,0 0.04155,0.01944 0.04155,0.05831c-0.2161,0.5345 -0.67598,1.13218 -1.37968,1.79302c-0.98074,0.72886 -1.94208,1.15161 -2.88403,1.26823c-0.17178,0.03887 -0.48483,0.0656 -0.93918,0.08018c-0.44327,-0.00972 -0.6649,-0.03644 -0.6649,-0.08018v-3.07582c0.00554,-0.02916 0.01938,-0.04373 0.04155,-0.04373z" fill-rule="nonzero" stroke="none" stroke-width="0.26459" stroke-linecap="butt"/></g><text transform="translate(150.4055,65.85437) scale(0.30573,0.32548)" font-size="40" xml:space="preserve" fill="#000000" fill-rule="nonzero" stroke="none" stroke-width="1" stroke-linecap="butt" stroke-linejoin="miter" stroke-miterlimit="10" stroke-dasharray="" stroke-dashoffset="0" font-family="Sans Serif" font-weight="normal" text-anchor="start" style="mix-blend-mode: normal"><tspan x="0" dy="0">Sub-versions (e.g. 0.1.0.5) will not be added to this list.</tspan></text></g></g></svg>