<svg version="1.1" xmlns="http://www.w3.org/2000/svg" xmlns:xlink="http://www.w3.org/1999/xlink" width="46.5" height="46.5" viewBox="0,0,46.5,46.5"><g transform="translate(-216.75,-156.75)"><g data-paper-data="{&quot;isPaintingLayer&quot;:true}" fill-rule="nonzero" stroke="#000000" stroke-linecap="butt" stroke-linejoin="miter" stroke-miterlimit="10" stroke-dasharray="" stroke-dashoffset="0" style="mix-blend-mode: normal"><path d="M262.5,180c0,12.4264 -10.0736,22.5 -22.5,22.5c-12.4264,0 -22.5,-10.0736 -22.5,-22.5c0,-12.4264 10.0736,-22.5 22.5,-22.5c12.4264,0 22.5,10.0736 22.5,22.5z" data-paper-data="{&quot;origPos&quot;:null}" fill="#ffffff" stroke-width="1.5"/><g data-paper-data="{&quot;origPos&quot;:null,&quot;origRot&quot;:0}" fill="#000000" stroke-width="2.5"><path d="M233.23068,188.00901c-0.3465,2.52453 -2.67394,4.29017 -5.19847,3.94367c-2.52453,-0.3465 -4.29017,-2.67394 -3.94367,-5.19847c0.3465,-2.52453 2.67394,-4.29017 5.19847,-3.94367c2.52453,0.3465 4.29017,2.67394 3.94367,5.19847z" data-paper-data="{&quot;origPos&quot;:null}"/><path d="M229.46461,188.00957l3.02082,-22.00885l3.66814,0.50347l-3.02082,22.00885z" data-paper-data="{&quot;origPos&quot;:null}"/><path d="M234.74773,169.41602l0.41827,-3.04738l14.5597,1.99839l-0.41827,3.04738z"/><path d="M250.83775,190.42567c-0.3465,2.52453 -2.67394,4.29017 -5.19847,3.94367c-2.52453,-0.3465 -4.29017,-2.67394 -3.94367,-5.19847c0.3465,-2.52453 2.67394,-4.29017 5.19847,-3.94367c2.52453,0.3465 4.29017,2.67394 3.94367,5.19847z" data-paper-data="{&quot;origPos&quot;:null}"/><path d="M247.07168,190.42622l3.02082,-22.00885l3.66814,0.50347l-3.02082,22.00885z" data-paper-data="{&quot;origPos&quot;:null}"/></g></g></g></svg>