<svg version="1.1" xmlns="http://www.w3.org/2000/svg" xmlns:xlink="http://www.w3.org/1999/xlink" width="444.88136" height="238.16671" viewBox="0,0,444.88136,238.16671"><defs><radialGradient cx="34.11066" cy="110.02272" r="548.80445" gradientUnits="userSpaceOnUse" id="color-1"><stop offset="0" stop-color="#ffffff"/><stop offset="1" stop-color="#ffffff"/></radialGradient></defs><g transform="translate(-17.55933,-60.91665)"><g data-paper-data="{&quot;isPaintingLayer&quot;:true}" stroke-linejoin="miter" stroke-miterlimit="10" stroke-dasharray="" stroke-dashoffset="0" style="mix-blend-mode: normal"><path d="M25.27531,73.26222c0,0 128.63774,-12.34557 210.97247,-12.34557c85.86568,0 220.02013,12.34557 220.02013,12.34557c0,0 6.17278,66.49036 6.17278,104.10895c0,45.69299 -6.17278,109.36662 -6.17278,109.36662c0,0 -132.8748,12.34557 -216.93374,12.34557c-84.14147,0 -214.05886,-12.34557 -214.05886,-12.34557c0,0 -7.71598,-67.36227 -7.71598,-112.45301c0,-38.22086 7.71598,-101.02255 7.71598,-101.02255z" fill="#ffffff" fill-rule="nonzero" stroke="url(#color-1)" stroke-width="0" stroke-linecap="butt"/><g fill="#000000"><path d="M31.96757,190.15871c3.26621,7.55146 7.68743,11.19197 12.37476,11.19197c3.09953,0 5.1464,-1.98837 5.1464,-4.85399c0,-8.012 -19.64989,-7.54415 -19.64989,-20.70257c0.03346,-2.77538 1.17962,-5.42115 3.18141,-7.34385c1.51175,-1.5176 3.51475,-2.75158 5.90665,-3.56594c2.21802,-0.73351 4.54138,-1.09802 6.87746,-1.079c0.75474,-0.00033 1.50919,0.02795 2.26177,0.08479c3.71642,0.3021 7.33828,1.32613 10.6627,3.01474l-0.9357,12.57358h-3.39195c-0.03309,-0.28207 -0.06916,-0.56378 -0.1082,-0.84505c-0.67838,-4.87739 -2.51763,-11.08523 -8.37167,-11.08523c-0.32315,-0.0007 -0.64597,0.01982 -0.96642,0.0614c-1.82024,0.23977 -3.13315,1.20033 -3.64781,3.01036c-0.16728,0.61896 -0.24797,1.25809 -0.23977,1.8992c0,8.47987 19.64989,7.95352 19.64989,20.5271c0.10853,3.39208 -1.39588,6.63516 -4.05572,8.74303c-3.00597,2.40653 -7.52369,3.65512 -13.02097,3.65512c-4.12735,0 -8.79566,-1.17987 -13.46396,-3.58346c-0.42873,-0.2206 -0.85328,-0.44921 -1.27345,-0.68569c-0.02574,-0.14125 -0.05107,-0.2826 -0.07602,-0.42399c-0.47809,-2.71648 -0.85237,-5.66836 -1.12138,-8.55588c-0.16285,-1.74094 -0.29006,-3.48504 -0.3816,-5.2312l3.27498,-0.40936c0.40412,1.22045 0.8607,2.42286 1.36846,3.60395z" fill-rule="evenodd" stroke="#000000" stroke-width="0" stroke-linecap="round"/><path d="M97.8672,195.58592c-0.56474,2.5362 -1.27264,5.07127 -2.2419,7.76769c-2.65551,0.98403 -4.95651,1.63626 -7.53361,1.92374c-1.04526,0.11418 -2.09607,0.16994 -3.14752,0.16704c-0.33869,0.00012 -0.67734,-0.00517 -1.01584,-0.01591c-7.15864,-0.23067 -14.31613,-2.91119 -17.36367,-8.95169c-1.04364,-2.1303 -1.5674,-4.47767 -1.52832,-6.84956c-0.00015,-0.03826 -0.00015,-0.07651 0,-0.11476c0.05568,-7.34272 5.47919,-16.42963 19.13515,-16.42963c4.18155,0 8.36311,0.81812 12.27194,2.22712v10.63569h-2.5453c-0.64202,-2.90892 -2.19531,-7.85859 -6.45982,-9.44713c-0.94452,-0.34448 -1.94333,-0.51615 -2.94867,-0.50679c-4.81788,0 -8.90852,4.36335 -8.90852,13.13552c-0.0009,0.67636 0.02297,1.35253 0.07159,2.02714c0.32043,4.35312 1.71126,7.79609 4.29745,9.58234c1.36738,0.91601 2.98507,1.38565 4.63038,1.34423c3.30206,0 6.91774,-1.6374 10.17661,-7.95972c0.50024,-0.97725 0.95672,-1.97627 1.3681,-2.99412l2.49985,0.63633c-0.22395,1.27968 -0.47666,2.55416 -0.7579,3.82248z" fill-rule="evenodd" stroke="#000000" stroke-width="0" stroke-linecap="round"/><path d="M106.54507,196.71087c0.02558,-0.73982 0.03694,-1.48006 0.0341,-2.22032v-10.36298c0.00021,-0.37385 -0.00207,-0.74769 -0.00682,-1.12152c-0.07159,-5.38487 -0.80222,-6.03598 -5.56101,-7.12c-0.2498,-0.05654 -0.49977,-0.11222 -0.74994,-0.16704v-1.90896c4.63606,-0.1818 9.27214,-0.36362 13.9082,-0.36362c1.72233,-0.0055 3.44447,0.03696 5.16445,0.12727c3.99066,0.22499 7.05978,0.76472 9.24259,1.78283c2.61778,1.03753 4.26971,3.64273 4.09177,6.45299c0.00123,0.4548 -0.04062,0.90869 -0.12499,1.3556c-0.69313,3.6225 -4.10314,5.22922 -6.05644,5.96212c0.13214,0.24931 0.26584,0.49779 0.40111,0.7454c2.36462,4.31676 6.23938,10.19594 12.50715,13.84457l-0.31816,1.90896c-11.13564,-0.63633 -14.36272,-1.59082 -18.77153,-9.5903c-0.06589,-0.11969 -0.1318,-0.23938 -0.19771,-0.35908c-1.79875,-3.27251 -2.21918,-3.98384 -3.59863,-4.2304c-0.24811,-0.04178 -0.49797,-0.07249 -0.74881,-0.09205v3.13616c-0.00021,0.37385 0.00206,0.7477 0.00682,1.12153c0.07159,5.38487 0.80222,6.03598 5.56101,7.12c0.2498,0.05654 0.49977,0.11222 0.74995,0.16704v1.90896c-3.63614,0 -7.27227,-0.09091 -10.9084,-0.09091c-3.63614,0 -7.27227,0.09091 -10.9084,0.09091v-1.90896c5.05877,-1.11471 6.10302,-1.56695 6.28369,-6.18825zM118.14546,188.05686c2.59984,-0.72494 4.34177,-2.46462 4.34177,-5.97463c0.00159,-0.39548 -0.02997,-0.79039 -0.09432,-1.18061c-0.6295,-3.72477 -4.27246,-4.3804 -6.63252,-4.5463v12.09015c0.80602,-0.04948 1.60505,-0.17967 2.38507,-0.38861z" fill-rule="evenodd" stroke="#000000" stroke-width="0" stroke-linecap="round"/><path d="M150.07637,176.90076c0.51223,-0.23504 1.01313,-0.49402 1.50104,-0.77608c1.70558,-0.9863 3.09071,-2.17372 3.89407,-3.32819c0.15908,-0.2266 0.30042,-0.46519 0.42271,-0.71359h2.59074l8.99943,24.49843c1.12493,3.07366 1.90896,4.91105 4.39404,5.94508c0.59291,0.23989 1.20638,0.42549 1.83283,0.55452v1.72717c-3.13616,0 -6.22687,-0.09091 -9.36303,-0.09091c-3.13616,0 -6.22688,0.09091 -9.36304,0.09091v-1.72717c0.07805,-0.0173 0.15607,-0.03473 0.23408,-0.05227c3.07593,-0.69313 3.81112,-1.06697 3.81112,-2.22032c-0.00734,-0.35845 -0.05344,-0.71504 -0.13749,-1.06356c-0.27612,-1.2397 -0.92381,-2.91344 -1.5749,-5.33374c-0.00492,-0.01894 -0.00986,-0.03787 -0.01477,-0.05681h-9.09033c-0.22613,0.70223 -0.46474,1.47264 -0.64656,2.29985c-0.19837,0.87105 -0.30164,1.76104 -0.30794,2.65438c0.00004,0.06897 0.00193,0.13793 0.00568,0.20681c0.11363,2.11918 2.00442,2.94299 5.1758,3.38388v1.90896c-2.63621,0 -5.27239,-0.09091 -7.90859,-0.09091c-2.68165,0 -5.31783,0.09091 -7.90859,0.09091v-1.90896c3.31911,-0.63861 4.72583,-2.83051 6.27232,-6.20414c0.10727,-0.23428 0.21333,-0.46912 0.31816,-0.7045l7.63589,-17.08982zM152.57622,181.71863h-0.0909l-2.86346,8.36311h6.09052z" fill-rule="evenodd" stroke="#000000" stroke-width="0" stroke-linecap="round"/><path d="M175.99973,202.75934c5.75077,-1.17265 6.25643,-1.7942 6.25643,-8.26879v-17.7716c-0.09095,0.00194 -0.18188,0.00535 -0.27271,0.01023c-5.94735,0.32384 -8.69263,6.80298 -9.4085,9.48917l-2.45439,-0.49998l1.18174,-13.36279l2.40894,-0.1818c0.75904,1.19766 1.16697,1.55444 3.47477,1.62262c0.35672,0.0098 0.71354,0.01435 1.07038,0.01364h17.18071c0.05304,0.00007 0.10605,0.00007 0.15908,0c2.90892,-0.00909 3.46682,-0.2568 4.21449,-1.37151c0.05834,-0.0875 0.11555,-0.17576 0.17158,-0.26475l2.40894,0.1818l1.18175,13.36279l-2.45439,0.49998c-0.57497,-2.15555 -2.45439,-6.7507 -6.2462,-8.65173c-1.06706,-0.53627 -2.24096,-0.82597 -3.43501,-0.84767v17.7716c0.00017,0.12196 0.00055,0.24392 0.00114,0.36589c0.02046,6.0837 0.6045,6.74276 6.12121,7.87563c0.27707,0.05657 0.55433,0.11225 0.83177,0.16704v1.90896c-1.03176,-0.00012 -2.06354,-0.00467 -3.09525,-0.01364c-2.99526,-0.02614 -5.72236,-0.07727 -8.44947,-0.07727c-2.7271,0 -5.45419,0.05113 -8.44947,0.07727c-1.03173,0.00897 -2.06349,0.01352 -3.09525,0.01364v-1.90896c0.23268,-0.046 0.46524,-0.0926 0.69768,-0.13977z" fill-rule="evenodd" stroke="#000000" stroke-width="0" stroke-linecap="round"/><path d="M235.82305,195.58592c-0.56474,2.5362 -1.27264,5.07127 -2.2419,7.76769c-2.65551,0.98403 -4.95651,1.63626 -7.53361,1.92374c-1.04526,0.11418 -2.09607,0.16994 -3.14752,0.16704c-0.33869,0.00012 -0.67735,-0.00517 -1.01584,-0.01591c-7.15864,-0.23067 -14.31613,-2.91119 -17.36367,-8.95169c-1.04364,-2.1303 -1.5674,-4.47767 -1.52832,-6.84956c-0.00015,-0.03826 -0.00015,-0.07651 0,-0.11476c0.05568,-7.34272 5.47919,-16.42963 19.13515,-16.42963c4.18155,0 8.36311,0.81812 12.27194,2.22712v10.63569h-2.5453c-0.64202,-2.90892 -2.19531,-7.85859 -6.45982,-9.44713c-0.94452,-0.34448 -1.94333,-0.51615 -2.94867,-0.50679c-4.81788,0 -8.90852,4.36335 -8.90852,13.13552c-0.0009,0.67636 0.02298,1.35253 0.07159,2.02714c0.32043,4.35312 1.71126,7.79609 4.29745,9.58234c1.36738,0.91601 2.98508,1.38565 4.63038,1.34423c3.30206,0 6.91774,-1.6374 10.17661,-7.95972c0.50024,-0.97725 0.95672,-1.97627 1.3681,-2.99412l2.49985,0.63633c-0.22395,1.27968 -0.47666,2.55416 -0.7579,3.82248z" fill-rule="evenodd" stroke="#000000" stroke-width="0" stroke-linecap="round"/><path d="M244.36569,196.71087c0.02472,-0.73984 0.0357,-1.48007 0.03296,-2.22032v-10.45388c0,-6.42344 -0.49771,-7.08592 -5.17241,-8.24152c-0.23009,-0.05652 -0.46038,-0.11218 -0.69086,-0.16704v-1.90896c0.40452,-0.00009 0.80903,0.00105 1.21355,0.00341c2.87709,0.01818 6.05871,0.0875 9.24032,0.0875c2.7271,0 5.45419,-0.05113 7.89381,-0.07727c0.77757,-0.00858 1.55518,-0.01313 2.33281,-0.01364v1.90896c-5.09059,1.27264 -5.636,1.6817 -5.636,8.40856v2.22712h12.63556v-2.22712c0.00021,-0.32386 -0.00131,-0.6477 -0.00455,-0.97153c-0.05909,-5.47692 -0.71814,-6.16438 -4.8656,-7.24272c-0.25498,-0.06594 -0.51026,-0.13071 -0.76585,-0.19431v-1.90896c0.77762,0.00089 1.55524,0.00581 2.33281,0.01478c2.43962,0.025 5.16673,0.07613 7.89381,0.07613c2.7271,0 5.45419,-0.05113 7.98925,-0.07727c0.82151,-0.00866 1.64306,-0.01321 2.46462,-0.01364v1.90896c-4.65993,1.11471 -5.65531,1.56695 -5.83031,6.18825c-0.02472,0.73984 -0.0357,1.48007 -0.03296,2.22032v10.45388c0,6.42344 0.49771,7.08592 5.17241,8.24152c0.23009,0.05652 0.46038,0.11218 0.69086,0.16704v1.90896c-0.40452,0.00009 -0.80903,-0.00105 -1.21355,-0.00341c-2.87709,-0.01818 -6.05871,-0.0875 -9.24032,-0.0875c-2.7271,0 -5.45419,0.05113 -7.89381,0.07727c-0.77757,0.00858 -1.55518,0.01313 -2.33281,0.01364v-1.90896c5.09059,-1.27264 5.636,-1.6817 5.636,-8.40856v-3.77249h-12.63556v3.77249c-0.00021,0.32386 0.00131,0.6477 0.00455,0.97153c0.05909,5.47692 0.71814,6.16438 4.8656,7.24272c0.25498,0.06594 0.51027,0.13071 0.76586,0.19431v1.90896c-0.77762,-0.00051 -1.55524,-0.00506 -2.33281,-0.01364c-2.43962,-0.02614 -5.16673,-0.07727 -7.89381,-0.07727c-2.7271,0 -5.45419,0.05113 -7.98926,0.07727c-0.82151,0.00866 -1.64306,0.01321 -2.46461,0.01364v-1.90896c4.65993,-1.11471 5.65531,-1.56695 5.83031,-6.18825z" fill-rule="evenodd" stroke="#000000" stroke-width="0" stroke-linecap="round"/><path d="M299.4166,196.71087c0.02558,-0.73982 0.03694,-1.48006 0.0341,-2.22032v-10.36298c0.00021,-0.37385 -0.00207,-0.74769 -0.00682,-1.12152c-0.07159,-5.38487 -0.80222,-6.03598 -5.56101,-7.12c-0.2498,-0.05654 -0.49977,-0.11222 -0.74994,-0.16704v-1.90896c4.99968,-0.1818 9.99936,-0.36362 14.99904,-0.36362c6.32801,0 10.55274,0.82153 13.14121,2.31576c2.11625,1.07107 3.42419,3.26736 3.35774,5.63828c0.0001,0.14404 -0.00445,0.28804 -0.01364,0.4318c-0.1284,1.9851 -1.14538,3.39409 -2.6396,4.38722c-1.15507,0.72421 -2.42503,1.24642 -3.75544,1.54422v0.09091c0.31899,0.08325 0.63541,0.17608 0.9488,0.27839c3.22934,1.05107 7.27795,3.47819 7.27795,8.26652c0,2.3703 -0.76927,4.47699 -2.4294,5.98371c-0.79102,0.70394 -1.70988,1.24938 -2.70664,1.60672c-2.09077,0.767 -4.82243,0.9454 -7.27454,0.98744c-0.71127,0.01029 -1.42263,0.01444 -2.13395,0.0125c-1.06095,-0.00671 -2.12168,-0.03359 -3.18162,-0.08068c-0.53017,-0.02108 -1.06045,-0.03963 -1.59082,-0.05568c-0.53036,-0.01603 -1.06064,-0.0346 -1.59081,-0.05568c-1.06017,-0.03977 -2.12145,-0.08068 -3.18162,-0.08068c-3.09071,0 -6.13597,0.04545 -9.22668,0.09091v-1.90896c5.05877,-1.11471 6.10302,-1.56695 6.28369,-6.18825zM308.63532,197.95396c0.05681,2.11691 0.75677,3.53727 2.27258,4.07248c0.49688,0.16552 1.01828,0.24545 1.54194,0.23635c1.18579,0.03758 2.30721,-0.5388 2.96687,-1.52491c0.29431,-0.43521 0.52154,-0.96585 0.66813,-1.59536c0.12685,-0.57221 0.18822,-1.157 0.18294,-1.74308c0,-4.72697 -3.8634,-7.13591 -7.63589,-7.18136v7.45407c-0.00011,0.09395 0.00103,0.18788 0.00341,0.2818zM308.80691,187.31032c3.4566,0 6.00643,-1.34309 6.00643,-5.45532c0.00155,-0.40356 -0.02808,-0.80662 -0.08864,-1.2056c-0.42839,-2.74983 -2.41803,-4.29404 -6.09279,-4.29404v10.95385c0.05833,0.00076 0.11667,0.00114 0.17498,0.00114z" fill-rule="evenodd" stroke="#000000" stroke-width="0" stroke-linecap="round"/><path d="M334.91434,196.71087c0.02558,-0.73982 0.03694,-1.48006 0.0341,-2.22032v-10.36298c0.00021,-0.37385 -0.00207,-0.74769 -0.00682,-1.12152c-0.07159,-5.38487 -0.80222,-6.03598 -5.56101,-7.12c-0.2498,-0.05654 -0.49977,-0.11222 -0.74994,-0.16704v-1.90896c4.63606,-0.1818 9.27214,-0.36362 13.9082,-0.36362c1.72233,-0.0055 3.44447,0.03696 5.16445,0.12727c3.99066,0.22499 7.05978,0.76472 9.24259,1.78283c2.61778,1.03753 4.26971,3.64273 4.09177,6.45299c0.00123,0.4548 -0.04062,0.90869 -0.12499,1.3556c-0.69313,3.6225 -4.10314,5.22922 -6.05644,5.96212c0.13214,0.24931 0.26584,0.49779 0.40111,0.7454c2.36462,4.31676 6.23938,10.19594 12.50715,13.84457l-0.31816,1.90896c-11.13564,-0.63633 -14.36272,-1.59082 -18.77153,-9.5903c-0.06589,-0.11969 -0.1318,-0.23938 -0.19772,-0.35908c-1.79875,-3.27251 -2.21918,-3.98384 -3.59863,-4.2304c-0.24811,-0.04178 -0.49797,-0.07249 -0.74881,-0.09205v3.13616c-0.00021,0.37385 0.00207,0.7477 0.00682,1.12153c0.07159,5.38487 0.80221,6.03598 5.561,7.12c0.2498,0.05654 0.49977,0.11222 0.74995,0.16704v1.90896c-3.63614,0 -7.27227,-0.09091 -10.9084,-0.09091c-3.63614,0 -7.27226,0.09091 -10.9084,0.09091v-1.90896c5.05877,-1.11471 6.10302,-1.56695 6.28369,-6.18825zM346.51473,188.05686c2.59984,-0.72494 4.34177,-2.46462 4.34177,-5.97463c0.00159,-0.39548 -0.02997,-0.79039 -0.09432,-1.18061c-0.6295,-3.72477 -4.27246,-4.3804 -6.63252,-4.5463v12.09015c0.80602,-0.04948 1.60505,-0.17967 2.38508,-0.38861z" fill-rule="evenodd" stroke="#000000" stroke-width="0" stroke-linecap="round"/><path d="M447.7488,205.43985c-2.53831,-0.08972 -4.54456,-2.1826 -4.52698,-4.72242c0.00017,-0.06669 0.00169,-0.13337 0.00455,-0.19999c0.08972,-2.53831 2.1826,-4.54456 4.72242,-4.52698c0.06669,0.00017 0.13336,0.00169 0.19999,0.00455c2.53831,0.08972 4.54456,2.18261 4.52698,4.72243c-0.00017,0.06669 -0.00168,0.13336 -0.00454,0.19999c-0.08972,2.53831 -2.18261,4.54456 -4.72243,4.52698c-0.06669,-0.00017 -0.13336,-0.00169 -0.19999,-0.00455z" fill-rule="evenodd" stroke="#000000" stroke-width="0" stroke-linecap="round"/><g fill-rule="evenodd" stroke="#000000" stroke-width="0" stroke-linecap="round"><path d="M160.36475,136.98128c3.31819,7.67165 7.80979,11.37007 12.57171,11.37007c3.14887,0 5.22831,-2.02002 5.22831,-4.93125c0,-8.13952 -19.96262,-7.66422 -19.96262,-21.03204c0.03399,-2.81956 1.1984,-5.50743 3.23204,-7.46073c1.53582,-1.54175 3.57069,-2.79536 6.00066,-3.62269c2.25332,-0.74519 4.61366,-1.1155 6.98691,-1.09617c0.76674,-0.00034 1.53322,0.0284 2.29777,0.08616c3.77557,0.30691 7.45507,1.34724 10.83239,3.06273l-0.95059,12.77369h-3.44593c-0.03362,-0.28656 -0.07026,-0.57274 -0.10991,-0.8585c-0.68918,-4.95502 -2.5577,-11.26165 -8.5049,-11.26165c-0.32829,-0.00071 -0.65627,0.02012 -0.9818,0.06238c-1.84922,0.24359 -3.18301,1.21943 -3.70587,3.05827c-0.16994,0.62882 -0.25191,1.27813 -0.24359,1.92941c0,8.61481 19.96262,8.08011 19.96262,20.85381c0.11025,3.44607 -1.41809,6.74075 -4.12026,8.88218c-3.0538,2.44482 -7.64343,3.71329 -13.22819,3.71329c-4.19303,0 -8.93565,-1.19864 -13.67824,-3.6405c-0.43555,-0.22411 -0.86686,-0.45636 -1.29372,-0.69661c-0.02614,-0.14352 -0.05189,-0.28709 -0.07722,-0.43074c-0.48571,-2.75972 -0.86593,-5.75856 -1.13923,-8.69206c-0.16544,-1.76865 -0.29468,-3.54051 -0.38767,-5.31446l3.32711,-0.41589c0.41056,1.23987 0.87441,2.46142 1.39024,3.6613z"/><path d="M190.72875,122.86098c-0.23009,-0.05652 -0.46038,-0.11218 -0.69086,-0.16704v-1.90896c0.40452,-0.00009 0.80903,0.00105 1.21355,0.00341c2.87709,0.01818 6.05871,0.0875 9.24032,0.0875c2.7271,0 5.45419,-0.05113 7.98926,-0.07727c0.82151,-0.00866 1.64306,-0.01321 2.46462,-0.01364v1.90896c-4.65993,1.11471 -5.65531,1.56695 -5.83031,6.18825c-0.02472,0.73984 -0.03569,1.48007 -0.03296,2.22032v10.81749c0,3.0873 1.45559,5.37238 4.80083,6.1337c0.88652,0.19186 1.7917,0.28409 2.6987,0.27498c4.202,0 6.41094,-1.7601 7.13591,-5.4201c0.19327,-1.04544 0.28459,-2.10717 0.27271,-3.17025c0,-2.24531 -0.02159,-4.13838 -0.03522,-6.03143c-0.00639,-0.8378 -0.0098,-1.67564 -0.01023,-2.51348c0.00401,-0.77901 -0.02064,-1.55788 -0.07386,-2.33508c-0.26021,-3.49069 -1.26923,-4.8406 -3.9577,-5.64282c-0.76664,-0.21815 -1.54514,-0.39229 -2.33167,-0.52155v-1.90896c2.68165,0 5.36329,0.09091 7.99949,0.09091c2.68165,0 5.36329,-0.09091 7.99948,-0.09091v1.90896c-0.48051,0.06396 -0.95756,0.15156 -1.42946,0.26248c-1.90442,0.46929 -2.8805,1.4215 -3.25207,4.46449c-0.05158,0.41341 -0.10159,0.82703 -0.15,1.24083c-0.36135,3.08503 -0.76245,7.17567 -0.92381,10.12775c-0.02729,0.48263 -0.04813,0.96559 -0.06249,1.44878c-0.02407,1.04658 -0.1366,2.08924 -0.33635,3.11685c-0.91585,4.57471 -3.67135,7.50406 -8.5006,8.63127c-1.66494,0.36729 -3.3664,0.54303 -5.07127,0.52382c-1.84851,0.02103 -3.69323,-0.1719 -5.49738,-0.57497c-5.0474,-1.19766 -8.45629,-4.39403 -8.45629,-10.74249v-10.09027c0,-6.42344 -0.4977,-7.08592 -5.17241,-8.24152z"/><path d="M233.55658,143.77671c0.02558,-0.73982 0.03694,-1.48006 0.0341,-2.22032v-10.36298c0.00021,-0.37385 -0.00207,-0.74769 -0.00682,-1.12152c-0.07159,-5.38487 -0.80221,-6.03598 -5.561,-7.12c-0.2498,-0.05654 -0.49977,-0.11222 -0.74995,-0.16705v-1.90896c4.45426,-0.1818 8.86307,-0.36362 13.31734,-0.36362c7.77223,0 14.26614,0.8954 17.02731,4.64061c0.98376,1.39067 1.48467,3.06542 1.42604,4.76787c0.00007,0.05454 -0.00032,0.10909 -0.00114,0.16363c-0.11249,6.87684 -7.32453,9.43235 -14.04342,10.19934l-0.54543,-1.86351c0.98517,-0.53179 1.76693,-1.13287 2.38053,-1.78852c1.40229,-1.56199 2.13122,-3.61443 2.02827,-5.711c-0.00016,-0.08031 -0.0013,-0.16062 -0.00341,-0.24089c-0.07386,-3.05548 -1.57036,-6.9041 -6.08711,-7.25863v18.1352c-0.0035,0.74902 0.00937,1.498 0.03863,2.24644c0.20567,4.5963 1.42946,5.04854 7.86995,6.16211v1.90896c-3.13161,0 -5.99734,-0.05341 -9.33123,-0.07841c-1.07112,-0.00821 -2.14228,-0.01238 -3.21343,-0.0125c-3.63614,0 -7.27227,0.09091 -10.86294,0.09091v-1.90896c5.05877,-1.11471 6.10302,-1.56695 6.28369,-6.18825z"/><path d="M264.24654,143.77671c0.02558,-0.73982 0.03694,-1.48006 0.0341,-2.22032v-10.45388c0.00021,-0.37385 -0.00207,-0.74769 -0.00682,-1.12152c-0.07159,-5.38487 -0.80222,-6.03598 -5.56101,-7.12c-0.2498,-0.05654 -0.49977,-0.11222 -0.74994,-0.16704v-1.90896c3.63614,0 7.27226,0.0909 10.9084,0.0909c6.45413,0 12.90827,-0.04545 19.36239,-0.0909l-0.54542,9.54485h-2.13623c-1.45446,-5.26784 -2.67142,-6.3871 -8.8267,-6.5939c-1.0875,-0.03185 -2.17547,-0.04587 -3.26342,-0.04204v9.99936h1.95441c0.04924,0.00006 0.09848,0.00006 0.14772,0c3.89635,-0.00796 5.33147,-0.34316 6.22233,-2.61916c0.20192,-0.53919 0.36669,-1.0916 0.49316,-1.65331h1.81805c-0.04545,2.22712 -0.0909,4.45426 -0.0909,6.68138c0,2.22712 0.04545,4.45426 0.0909,6.68138h-1.81805c-0.04709,-0.22949 -0.09745,-0.45828 -0.15113,-0.68632c-0.7454,-3.15207 -1.74874,-3.98385 -4.70992,-4.17246c-0.6667,-0.03751 -1.33441,-0.05419 -2.00215,-0.04999h-1.95441v8.40855c0,1.6817 0.95448,2.68166 4.18155,2.68166c0.3605,0.0006 0.72091,-0.01116 1.08061,-0.03522c4.84173,-0.33294 7.14387,-3.04526 9.00966,-9.87324h2.36349v1.22719c0,3.90885 -0.54542,7.86313 -1.6817,11.59017c-6.54502,-0.04545 -13.04463,-0.09091 -19.54421,-0.09091c-3.63614,0 -7.27226,0.09091 -10.9084,0.09091v-1.90896c5.05877,-1.11471 6.10302,-1.56695 6.28369,-6.18825z"/><path d="M295.75464,143.77671c0.02558,-0.73982 0.03694,-1.48006 0.0341,-2.22032v-10.36298c0.00021,-0.37385 -0.00207,-0.74769 -0.00682,-1.12152c-0.07159,-5.38487 -0.80222,-6.03598 -5.56101,-7.12c-0.2498,-0.05654 -0.49977,-0.11222 -0.74994,-0.16705v-1.90896c4.63606,-0.1818 9.27214,-0.36362 13.9082,-0.36362c1.72233,-0.0055 3.44447,0.03696 5.16445,0.12727c3.99066,0.22499 7.05978,0.76472 9.24259,1.78283c2.61778,1.03753 4.26971,3.64273 4.09177,6.45299c0.00123,0.4548 -0.04062,0.90869 -0.12499,1.3556c-0.69313,3.6225 -4.10314,5.22922 -6.05644,5.96212c0.13214,0.24931 0.26585,0.49779 0.40112,0.7454c2.36462,4.31676 6.23938,10.19593 12.50715,13.84457l-0.31816,1.90896c-11.13564,-0.63633 -14.36272,-1.59082 -18.77153,-9.5903c-0.06589,-0.11969 -0.1318,-0.23938 -0.19771,-0.35908c-1.79875,-3.27251 -2.21918,-3.98384 -3.59863,-4.2304c-0.24811,-0.04178 -0.49798,-0.07249 -0.74881,-0.09205v3.13616c-0.00021,0.37385 0.00207,0.7477 0.00682,1.12153c0.07159,5.38487 0.80222,6.03598 5.56101,7.12c0.2498,0.05654 0.49977,0.11222 0.74994,0.16704v1.90896c-3.63614,0 -7.27226,-0.09091 -10.9084,-0.09091c-3.63614,0 -7.27227,0.09091 -10.9084,0.09091v-1.90896c5.05877,-1.11471 6.10302,-1.56695 6.28369,-6.18825zM307.35503,135.1227c2.59984,-0.72494 4.34177,-2.46461 4.34177,-5.97462c0.00159,-0.39548 -0.02997,-0.7904 -0.09432,-1.18061c-0.6295,-3.72477 -4.27246,-4.3804 -6.63252,-4.5463v12.09015c0.80602,-0.04948 1.60505,-0.17967 2.38507,-0.38861z"/></g><path d="M412.20637,190.35208c3.26621,7.55146 7.68743,11.19197 12.37476,11.19197c3.09953,0 5.1464,-1.98837 5.1464,-4.85399c0,-8.012 -19.64989,-7.54415 -19.64989,-20.70257c0.03346,-2.77538 1.17962,-5.42115 3.18141,-7.34385c1.51175,-1.5176 3.51475,-2.75158 5.90666,-3.56594c2.21802,-0.73351 4.54138,-1.09802 6.87746,-1.079c0.75474,-0.00033 1.50919,0.02795 2.26177,0.08479c3.71642,0.3021 7.33828,1.32613 10.6627,3.01474l-0.9357,12.57358h-3.39195c-0.03309,-0.28207 -0.06916,-0.56378 -0.1082,-0.84505c-0.67838,-4.87739 -2.51763,-11.08523 -8.37167,-11.08523c-0.32315,-0.0007 -0.64598,0.01982 -0.96642,0.0614c-1.82024,0.23977 -3.13315,1.20033 -3.6478,3.01036c-0.16728,0.61896 -0.24797,1.25809 -0.23977,1.8992c0,8.47987 19.64989,7.95352 19.64989,20.5271c0.10853,3.39208 -1.39587,6.63516 -4.05571,8.74303c-3.00597,2.40653 -7.52369,3.65513 -13.02097,3.65513c-4.12735,0 -8.79566,-1.17988 -13.46396,-3.58347c-0.42873,-0.2206 -0.85327,-0.44921 -1.27345,-0.68569c-0.02574,-0.14125 -0.05107,-0.2826 -0.07602,-0.42399c-0.47809,-2.71648 -0.85237,-5.66836 -1.12138,-8.55588c-0.16285,-1.74094 -0.29006,-3.48504 -0.3816,-5.2312l3.27498,-0.40936c0.40412,1.22045 0.86071,2.42286 1.36847,3.60395z" fill-rule="evenodd" stroke="#000000" stroke-width="0" stroke-linecap="round"/><path d="M239.68535,215.50267c76.23349,0 144.46511,3.96614 190.13651,10.2141c-48.71404,-5.25643 -115.91548,-8.16111 -190.13651,-8.16111c-74.22105,0 -141.42247,2.92059 -190.12854,8.16111c45.66343,-6.24796 113.89504,-10.2141 190.12854,-10.2141z" fill-rule="nonzero" stroke="#000000" stroke-width="1.5" stroke-linecap="butt"/><text transform="translate(107.2244,243.58424) scale(1.22205,1.22205)" font-size="16.9333" xml:space="preserve" fill="#000000" fill-rule="nonzero" stroke="none" stroke-width="1" stroke-linecap="butt" stroke-linejoin="miter" stroke-miterlimit="10" stroke-dasharray="" stroke-dashoffset="0" font-family="SerpentineDBol" font-weight="400" text-anchor="start" style="mix-blend-mode: normal"><tspan x="0" dy="0">S  C  R  U  L  T  I  M  A  T  E</tspan></text><path d="M385.20935,173.3998c4.98871,0 9.08537,1.34436 12.28993,4.03309c2.07865,1.65578 3.54234,3.4027 4.39111,5.24077c1.16057,2.32418 1.74086,4.49643 1.74086,6.51679v0.8431c-0.06927,1.77731 -0.20786,2.73429 -0.41574,2.87101h-19.20138c-0.08662,0 -0.1299,-0.03798 -0.1299,-0.11394v-19.20854c0,-0.12152 0.44171,-0.18228 1.32512,-0.18228zM374.92006,176.99999l0.05196,0.11392v0.91144c0,0.33419 0.02598,0.72155 0.07793,1.16209l-0.07793,0.13671c0.10392,0.18228 0.15589,0.44054 0.15589,0.77472v1.52667c0,0.04557 -0.02597,0.06834 -0.07793,0.06834l0.07793,0.11392c0,0.09114 -0.02597,0.17471 -0.07793,0.25065c0.05196,0.07595 0.07793,0.15952 0.07793,0.25066l-0.07793,0.11392l0.07793,0.11392c0,0.03037 -0.02597,0.11392 -0.07793,0.25065l0.07793,0.11392l-0.07793,0.13673l0.07793,0.22785c-0.05196,0.09114 -0.07793,0.1519 -0.07793,0.18228l0.07793,0.13673l-0.07793,0.11392l0.07793,0.25065c0,0.04557 -0.02597,0.06834 -0.07793,0.06834l0.07793,0.29621v8.47635c0,0.07595 -0.05199,0.11395 -0.15589,0.11395h-6.02805c-0.22519,-0.22785 -0.38975,-1.3216 -0.49367,-3.28118c0.19053,-2.64316 0.3984,-3.96474 0.6236,-3.96474c0.12125,-1.29122 1.07396,-3.2204 2.8581,-5.78762c0.6236,-0.78992 1.61959,-1.74694 2.98803,-2.87102zM370.26912,196.07178h4.85881c0.08662,0.01519 0.1299,0.06076 0.1299,0.13671v6.01546c0,0.09114 -0.04331,0.13673 -0.1299,0.13673c-1.76686,-1.36716 -3.02269,-2.65078 -3.76754,-3.85083c-0.83144,-1.15451 -1.24719,-1.90642 -1.24719,-2.25582v-0.04557c0.01732,-0.09114 0.06929,-0.13672 0.15589,-0.13672zM384.01416,196.07178h18.08415c0.08662,0 0.1299,0.06076 0.1299,0.18228c-0.67556,1.67097 -2.11327,3.53941 -4.31317,5.60534c-3.066,2.27858 -6.07135,3.60017 -9.01608,3.96475c-0.537,0.12152 -1.51568,0.20508 -2.93607,0.25066c-1.38577,-0.03037 -2.07862,-0.11391 -2.07862,-0.25066v-9.61566c0.01732,-0.09114 0.0606,-0.13671 0.1299,-0.13671z" fill-rule="nonzero" stroke="none" stroke-width="0.26459" stroke-linecap="butt"/></g></g></g></svg>