<svg version="1.1" xmlns="http://www.w3.org/2000/svg" xmlns:xlink="http://www.w3.org/1999/xlink" width="444.88136" height="238.16671" viewBox="0,0,444.88136,238.16671"><defs><radialGradient cx="34.11066" cy="110.02272" r="548.80445" gradientUnits="userSpaceOnUse" id="color-1"><stop offset="0" stop-color="#ffffff"/><stop offset="1" stop-color="#ffffff"/></radialGradient><linearGradient x1="214.57563" y1="124.95928" x2="214.57563" y2="181.04206" gradientUnits="userSpaceOnUse" id="color-2"><stop offset="0" stop-color="#ffffff"/><stop offset="1" stop-color="#d9d9d9"/></linearGradient><linearGradient x1="212.03768" y1="131.17823" x2="212.03768" y2="173.72593" gradientUnits="userSpaceOnUse" id="color-3"><stop offset="0" stop-color="#ff0000"/><stop offset="1" stop-color="#ffc300"/></linearGradient><linearGradient x1="171.12432" y1="124.66148" x2="171.12432" y2="179.77995" gradientUnits="userSpaceOnUse" id="color-4"><stop offset="0" stop-color="#ffffff"/><stop offset="1" stop-color="#d9d9d9"/></linearGradient><linearGradient x1="170.45546" y1="131.17823" x2="170.45546" y2="173.49685" gradientUnits="userSpaceOnUse" id="color-5"><stop offset="0" stop-color="#ff0000"/><stop offset="1" stop-color="#ffc300"/></linearGradient><linearGradient x1="133.40405" y1="124.97073" x2="133.40405" y2="179.97922" gradientUnits="userSpaceOnUse" id="color-6"><stop offset="0" stop-color="#ffffff"/><stop offset="1" stop-color="#d9d9d9"/></linearGradient><linearGradient x1="133.20591" y1="131.17823" x2="133.20591" y2="173.72591" gradientUnits="userSpaceOnUse" id="color-7"><stop offset="0" stop-color="#ff0000"/><stop offset="1" stop-color="#ffc300"/></linearGradient><linearGradient x1="90.65137" y1="124.75767" x2="90.65137" y2="180.21515" gradientUnits="userSpaceOnUse" id="color-8"><stop offset="0" stop-color="#ffffff"/><stop offset="1" stop-color="#d9d9d9"/></linearGradient><linearGradient x1="90.53455" y1="131.30878" x2="90.53455" y2="173.72591" gradientUnits="userSpaceOnUse" id="color-9"><stop offset="0" stop-color="#ff0000"/><stop offset="1" stop-color="#ffc300"/></linearGradient><linearGradient x1="52.46038" y1="124.97073" x2="52.46038" y2="179.97922" gradientUnits="userSpaceOnUse" id="color-10"><stop offset="0" stop-color="#ffffff"/><stop offset="1" stop-color="#d9d9d9"/></linearGradient><linearGradient x1="52.2611" y1="131.17823" x2="52.2611" y2="173.72591" gradientUnits="userSpaceOnUse" id="color-11"><stop offset="0" stop-color="#ff0000"/><stop offset="1" stop-color="#ffc300"/></linearGradient><linearGradient x1="427.15026" y1="125.03028" x2="427.15026" y2="179.4753" gradientUnits="userSpaceOnUse" id="color-12"><stop offset="0" stop-color="#ffffff"/><stop offset="1" stop-color="#d9d9d9"/></linearGradient><linearGradient x1="426.91777" y1="131.60428" x2="426.91777" y2="173.16931" gradientUnits="userSpaceOnUse" id="color-13"><stop offset="0" stop-color="#ff0000"/><stop offset="1" stop-color="#ffc300"/></linearGradient><linearGradient x1="399.08368" y1="125.18833" x2="399.08368" y2="179.83033" gradientUnits="userSpaceOnUse" id="color-14"><stop offset="0" stop-color="#ffffff"/><stop offset="1" stop-color="#d9d9d9"/></linearGradient><linearGradient x1="398.85577" y1="132.28916" x2="398.85577" y2="173.49685" gradientUnits="userSpaceOnUse" id="color-15"><stop offset="0" stop-color="#ff0000"/><stop offset="1" stop-color="#ffc300"/></linearGradient><linearGradient x1="367.16318" y1="124.73478" x2="367.16318" y2="180.81758" gradientUnits="userSpaceOnUse" id="color-16"><stop offset="0" stop-color="#ffffff"/><stop offset="1" stop-color="#d9d9d9"/></linearGradient><linearGradient x1="364.62522" y1="130.95374" x2="364.62522" y2="173.50144" gradientUnits="userSpaceOnUse" id="color-17"><stop offset="0" stop-color="#ff0000"/><stop offset="1" stop-color="#ffc300"/></linearGradient><linearGradient x1="321.97332" y1="124.75767" x2="321.97332" y2="180.21515" gradientUnits="userSpaceOnUse" id="color-18"><stop offset="0" stop-color="#ffffff"/><stop offset="1" stop-color="#d9d9d9"/></linearGradient><linearGradient x1="321.85649" y1="131.30878" x2="321.85649" y2="173.72591" gradientUnits="userSpaceOnUse" id="color-19"><stop offset="0" stop-color="#ff0000"/><stop offset="1" stop-color="#ffc300"/></linearGradient><linearGradient x1="275.77788" y1="124.77143" x2="275.77788" y2="180.24951" gradientUnits="userSpaceOnUse" id="color-20"><stop offset="0" stop-color="#ffffff"/><stop offset="1" stop-color="#d9d9d9"/></linearGradient><linearGradient x1="276.25087" y1="131.14614" x2="276.25087" y2="173.72591" gradientUnits="userSpaceOnUse" id="color-21"><stop offset="0" stop-color="#ff0000"/><stop offset="1" stop-color="#ffc300"/></linearGradient><linearGradient x1="146.57346" y1="189.30254" x2="146.57346" y2="231.93543" gradientUnits="userSpaceOnUse" id="color-22"><stop offset="0" stop-color="#131837"/><stop offset="1" stop-color="#242f70"/></linearGradient><linearGradient x1="146.34042" y1="193.16195" x2="146.34042" y2="227.56508" gradientUnits="userSpaceOnUse" id="color-23"><stop offset="0" stop-color="#721987"/><stop offset="1" stop-color="#f435a0"/></linearGradient><linearGradient x1="114.53882" y1="185.82927" x2="114.53882" y2="227.08338" gradientUnits="userSpaceOnUse" id="color-24"><stop offset="0" stop-color="#131837"/><stop offset="1" stop-color="#242f70"/></linearGradient><linearGradient x1="114.07664" y1="189.67502" x2="114.07664" y2="223.02114" gradientUnits="userSpaceOnUse" id="color-25"><stop offset="0" stop-color="#721987"/><stop offset="1" stop-color="#f435a0"/></linearGradient><linearGradient x1="83.59337" y1="189.48195" x2="83.59337" y2="234.14694" gradientUnits="userSpaceOnUse" id="color-26"><stop offset="0" stop-color="#131837"/><stop offset="1" stop-color="#242f70"/></linearGradient><linearGradient x1="83.04538" y1="193.90106" x2="83.04538" y2="229.75317" gradientUnits="userSpaceOnUse" id="color-27"><stop offset="0" stop-color="#721987"/><stop offset="1" stop-color="#f435a0"/></linearGradient><linearGradient x1="50.28915" y1="184.14819" x2="50.28915" y2="231.08514" gradientUnits="userSpaceOnUse" id="color-28"><stop offset="0" stop-color="#131837"/><stop offset="1" stop-color="#242f70"/></linearGradient><linearGradient x1="50.94443" y1="188.57512" x2="50.94443" y2="226.24479" gradientUnits="userSpaceOnUse" id="color-29"><stop offset="0" stop-color="#721987"/><stop offset="1" stop-color="#f435a0"/></linearGradient><linearGradient x1="426.51795" y1="186.8531" x2="426.51795" y2="234.75929" gradientUnits="userSpaceOnUse" id="color-30"><stop offset="0" stop-color="#131837"/><stop offset="1" stop-color="#242f70"/></linearGradient><linearGradient x1="426.27614" y1="191.51014" x2="426.27614" y2="230.08861" gradientUnits="userSpaceOnUse" id="color-31"><stop offset="0" stop-color="#721987"/><stop offset="1" stop-color="#f435a0"/></linearGradient><linearGradient x1="392.6921" y1="183.53391" x2="392.6921" y2="226.86301" gradientUnits="userSpaceOnUse" id="color-32"><stop offset="0" stop-color="#131837"/><stop offset="1" stop-color="#242f70"/></linearGradient><linearGradient x1="392.4454" y1="187.81259" x2="392.4454" y2="223.03481" gradientUnits="userSpaceOnUse" id="color-33"><stop offset="0" stop-color="#721987"/><stop offset="1" stop-color="#f435a0"/></linearGradient><linearGradient x1="367.66642" y1="190.92897" x2="367.66642" y2="231.04419" gradientUnits="userSpaceOnUse" id="color-34"><stop offset="0" stop-color="#131837"/><stop offset="1" stop-color="#242f70"/></linearGradient><linearGradient x1="367.87021" y1="194.73962" x2="367.87021" y2="226.90396" gradientUnits="userSpaceOnUse" id="color-35"><stop offset="0" stop-color="#721987"/><stop offset="1" stop-color="#f435a0"/></linearGradient><linearGradient x1="345.84875" y1="187.58053" x2="345.84875" y2="235.33849" gradientUnits="userSpaceOnUse" id="color-36"><stop offset="0" stop-color="#131837"/><stop offset="1" stop-color="#242f70"/></linearGradient><linearGradient x1="345.30758" y1="192.06204" x2="345.30758" y2="230.95059" gradientUnits="userSpaceOnUse" id="color-37"><stop offset="0" stop-color="#721987"/><stop offset="1" stop-color="#f435a0"/></linearGradient><linearGradient x1="316.6175" y1="186.45919" x2="316.6175" y2="227.85761" gradientUnits="userSpaceOnUse" id="color-38"><stop offset="0" stop-color="#131837"/><stop offset="1" stop-color="#242f70"/></linearGradient><linearGradient x1="316.19139" y1="190.34393" x2="316.19139" y2="223.75639" gradientUnits="userSpaceOnUse" id="color-39"><stop offset="0" stop-color="#721987"/><stop offset="1" stop-color="#f435a0"/></linearGradient><linearGradient x1="284.1626" y1="192.36432" x2="284.1626" y2="232.99048" gradientUnits="userSpaceOnUse" id="color-40"><stop offset="0" stop-color="#131837"/><stop offset="1" stop-color="#242f70"/></linearGradient><linearGradient x1="283.59314" y1="196.20422" x2="283.59314" y2="229.01015" gradientUnits="userSpaceOnUse" id="color-41"><stop offset="0" stop-color="#721987"/><stop offset="1" stop-color="#f435a0"/></linearGradient><linearGradient x1="256.159" y1="185.47239" x2="256.159" y2="228.15989" gradientUnits="userSpaceOnUse" id="color-42"><stop offset="0" stop-color="#131837"/><stop offset="1" stop-color="#242f70"/></linearGradient><linearGradient x1="255.92886" y1="189.34544" x2="255.92886" y2="223.79923" gradientUnits="userSpaceOnUse" id="color-43"><stop offset="0" stop-color="#721987"/><stop offset="1" stop-color="#f435a0"/></linearGradient><linearGradient x1="205.7556" y1="189.87394" x2="205.7556" y2="233.92462" gradientUnits="userSpaceOnUse" id="color-44"><stop offset="0" stop-color="#131837"/><stop offset="1" stop-color="#242f70"/></linearGradient><linearGradient x1="206.04031" y1="193.94007" x2="206.04031" y2="230.01645" gradientUnits="userSpaceOnUse" id="color-45"><stop offset="0" stop-color="#721987"/><stop offset="1" stop-color="#f435a0"/></linearGradient><linearGradient x1="181.70987" y1="187.10858" x2="181.70987" y2="229.90529" gradientUnits="userSpaceOnUse" id="color-46"><stop offset="0" stop-color="#131837"/><stop offset="1" stop-color="#242f70"/></linearGradient><linearGradient x1="181.5841" y1="191.96258" x2="181.5841" y2="225.57393" gradientUnits="userSpaceOnUse" id="color-47"><stop offset="0" stop-color="#721987"/><stop offset="1" stop-color="#f435a0"/></linearGradient></defs><g transform="translate(-17.55933,-60.91665)"><g data-paper-data="{&quot;isPaintingLayer&quot;:true}" fill-rule="nonzero" stroke-linecap="butt" stroke-linejoin="miter" stroke-dasharray="" stroke-dashoffset="0" style="mix-blend-mode: normal"><path d="M25.27531,73.26222c0,0 128.63774,-12.34557 210.97247,-12.34557c85.86568,0 220.02013,12.34557 220.02013,12.34557c0,0 6.17278,66.49036 6.17278,104.10895c0,45.69299 -6.17278,109.36662 -6.17278,109.36662c0,0 -132.8748,12.34557 -216.93374,12.34557c-84.14147,0 -214.05886,-12.34557 -214.05886,-12.34557c0,0 -7.71598,-67.36227 -7.71598,-112.45301c0,-38.22086 7.71598,-101.02255 7.71598,-101.02255z" fill="#ffffff" stroke="url(#color-1)" stroke-width="0" stroke-miterlimit="10"/><g stroke-width="1" stroke-miterlimit="4"><g><path d="M236.35569,139.10135l-5.27064,19.20201l-1.27814,0.73756l13.18692,9.83808l-26.80677,12.16303l-4.22384,-5.8181l-0.26112,2.69602h-20.39541l-5.14924,-47.35563l30.87484,-5.60507z" fill="url(#color-2)" stroke="#686868"/><path d="M229.63282,141.44692l-3.56645,12.98305l-6.89925,3.99021l12.36231,9.22191l-13.40911,6.0838l-10.49776,-14.46049l-1.24149,12.79065h-9.84495l-3.99021,-36.69294l23.05707,-4.18491zM207.42556,154.16887l7.14892,-2.56546l1.41559,-7.82007l-8.56452,-1.90577z" fill="url(#color-3)" stroke="#511100"/></g><g><path d="M197.12936,130.52999l-6.45946,23.61827l-3.47482,-0.95288l-0.81316,4.14826l3.34197,-0.27259l3.51606,22.7089l-41.52837,-2.4601l-6.59231,-18.77596l7.62995,-33.88238z" fill="url(#color-4)" stroke="#686868"/><path d="M189.70099,135.46161l-3.1381,11.48044l-16.45101,-4.51475l-3.36716,7.42379h0.22906l14.84531,-1.33998l0.22906,0.45811l-2.02718,10.33285l-12.59135,-1.79812l0.19698,6.7687l0.22907,0.45811l16.90683,-1.37206l1.57135,10.13814l-30.38236,-1.8004l-4.74152,-13.50532l6.0838,-27.01291z" fill="url(#color-5)" stroke="#511100"/></g><g><path d="M158.93382,139.3877l-5.29126,19.07831l-11.02003,9.27688l-7.27262,-0.41459l-0.39856,11.05667l-22.56688,1.59426l-4.51016,-49.53398l31.5391,-5.47451z" fill="url(#color-6)" stroke="#686868"/><path d="M152.20635,141.70807l-3.72908,13.44116l-7.84756,6.60605l-10.92381,-0.62074l-0.42605,11.77362l-11.57664,0.81775l-3.49773,-38.42692l23.74195,-4.12077zM129.08514,154.10241l7.14664,-2.56546l1.41558,-7.82006l-8.56222,-1.90577z" fill="url(#color-7)" stroke="#511100"/></g><g><path d="M105.08665,129.13042l15.88753,47.62362l-27.50768,3.46108l-2.08443,-9.72355l-2.57692,0.4146l-2.60898,9.26543l-25.86761,-5.63026l16.28609,-49.78365z" fill="url(#color-8)" stroke="#686868"/><path d="M100.65666,134.38274l12.49286,37.44426l-15.07665,1.8989l-2.12567,-9.90909l-11.77362,1.8966l-2.12567,7.55436l-14.12834,-3.07397l12.72193,-38.88503zM88.42491,144.74996l-1.43849,9.18984h7.09624l-2.61585,-10.3672z" fill="url(#color-9)" stroke="#511100"/></g><g><path d="M77.99127,139.3877l-5.29355,19.07831l-11.02002,9.27688l-7.27033,-0.41459l-0.40086,11.05667l-22.56458,1.59426l-4.51246,-49.53398l31.5414,-5.47451z" fill="url(#color-10)" stroke="#686868"/><path d="M71.26153,141.70807l-3.72908,13.44116l-7.84756,6.60605l-10.92381,-0.62074l-0.42376,11.77362l-11.57663,0.81775l-3.50001,-38.42692l23.74195,-4.12077zM48.14032,154.10241l7.14664,-2.56546l1.41558,-7.82006l-8.56222,-1.90577z" fill="url(#color-11)" stroke="#511100"/></g><g><path d="M441.63594,131.86766l11.51708,18.31096l-7.77196,23.57016l-23.58619,5.72647l-19.70823,-13.1663l-0.93914,-25.2629l19.88919,-16.01579z" fill="url(#color-12)" stroke="#686868"/><path d="M437.79235,136.76955l8.92641,14.19477l-5.88681,17.85514l-17.91927,4.34983l-15.07665,-10.07402l-0.71924,-19.32569l15.10872,-12.16532zM420.81907,157.96204l8.40416,1.89661l3.00984,-10.17022l-10.72682,-3.0419z" fill="url(#color-13)" stroke="#511100"/></g><g><path d="M413.7045,130.54145l-7.52916,49.28888l-21.71249,-1.95158l3.08084,-52.6904z" fill="url(#color-14)" stroke="#686868"/><path d="M407.06408,135.16842l-5.85245,38.32842l-10.56419,-0.9483l2.35472,-40.25939z" fill="url(#color-15)" stroke="#511100"/></g><g><path d="M388.94325,138.87691l-5.27064,19.20201l-1.27814,0.73757l13.18692,9.83808l-26.80675,12.16302l-4.22385,-5.8181l-0.26112,2.69602h-20.39541l-5.14924,-47.35562l30.87484,-5.60507z" fill="url(#color-16)" stroke="#686868"/><path d="M382.22038,141.22247l-3.56645,12.98305l-6.89925,3.99021l12.36231,9.22191l-13.40911,6.0838l-10.49776,-14.46049l-1.24149,12.79065h-9.84495l-3.99021,-36.69294l23.05707,-4.18491zM360.01311,153.94437l7.14893,-2.56546l1.41558,-7.82007l-8.56452,-1.90577z" fill="url(#color-17)" stroke="#511100"/></g><g><path d="M336.4086,129.13042l15.88753,47.62362l-27.50539,3.46108l-2.08673,-9.72355l-2.57691,0.4146l-2.60669,9.26543l-25.8699,-5.63026l16.28837,-49.78365z" fill="url(#color-18)" stroke="#686868"/><path d="M331.97861,134.38274l12.49286,37.44426l-15.07665,1.8989l-2.12567,-9.90909l-11.77362,1.8966l-2.12567,7.55436l-14.12836,-3.07397l12.72193,-38.88503zM319.74686,144.74996l-1.43849,9.18984h7.09624l-2.61585,-10.3672z" fill="url(#color-19)" stroke="#511100"/></g><g><path d="M279.76693,126.96125l1.63778,4.60637l2.18981,-3.39006l17.12902,2.286l6.84885,46.84254l-26.23869,2.94341l-0.70779,-14.94609l-4.17116,3.66264l-3.14728,-4.76442l-5.67607,14.80179l-23.64803,-11.28115l18.57895,-42.95083z" fill="url(#color-20)" stroke="#686868"/><path d="M275.44916,132.32351l4.34983,12.22946h0.19699l6.50756,-10.07172l9.05928,1.20943l5.3302,36.46387l-13.99779,1.57135l-0.98037,-20.70235h-0.19699l-8.07662,7.09624l-5.72417,-8.66529l-7.48794,19.52269l-12.82042,-6.11588l14.58647,-33.71516z" fill="url(#color-21)" stroke="#511100"/></g><g><path d="M154.19574,189.87198l12.22763,13.51086l-6.80808,13.35678l-2.11985,0.70402l8.68806,9.7782l-20.82598,4.71358l-3.06179,-6.90754l-1.0258,3.72679l-14.54638,-2.99938l3.47717,-36.45277z" fill="url(#color-22)" stroke="#060914"/><path d="M152.48348,193.61049l9.39207,10.3769l-4.9203,9.6573l-6.09042,2.02428l8.24731,9.28091l-11.56068,2.6152l-5.88954,-13.28462l-0.30812,-0.0624l-2.78681,10.12339l-7.76171,-1.6011l2.81996,-29.57838zM141.69898,210.84813l6.85489,-0.65721l2.83166,-6.29713l-7.51794,-4.47956z" fill="url(#color-23)" stroke="#260837"/></g><g><path d="M120.72284,186.31485l16.90026,34.80292l-19.64417,5.12508l-2.69125,-7.57255l-3.45182,1.02774l-1.07066,7.38533l-19.31069,-1.63035l7.46335,-39.62376z" fill="url(#color-24)" stroke="#060914"/><path d="M118.33192,190.0397l13.88138,28.58575l-11.83564,3.08908l-2.73221,-7.68956l-9.199,2.7439l-0.90879,6.25228l-11.59772,-0.97898l6.09627,-32.36714zM109.65167,199.59169l-0.18917,7.48674l5.66527,-0.74107l-3.17099,-8.00354z" fill="url(#color-25)" stroke="#260837"/></g><g><path d="M104.25554,196.67812l-6.03385,16.62334l-2.79461,-1.01605l-1.53674,5.45271h3.06764l1.18961,16.40882l-31.3823,-4.43471l-3.83406,-14.62441l7.99769,-25.60587z" fill="url(#color-26)" stroke="#060914"/><path d="M99.22991,199.45513l-3.26851,9.00593l-12.90435,-4.69603l-3.18855,5.73548l0.18332,0.01557l12.00141,-0.10532l0.15407,0.38224l-2.30122,8.15956l-9.98687,-2.26611l-0.28473,5.44491l0.15407,0.38223l13.65711,0.00199l0.59676,8.23756l-24.26024,-3.42841l-2.92137,-11.14723l6.64426,-21.27647z" fill="url(#color-27)" stroke="#260837"/></g><g><path d="M73.7313,202.89724l-12.26664,0.41929l2.71074,22.91072l-18.16399,4.85791l-1.62061,-25.65073l-11.08482,2.88042l-6.459,-16.51803l46.24074,-7.64861z" fill="url(#color-28)" stroke="#060914"/><path d="M69.82704,199.25235l-12.59426,0.43099l2.80631,23.73954l-10.54852,2.82191l-1.61865,-25.61757l-12.27053,3.18855l-3.53957,-9.05275l37.39861,-6.18792z" fill="url(#color-29)" stroke="#260837"/></g><g><path d="M427.64224,198.32993l8.27072,-6.65986l14.21876,14.95008l-18.93624,12.81659l-1.73567,15.32256l-22.7898,-5.4839l5.85834,-15.95249l-9.62414,-20.5159l21.87517,-5.95391z" fill="url(#color-30)" stroke="#060914"/><path d="M425.40928,204.98003l10.16434,-8.18685l8.74851,9.199l-16.68184,11.29154l-1.45094,12.80488l-14.51324,-3.49278l4.94176,-13.45039l-8.38772,-17.87534l13.81898,-3.75995z" fill="url(#color-31)" stroke="#260837"/></g><g><path d="M415.97628,188.82669l-4.50883,18.21078l-11.91365,-2.95257l-3.66244,22.77811l-18.79778,-0.29643l5.45856,-25.11442l-11.45146,-0.26328l-1.69276,-17.65498z" fill="url(#color-32)" stroke="#060914"/><path d="M411.27829,192.09323l-2.56838,10.36911l-12.23349,-3.03058l-3.79505,23.60304l-10.9171,-0.17162l5.45075,-25.08321l-12.67422,-0.29058l-0.92829,-9.67679z" fill="url(#color-33)" stroke="#260837"/></g><g><path d="M376.5963,191.07523l1.64594,38.31714l-15.6619,1.6518l-5.48977,-40.11521z" fill="url(#color-34)" stroke="#060914"/><path d="M372.97871,194.82543l1.33782,31.18339l-8.49108,0.89514l-4.40157,-32.16434z" fill="url(#color-35)" stroke="#260837"/></g><g><path d="M354.01707,191.85728l-6.36539,22.7196l17.50677,-0.56751l-7.26247,21.32913l-31.35696,-6.62672l6.05532,-41.13126z" fill="url(#color-36)" stroke="#060914"/><path d="M349.28009,194.76109l-6.65596,23.7571l17.19864,-0.55776l-4.42302,12.99016l-24.60738,-5.19917l4.95932,-33.68937z" fill="url(#color-37)" stroke="#260837"/></g><g><path d="M323.25886,187.2178l16.46731,35.0077l-19.70461,4.8813l-2.5996,-7.60571l-3.46352,0.98679l-1.16231,7.36973l-19.28728,-1.86826l7.95088,-39.53015z" fill="url(#color-38)" stroke="#060914"/><path d="M320.82307,190.91144l13.52451,28.75541l-11.8727,2.94087l-2.63664,-7.72076l-9.23216,2.62884l-0.98679,6.24058l-11.58406,-1.1233l6.49605,-32.28913zM312.02385,200.35422l-0.28277,7.48284l5.67502,-0.67085l-3.07154,-8.0406z" fill="url(#color-39)" stroke="#260837"/></g><g><path d="M298.84453,209.92179l-2.95061,-0.36077l-0.27108,5.65942l2.98963,-0.69036l4.8501,15.71845l-31.57147,2.74196l-7.02844,-13.38604l2.02818,-26.75062l34.09111,-0.4895z" fill="url(#color-40)" stroke="#060914"/><path d="M295.55263,205.71323l-13.62981,-1.67131l-1.81367,6.30689l0.18137,-0.02726l11.66988,-2.80435l0.23598,0.33933l-0.40759,8.46768l-10.23845,0.03904l0.94778,5.36884l0.23598,0.33933l13.30608,-3.07154l2.43577,7.89043l-24.40845,2.11985l-5.35714,-10.20335l1.68691,-22.2262l26.31379,-0.37639z" fill="url(#color-41)" stroke="#260837"/></g><g><path d="M263.87,186.13349l12.17888,13.55375l-6.85684,13.33144l-2.1218,0.69621l8.651,9.80941l-20.84352,4.63558l-3.03642,-6.91925l-1.04139,3.72485l-14.5308,-3.05398l3.60783,-36.43912z" fill="url(#color-42)" stroke="#060914"/><path d="M262.14604,189.86219l9.35307,10.41201l-4.95737,9.63975l-6.09627,2.00089l8.21221,9.31211l-11.56847,2.57228l-5.84079,-13.30608l-0.31008,-0.0643l-2.82387,10.11363l-7.75586,-1.62841l2.93111,-29.56863zM251.29718,207.06088l6.85684,-0.63186l2.85507,-6.28739l-7.50039,-4.50687z" fill="url(#color-43)" stroke="#260837"/></g><g><path d="M227.96522,226.83961l-12.99991,5.8681l-5.441,-5.68868l1.63425,6.06701l-19.35749,0.83859l-8.25511,-35.46404l16.96657,-5.00807l5.68087,6.5214l-1.7376,-8.42673l21.45198,-1.67325z" fill="url(#color-44)" stroke="#060914"/><path d="M224.04924,224.46429l-8.20246,3.70144l-13.81118,-14.4372l4.25139,15.78866l-11.51971,0.49924l-6.73592,-28.94262l11.22523,-3.31335l13.5479,15.54878l-3.78529,-18.32974l13.33337,-1.03945z" fill="url(#color-45)" stroke="#260837"/></g><g><path d="M193.94238,192.61003l-8.95328,37.29525l-15.51174,-2.71855l5.74914,-40.07816z" fill="url(#color-46)" stroke="#060914"/><path d="M189.43161,195.22133l-7.28588,30.3526l-8.40917,-1.47434l4.60827,-32.13702z" fill="url(#color-47)" stroke="#260837"/></g></g></g></g></svg>