<svg version="1.1" xmlns="http://www.w3.org/2000/svg" xmlns:xlink="http://www.w3.org/1999/xlink" width="457.28131" height="354.99677" viewBox="0,0,457.28131,354.99677"><defs><linearGradient x1="225.67097" y1="51.92831" x2="225.67097" y2="93.13568" gradientUnits="userSpaceOnUse" id="color-1"><stop offset="0" stop-color="#5276bd"/><stop offset="1" stop-color="#69d9ff"/></linearGradient><linearGradient x1="239.62664" y1="153.64952" x2="239.62664" y2="194.85689" gradientUnits="userSpaceOnUse" id="color-2"><stop offset="0" stop-color="#5276bd"/><stop offset="1" stop-color="#69d9ff"/></linearGradient><linearGradient x1="239.62664" y1="153.64952" x2="239.62664" y2="194.85689" gradientUnits="userSpaceOnUse" id="color-3"><stop offset="0" stop-color="#5276bd"/><stop offset="1" stop-color="#69d9ff"/></linearGradient><linearGradient x1="239.62664" y1="153.64952" x2="239.62664" y2="194.85689" gradientUnits="userSpaceOnUse" id="color-4"><stop offset="0" stop-color="#5276bd"/><stop offset="1" stop-color="#69d9ff"/></linearGradient><linearGradient x1="176.24303" y1="91.61164" x2="176.24303" y2="161.67375" gradientUnits="userSpaceOnUse" id="color-5"><stop offset="0" stop-color="#00385b"/><stop offset="1" stop-color="#002e93"/></linearGradient><linearGradient x1="242.01178" y1="94.64633" x2="242.01178" y2="155.307" gradientUnits="userSpaceOnUse" id="color-6"><stop offset="0" stop-color="#00385b"/><stop offset="1" stop-color="#002e93"/></linearGradient><linearGradient x1="304.9816" y1="91.72597" x2="304.9816" y2="157.41233" gradientUnits="userSpaceOnUse" id="color-7"><stop offset="0" stop-color="#00385b"/><stop offset="1" stop-color="#002e93"/></linearGradient><linearGradient x1="176.24297" y1="91.6117" x2="176.24297" y2="161.67368" gradientUnits="userSpaceOnUse" id="color-8"><stop offset="0" stop-color="#5276bd"/><stop offset="1" stop-color="#69d9ff"/></linearGradient><linearGradient x1="242.0117" y1="94.6462" x2="242.0117" y2="155.30687" gradientUnits="userSpaceOnUse" id="color-9"><stop offset="0" stop-color="#5276bd"/><stop offset="1" stop-color="#69d9ff"/></linearGradient><linearGradient x1="304.9814" y1="91.72597" x2="304.9814" y2="157.4122" gradientUnits="userSpaceOnUse" id="color-10"><stop offset="0" stop-color="#5276bd"/><stop offset="1" stop-color="#69d9ff"/></linearGradient><linearGradient x1="170.40958" y1="9.28983" x2="170.40958" y2="78.23514" gradientUnits="userSpaceOnUse" id="color-11"><stop offset="0" stop-color="#00395c"/><stop offset="1" stop-color="#003197"/></linearGradient><linearGradient x1="239.74614" y1="16.04718" x2="239.74614" y2="75.28897" gradientUnits="userSpaceOnUse" id="color-12"><stop offset="0" stop-color="#00395c"/><stop offset="1" stop-color="#003197"/></linearGradient><linearGradient x1="308.59514" y1="7.03036" x2="308.59514" y2="79.79751" gradientUnits="userSpaceOnUse" id="color-13"><stop offset="0" stop-color="#00395c"/><stop offset="1" stop-color="#003197"/></linearGradient><linearGradient x1="170.40944" y1="9.28983" x2="170.40944" y2="78.23514" gradientUnits="userSpaceOnUse" id="color-14"><stop offset="0" stop-color="#5276bd"/><stop offset="1" stop-color="#69d9ff"/></linearGradient><linearGradient x1="239.74614" y1="16.04718" x2="239.74614" y2="75.28897" gradientUnits="userSpaceOnUse" id="color-15"><stop offset="0" stop-color="#5276bd"/><stop offset="1" stop-color="#69d9ff"/></linearGradient><linearGradient x1="308.59514" y1="7.03029" x2="308.59514" y2="79.79745" gradientUnits="userSpaceOnUse" id="color-16"><stop offset="0" stop-color="#5276bd"/><stop offset="1" stop-color="#69d9ff"/></linearGradient></defs><g transform="translate(-11.59232,-1.80209)"><g data-paper-data="{&quot;isPaintingLayer&quot;:true}" fill-rule="nonzero" stroke-linecap="butt" stroke-linejoin="miter" stroke-miterlimit="10" stroke-dasharray="" stroke-dashoffset="0" style="mix-blend-mode: normal"><text transform="translate(28.2812,186.76875) scale(0.58667,0.58667)" font-size="40" xml:space="preserve" fill="#ffffff" fill-rule="nonzero" stroke="none" stroke-width="1" stroke-linecap="butt" stroke-linejoin="miter" stroke-miterlimit="10" stroke-dasharray="" stroke-dashoffset="0" font-family="Sans Serif" font-weight="normal" text-anchor="start" style="mix-blend-mode: normal"><tspan x="0" dy="0">Please help us make our games work.</tspan></text><text transform="translate(14.44011,220.67803) scale(0.41378,0.41378)" font-size="40" xml:space="preserve" fill="#ffffff" fill-rule="nonzero" stroke="none" stroke-width="1" stroke-linecap="butt" stroke-linejoin="miter" stroke-miterlimit="10" stroke-dasharray="" stroke-dashoffset="0" font-family="Sans Serif" font-weight="normal" text-anchor="start" style="mix-blend-mode: normal"><tspan x="0" dy="0">Have you noticed a bug whilst playing one of our games?</tspan><tspan x="0" dy="46.15px">  Report it in the comments and I'll add it here! It will be</tspan><tspan x="0" dy="46.15px">                                    very appreciated.</tspan></text><text transform="translate(75.94929,352.94048) scale(0.30867,0.30867)" font-size="40" xml:space="preserve" fill="#ffffff" fill-rule="nonzero" stroke="none" stroke-width="1" stroke-linecap="butt" stroke-linejoin="miter" stroke-miterlimit="10" stroke-dasharray="" stroke-dashoffset="0" font-family="Sans Serif" font-weight="normal" text-anchor="start" style="mix-blend-mode: normal"><tspan x="0" dy="0">To move between pages, use A/D or the L/R arrow keys.</tspan></text><text transform="translate(11.82012,297.75621) scale(0.45558,0.45558)" font-size="40" xml:space="preserve" fill="#ffffff" fill-rule="nonzero" stroke="none" stroke-width="1" stroke-linecap="butt" stroke-linejoin="miter" stroke-miterlimit="10" stroke-dasharray="" stroke-dashoffset="0" font-family="Sans Serif" font-weight="normal" text-anchor="start" style="mix-blend-mode: normal"><tspan x="0" dy="0">Note: Check the end of a bug to see if it says "FIXED"</tspan></text><text transform="translate(56.41929,327.43812) scale(0.4371,0.4371)" font-size="40" xml:space="preserve" fill="#ffffff" fill-rule="nonzero" stroke="none" stroke-width="1" stroke-linecap="butt" stroke-linejoin="miter" stroke-miterlimit="10" stroke-dasharray="" stroke-dashoffset="0" font-family="Sans Serif" font-weight="normal" text-anchor="start" style="mix-blend-mode: normal"><tspan x="0" dy="0">If you fix a bug in an update, LET ME KNOW!</tspan></text><path d="" fill="url(#color-1)" stroke="#003d5d" stroke-width="2.5"/><path d="" fill="url(#color-2)" stroke="#003d5d" stroke-width="2.5"/><path d="" fill="url(#color-3)" stroke="#003d5d" stroke-width="2.5"/><path d="" fill="url(#color-4)" stroke="#003d5d" stroke-width="2.5"/><g fill="none" stroke-width="10"><path d="M165.16628,93.79948l22.28146,31.43109l-2.18784,-31.43109l25.49919,-2.18791l-0.12821,61.30609l-19.44821,5.6665l-20.22169,-25.24285l1.54703,25.37105l-21.12344,2.96139l-9.6577,-60.66067z" stroke="url(#color-5)"/><path d="M270.08787,100.70184l-3.6068,18.54653l-24.3411,-6.44459l-1.54249,6.06018l18.80287,2.0597l-2.96139,14.03805l-17.00404,-2.32058l0.77808,6.44004l23.95209,-1.41436l2.19244,17.64025l-45.72548,-2.05517l-6.69631,-23.31128l8.37155,-35.29422z" stroke="url(#color-6)"/><path d="M337.11534,91.72597l1.15802,19.83728l-21.63605,3.08958l6.82446,41.59694l-26.01639,1.16262l-0.89715,-39.41363l-22.4142,2.83779l-2.44418,-26.27727z" stroke="url(#color-7)"/></g><g stroke="none" stroke-width="1"><path d="M165.16628,93.79948l22.28146,31.43109l-2.18784,-31.43109l25.49919,-2.18791l-0.12821,61.30609l-19.44821,5.6665l-20.22169,-25.24285l1.54703,25.37105l-21.12344,2.96139l-9.6577,-60.66067z" fill="url(#color-8)"/><path d="M270.08787,100.70184l-3.6068,18.54653l-24.3411,-6.44459l-1.54249,6.06018l18.80287,2.0597l-2.96139,14.03805l-17.00404,-2.32058l0.77808,6.44004l23.95209,-1.41436l2.19244,17.64025l-45.72548,-2.05517l-6.69631,-23.31128l8.37155,-35.29422z" fill="url(#color-9)"/><path d="M337.11534,91.72597l1.15802,19.83728l-21.63605,3.08958l6.82446,41.59694l-26.01639,1.16262l-0.89715,-39.41363l-22.4142,2.83779l-2.44418,-26.27727z" fill="url(#color-10)"/></g><g fill="none" stroke-width="10"><path d="M202.52262,26.45409l-7.57972,17.59448l9.43798,11.44286l-13.44306,21.1692l-45.34554,1.57458l-9.15423,-60.78888l42.05464,-8.15643zM163.32862,41.61794l13.30572,-2.86073l1.14428,-7.00755l-15.30593,-4.2933zM165.1915,63.50132l12.4406,-1.57451l0.86052,-8.72401l-14.16165,-0.43023z" stroke="url(#color-11)"/><path d="M236.97461,19.39764l-4.50848,38.11834l13.65357,-2.0597l1.67523,-30.0076l24.98651,3.73494l-5.66643,32.97365l-11.97835,13.13176l-34.2598,-0.1282l-14.16625,-11.84555l2.44418,-47.26804z" stroke="url(#color-12)"/><path d="M312.39637,27.50839l-10.30312,8.63248l-0.26094,17.64478l11.85022,6.05098l11.97834,-4.63661l-1.54703,-3.6068l-13.3927,3.47859l-0.76902,-16.48682l32.58004,-2.44418l1.02982,31.42195l-32.71271,12.23469l-27.43075,-9.7859l-9.79051,-32.45644l15.07254,-23.56762l25.49912,-6.95726l23.69582,8.11521l-8.24341,19.19188z" stroke="url(#color-13)"/></g><g stroke="none" stroke-width="1"><path d="M202.52262,26.45409l-7.57972,17.59448l9.43798,11.44286l-13.44306,21.1692l-45.34554,1.57458l-9.15423,-60.78888l42.05464,-8.15643zM163.32862,41.61794l13.30572,-2.86073l1.14428,-7.00755l-15.30593,-4.2933zM165.1915,63.50132l12.4406,-1.57451l0.86052,-8.72401l-14.16165,-0.43023z" fill="url(#color-14)"/><path d="M236.97461,19.39764l-4.50848,38.11834l13.65357,-2.0597l1.67523,-30.0076l24.98651,3.73494l-5.66643,32.97365l-11.97835,13.13176l-34.2598,-0.1282l-14.16625,-11.84555l2.44418,-47.26804z" fill="url(#color-15)"/><path d="M312.39637,27.50839l-10.30312,8.63248l-0.26094,17.64478l11.85022,6.05098l11.97834,-4.63661l-1.54703,-3.6068l-13.3927,3.47859l-0.76902,-16.48682l32.58004,-2.44418l1.02982,31.42195l-32.71271,12.23469l-27.43075,-9.7859l-9.79051,-32.45644l15.07254,-23.56762l25.49912,-6.95726l23.69582,8.11521l-8.24341,19.19188z" fill="url(#color-16)"/></g></g></g></svg>