<svg version="1.1" xmlns="http://www.w3.org/2000/svg" xmlns:xlink="http://www.w3.org/1999/xlink" width="479.68769" height="363.48648" viewBox="0,0,479.68769,363.48648"><defs><linearGradient x1="7.70595" y1="40.5076" x2="7.70595" y2="63.04496" gradientUnits="userSpaceOnUse" id="color-1"><stop offset="0" stop-color="#000000"/><stop offset="1" stop-color="#000000"/></linearGradient><linearGradient x1="42.548" y1="9.54903" x2="42.548" y2="20.30019" gradientUnits="userSpaceOnUse" id="color-2"><stop offset="0" stop-color="#000000"/><stop offset="1" stop-color="#000000"/></linearGradient><linearGradient x1="88.31953" y1="24.12684" x2="88.31953" y2="37.95629" gradientUnits="userSpaceOnUse" id="color-3"><stop offset="0" stop-color="#000000"/><stop offset="1" stop-color="#000000"/></linearGradient><linearGradient x1="81.56023" y1="24.35529" x2="81.56023" y2="38.06486" gradientUnits="userSpaceOnUse" id="color-4"><stop offset="0" stop-color="#000000"/><stop offset="1" stop-color="#000000"/></linearGradient><linearGradient x1="67.47794" y1="23.98547" x2="67.47794" y2="38.14119" gradientUnits="userSpaceOnUse" id="color-5"><stop offset="0" stop-color="#000000"/><stop offset="1" stop-color="#000000"/></linearGradient><linearGradient x1="51.42659" y1="24.029" x2="51.42659" y2="38.14119" gradientUnits="userSpaceOnUse" id="color-6"><stop offset="0" stop-color="#000000"/><stop offset="1" stop-color="#000000"/></linearGradient><linearGradient x1="34.13672" y1="23.97417" x2="34.13672" y2="38.14119" gradientUnits="userSpaceOnUse" id="color-7"><stop offset="0" stop-color="#000000"/><stop offset="1" stop-color="#000000"/></linearGradient><linearGradient x1="42.56588" y1="9.42386" x2="42.56588" y2="20.17501" gradientUnits="userSpaceOnUse" id="color-8"><stop offset="0" stop-color="#ffffff"/><stop offset="1" stop-color="#dae0e7"/></linearGradient><linearGradient x1="34.17248" y1="23.83112" x2="34.17248" y2="37.99814" gradientUnits="userSpaceOnUse" id="color-9"><stop offset="0" stop-color="#ff1818"/><stop offset="1" stop-color="#e11515"/></linearGradient><linearGradient x1="51.46235" y1="23.88595" x2="51.46235" y2="37.99814" gradientUnits="userSpaceOnUse" id="color-10"><stop offset="0" stop-color="#1ce11c"/><stop offset="1" stop-color="#1acf1a"/></linearGradient><linearGradient x1="67.51371" y1="23.84243" x2="67.51371" y2="37.99814" gradientUnits="userSpaceOnUse" id="color-11"><stop offset="0" stop-color="#239eff"/><stop offset="1" stop-color="#1e8be1"/></linearGradient><linearGradient x1="81.596" y1="24.21224" x2="81.596" y2="37.92182" gradientUnits="userSpaceOnUse" id="color-12"><stop offset="0" stop-color="#ffe530"/><stop offset="1" stop-color="#ffd628"/></linearGradient><linearGradient x1="88.35529" y1="23.98379" x2="88.35529" y2="37.81325" gradientUnits="userSpaceOnUse" id="color-13"><stop offset="0" stop-color="#a818ff"/><stop offset="1" stop-color="#9404e4"/></linearGradient><linearGradient x1="7.72383" y1="40.47184" x2="7.72383" y2="63.00919" gradientUnits="userSpaceOnUse" id="color-14"><stop offset="0" stop-color="#0160c0"/><stop offset="1" stop-color="#23f4f4"/></linearGradient><linearGradient x1="67.53301" y1="41.27202" x2="67.53301" y2="47.74503" gradientUnits="userSpaceOnUse" id="color-15"><stop offset="0" stop-color="#54a7dc"/><stop offset="1" stop-color="#4fa3da"/></linearGradient><linearGradient x1="23.98414" y1="50.68897" x2="24.95065" y2="57.08942" gradientUnits="userSpaceOnUse" id="color-16"><stop offset="0" stop-color="#6dbee4"/><stop offset="1" stop-color="#9ae6f6"/></linearGradient><linearGradient x1="117.69316" y1="54.86234" x2="116.40444" y2="60.45564" gradientUnits="userSpaceOnUse" id="color-17"><stop offset="0" stop-color="#94e1f4"/><stop offset="1" stop-color="#adf7fd"/></linearGradient><linearGradient x1="91.06652" y1="50.67048" x2="91.42695" y2="56.399" gradientUnits="userSpaceOnUse" id="color-18"><stop offset="0" stop-color="#2fcce7"/><stop offset="1" stop-color="#9be6f6"/></linearGradient><radialGradient cx="36.2725" cy="25.38746" r="5.19935" gradientUnits="userSpaceOnUse" id="color-19"><stop offset="0" stop-color="#ff7c7c"/><stop offset="1" stop-color="#ff7c7c" stop-opacity="0"/></radialGradient><radialGradient cx="100.5668" cy="35.33293" r="6.24753" gradientUnits="userSpaceOnUse" id="color-20"><stop offset="0" stop-color="#da9dff"/><stop offset="1" stop-color="#da9dff" stop-opacity="0"/></radialGradient><radialGradient cx="83.74499" cy="8.96364" r="3.63422" gradientUnits="userSpaceOnUse" id="color-21"><stop offset="0" stop-color="#ffffff"/><stop offset="1" stop-color="#ffffff" stop-opacity="0"/></radialGradient></defs><g transform="translate(-0.79333,3.41019)"><g data-paper-data="{&quot;isPaintingLayer&quot;:true}" fill-rule="nonzero" stroke-linejoin="miter" stroke-miterlimit="10" stroke-dasharray="" stroke-dashoffset="0" style="mix-blend-mode: normal"><text transform="translate(1,87.85714) scale(0.41333,0.41333)" font-size="40" xml:space="preserve" fill="#000000" fill-rule="nonzero" stroke="none" stroke-width="1" stroke-linecap="butt" stroke-linejoin="miter" stroke-miterlimit="10" stroke-dasharray="" stroke-dashoffset="0" font-family="Sans Serif" font-weight="normal" text-anchor="start" style="mix-blend-mode: normal"><tspan x="0" dy="0"> </tspan><tspan x="0" dy="46.150000000000006px"> </tspan><tspan x="0" dy="46.150000000000006px"> </tspan><tspan x="0" dy="46.150000000000006px"> </tspan><tspan x="0" dy="46.150000000000006px"> </tspan><tspan x="0" dy="46.150000000000006px"> </tspan><tspan x="0" dy="46.150000000000006px"> </tspan><tspan x="0" dy="46.150000000000006px"> </tspan><tspan x="0" dy="46.150000000000006px"> </tspan><tspan x="0" dy="46.150000000000006px"> </tspan><tspan x="0" dy="46.150000000000006px"> </tspan><tspan x="0" dy="46.150000000000006px"> </tspan><tspan x="0" dy="46.150000000000006px"> </tspan><tspan x="0" dy="46.150000000000006px">0.7.4 - -CreativeCatTest-</tspan><tspan x="0" dy="46.150000000000006px">0.7.5 -</tspan></text><text transform="translate(235.99675,87.85714) scale(0.41333,0.41333)" font-size="40" xml:space="preserve" fill="#000000" fill-rule="nonzero" stroke="none" stroke-width="1" stroke-linecap="butt" stroke-linejoin="miter" stroke-miterlimit="10" stroke-dasharray="" stroke-dashoffset="0" font-family="Sans Serif" font-weight="normal" text-anchor="start" style="mix-blend-mode: normal"><tspan x="0" dy="0">0.7.6 - ToadfanTest</tspan><tspan x="0" dy="46.150000000000006px">0.7.7 -</tspan><tspan x="0" dy="46.150000000000006px">0.7.8 -</tspan><tspan x="0" dy="46.150000000000006px">0.7.9 -</tspan><tspan x="0" dy="46.150000000000006px">0.8.0 -</tspan><tspan x="0" dy="46.150000000000006px">0.8.1 -</tspan><tspan x="0" dy="46.150000000000006px">0.8.2 -</tspan><tspan x="0" dy="46.150000000000006px">0.8.3 -</tspan><tspan x="0" dy="46.150000000000006px">0.8.4 -</tspan><tspan x="0" dy="46.150000000000006px">0.8.5 -</tspan><tspan x="0" dy="46.150000000000006px">0.8.6 -</tspan><tspan x="0" dy="46.150000000000006px">0.8.7 -</tspan><tspan x="0" dy="46.150000000000006px">0.8.8 -</tspan><tspan x="0" dy="46.150000000000006px">0.8.9 -</tspan><tspan x="0" dy="46.150000000000006px">0.9.0 -</tspan></text><path d="M141.57278,67.13208v-62.5" fill="#ffffff" stroke="#000000" stroke-width="2.5" stroke-linecap="round"/><text transform="translate(145.99999,32.00708) scale(0.81419,0.81419)" font-size="40" xml:space="preserve" fill="#000000" fill-rule="nonzero" stroke="none" stroke-width="1" stroke-linecap="butt" stroke-linejoin="miter" stroke-miterlimit="10" stroke-dasharray="" stroke-dashoffset="0" font-family="Sans Serif" font-weight="normal" text-anchor="start" style="mix-blend-mode: normal"><tspan x="0" dy="0">Dibs List</tspan></text><text transform="translate(148.99999,49.50708) scale(0.42416,0.42416)" font-size="40" xml:space="preserve" fill="#000000" fill-rule="nonzero" stroke="none" stroke-width="1" stroke-linecap="butt" stroke-linejoin="miter" stroke-miterlimit="10" stroke-dasharray="" stroke-dashoffset="0" font-family="Sans Serif" font-weight="normal" text-anchor="start" style="mix-blend-mode: normal"><tspan x="0" dy="0">You must be a team member to call dibs.</tspan></text><text transform="translate(150.40551,65.85438) scale(0.30573,0.32548)" font-size="40" xml:space="preserve" fill="#000000" fill-rule="nonzero" stroke="none" stroke-width="1" stroke-linecap="butt" stroke-linejoin="miter" stroke-miterlimit="10" stroke-dasharray="" stroke-dashoffset="0" font-family="Sans Serif" font-weight="normal" text-anchor="start" style="mix-blend-mode: normal"><tspan x="0" dy="0">Sub-versions (e.g. 0.1.0.5) will not be added to this list.</tspan></text><g stroke-width="2.5"><g stroke-linecap="butt"><path d="M62.6119,41.47601c0.00157,0.06083 1.61627,4.67432 4.8556,13.82813c-0.31635,0.12957 -2.11987,0.40551 -5.43395,0.83934c-0.24368,-0.78584 -0.53379,-2.00944 -0.85797,-3.67001c-2.83121,0.33652 -4.24418,0.6022 -4.2392,0.80915l-0.70033,2.83096l-0.08261,0.00207c-3.36128,-0.55159 -5.04993,-0.88865 -5.05308,-1.0224c2.46294,-8.67145 3.88298,-13.52913 4.24782,-14.58565c4.39055,0.53901 6.81179,0.86977 7.26371,0.9684zM72.63047,40.72032c0.06058,1.54782 0.14505,5.02136 0.25416,10.40967h0.07267l7.23038,-2.40708c0,0.05718 0.02414,0.07975 0.08472,0.07975l-0.24236,5.75577c0,0.10307 -3.7542,0.4354 -11.25108,1.00853c-0.16944,-0.80236 -0.96919,-5.57167 -2.38608,-14.30763c0.64182,-0.10332 2.68902,-0.30949 6.16467,-0.61901c0,0.05747 0.02439,0.08 0.07292,0.08zM93.52372,42.78222c-0.00551,0.06058 1.08356,4.82778 3.27921,14.29004c-0.32998,0.09284 -2.15946,0.16207 -5.51341,0.21768c-0.15424,-0.80837 -0.3053,-2.05636 -0.44091,-3.74343c-2.86165,0.01388 -4.30082,0.11776 -4.3192,0.32393l-1.01847,2.73362l-0.08236,-0.00683c-3.28997,-0.92878 -4.9356,-1.45466 -4.9238,-1.5882c3.43631,-8.33622 5.4009,-13.00242 5.8843,-14.01095v-0.0005c4.31738,1.03263 6.69506,1.6354 7.13465,1.78464zM49.80725,45.22445l0.00576,0.07056c-0.40551,2.72389 -0.69951,4.28219 -0.85979,4.68455l-2.25441,1.61888c2.97362,1.90111 4.47498,2.8918 4.50384,2.97233c-0.95867,0.5836 -2.42675,1.43209 -4.42753,2.54712c-2.67408,-3.24745 -4.01362,-4.9007 -4.02016,-4.98281l-0.13457,0.01076c0.10282,2.01076 0.19043,3.39672 0.24998,4.14765c-0.00576,0.35462 -0.05954,0.53611 -0.17155,0.54505l-3.37755,0.26754c-0.1571,0.01234 -0.56601,-2.15109 -1.23723,-6.48993c-0.22112,-0.93876 -0.62058,-3.12654 -1.17536,-6.56549c0.84828,-0.26779 3.44654,-0.96994 7.79249,-2.12903c0.18335,0.17441 1.88563,1.27921 5.10608,3.30281zM105.18193,47.962c1.59317,-2.20667 2.67801,-3.64484 3.2561,-4.32786l0.08054,0.01287c2.42832,2.0658 3.74082,3.15118 3.93701,3.25664l-0.02099,0.14451c-0.80654,0.72 -2.28377,1.94753 -4.42016,3.68496c3.42451,1.99184 5.33349,3.17374 5.73978,3.53466l-3.99448,3.82794c-1.99317,-2.40211 -3.26687,-3.92471 -3.82426,-4.54401c-1.98608,2.90703 -3.20153,4.60773 -3.66082,5.11266l-0.08025,-0.01287c-2.70741,-1.50712 -4.16732,-2.38269 -4.39055,-2.62791l0.0118,-0.08422l4.71738,-4.78265c-3.43502,-2.16604 -5.26425,-3.40902 -5.48877,-3.72852c2.027,-2.61714 3.15068,-4.00049 3.38463,-4.15971c0.01101,0.08787 1.59578,1.64853 4.75303,4.69349zM35.44114,44.95741c-0.84195,2.49469 -1.26398,3.78517 -1.25217,3.88169l-0.0711,0.00865c-0.52903,-0.08261 -1.69623,-0.45532 -3.52468,-1.10348c-0.86112,0.78795 -1.72223,1.57586 -2.58335,2.3638c0.30505,2.50202 0.59934,3.72956 0.87292,3.69623c0.1899,0.07478 1.43789,0.41337 3.73138,1.01693c0.74099,-0.94923 1.48459,-1.87383 2.25677,-2.76538c0.17209,0.12617 1.02559,1.18766 2.54952,3.19763l0.02675,0.21772c-0.08315,0.01023 -1.71329,1.18973 -4.90252,3.52915c-4.55631,-0.95317 -6.90019,-1.47672 -7.03079,-1.5588l-2.99908,-6.88417c1.64513,-3.13233 2.49155,-4.69585 2.5272,-4.69978c0.08315,-0.01023 1.6952,-0.84459 4.81258,-2.48811c3.71354,0.96994 5.5761,1.50347 5.58658,1.58791zM122.24755,51.10796l5.046,-3.12732l3.51685,4.60587l-8.17254,4.16861l-1.312,5.67316l-6.43171,-2.35354l2.93374,-5.77469l-2.91068,-8.48231l6.48496,-0.94162zM58.28354,45.44267c-0.1036,0.59934 -0.25337,1.73586 -0.43698,3.43341l2.56575,-0.06269l-1.03946,-3.83602c-0.73312,0.01781 -1.09614,0.17309 -1.08931,0.4653zM41.87181,45.54548c0.03802,0.48104 0.19515,2.18099 0.48368,5.10976l0.06766,-0.00526c1.79383,-0.59068 2.67855,-0.96787 2.66646,-1.12025l0.40157,-3.05444l-3.62488,-0.99934zM88.75943,46.23348c-0.17126,0.58389 -0.44932,1.69598 -0.82439,3.36182l2.56575,0.22845l-0.60298,-3.9289c-0.0918,-0.00812 -0.17759,-0.01284 -0.25838,-0.01574c-0.07027,-0.00236 -0.13665,-0.00261 -0.19855,-0.0005c-0.43437,0.01388 -0.66149,0.13218 -0.68145,0.35487zM19.97789,47.3073c0.03959,0.12799 -0.20538,1.42687 -0.73101,3.90844l-0.08236,0.02546c-0.09445,0.02911 -1.64381,-0.18074 -4.65258,-0.64132l-0.79056,2.16811c2.58231,0.37536 5.74976,0.88919 9.48193,1.55987c-0.66832,3.0224 -1.18215,5.04128 -1.53312,6.07995l-6.48152,2.63713c-3.66662,-1.08592 -5.59369,-1.63805 -5.79196,-1.65325l-0.02518,-0.08132c-0.0682,-0.22112 0.24025,-1.39934 0.92878,-3.56141l0.15317,-0.04724c0.57312,0.14165 2.36066,0.49445 5.3508,1.06256l1.01797,-2.2253c-5.46019,-0.91487 -8.49071,-1.4455 -9.09481,-1.60314l-0.02149,-0.06952c0.60695,-3.34766 0.97992,-5.06856 1.09901,-5.14356c3.6619,-1.98372 5.7209,-3.05233 6.15709,-3.18687c3.26426,0.53454 4.93349,0.79685 5.01585,0.77139z" fill="#3bb2ff" stroke="url(#color-1)"/><path d="M52.31556,11.05329c0,0.09076 -0.42257,0.88368 -1.26741,2.38766h-0.05901c-0.06766,0 -1.03921,-0.44588 -2.91486,-1.34687l-0.95503,1.24799c1.61391,0.76037 3.58268,1.7272 5.88927,2.90885c-1.04758,1.82634 -1.79118,3.03288 -2.23052,3.63615l-4.77403,0.41312c-2.17992,-1.43789 -3.32927,-2.18149 -3.45598,-2.23105v-0.05797c0,-0.15714 0.43962,-0.85954 1.32695,-2.12405h0.10965c0.34646,0.20667 1.44497,0.79342 3.28679,1.76025l1.11528,-1.23909c-3.38832,-1.686 -5.26372,-2.63656 -5.62699,-2.85979v-0.04957c1.07304,-2.04956 1.66426,-3.0906 1.7571,-3.11527c2.79685,-0.5537 4.36012,-0.83462 4.67278,-0.83462c2.02778,1.00012 3.06671,1.50426 3.126,1.50426zM74.27243,12.21001c-0.507,2.2641 -0.82804,3.39643 -0.96315,3.39643c-0.02543,0 -0.70108,0.55345 -2.02778,1.66898c-0.81967,-0.0412 -1.766,-0.09051 -2.82227,-0.1566l-0.10965,2.97469c-0.22791,0.06609 -1.22517,0.13218 -2.99118,0.20667c-0.21118,0 -0.32107,-0.59515 -0.32107,-1.77677c-0.3887,-4.90045 -0.58307,-7.54488 -0.58307,-7.93336c0.65888,-0.14058 2.70372,-0.48733 6.13427,-1.04103zM84.52421,10.63151l-0.8113,2.9007c-2.63631,-0.68588 -4.05585,-1.06596 -4.24993,-1.14045c0,0.0496 -0.28749,0.6778 -0.87056,1.87619h0.05954c1.17428,-0.07446 2.45875,-0.18228 3.83606,-0.33913l0.05876,0.11569c-0.22795,1.28075 -0.40526,2.14844 -0.52356,2.61113l-3.25296,-0.45432c0.03383,0.62795 0.0506,1.09929 0.0506,1.42165v0.28878l0.05904,0.11569c0.71814,-0.07424 2.17992,-0.18965 4.36823,-0.34679c0.07607,0.33888 0.21139,1.19792 0.40576,2.56157c-0.04224,0 -0.05901,0.01652 -0.05901,0.05797c-5.11184,-0.26464 -7.70595,-0.43801 -7.79038,-0.51251l-1.22546,-3.41271c0.92956,-4.23945 1.45366,-6.51199 1.57192,-6.82595c5.58504,0.64472 8.37323,1.00828 8.37323,1.08248zM94.18473,12.14389v0.0496c-0.46476,1.88431 -0.77768,2.95838 -0.92116,3.23118l-1.78281,1.00799c2.11225,1.49586 3.17664,2.27279 3.19366,2.33051c-0.75197,0.3554 -1.90108,0.86766 -3.4641,1.53702c-1.80824,-2.42149 -2.71213,-3.65271 -2.71213,-3.71068h-0.10149c-0.04224,1.41325 -0.05929,2.38873 -0.05929,2.91751c-0.02543,0.24787 -0.07607,0.37193 -0.1605,0.37193h-2.54297c-0.11827,0 -0.29586,-1.53756 -0.54108,-4.61163c-0.10965,-0.6694 -0.27884,-2.22297 -0.49023,-4.6607c0.65073,-0.14062 2.63631,-0.48737 5.95693,-1.05759c0.12671,0.13221 1.33536,0.99987 3.62517,2.59486zM58.19042,9.84621l-0.52352,6.15684l2.35694,0.31396l0.69325,-5.44575l3.53179,0.76853l-0.76037,5.63564l-2.61113,3.00012l-5.16222,-0.89259l-2.01967,-2.18177l0.37193,-7.47904zM88.22777,11.92881c0,0.33863 0.01652,1.53731 0.05876,3.60339h0.05089c1.37706,-0.31396 2.0619,-0.52878 2.0619,-0.63632l0.48157,-2.11565l-2.65312,-0.90074zM68.29897,15.34205c1.38567,-0.23946 2.07839,-0.38033 2.07839,-0.42153l0.48157,-2.03275c-0.68431,-0.27279 -1.53756,-0.60356 -2.55996,-0.99175z" fill="#ececec" stroke="url(#color-2)"/><g><path d="M93.50742,24.12684c3.25221,0.94662 4.98885,1.51267 5.18794,1.71933c1.79197,2.73101 2.79867,4.30819 3.02004,4.72181c-1.16145,3.96065 -1.8253,5.94094 -1.99134,5.94094c-3.86045,0.9684 -5.88508,1.44736 -6.06186,1.44736c-3.19685,-2.00211 -4.88918,-3.12314 -5.09953,-3.35159c-0.11068,-3.73221 -0.16601,-5.78856 -0.16601,-6.18019c-0.05511,-0.10886 -0.07714,-0.19565 -0.07714,-0.24994c3.29627,-2.6985 4.99986,-4.04773 5.11055,-4.04773zM93.18665,29.20824c-0.05532,0.33734 -0.12195,1.5667 -0.23263,3.68865l2.84327,0.63109c0.68588,-2.11097 1.01743,-3.24273 1.01743,-3.38438c-2.25652,-0.67437 -3.46202,-1.01167 -3.62807,-1.01167z" fill="#9404e4" stroke="url(#color-3)"/><path d="M87.11299,25.31293l-1.98004,12.75195l-3.57271,-0.31503l0.79603,-13.39455z" fill="#fbc211" stroke="url(#color-4)"/><path d="M80.02186,27.40183v0.06505c-0.60853,2.48103 -1.01797,3.8956 -1.20601,4.25469l-2.33391,1.32745c2.76538,1.96931 4.1592,2.9925 4.18123,3.06857c-0.98439,0.46795 -2.4889,1.14231 -4.53531,2.0236c-2.3672,-3.18816 -3.55068,-4.80915 -3.55068,-4.88521h-0.13271c-0.05536,1.86045 -0.07739,3.14413 -0.07739,3.84049c-0.03304,0.32658 -0.09942,0.48973 -0.2101,0.48973h-3.32981c-0.15474,0 -0.38716,-2.02389 -0.70795,-6.07158c-0.14373,-0.88132 -0.36485,-2.92695 -0.64129,-6.13663c0.85167,-0.18518 3.45126,-0.64182 7.7985,-1.39251c0.16604,0.17416 1.74766,1.31644 4.74542,3.41635zM72.22306,27.11909c0,0.44617 0.02232,2.0236 0.07739,4.74384h0.06662c1.80302,-0.41337 2.69925,-0.69665 2.69925,-0.83801l0.63031,-2.7853l-3.47357,-1.18612z" fill="#0492d0" stroke="url(#color-5)"/><path d="M62.49933,25.05143c0,0.05454 1.40459,4.21085 4.22529,12.45841c-0.29847,0.10886 -1.99081,0.31582 -5.09925,0.63134c-0.2101,-0.70741 -0.45325,-1.80588 -0.71868,-3.29677c-2.65494,0.23946 -3.98215,0.44563 -3.98215,0.63081l-0.71921,2.51383h-0.07739c-3.13047,-0.56576 -4.70136,-0.90332 -4.70136,-1.02319c2.49995,-7.69257 3.93837,-12.00101 4.30347,-12.93687c4.09258,0.57681 6.3491,0.92459 6.76927,1.02244zM58.36269,28.50087c-0.11068,0.53321 -0.27669,1.54489 -0.48679,3.05727h2.40025l-0.88472,-3.44915c-0.68588,0 -1.02873,0.13064 -1.02873,0.39188z" fill="#10d004" stroke="url(#color-6)"/><path d="M42.20068,24.36605c0.80762,2.12169 1.29391,3.48223 1.47093,4.06976h0.06662c0.18807,-0.40265 0.92906,-1.52343 2.20119,-3.35159h0.06609c2.00236,0.11984 2.99801,0.26124 2.99801,0.40286l1.80327,12.1319c0,0.07632 -1.58215,0.25023 -4.73465,0.5222l-0.06662,-0.1306c-0.17677,-3.68865 -0.26518,-5.94069 -0.26518,-6.75671h-0.06609l-2.73258,2.36066h-0.06612c-0.08865,-0.04352 -0.70791,-1.00091 -1.86936,-2.88314h-0.06662c-1.42687,4.08024 -2.20141,6.24549 -2.33416,6.49572h-0.13243c-2.54426,-1.13155 -3.99316,-1.80617 -4.33626,-2.03461v-0.0653c3.15279,-7.30098 4.80078,-11.01162 4.93349,-11.15302c2.09072,0.1414 3.13047,0.27229 3.13047,0.39188z" fill="#e10404" stroke="url(#color-7)"/></g><g stroke="none"><g><path d="M52.33345,10.92812c0,0.09076 -0.42257,0.88368 -1.26741,2.38766h-0.05901c-0.06766,0 -1.03921,-0.44588 -2.91486,-1.34687l-0.95503,1.24799c1.61391,0.76037 3.58268,1.7272 5.88927,2.90885c-1.04758,1.82634 -1.79118,3.03288 -2.23052,3.63615l-4.77403,0.41312c-2.17992,-1.43789 -3.32927,-2.18149 -3.45598,-2.23105v-0.05797c0,-0.15714 0.43962,-0.85954 1.32695,-2.12405h0.10965c0.34646,0.20667 1.44497,0.79342 3.28679,1.76025l1.11528,-1.23909c-3.38832,-1.686 -5.26372,-2.63656 -5.62699,-2.85979v-0.04957c1.07304,-2.04956 1.66426,-3.0906 1.7571,-3.11527c2.79685,-0.5537 4.36012,-0.83462 4.67278,-0.83462c2.02778,1.00012 3.06671,1.50426 3.126,1.50426zM74.29031,12.08485c-0.507,2.2641 -0.82804,3.39643 -0.96315,3.39643c-0.02543,0 -0.70108,0.55345 -2.02778,1.66898c-0.81967,-0.0412 -1.766,-0.09051 -2.82227,-0.1566l-0.10965,2.97469c-0.22791,0.06609 -1.22517,0.13218 -2.99118,0.20667c-0.21118,0 -0.32107,-0.59515 -0.32107,-1.77677c-0.3887,-4.90045 -0.58307,-7.54488 -0.58307,-7.93336c0.65888,-0.14058 2.70372,-0.48733 6.13427,-1.04103zM84.54209,10.50634l-0.8113,2.9007c-2.63631,-0.68588 -4.05585,-1.06596 -4.24993,-1.14045c0,0.0496 -0.28749,0.6778 -0.87056,1.87619h0.05954c1.17428,-0.07446 2.45875,-0.18228 3.83606,-0.33913l0.05876,0.11569c-0.22795,1.28075 -0.40526,2.14844 -0.52356,2.61113l-3.25296,-0.45432c0.03383,0.62795 0.0506,1.09929 0.0506,1.42165v0.28878l0.05904,0.11569c0.71814,-0.07424 2.17992,-0.18965 4.36823,-0.34679c0.07607,0.33888 0.21139,1.19792 0.40576,2.56157c-0.04224,0 -0.05901,0.01652 -0.05901,0.05797c-5.11184,-0.26464 -7.70595,-0.43801 -7.79038,-0.51251l-1.22546,-3.41271c0.92956,-4.23945 1.45366,-6.51199 1.57192,-6.82595c5.58504,0.64472 8.37323,1.00828 8.37323,1.08248zM94.20261,12.01871v0.0496c-0.46476,1.88431 -0.77768,2.95838 -0.92116,3.23118l-1.78281,1.00799c2.11225,1.49586 3.17664,2.27279 3.19366,2.33051c-0.75197,0.3554 -1.90108,0.86766 -3.4641,1.53702c-1.80824,-2.42149 -2.71213,-3.65271 -2.71213,-3.71068h-0.10149c-0.04224,1.41325 -0.05929,2.38873 -0.05929,2.91751c-0.02543,0.24787 -0.07607,0.37193 -0.1605,0.37193h-2.54297c-0.11827,0 -0.29586,-1.53756 -0.54108,-4.61163c-0.10965,-0.6694 -0.27884,-2.22297 -0.49023,-4.6607c0.65073,-0.14062 2.63631,-0.48737 5.95693,-1.05759c0.12671,0.13221 1.33536,0.99987 3.62517,2.59486zM58.2083,9.72104l-0.52352,6.15684l2.35694,0.31396l0.69325,-5.44575l3.53179,0.76853l-0.76037,5.63564l-2.61113,3.00012l-5.16222,-0.89259l-2.01967,-2.18177l0.37193,-7.47904zM88.24565,11.80365c0,0.33863 0.01652,1.53731 0.05876,3.60339h0.05089c1.37706,-0.31396 2.0619,-0.52878 2.0619,-0.63632l0.48157,-2.11565l-2.65312,-0.90074zM68.31685,15.21689c1.38567,-0.23946 2.07839,-0.38033 2.07839,-0.42153l0.48157,-2.03275c-0.68431,-0.27279 -1.53756,-0.60356 -2.55996,-0.99175z" fill="url(#color-8)"/><path d="M42.23644,24.22301c0.80762,2.12169 1.29391,3.48223 1.47093,4.06976h0.06662c0.18807,-0.40265 0.92906,-1.52343 2.20119,-3.35159h0.06609c2.00236,0.11984 2.99801,0.26124 2.99801,0.40286l1.80327,12.1319c0,0.07632 -1.58215,0.25023 -4.73465,0.5222l-0.06662,-0.1306c-0.17677,-3.68865 -0.26518,-5.94069 -0.26518,-6.75671h-0.06609l-2.73258,2.36066h-0.06612c-0.08865,-0.04352 -0.70791,-1.00091 -1.86936,-2.88314h-0.06662c-1.42687,4.08024 -2.20141,6.24549 -2.33416,6.49572h-0.13243c-2.54426,-1.13155 -3.99316,-1.80617 -4.33626,-2.03461v-0.0653c3.15279,-7.30098 4.80078,-11.01162 4.93349,-11.15302c2.09072,0.1414 3.13047,0.27229 3.13047,0.39188z" fill="url(#color-9)"/><path d="M62.53509,24.90839c0,0.05454 1.40459,4.21085 4.22529,12.45841c-0.29847,0.10886 -1.99081,0.31582 -5.09925,0.63134c-0.2101,-0.70741 -0.45325,-1.80588 -0.71868,-3.29677c-2.65494,0.23946 -3.98215,0.44563 -3.98215,0.63081l-0.71921,2.51383h-0.07739c-3.13047,-0.56576 -4.70136,-0.90332 -4.70136,-1.02319c2.49995,-7.69257 3.93837,-12.00101 4.30347,-12.93687c4.09258,0.57681 6.3491,0.92459 6.76927,1.02244zM58.39845,28.35782c-0.11068,0.53321 -0.27669,1.54489 -0.48679,3.05727h2.40025l-0.88472,-3.44915c-0.68588,0 -1.02873,0.13064 -1.02873,0.39188z" fill="url(#color-10)"/><path d="M80.05763,27.25878v0.06505c-0.60853,2.48103 -1.01797,3.8956 -1.20601,4.25469l-2.33391,1.32745c2.76538,1.96931 4.1592,2.9925 4.18123,3.06857c-0.98439,0.46795 -2.4889,1.14231 -4.53531,2.0236c-2.3672,-3.18816 -3.55068,-4.80915 -3.55068,-4.88521h-0.13271c-0.05536,1.86045 -0.07739,3.14413 -0.07739,3.84049c-0.03304,0.32658 -0.09942,0.48973 -0.2101,0.48973h-3.32981c-0.15474,0 -0.38716,-2.02389 -0.70795,-6.07158c-0.14373,-0.88132 -0.36485,-2.92695 -0.64129,-6.13663c0.85167,-0.18518 3.45126,-0.64182 7.7985,-1.39251c0.16604,0.17416 1.74766,1.31644 4.74542,3.41635zM72.25883,26.97604c0,0.44617 0.02232,2.0236 0.07739,4.74384h0.06662c1.80302,-0.41337 2.69925,-0.69665 2.69925,-0.83801l0.63031,-2.7853l-3.47357,-1.18612z" fill="url(#color-11)"/><path d="M87.14875,25.16988l-1.98004,12.75195l-3.57271,-0.31503l0.79603,-13.39455z" fill="url(#color-12)"/><path d="M93.5432,23.98379c3.25221,0.94662 4.98885,1.51267 5.18794,1.71933c1.79197,2.73101 2.79867,4.30819 3.02004,4.72181c-1.16145,3.96065 -1.8253,5.94094 -1.99134,5.94094c-3.86045,0.9684 -5.88508,1.44736 -6.06186,1.44736c-3.19685,-2.00211 -4.88918,-3.12314 -5.09953,-3.35159c-0.11068,-3.73221 -0.16601,-5.78856 -0.16601,-6.18019c-0.05511,-0.10886 -0.07714,-0.19565 -0.07714,-0.24994c3.29627,-2.6985 4.99986,-4.04773 5.11055,-4.04773zM93.22241,29.0652c-0.05532,0.33734 -0.12195,1.5667 -0.23263,3.68865l2.84327,0.63109c0.68588,-2.11097 1.01743,-3.24273 1.01743,-3.38438c-2.25652,-0.67437 -3.46202,-1.01167 -3.62807,-1.01167z" fill="url(#color-13)"/><path d="M62.62979,41.44024c0.00157,0.06083 1.61627,4.67432 4.8556,13.82813c-0.31635,0.12957 -2.11987,0.40551 -5.43395,0.83934c-0.24368,-0.78584 -0.53379,-2.00944 -0.85797,-3.67001c-2.83121,0.33652 -4.24418,0.6022 -4.2392,0.80915l-0.70033,2.83096l-0.08261,0.00207c-3.36128,-0.55159 -5.04993,-0.88865 -5.05308,-1.0224c2.46294,-8.67145 3.88298,-13.52913 4.24782,-14.58565c4.39055,0.53901 6.81179,0.86977 7.26371,0.9684zM72.64834,40.68455c0.06058,1.54782 0.14505,5.02136 0.25416,10.40967h0.07267l7.23038,-2.40708c0,0.05718 0.02414,0.07975 0.08472,0.07975l-0.24236,5.75577c0,0.10307 -3.7542,0.4354 -11.25108,1.00853c-0.16944,-0.80236 -0.96919,-5.57167 -2.38608,-14.30763c0.64182,-0.10332 2.68902,-0.30949 6.16467,-0.61901c0,0.05747 0.02439,0.08 0.07292,0.08zM93.54162,42.74645c-0.00551,0.06058 1.08356,4.82778 3.27921,14.29004c-0.32998,0.09284 -2.15946,0.16207 -5.51341,0.21768c-0.15424,-0.80837 -0.3053,-2.05636 -0.44091,-3.74343c-2.86165,0.01388 -4.30082,0.11776 -4.3192,0.32393l-1.01847,2.73362l-0.08236,-0.00683c-3.28997,-0.92878 -4.9356,-1.45466 -4.9238,-1.5882c3.43631,-8.33622 5.4009,-13.00242 5.8843,-14.01095v-0.0005c4.31738,1.03263 6.69506,1.6354 7.13465,1.78464zM49.82513,45.18869l0.00576,0.07056c-0.40551,2.72389 -0.69951,4.28219 -0.85979,4.68455l-2.25441,1.61888c2.97362,1.90111 4.47498,2.8918 4.50384,2.97233c-0.95867,0.5836 -2.42675,1.43209 -4.42753,2.54712c-2.67408,-3.24745 -4.01362,-4.9007 -4.02016,-4.98281l-0.13457,0.01076c0.10282,2.01076 0.19043,3.39672 0.24998,4.14765c-0.00576,0.35462 -0.05954,0.53611 -0.17155,0.54505l-3.37755,0.26754c-0.1571,0.01234 -0.56601,-2.15109 -1.23723,-6.48993c-0.22112,-0.93876 -0.62058,-3.12654 -1.17536,-6.56549c0.84828,-0.26779 3.44654,-0.96994 7.79249,-2.12903c0.18335,0.17441 1.88563,1.27921 5.10608,3.30281zM105.19982,47.92624c1.59317,-2.20667 2.67801,-3.64484 3.2561,-4.32786l0.08054,0.01287c2.42832,2.0658 3.74082,3.15118 3.93701,3.25664l-0.02099,0.14451c-0.80654,0.72 -2.28377,1.94753 -4.42016,3.68496c3.42451,1.99184 5.33349,3.17374 5.73978,3.53466l-3.99448,3.82794c-1.99317,-2.40211 -3.26687,-3.92471 -3.82426,-4.54401c-1.98608,2.90703 -3.20153,4.60773 -3.66082,5.11266l-0.08025,-0.01287c-2.70741,-1.50712 -4.16732,-2.38269 -4.39055,-2.62791l0.0118,-0.08422l4.71738,-4.78265c-3.43502,-2.16604 -5.26425,-3.40902 -5.48877,-3.72852c2.027,-2.61714 3.15068,-4.00049 3.38463,-4.15971c0.01101,0.08787 1.59578,1.64853 4.75303,4.69349zM35.45901,44.92165c-0.84195,2.49469 -1.26398,3.78517 -1.25217,3.88169l-0.0711,0.00865c-0.52903,-0.08261 -1.69623,-0.45532 -3.52468,-1.10348c-0.86112,0.78795 -1.72223,1.57586 -2.58335,2.3638c0.30505,2.50202 0.59934,3.72956 0.87292,3.69623c0.1899,0.07478 1.43789,0.41337 3.73138,1.01693c0.74099,-0.94923 1.48459,-1.87383 2.25677,-2.76538c0.17209,0.12617 1.02559,1.18766 2.54952,3.19763l0.02675,0.21772c-0.08315,0.01023 -1.71329,1.18973 -4.90252,3.52915c-4.55631,-0.95317 -6.90019,-1.47672 -7.03079,-1.5588l-2.99908,-6.88417c1.64513,-3.13233 2.49155,-4.69585 2.5272,-4.69978c0.08315,-0.01023 1.6952,-0.84459 4.81258,-2.48811c3.71354,0.96994 5.5761,1.50347 5.58658,1.58791zM122.26542,51.0722l5.046,-3.12732l3.51685,4.60587l-8.17254,4.16861l-1.312,5.67316l-6.43171,-2.35354l2.93374,-5.77469l-2.91068,-8.48231l6.48496,-0.94162zM58.30143,45.40691c-0.1036,0.59934 -0.25337,1.73586 -0.43698,3.43341l2.56575,-0.06269l-1.03946,-3.83602c-0.73312,0.01781 -1.09614,0.17309 -1.08931,0.4653zM41.88969,45.50972c0.03802,0.48104 0.19515,2.18099 0.48368,5.10976l0.06766,-0.00526c1.79383,-0.59068 2.67855,-0.96787 2.66646,-1.12025l0.40157,-3.05444l-3.62488,-0.99934zM88.7773,46.19771c-0.17126,0.58389 -0.44932,1.69598 -0.82439,3.36182l2.56575,0.22845l-0.60298,-3.9289c-0.0918,-0.00812 -0.17759,-0.01284 -0.25838,-0.01574c-0.07027,-0.00236 -0.13665,-0.00261 -0.19855,-0.0005c-0.43437,0.01388 -0.66149,0.13218 -0.68145,0.35487zM19.99575,47.27154c0.03959,0.12799 -0.20538,1.42687 -0.73101,3.90844l-0.08236,0.02546c-0.09445,0.02911 -1.64381,-0.18074 -4.65258,-0.64132l-0.79056,2.16811c2.58231,0.37536 5.74976,0.88919 9.48193,1.55987c-0.66832,3.0224 -1.18215,5.04128 -1.53312,6.07995l-6.48152,2.63713c-3.66662,-1.08592 -5.59369,-1.63805 -5.79196,-1.65325l-0.02518,-0.08132c-0.0682,-0.22112 0.24025,-1.39934 0.92878,-3.56141l0.15317,-0.04724c0.57312,0.14165 2.36066,0.49445 5.3508,1.06256l1.01797,-2.2253c-5.46019,-0.91487 -8.49071,-1.4455 -9.09481,-1.60314l-0.02149,-0.06952c0.60695,-3.34766 0.97992,-5.06856 1.09901,-5.14356c3.6619,-1.98372 5.7209,-3.05233 6.15709,-3.18687c3.26426,0.53454 4.93349,0.79685 5.01585,0.77139z" fill="url(#color-14)"/></g></g></g><path d="M56.42971,42.18757l-0.10729,-0.10729" fill="none" stroke="#4fa3da" stroke-linecap="round"/><path d="M61.70462,44.24389l-0.10729,-0.10729" fill="none" stroke="#4fa3da" stroke-linecap="round"/><path d="M56.07209,45.49556l-0.10729,-0.10729" fill="none" stroke="#4fa3da" stroke-linecap="round"/><path d="M56.76945,48.33865l0.10729,0.10729" fill="none" stroke="#54a7dc" stroke-linecap="round"/><path d="M54.08729,49.85854l0.10729,0.10729" fill="none" stroke="#72c2e7" stroke-linecap="round"/><path d="M54.98134,53.07713l0.10729,0.10729" fill="none" stroke="#88d6f0" stroke-linecap="round"/><path d="M52.58529,54.34669l-0.10729,-0.10729" fill="none" stroke="#94e1f4" stroke-linecap="round"/><path d="M58.82577,50.48437l0.10729,0.10729" fill="none" stroke="#72c2e7" stroke-linecap="round"/><path d="M61.77614,46.90816l0.10729,0.10729" fill="none" stroke="#54a7dc" stroke-linecap="round"/><path d="M63.92187,49.67973l0.10729,0.10729" fill="none" stroke="#72c2e7" stroke-linecap="round"/><path d="M61.86555,51.73605l0.10729,0.10729" fill="none" stroke="#88d6f0" stroke-linecap="round"/><path d="M63.58213,54.70431l-0.10729,-0.10729" fill="none" stroke="#94e1f4" stroke-linecap="round"/><path d="M65.19141,53.18441l-0.10729,-0.10729" fill="none" stroke="#94e1f4" stroke-linecap="round"/><path d="M63.38544,52.98772l0.10729,0.10729" fill="none" stroke="#88d6f0" stroke-linecap="round"/><path d="M55.98269,54.43609l-0.10729,-0.10729" fill="none" stroke="#94e1f4" stroke-linecap="round"/><path d="M46.93487,55.13345l0.10729,0.10729" fill="none" stroke="#94e1f4" stroke-linecap="round"/><path d="M48.90178,54.4182l0.10729,0.10729" fill="none" stroke="#94e1f4" stroke-linecap="round"/><path d="M46.0587,53.54203l-0.10729,-0.10729" fill="none" stroke="#88d6f0" stroke-linecap="round"/><path d="M44.16331,52.45129l0.10729,0.10729" fill="none" stroke="#88d6f0" stroke-linecap="round"/><path d="M46.41632,50.68107l-0.10729,-0.10729" fill="none" stroke="#72c2e7" stroke-linecap="round"/><path d="M40.87319,52.02215l-0.10729,-0.10729" fill="none" stroke="#88d6f0" stroke-linecap="round"/><path d="M39.62152,53.81025l-0.10729,-0.10729" fill="none" stroke="#88d6f0" stroke-linecap="round"/><path d="M41.67784,55.06192l-0.10729,-0.10729" fill="none" stroke="#94e1f4" stroke-linecap="round"/><path d="M40.06854,55.86657l-0.10729,-0.10729" fill="none" stroke="#94e1f4" stroke-linecap="round"/><path d="M30.59158,55.33014l-0.10729,-0.10729" fill="none" stroke="#8ad8f0" stroke-linecap="round"/><path d="M29.59025,56.65334l0.10729,0.10729" fill="none" stroke="#9ae6f6" stroke-linecap="round"/><path d="M33.36315,55.33014l-0.10729,-0.10729" fill="none" stroke="#8ad8f0" stroke-linecap="round"/><path d="M36.31353,54.79371l-0.10729,-0.10729" fill="none" stroke="#8ad8f0" stroke-linecap="round"/><path d="M34.70422,55.95598l-0.10729,-0.10729" fill="none" stroke="#9ae6f6" stroke-linecap="round"/><path d="M33.16645,57.01096l0.10729,0.10729" fill="none" stroke="#9ae6f6" stroke-linecap="round"/><path d="M14.83838,55.31226l0.10729,0.10729" fill="none" stroke="#7ccbeb" stroke-linecap="round"/><path d="M18.68278,54.59701l0.10729,0.10729" fill="none" stroke="#8ad8f0" stroke-linecap="round"/><path d="M17.0735,55.75928l0.10729,0.10729" fill="none" stroke="#8ad8f0" stroke-linecap="round"/><path d="M18.87948,56.85003l-0.10729,-0.10729" fill="none" stroke="#93e0f4" stroke-linecap="round"/><path d="M17.43113,58.17322l0.10729,0.10729" fill="none" stroke="#9ae6f6" stroke-linecap="round"/><path d="M19.0404,59.5143l0.10729,0.10729" fill="none" stroke="#b0faff" stroke-linecap="round"/><path d="M16.91258,60.42624l-0.10729,-0.10729" fill="none" stroke="#b0faff" stroke-linecap="round"/><path d="M14.76686,60.15803l-0.10729,-0.10729" fill="none" stroke="#b0faff" stroke-linecap="round"/><path d="M14.57016,61.66003l0.10729,0.10729" fill="none" stroke="#b0faff" stroke-linecap="round"/><path d="M20.48879,58.81695l-0.10729,-0.10729" fill="none" stroke="#b0faff" stroke-linecap="round"/><path d="M21.38285,55.50895l-0.10729,-0.10729" fill="none" stroke="#8ad8f0" stroke-linecap="round"/><path d="M20.3815,56.92155l0.10729,0.10729" fill="none" stroke="#93e0f4" stroke-linecap="round"/><path d="M68.94645,51.12809l-0.10729,-0.10729" fill="none" stroke="#72c2e7" stroke-linecap="round"/><path d="M71.78953,50.84199l0.10729,0.10729" fill="none" stroke="#72c2e7" stroke-linecap="round"/><path d="M70.10872,54.34668l-0.10729,-0.10729" fill="none" stroke="#94e1f4" stroke-linecap="round"/><path d="M71.70012,52.98772l0.10729,0.10729" fill="none" stroke="#88d6f0" stroke-linecap="round"/><path d="M74.04255,53.81025l-0.10729,-0.10729" fill="none" stroke="#94e1f4" stroke-linecap="round"/><path d="M75.27634,51.28902l0.10729,0.10729" fill="none" stroke="#72c2e7" stroke-linecap="round"/><path d="M78.49491,50.30556l0.10729,0.10729" fill="none" stroke="#72c2e7" stroke-linecap="round"/><path d="M78.58434,52.6301l0.10729,0.10729" fill="none" stroke="#88d6f0" stroke-linecap="round"/><path d="M77.26114,53.98906l-0.10729,-0.10729" fill="none" stroke="#94e1f4" stroke-linecap="round"/><path d="M82.80427,54.43609l-0.10729,-0.10729" fill="none" stroke="#94e1f4" stroke-linecap="round"/><path d="M82.60757,51.91485l0.10729,0.10729" fill="none" stroke="#88d6f0" stroke-linecap="round"/><path d="M84.39567,49.67972l0.10729,0.10729" fill="none" stroke="#72c2e7" stroke-linecap="round"/><path d="M84.39567,55.04404l0.10729,0.10729" fill="none" stroke="#94e1f4" stroke-linecap="round"/><path d="M88.1507,51.46783l0.10729,0.10729" fill="none" stroke="#88d6f0" stroke-linecap="round"/><path d="M86.5414,52.09367l0.10729,0.10729" fill="none" stroke="#88d6f0" stroke-linecap="round"/><path d="M100.0416,56.0275l0.10729,0.10729" fill="none" stroke="#9be7f7" stroke-linecap="round"/><path d="M101.84759,54.43609l-0.10729,-0.10729" fill="none" stroke="#94e1f4" stroke-linecap="round"/><path d="M101.937,56.40301l-0.10729,-0.10729" fill="none" stroke="#9be7f7" stroke-linecap="round"/><path d="M103.09925,52.9162l-0.10729,-0.10729" fill="none" stroke="#88d6f0" stroke-linecap="round"/><path d="M105.15558,52.9162l-0.10729,-0.10729" fill="none" stroke="#88d6f0" stroke-linecap="round"/><path d="M107.92714,53.36322l-0.10729,-0.10729" fill="none" stroke="#94e1f4" stroke-linecap="round"/><path d="M106.21056,51.82545l0.10729,0.10729" fill="none" stroke="#88d6f0" stroke-linecap="round"/><path d="M108.80331,55.58047l0.10729,0.10729" fill="none" stroke="#9be7f7" stroke-linecap="round"/><path d="M110.59141,55.13345l0.10729,0.10729" fill="none" stroke="#9be7f7" stroke-linecap="round"/><path d="M110.14439,53.52415l0.10729,0.10729" fill="none" stroke="#94e1f4" stroke-linecap="round"/><path d="M121.05184,55.22285l0.10729,0.10729" fill="none" stroke="#94e1f4" stroke-linecap="round"/><path d="M118.74517,54.34668l-0.10729,-0.10729" fill="none" stroke="#94e1f4" stroke-linecap="round"/><path d="M118.54848,51.64664l0.10729,0.10729" fill="none" stroke="#72c2e7" stroke-linecap="round"/><path d="M120.78362,50.75259l0.10729,0.10729" fill="none" stroke="#72c2e7" stroke-linecap="round"/><path d="M122.39291,53.52415l0.10729,0.10729" fill="none" stroke="#94e1f4" stroke-linecap="round"/><path d="M125.70091,51.19962l0.10729,0.10729" fill="none" stroke="#72c2e7" stroke-linecap="round"/><path d="M127.7751,49.69761l-0.10729,-0.10729" fill="none" stroke="#72c2e7" stroke-linecap="round"/><path d="M128.20425,51.73605l0.10729,0.10729" fill="none" stroke="#72c2e7" stroke-linecap="round"/><path d="M125.53999,53.36323l-0.10729,-0.10729" fill="none" stroke="#94e1f4" stroke-linecap="round"/><path d="M119.44253,47.44459l0.10729,0.10729" fill="none" stroke="#54a7dc" stroke-linecap="round"/><path d="M116.24182,46.56843l-0.10729,-0.10729" fill="none" stroke="#54a7dc" stroke-linecap="round"/><path d="M99.50517,47.26578l0.10729,0.10729" fill="none" stroke="#54a7dc" stroke-linecap="round"/><path d="M100.66743,45.12005l0.10729,0.10729" fill="none" stroke="#4fa3da" stroke-linecap="round"/><path d="M103.00985,48.62474l-0.10729,-0.10729" fill="none" stroke="#72c2e7" stroke-linecap="round"/><path d="M104.69067,50.39496l0.10729,0.10729" fill="none" stroke="#72c2e7" stroke-linecap="round"/><path d="M107.1225,48.08832l-0.10729,-0.10729" fill="none" stroke="#54a7dc" stroke-linecap="round"/><path d="M109.07153,45.65649l0.10729,0.10729" fill="none" stroke="#54a7dc" stroke-linecap="round"/><path d="M109.69737,47.71281l0.10729,0.10729" fill="none" stroke="#54a7dc" stroke-linecap="round"/><path d="M91.29777,48.53534l-0.10729,-0.10729" fill="none" stroke="#72c2e7" stroke-linecap="round"/><path d="M92.72824,44.86972l-0.10729,-0.10729" fill="none" stroke="#4fa3da" stroke-linecap="round"/><path d="M90.38582,43.33195l0.10729,0.10729" fill="none" stroke="#4fa3da" stroke-linecap="round"/><path d="M92.99647,47.37307l-0.10729,-0.10729" fill="none" stroke="#54a7dc" stroke-linecap="round"/><path d="M87.07784,48.24924l0.10729,0.10729" fill="none" stroke="#72c2e7" stroke-linecap="round"/><path d="M85.28973,46.55054l0.10729,0.10729" fill="none" stroke="#54a7dc" stroke-linecap="round"/><path d="M87.09572,45.67437l-0.10729,-0.10729" fill="none" stroke="#4fa3da" stroke-linecap="round"/><path d="M86.7381,42.45578l-0.10729,-0.10729" fill="none" stroke="#4fa3da" stroke-linecap="round"/><path d="M68.57093,48.07043l0.10729,0.10729" fill="none" stroke="#54a7dc" stroke-linecap="round"/><path d="M72.07563,47.99891l-0.10729,-0.10729" fill="none" stroke="#54a7dc" stroke-linecap="round"/><path d="M46.30903,44.49422l0.10729,0.10729" fill="none" stroke="#4fa3da" stroke-linecap="round"/><path d="M48.18654,46.99757l0.10729,0.10729" fill="none" stroke="#54a7dc" stroke-linecap="round"/><path d="M41.83876,43.60016l0.10729,0.10729" fill="none" stroke="#4fa3da" stroke-linecap="round"/><path d="M38.19104,44.86973l-0.10729,-0.10729" fill="none" stroke="#4fa3da" stroke-linecap="round"/><path d="M40.69437,46.74724l-0.10729,-0.10729" fill="none" stroke="#54a7dc" stroke-linecap="round"/><path d="M38.97779,50.03735l0.10729,0.10729" fill="none" stroke="#72c2e7" stroke-linecap="round"/><path d="M27.10478,49.25058l-0.10729,-0.10729" fill="none" stroke="#6dbee5" stroke-linecap="round"/><path d="M27.53392,46.01411l0.10729,0.10729" fill="none" stroke="#4fa3da" stroke-linecap="round"/><path d="M31.28894,45.38827l0.10729,0.10729" fill="none" stroke="#4fa3da" stroke-linecap="round"/><path d="M24.78025,49.25058l-0.10729,-0.10729" fill="none" stroke="#6dbee5" stroke-linecap="round"/><path d="M13.33637,53.89966l-0.10729,-0.10729" fill="none" stroke="#7ccbeb" stroke-linecap="round"/><path d="M15.64302,48.15984l0.10729,0.10729" fill="none" stroke="#6dbee5" stroke-linecap="round"/><path d="M18.50398,49.50091l0.10729,0.10729" fill="none" stroke="#6dbee5" stroke-linecap="round"/><path d="M69.57514,42.72918c0.08715,-0.48057 0.13886,-1.46525 0.21039,-1.45713c0.07156,0.00815 0.14283,1.04129 0.28467,1.5412c0.09974,0.31102 0.27054,0.5831 0.43315,0.86866c0.11537,0.20202 0.2047,0.47775 0.39607,0.56043c0.43859,0.20456 1.38339,0.11544 1.3861,0.25219c0.00247,0.137 -0.93339,0.23059 -1.32424,0.51837c-0.24976,0.18382 -0.41438,0.53439 -0.58167,0.84066c-0.10546,0.27741 -0.13665,0.59179 -0.2228,0.88268c-0.10121,0.33427 -0.15642,1.00652 -0.27226,1.00874c-0.11558,0.00225 -0.16511,-0.65037 -0.27229,-0.98074c-0.12002,-0.32447 -0.23363,-0.66045 -0.4084,-0.98074c-0.15099,-0.27687 -0.32944,-0.56297 -0.55692,-0.72855c-0.349,-0.22112 -1.123,-0.22924 -1.11385,-0.39231c0.00941,-0.16393 0.78562,-0.18886 1.13859,-0.39231c0.24257,-0.1384 0.46906,-0.38473 0.61883,-0.65849c0.14727,-0.26453 0.20642,-0.58117 0.28463,-0.88268z" fill="url(#color-15)" stroke="none" stroke-linecap="round"/><path d="M25.90214,51.87302c0.00079,-0.48611 -0.10317,-1.46628 -0.04238,-1.46721c0.06076,-0.00097 0.2744,1.01164 0.46712,1.4881c0.12949,0.295 0.31235,0.54258 0.49037,0.80447c0.12624,0.18525 0.24179,0.44667 0.41345,0.50435c0.39578,0.14709 1.16917,-0.05979 1.19184,0.07506c0.02253,0.13518 -0.74278,0.34539 -1.02523,0.67909c-0.18053,0.21318 -0.26525,0.58049 -0.35884,0.90435c-0.04638,0.28756 -0.02539,0.60238 -0.05371,0.90081c-0.03437,0.34328 0.02006,1.01489 -0.07607,1.0317c-0.09591,0.01674 -0.2346,-0.62233 -0.37318,-0.93554c-0.14841,-0.30577 -0.29318,-0.62369 -0.48651,-0.91841c-0.16704,-0.25477 -0.35837,-0.51522 -0.57252,-0.65037c-0.32361,-0.1747 -0.9693,-0.08544 -0.98603,-0.24783c-0.01663,-0.16329 0.62598,-0.28552 0.88951,-0.53107c0.18131,-0.16737 0.33312,-0.43941 0.41691,-0.72894c0.08315,-0.28005 0.08511,-0.60059 0.10525,-0.90857z" fill="url(#color-16)" stroke="none" stroke-linecap="round"/><path d="M119.39305,56.57995c0.1806,-0.39571 0.42704,-1.23494 0.49513,-1.21183c0.06809,0.02307 -0.06813,0.93182 -0.02943,1.39562c0.03526,0.29118 0.14752,0.56465 0.24915,0.84788c0.07217,0.20048 0.10435,0.45879 0.27433,0.5732c0.3867,0.27523 1.32509,0.41033 1.30052,0.5291c-0.02485,0.11898 -0.95549,-0.01026 -1.39365,0.15063c-0.27995,0.10278 -0.51015,0.36874 -0.73416,0.59583c-0.158,0.216 -0.25098,0.48068 -0.39281,0.7127c-0.16522,0.26611 -0.35286,0.83462 -0.46619,0.81055c-0.11308,-0.02403 -0.03136,-0.59909 -0.07006,-0.90861c-0.05236,-0.30734 -0.0962,-0.62319 -0.2027,-0.93918c-0.09202,-0.27312 -0.20899,-0.56039 -0.39767,-0.75458c-0.29607,-0.2694 -1.04869,-0.45021 -1.00731,-0.58907c0.04181,-0.13951 0.80318,0.0132 1.18762,-0.08333c0.26396,-0.06516 0.53368,-0.22716 0.73412,-0.43008c0.19619,-0.19551 0.31685,-0.45586 0.45311,-0.69883z" fill="url(#color-17)" stroke="none" stroke-linecap="round"/><path d="M93.01845,51.84233c0.05282,-0.43029 0.04495,-1.30467 0.1109,-1.3016c0.06598,0.00304 0.18925,0.91326 0.34718,1.34748c0.10879,0.2695 0.28048,0.50045 0.44542,0.74374c0.11698,0.17216 0.21429,0.41101 0.39413,0.47317c0.41316,0.15574 1.27338,0.02242 1.28357,0.1433c0.00994,0.12113 -0.84188,0.25788 -1.18365,0.53507c-0.2184,0.17706 -0.34947,0.49677 -0.48554,0.77743c-0.081,0.25159 -0.09191,0.5316 -0.15446,0.79399c-0.07396,0.30165 -0.08679,0.89974 -0.19276,0.90839c-0.10575,0.00865 -0.18768,-0.56604 -0.30437,-0.85221c-0.12817,-0.28027 -0.25105,-0.57105 -0.42907,-0.84441c-0.15378,-0.23628 -0.33327,-0.47918 -0.55088,-0.61264c-0.33205,-0.17556 -1.04132,-0.13815 -1.04207,-0.28299c-0.00061,-0.14562 0.70888,-0.21243 1.02069,-0.41277c0.21439,-0.1365 0.40797,-0.36753 0.52978,-0.61843c0.12002,-0.24257 0.15642,-0.5262 0.21114,-0.79753z" fill="url(#color-18)" stroke="none" stroke-linecap="round"/><path d="M35.95599,22.64304c0.11158,-0.61539 0.17781,-1.87633 0.26943,-1.86592c0.09159,0.01041 0.18289,1.33343 0.36452,1.97357c0.12771,0.39832 0.34643,0.74675 0.55467,1.11238c0.14773,0.25874 0.26214,0.61182 0.50714,0.71767c0.56168,0.26196 1.77155,0.14784 1.77505,0.32297c0.00315,0.17545 -1.19531,0.29529 -1.6958,0.66382c-0.31982,0.23539 -0.5306,0.68431 -0.74485,1.07651c-0.13504,0.35523 -0.17498,0.75783 -0.28527,1.13033c-0.12964,0.42807 -0.20034,1.2889 -0.34868,1.29176c-0.14802,0.0029 -0.21143,-0.83283 -0.34864,-1.25589c-0.15374,-0.41552 -0.29922,-0.84577 -0.52302,-1.25593c-0.19333,-0.35451 -0.42189,-0.72089 -0.71317,-0.93296c-0.44692,-0.28309 -1.4381,-0.2935 -1.42637,-0.50235c0.01205,-0.20992 1.00606,-0.24186 1.45806,-0.50239c0.31063,-0.17724 0.60066,-0.49266 0.79242,-0.84323c0.18861,-0.33874 0.26435,-0.74421 0.36452,-1.13033z" fill="url(#color-19)" stroke="none" stroke-linecap="round"/><path d="M99.82213,32.21032c0.14176,-0.78194 0.22591,-2.38405 0.34231,-2.37085c0.11641,0.01323 0.23238,1.69423 0.46316,2.5076c0.16229,0.50611 0.4402,0.9488 0.70476,1.41339c0.18768,0.32873 0.33309,0.77736 0.6444,0.91186c0.71363,0.33284 2.2509,0.18782 2.25534,0.41033c0.00401,0.22294 -1.51875,0.37522 -2.15467,0.84345c-0.40636,0.29911 -0.67415,0.86948 -0.94641,1.36779c-0.17159,0.45139 -0.22233,0.96293 -0.36248,1.43617c-0.16472,0.54394 -0.25452,1.63769 -0.44299,1.64134c-0.18811,0.00365 -0.26864,-1.0582 -0.44302,-1.59574c-0.19533,-0.52796 -0.38019,-1.07462 -0.66453,-1.59574c-0.24565,-0.45046 -0.53604,-0.91597 -0.90614,-1.18541c-0.56787,-0.35973 -1.82723,-0.37296 -1.81232,-0.63832c0.01531,-0.26671 1.27828,-0.3073 1.85258,-0.63828c0.39467,-0.22523 0.7632,-0.62598 1.00685,-1.07143c0.23964,-0.4304 0.33588,-0.94559 0.46316,-1.43617z" fill="url(#color-20)" stroke="none" stroke-linecap="round"/><path d="M83.55881,7.39422c0.08204,-0.45253 0.13078,-1.37974 0.19812,-1.37208c0.06738,0.00765 0.1345,0.98053 0.26804,1.45123c0.09395,0.29289 0.25477,0.54913 0.4079,0.81799c0.10861,0.19025 0.19276,0.44989 0.37293,0.52771c0.41302,0.19265 1.30267,0.10872 1.30521,0.2375c0.00232,0.12903 -0.87893,0.21715 -1.24695,0.48815c-0.23517,0.17309 -0.39016,0.50317 -0.54773,0.79156c-0.09928,0.26124 -0.12867,0.55728 -0.20978,0.83118c-0.09531,0.31478 -0.1473,0.94777 -0.25638,0.94988c-0.10886,0.00211 -0.15546,-0.61243 -0.25638,-0.92348c-0.11304,-0.30555 -0.22004,-0.62194 -0.38459,-0.92352c-0.14215,-0.26071 -0.31024,-0.5301 -0.52442,-0.68606c-0.32865,-0.20817 -1.05749,-0.21582 -1.04887,-0.36939c0.00887,-0.15435 0.73981,-0.17784 1.07218,-0.36942c0.22841,-0.13035 0.44166,-0.36227 0.58267,-0.62008c0.13869,-0.24908 0.1944,-0.54723 0.26804,-0.83115z" fill="url(#color-21)" stroke="none" stroke-linecap="round"/></g></g></g></svg>