<svg version="1.1" xmlns="http://www.w3.org/2000/svg" xmlns:xlink="http://www.w3.org/1999/xlink" width="66.32349" height="26.2205" viewBox="0,0,66.32349,26.2205"><defs><linearGradient x1="240" y1="166.88975" x2="240" y2="193.11025" gradientUnits="userSpaceOnUse" id="color-1"><stop offset="0" stop-color="#a7a7a7"/><stop offset="1" stop-color="#7c7c7c"/></linearGradient><linearGradient x1="221.64101" y1="172.66134" x2="221.64101" y2="187.75534" gradientUnits="userSpaceOnUse" id="color-2"><stop offset="0" stop-color="#00395c"/><stop offset="1" stop-color="#003197"/></linearGradient><linearGradient x1="232.55401" y1="173.98167" x2="232.55401" y2="186.70067" gradientUnits="userSpaceOnUse" id="color-3"><stop offset="0" stop-color="#00395c"/><stop offset="1" stop-color="#003197"/></linearGradient><linearGradient x1="243.63517" y1="172.24467" x2="243.63517" y2="187.30767" gradientUnits="userSpaceOnUse" id="color-4"><stop offset="0" stop-color="#00395c"/><stop offset="1" stop-color="#003197"/></linearGradient><linearGradient x1="258.35249" y1="172.374" x2="258.35249" y2="187.483" gradientUnits="userSpaceOnUse" id="color-5"><stop offset="0" stop-color="#00395c"/><stop offset="1" stop-color="#003197"/></linearGradient><linearGradient x1="221.641" y1="172.66134" x2="221.641" y2="187.75534" gradientUnits="userSpaceOnUse" id="color-6"><stop offset="0" stop-color="#5276bd"/><stop offset="1" stop-color="#69d9ff"/></linearGradient><linearGradient x1="232.55401" y1="173.98167" x2="232.55401" y2="186.70067" gradientUnits="userSpaceOnUse" id="color-7"><stop offset="0" stop-color="#5276bd"/><stop offset="1" stop-color="#69d9ff"/></linearGradient><linearGradient x1="243.63517" y1="172.24467" x2="243.63517" y2="187.30766" gradientUnits="userSpaceOnUse" id="color-8"><stop offset="0" stop-color="#5276bd"/><stop offset="1" stop-color="#69d9ff"/></linearGradient><linearGradient x1="258.3525" y1="172.374" x2="258.3525" y2="187.483" gradientUnits="userSpaceOnUse" id="color-9"><stop offset="0" stop-color="#5276bd"/><stop offset="1" stop-color="#69d9ff"/></linearGradient></defs><g transform="translate(-206.83826,-166.88975)"><g data-paper-data="{&quot;isPaintingLayer&quot;:true}" fill-rule="nonzero" stroke-linecap="butt" stroke-linejoin="miter" stroke-miterlimit="10" stroke-dasharray="" stroke-dashoffset="0" style="mix-blend-mode: normal"><path d="M207.98856,168.24891c0,0 19.17748,-1.35916 31.45205,-1.35916c12.80097,0 32.80089,1.35916 32.80089,1.35916c0,0 0.92025,7.32013 0.92025,11.46167c0,5.03048 -0.92025,12.04051 -0.92025,12.04051c0,0 -19.80915,1.35916 -32.34076,1.35916c-12.54392,0 -31.91217,-1.35916 -31.91217,-1.35916c0,0 -1.15031,-7.41612 -1.15031,-12.3803c0,-4.20785 1.15031,-11.12188 1.15031,-11.12188z" fill="#ffffff" stroke="url(#color-1)" stroke-width="0"/><g><g fill="none" stroke-width="2.5"><path d="M228.92251,176.66134l-0.5,6.719l-3.563,3.875l-8.469,0.5l-2.031,-13.375l7.469,-1.719zM220.73451,183.91134l2.594,-0.937l0.687,-3.906l-3.843,-1.375z" stroke="url(#color-2)"/><path d="M230.24651,173.98167l5.374,1.125l-2.054,11.34l-4.079,0.254z" stroke="url(#color-3)"/><path d="M250.65117,175.99467l-1.656,3.844l2.06201,2.5l-2.93701,4.625l-9.90699,0.344l-2,-13.281l9.188,-1.782zM242.08817,179.30766l2.907,-0.625l0.25,-1.531l-3.344,-0.938zM242.49516,184.08866l2.718,-0.344l0.188,-1.906l-3.094,-0.094z" stroke="url(#color-4)"/><path d="M257.6485,183.46l0.985,-1.492l-7.51201,-3.798l2.869,-4.896l6.387,-0.9l4.418,2.475l-1.997,3.771l-3.94,-2.561l-0.928,1.576l7.70999,3.686l-2.75799,5.488l-7.372,0.674l-4.446,-3.179l2.05401,-3.348z" stroke="url(#color-5)"/></g><g stroke="none" stroke-width="1"><path d="M228.9225,176.66134l-0.5,6.719l-3.563,3.875l-8.469,0.5l-2.031,-13.375l7.469,-1.719zM220.7345,183.91134l2.594,-0.937l0.687,-3.906l-3.843,-1.375z" fill="url(#color-6)"/><path d="M230.24651,173.98167l5.374,1.125l-2.054,11.34l-4.079,0.254z" fill="url(#color-7)"/><path d="M250.65117,175.99467l-1.656,3.844l2.062,2.5l-2.937,4.625l-9.907,0.344l-2,-13.281l9.188,-1.782zM242.08817,179.30766l2.907,-0.625l0.25,-1.531l-3.344,-0.938zM242.49516,184.08866l2.718,-0.344l0.188,-1.906l-3.094,-0.094z" fill="url(#color-8)"/><path d="M257.6485,183.46l0.985,-1.492l-7.512,-3.798l2.869,-4.896l6.387,-0.9l4.418,2.475l-1.997,3.771l-3.94,-2.561l-0.928,1.576l7.71,3.686l-2.758,5.488l-7.372,0.674l-4.446,-3.179l2.054,-3.348z" fill="url(#color-9)"/></g></g></g></g></svg>