<svg version="1.1" xmlns="http://www.w3.org/2000/svg" xmlns:xlink="http://www.w3.org/1999/xlink" width="444.88136" height="238.16671" viewBox="0,0,444.88136,238.16671"><defs><radialGradient cx="34.11065" cy="110.02272" r="548.80445" gradientUnits="userSpaceOnUse" id="color-1"><stop offset="0" stop-color="#ffffff"/><stop offset="1" stop-color="#ffffff"/></radialGradient><linearGradient x1="76.13916" y1="111.85515" x2="76.13916" y2="183.27629" gradientUnits="userSpaceOnUse" id="color-2"><stop offset="0" stop-color="#7f7f7f"/><stop offset="1" stop-color="#2b2a2b"/></linearGradient><radialGradient cx="112.89391" cy="167.45653" r="94.8616" gradientUnits="userSpaceOnUse" id="color-3"><stop offset="0" stop-color="#000000" stop-opacity="0"/><stop offset="1" stop-color="#000000" stop-opacity="0"/></radialGradient><linearGradient x1="149.45366" y1="128.47462" x2="149.45366" y2="183.27629" gradientUnits="userSpaceOnUse" id="color-4"><stop offset="0" stop-color="#7f7f7f"/><stop offset="1" stop-color="#2b2a2b"/></linearGradient><radialGradient cx="146.03454" cy="170.71575" r="54.39377" gradientUnits="userSpaceOnUse" id="color-5"><stop offset="0" stop-color="#000000" stop-opacity="0"/><stop offset="1" stop-color="#000000" stop-opacity="0"/></radialGradient><linearGradient x1="207.95742" y1="128.47462" x2="207.95742" y2="183.27629" gradientUnits="userSpaceOnUse" id="color-6"><stop offset="0" stop-color="#7f7f7f"/><stop offset="1" stop-color="#2b2a2b"/></linearGradient><radialGradient cx="217.76756" cy="152.62568" r="47.95743" gradientUnits="userSpaceOnUse" id="color-7"><stop offset="0" stop-color="#000000" stop-opacity="0"/><stop offset="1" stop-color="#000000" stop-opacity="0"/></radialGradient><linearGradient x1="253.32244" y1="106.4787" x2="253.32244" y2="183.27629" gradientUnits="userSpaceOnUse" id="color-8"><stop offset="0" stop-color="#7f7f7f"/><stop offset="1" stop-color="#2b2a2b"/></linearGradient><radialGradient cx="243.23806" cy="155.45249" r="63.89043" gradientUnits="userSpaceOnUse" id="color-9"><stop offset="0" stop-color="#000000" stop-opacity="0"/><stop offset="1" stop-color="#000000" stop-opacity="0"/></radialGradient><linearGradient x1="298.14015" y1="128.52926" x2="298.14015" y2="183.27629" gradientUnits="userSpaceOnUse" id="color-10"><stop offset="0" stop-color="#7f7f7f"/><stop offset="1" stop-color="#2b2a2b"/></linearGradient><radialGradient cx="273.59146" cy="162.51619" r="67.62112" gradientUnits="userSpaceOnUse" id="color-11"><stop offset="0" stop-color="#000000" stop-opacity="0"/><stop offset="1" stop-color="#000000" stop-opacity="0"/></radialGradient><linearGradient x1="74.83318" y1="181.29885" x2="74.83318" y2="242.94782" gradientUnits="userSpaceOnUse" id="color-12"><stop offset="0" stop-color="#7f7f7f"/><stop offset="1" stop-color="#2b2a2b"/></linearGradient><radialGradient cx="95.97686" cy="212.97411" r="67.16879" gradientUnits="userSpaceOnUse" id="color-13"><stop offset="0" stop-color="#000000" stop-opacity="0"/><stop offset="1" stop-color="#000000" stop-opacity="0"/></radialGradient><linearGradient x1="130.98671" y1="195.60805" x2="130.98671" y2="242.94782" gradientUnits="userSpaceOnUse" id="color-14"><stop offset="0" stop-color="#7f7f7f"/><stop offset="1" stop-color="#2b2a2b"/></linearGradient><radialGradient cx="150.65379" cy="211.84566" r="56.29589" gradientUnits="userSpaceOnUse" id="color-15"><stop offset="0" stop-color="#000000" stop-opacity="0"/><stop offset="1" stop-color="#000000" stop-opacity="0"/></radialGradient><linearGradient x1="181.52347" y1="195.60805" x2="181.52347" y2="242.94782" gradientUnits="userSpaceOnUse" id="color-16"><stop offset="0" stop-color="#7f7f7f"/><stop offset="1" stop-color="#2b2a2b"/></linearGradient><radialGradient cx="191.14129" cy="217.00558" r="42.94394" gradientUnits="userSpaceOnUse" id="color-17"><stop offset="0" stop-color="#000000" stop-opacity="0"/><stop offset="1" stop-color="#000000" stop-opacity="0"/></radialGradient><linearGradient x1="231.20799" y1="181.29885" x2="231.20799" y2="242.94782" gradientUnits="userSpaceOnUse" id="color-18"><stop offset="0" stop-color="#7f7f7f"/><stop offset="1" stop-color="#2b2a2b"/></linearGradient><radialGradient cx="253.29708" cy="207.54289" r="69.27683" gradientUnits="userSpaceOnUse" id="color-19"><stop offset="0" stop-color="#000000" stop-opacity="0"/><stop offset="1" stop-color="#000000" stop-opacity="0"/></radialGradient><linearGradient x1="286.6019" y1="195.13933" x2="286.6019" y2="257.21195" gradientUnits="userSpaceOnUse" id="color-20"><stop offset="0" stop-color="#7f7f7f"/><stop offset="1" stop-color="#2b2a2b"/></linearGradient><radialGradient cx="261.19611" cy="212.07278" r="73.35682" gradientUnits="userSpaceOnUse" id="color-21"><stop offset="0" stop-color="#000000" stop-opacity="0"/><stop offset="1" stop-color="#000000" stop-opacity="0"/></radialGradient><linearGradient x1="388.80814" y1="118.98281" x2="388.80814" y2="240.75246" gradientUnits="userSpaceOnUse" id="color-22"><stop offset="0" stop-color="#7f7f7f"/><stop offset="1" stop-color="#2b2a2b"/></linearGradient><radialGradient cx="392.95636" cy="168.0438" r="92.26115" gradientUnits="userSpaceOnUse" id="color-23"><stop offset="0" stop-color="#000000" stop-opacity="0"/><stop offset="1" stop-color="#000000" stop-opacity="0"/></radialGradient><linearGradient x1="33.25524" y1="108.1645" x2="33.25524" y2="179.58563" gradientUnits="userSpaceOnUse" id="color-24"><stop offset="0" stop-color="#f96e91"/><stop offset="1" stop-color="#ff3183"/></linearGradient><radialGradient cx="111.34456" cy="163.76587" r="94.8616" gradientUnits="userSpaceOnUse" id="color-25"><stop offset="0" stop-color="#000000" stop-opacity="0"/><stop offset="1" stop-color="#000000" stop-opacity="0"/></radialGradient><linearGradient x1="121.02467" y1="124.78394" x2="121.02467" y2="179.58563" gradientUnits="userSpaceOnUse" id="color-26"><stop offset="0" stop-color="#31c00a"/><stop offset="1" stop-color="#a0d41c"/></linearGradient><radialGradient cx="144.48518" cy="167.02508" r="54.39377" gradientUnits="userSpaceOnUse" id="color-27"><stop offset="0" stop-color="#000000" stop-opacity="0"/><stop offset="1" stop-color="#000000" stop-opacity="0"/></radialGradient><linearGradient x1="180.05087" y1="124.78394" x2="180.05087" y2="179.58563" gradientUnits="userSpaceOnUse" id="color-28"><stop offset="0" stop-color="#00c2ff"/><stop offset="1" stop-color="#00acf2"/></linearGradient><radialGradient cx="216.21822" cy="148.93503" r="47.95743" gradientUnits="userSpaceOnUse" id="color-29"><stop offset="0" stop-color="#000000" stop-opacity="0"/><stop offset="1" stop-color="#000000" stop-opacity="0"/></radialGradient><linearGradient x1="251.7731" y1="102.78805" x2="251.7731" y2="179.58563" gradientUnits="userSpaceOnUse" id="color-30"><stop offset="0" stop-color="#f96e91"/><stop offset="1" stop-color="#ff3183"/></linearGradient><radialGradient cx="241.68872" cy="151.76183" r="63.89043" gradientUnits="userSpaceOnUse" id="color-31"><stop offset="0" stop-color="#000000" stop-opacity="0"/><stop offset="1" stop-color="#000000" stop-opacity="0"/></radialGradient><linearGradient x1="296.5908" y1="124.83858" x2="296.5908" y2="179.58563" gradientUnits="userSpaceOnUse" id="color-32"><stop offset="0" stop-color="#31c00a"/><stop offset="1" stop-color="#a0d41c"/></linearGradient><radialGradient cx="272.04211" cy="158.82552" r="67.62112" gradientUnits="userSpaceOnUse" id="color-33"><stop offset="0" stop-color="#000000" stop-opacity="0"/><stop offset="1" stop-color="#000000" stop-opacity="0"/></radialGradient><linearGradient x1="73.28384" y1="177.60819" x2="73.28384" y2="239.25717" gradientUnits="userSpaceOnUse" id="color-34"><stop offset="0" stop-color="#00c2ff"/><stop offset="1" stop-color="#00acf2"/></linearGradient><radialGradient cx="94.42751" cy="209.28345" r="67.16879" gradientUnits="userSpaceOnUse" id="color-35"><stop offset="0" stop-color="#000000" stop-opacity="0"/><stop offset="1" stop-color="#000000" stop-opacity="0"/></radialGradient><linearGradient x1="129.43739" y1="191.91739" x2="129.43739" y2="239.25717" gradientUnits="userSpaceOnUse" id="color-36"><stop offset="0" stop-color="#f96e91"/><stop offset="1" stop-color="#ff3183"/></linearGradient><radialGradient cx="149.10445" cy="208.15499" r="56.29589" gradientUnits="userSpaceOnUse" id="color-37"><stop offset="0" stop-color="#000000" stop-opacity="0"/><stop offset="1" stop-color="#000000" stop-opacity="0"/></radialGradient><linearGradient x1="179.97414" y1="191.91739" x2="179.97414" y2="239.25717" gradientUnits="userSpaceOnUse" id="color-38"><stop offset="0" stop-color="#31c00a"/><stop offset="1" stop-color="#a0d41c"/></linearGradient><radialGradient cx="189.59195" cy="213.31493" r="42.94394" gradientUnits="userSpaceOnUse" id="color-39"><stop offset="0" stop-color="#000000" stop-opacity="0"/><stop offset="1" stop-color="#000000" stop-opacity="0"/></radialGradient><linearGradient x1="229.65865" y1="177.60819" x2="229.65865" y2="239.25717" gradientUnits="userSpaceOnUse" id="color-40"><stop offset="0" stop-color="#00c2ff"/><stop offset="1" stop-color="#00acf2"/></linearGradient><radialGradient cx="251.74775" cy="203.85223" r="69.27683" gradientUnits="userSpaceOnUse" id="color-41"><stop offset="0" stop-color="#000000" stop-opacity="0"/><stop offset="1" stop-color="#000000" stop-opacity="0"/></radialGradient><linearGradient x1="285.05255" y1="191.44867" x2="285.05255" y2="253.5213" gradientUnits="userSpaceOnUse" id="color-42"><stop offset="0" stop-color="#f96e91"/><stop offset="1" stop-color="#ff3183"/></linearGradient><radialGradient cx="259.64677" cy="208.38212" r="73.35682" gradientUnits="userSpaceOnUse" id="color-43"><stop offset="0" stop-color="#000000" stop-opacity="0"/><stop offset="1" stop-color="#000000" stop-opacity="0"/></radialGradient><linearGradient x1="329.3222" y1="115.29216" x2="329.3222" y2="237.0618" gradientUnits="userSpaceOnUse" id="color-44"><stop offset="0" stop-color="#ff9400"/><stop offset="1" stop-color="#ffef80"/></linearGradient><radialGradient cx="391.40703" cy="164.35314" r="92.26115" gradientUnits="userSpaceOnUse" id="color-45"><stop offset="0" stop-color="#000000" stop-opacity="0"/><stop offset="1" stop-color="#000000" stop-opacity="0"/></radialGradient></defs><g transform="translate(-17.55931,-60.91665)"><g data-paper-data="{&quot;isPaintingLayer&quot;:true}" fill-rule="nonzero" stroke-miterlimit="10" stroke-dasharray="" stroke-dashoffset="0" style="mix-blend-mode: normal"><path d="M25.2753,73.26222c0,0 128.63774,-12.34557 210.97247,-12.34557c85.86568,0 220.02013,12.34557 220.02013,12.34557c0,0 6.17278,66.49036 6.17278,104.10895c0,45.69299 -6.17278,109.36662 -6.17278,109.36662c0,0 -132.8748,12.34557 -216.93374,12.34557c-84.14147,0 -214.05886,-12.34557 -214.05886,-12.34557c0,0 -7.71598,-67.36227 -7.71598,-112.45301c0,-38.22086 7.71598,-101.02255 7.71598,-101.02255z" fill="#ffffff" stroke="url(#color-1)" stroke-width="0" stroke-linecap="butt" stroke-linejoin="miter"/><g stroke-linecap="round" stroke-linejoin="round"><g><g stroke-width="3.89753"><path d="M59.271,111.85515c10.34973,0.73141 15.52472,1.38825 15.52472,1.97297c3.98564,10.71549 6.41885,17.55488 7.29465,20.51804c0.10941,0 0.22137,0 0.33079,0c0.95048,-2.05008 4.58785,-7.68033 10.91465,-16.89561c0.10941,0 0.22137,0 0.33091,0c9.9094,0.62199 14.86532,1.29621 14.86532,2.02761c2.98065,20.38871 5.96117,40.7773 8.94169,61.16588c0,0.36577 -7.82702,1.24156 -23.47864,2.63224l-0.32836,-0.65927c-0.87835,-18.57737 -1.31867,-29.93235 -1.31867,-34.06481c-0.10941,0 -0.21895,0 -0.32836,0l-13.54932,11.90471h-0.32836c-0.44045,-0.21882 -3.53038,-5.06532 -9.27005,-14.53696c-0.10954,0 -0.2215,0 -0.33091,0c-7.05834,20.55289 -10.91465,31.46742 -11.57393,32.74869c-0.21895,0 -0.4379,0 -0.65685,0c-12.61876,-5.70481 -19.78651,-9.12578 -21.50567,-10.25768c0,-0.10954 0,-0.21895 0,-0.33091c15.65404,-36.7891 23.80956,-55.53078 24.4664,-56.2249z" fill="url(#color-2)" stroke="url(#color-3)"/><path d="M130.9135,128.47462c21.7222,3.00044 32.58451,4.8465 32.58451,5.54063c8.556,7.35185 12.83528,11.28272 12.83528,11.7953c-3.47561,10.85976 -5.44858,17.46283 -5.92376,19.80144c3.47319,7.71761 5.44858,12.32525 5.92376,13.82547c0,0.4379 -5.66753,1.6072 -17.00502,3.51047c-0.14682,-0.62199 -1.18922,-2.0128 -3.12734,-4.16974c-15.65162,2.99788 -24.08072,4.4981 -25.28743,4.4981l-8.33948,-22.54565l18.37834,-9.71037c2.9606,0.47518 7.58816,0.71404 13.87768,0.71404c0,-0.80367 0.10954,-3.23687 0.32849,-7.29465c-1.05989,0 -10.53153,0.69413 -28.41477,2.08238c-0.10941,-0.23631 -0.21895,-0.47518 -0.32836,-0.71149c2.48543,-11.55657 3.98564,-17.33593 4.4981,-17.33593zM142.32324,160.73064c0,0.40305 1.1693,4.67977 3.51047,12.83528c0.10941,0 0.21895,0 0.32836,0c4.60764,-2.99801 6.91152,-4.9734 6.91152,-5.92376l0.71404,-5.86912c-0.87822,0 -4.69969,-0.34828 -11.46439,-1.0424z" fill="url(#color-4)" stroke="url(#color-5)"/><path d="M220.98427,128.47462c7.24243,4.0602 11.68589,6.69244 13.33037,7.89915c-5.92376,12.32525 -9.10587,18.59729 -9.54376,18.81623c-0.12933,0 -0.25623,0 -0.38556,0l-7.84196,-6.85675c-3.09261,3.76669 -6.18254,7.53352 -9.2726,11.30021c0.11694,2.28639 0.92801,18.28629 1.0424,20.57025c-0.47518,0.44032 -6.52826,1.46294 -18.15696,3.07257c-0.43777,-3.1447 -3.29152,-18.56001 -8.556,-46.24324c0,-0.4379 7.64293,-1.57235 22.92891,-3.40093c0.25623,0.29351 0.95035,3.71192 2.08481,10.25768c9.14072,-10.27517 13.93245,-15.41518 14.37035,-15.41518z" fill="url(#color-6)" stroke="url(#color-7)"/><path d="M246.32889,106.4787c7.18511,1.13458 14.37278,2.26648 21.55789,3.40105c-2.7068,10.34985 -4.48074,15.52472 -5.32168,15.52472c-11.33506,-0.76881 -17.00502,-1.51771 -17.00502,-2.24911v-15.90785c0.10954,-0.51258 0.36577,-0.76881 0.76881,-0.76881zM240.29559,132.58959c0.10954,0 0.21895,0 0.32849,0c16.67653,3.03529 25.01371,4.80922 25.01371,5.32168c-4.79186,27.1335 -7.6977,42.2576 -8.72274,45.36502c-5.79686,0 -11.59129,0 -17.38815,0c-0.51258,0 -0.76881,-0.25623 -0.76881,-0.76868c0.51246,-16.63938 1.02504,-33.27863 1.5375,-49.91801z" fill="url(#color-8)" stroke="url(#color-9)"/><path d="M291.69391,128.52926c13.8976,3.73197 21.26681,5.99844 22.10775,6.80211c7.64293,10.8249 11.93957,17.06221 12.89005,18.7067c-4.93613,15.65162 -7.76983,23.47864 -8.50136,23.47864c-16.45771,3.83895 -25.07091,5.75958 -25.83717,5.75958c-13.60409,-7.93643 -20.8464,-12.35998 -21.72462,-13.2756c-0.47518,-14.7734 -0.71162,-22.92878 -0.71162,-24.46385c-0.21895,-0.44032 -0.32836,-0.76881 -0.32836,-0.98776c14.04186,-10.67821 21.30166,-16.01981 21.77684,-16.01981c0.06473,0 0.26376,0 0.32849,0zM290.65138,148.60697c-0.21882,1.46294 -0.54731,6.78462 -0.98763,15.96262l12.2332,2.74408c2.92575,-9.14314 4.38869,-14.02437 4.38869,-14.64637c-9.72786,-2.92588 -14.94,-4.38882 -15.63426,-4.38882c0,0.10954 0,0.21895 0,0.32849z" fill="url(#color-10)" stroke="url(#color-11)"/></g><g stroke-width="3.36683"><path d="M81.70403,181.29885l20.66,15.257c-2.84328,12.98529 -4.64224,19.47576 -5.40083,19.47576c-0.15907,0 -3.95015,3.19155 -11.37349,9.57249c-4.61211,-0.22137 -9.88834,-0.52012 -15.8264,-0.90056l-0.61689,17.06017c-1.29378,0.37828 -6.88586,0.77366 -16.77432,1.18411c-1.20135,0 -1.801,-3.39569 -1.801,-10.18912c-2.17915,-28.11552 -3.26879,-43.27791 -3.26879,-45.48949c3.69648,-0.7909 15.1624,-2.78098 34.40172,-5.97036zM68.86276,194.75702v19.75944c7.77136,-1.39055 11.65717,-2.19639 11.65717,-2.41776l2.70144,-11.65717c-3.82338,-1.57963 -8.60949,-3.47523 -14.35861,-5.68451z" fill="url(#color-12)" stroke="url(#color-13)"/><path d="M114.96902,195.60805c18.76657,2.5919 28.14769,4.18659 28.14769,4.78624c7.39308,6.35081 11.08969,9.7465 11.08969,10.18925c-3.00235,9.38112 -4.70888,15.08503 -5.11933,17.10524c3.00235,6.66666 4.70671,10.64694 5.11933,11.94289c0,0.37828 -4.89795,1.38838 -14.69169,3.03248c-0.12473,-0.53722 -1.02517,-1.7387 -2.6994,-3.602c-13.52264,2.58973 -20.80401,3.88568 -21.84629,3.88568l-7.20196,-19.47576l15.87376,-8.38825c2.55973,0.41058 6.55507,0.61689 11.98821,0.61689c0,-0.69425 0.09664,-2.79617 0.28572,-6.3014c-0.91767,0 -9.09948,0.59965 -24.54568,1.79883l-0.28585,-0.61459c2.14928,-9.98294 3.44306,-14.97549 3.88581,-14.97549zM124.82505,223.47206c0,0.34815 1.01227,4.04258 3.03248,11.08764c0.09677,0 0.19125,0 0.28585,0c3.98028,-2.58986 5.97036,-4.29626 5.97036,-5.11729c0.20427,-1.68917 0.41058,-3.38063 0.61689,-5.06979c-0.75873,0 -4.05982,-0.30091 -9.90557,-0.90056z" fill="url(#color-14)" stroke="url(#color-15)"/><path d="M192.7776,195.60805c6.25403,3.5074 10.09248,5.78128 11.51533,6.82369c-5.11729,10.64694 -7.86609,16.06501 -8.24641,16.25408c-0.10967,0 -0.2192,0 -0.33104,0c-2.25869,-1.97501 -4.5175,-3.94798 -6.77632,-5.92312c-2.66927,3.25385 -5.33853,6.50771 -8.0078,9.76156l0.90056,17.76936c-0.41058,0.38045 -5.63944,1.26378 -15.68469,2.6542c-0.38045,-2.7165 -2.8434,-16.03283 -7.39321,-39.94657c0,-0.37828 6.60231,-1.35838 19.8068,-2.93801c0.22137,0.25367 0.82307,3.20662 1.801,8.86113c7.89826,-8.87619 12.03749,-13.31633 12.41577,-13.31633z" fill="url(#color-16)" stroke="url(#color-17)"/><path d="M222.2986,181.29885c6.95046,1.23148 13.90092,2.46296 20.85125,3.6966l-1.99008,15.82652c4.13718,-0.22137 7.16966,-0.33321 9.09744,-0.33321c1.0101,0 2.02238,0 3.03248,0c0.22137,-0.10954 0.44275,-0.2192 0.66412,-0.33091l0.33091,0.66412c-0.66412,9.60249 -1.23148,15.0055 -1.7064,16.20467l-0.66195,-0.37815c-0.47492,0 -4.73888,-0.22137 -12.79404,-0.66412c-0.44275,7.42538 -0.77583,16.30145 -0.99504,26.63253l-0.66412,0.33091c-10.17201,-0.664 -16.23697,-1.23148 -18.19705,-1.7064c0.11184,-0.44275 0.22137,-0.88333 0.33308,-1.32608c0,-2.7488 0.44058,-11.27876 1.32608,-25.58796c-8.53009,-0.47505 -12.79404,-1.0424 -12.79404,-1.70653c0.44275,-10.55233 1.0101,-15.8264 1.70653,-15.8264l12.46083,2.36835c0,-1.35825 0,-2.71663 0,-4.07488c0,-3.31833 -0.1246,-7.80366 -0.37828,-13.45804c0.25367,0 0.37828,-0.10967 0.37828,-0.33104z" fill="url(#color-18)" stroke="url(#color-19)"/><path d="M280.92376,195.62528c0.98648,0.09664 0.98866,-0.99083 0.75004,0.74149c-0.94129,6.87297 -2.60479,13.57192 -3.97377,20.32041c-0.27295,2.34474 -2.9809,6.40877 -0.95431,6.97408c4.41448,1.29799 14.12229,-1.9902 14.12229,-2.65433c1.7687,-10.92844 2.98512,-17.058 3.64707,-18.38395c11.65717,2.40065 18.11751,3.82121 19.38129,4.26396c-6.79139,23.34638 -10.51812,35.5086 -11.18224,36.48653c-11.87841,8.34088 -18.56013,12.95299 -20.04529,13.83849c-0.44275,0 -8.0078,-1.86547 -22.69745,-5.59221c0,-0.11171 0,-0.22137 0,-0.33091c3.88581,-8.56239 6.3014,-12.84345 7.2492,-12.84345l14.45321,7.25124l6.91816,-11.84624c-6.22186,1.54745 -9.83893,2.32112 -10.8512,2.32112c-6.1445,-3.19155 -12.28886,-6.38081 -18.43336,-9.57236c2.24375,-20.5977 2.32967,-28.76675 4.26613,-30.89649c0.49216,-1.18424 14.73037,-0.14401 17.35023,-0.07737z" fill="url(#color-20)" stroke="url(#color-21)"/></g><path d="M404.44271,118.98281c22.46062,11.35549 34.00723,17.0354 34.63127,17.0354c0,0.99759 -4.68232,10.01409 -14.04276,27.04949c-0.21652,0 -0.43726,0 -0.65366,0c-0.75145,0 -11.51265,-5.0855 -32.29228,-15.25674l-10.57442,14.13187c17.90571,8.60898 39.65319,19.59526 65.23387,32.94593c-11.60597,20.65643 -19.8414,34.38078 -24.70629,41.18558l-52.885,4.67811c-24.14583,-16.28408 -36.90655,-24.7105 -38.28191,-25.27096c0,-0.22074 0,-0.43713 0,-0.65787c0,-1.74483 4.89885,-9.76373 14.69641,-24.05263c0.4033,0 0.81081,0 1.21833,0c3.8673,2.30937 16.00385,8.95292 36.40571,19.93485l12.35729,-14.03842c-37.50084,-19.09429 -58.28047,-29.88945 -62.33442,-32.3856c0,-0.18678 0,-0.37355 0,-0.56033c11.91582,-23.21194 18.40655,-34.97508 19.46785,-35.28492c31.01011,-6.30395 48.26204,-9.45376 51.76,-9.45376z" fill="url(#color-22)" stroke="url(#color-23)" stroke-width="6.6502"/></g><g><g stroke-width="3.89753"><path d="M57.72166,108.1645c10.34973,0.73141 15.52472,1.38825 15.52472,1.97297c3.98564,10.71549 6.41885,17.55488 7.29465,20.51804c0.10941,0 0.22137,0 0.33079,0c0.95048,-2.05008 4.58785,-7.68033 10.91465,-16.89561c0.10941,0 0.22137,0 0.33091,0c9.9094,0.62199 14.86532,1.29621 14.86532,2.02761c2.98065,20.38871 5.96117,40.7773 8.94169,61.16588c0,0.36577 -7.82702,1.24156 -23.47864,2.63224l-0.32836,-0.65927c-0.87835,-18.57737 -1.31867,-29.93235 -1.31867,-34.06481c-0.10941,0 -0.21895,0 -0.32836,0l-13.54932,11.90471h-0.32836c-0.44045,-0.21882 -3.53038,-5.06532 -9.27005,-14.53696c-0.10954,0 -0.2215,0 -0.33091,0c-7.05834,20.55289 -10.91465,31.46742 -11.57393,32.74869c-0.21895,0 -0.4379,0 -0.65685,0c-12.61876,-5.70481 -19.78651,-9.12578 -21.50567,-10.25768c0,-0.10954 0,-0.21895 0,-0.33091c15.65404,-36.7891 23.80956,-55.53078 24.4664,-56.2249z" fill="url(#color-24)" stroke="url(#color-25)"/><path d="M129.36416,124.78394c21.7222,3.00044 32.58451,4.8465 32.58451,5.54063c8.556,7.35185 12.83528,11.28272 12.83528,11.7953c-3.47561,10.85976 -5.44858,17.46283 -5.92376,19.80144c3.47319,7.71761 5.44858,12.32525 5.92376,13.82547c0,0.4379 -5.66753,1.6072 -17.00502,3.51047c-0.14682,-0.62199 -1.18922,-2.0128 -3.12734,-4.16974c-15.65162,2.99788 -24.08072,4.4981 -25.28743,4.4981l-8.33948,-22.54565l18.37834,-9.71037c2.9606,0.47518 7.58816,0.71404 13.87768,0.71404c0,-0.80367 0.10954,-3.23687 0.32849,-7.29465c-1.05989,0 -10.53153,0.69413 -28.41477,2.08238c-0.10941,-0.23631 -0.21895,-0.47518 -0.32836,-0.71149c2.48543,-11.55657 3.98564,-17.33593 4.4981,-17.33593zM140.77392,157.03998c0,0.40305 1.1693,4.67977 3.51047,12.83528c0.10941,0 0.21895,0 0.32836,0c4.60764,-2.99801 6.91152,-4.9734 6.91152,-5.92376l0.71404,-5.86912c-0.87822,0 -4.69969,-0.34828 -11.46439,-1.0424z" fill="url(#color-26)" stroke="url(#color-27)"/><path d="M219.43492,124.78394c7.24243,4.0602 11.68589,6.69244 13.33037,7.89915c-5.92376,12.32525 -9.10587,18.59729 -9.54376,18.81623c-0.12933,0 -0.25623,0 -0.38556,0l-7.84196,-6.85675c-3.09261,3.76669 -6.18254,7.53352 -9.2726,11.30021c0.11694,2.28639 0.92801,18.28629 1.0424,20.57025c-0.47518,0.44032 -6.52826,1.46294 -18.15696,3.07257c-0.43777,-3.1447 -3.29152,-18.56001 -8.556,-46.24324c0,-0.4379 7.64293,-1.57235 22.92891,-3.40093c0.25623,0.29351 0.95035,3.71192 2.08481,10.25768c9.14072,-10.27517 13.93245,-15.41518 14.37035,-15.41518z" fill="url(#color-28)" stroke="url(#color-29)"/><path d="M244.77956,102.78805c7.18511,1.13458 14.37278,2.26648 21.55789,3.40105c-2.7068,10.34985 -4.48074,15.52472 -5.32168,15.52472c-11.33506,-0.76881 -17.00502,-1.51771 -17.00502,-2.24911v-15.90785c0.10954,-0.51258 0.36577,-0.76881 0.76881,-0.76881zM238.74626,128.89892c0.10954,0 0.21895,0 0.32849,0c16.67653,3.03529 25.01371,4.80922 25.01371,5.32168c-4.79186,27.1335 -7.6977,42.2576 -8.72274,45.36502c-5.79686,0 -11.59129,0 -17.38815,0c-0.51258,0 -0.76881,-0.25623 -0.76881,-0.76868c0.51246,-16.63938 1.02504,-33.27863 1.5375,-49.91801z" fill="url(#color-30)" stroke="url(#color-31)"/><path d="M290.14458,124.83858c13.8976,3.73197 21.26681,5.99844 22.10775,6.80211c7.64293,10.8249 11.93957,17.06221 12.89005,18.7067c-4.93613,15.65162 -7.76983,23.47864 -8.50136,23.47864c-16.45771,3.83895 -25.07091,5.75958 -25.83717,5.75958c-13.60409,-7.93643 -20.8464,-12.35998 -21.72462,-13.2756c-0.47518,-14.7734 -0.71162,-22.92878 -0.71162,-24.46385c-0.21895,-0.44032 -0.32836,-0.76881 -0.32836,-0.98776c14.04186,-10.67821 21.30166,-16.01981 21.77684,-16.01981c0.06473,0 0.26376,0 0.32849,0zM289.10202,144.91631c-0.21882,1.46294 -0.54731,6.78462 -0.98763,15.96262l12.2332,2.74408c2.92575,-9.14314 4.38869,-14.02437 4.38869,-14.64637c-9.72786,-2.92588 -14.94,-4.38882 -15.63426,-4.38882c0,0.10954 0,0.21895 0,0.32849z" fill="url(#color-32)" stroke="url(#color-33)"/></g><g stroke-width="3.36683"><path d="M80.1547,177.60819l20.66,15.257c-2.84328,12.98529 -4.64224,19.47576 -5.40083,19.47576c-0.15907,0 -3.95015,3.19155 -11.37349,9.57249c-4.61211,-0.22137 -9.88834,-0.52012 -15.8264,-0.90056l-0.61689,17.06017c-1.29378,0.37828 -6.88586,0.77366 -16.77432,1.18411c-1.20135,0 -1.801,-3.39569 -1.801,-10.18912c-2.17915,-28.11552 -3.26879,-43.27791 -3.26879,-45.48949c3.69648,-0.7909 15.1624,-2.78098 34.40172,-5.97036zM67.31342,191.06636v19.75944c7.77136,-1.39055 11.65717,-2.19639 11.65717,-2.41776l2.70144,-11.65717c-3.82338,-1.57963 -8.60949,-3.47523 -14.35861,-5.68451z" fill="url(#color-34)" stroke="url(#color-35)"/><path d="M113.41966,191.91739c18.76657,2.5919 28.14769,4.18659 28.14769,4.78624c7.39308,6.35081 11.08969,9.7465 11.08969,10.18925c-3.00235,9.38112 -4.70888,15.08503 -5.11933,17.10524c3.00235,6.66666 4.70671,10.64694 5.11933,11.94289c0,0.37828 -4.89795,1.38838 -14.69169,3.03248c-0.12473,-0.53722 -1.02517,-1.7387 -2.6994,-3.602c-13.52264,2.58973 -20.80401,3.88568 -21.84629,3.88568l-7.20196,-19.47576l15.87376,-8.38825c2.55973,0.41058 6.55507,0.61689 11.98821,0.61689c0,-0.69425 0.09664,-2.79617 0.28572,-6.3014c-0.91767,0 -9.09948,0.59965 -24.54568,1.79883l-0.28585,-0.61459c2.14928,-9.98294 3.44306,-14.97549 3.88581,-14.97549zM123.2757,219.7814c0,0.34815 1.01227,4.04258 3.03248,11.08764c0.09677,0 0.19125,0 0.28585,0c3.98028,-2.58986 5.97036,-4.29626 5.97036,-5.11729c0.20427,-1.68917 0.41058,-3.38063 0.61689,-5.06979c-0.75873,0 -4.05982,-0.30091 -9.90557,-0.90056z" fill="url(#color-36)" stroke="url(#color-37)"/><path d="M191.22827,191.91739c6.25403,3.5074 10.09248,5.78128 11.51533,6.82369c-5.11729,10.64694 -7.86609,16.06501 -8.24641,16.25408c-0.10967,0 -0.2192,0 -0.33104,0c-2.25869,-1.97501 -4.5175,-3.94798 -6.77632,-5.92312c-2.66927,3.25385 -5.33853,6.50771 -8.0078,9.76156l0.90056,17.76936c-0.41058,0.38045 -5.63944,1.26378 -15.68469,2.6542c-0.38045,-2.7165 -2.8434,-16.03283 -7.39321,-39.94657c0,-0.37828 6.60231,-1.35838 19.8068,-2.93801c0.22137,0.25367 0.82307,3.20662 1.801,8.86113c7.89826,-8.87619 12.03749,-13.31633 12.41577,-13.31633z" fill="url(#color-38)" stroke="url(#color-39)"/><path d="M220.74927,177.60819c6.95046,1.23148 13.90092,2.46296 20.85125,3.6966l-1.99008,15.82652c4.13718,-0.22137 7.16966,-0.33321 9.09744,-0.33321c1.0101,0 2.02238,0 3.03248,0c0.22137,-0.10954 0.44275,-0.2192 0.66412,-0.33091l0.33091,0.66412c-0.66412,9.60249 -1.23148,15.0055 -1.7064,16.20467l-0.66195,-0.37815c-0.47492,0 -4.73888,-0.22137 -12.79404,-0.66412c-0.44275,7.42538 -0.77583,16.30145 -0.99504,26.63253l-0.66412,0.33091c-10.17201,-0.664 -16.23697,-1.23148 -18.19705,-1.7064c0.11184,-0.44275 0.22137,-0.88333 0.33308,-1.32608c0,-2.7488 0.44058,-11.27876 1.32608,-25.58796c-8.53009,-0.47505 -12.79404,-1.0424 -12.79404,-1.70653c0.44275,-10.55233 1.0101,-15.8264 1.70653,-15.8264l12.46083,2.36835c0,-1.35825 0,-2.71663 0,-4.07488c0,-3.31833 -0.1246,-7.80366 -0.37828,-13.45804c0.25367,0 0.37828,-0.10967 0.37828,-0.33104z" fill="url(#color-40)" stroke="url(#color-41)"/><path d="M279.37443,191.93463c0.98648,0.09664 0.98866,-0.99083 0.75004,0.74149c-0.94129,6.87297 -2.60479,13.57192 -3.97377,20.32041c-0.27295,2.34474 -2.9809,6.40877 -0.95431,6.97408c4.41448,1.29799 14.12229,-1.9902 14.12229,-2.65433c1.7687,-10.92844 2.98512,-17.058 3.64707,-18.38395c11.65717,2.40065 18.11751,3.82121 19.38129,4.26396c-6.79139,23.34638 -10.51812,35.5086 -11.18224,36.48653c-11.87841,8.34088 -18.56013,12.95299 -20.04529,13.83849c-0.44275,0 -8.0078,-1.86547 -22.69745,-5.59221c0,-0.11171 0,-0.22137 0,-0.33091c3.88581,-8.56239 6.3014,-12.84345 7.2492,-12.84345l14.45321,7.25124l6.91816,-11.84624c-6.22186,1.54745 -9.83893,2.32112 -10.8512,2.32112c-6.1445,-3.19155 -12.28886,-6.38081 -18.43336,-9.57236c2.24375,-20.5977 2.32967,-28.76675 4.26613,-30.89649c0.49216,-1.18424 14.73037,-0.14401 17.35023,-0.07737z" fill="url(#color-42)" stroke="url(#color-43)"/></g><path d="M402.89338,115.29216c22.46062,11.35549 34.00723,17.0354 34.63127,17.0354c0,0.99759 -4.68232,10.01409 -14.04276,27.04949c-0.21652,0 -0.43726,0 -0.65366,0c-0.75145,0 -11.51265,-5.0855 -32.29228,-15.25674l-10.57442,14.13187c17.90571,8.60898 39.65319,19.59526 65.23387,32.94593c-11.60597,20.65643 -19.8414,34.38078 -24.70629,41.18558l-52.885,4.67811c-24.14583,-16.28408 -36.90655,-24.7105 -38.28191,-25.27096c0,-0.22074 0,-0.43713 0,-0.65787c0,-1.74483 4.89885,-9.76373 14.69641,-24.05263c0.4033,0 0.81081,0 1.21833,0c3.8673,2.30937 16.00385,8.95292 36.40571,19.93485l12.35729,-14.03842c-37.50084,-19.09429 -58.28047,-29.88945 -62.33442,-32.3856c0,-0.18678 0,-0.37355 0,-0.56033c11.91582,-23.21194 18.40655,-34.97508 19.46785,-35.28492c31.01011,-6.30395 48.26204,-9.45376 51.76,-9.45376z" fill="url(#color-44)" stroke="url(#color-45)" stroke-width="6.6502"/></g></g></g></g></svg>