<svg version="1.1" xmlns="http://www.w3.org/2000/svg" xmlns:xlink="http://www.w3.org/1999/xlink" width="478.72155" height="363.48648" viewBox="0,0,478.72155,363.48648"><defs><linearGradient x1="17.64856" y1="12.59594" x2="17.64856" y2="35.81291" gradientUnits="userSpaceOnUse" id="color-1"><stop offset="0" stop-color="#7f7f7f"/><stop offset="1" stop-color="#2b2a2b"/></linearGradient><radialGradient cx="29.59647" cy="30.67036" r="30.8368" gradientUnits="userSpaceOnUse" id="color-2"><stop offset="0" stop-color="#000000" stop-opacity="0"/><stop offset="1" stop-color="#000000" stop-opacity="0"/></radialGradient><linearGradient x1="41.481" y1="17.99845" x2="41.481" y2="35.81291" gradientUnits="userSpaceOnUse" id="color-3"><stop offset="0" stop-color="#7f7f7f"/><stop offset="1" stop-color="#2b2a2b"/></linearGradient><radialGradient cx="40.36954" cy="31.72984" r="17.68186" gradientUnits="userSpaceOnUse" id="color-4"><stop offset="0" stop-color="#000000" stop-opacity="0"/><stop offset="1" stop-color="#000000" stop-opacity="0"/></radialGradient><linearGradient x1="60.49891" y1="17.99845" x2="60.49891" y2="35.81291" gradientUnits="userSpaceOnUse" id="color-5"><stop offset="0" stop-color="#7f7f7f"/><stop offset="1" stop-color="#2b2a2b"/></linearGradient><radialGradient cx="63.6879" cy="25.84927" r="15.58959" gradientUnits="userSpaceOnUse" id="color-6"><stop offset="0" stop-color="#000000" stop-opacity="0"/><stop offset="1" stop-color="#000000" stop-opacity="0"/></radialGradient><linearGradient x1="75.24578" y1="10.84821" x2="75.24578" y2="35.81291" gradientUnits="userSpaceOnUse" id="color-7"><stop offset="0" stop-color="#7f7f7f"/><stop offset="1" stop-color="#2b2a2b"/></linearGradient><radialGradient cx="71.96763" cy="26.76819" r="20.76895" gradientUnits="userSpaceOnUse" id="color-8"><stop offset="0" stop-color="#000000" stop-opacity="0"/><stop offset="1" stop-color="#000000" stop-opacity="0"/></radialGradient><linearGradient x1="89.81473" y1="18.01621" x2="89.81473" y2="35.81291" gradientUnits="userSpaceOnUse" id="color-9"><stop offset="0" stop-color="#7f7f7f"/><stop offset="1" stop-color="#2b2a2b"/></linearGradient><radialGradient cx="81.83466" cy="29.0644" r="21.98169" gradientUnits="userSpaceOnUse" id="color-10"><stop offset="0" stop-color="#000000" stop-opacity="0"/><stop offset="1" stop-color="#000000" stop-opacity="0"/></radialGradient><linearGradient x1="17.22402" y1="35.1701" x2="17.22402" y2="55.21042" gradientUnits="userSpaceOnUse" id="color-11"><stop offset="0" stop-color="#7f7f7f"/><stop offset="1" stop-color="#2b2a2b"/></linearGradient><radialGradient cx="24.09722" cy="45.46682" r="21.83466" gradientUnits="userSpaceOnUse" id="color-12"><stop offset="0" stop-color="#000000" stop-opacity="0"/><stop offset="1" stop-color="#000000" stop-opacity="0"/></radialGradient><linearGradient x1="35.47793" y1="39.82161" x2="35.47793" y2="55.21042" gradientUnits="userSpaceOnUse" id="color-13"><stop offset="0" stop-color="#7f7f7f"/><stop offset="1" stop-color="#2b2a2b"/></linearGradient><radialGradient cx="41.87113" cy="45.1" r="18.30018" gradientUnits="userSpaceOnUse" id="color-14"><stop offset="0" stop-color="#000000" stop-opacity="0"/><stop offset="1" stop-color="#000000" stop-opacity="0"/></radialGradient><linearGradient x1="51.90598" y1="39.82161" x2="51.90598" y2="55.21042" gradientUnits="userSpaceOnUse" id="color-15"><stop offset="0" stop-color="#7f7f7f"/><stop offset="1" stop-color="#2b2a2b"/></linearGradient><radialGradient cx="55.03246" cy="46.77734" r="13.95985" gradientUnits="userSpaceOnUse" id="color-16"><stop offset="0" stop-color="#000000" stop-opacity="0"/><stop offset="1" stop-color="#000000" stop-opacity="0"/></radialGradient><linearGradient x1="68.057" y1="35.1701" x2="68.057" y2="55.21042" gradientUnits="userSpaceOnUse" id="color-17"><stop offset="0" stop-color="#7f7f7f"/><stop offset="1" stop-color="#2b2a2b"/></linearGradient><radialGradient cx="75.23754" cy="43.70129" r="22.51992" gradientUnits="userSpaceOnUse" id="color-18"><stop offset="0" stop-color="#000000" stop-opacity="0"/><stop offset="1" stop-color="#000000" stop-opacity="0"/></radialGradient><linearGradient x1="86.06398" y1="39.66925" x2="86.06398" y2="59.84729" gradientUnits="userSpaceOnUse" id="color-19"><stop offset="0" stop-color="#7f7f7f"/><stop offset="1" stop-color="#2b2a2b"/></linearGradient><radialGradient cx="77.80528" cy="45.17383" r="23.84621" gradientUnits="userSpaceOnUse" id="color-20"><stop offset="0" stop-color="#000000" stop-opacity="0"/><stop offset="1" stop-color="#000000" stop-opacity="0"/></radialGradient><linearGradient x1="119.28829" y1="14.91294" x2="119.28829" y2="54.49677" gradientUnits="userSpaceOnUse" id="color-21"><stop offset="0" stop-color="#7f7f7f"/><stop offset="1" stop-color="#2b2a2b"/></linearGradient><radialGradient cx="120.63677" cy="30.86126" r="29.99147" gradientUnits="userSpaceOnUse" id="color-22"><stop offset="0" stop-color="#000000" stop-opacity="0"/><stop offset="1" stop-color="#000000" stop-opacity="0"/></radialGradient><linearGradient x1="3.70822" y1="11.39621" x2="3.70822" y2="34.61319" gradientUnits="userSpaceOnUse" id="color-23"><stop offset="0" stop-color="#f96e91"/><stop offset="1" stop-color="#ff3183"/></linearGradient><radialGradient cx="29.09282" cy="29.47063" r="30.8368" gradientUnits="userSpaceOnUse" id="color-24"><stop offset="0" stop-color="#000000" stop-opacity="0"/><stop offset="1" stop-color="#000000" stop-opacity="0"/></radialGradient><linearGradient x1="32.23954" y1="16.79871" x2="32.23954" y2="34.61319" gradientUnits="userSpaceOnUse" id="color-25"><stop offset="0" stop-color="#31c00a"/><stop offset="1" stop-color="#a0d41c"/></linearGradient><radialGradient cx="39.86589" cy="30.5301" r="17.68186" gradientUnits="userSpaceOnUse" id="color-26"><stop offset="0" stop-color="#000000" stop-opacity="0"/><stop offset="1" stop-color="#000000" stop-opacity="0"/></radialGradient><linearGradient x1="51.42728" y1="16.79871" x2="51.42728" y2="34.61319" gradientUnits="userSpaceOnUse" id="color-27"><stop offset="0" stop-color="#00c2ff"/><stop offset="1" stop-color="#00acf2"/></linearGradient><radialGradient cx="63.18425" cy="24.64955" r="15.58959" gradientUnits="userSpaceOnUse" id="color-28"><stop offset="0" stop-color="#000000" stop-opacity="0"/><stop offset="1" stop-color="#000000" stop-opacity="0"/></radialGradient><linearGradient x1="74.74213" y1="9.64848" x2="74.74213" y2="34.61319" gradientUnits="userSpaceOnUse" id="color-29"><stop offset="0" stop-color="#f96e91"/><stop offset="1" stop-color="#ff3183"/></linearGradient><radialGradient cx="71.46399" cy="25.56846" r="20.76895" gradientUnits="userSpaceOnUse" id="color-30"><stop offset="0" stop-color="#000000" stop-opacity="0"/><stop offset="1" stop-color="#000000" stop-opacity="0"/></radialGradient><linearGradient x1="89.31109" y1="16.81648" x2="89.31109" y2="34.61319" gradientUnits="userSpaceOnUse" id="color-31"><stop offset="0" stop-color="#31c00a"/><stop offset="1" stop-color="#a0d41c"/></linearGradient><radialGradient cx="81.33101" cy="27.86466" r="21.98169" gradientUnits="userSpaceOnUse" id="color-32"><stop offset="0" stop-color="#000000" stop-opacity="0"/><stop offset="1" stop-color="#000000" stop-opacity="0"/></radialGradient><linearGradient x1="16.72037" y1="33.97037" x2="16.72037" y2="54.01069" gradientUnits="userSpaceOnUse" id="color-33"><stop offset="0" stop-color="#00c2ff"/><stop offset="1" stop-color="#00acf2"/></linearGradient><radialGradient cx="23.59358" cy="44.2671" r="21.83466" gradientUnits="userSpaceOnUse" id="color-34"><stop offset="0" stop-color="#000000" stop-opacity="0"/><stop offset="1" stop-color="#000000" stop-opacity="0"/></radialGradient><linearGradient x1="34.97428" y1="38.62189" x2="34.97428" y2="54.01069" gradientUnits="userSpaceOnUse" id="color-35"><stop offset="0" stop-color="#f96e91"/><stop offset="1" stop-color="#ff3183"/></linearGradient><radialGradient cx="41.36749" cy="43.90026" r="18.30018" gradientUnits="userSpaceOnUse" id="color-36"><stop offset="0" stop-color="#000000" stop-opacity="0"/><stop offset="1" stop-color="#000000" stop-opacity="0"/></radialGradient><linearGradient x1="51.40234" y1="38.62189" x2="51.40234" y2="54.01069" gradientUnits="userSpaceOnUse" id="color-37"><stop offset="0" stop-color="#31c00a"/><stop offset="1" stop-color="#a0d41c"/></linearGradient><radialGradient cx="54.52881" cy="45.57761" r="13.95985" gradientUnits="userSpaceOnUse" id="color-38"><stop offset="0" stop-color="#000000" stop-opacity="0"/><stop offset="1" stop-color="#000000" stop-opacity="0"/></radialGradient><linearGradient x1="67.55336" y1="33.97037" x2="67.55336" y2="54.01069" gradientUnits="userSpaceOnUse" id="color-39"><stop offset="0" stop-color="#00c2ff"/><stop offset="1" stop-color="#00acf2"/></linearGradient><radialGradient cx="74.73389" cy="42.50157" r="22.51992" gradientUnits="userSpaceOnUse" id="color-40"><stop offset="0" stop-color="#000000" stop-opacity="0"/><stop offset="1" stop-color="#000000" stop-opacity="0"/></radialGradient><linearGradient x1="85.56033" y1="38.46952" x2="85.56033" y2="58.64755" gradientUnits="userSpaceOnUse" id="color-41"><stop offset="0" stop-color="#f96e91"/><stop offset="1" stop-color="#ff3183"/></linearGradient><radialGradient cx="77.30163" cy="43.9741" r="23.84621" gradientUnits="userSpaceOnUse" id="color-42"><stop offset="0" stop-color="#000000" stop-opacity="0"/><stop offset="1" stop-color="#000000" stop-opacity="0"/></radialGradient><linearGradient x1="99.95113" y1="13.71321" x2="99.95113" y2="53.29704" gradientUnits="userSpaceOnUse" id="color-43"><stop offset="0" stop-color="#ff9400"/><stop offset="1" stop-color="#ffef80"/></linearGradient><radialGradient cx="120.13314" cy="29.66153" r="29.99147" gradientUnits="userSpaceOnUse" id="color-44"><stop offset="0" stop-color="#000000" stop-opacity="0"/><stop offset="1" stop-color="#000000" stop-opacity="0"/></radialGradient></defs><g transform="translate(-1.75949,3.4102)"><g data-paper-data="{&quot;isPaintingLayer&quot;:true}" fill-rule="nonzero" stroke-miterlimit="10" stroke-dasharray="" stroke-dashoffset="0" style="mix-blend-mode: normal"><text transform="translate(235.99675,87.85713) scale(0.41333,0.41333)" font-size="40" xml:space="preserve" fill="#000000" fill-rule="nonzero" stroke="none" stroke-width="1" stroke-linecap="butt" stroke-linejoin="miter" stroke-miterlimit="10" stroke-dasharray="" stroke-dashoffset="0" font-family="Sans Serif" font-weight="normal" text-anchor="start" style="mix-blend-mode: normal"><tspan x="0" dy="0">0.1.6 - prodbysiroo</tspan><tspan x="0" dy="46.150000000000006px">0.1.7 - woadwii2</tspan><tspan x="0" dy="46.150000000000006px">0.1.8 - DoritoDude123</tspan><tspan x="0" dy="46.150000000000006px">0.1.9 -</tspan><tspan x="0" dy="46.150000000000006px">0.2.0 -</tspan><tspan x="0" dy="46.150000000000006px">0.2.1 -</tspan><tspan x="0" dy="46.150000000000006px">0.2.2 -</tspan><tspan x="0" dy="46.150000000000006px">0.2.3 -</tspan><tspan x="0" dy="46.150000000000006px">0.2.4 -</tspan><tspan x="0" dy="46.150000000000006px">0.2.5 -</tspan><tspan x="0" dy="46.150000000000006px">0.2.6 -</tspan><tspan x="0" dy="46.150000000000006px">0.2.7 -</tspan><tspan x="0" dy="46.150000000000006px">0.2.8 -</tspan><tspan x="0" dy="46.150000000000006px">0.2.9 -</tspan><tspan x="0" dy="46.150000000000006px">0.3.0 -</tspan></text><path d="M141.57278,4.63207v62.5" fill="none" stroke="#000000" stroke-width="2.5" stroke-linecap="round" stroke-linejoin="miter"/><text transform="translate(145.99999,32.00707) scale(0.81419,0.81419)" font-size="40" xml:space="preserve" fill="#000000" fill-rule="nonzero" stroke="none" stroke-width="1" stroke-linecap="butt" stroke-linejoin="miter" stroke-miterlimit="10" stroke-dasharray="" stroke-dashoffset="0" font-family="Sans Serif" font-weight="normal" text-anchor="start" style="mix-blend-mode: normal"><tspan x="0" dy="0">Dibs List</tspan></text><text transform="translate(148.99999,49.50707) scale(0.42416,0.42416)" font-size="40" xml:space="preserve" fill="#000000" fill-rule="nonzero" stroke="none" stroke-width="1" stroke-linecap="butt" stroke-linejoin="miter" stroke-miterlimit="10" stroke-dasharray="" stroke-dashoffset="0" font-family="Sans Serif" font-weight="normal" text-anchor="start" style="mix-blend-mode: normal"><tspan x="0" dy="0">You must be a team member to call dibs.</tspan></text><path d="M40.83454,143.24344l0.1449,0.1449" fill="none" stroke="#6dbee5" stroke-width="0.5" stroke-linecap="round" stroke-linejoin="miter"/><path d="M112.32884,135.23742l0.10395,0.10395" fill="none" stroke="#b0faff" stroke-width="0.5" stroke-linecap="round" stroke-linejoin="miter"/><path d="M110.24994,134.63107l0.10395,0.10395" fill="none" stroke="#b0faff" stroke-width="0.5" stroke-linecap="round" stroke-linejoin="miter"/><g stroke-linecap="round" stroke-linejoin="round"><g><g stroke-width="3.89753"><path d="M12.16519,12.59594c3.3644,0.23775 5.04665,0.45128 5.04665,0.64136c1.29562,3.4833 2.08658,5.70659 2.37129,6.66983c0.03557,0 0.07197,0 0.10753,0c0.30898,-0.66643 1.49138,-2.49666 3.54804,-5.49228c0.03557,0 0.07197,0 0.10757,0c3.22127,0.20219 4.8323,0.42136 4.8323,0.65912c0.96893,6.62779 1.9378,13.25553 2.90669,19.88328c0,0.1189 -2.54435,0.40359 -7.63223,0.85567l-0.10674,-0.21431c-0.28552,-6.03897 -0.42866,-9.73015 -0.42866,-11.0735c-0.03557,0 -0.07117,0 -0.10674,0l-4.4045,3.86988h-0.10674c-0.14318,-0.07113 -1.14763,-1.64659 -3.01343,-4.72555c-0.03561,0 -0.07201,0 -0.10757,0c-2.29447,6.68116 -3.54804,10.22916 -3.76236,10.64566c-0.07117,0 -0.14235,0 -0.21352,0c-4.102,-1.85448 -6.43203,-2.96653 -6.99088,-3.33448c0,-0.03561 0,-0.07117 0,-0.10757c5.08868,-11.95909 7.73981,-18.05147 7.95333,-18.27711z" fill="url(#color-1)" stroke="url(#color-2)"/><path d="M35.45412,17.99845c7.06126,0.97535 10.59229,1.57546 10.59229,1.8011c2.78132,2.38988 4.17239,3.66769 4.17239,3.83431c-1.12982,3.5302 -1.77118,5.67667 -1.92565,6.43688c1.12904,2.50878 1.77118,4.00659 1.92565,4.49426c0,0.14235 -1.84235,0.52245 -5.52785,1.14115c-0.04773,-0.20219 -0.38658,-0.6543 -1.01661,-1.35546c-5.0879,0.97453 -7.82795,1.4622 -8.22023,1.4622l-2.71093,-7.32895l5.97427,-3.15656c0.96241,0.15447 2.46669,0.23212 4.51123,0.23212c0,-0.26125 0.03561,-1.05221 0.10678,-2.37129c-0.34454,0 -3.4235,0.22564 -9.23683,0.67692c-0.03557,-0.07682 -0.07117,-0.15447 -0.10674,-0.23129c0.80794,-3.75671 1.29562,-5.63541 1.4622,-5.63541zM39.16311,28.48397c0,0.13102 0.38011,1.52126 1.14115,4.17239c0.03557,0 0.07117,0 0.10674,0c1.49781,-0.97457 2.24674,-1.61671 2.24674,-1.92565l0.23212,-1.90788c-0.28548,0 -1.52773,-0.11322 -3.72675,-0.33886z" fill="url(#color-3)" stroke="url(#color-4)"/><path d="M64.73357,17.99845c2.35431,1.31986 3.79874,2.17553 4.33332,2.56779c-1.92565,4.00659 -2.96006,6.04544 -3.10241,6.11662c-0.04204,0 -0.0833,0 -0.12533,0l-2.5492,-2.22893c-1.00532,1.22445 -2.00977,2.44893 -3.01426,3.67337c0.03802,0.74324 0.30167,5.94435 0.33886,6.6868c-0.15447,0.14314 -2.12215,0.47556 -5.9023,0.99881c-0.14231,-1.02225 -1.06998,-6.03333 -2.78132,-15.03236c0,-0.14235 2.48449,-0.51113 7.45354,-1.10555c0.0833,0.09541 0.30894,1.20664 0.67771,3.33448c2.97139,-3.34016 4.52904,-5.01103 4.67139,-5.01103z" fill="url(#color-5)" stroke="url(#color-6)"/><path d="M72.97237,10.84821c2.33568,0.36882 4.67218,0.73677 7.00785,1.10559c-0.87991,3.36444 -1.45656,5.04665 -1.72993,5.04665c-3.6847,-0.24992 -5.52785,-0.49337 -5.52785,-0.73112v-5.17118c0.03561,-0.16662 0.1189,-0.24992 0.24992,-0.24992zM71.01112,19.33611c0.03561,0 0.07117,0 0.10678,0c5.42106,0.98668 8.13124,1.56335 8.13124,1.72993c-1.5577,8.82032 -2.5023,13.73674 -2.83551,14.74687c-1.8844,0 -3.768,0 -5.65239,0c-0.16662,0 -0.24992,-0.0833 -0.24992,-0.24988c0.16658,-5.40899 0.33321,-10.81794 0.4998,-16.22692z" fill="url(#color-7)" stroke="url(#color-8)"/><path d="M87.71924,18.01621c4.51771,1.21316 6.91324,1.94992 7.1866,2.21117c2.48449,3.51887 3.88121,5.54644 4.19018,6.08101c-1.6046,5.0879 -2.52575,7.63223 -2.76355,7.63223c-5.34993,1.24793 -8.14984,1.87227 -8.39892,1.87227c-4.4223,-2.57991 -6.77656,-4.01788 -7.06206,-4.31551c-0.15447,-4.80241 -0.23133,-7.45349 -0.23133,-7.9525c-0.07117,-0.14314 -0.10674,-0.24992 -0.10674,-0.32109c4.56461,-3.47119 6.92456,-5.20758 7.07902,-5.20758c0.02104,0 0.08574,0 0.10678,0zM87.38035,24.54291c-0.07113,0.47556 -0.17791,2.20549 -0.32105,5.18899l3.97667,0.89202c0.95108,-2.97217 1.42664,-4.55892 1.42664,-4.76111c-3.16225,-0.95112 -4.85657,-1.42668 -5.08225,-1.42668c0,0.03561 0,0.07117 0,0.10678z" fill="url(#color-9)" stroke="url(#color-10)"/></g><g stroke-width="3.36683"><path d="M19.45753,35.1701l6.71598,4.95962c-0.92427,4.22115 -1.50906,6.33102 -1.75565,6.33102c-0.05171,0 -1.28408,1.03748 -3.69719,3.11174c-1.49927,-0.07197 -3.21441,-0.16907 -5.1447,-0.29275l-0.20053,5.54578c-0.42057,0.12297 -2.23839,0.25149 -5.45286,0.38492c-0.39053,0 -0.58545,-1.10384 -0.58545,-3.31219c-0.70838,-9.13956 -1.06259,-14.06841 -1.06259,-14.78734c1.20162,-0.2571 4.92887,-0.90401 11.18301,-1.9408zM15.2832,39.54496v6.42323c2.52625,-0.45203 3.78941,-0.71398 3.78941,-0.78594l0.87816,-3.78941c-1.24287,-0.5135 -2.7987,-1.12969 -4.66757,-1.84787z" fill="url(#color-11)" stroke="url(#color-12)"/><path d="M30.27102,39.82161c6.10047,0.84255 9.15001,1.36094 9.15001,1.55588c2.40328,2.06446 3.60494,3.16831 3.60494,3.31223c-0.97598,3.04954 -1.53073,4.90372 -1.66414,5.56042c0.97598,2.16714 1.53001,3.46102 1.66414,3.88229c0,0.12297 -1.59219,0.45132 -4.77585,0.98577c-0.04055,-0.17464 -0.33325,-0.5652 -0.87749,-1.17091c-4.39582,0.84185 -6.76279,1.26312 -7.1016,1.26312l-2.34116,-6.33102l5.1601,-2.72678c0.8321,0.13347 2.13087,0.20053 3.89702,0.20053c0,-0.22568 0.03142,-0.90895 0.09288,-2.04841c-0.29831,0 -2.95798,0.19493 -7.9791,0.58475l-0.09292,-0.19979c0.69867,-3.24517 1.11924,-4.86811 1.26317,-4.86811zM33.47494,48.87941c0,0.11318 0.32906,1.31412 0.98577,3.60428c0.03146,0 0.06216,0 0.09292,0c1.29387,-0.84189 1.9408,-1.3966 1.9408,-1.66349c0.0664,-0.5491 0.13347,-1.09895 0.20053,-1.64804c-0.24664,0 -1.31973,-0.09782 -3.22002,-0.29275z" fill="url(#color-13)" stroke="url(#color-14)"/><path d="M55.56438,39.82161c2.03301,1.14016 3.28077,1.87933 3.74331,2.21819c-1.66349,3.46102 -2.55704,5.22228 -2.68067,5.28374c-0.03565,0 -0.07126,0 -0.10761,0c-0.73424,-0.64202 -1.46851,-1.28338 -2.20279,-1.92544c-0.8677,1.05774 -1.7354,2.11547 -2.60311,3.1732l0.29275,5.77631c-0.13347,0.12367 -1.83322,0.41081 -5.09864,0.8628c-0.12367,-0.88306 -0.92431,-5.21182 -2.40332,-12.98548c0,-0.12297 2.14622,-0.44157 6.43863,-0.95507c0.07197,0.08246 0.26756,1.04238 0.58545,2.8805c2.5675,-2.8854 3.91304,-4.32876 4.03601,-4.32876z" fill="url(#color-15)" stroke="url(#color-16)"/><path d="M65.16081,35.1701c2.2594,0.40032 4.51879,0.80064 6.77814,1.20166l-0.64691,5.14475c1.34488,-0.07197 2.33065,-0.10832 2.95731,-0.10832c0.32835,0 0.65742,0 0.98577,0c0.07197,-0.03561 0.14392,-0.07126 0.21589,-0.10757l0.10757,0.21589c-0.21589,3.12149 -0.40032,4.87786 -0.5547,5.26767l-0.21518,-0.12293c-0.15438,0 -1.54048,-0.07197 -4.15898,-0.21589c-0.14392,2.41378 -0.2522,5.29913 -0.32346,8.65748l-0.21589,0.10757c-3.30663,-0.21585 -5.27818,-0.40032 -5.91534,-0.5547c0.03635,-0.14392 0.07197,-0.28714 0.10828,-0.43107c0,-0.89356 0.14322,-3.6664 0.43107,-8.31792c-2.77288,-0.15443 -4.15898,-0.33886 -4.15898,-0.55475c0.14392,-3.43026 0.32835,-5.1447 0.55475,-5.1447l4.05066,0.76988c0,-0.44153 0,-0.8831 0,-1.32463c0,-1.07869 -0.04051,-2.53675 -0.12297,-4.37482c0.08246,0 0.12297,-0.03565 0.12297,-0.10761z" fill="url(#color-17)" stroke="url(#color-18)"/><path d="M84.21818,39.82721c0.32067,0.03142 0.32139,-0.32209 0.24382,0.24104c-0.30599,2.23421 -0.84674,4.41185 -1.29176,6.60559c-0.08873,0.7622 -0.969,2.08331 -0.31022,2.26708c1.43502,0.42194 4.59075,-0.64696 4.59075,-0.86285c0.57496,-3.55253 0.97037,-5.54507 1.18556,-5.9761c3.78941,0.78039 5.88949,1.24217 6.3003,1.38609c-2.20769,7.58925 -3.41914,11.54284 -3.63503,11.86073c-3.86134,2.71138 -6.03337,4.21065 -6.51615,4.4985c-0.14392,0 -2.60311,-0.60642 -7.37829,-1.81787c0,-0.03631 0,-0.07197 0,-0.10757c1.26317,-2.78339 2.04841,-4.17503 2.35651,-4.17503l4.69832,2.35717l2.2489,-3.85088c-2.02255,0.50303 -3.19835,0.75452 -3.52742,0.75452c-1.9974,-1.03748 -3.99476,-2.07421 -5.99216,-3.1117c0.72938,-6.69573 0.75731,-9.35125 1.38679,-10.04357c0.15998,-0.38496 4.78842,-0.04682 5.64007,-0.02515z" fill="url(#color-19)" stroke="url(#color-20)"/></g><path d="M124.37066,14.91294c7.30131,3.69134 11.05478,5.53772 11.25764,5.53772c0,0.32428 -1.52209,3.2553 -4.5649,8.79302c-0.07039,0 -0.14214,0 -0.21249,0c-0.24427,0 -3.74243,-1.65315 -10.4973,-4.95953l-3.43745,4.59387c5.82064,2.79854 12.89011,6.36986 21.20567,10.70978c-3.77277,6.71482 -6.44987,11.17621 -8.03131,13.38825l-17.1914,1.52072c-7.84912,-5.29349 -11.99726,-8.03268 -12.44436,-8.21487c0,-0.07176 0,-0.1421 0,-0.21386c0,-0.5672 1.59247,-3.17392 4.77738,-7.81883c0.1311,0 0.26357,0 0.39604,0c1.25715,0.75072 5.20239,2.91034 11.83446,6.48026l4.017,-4.56349c-12.19045,-6.20701 -18.94532,-9.71621 -20.26314,-10.52763c0,-0.06072 0,-0.12143 0,-0.18215c3.87349,-7.54554 5.98345,-11.3694 6.32844,-11.47013c10.0805,-2.04923 15.68861,-3.07315 16.8257,-3.07315z" fill="url(#color-21)" stroke="url(#color-22)" stroke-width="6.6502"/></g><g><g stroke-width="3.89753"><path d="M11.66155,11.39621c3.3644,0.23775 5.04665,0.45128 5.04665,0.64136c1.29562,3.4833 2.08658,5.70659 2.37129,6.66983c0.03557,0 0.07197,0 0.10753,0c0.30898,-0.66643 1.49138,-2.49666 3.54804,-5.49228c0.03557,0 0.07197,0 0.10757,0c3.22127,0.20219 4.8323,0.42136 4.8323,0.65912c0.96893,6.62779 1.9378,13.25553 2.90669,19.88328c0,0.1189 -2.54435,0.40359 -7.63223,0.85567l-0.10674,-0.21431c-0.28552,-6.03897 -0.42866,-9.73015 -0.42866,-11.0735c-0.03557,0 -0.07117,0 -0.10674,0l-4.4045,3.86988h-0.10674c-0.14318,-0.07113 -1.14763,-1.64659 -3.01343,-4.72555c-0.03561,0 -0.07201,0 -0.10757,0c-2.29447,6.68116 -3.54804,10.22916 -3.76236,10.64566c-0.07117,0 -0.14235,0 -0.21352,0c-4.102,-1.85448 -6.43203,-2.96653 -6.99088,-3.33448c0,-0.03561 0,-0.07117 0,-0.10757c5.08868,-11.95909 7.73981,-18.05147 7.95333,-18.27711z" fill="url(#color-23)" stroke="url(#color-24)"/><path d="M34.95048,16.79871c7.06126,0.97535 10.59229,1.57546 10.59229,1.8011c2.78132,2.38988 4.17239,3.66769 4.17239,3.83431c-1.12982,3.5302 -1.77118,5.67667 -1.92565,6.43688c1.12904,2.50878 1.77118,4.00659 1.92565,4.49426c0,0.14235 -1.84235,0.52245 -5.52785,1.14115c-0.04773,-0.20219 -0.38658,-0.6543 -1.01661,-1.35546c-5.0879,0.97453 -7.82795,1.4622 -8.22023,1.4622l-2.71093,-7.32895l5.97427,-3.15656c0.96241,0.15447 2.46669,0.23212 4.51123,0.23212c0,-0.26125 0.03561,-1.05221 0.10678,-2.37129c-0.34454,0 -3.4235,0.22564 -9.23683,0.67692c-0.03557,-0.07682 -0.07117,-0.15447 -0.10674,-0.23129c0.80794,-3.75671 1.29562,-5.63541 1.4622,-5.63541zM38.65947,27.28424c0,0.13102 0.38011,1.52126 1.14115,4.17239c0.03557,0 0.07117,0 0.10674,0c1.49781,-0.97457 2.24674,-1.61671 2.24674,-1.92565l0.23212,-1.90788c-0.28548,0 -1.52773,-0.11322 -3.72675,-0.33886z" fill="url(#color-25)" stroke="url(#color-26)"/><path d="M64.22991,16.79871c2.35431,1.31986 3.79874,2.17553 4.33332,2.56779c-1.92565,4.00659 -2.96006,6.04544 -3.10241,6.11662c-0.04204,0 -0.0833,0 -0.12533,0l-2.5492,-2.22893c-1.00532,1.22445 -2.00977,2.44893 -3.01426,3.67337c0.03802,0.74324 0.30167,5.94435 0.33886,6.6868c-0.15447,0.14314 -2.12215,0.47556 -5.9023,0.99881c-0.14231,-1.02225 -1.06998,-6.03333 -2.78132,-15.03236c0,-0.14235 2.48449,-0.51113 7.45354,-1.10555c0.0833,0.09541 0.30894,1.20664 0.67771,3.33448c2.97139,-3.34016 4.52904,-5.01103 4.67139,-5.01103z" fill="url(#color-27)" stroke="url(#color-28)"/><path d="M72.46873,9.64848c2.33568,0.36882 4.67218,0.73677 7.00785,1.10559c-0.87991,3.36444 -1.45656,5.04665 -1.72993,5.04665c-3.6847,-0.24992 -5.52785,-0.49337 -5.52785,-0.73112v-5.17118c0.03561,-0.16662 0.1189,-0.24992 0.24992,-0.24992zM70.50748,18.13638c0.03561,0 0.07117,0 0.10678,0c5.42106,0.98668 8.13124,1.56335 8.13124,1.72993c-1.5577,8.82032 -2.5023,13.73674 -2.83551,14.74687c-1.8844,0 -3.768,0 -5.65239,0c-0.16662,0 -0.24992,-0.0833 -0.24992,-0.24988c0.16658,-5.40899 0.33321,-10.81794 0.4998,-16.22692z" fill="url(#color-29)" stroke="url(#color-30)"/><path d="M87.2156,16.81648c4.51771,1.21316 6.91324,1.94992 7.1866,2.21117c2.48449,3.51887 3.88121,5.54644 4.19018,6.08101c-1.6046,5.0879 -2.52575,7.63223 -2.76355,7.63223c-5.34993,1.24793 -8.14984,1.87227 -8.39892,1.87227c-4.4223,-2.57991 -6.77656,-4.01788 -7.06206,-4.31551c-0.15447,-4.80241 -0.23133,-7.45349 -0.23133,-7.9525c-0.07117,-0.14314 -0.10674,-0.24992 -0.10674,-0.32109c4.56461,-3.47119 6.92456,-5.20758 7.07902,-5.20758c0.02104,0 0.08574,0 0.10678,0zM86.8767,23.34317c-0.07113,0.47556 -0.17791,2.20549 -0.32105,5.18899l3.97667,0.89202c0.95108,-2.97217 1.42664,-4.55892 1.42664,-4.76111c-3.16225,-0.95112 -4.85657,-1.42668 -5.08225,-1.42668c0,0.03561 0,0.07117 0,0.10678z" fill="url(#color-31)" stroke="url(#color-32)"/></g><g stroke-width="3.36683"><path d="M18.95389,33.97037l6.71598,4.95962c-0.92427,4.22115 -1.50906,6.33102 -1.75565,6.33102c-0.05171,0 -1.28408,1.03748 -3.69719,3.11174c-1.49927,-0.07197 -3.21441,-0.16907 -5.1447,-0.29275l-0.20053,5.54578c-0.42057,0.12297 -2.23839,0.25149 -5.45286,0.38492c-0.39053,0 -0.58545,-1.10384 -0.58545,-3.31219c-0.70838,-9.13956 -1.06259,-14.06841 -1.06259,-14.78734c1.20162,-0.2571 4.92887,-0.90401 11.18301,-1.9408zM14.77956,38.34524v6.42323c2.52625,-0.45203 3.78941,-0.71398 3.78941,-0.78594l0.87816,-3.78941c-1.24287,-0.5135 -2.7987,-1.12969 -4.66757,-1.84787z" fill="url(#color-33)" stroke="url(#color-34)"/><path d="M29.76737,38.62189c6.10047,0.84255 9.15001,1.36094 9.15001,1.55588c2.40328,2.06446 3.60494,3.16831 3.60494,3.31223c-0.97598,3.04954 -1.53073,4.90372 -1.66414,5.56042c0.97598,2.16714 1.53001,3.46102 1.66414,3.88229c0,0.12297 -1.59219,0.45132 -4.77585,0.98577c-0.04055,-0.17464 -0.33325,-0.5652 -0.87749,-1.17091c-4.39582,0.84185 -6.76279,1.26312 -7.1016,1.26312l-2.34116,-6.33102l5.1601,-2.72678c0.8321,0.13347 2.13087,0.20053 3.89702,0.20053c0,-0.22568 0.03142,-0.90895 0.09288,-2.04841c-0.29831,0 -2.95798,0.19493 -7.9791,0.58475l-0.09292,-0.19979c0.69867,-3.24517 1.11924,-4.86811 1.26317,-4.86811zM32.97129,47.67967c0,0.11318 0.32906,1.31412 0.98577,3.60428c0.03146,0 0.06216,0 0.09292,0c1.29387,-0.84189 1.9408,-1.3966 1.9408,-1.66349c0.0664,-0.5491 0.13347,-1.09895 0.20053,-1.64804c-0.24664,0 -1.31973,-0.09782 -3.22002,-0.29275z" fill="url(#color-35)" stroke="url(#color-36)"/><path d="M55.06073,38.62189c2.03301,1.14016 3.28077,1.87933 3.74331,2.21819c-1.66349,3.46102 -2.55704,5.22228 -2.68067,5.28374c-0.03565,0 -0.07126,0 -0.10761,0c-0.73424,-0.64202 -1.46851,-1.28338 -2.20279,-1.92544c-0.8677,1.05774 -1.7354,2.11547 -2.60311,3.1732l0.29275,5.77631c-0.13347,0.12367 -1.83322,0.41081 -5.09864,0.8628c-0.12367,-0.88306 -0.92431,-5.21182 -2.40332,-12.98548c0,-0.12297 2.14622,-0.44157 6.43863,-0.95507c0.07197,0.08246 0.26756,1.04238 0.58545,2.8805c2.5675,-2.8854 3.91304,-4.32876 4.03601,-4.32876z" fill="url(#color-37)" stroke="url(#color-38)"/><path d="M64.65717,33.97037c2.2594,0.40032 4.51879,0.80064 6.77814,1.20166l-0.64691,5.14475c1.34488,-0.07197 2.33065,-0.10832 2.95731,-0.10832c0.32835,0 0.65742,0 0.98577,0c0.07197,-0.03561 0.14392,-0.07126 0.21589,-0.10757l0.10757,0.21589c-0.21589,3.12149 -0.40032,4.87786 -0.5547,5.26767l-0.21518,-0.12293c-0.15438,0 -1.54048,-0.07197 -4.15898,-0.21589c-0.14392,2.41378 -0.2522,5.29913 -0.32346,8.65748l-0.21589,0.10757c-3.30663,-0.21585 -5.27818,-0.40032 -5.91534,-0.5547c0.03635,-0.14392 0.07197,-0.28714 0.10828,-0.43107c0,-0.89356 0.14322,-3.6664 0.43107,-8.31792c-2.77288,-0.15443 -4.15898,-0.33886 -4.15898,-0.55475c0.14392,-3.43026 0.32835,-5.1447 0.55475,-5.1447l4.05066,0.76988c0,-0.44153 0,-0.8831 0,-1.32463c0,-1.07869 -0.04051,-2.53675 -0.12297,-4.37482c0.08246,0 0.12297,-0.03565 0.12297,-0.10761z" fill="url(#color-39)" stroke="url(#color-40)"/><path d="M83.71454,38.62749c0.32067,0.03142 0.32139,-0.32209 0.24382,0.24104c-0.30599,2.23421 -0.84674,4.41185 -1.29176,6.60559c-0.08873,0.7622 -0.969,2.08331 -0.31022,2.26708c1.43502,0.42194 4.59075,-0.64696 4.59075,-0.86285c0.57496,-3.55253 0.97037,-5.54507 1.18556,-5.9761c3.78941,0.78039 5.88949,1.24217 6.3003,1.38609c-2.20769,7.58925 -3.41914,11.54284 -3.63503,11.86073c-3.86134,2.71138 -6.03337,4.21065 -6.51615,4.4985c-0.14392,0 -2.60311,-0.60642 -7.37829,-1.81787c0,-0.03631 0,-0.07197 0,-0.10757c1.26317,-2.78339 2.04841,-4.17503 2.35651,-4.17503l4.69832,2.35717l2.2489,-3.85088c-2.02255,0.50303 -3.19835,0.75452 -3.52742,0.75452c-1.9974,-1.03748 -3.99476,-2.07421 -5.99216,-3.1117c0.72938,-6.69573 0.75731,-9.35125 1.38679,-10.04357c0.15998,-0.38496 4.78842,-0.04682 5.64007,-0.02515z" fill="url(#color-41)" stroke="url(#color-42)"/></g><path d="M123.86702,13.71321c7.30131,3.69134 11.05478,5.53772 11.25764,5.53772c0,0.32428 -1.52209,3.2553 -4.5649,8.79302c-0.07039,0 -0.14214,0 -0.21249,0c-0.24427,0 -3.74243,-1.65315 -10.4973,-4.95953l-3.43745,4.59387c5.82064,2.79854 12.89011,6.36986 21.20567,10.70978c-3.77277,6.71482 -6.44987,11.17621 -8.03131,13.38825l-17.1914,1.52072c-7.84912,-5.29349 -11.99726,-8.03268 -12.44436,-8.21487c0,-0.07176 0,-0.1421 0,-0.21386c0,-0.5672 1.59247,-3.17392 4.77738,-7.81883c0.1311,0 0.26357,0 0.39604,0c1.25715,0.75072 5.20239,2.91034 11.83446,6.48026l4.017,-4.56349c-12.19045,-6.20701 -18.94532,-9.71621 -20.26314,-10.52763c0,-0.06072 0,-0.12143 0,-0.18215c3.87349,-7.54554 5.98345,-11.3694 6.32844,-11.47013c10.0805,-2.04923 15.68861,-3.07315 16.8257,-3.07315z" fill="url(#color-43)" stroke="url(#color-44)" stroke-width="6.6502"/></g></g><text transform="translate(150.40551,65.85436) scale(0.30573,0.32548)" font-size="40" xml:space="preserve" fill="#000000" fill-rule="nonzero" stroke="none" stroke-width="1" stroke-linecap="butt" stroke-linejoin="miter" stroke-miterlimit="10" stroke-dasharray="" stroke-dashoffset="0" font-family="Sans Serif" font-weight="normal" text-anchor="start" style="mix-blend-mode: normal"><tspan x="0" dy="0">Sub-versions (e.g. 0.1.0.5) will not be added to this list.</tspan></text></g></g></svg>