<svg version="1.1" xmlns="http://www.w3.org/2000/svg" xmlns:xlink="http://www.w3.org/1999/xlink" width="476.64897" height="355.49189" viewBox="0,0,476.64897,355.49189"><defs><linearGradient x1="361.05138" y1="6.46688" x2="361.05138" y2="28.65907" gradientUnits="userSpaceOnUse" id="color-1"><stop offset="0" stop-color="#7f7f7f"/><stop offset="1" stop-color="#2b2a2b"/></linearGradient><radialGradient cx="372.47192" cy="23.74351" r="29.47568" gradientUnits="userSpaceOnUse" id="color-2"><stop offset="0" stop-color="#000000" stop-opacity="0"/><stop offset="1" stop-color="#000000" stop-opacity="0"/></radialGradient><linearGradient x1="383.83185" y1="11.63093" x2="383.83185" y2="28.65907" gradientUnits="userSpaceOnUse" id="color-3"><stop offset="0" stop-color="#7f7f7f"/><stop offset="1" stop-color="#2b2a2b"/></linearGradient><radialGradient cx="382.76947" cy="24.75622" r="16.90139" gradientUnits="userSpaceOnUse" id="color-4"><stop offset="0" stop-color="#000000" stop-opacity="0"/><stop offset="1" stop-color="#000000" stop-opacity="0"/></radialGradient><linearGradient x1="402.01034" y1="11.63093" x2="402.01034" y2="28.65907" gradientUnits="userSpaceOnUse" id="color-5"><stop offset="0" stop-color="#7f7f7f"/><stop offset="1" stop-color="#2b2a2b"/></linearGradient><radialGradient cx="405.05857" cy="19.13522" r="14.90147" gradientUnits="userSpaceOnUse" id="color-6"><stop offset="0" stop-color="#000000" stop-opacity="0"/><stop offset="1" stop-color="#000000" stop-opacity="0"/></radialGradient><linearGradient x1="416.10629" y1="4.7963" x2="416.10629" y2="28.65907" gradientUnits="userSpaceOnUse" id="color-7"><stop offset="0" stop-color="#7f7f7f"/><stop offset="1" stop-color="#2b2a2b"/></linearGradient><radialGradient cx="412.97284" cy="20.01358" r="19.85222" gradientUnits="userSpaceOnUse" id="color-8"><stop offset="0" stop-color="#000000" stop-opacity="0"/><stop offset="1" stop-color="#000000" stop-opacity="0"/></radialGradient><linearGradient x1="430.03217" y1="11.64791" x2="430.03217" y2="28.65907" gradientUnits="userSpaceOnUse" id="color-9"><stop offset="0" stop-color="#7f7f7f"/><stop offset="1" stop-color="#2b2a2b"/></linearGradient><radialGradient cx="422.40434" cy="22.20843" r="21.01143" gradientUnits="userSpaceOnUse" id="color-10"><stop offset="0" stop-color="#000000" stop-opacity="0"/><stop offset="1" stop-color="#000000" stop-opacity="0"/></radialGradient><linearGradient x1="360.64558" y1="28.04463" x2="360.64558" y2="47.20038" gradientUnits="userSpaceOnUse" id="color-11"><stop offset="0" stop-color="#7f7f7f"/><stop offset="1" stop-color="#2b2a2b"/></linearGradient><radialGradient cx="367.2154" cy="37.88686" r="20.87089" gradientUnits="userSpaceOnUse" id="color-12"><stop offset="0" stop-color="#000000" stop-opacity="0"/><stop offset="1" stop-color="#000000" stop-opacity="0"/></radialGradient><linearGradient x1="378.09376" y1="32.49083" x2="378.09376" y2="47.20038" gradientUnits="userSpaceOnUse" id="color-13"><stop offset="0" stop-color="#7f7f7f"/><stop offset="1" stop-color="#2b2a2b"/></linearGradient><radialGradient cx="384.20478" cy="37.53623" r="17.49242" gradientUnits="userSpaceOnUse" id="color-14"><stop offset="0" stop-color="#000000" stop-opacity="0"/><stop offset="1" stop-color="#000000" stop-opacity="0"/></radialGradient><linearGradient x1="393.7967" y1="32.49083" x2="393.7967" y2="47.20038" gradientUnits="userSpaceOnUse" id="color-15"><stop offset="0" stop-color="#7f7f7f"/><stop offset="1" stop-color="#2b2a2b"/></linearGradient><radialGradient cx="396.78518" cy="39.13953" r="13.34367" gradientUnits="userSpaceOnUse" id="color-16"><stop offset="0" stop-color="#000000" stop-opacity="0"/><stop offset="1" stop-color="#000000" stop-opacity="0"/></radialGradient><linearGradient x1="409.23482" y1="28.04463" x2="409.23482" y2="47.20038" gradientUnits="userSpaceOnUse" id="color-17"><stop offset="0" stop-color="#7f7f7f"/><stop offset="1" stop-color="#2b2a2b"/></linearGradient><radialGradient cx="416.09841" cy="36.19926" r="21.5259" gradientUnits="userSpaceOnUse" id="color-18"><stop offset="0" stop-color="#000000" stop-opacity="0"/><stop offset="1" stop-color="#000000" stop-opacity="0"/></radialGradient><linearGradient x1="426.44698" y1="32.34519" x2="426.44698" y2="51.63258" gradientUnits="userSpaceOnUse" id="color-19"><stop offset="0" stop-color="#7f7f7f"/><stop offset="1" stop-color="#2b2a2b"/></linearGradient><radialGradient cx="418.55282" cy="37.6068" r="22.79365" gradientUnits="userSpaceOnUse" id="color-20"><stop offset="0" stop-color="#000000" stop-opacity="0"/><stop offset="1" stop-color="#000000" stop-opacity="0"/></radialGradient><linearGradient x1="458.20479" y1="8.68161" x2="458.20479" y2="46.51823" gradientUnits="userSpaceOnUse" id="color-21"><stop offset="0" stop-color="#7f7f7f"/><stop offset="1" stop-color="#2b2a2b"/></linearGradient><radialGradient cx="459.49374" cy="23.92598" r="28.66766" gradientUnits="userSpaceOnUse" id="color-22"><stop offset="0" stop-color="#000000" stop-opacity="0"/><stop offset="1" stop-color="#000000" stop-opacity="0"/></radialGradient><linearGradient x1="347.72636" y1="5.32011" x2="347.72636" y2="27.5123" gradientUnits="userSpaceOnUse" id="color-23"><stop offset="0" stop-color="#f96e91"/><stop offset="1" stop-color="#ff3183"/></linearGradient><radialGradient cx="371.9905" cy="22.59673" r="29.47568" gradientUnits="userSpaceOnUse" id="color-24"><stop offset="0" stop-color="#000000" stop-opacity="0"/><stop offset="1" stop-color="#000000" stop-opacity="0"/></radialGradient><linearGradient x1="374.99833" y1="10.48415" x2="374.99833" y2="27.5123" gradientUnits="userSpaceOnUse" id="color-25"><stop offset="0" stop-color="#31c00a"/><stop offset="1" stop-color="#a0d41c"/></linearGradient><radialGradient cx="382.28805" cy="23.60944" r="16.90139" gradientUnits="userSpaceOnUse" id="color-26"><stop offset="0" stop-color="#000000" stop-opacity="0"/><stop offset="1" stop-color="#000000" stop-opacity="0"/></radialGradient><linearGradient x1="393.33913" y1="10.48415" x2="393.33913" y2="27.5123" gradientUnits="userSpaceOnUse" id="color-27"><stop offset="0" stop-color="#00c2ff"/><stop offset="1" stop-color="#00acf2"/></linearGradient><radialGradient cx="404.57715" cy="17.98845" r="14.90147" gradientUnits="userSpaceOnUse" id="color-28"><stop offset="0" stop-color="#000000" stop-opacity="0"/><stop offset="1" stop-color="#000000" stop-opacity="0"/></radialGradient><linearGradient x1="415.62487" y1="3.64952" x2="415.62487" y2="27.5123" gradientUnits="userSpaceOnUse" id="color-29"><stop offset="0" stop-color="#f96e91"/><stop offset="1" stop-color="#ff3183"/></linearGradient><radialGradient cx="412.49141" cy="18.8668" r="19.85222" gradientUnits="userSpaceOnUse" id="color-30"><stop offset="0" stop-color="#000000" stop-opacity="0"/><stop offset="1" stop-color="#000000" stop-opacity="0"/></radialGradient><linearGradient x1="429.55076" y1="10.50113" x2="429.55076" y2="27.5123" gradientUnits="userSpaceOnUse" id="color-31"><stop offset="0" stop-color="#31c00a"/><stop offset="1" stop-color="#a0d41c"/></linearGradient><radialGradient cx="421.92292" cy="21.06165" r="21.01143" gradientUnits="userSpaceOnUse" id="color-32"><stop offset="0" stop-color="#000000" stop-opacity="0"/><stop offset="1" stop-color="#000000" stop-opacity="0"/></radialGradient><linearGradient x1="360.16414" y1="26.89786" x2="360.16414" y2="46.05361" gradientUnits="userSpaceOnUse" id="color-33"><stop offset="0" stop-color="#00c2ff"/><stop offset="1" stop-color="#00acf2"/></linearGradient><radialGradient cx="366.73398" cy="36.74009" r="20.87089" gradientUnits="userSpaceOnUse" id="color-34"><stop offset="0" stop-color="#000000" stop-opacity="0"/><stop offset="1" stop-color="#000000" stop-opacity="0"/></radialGradient><linearGradient x1="377.61236" y1="31.34406" x2="377.61236" y2="46.05361" gradientUnits="userSpaceOnUse" id="color-35"><stop offset="0" stop-color="#f96e91"/><stop offset="1" stop-color="#ff3183"/></linearGradient><radialGradient cx="383.72337" cy="36.38945" r="17.49242" gradientUnits="userSpaceOnUse" id="color-36"><stop offset="0" stop-color="#000000" stop-opacity="0"/><stop offset="1" stop-color="#000000" stop-opacity="0"/></radialGradient><linearGradient x1="393.31528" y1="31.34406" x2="393.31528" y2="46.05361" gradientUnits="userSpaceOnUse" id="color-37"><stop offset="0" stop-color="#31c00a"/><stop offset="1" stop-color="#a0d41c"/></linearGradient><radialGradient cx="396.30376" cy="37.99276" r="13.34367" gradientUnits="userSpaceOnUse" id="color-38"><stop offset="0" stop-color="#000000" stop-opacity="0"/><stop offset="1" stop-color="#000000" stop-opacity="0"/></radialGradient><linearGradient x1="408.75341" y1="26.89786" x2="408.75341" y2="46.05361" gradientUnits="userSpaceOnUse" id="color-39"><stop offset="0" stop-color="#00c2ff"/><stop offset="1" stop-color="#00acf2"/></linearGradient><radialGradient cx="415.617" cy="35.05249" r="21.5259" gradientUnits="userSpaceOnUse" id="color-40"><stop offset="0" stop-color="#000000" stop-opacity="0"/><stop offset="1" stop-color="#000000" stop-opacity="0"/></radialGradient><linearGradient x1="425.96556" y1="31.19842" x2="425.96556" y2="50.4858" gradientUnits="userSpaceOnUse" id="color-41"><stop offset="0" stop-color="#f96e91"/><stop offset="1" stop-color="#ff3183"/></linearGradient><radialGradient cx="418.0714" cy="36.46003" r="22.79365" gradientUnits="userSpaceOnUse" id="color-42"><stop offset="0" stop-color="#000000" stop-opacity="0"/><stop offset="1" stop-color="#000000" stop-opacity="0"/></radialGradient><linearGradient x1="439.72116" y1="7.53484" x2="439.72116" y2="45.37146" gradientUnits="userSpaceOnUse" id="color-43"><stop offset="0" stop-color="#ff9400"/><stop offset="1" stop-color="#ffef80"/></linearGradient><radialGradient cx="459.01234" cy="22.77921" r="28.66766" gradientUnits="userSpaceOnUse" id="color-44"><stop offset="0" stop-color="#000000" stop-opacity="0"/><stop offset="1" stop-color="#000000" stop-opacity="0"/></radialGradient></defs><g transform="translate(-2.88315,-1.70075)"><g data-paper-data="{&quot;isPaintingLayer&quot;:true}" fill-rule="nonzero" stroke-miterlimit="10" stroke-dasharray="" stroke-dashoffset="0" style="mix-blend-mode: normal"><g stroke-linecap="round" stroke-linejoin="round"><g><g stroke-width="3.89753"><path d="M355.81005,6.46688c3.2159,0.22726 4.82389,0.43136 4.82389,0.61305c1.23843,3.32955 1.99448,5.4547 2.26662,6.37543c0.034,0 0.06879,0 0.10278,0c0.29534,-0.63701 1.42555,-2.38646 3.39143,-5.24985c0.034,0 0.06879,0 0.10282,0c3.07908,0.19327 4.619,0.40276 4.619,0.63003c0.92616,6.33524 1.85227,12.67044 2.77839,19.00564c0,0.11365 -2.43204,0.38578 -7.29535,0.8179l-0.10203,-0.20485c-0.27292,-5.77241 -0.40974,-9.30067 -0.40974,-10.58472c-0.034,0 -0.06803,0 -0.10203,0l-4.21009,3.69907h-0.10203c-0.13686,-0.06799 -1.09697,-1.57391 -2.88042,-4.51697c-0.03404,0 -0.06883,0 -0.10282,0c-2.19319,6.38626 -3.39143,9.77765 -3.59629,10.17577c-0.06803,0 -0.13607,0 -0.2041,0c-3.92094,-1.77262 -6.14812,-2.83559 -6.68231,-3.1873c0,-0.03404 0,-0.06803 0,-0.10282c4.86407,-11.43122 7.39818,-17.25469 7.60227,-17.47037z" fill="url(#color-1)" stroke="url(#color-2)"/><path d="M378.07102,11.63093c6.74958,0.9323 10.12475,1.50592 10.12475,1.7216c2.65855,2.28439 3.98822,3.5058 3.98822,3.66507c-1.07995,3.37438 -1.693,5.4261 -1.84065,6.15276c1.0792,2.39804 1.693,3.82974 1.84065,4.29589c0,0.13607 -1.76103,0.49939 -5.28385,1.09078c-0.04562,-0.19327 -0.36952,-0.62542 -0.97174,-1.29563c-4.86332,0.93151 -7.48243,1.39766 -7.85739,1.39766l-2.59127,-7.00545l5.71057,-3.01723c0.91993,0.14765 2.35781,0.22187 4.31211,0.22187c0,-0.24972 0.03404,-1.00577 0.10207,-2.26662c-0.32933,0 -3.27239,0.21568 -8.82912,0.64704c-0.034,-0.07343 -0.06803,-0.14765 -0.10203,-0.22108c0.77228,-3.59089 1.23843,-5.38667 1.39766,-5.38667zM381.61629,21.65362c0,0.12524 0.36333,1.45411 1.09078,3.98822c0.034,0 0.06803,0 0.10203,0c1.4317,-0.93155 2.14757,-1.54535 2.14757,-1.84065l0.22187,-1.82367c-0.27288,0 -1.4603,-0.10822 -3.56225,-0.3239z" fill="url(#color-3)" stroke="url(#color-4)"/><path d="M406.05808,11.63093c2.25039,1.2616 3.63107,2.0795 4.14205,2.45445c-1.84065,3.82974 -2.8294,5.7786 -2.96547,5.84664c-0.04018,0 -0.07962,0 -0.1198,0l-2.43668,-2.13055c-0.96095,1.1704 -1.92106,2.34084 -2.88121,3.51123c0.03634,0.71043 0.28835,5.68197 0.3239,6.39165c-0.14765,0.13682 -2.02848,0.45457 -5.64178,0.95472c-0.13603,-0.97713 -1.02275,-5.76702 -2.65855,-14.36884c0,-0.13607 2.37483,-0.48857 7.12454,-1.05675c0.07962,0.0912 0.2953,1.15338 0.6478,3.1873c2.84023,-3.19273 4.32913,-4.78985 4.4652,-4.78985z" fill="url(#color-5)" stroke="url(#color-6)"/><path d="M413.93321,4.7963c2.23258,0.35254 4.46595,0.70425 6.69853,1.05679c-0.84107,3.21594 -1.39227,4.82389 -1.65357,4.82389c-3.52206,-0.23889 -5.28385,-0.47159 -5.28385,-0.69885v-4.94293c0.03404,-0.15927 0.11365,-0.23889 0.23889,-0.23889zM412.05855,12.90955c0.03404,0 0.06803,0 0.10207,0c5.18178,0.94313 7.77233,1.49434 7.77233,1.65357c-1.48894,8.431 -2.39185,13.13041 -2.71035,14.09595c-1.80122,0 -3.60168,0 -5.4029,0c-0.15927,0 -0.23889,-0.07962 -0.23889,-0.23885c0.15923,-5.17024 0.3185,-10.34044 0.47774,-15.51067z" fill="url(#color-7)" stroke="url(#color-8)"/><path d="M428.02918,11.64791c4.3183,1.15961 6.60809,1.86385 6.86939,2.11357c2.37483,3.36355 3.7099,5.30162 4.00523,5.8126c-1.53377,4.86332 -2.41426,7.29535 -2.64157,7.29535c-5.11379,1.19285 -7.79011,1.78963 -8.0282,1.78963c-4.2271,-2.46603 -6.47745,-3.84053 -6.75034,-4.12503c-0.14765,-4.59043 -0.22112,-7.1245 -0.22112,-7.60148c-0.06803,-0.13682 -0.10203,-0.23889 -0.10203,-0.30692c4.36313,-3.31797 6.61891,-4.97772 6.76656,-4.97772c0.02011,0 0.08196,0 0.10207,0zM427.70523,17.88652c-0.06799,0.45457 -0.17006,2.10814 -0.30688,4.95995l3.80114,0.85265c0.9091,-2.84098 1.36367,-4.35769 1.36367,-4.55096c-3.02267,-0.90914 -4.6422,-1.36371 -4.85792,-1.36371c0,0.03404 0,0.06803 0,0.10207z" fill="url(#color-9)" stroke="url(#color-10)"/></g><g stroke-width="3.36683"><path d="M362.78051,28.04463l6.41954,4.7407c-0.88347,4.03483 -1.44245,6.05157 -1.67816,6.05157c-0.04943,0 -1.2274,0.99169 -3.534,2.97439c-1.43309,-0.06879 -3.07253,-0.16161 -4.91762,-0.27983l-0.19168,5.30099c-0.40201,0.11754 -2.13959,0.24039 -5.21217,0.36793c-0.37329,0 -0.55961,-1.05512 -0.55961,-3.16599c-0.67711,-8.73614 -1.01569,-13.44744 -1.01569,-14.13463c1.14858,-0.24575 4.71131,-0.86411 10.6894,-1.85513zM358.79043,32.22639v6.13971c2.41474,-0.43208 3.62215,-0.68247 3.62215,-0.75125l0.8394,-3.62215c-1.18801,-0.49083 -2.67517,-1.07983 -4.46155,-1.76631z" fill="url(#color-11)" stroke="url(#color-12)"/><path d="M373.11668,32.49083c5.8312,0.80536 8.74613,1.30087 8.74613,1.4872c2.2972,1.97334 3.44582,3.02846 3.44582,3.16603c-0.9329,2.91493 -1.46316,4.68727 -1.59069,5.31499c0.9329,2.07148 1.46248,3.30825 1.59069,3.71093c0,0.11754 -1.52191,0.4314 -4.56505,0.94226c-0.03876,-0.16693 -0.31854,-0.54025 -0.83876,-1.11923c-4.20179,0.80469 -6.46428,1.20737 -6.78814,1.20737l-2.23782,-6.05157l4.93234,-2.60642c0.79537,0.12758 2.03681,0.19168 3.72501,0.19168c0,-0.21572 0.03003,-0.86883 0.08878,-1.95799c-0.28514,0 -2.82742,0.18633 -7.62691,0.55894l-0.08882,-0.19097c0.66783,-3.10193 1.06984,-4.65323 1.20741,-4.65323zM376.17918,41.14882c0,0.10818 0.31454,1.25612 0.94226,3.44519c0.03007,0 0.05942,0 0.08882,0c1.23676,-0.80473 1.85513,-1.33495 1.85513,-1.59006c0.06347,-0.52486 0.12758,-1.05044 0.19168,-1.5753c-0.23575,0 -1.26148,-0.0935 -3.07789,-0.27983z" fill="url(#color-13)" stroke="url(#color-14)"/><path d="M397.29362,32.49083c1.94327,1.08983 3.13596,1.79638 3.57808,2.12028c-1.59006,3.30825 -2.44417,4.99177 -2.56235,5.05052c-0.03408,0 -0.06811,0 -0.10286,0c-0.70183,-0.61368 -1.40369,-1.22673 -2.10556,-1.84045c-0.8294,1.01105 -1.6588,2.02209 -2.48821,3.03314l0.27983,5.52135c-0.12758,0.11821 -1.7523,0.39268 -4.87359,0.82472c-0.11821,-0.84408 -0.88351,-4.98177 -2.29724,-12.41231c0,-0.11754 2.05149,-0.42208 6.15443,-0.91291c0.06879,0.07882 0.25575,0.99637 0.55961,2.75336c2.45417,-2.75804 3.74032,-4.13769 3.85786,-4.13769z" fill="url(#color-15)" stroke="url(#color-16)"/><path d="M406.46647,28.04463c2.15967,0.38265 4.31933,0.7653 6.47896,1.14862l-0.61836,4.91766c1.28552,-0.06879 2.22778,-0.10354 2.82678,-0.10354c0.31386,0 0.6284,0 0.94226,0c0.06879,-0.03404 0.13757,-0.06811 0.20636,-0.10282l0.10282,0.20636c-0.20636,2.98371 -0.38265,4.66255 -0.53022,5.03516l-0.20568,-0.1175c-0.14757,0 -1.47248,-0.06879 -3.9754,-0.20636c-0.13757,2.30724 -0.24107,5.06523 -0.30918,8.27534l-0.20636,0.10282c-3.16068,-0.20632 -5.0452,-0.38265 -5.65424,-0.53022c0.03475,-0.13757 0.06879,-0.27447 0.1035,-0.41204c0,-0.85412 0.1369,-3.50457 0.41204,-7.95077c-2.65049,-0.14761 -3.9754,-0.3239 -3.9754,-0.53026c0.13757,-3.27885 0.31386,-4.91762 0.53026,-4.91762l3.87187,0.7359c0,-0.42204 0,-0.84412 0,-1.26616c0,-1.03108 -0.03872,-2.42478 -0.11754,-4.18172c0.07882,0 0.11754,-0.03408 0.11754,-0.10286z" fill="url(#color-17)" stroke="url(#color-18)"/><path d="M424.68265,32.49618c0.30652,0.03003 0.3072,-0.30787 0.23306,0.2304c-0.29248,2.13559 -0.80937,4.21711 -1.23474,6.31402c-0.08481,0.72856 -0.92623,1.99135 -0.29653,2.16701c1.37168,0.40332 4.38812,-0.6184 4.38812,-0.82476c0.54958,-3.39572 0.92754,-5.30031 1.13323,-5.71232c3.62215,0.74594 5.62953,1.18734 6.02221,1.32491c-2.11024,7.25426 -3.26822,11.03334 -3.47458,11.3372c-3.6909,2.5917 -5.76706,4.02479 -6.22853,4.29994c-0.13757,0 -2.48821,-0.57965 -7.05262,-1.73763c0,-0.03471 0,-0.06879 0,-0.10282c1.20741,-2.66053 1.95799,-3.99075 2.25249,-3.99075l4.49094,2.25313l2.14963,-3.6809c-1.93328,0.48083 -3.05718,0.72122 -3.37172,0.72122c-1.90924,-0.99169 -3.81843,-1.98266 -5.72767,-2.97435c0.69719,-6.40018 0.72388,-8.93849 1.32558,-9.60025c0.15292,-0.36797 4.57706,-0.04475 5.39112,-0.02404z" fill="url(#color-19)" stroke="url(#color-20)"/></g><path d="M463.06282,8.68161c6.97903,3.52841 10.56683,5.29329 10.76073,5.29329c0,0.30997 -1.45491,3.11161 -4.36341,8.4049c-0.06728,0 -0.13587,0 -0.20311,0c-0.23349,0 -3.57724,-1.58018 -10.03395,-4.74062l-3.28572,4.3911c5.56372,2.67501 12.32115,6.0887 20.26966,10.23706c-3.60624,6.41843 -6.16518,10.6829 -7.67681,12.7973l-16.43258,1.4536c-7.50266,-5.05984 -11.46771,-7.67812 -11.89507,-7.85227c0,-0.06859 0,-0.13583 0,-0.20442c0,-0.54216 1.52218,-3.03382 4.56651,-7.47371c0.12531,0 0.25194,0 0.37856,0c1.20166,0.71758 4.97276,2.78188 11.31209,6.19422l3.83969,-4.36206c-11.65237,-5.93304 -18.10908,-9.28734 -19.36873,-10.06295c0,-0.05804 0,-0.11607 0,-0.17411c3.70252,-7.21248 5.71934,-10.86756 6.04911,-10.96384c9.63555,-1.95878 14.99612,-2.9375 16.08302,-2.9375z" fill="url(#color-21)" stroke="url(#color-22)" stroke-width="6.6502"/></g><g><g stroke-width="3.89753"><path d="M355.32864,5.32011c3.2159,0.22726 4.82389,0.43136 4.82389,0.61305c1.23843,3.32955 1.99448,5.4547 2.26662,6.37543c0.034,0 0.06879,0 0.10278,0c0.29534,-0.63701 1.42555,-2.38646 3.39143,-5.24985c0.034,0 0.06879,0 0.10282,0c3.07908,0.19327 4.619,0.40276 4.619,0.63003c0.92616,6.33524 1.85227,12.67044 2.77839,19.00564c0,0.11365 -2.43204,0.38578 -7.29535,0.8179l-0.10203,-0.20485c-0.27292,-5.77241 -0.40974,-9.30067 -0.40974,-10.58472c-0.034,0 -0.06803,0 -0.10203,0l-4.21009,3.69907h-0.10203c-0.13686,-0.06799 -1.09697,-1.57391 -2.88042,-4.51697c-0.03404,0 -0.06883,0 -0.10282,0c-2.19319,6.38626 -3.39143,9.77765 -3.59629,10.17577c-0.06803,0 -0.13607,0 -0.2041,0c-3.92094,-1.77262 -6.14812,-2.83559 -6.68231,-3.1873c0,-0.03404 0,-0.06803 0,-0.10282c4.86407,-11.43122 7.39818,-17.25469 7.60227,-17.47037z" fill="url(#color-23)" stroke="url(#color-24)"/><path d="M377.58961,10.48415c6.74958,0.9323 10.12475,1.50592 10.12475,1.7216c2.65855,2.28439 3.98822,3.5058 3.98822,3.66507c-1.07995,3.37438 -1.693,5.4261 -1.84065,6.15276c1.0792,2.39804 1.693,3.82974 1.84065,4.29589c0,0.13607 -1.76103,0.49939 -5.28385,1.09078c-0.04562,-0.19327 -0.36952,-0.62542 -0.97174,-1.29563c-4.86332,0.93151 -7.48243,1.39766 -7.85739,1.39766l-2.59127,-7.00545l5.71057,-3.01723c0.91993,0.14765 2.35781,0.22187 4.31211,0.22187c0,-0.24972 0.03404,-1.00577 0.10207,-2.26662c-0.32933,0 -3.27239,0.21568 -8.82912,0.64704c-0.034,-0.07343 -0.06803,-0.14765 -0.10203,-0.22108c0.77228,-3.59089 1.23843,-5.38667 1.39766,-5.38667zM381.13488,20.50685c0,0.12524 0.36333,1.45411 1.09078,3.98822c0.034,0 0.06803,0 0.10203,0c1.4317,-0.93155 2.14757,-1.54535 2.14757,-1.84065l0.22187,-1.82367c-0.27288,0 -1.4603,-0.10822 -3.56225,-0.3239z" fill="url(#color-25)" stroke="url(#color-26)"/><path d="M405.57665,10.48415c2.25039,1.2616 3.63107,2.0795 4.14205,2.45445c-1.84065,3.82974 -2.8294,5.7786 -2.96547,5.84664c-0.04018,0 -0.07962,0 -0.1198,0l-2.43668,-2.13055c-0.96095,1.1704 -1.92106,2.34084 -2.88121,3.51123c0.03634,0.71043 0.28835,5.68197 0.3239,6.39165c-0.14765,0.13682 -2.02848,0.45457 -5.64178,0.95472c-0.13603,-0.97713 -1.02275,-5.76702 -2.65855,-14.36884c0,-0.13607 2.37483,-0.48857 7.12454,-1.05675c0.07962,0.0912 0.2953,1.15338 0.6478,3.1873c2.84023,-3.19273 4.32913,-4.78985 4.4652,-4.78985z" fill="url(#color-27)" stroke="url(#color-28)"/><path d="M413.45182,3.64952c2.23258,0.35254 4.46595,0.70425 6.69853,1.05679c-0.84107,3.21594 -1.39227,4.82389 -1.65357,4.82389c-3.52206,-0.23889 -5.28385,-0.47159 -5.28385,-0.69885v-4.94293c0.03404,-0.15927 0.11365,-0.23889 0.23889,-0.23889zM411.57714,11.76277c0.03404,0 0.06803,0 0.10207,0c5.18178,0.94313 7.77233,1.49434 7.77233,1.65357c-1.48894,8.431 -2.39185,13.13041 -2.71035,14.09595c-1.80122,0 -3.60168,0 -5.4029,0c-0.15927,0 -0.23889,-0.07962 -0.23889,-0.23885c0.15923,-5.17024 0.3185,-10.34044 0.47774,-15.51067z" fill="url(#color-29)" stroke="url(#color-30)"/><path d="M427.54777,10.50113c4.3183,1.15961 6.60809,1.86385 6.86939,2.11357c2.37483,3.36355 3.7099,5.30162 4.00523,5.8126c-1.53377,4.86332 -2.41426,7.29535 -2.64157,7.29535c-5.11379,1.19285 -7.79011,1.78963 -8.0282,1.78963c-4.2271,-2.46603 -6.47745,-3.84053 -6.75034,-4.12503c-0.14765,-4.59043 -0.22112,-7.1245 -0.22112,-7.60148c-0.06803,-0.13682 -0.10203,-0.23889 -0.10203,-0.30692c4.36313,-3.31797 6.61891,-4.97772 6.76656,-4.97772c0.02011,0 0.08196,0 0.10207,0zM427.22383,16.73974c-0.06799,0.45457 -0.17006,2.10814 -0.30688,4.95995l3.80114,0.85265c0.9091,-2.84098 1.36367,-4.35769 1.36367,-4.55096c-3.02267,-0.90914 -4.6422,-1.36371 -4.85792,-1.36371c0,0.03404 0,0.06803 0,0.10207z" fill="url(#color-31)" stroke="url(#color-32)"/></g><g stroke-width="3.36683"><path d="M362.2991,26.89786l6.41954,4.7407c-0.88347,4.03483 -1.44245,6.05157 -1.67816,6.05157c-0.04943,0 -1.2274,0.99169 -3.534,2.97439c-1.43309,-0.06879 -3.07253,-0.16161 -4.91762,-0.27983l-0.19168,5.30099c-0.40201,0.11754 -2.13959,0.24039 -5.21217,0.36793c-0.37329,0 -0.55961,-1.05512 -0.55961,-3.16599c-0.67711,-8.73614 -1.01569,-13.44744 -1.01569,-14.13463c1.14858,-0.24575 4.71131,-0.86411 10.6894,-1.85513zM358.30902,31.07962v6.13971c2.41474,-0.43208 3.62215,-0.68247 3.62215,-0.75125l0.8394,-3.62215c-1.18801,-0.49083 -2.67517,-1.07983 -4.46155,-1.76631z" fill="url(#color-33)" stroke="url(#color-34)"/><path d="M372.63528,31.34406c5.8312,0.80536 8.74613,1.30087 8.74613,1.4872c2.2972,1.97334 3.44582,3.02846 3.44582,3.16603c-0.9329,2.91493 -1.46316,4.68727 -1.59069,5.31499c0.9329,2.07148 1.46248,3.30825 1.59069,3.71093c0,0.11754 -1.52191,0.4314 -4.56505,0.94226c-0.03876,-0.16693 -0.31854,-0.54025 -0.83876,-1.11923c-4.20179,0.80469 -6.46428,1.20737 -6.78814,1.20737l-2.23782,-6.05157l4.93234,-2.60642c0.79537,0.12758 2.03681,0.19168 3.72501,0.19168c0,-0.21572 0.03003,-0.86883 0.08878,-1.95799c-0.28514,0 -2.82742,0.18633 -7.62691,0.55894l-0.08882,-0.19097c0.66783,-3.10193 1.06984,-4.65323 1.20741,-4.65323zM375.69778,40.00204c0,0.10818 0.31454,1.25612 0.94226,3.44519c0.03007,0 0.05942,0 0.08882,0c1.23676,-0.80473 1.85513,-1.33495 1.85513,-1.59006c0.06347,-0.52486 0.12758,-1.05044 0.19168,-1.5753c-0.23575,0 -1.26148,-0.0935 -3.07789,-0.27983z" fill="url(#color-35)" stroke="url(#color-36)"/><path d="M396.8122,31.34406c1.94327,1.08983 3.13596,1.79638 3.57808,2.12028c-1.59006,3.30825 -2.44417,4.99177 -2.56235,5.05052c-0.03408,0 -0.06811,0 -0.10286,0c-0.70183,-0.61368 -1.40369,-1.22673 -2.10556,-1.84045c-0.8294,1.01105 -1.6588,2.02209 -2.48821,3.03314l0.27983,5.52135c-0.12758,0.11821 -1.7523,0.39268 -4.87359,0.82472c-0.11821,-0.84408 -0.88351,-4.98177 -2.29724,-12.41231c0,-0.11754 2.05149,-0.42208 6.15443,-0.91291c0.06879,0.07882 0.25575,0.99637 0.55961,2.75336c2.45417,-2.75804 3.74032,-4.13769 3.85786,-4.13769z" fill="url(#color-37)" stroke="url(#color-38)"/><path d="M405.98506,26.89786c2.15967,0.38265 4.31933,0.7653 6.47896,1.14862l-0.61836,4.91766c1.28552,-0.06879 2.22778,-0.10354 2.82678,-0.10354c0.31386,0 0.6284,0 0.94226,0c0.06879,-0.03404 0.13757,-0.06811 0.20636,-0.10282l0.10282,0.20636c-0.20636,2.98371 -0.38265,4.66255 -0.53022,5.03516l-0.20568,-0.1175c-0.14757,0 -1.47248,-0.06879 -3.9754,-0.20636c-0.13757,2.30724 -0.24107,5.06523 -0.30918,8.27534l-0.20636,0.10282c-3.16068,-0.20632 -5.0452,-0.38265 -5.65424,-0.53022c0.03475,-0.13757 0.06879,-0.27447 0.1035,-0.41204c0,-0.85412 0.1369,-3.50457 0.41204,-7.95077c-2.65049,-0.14761 -3.9754,-0.3239 -3.9754,-0.53026c0.13757,-3.27885 0.31386,-4.91762 0.53026,-4.91762l3.87187,0.7359c0,-0.42204 0,-0.84412 0,-1.26616c0,-1.03108 -0.03872,-2.42478 -0.11754,-4.18172c0.07882,0 0.11754,-0.03408 0.11754,-0.10286z" fill="url(#color-39)" stroke="url(#color-40)"/><path d="M424.20124,31.34941c0.30652,0.03003 0.3072,-0.30787 0.23306,0.2304c-0.29248,2.13559 -0.80937,4.21711 -1.23474,6.31402c-0.08481,0.72856 -0.92623,1.99135 -0.29653,2.16701c1.37168,0.40332 4.38812,-0.6184 4.38812,-0.82476c0.54958,-3.39572 0.92754,-5.30031 1.13323,-5.71232c3.62215,0.74594 5.62953,1.18734 6.02221,1.32491c-2.11024,7.25426 -3.26822,11.03334 -3.47458,11.3372c-3.6909,2.5917 -5.76706,4.02479 -6.22853,4.29994c-0.13757,0 -2.48821,-0.57965 -7.05262,-1.73763c0,-0.03471 0,-0.06879 0,-0.10282c1.20741,-2.66053 1.95799,-3.99075 2.25249,-3.99075l4.49094,2.25313l2.14963,-3.6809c-1.93328,0.48083 -3.05718,0.72122 -3.37172,0.72122c-1.90924,-0.99169 -3.81843,-1.98266 -5.72767,-2.97435c0.69719,-6.40018 0.72388,-8.93849 1.32558,-9.60025c0.15292,-0.36797 4.57706,-0.04475 5.39112,-0.02404z" fill="url(#color-41)" stroke="url(#color-42)"/></g><path d="M462.5814,7.53484c6.97903,3.52841 10.56683,5.29329 10.76073,5.29329c0,0.30997 -1.45491,3.11161 -4.36341,8.4049c-0.06728,0 -0.13587,0 -0.20311,0c-0.23349,0 -3.57724,-1.58018 -10.03395,-4.74062l-3.28572,4.3911c5.56372,2.67501 12.32115,6.0887 20.26966,10.23706c-3.60624,6.41843 -6.16518,10.6829 -7.67681,12.7973l-16.43258,1.4536c-7.50266,-5.05984 -11.46771,-7.67812 -11.89507,-7.85227c0,-0.06859 0,-0.13583 0,-0.20442c0,-0.54216 1.52218,-3.03382 4.56651,-7.47371c0.12531,0 0.25194,0 0.37856,0c1.20166,0.71758 4.97276,2.78188 11.31209,6.19422l3.83969,-4.36206c-11.65237,-5.93304 -18.10908,-9.28734 -19.36873,-10.06295c0,-0.05804 0,-0.11607 0,-0.17411c3.70252,-7.21248 5.71934,-10.86756 6.04911,-10.96384c9.63555,-1.95878 14.99612,-2.9375 16.08302,-2.9375z" fill="url(#color-43)" stroke="url(#color-44)" stroke-width="6.6502"/></g></g><text transform="translate(7.50003,26.00001) scale(0.5,0.5)" font-size="40" xml:space="preserve" fill="#000000" fill-rule="nonzero" stroke="none" stroke-width="1" stroke-linecap="butt" stroke-linejoin="miter" stroke-miterlimit="10" stroke-dasharray="" stroke-dashoffset="0" font-family="Sans Serif" font-weight="normal" text-anchor="start" style="mix-blend-mode: normal"><tspan x="0" dy="0">Bug Tracker</tspan></text><text transform="translate(6.00002,24.00001) scale(0.5,0.5)" font-size="40" xml:space="preserve" data-paper-data="{&quot;origPos&quot;:null}" fill="#ffffff" fill-rule="nonzero" stroke="none" stroke-width="1" stroke-linecap="butt" stroke-linejoin="miter" stroke-miterlimit="10" stroke-dasharray="" stroke-dashoffset="0" font-family="Sans Serif" font-weight="normal" text-anchor="start" style="mix-blend-mode: normal"><tspan x="0" dy="0">Bug Tracker</tspan></text><text transform="translate(3.00001,40.55248) scale(0.23371,0.21261)" font-size="40" xml:space="preserve" data-paper-data="{&quot;origPos&quot;:null}" fill="#ffffff" fill-rule="nonzero" stroke="none" stroke-width="1" stroke-linecap="butt" stroke-linejoin="miter" stroke-miterlimit="10" stroke-dasharray="" stroke-dashoffset="0" font-family="Sans Serif" font-weight="normal" text-anchor="start" style="mix-blend-mode: normal"><tspan x="0" dy="0">-</tspan><tspan x="0" dy="46.15px">-</tspan><tspan x="0" dy="46.15px">-</tspan><tspan x="0" dy="46.15px">-</tspan><tspan x="0" dy="46.15px">-</tspan><tspan x="0" dy="46.15px">-</tspan><tspan x="0" dy="46.15px">-</tspan><tspan x="0" dy="46.15px">-</tspan><tspan x="0" dy="46.15px">-</tspan><tspan x="0" dy="46.15px">-</tspan><tspan x="0" dy="46.15px">-</tspan><tspan x="0" dy="46.15px">-</tspan><tspan x="0" dy="46.15px">-</tspan><tspan x="0" dy="46.15px">-</tspan><tspan x="0" dy="46.15px">-</tspan><tspan x="0" dy="46.15px">-</tspan><tspan x="0" dy="46.15px">-</tspan><tspan x="0" dy="46.15px">-</tspan><tspan x="0" dy="46.15px">-</tspan><tspan x="0" dy="46.15px">-</tspan><tspan x="0" dy="46.15px">-</tspan><tspan x="0" dy="46.15px">-</tspan><tspan x="0" dy="46.15px">-</tspan><tspan x="0" dy="46.15px">-</tspan><tspan x="0" dy="46.15px">-</tspan><tspan x="0" dy="46.15px">-</tspan><tspan x="0" dy="46.15px">-</tspan><tspan x="0" dy="46.15px">-</tspan><tspan x="0" dy="46.15px">-</tspan><tspan x="0" dy="46.15px">-</tspan><tspan x="0" dy="46.15px">-</tspan><tspan x="0" dy="46.15px">-</tspan><tspan x="0" dy="46.15px">-</tspan></text></g></g></svg>